<svg viewBox="0 0 600 466" xmlns="http://www.w3.org/2000/svg"><path d="m-.83 0h600v466h-600z" fill="#5bc0c7"/><path d="m468.52 93.39c0-7.4 5.22-12.24 12.24-12.24s12.36 5 12.36 12.24c0 3.31-.51 5.74-3.44 12.75l-7.39 18.35h-12.63l5.61-20.27c-4.2-1.78-6.75-5.61-6.75-10.83zm-30.09 0c0-7.4 5.23-12.24 12.24-12.24s12.33 4.97 12.33 12.24c0 3.31-.51 5.74-3.45 12.75l-7.39 18.35h-12.58l5.61-20.27c-4.19-1.78-6.76-5.61-6.76-10.83z" fill="#fff"/><path d="m440.91 76.84a165.26 165.26 0 0 0 -97.84-32h-254.07v161.49c0 1.62-.08 3.25-.08 4.89s0 3.27.08 4.9v161.51h85.41l-22.29 43.55 76.11-43.55h281.24v-166.41-4.95h-.08a164.93 164.93 0 0 0 -20.53-75" fill="none" stroke="#fff" stroke-linecap="round" stroke-linejoin="round" stroke-width="2.83"/><g fill="#fff"><path d="m156.88 136.78-5.27 9.8h-1.09l-1.2-8.32-4.57 8.32h-1.09l-1.35-9.8h1l1.16 8.44 4.61-8.44h1l1.19 8.46 4.59-8.46z"/><path d="m158 143.18a1.46 1.46 0 0 0 0 .29c0 1.47.84 2.3 2.54 2.3a3.35 3.35 0 0 0 2.41-.92l.45.71a4.22 4.22 0 0 1 -2.94 1.09c-2.13 0-3.44-1.2-3.44-3.13a4.11 4.11 0 0 1 4.08-4.36 2.93 2.93 0 0 1 3.21 3.12 4.35 4.35 0 0 1 -.1.9zm.1-.74h5.25a2.53 2.53 0 0 0 0-.27 2.08 2.08 0 0 0 -2.31-2.17 3 3 0 0 0 -2.93 2.44z"/><path d="m170.52 145.76.48-.76a4 4 0 0 0 2.55.82c1.41 0 2.18-.5 2.18-1.32 0-1.67-4.17-.52-4.17-3 0-1.4 1.26-2.3 3.19-2.3a4.5 4.5 0 0 1 2.5.69l-.42.79a3.75 3.75 0 0 0 -2.16-.63c-1.36 0-2.13.55-2.13 1.35 0 1.71 4.17.54 4.17 3 0 1.45-1.3 2.29-3.26 2.29a4.69 4.69 0 0 1 -2.93-.93z"/><path d="m180.66 139.22h1l-1.45 7.36h-1zm.25-2.27a.75.75 0 0 1 .77-.76.66.66 0 0 1 .69.63.76.76 0 0 1 -.79.78.65.65 0 0 1 -.67-.6z"/><path d="m191.71 141.55a4.14 4.14 0 0 1 -.09.84l-.84 4.19h-1l.84-4.2a4.13 4.13 0 0 0 .07-.67c0-1.05-.63-1.65-1.9-1.65a2.87 2.87 0 0 0 -3 2.57l-.79 4h-1l1.46-7.36h1l-.24 1.17a3.63 3.63 0 0 1 2.89-1.23 2.31 2.31 0 0 1 2.6 2.34z"/><path d="m194.5 143.53a4.18 4.18 0 0 1 4.29-4.37 3.07 3.07 0 0 1 2.9 1.47l-.84.49a2.26 2.26 0 0 0 -2.14-1.09 3.24 3.24 0 0 0 -3.21 3.46 2.15 2.15 0 0 0 2.45 2.28 2.87 2.87 0 0 0 2.33-1.06l.71.54a3.8 3.8 0 0 1 -3.08 1.4c-2.1 0-3.41-1.23-3.41-3.12z"/><path d="m204.31 143.18a1.46 1.46 0 0 0 0 .29c0 1.47.84 2.3 2.54 2.3a3.35 3.35 0 0 0 2.41-.92l.44.71a4.19 4.19 0 0 1 -2.94 1.09c-2.13 0-3.43-1.2-3.43-3.13a4.1 4.1 0 0 1 4.08-4.36 2.93 2.93 0 0 1 3.2 3.12 5.18 5.18 0 0 1 -.09.9zm.09-.74h5.26a2.53 2.53 0 0 0 0-.27 2.08 2.08 0 0 0 -2.31-2.17 3 3 0 0 0 -2.95 2.44z"/><path d="m218.07 139.16-.18 1h-.28c-1.57 0-2.62.9-3 2.73l-.74 3.74h-1l1.45-7.36h1l-.26 1.34a3.33 3.33 0 0 1 3.01-1.45z"/><path d="m220.29 143.18v.29c0 1.47.84 2.3 2.53 2.3a3.34 3.34 0 0 0 2.41-.92l.45.71a4.19 4.19 0 0 1 -2.94 1.09c-2.13 0-3.43-1.2-3.43-3.13a4.1 4.1 0 0 1 4.07-4.36 2.93 2.93 0 0 1 3.21 3.12 4.35 4.35 0 0 1 -.1.9zm.1-.74h5.25a1.27 1.27 0 0 0 0-.27 2.08 2.08 0 0 0 -2.31-2.17 3 3 0 0 0 -2.94 2.44z"/><path d="m231 136.19h1l-2.07 10.39h-1z"/><path d="m241.35 139.22-5.35 8.32c-.91 1.4-1.59 1.83-2.66 1.83a2.39 2.39 0 0 1 -1.75-.66l.53-.73a1.74 1.74 0 0 0 1.31.54c.63 0 1.12-.3 1.69-1.19l.52-.79-1.84-7.32h1l1.53 6.27 4-6.27z"/><path d="m255.24 139.22-1.47 7.36h-1l.24-1.16a3.81 3.81 0 0 1 -2.88 1.23 3 3 0 0 1 -3.2-3.12 4.14 4.14 0 0 1 4.16-4.37 2.76 2.76 0 0 1 2.8 1.6l.31-1.54zm-1.65 3.11a2.16 2.16 0 0 0 -2.43-2.3 3.23 3.23 0 0 0 -3.19 3.46 2.14 2.14 0 0 0 2.42 2.28 3.22 3.22 0 0 0 3.2-3.44z"/><path d="m265.85 142.27a4.15 4.15 0 0 1 -4.17 4.38 2.75 2.75 0 0 1 -2.8-1.61l-.88 4.26h-1l2-10.08h1l-.24 1.17a3.74 3.74 0 0 1 2.87-1.23 3 3 0 0 1 3.22 3.11zm-1 .06a2.15 2.15 0 0 0 -2.42-2.3 3.22 3.22 0 0 0 -3.18 3.46 2.14 2.14 0 0 0 2.42 2.28 3.21 3.21 0 0 0 3.17-3.44z"/><path d="m276.39 142.27a4.15 4.15 0 0 1 -4.17 4.38 2.75 2.75 0 0 1 -2.8-1.61l-.84 4.26h-1l2-10.08h1l-.24 1.17a3.74 3.74 0 0 1 2.87-1.23 3 3 0 0 1 3.18 3.11zm-1 .06a2.16 2.16 0 0 0 -2.39-2.33 3.22 3.22 0 0 0 -3.18 3.46 2.15 2.15 0 0 0 2.43 2.28 3.21 3.21 0 0 0 3.14-3.41z"/><path d="m283.85 139.16-.18 1h-.28c-1.57 0-2.62.9-3 2.73l-.74 3.74h-1l1.46-7.36h.95l-.25 1.34a3.31 3.31 0 0 1 3.04-1.45z"/><path d="m286.08 143.18a1.46 1.46 0 0 0 0 .29c0 1.47.84 2.3 2.54 2.3a3.35 3.35 0 0 0 2.41-.92l.45.71a4.22 4.22 0 0 1 -2.94 1.09c-2.13 0-3.44-1.2-3.44-3.13a4.11 4.11 0 0 1 4.08-4.36 2.93 2.93 0 0 1 3.21 3.12 4.35 4.35 0 0 1 -.1.9zm.1-.74h5.25a2.53 2.53 0 0 0 0-.27 2.08 2.08 0 0 0 -2.31-2.17 3 3 0 0 0 -2.94 2.44z"/><path d="m294.59 143.53a4.18 4.18 0 0 1 4.29-4.37 3.08 3.08 0 0 1 2.9 1.47l-.85.49a2.26 2.26 0 0 0 -2.14-1.09 3.24 3.24 0 0 0 -3.21 3.46 2.16 2.16 0 0 0 2.46 2.28 2.85 2.85 0 0 0 2.32-1.06l.72.54a3.82 3.82 0 0 1 -3.09 1.4c-2.1 0-3.4-1.23-3.4-3.12z"/><path d="m305.05 139.22h1l-1.45 7.36h-1zm.25-2.27a.75.75 0 0 1 .77-.76.66.66 0 0 1 .69.63.76.76 0 0 1 -.79.78.65.65 0 0 1 -.67-.6z"/><path d="m316.6 139.22-1.47 7.36h-.95l.24-1.16a3.78 3.78 0 0 1 -2.88 1.23 3 3 0 0 1 -3.2-3.12 4.14 4.14 0 0 1 4.16-4.37 2.76 2.76 0 0 1 2.8 1.6l.31-1.54zm-1.6 3.11a2.15 2.15 0 0 0 -2.42-2.3 3.23 3.23 0 0 0 -3.2 3.46 2.14 2.14 0 0 0 2.42 2.28 3.22 3.22 0 0 0 3.2-3.44z"/><path d="m320.55 144.36a2.64 2.64 0 0 0 -.06.46c0 .63.35 1 1.06 1a1.9 1.9 0 0 0 1.14-.38l.24.76a2.75 2.75 0 0 1 -1.64.47 1.6 1.6 0 0 1 -1.79-1.67 2.81 2.81 0 0 1 .05-.57l.86-4.34h-1.31l.16-.84h1.31l.33-1.62h1l-.32 1.62h2.24l-.17.84h-2.25z"/><path d="m326.34 143.18v.29c0 1.47.84 2.3 2.53 2.3a3.34 3.34 0 0 0 2.41-.92l.45.71a4.21 4.21 0 0 1 -2.94 1.09c-2.13 0-3.43-1.2-3.43-3.13a4.1 4.1 0 0 1 4.07-4.36 2.93 2.93 0 0 1 3.21 3.12 4.35 4.35 0 0 1 -.1.9zm.1-.74h5.25a1.27 1.27 0 0 0 0-.27 2.08 2.08 0 0 0 -2.29-2.17 3 3 0 0 0 -2.96 2.44z"/><path d="m347.3 139.22-5.38 8.32c-.91 1.4-1.59 1.83-2.66 1.83a2.41 2.41 0 0 1 -1.75-.66l.49-.71a1.74 1.74 0 0 0 1.31.54c.63 0 1.12-.3 1.69-1.19l.52-.79-1.84-7.32h1l1.53 6.27 4-6.27z"/><path d="m348 143.53a4.18 4.18 0 0 1 4.26-4.37 3 3 0 0 1 3.34 3.11 4.18 4.18 0 0 1 -4.25 4.38 3 3 0 0 1 -3.35-3.12zm6.61-1.2a2.15 2.15 0 0 0 -2.42-2.3 3.23 3.23 0 0 0 -3.2 3.46 2.15 2.15 0 0 0 2.43 2.28 3.22 3.22 0 0 0 3.19-3.44z"/><path d="m366 139.22-1.47 7.36h-1l.24-1.17a3.56 3.56 0 0 1 -2.84 1.24 2.31 2.31 0 0 1 -2.62-2.41 4.83 4.83 0 0 1 .08-.82l.84-4.2h1l-.84 4.2a4 4 0 0 0 -.07.66c0 1.06.61 1.68 1.88 1.68a2.88 2.88 0 0 0 3-2.58l.78-4z"/><path d="m373.55 139.16-.18 1h-.28c-1.57 0-2.62.9-3 2.73l-.75 3.74h-1l1.46-7.36h.95l-.25 1.34a3.3 3.3 0 0 1 3.05-1.45z"/><path d="m380.67 143.18v.29c0 1.47.84 2.3 2.54 2.3a3.35 3.35 0 0 0 2.41-.92l.44.71a4.19 4.19 0 0 1 -2.94 1.09c-2.13 0-3.43-1.2-3.43-3.13a4.1 4.1 0 0 1 4.08-4.36 2.93 2.93 0 0 1 3.2 3.12 5.18 5.18 0 0 1 -.09.9zm.1-.74h5.23a2.53 2.53 0 0 0 0-.27 2.08 2.08 0 0 0 -2.31-2.17 3 3 0 0 0 -2.92 2.44z"/><path d="m392 138.4-.17.82h2.26l-.17.84h-2.23l-1.3 6.52h-1l1.31-6.52h-1.32l.15-.84h1.34l.18-.93a2.41 2.41 0 0 1 2.52-2.17 2.21 2.21 0 0 1 1.48.48l-.43.72a1.59 1.59 0 0 0 -1-.36c-.89.04-1.38.45-1.62 1.44z"/><path d="m397.83 138.4-.17.82h2.25l-.16.84h-2.23l-1.31 6.52h-1l1.3-6.52h-1.31l.15-.84h1.33l.18-.93a2.41 2.41 0 0 1 2.52-2.17 2.26 2.26 0 0 1 1.49.48l-.43.72a1.62 1.62 0 0 0 -1.06-.36c-.85.04-1.38.45-1.55 1.44z"/><path d="m400.65 143.53a4.18 4.18 0 0 1 4.26-4.37 3 3 0 0 1 3.35 3.11 4.18 4.18 0 0 1 -4.26 4.38 3 3 0 0 1 -3.35-3.12zm6.61-1.2a2.15 2.15 0 0 0 -2.42-2.3 3.23 3.23 0 0 0 -3.19 3.46 2.14 2.14 0 0 0 2.42 2.28 3.21 3.21 0 0 0 3.19-3.44z"/><path d="m415.73 139.16-.18 1h-.28c-1.57 0-2.62.9-3 2.73l-.75 3.74h-1l1.46-7.36h1.02l-.25 1.34a3.31 3.31 0 0 1 2.98-1.45z"/><path d="m419 144.36a2.64 2.64 0 0 0 -.06.46c0 .63.36 1 1.07 1a1.85 1.85 0 0 0 1.13-.38l.24.76a2.73 2.73 0 0 1 -1.64.47 1.61 1.61 0 0 1 -1.74-1.67 2.26 2.26 0 0 1 .06-.57l.85-4.34h-1.3l.15-.84h1.32l.32-1.62h1l-.33 1.62h2.24l-.16.84h-2.25z"/><path d="m423.37 145.76.48-.79a4 4 0 0 0 2.55.82c1.41 0 2.18-.5 2.18-1.32 0-1.67-4.17-.52-4.17-3 0-1.4 1.26-2.3 3.19-2.3a4.5 4.5 0 0 1 2.5.69l-.42.79a3.73 3.73 0 0 0 -2.16-.63c-1.36 0-2.13.55-2.13 1.35 0 1.71 4.17.54 4.17 3 0 1.45-1.3 2.29-3.26 2.29a4.69 4.69 0 0 1 -2.93-.9z"/><path d="m438.37 144.36a2.64 2.64 0 0 0 -.06.46c0 .63.35 1 1.07 1a1.88 1.88 0 0 0 1.13-.38l.24.76a2.73 2.73 0 0 1 -1.64.47 1.6 1.6 0 0 1 -1.79-1.68 2.81 2.81 0 0 1 .05-.57l.86-4.34h-1.3l.15-.84h1.32l.32-1.62h1l-.32 1.62h2.24l-.17.84h-2.24z"/><path d="m443.17 143.53a4.18 4.18 0 0 1 4.26-4.37 3 3 0 0 1 3.35 3.11 4.18 4.18 0 0 1 -4.26 4.38 3 3 0 0 1 -3.35-3.12zm6.61-1.2a2.15 2.15 0 0 0 -2.42-2.3 3.23 3.23 0 0 0 -3.2 3.46 2.15 2.15 0 0 0 2.43 2.28 3.22 3.22 0 0 0 3.19-3.44z"/><path d="m453.36 142.35h3.64l-.17.87h-3.67z"/><path d="m156.35 156-4.16 7.36h-1l-1.23-6-3.45 6h-1l-1.36-7.36h.91l1.2 6.24 3.55-6.24h.84l1.24 6.24 3.5-6.24z"/><path d="m165.35 156-1.47 7.36h-.95l.24-1.16a3.77 3.77 0 0 1 -2.87 1.23 3 3 0 0 1 -3.21-3.12 4.15 4.15 0 0 1 4.16-4.37 2.76 2.76 0 0 1 2.8 1.6l.31-1.54zm-1.65 3.11a2.15 2.15 0 0 0 -2.42-2.3 3.24 3.24 0 0 0 -3.2 3.46 2.15 2.15 0 0 0 2.43 2.28 3.22 3.22 0 0 0 3.19-3.42z"/><path d="m172.88 156-.18 1h-.28c-1.57 0-2.62.9-3 2.73l-.74 3.74h-1l1.46-7.36h1l-.25 1.34a3.31 3.31 0 0 1 2.99-1.45z"/><path d="m183 153-2.07 10.39h-.93l.23-1.16a3.77 3.77 0 0 1 -2.87 1.23 3 3 0 0 1 -3.21-3.12 4.15 4.15 0 0 1 4.16-4.37 2.79 2.79 0 0 1 2.81 1.6l.88-4.57zm-2.25 6.14a2.16 2.16 0 0 0 -2.43-2.3 3.24 3.24 0 0 0 -3.19 3.46 2.14 2.14 0 0 0 2.42 2.28 3.22 3.22 0 0 0 3.18-3.45z"/><path d="m183.94 162.56.48-.79a4 4 0 0 0 2.55.82c1.41 0 2.18-.49 2.18-1.32 0-1.67-4.17-.52-4.17-3 0-1.4 1.26-2.3 3.19-2.3a4.47 4.47 0 0 1 2.49.69l-.41.79a3.75 3.75 0 0 0 -2.16-.63c-1.36 0-2.13.55-2.13 1.35 0 1.71 4.17.54 4.17 3 0 1.45-1.3 2.29-3.26 2.29a4.67 4.67 0 0 1 -2.93-.9z"/><path d="m197.27 160.33a4.18 4.18 0 0 1 4.29-4.37 3.08 3.08 0 0 1 2.9 1.47l-.84.49a2.28 2.28 0 0 0 -2.15-1.09 3.24 3.24 0 0 0 -3.21 3.46 2.16 2.16 0 0 0 2.46 2.28 2.85 2.85 0 0 0 2.32-1.06l.72.54a3.82 3.82 0 0 1 -3.09 1.4c-2.1 0-3.4-1.23-3.4-3.12z"/><path d="m206.08 160.33a4.17 4.17 0 0 1 4.25-4.37 3 3 0 0 1 3.35 3.11 4.18 4.18 0 0 1 -4.26 4.38 3 3 0 0 1 -3.34-3.12zm6.61-1.2a2.16 2.16 0 0 0 -2.43-2.3 3.24 3.24 0 0 0 -3.19 3.46 2.14 2.14 0 0 0 2.42 2.28 3.22 3.22 0 0 0 3.2-3.44z"/><path d="m223.66 158.35a4.27 4.27 0 0 1 -.08.85l-.84 4.18h-1l.84-4.2a4.13 4.13 0 0 0 .07-.67c0-1-.63-1.65-1.91-1.65a2.87 2.87 0 0 0 -3 2.57l-.78 3.95h-1l1.46-7.36h.95l-.23 1.17a3.62 3.62 0 0 1 2.86-1.19c1.7 0 2.66.86 2.66 2.35z"/><path d="m235.33 153-2.08 10.39h-.95l.24-1.16a3.77 3.77 0 0 1 -2.87 1.23 3 3 0 0 1 -3.21-3.12 4.14 4.14 0 0 1 4.16-4.37 2.77 2.77 0 0 1 2.8 1.6l.91-4.57zm-2.26 6.14a2.15 2.15 0 0 0 -2.42-2.3 3.24 3.24 0 0 0 -3.2 3.46 2.15 2.15 0 0 0 2.43 2.28 3.22 3.22 0 0 0 3.19-3.45z"/><path d="m245.18 156-1.47 7.36h-1l.24-1.17a3.58 3.58 0 0 1 -2.85 1.24 2.31 2.31 0 0 1 -2.62-2.41 4 4 0 0 1 .09-.82l.84-4.2h1l-.84 4.2a4 4 0 0 0 -.07.66c0 1.06.62 1.68 1.88 1.68a2.88 2.88 0 0 0 3-2.58l.79-4z"/><path d="m247.47 160.33a4.18 4.18 0 0 1 4.29-4.37 3.08 3.08 0 0 1 2.9 1.47l-.84.49a2.27 2.27 0 0 0 -2.14-1.09 3.24 3.24 0 0 0 -3.21 3.46 2.15 2.15 0 0 0 2.45 2.28 2.87 2.87 0 0 0 2.33-1.06l.71.54a3.8 3.8 0 0 1 -3.08 1.4c-2.1 0-3.41-1.23-3.41-3.12z"/><path d="m258.16 161.16a2.64 2.64 0 0 0 -.06.46c0 .63.35 1 1.06 1a1.9 1.9 0 0 0 1.14-.38l.24.76a2.73 2.73 0 0 1 -1.64.47 1.6 1.6 0 0 1 -1.79-1.68 2.81 2.81 0 0 1 .05-.57l.86-4.34h-1.31l.16-.84h1.31l.33-1.62h1l-.32 1.62h2.24l-.17.84h-2.26z"/><path d="m264.75 156h1l-1.45 7.36h-1zm.25-2.27a.75.75 0 0 1 .77-.76.66.66 0 0 1 .69.63.76.76 0 0 1 -.79.78.65.65 0 0 1 -.67-.63z"/><path d="m275.8 158.35a4.32 4.32 0 0 1 -.09.85l-.84 4.18h-1l.84-4.2a4.13 4.13 0 0 0 .07-.67c0-1-.63-1.65-1.9-1.65a2.87 2.87 0 0 0 -3 2.57l-.79 3.95h-1l1.46-7.36h.95l-.24 1.17a3.63 3.63 0 0 1 2.89-1.23 2.31 2.31 0 0 1 2.65 2.39z"/><path d="m287 156-1.29 6.47c-.52 2.6-1.89 3.68-4.29 3.68a4.68 4.68 0 0 1 -3.28-1.11l.59-.75a3.88 3.88 0 0 0 2.76 1 2.89 2.89 0 0 0 3.2-2.63l.16-.82a3.79 3.79 0 0 1 -2.94 1.26c-1.94 0-3.25-1.13-3.25-3a4.07 4.07 0 0 1 4.21-4.17 2.83 2.83 0 0 1 2.87 1.68l.26-1.61zm-1.72 3c0-1.34-.91-2.14-2.44-2.14a3.13 3.13 0 0 0 -3.21 3.25c0 1.34.9 2.14 2.44 2.14a3.13 3.13 0 0 0 3.21-3.25z"/><path d="m294 160.33a4.18 4.18 0 0 1 4.26-4.37 3 3 0 0 1 3.34 3.11 4.18 4.18 0 0 1 -4.26 4.38 3 3 0 0 1 -3.34-3.12zm6.61-1.2a2.15 2.15 0 0 0 -2.42-2.3 3.24 3.24 0 0 0 -3.2 3.46 2.14 2.14 0 0 0 2.42 2.28 3.22 3.22 0 0 0 3.17-3.44z"/><path d="m311.55 158.35a4.27 4.27 0 0 1 -.08.85l-.84 4.18h-1l.84-4.2a4.13 4.13 0 0 0 .07-.67c0-1-.63-1.65-1.91-1.65a2.87 2.87 0 0 0 -3 2.57l-.78 3.95h-1l1.46-7.36h.95l-.23 1.17a3.62 3.62 0 0 1 2.88-1.23c1.68.04 2.64.9 2.64 2.39z"/><path d="m316.47 153h1l-2.07 10.39h-1z"/><path d="m320.66 156h1l-1.46 7.36h-1zm.26-2.27a.75.75 0 0 1 .77-.76.65.65 0 0 1 .68.63.76.76 0 0 1 -.78.78.65.65 0 0 1 -.67-.63z"/><path d="m331.71 158.35a4.27 4.27 0 0 1 -.08.85l-.84 4.18h-1l.84-4.2a4.13 4.13 0 0 0 .07-.67c0-1-.63-1.65-1.91-1.65a2.87 2.87 0 0 0 -3 2.57l-.78 3.95h-1l1.46-7.36h.95l-.23 1.17a3.62 3.62 0 0 1 2.88-1.23c1.68.04 2.64.9 2.64 2.39z"/><path d="m335.5 160v.29c0 1.47.84 2.3 2.54 2.3a3.35 3.35 0 0 0 2.41-.92l.44.71a4.19 4.19 0 0 1 -2.94 1.09c-2.13 0-3.43-1.2-3.43-3.13a4.1 4.1 0 0 1 4.08-4.36 2.93 2.93 0 0 1 3.2 3.12 5.18 5.18 0 0 1 -.09.9zm.1-.74h5.26a2.53 2.53 0 0 0 0-.27 2.08 2.08 0 0 0 -2.31-2.17 3 3 0 0 0 -2.95 2.42z"/><path d="m348.73 160.33a4.18 4.18 0 0 1 4.27-4.33 3.08 3.08 0 0 1 2.9 1.47l-.84.49a2.27 2.27 0 0 0 -2.14-1.09 3.24 3.24 0 0 0 -3.21 3.46 2.15 2.15 0 0 0 2.45 2.28 2.84 2.84 0 0 0 2.32-1.06l.72.54a3.8 3.8 0 0 1 -3.08 1.4c-2.12-.04-3.39-1.27-3.39-3.16z"/><path d="m359.7 153h1l-2.07 10.39h-1z"/><path d="m370.63 156-1.47 7.36h-1l.24-1.16a3.77 3.77 0 0 1 -2.87 1.23 3 3 0 0 1 -3.21-3.12 4.14 4.14 0 0 1 4.16-4.37 2.76 2.76 0 0 1 2.8 1.6l.31-1.54zm-1.63 3.13a2.15 2.15 0 0 0 -2.42-2.3 3.24 3.24 0 0 0 -3.2 3.46 2.15 2.15 0 0 0 2.43 2.28 3.22 3.22 0 0 0 3.19-3.44z"/><path d="m372.2 162.56.47-.79a4 4 0 0 0 2.55.82c1.42 0 2.19-.49 2.19-1.32 0-1.67-4.18-.52-4.18-3 0-1.4 1.26-2.3 3.2-2.3a4.47 4.47 0 0 1 2.49.69l-.42.79a3.71 3.71 0 0 0 -2.16-.63c-1.36 0-2.13.55-2.13 1.35 0 1.71 4.18.54 4.18 3 0 1.45-1.3 2.29-3.27 2.29a4.64 4.64 0 0 1 -2.92-.9z"/><path d="m380.09 162.56.48-.79a4 4 0 0 0 2.55.82c1.41 0 2.18-.49 2.18-1.32 0-1.67-4.17-.52-4.17-3 0-1.4 1.26-2.3 3.19-2.3a4.5 4.5 0 0 1 2.5.69l-.42.79a3.73 3.73 0 0 0 -2.16-.63c-1.36 0-2.13.55-2.13 1.35 0 1.71 4.17.54 4.17 3 0 1.45-1.3 2.29-3.26 2.29a4.69 4.69 0 0 1 -2.93-.9z"/><path d="m389.7 160a1.46 1.46 0 0 0 0 .29c0 1.47.84 2.3 2.54 2.3a3.35 3.35 0 0 0 2.41-.92l.45.71a4.22 4.22 0 0 1 -2.94 1.09c-2.13 0-3.44-1.2-3.44-3.13a4.11 4.11 0 0 1 4.08-4.36 2.93 2.93 0 0 1 3.21 3.12 4.35 4.35 0 0 1 -.1.9zm.1-.74h5.25a2.53 2.53 0 0 0 0-.27 2.08 2.08 0 0 0 -2.31-2.17 3 3 0 0 0 -2.94 2.42z"/><path d="m397.5 162.56.47-.79a4 4 0 0 0 2.55.82c1.41 0 2.19-.49 2.19-1.32 0-1.67-4.18-.52-4.18-3 0-1.4 1.26-2.3 3.2-2.3a4.49 4.49 0 0 1 2.49.69l-.42.79a3.73 3.73 0 0 0 -2.16-.63c-1.36 0-2.13.55-2.13 1.35 0 1.71 4.18.54 4.18 3 0 1.45-1.31 2.29-3.27 2.29a4.64 4.64 0 0 1 -2.92-.9z"/><path d="m411.82 160a1.46 1.46 0 0 0 0 .29c0 1.47.84 2.3 2.54 2.3a3.35 3.35 0 0 0 2.41-.92l.45.71a4.23 4.23 0 0 1 -2.95 1.09c-2.12 0-3.43-1.2-3.43-3.13a4.11 4.11 0 0 1 4.06-4.34 2.93 2.93 0 0 1 3.21 3.12 4.35 4.35 0 0 1 -.1.9zm.1-.74h5.25a2.53 2.53 0 0 0 0-.27 2.08 2.08 0 0 0 -2.31-2.17 3 3 0 0 0 -2.94 2.42z"/><path d="m423.17 155.2-.17.8h2.26l-.17.84h-2.23l-1.3 6.52h-1l1.3-6.52h-1.32l.16-.84h1.3l.18-.93a2.41 2.41 0 0 1 2.52-2.17 2.26 2.26 0 0 1 1.49.48l-.44.72a1.57 1.57 0 0 0 -1.05-.36c-.83.02-1.32.47-1.53 1.46z"/><path d="m429 155.2-.17.82h2.26l-.17.84h-2.23l-1.3 6.52h-1l1.3-6.52h-1.31l.15-.84h1.33l.19-.93a2.41 2.41 0 0 1 2.52-2.17 2.21 2.21 0 0 1 1.48.48l-.43.72a1.59 1.59 0 0 0 -1-.36c-.95 0-1.44.45-1.62 1.44z"/><path d="m432.79 160v.29c0 1.47.84 2.3 2.53 2.3a3.35 3.35 0 0 0 2.41-.92l.45.71a4.22 4.22 0 0 1 -2.94 1.09c-2.13 0-3.44-1.2-3.44-3.13a4.11 4.11 0 0 1 4.08-4.36 2.93 2.93 0 0 1 3.21 3.12 4.35 4.35 0 0 1 -.1.9zm.1-.74h5.25a2.53 2.53 0 0 0 0-.27 2.07 2.07 0 0 0 -2.31-2.17 3 3 0 0 0 -2.94 2.42z"/><path d="m441.3 160.33a4.18 4.18 0 0 1 4.29-4.37 3.08 3.08 0 0 1 2.9 1.47l-.84.49a2.28 2.28 0 0 0 -2.15-1.09 3.24 3.24 0 0 0 -3.21 3.46 2.16 2.16 0 0 0 2.46 2.28 2.85 2.85 0 0 0 2.32-1.06l.72.54a3.8 3.8 0 0 1 -3.09 1.4c-2.1 0-3.4-1.23-3.4-3.12z"/><path d="m450.6 159.15h3.67l-.17.87h-3.67z"/><path d="m141.71 178a2.64 2.64 0 0 0 -.06.46c0 .63.35 1 1.06 1a1.9 1.9 0 0 0 1.14-.38l.24.76a2.75 2.75 0 0 1 -1.64.47 1.61 1.61 0 0 1 -1.8-1.68 2.83 2.83 0 0 1 .06-.57l.86-4.34h-1.31l.16-.84h1.31l.33-1.62h1l-.32 1.62h2.26l-.17.84h-2.24z"/><path d="m148.3 172.82h1l-1.45 7.36h-1zm.25-2.27a.75.75 0 0 1 .77-.76.66.66 0 0 1 .69.63.76.76 0 0 1 -.79.78.65.65 0 0 1 -.67-.65z"/><path d="m159.32 172.82-4.73 7.36h-1l-1.82-7.36h1l1.52 6.28 4-6.28z"/><path d="m161 176.78v.29c0 1.47.84 2.3 2.53 2.3a3.35 3.35 0 0 0 2.41-.92l.45.71a4.21 4.21 0 0 1 -2.94 1.09c-2.13 0-3.43-1.2-3.43-3.13a4.1 4.1 0 0 1 4.07-4.36 2.93 2.93 0 0 1 3.21 3.12 4.35 4.35 0 0 1 -.1.9zm.1-.74h5.25a1.27 1.27 0 0 0 0-.27 2.08 2.08 0 0 0 -2.32-2.17 3 3 0 0 0 -2.92 2.4z"/><path d="m171.66 169.79h1l-2.07 10.39h-1z"/><path d="m182.07 172.82-5.38 8.32c-.91 1.4-1.6 1.83-2.66 1.83a2.38 2.38 0 0 1 -1.75-.66l.53-.73a1.7 1.7 0 0 0 1.3.54c.63 0 1.12-.3 1.7-1.19l.52-.79-1.84-7.32h1l1.53 6.27 4-6.27z"/><path d="m189.36 178a2.64 2.64 0 0 0 -.06.46c0 .63.35 1 1.07 1a1.85 1.85 0 0 0 1.13-.38l.24.76a2.73 2.73 0 0 1 -1.64.47 1.61 1.61 0 0 1 -1.79-1.68 2.26 2.26 0 0 1 .06-.57l.85-4.34h-1.3l.15-.84h1.32l.32-1.62h1l-.33 1.62h2.24l-.16.84h-2.25z"/><path d="m194.16 177.13a4.18 4.18 0 0 1 4.26-4.37 3 3 0 0 1 3.35 3.11 4.18 4.18 0 0 1 -4.26 4.38 3 3 0 0 1 -3.35-3.12zm6.61-1.2a2.15 2.15 0 0 0 -2.42-2.3 3.23 3.23 0 0 0 -3.19 3.46 2.14 2.14 0 0 0 2.42 2.28 3.22 3.22 0 0 0 3.19-3.44z"/><path d="m209.7 176.78v.29c0 1.47.84 2.3 2.53 2.3a3.34 3.34 0 0 0 2.41-.92l.45.71a4.21 4.21 0 0 1 -2.94 1.09c-2.13 0-3.43-1.2-3.43-3.13a4.1 4.1 0 0 1 4.07-4.36 2.93 2.93 0 0 1 3.21 3.12 4.35 4.35 0 0 1 -.1.9zm.1-.74h5.25a1.27 1.27 0 0 0 0-.27 2.08 2.08 0 0 0 -2.31-2.17 3 3 0 0 0 -2.94 2.4z"/><path d="m226 175.15a4.11 4.11 0 0 1 -.08.84l-.84 4.19h-1l.85-4.2a4.13 4.13 0 0 0 .07-.67c0-1.05-.64-1.65-1.91-1.65a2.87 2.87 0 0 0 -3 2.57l-.78 4h-1l1.46-7.36h.95l-.23 1.17a3.62 3.62 0 0 1 2.88-1.23c1.63-.05 2.63.85 2.63 2.34z"/><path d="m228 179.36.47-.79a4 4 0 0 0 2.55.82c1.42 0 2.19-.5 2.19-1.32 0-1.67-4.18-.52-4.18-3 0-1.4 1.26-2.3 3.2-2.3a4.47 4.47 0 0 1 2.49.69l-.42.79a3.71 3.71 0 0 0 -2.16-.63c-1.36 0-2.13.55-2.13 1.35 0 1.71 4.18.54 4.18 3 0 1.45-1.3 2.29-3.27 2.29a4.64 4.64 0 0 1 -2.92-.9z"/><path d="m244.82 172.82-1.47 7.36h-1l.24-1.17a3.56 3.56 0 0 1 -2.84 1.24 2.31 2.31 0 0 1 -2.62-2.41 4.83 4.83 0 0 1 .08-.82l.84-4.2h1l-.84 4.2a4 4 0 0 0 -.07.66c0 1.06.61 1.68 1.87 1.68a2.88 2.88 0 0 0 3-2.58l.78-4z"/><path d="m252.36 172.76-.18 1h-.28c-1.57 0-2.62.9-3 2.73l-.75 3.74h-1l1.46-7.36h1l-.25 1.34a3.3 3.3 0 0 1 3-1.45z"/><path d="m254.59 176.78a1.46 1.46 0 0 0 0 .29c0 1.47.84 2.3 2.54 2.3a3.35 3.35 0 0 0 2.41-.92l.44.71a4.19 4.19 0 0 1 -2.94 1.09c-2.13 0-3.43-1.2-3.43-3.13a4.1 4.1 0 0 1 4.08-4.36 2.93 2.93 0 0 1 3.2 3.12 5.18 5.18 0 0 1 -.09.9zm.09-.74h5.26a2.53 2.53 0 0 0 0-.27 2.08 2.08 0 0 0 -2.31-2.17 3 3 0 0 0 -2.95 2.4z"/><path d="m267.81 177.13a4.18 4.18 0 0 1 4.26-4.37 3 3 0 0 1 3.35 3.11 4.18 4.18 0 0 1 -4.26 4.38 3 3 0 0 1 -3.35-3.12zm6.62-1.2a2.16 2.16 0 0 0 -2.43-2.3 3.23 3.23 0 0 0 -3.19 3.46 2.14 2.14 0 0 0 2.42 2.28 3.22 3.22 0 0 0 3.2-3.44z"/><path d="m285.82 172.82-1.47 7.36h-1l.24-1.17a3.58 3.58 0 0 1 -2.85 1.24 2.31 2.31 0 0 1 -2.62-2.41 4 4 0 0 1 .09-.82l.84-4.2h1l-.84 4.2a4 4 0 0 0 -.07.66c0 1.06.62 1.68 1.88 1.68a2.87 2.87 0 0 0 3-2.58l.79-4z"/><path d="m293.37 172.76-.18 1h-.28c-1.57 0-2.62.9-3 2.73l-.74 3.74h-1l1.46-7.36h.95l-.25 1.34a3.33 3.33 0 0 1 3.04-1.45z"/><path d="m303.83 175.86 2.64 4.32h-1.16l-2.31-3.72-2 1.59-.42 2.13h-1l2.07-10.39h1l-1.4 7 5.07-4h1.42z"/><path d="m310.22 172.82h1l-1.46 7.36h-1zm.25-2.27a.76.76 0 0 1 .77-.76.66.66 0 0 1 .69.63.76.76 0 0 1 -.78.78.66.66 0 0 1 -.68-.65z"/><path d="m322.38 169.79-2.08 10.39h-.95l.24-1.16a3.77 3.77 0 0 1 -2.87 1.23 3 3 0 0 1 -3.21-3.12 4.15 4.15 0 0 1 4.16-4.37 2.77 2.77 0 0 1 2.8 1.6l.91-4.57zm-2.26 6.14a2.15 2.15 0 0 0 -2.42-2.3 3.23 3.23 0 0 0 -3.2 3.46 2.15 2.15 0 0 0 2.43 2.28 3.22 3.22 0 0 0 3.19-3.44z"/><path d="m323.34 179.36.47-.79a4 4 0 0 0 2.55.82c1.42 0 2.19-.5 2.19-1.32 0-1.67-4.18-.52-4.18-3 0-1.4 1.26-2.3 3.2-2.3a4.47 4.47 0 0 1 2.49.69l-.42.79a3.71 3.71 0 0 0 -2.16-.63c-1.36 0-2.13.55-2.13 1.35 0 1.71 4.18.54 4.18 3 0 1.45-1.3 2.29-3.26 2.29a4.65 4.65 0 0 1 -2.93-.9z"/><path d="m349.08 172.82-4.16 7.36h-1l-1.23-6-3.45 6h-.95l-1.44-7.36h.91l1.19 6.24 3.56-6.24h.84l1.23 6.24 3.5-6.24z"/><path d="m349.81 177.13a4.18 4.18 0 0 1 4.26-4.37 3 3 0 0 1 3.35 3.11 4.18 4.18 0 0 1 -4.26 4.38 3 3 0 0 1 -3.35-3.12zm6.61-1.2a2.15 2.15 0 0 0 -2.42-2.3 3.23 3.23 0 0 0 -3.19 3.46 2.14 2.14 0 0 0 2.42 2.28 3.21 3.21 0 0 0 3.19-3.44z"/><path d="m367.4 175.15a5 5 0 0 1 -.08.84l-.84 4.19h-1l.84-4.2a4.13 4.13 0 0 0 .07-.67c0-1.05-.63-1.65-1.9-1.65a2.87 2.87 0 0 0 -3 2.57l-.79 4h-1l1.46-7.36h.95l-.24 1.17a3.64 3.64 0 0 1 2.89-1.23 2.31 2.31 0 0 1 2.64 2.34z"/><path d="m371.78 170.38h.88l-.8 3.7h-.74z"/><path d="m375.71 178a2.58 2.58 0 0 0 0 .46c0 .63.35 1 1.06 1a1.9 1.9 0 0 0 1.14-.38l.23.76a2.7 2.7 0 0 1 -1.63.47 1.61 1.61 0 0 1 -1.8-1.68 2.83 2.83 0 0 1 .06-.57l.85-4.34h-1.3l.15-.84h1.32l.32-1.62h1l-.32 1.62h2.21l-.17.84h-2.24z"/><path d="m387.64 169.79h1l-2.08 10.39h-1z"/><path d="m390.31 177.13a4.18 4.18 0 0 1 4.26-4.37 3 3 0 0 1 3.35 3.11 4.18 4.18 0 0 1 -4.26 4.38 3 3 0 0 1 -3.35-3.12zm6.61-1.2a2.15 2.15 0 0 0 -2.42-2.3 3.23 3.23 0 0 0 -3.19 3.46 2.14 2.14 0 0 0 2.42 2.28 3.21 3.21 0 0 0 3.19-3.44z"/><path d="m399.43 179.36.47-.79a4 4 0 0 0 2.55.82c1.42 0 2.19-.5 2.19-1.32 0-1.67-4.18-.52-4.18-3 0-1.4 1.26-2.3 3.2-2.3a4.47 4.47 0 0 1 2.49.69l-.42.79a3.71 3.71 0 0 0 -2.16-.63c-1.36 0-2.13.55-2.13 1.35 0 1.71 4.18.54 4.18 3 0 1.45-1.3 2.29-3.27 2.29a4.64 4.64 0 0 1 -2.92-.9z"/><path d="m409 176.78v.29c0 1.47.84 2.3 2.53 2.3a3.34 3.34 0 0 0 2.41-.92l.45.71a4.21 4.21 0 0 1 -2.94 1.09c-2.13 0-3.43-1.2-3.43-3.13a4.1 4.1 0 0 1 4.07-4.36 2.93 2.93 0 0 1 3.21 3.12 4.35 4.35 0 0 1 -.1.9zm.1-.74h5.25a1.27 1.27 0 0 0 0-.27 2.08 2.08 0 0 0 -2.31-2.17 3 3 0 0 0 -2.91 2.4z"/><path d="m423.93 178a2.64 2.64 0 0 0 -.06.46c0 .63.35 1 1.07 1a1.88 1.88 0 0 0 1.13-.38l.24.76a2.73 2.73 0 0 1 -1.64.47 1.6 1.6 0 0 1 -1.79-1.68 2.81 2.81 0 0 1 .05-.57l.86-4.34h-1.3l.15-.84h1.36l.32-1.62h1l-.32 1.62h2.24l-.17.84h-2.24z"/><path d="m436.75 175.15a4.11 4.11 0 0 1 -.08.84l-.84 4.19h-1l.84-4.2a4.13 4.13 0 0 0 .07-.67c0-1.05-.63-1.65-1.91-1.65a2.87 2.87 0 0 0 -3 2.57l-.78 4h-1l2.07-10.39h1l-.82 4.13a3.58 3.58 0 0 1 2.81-1.16c1.68-.05 2.64.85 2.64 2.34z"/><path d="m440.55 176.78a1.46 1.46 0 0 0 0 .29c0 1.47.84 2.3 2.54 2.3a3.35 3.35 0 0 0 2.41-.92l.44.71a4.19 4.19 0 0 1 -2.94 1.09c-2.13 0-3.43-1.2-3.43-3.13a4.1 4.1 0 0 1 4.08-4.36 2.93 2.93 0 0 1 3.2 3.12 5.18 5.18 0 0 1 -.09.9zm.09-.74h5.26a2.53 2.53 0 0 0 0-.27 2.08 2.08 0 0 0 -2.31-2.17 3 3 0 0 0 -2.95 2.4z"/><path d="m450.58 172.82h1l-1.46 7.36h-1zm.26-2.27a.75.75 0 0 1 .77-.76.65.65 0 0 1 .68.63.76.76 0 0 1 -.78.78.65.65 0 0 1 -.67-.65z"/><path d="m459.13 172.76-.19 1h-.28c-1.57 0-2.62.9-3 2.73l-.74 3.74h-1l1.46-7.36h1l-.25 1.34a3.32 3.32 0 0 1 3-1.45z"/><path d="m140.5 196.16.48-.79a4 4 0 0 0 2.55.82c1.41 0 2.18-.49 2.18-1.32 0-1.67-4.17-.52-4.17-3 0-1.4 1.26-2.3 3.19-2.3a4.47 4.47 0 0 1 2.49.69l-.42.79a3.7 3.7 0 0 0 -2.15-.63c-1.36 0-2.13.55-2.13 1.35 0 1.71 4.17.55 4.17 3 0 1.45-1.3 2.29-3.26 2.29a4.65 4.65 0 0 1 -2.93-.9z"/><path d="m157.29 189.62-1.47 7.38h-.95l.24-1.17a3.58 3.58 0 0 1 -2.85 1.24 2.31 2.31 0 0 1 -2.62-2.41 4 4 0 0 1 .09-.82l.84-4.2h1l-.84 4.2a4 4 0 0 0 -.07.66c0 1.06.62 1.68 1.88 1.68a2.88 2.88 0 0 0 3-2.58l.79-4z"/><path d="m167.92 192.67a4.15 4.15 0 0 1 -4.18 4.38 2.72 2.72 0 0 1 -2.81-1.68l-.33 1.63h-.95l2.08-10.39h1l-.83 4.13a3.75 3.75 0 0 1 2.81-1.16 3 3 0 0 1 3.21 3.09zm-1 .06a2.15 2.15 0 0 0 -2.42-2.3 3.21 3.21 0 0 0 -3.18 3.46 2.14 2.14 0 0 0 2.42 2.28 3.21 3.21 0 0 0 3.17-3.44z"/><path d="m167.1 199.31.46-.77a1.64 1.64 0 0 0 1.11.38c.8 0 1.27-.42 1.47-1.4l1.58-7.9h1l-1.59 7.92a2.36 2.36 0 0 1 -2.48 2.23 2.51 2.51 0 0 1 -1.55-.46zm4.86-12a.75.75 0 0 1 .77-.76.66.66 0 0 1 .69.63.76.76 0 0 1 -.79.78.65.65 0 0 1 -.63-.61z"/><path d="m176 193.58v.29c0 1.48.84 2.3 2.54 2.3a3.35 3.35 0 0 0 2.41-.92l.44.71a4.19 4.19 0 0 1 -2.94 1.09c-2.13 0-3.43-1.2-3.43-3.13a4.1 4.1 0 0 1 4.08-4.36 2.93 2.93 0 0 1 3.2 3.12 5.18 5.18 0 0 1 -.09.9zm.1-.74h5.26a2.53 2.53 0 0 0 0-.27 2.08 2.08 0 0 0 -2.31-2.17 3 3 0 0 0 -2.95 2.44z"/><path d="m184.52 193.93a4.17 4.17 0 0 1 4.28-4.37 3.06 3.06 0 0 1 2.9 1.47l-.84.49a2.26 2.26 0 0 0 -2.14-1.09 3.24 3.24 0 0 0 -3.21 3.46 2.15 2.15 0 0 0 2.45 2.28 2.87 2.87 0 0 0 2.33-1.06l.71.54a3.8 3.8 0 0 1 -3.08 1.4c-2.1 0-3.4-1.23-3.4-3.12z"/><path d="m195.2 194.76a2.64 2.64 0 0 0 -.06.46c0 .63.35 1 1.07 1a1.88 1.88 0 0 0 1.13-.38l.24.76a2.73 2.73 0 0 1 -1.64.47 1.6 1.6 0 0 1 -1.79-1.68 2.81 2.81 0 0 1 0-.57l.86-4.34h-1.3l.15-.84h1.32l.32-1.62h1l-.32 1.62h2.24l-.17.84h-2.24z"/><path d="m199.55 196.16.48-.79a4 4 0 0 0 2.55.82c1.41 0 2.18-.49 2.18-1.32 0-1.67-4.17-.52-4.17-3 0-1.4 1.26-2.3 3.19-2.3a4.47 4.47 0 0 1 2.49.69l-.42.79a3.7 3.7 0 0 0 -2.15-.63c-1.36 0-2.13.55-2.13 1.35 0 1.71 4.17.55 4.17 3 0 1.45-1.3 2.29-3.26 2.29a4.67 4.67 0 0 1 -2.93-.9z"/><path d="m221.14 189.62-1.47 7.38h-.95l.24-1.16a3.77 3.77 0 0 1 -2.87 1.23 3 3 0 0 1 -3.21-3.12 4.14 4.14 0 0 1 4.16-4.37 2.76 2.76 0 0 1 2.8 1.6l.31-1.54zm-1.65 3.11a2.15 2.15 0 0 0 -2.42-2.3 3.24 3.24 0 0 0 -3.2 3.46 2.15 2.15 0 0 0 2.43 2.28 3.22 3.22 0 0 0 3.19-3.44z"/><path d="m225.09 194.76a2.64 2.64 0 0 0 -.06.46c0 .63.35 1 1.07 1a1.88 1.88 0 0 0 1.13-.38l.24.76a2.73 2.73 0 0 1 -1.64.47 1.6 1.6 0 0 1 -1.79-1.68 2.81 2.81 0 0 1 .05-.57l.86-4.34h-1.3l.15-.84h1.32l.32-1.62h1l-.32 1.62h2.24l-.17.84h-2.24z"/><path d="m243.14 189.62-1.47 7.38h-1l.24-1.16a3.77 3.77 0 0 1 -2.87 1.23 3 3 0 0 1 -3.21-3.12 4.15 4.15 0 0 1 4.16-4.37 2.76 2.76 0 0 1 2.8 1.6l.31-1.54zm-1.66 3.11a2.15 2.15 0 0 0 -2.42-2.3 3.24 3.24 0 0 0 -3.19 3.46 2.14 2.14 0 0 0 2.42 2.28 3.21 3.21 0 0 0 3.19-3.44z"/><path d="m253.18 192a4.32 4.32 0 0 1 -.09.85l-.84 4.18h-1l.84-4.2a4.13 4.13 0 0 0 .07-.67c0-1.05-.63-1.65-1.91-1.65a2.87 2.87 0 0 0 -3 2.57l-.78 3.95h-1l1.45-7.36h.95l-.23 1.17a3.62 3.62 0 0 1 2.88-1.23c1.69-.05 2.66.85 2.66 2.39z"/><path d="m263.54 189.62-5.38 8.32c-.91 1.4-1.6 1.83-2.67 1.83a2.41 2.41 0 0 1 -1.75-.66l.54-.73a1.7 1.7 0 0 0 1.3.54c.63 0 1.12-.3 1.69-1.19l.52-.79-1.79-7.32h1l1.52 6.27 4-6.27z"/><path d="m269.16 193.93a4.18 4.18 0 0 1 4.29-4.37 3.06 3.06 0 0 1 2.89 1.47l-.84.49a2.26 2.26 0 0 0 -2.14-1.09 3.24 3.24 0 0 0 -3.21 3.46 2.16 2.16 0 0 0 2.45 2.28 2.86 2.86 0 0 0 2.33-1.06l.71.54a3.78 3.78 0 0 1 -3.08 1.4c-2.1 0-3.4-1.23-3.4-3.12z"/><path d="m278 193.93a4.18 4.18 0 0 1 4.26-4.37 3 3 0 0 1 3.35 3.11 4.18 4.18 0 0 1 -4.26 4.38 3 3 0 0 1 -3.35-3.12zm6.62-1.2a2.16 2.16 0 0 0 -2.43-2.3 3.24 3.24 0 0 0 -3.19 3.46 2.14 2.14 0 0 0 2.42 2.28 3.22 3.22 0 0 0 3.16-3.44z"/><path d="m287.08 196.16.47-.79a4.07 4.07 0 0 0 2.55.82c1.42 0 2.19-.49 2.19-1.32 0-1.67-4.18-.52-4.18-3 0-1.4 1.27-2.3 3.2-2.3a4.47 4.47 0 0 1 2.49.69l-.42.79a3.71 3.71 0 0 0 -2.16-.63c-1.35 0-2.12.55-2.12 1.35 0 1.71 4.17.55 4.17 3 0 1.45-1.3 2.29-3.26 2.29a4.65 4.65 0 0 1 -2.93-.9z"/><path d="m297.36 194.76a2.64 2.64 0 0 0 -.06.46c0 .63.35 1 1.06 1a1.9 1.9 0 0 0 1.14-.38l.24.76a2.75 2.75 0 0 1 -1.64.47 1.61 1.61 0 0 1 -1.8-1.68 2.83 2.83 0 0 1 .06-.57l.86-4.34h-1.31l.16-.84h1.31l.33-1.62h1l-.32 1.62h2.24l-.17.84h-2.24z"/><path d="m302.11 196.33a.79.79 0 0 1 .79-.8.7.7 0 0 1 .71.73.77.77 0 0 1 -.77.79.73.73 0 0 1 -.73-.72z"/><path d="m312.63 192.94c0 1.91 1.25 3.2 3.67 3.2a4.18 4.18 0 0 0 2.51-.77l.65-3.29h1l-.76 3.77a5.47 5.47 0 0 1 -3.51 1.22c-2.89 0-4.58-1.64-4.58-4.08a5.73 5.73 0 0 1 6-5.9 4.49 4.49 0 0 1 3.64 1.43l-.73.63a3.64 3.64 0 0 0 -2.95-1.13 4.75 4.75 0 0 0 -4.94 4.92z"/><path d="m324.16 193.58v.29c0 1.48.84 2.3 2.54 2.3a3.35 3.35 0 0 0 2.41-.92l.44.71a4.19 4.19 0 0 1 -2.94 1.09c-2.13 0-3.43-1.2-3.43-3.13a4.1 4.1 0 0 1 4.08-4.36 2.93 2.93 0 0 1 3.2 3.12 5.18 5.18 0 0 1 -.09.9zm.1-.74h5.26a2.53 2.53 0 0 0 0-.27 2.08 2.08 0 0 0 -2.31-2.17 3 3 0 0 0 -2.95 2.44z"/><path d="m345.83 191.93a4.74 4.74 0 0 1 -.1.87l-.84 4.18h-1l.84-4.2a3.41 3.41 0 0 0 .07-.68c0-1-.61-1.64-1.82-1.64a2.74 2.74 0 0 0 -2.86 2.46l-.81 4.06h-1l.84-4.2a4.13 4.13 0 0 0 .07-.67c0-1.05-.59-1.65-1.82-1.65a2.82 2.82 0 0 0 -2.89 2.57l-.78 3.95h-1l1.45-7.36h1l-.24 1.17a3.43 3.43 0 0 1 2.78-1.23 2.29 2.29 0 0 1 2.41 1.47 3.74 3.74 0 0 1 3.11-1.47c1.65 0 2.59.88 2.59 2.37z"/><path d="m347.87 196.16.47-.79a4 4 0 0 0 2.55.82c1.42 0 2.19-.49 2.19-1.32 0-1.67-4.18-.52-4.18-3 0-1.4 1.26-2.3 3.2-2.3a4.49 4.49 0 0 1 2.49.69l-.42.79a3.73 3.73 0 0 0 -2.16-.63c-1.36 0-2.13.55-2.13 1.35 0 1.71 4.18.55 4.18 3 0 1.45-1.31 2.29-3.27 2.29a4.64 4.64 0 0 1 -2.92-.9z"/><path d="m365.16 188.08h-3.46l.18-.9h7.94l-.19.9h-3.45l-1.78 8.92h-1z"/><path d="m370.5 193.58v.29c0 1.48.84 2.3 2.54 2.3a3.31 3.31 0 0 0 2.4-.92l.45.71a4.19 4.19 0 0 1 -2.94 1.09c-2.13 0-3.43-1.2-3.43-3.13a4.1 4.1 0 0 1 4.08-4.36 2.93 2.93 0 0 1 3.2 3.12 5.18 5.18 0 0 1 -.09.9zm.1-.74h5.26a2.53 2.53 0 0 0 0-.27 2.08 2.08 0 0 0 -2.31-2.17 3 3 0 0 0 -2.95 2.44z"/><path d="m387.28 189.62-1.47 7.38h-.95l.23-1.16a3.77 3.77 0 0 1 -2.87 1.23 3 3 0 0 1 -3.2-3.12 4.14 4.14 0 0 1 4.16-4.37 2.76 2.76 0 0 1 2.8 1.6l.31-1.54zm-1.65 3.11a2.16 2.16 0 0 0 -2.43-2.3 3.24 3.24 0 0 0 -3.19 3.46 2.14 2.14 0 0 0 2.42 2.28 3.22 3.22 0 0 0 3.2-3.44z"/><path d="m389.56 193.93a4.18 4.18 0 0 1 4.28-4.37 3.06 3.06 0 0 1 2.9 1.47l-.84.49a2.26 2.26 0 0 0 -2.14-1.09 3.24 3.24 0 0 0 -3.21 3.46 2.15 2.15 0 0 0 2.45 2.28 2.86 2.86 0 0 0 2.33-1.06l.71.54a3.8 3.8 0 0 1 -3.08 1.4c-2.1 0-3.4-1.23-3.4-3.12z"/><path d="m406.14 192a4.32 4.32 0 0 1 -.09.85l-.84 4.18h-1l.84-4.2a4.13 4.13 0 0 0 .07-.67c0-1.05-.63-1.65-1.91-1.65a2.87 2.87 0 0 0 -3 2.57l-.79 3.95h-1l2.07-10.39h1l-.83 4.13a3.58 3.58 0 0 1 2.81-1.16c1.7-.05 2.67.85 2.67 2.39z"/><path d="m409.93 193.58a1.46 1.46 0 0 0 0 .29c0 1.48.84 2.3 2.54 2.3a3.35 3.35 0 0 0 2.41-.92l.45.71a4.22 4.22 0 0 1 -2.94 1.09c-2.13 0-3.44-1.2-3.44-3.13a4.11 4.11 0 0 1 4.08-4.36 2.93 2.93 0 0 1 3.21 3.12 5.16 5.16 0 0 1 -.1.9zm.1-.74h5.25a2.53 2.53 0 0 0 0-.27 2.08 2.08 0 0 0 -2.28-2.17 3 3 0 0 0 -3 2.44z"/><path d="m423.69 189.56-.18 1h-.28c-1.57 0-2.62.9-3 2.73l-.73 3.71h-1l1.46-7.36h.95l-.25 1.34a3.3 3.3 0 0 1 3.03-1.42z"/><path d="m424.33 196.16.48-.79a4 4 0 0 0 2.55.82c1.41 0 2.18-.49 2.18-1.32 0-1.67-4.17-.52-4.17-3 0-1.4 1.26-2.3 3.19-2.3a4.5 4.5 0 0 1 2.5.69l-.42.79a3.73 3.73 0 0 0 -2.16-.63c-1.36 0-2.13.55-2.13 1.35 0 1.71 4.17.55 4.17 3 0 1.45-1.3 2.29-3.26 2.29a4.69 4.69 0 0 1 -2.93-.9z"/><path d="m438.66 193.58a1.46 1.46 0 0 0 0 .29c0 1.48.84 2.3 2.54 2.3a3.35 3.35 0 0 0 2.41-.92l.44.71a4.19 4.19 0 0 1 -2.94 1.09c-2.13 0-3.43-1.2-3.43-3.13a4.1 4.1 0 0 1 4.08-4.36 2.93 2.93 0 0 1 3.2 3.12 5.18 5.18 0 0 1 -.09.9zm.09-.74h5.25a2.53 2.53 0 0 0 0-.27 2.08 2.08 0 0 0 -2.31-2.17 3 3 0 0 0 -2.94 2.44z"/><path d="m450 188.8-.17.82h2.26l-.17.84h-2.22l-1.3 6.54h-1l1.3-6.52h-1.32l.15-.84h1.34l.18-.93a2.41 2.41 0 0 1 2.52-2.17 2.21 2.21 0 0 1 1.48.48l-.43.72a1.59 1.59 0 0 0 -1.05-.36c-.86-.02-1.35.43-1.57 1.42z"/><path d="m453.33 192.75h3.67l-.17.87h-3.67z"/><path d="m146.54 205.6-.17.82h2.25l-.16.84h-2.23l-1.3 6.52h-1l1.3-6.52h-1.31l.15-.84h1.33l.18-.93a2.41 2.41 0 0 1 2.52-2.17 2.26 2.26 0 0 1 1.49.48l-.43.72a1.6 1.6 0 0 0 -1.06-.36c-.86 0-1.35.45-1.56 1.44z"/><path d="m149.36 210.73a4.18 4.18 0 0 1 4.26-4.37 3 3 0 0 1 3.35 3.11 4.18 4.18 0 0 1 -4.26 4.38 3 3 0 0 1 -3.35-3.12zm6.61-1.2a2.15 2.15 0 0 0 -2.42-2.3 3.23 3.23 0 0 0 -3.19 3.46 2.14 2.14 0 0 0 2.42 2.28 3.21 3.21 0 0 0 3.22-3.44z"/><path d="m164.44 206.36-.18 1h-.28c-1.57 0-2.62.9-3 2.73l-.74 3.74h-1l1.46-7.36h.95l-.25 1.34a3.31 3.31 0 0 1 3.04-1.45z"/><path d="m167.73 211.56a2.58 2.58 0 0 0 0 .46c0 .63.35 1 1.06 1a1.85 1.85 0 0 0 1.13-.38l.24.76a2.73 2.73 0 0 1 -1.64.47 1.61 1.61 0 0 1 -1.79-1.68 2.26 2.26 0 0 1 .06-.57l.85-4.34h-1.3l.15-.84h1.32l.32-1.62h1l-.33 1.62h2.2l-.17.84h-2.24z"/><path d="m172.08 213 .48-.79a4 4 0 0 0 2.55.82c1.41 0 2.18-.5 2.18-1.32 0-1.67-4.17-.52-4.17-3 0-1.4 1.26-2.3 3.19-2.3a4.5 4.5 0 0 1 2.5.69l-.42.79a3.73 3.73 0 0 0 -2.16-.63c-1.36 0-2.13.55-2.13 1.35 0 1.71 4.18.54 4.18 3 0 1.45-1.31 2.29-3.27 2.29a4.69 4.69 0 0 1 -2.93-.9z"/><path d="m185.41 210.73a4.18 4.18 0 0 1 4.26-4.37 3 3 0 0 1 3.35 3.11 4.18 4.18 0 0 1 -4.26 4.38 3 3 0 0 1 -3.35-3.12zm6.61-1.2a2.15 2.15 0 0 0 -2.42-2.3 3.23 3.23 0 0 0 -3.19 3.46 2.14 2.14 0 0 0 2.42 2.28 3.22 3.22 0 0 0 3.17-3.44z"/><path d="m203 208.75a5.18 5.18 0 0 1 -.08.85l-.84 4.18h-1l.84-4.2a4.13 4.13 0 0 0 .07-.67c0-1-.63-1.65-1.9-1.65a2.87 2.87 0 0 0 -3 2.57l-.79 3.95h-1l1.46-7.36h.95l-.24 1.17a3.64 3.64 0 0 1 2.89-1.23 2.31 2.31 0 0 1 2.64 2.39z"/><path d="m210.49 210.73a4.17 4.17 0 0 1 4.25-4.37 3 3 0 0 1 3.35 3.11 4.18 4.18 0 0 1 -4.26 4.38 3 3 0 0 1 -3.34-3.12zm6.61-1.2a2.16 2.16 0 0 0 -2.43-2.3 3.23 3.23 0 0 0 -3.19 3.46 2.14 2.14 0 0 0 2.42 2.31 3.22 3.22 0 0 0 3.2-3.47z"/><path d="m228.07 208.75a4.27 4.27 0 0 1 -.08.85l-.84 4.18h-1l.84-4.2a4.13 4.13 0 0 0 .07-.67c0-1-.63-1.65-1.91-1.65a2.87 2.87 0 0 0 -3 2.57l-.78 3.95h-1l1.46-7.36h.95l-.23 1.17a3.62 3.62 0 0 1 2.88-1.23c1.68 0 2.64.9 2.64 2.39z"/><path d="m233 203.39h1l-2.07 10.39h-1z"/><path d="m237.18 206.42h1l-1.46 7.36h-1zm.26-2.27a.75.75 0 0 1 .77-.76.65.65 0 0 1 .68.63.76.76 0 0 1 -.78.78.65.65 0 0 1 -.67-.65z"/><path d="m248.23 208.75a4.27 4.27 0 0 1 -.08.85l-.84 4.18h-1l.85-4.2a4.13 4.13 0 0 0 .07-.67c0-1-.64-1.65-1.91-1.65a2.87 2.87 0 0 0 -3 2.57l-.78 3.95h-1l1.46-7.36h1l-.24 1.17a3.66 3.66 0 0 1 2.89-1.23c1.62 0 2.58.9 2.58 2.39z"/><path d="m252 210.38v.29c0 1.47.84 2.3 2.53 2.3a3.32 3.32 0 0 0 2.41-.92l.45.71a4.19 4.19 0 0 1 -2.94 1.09c-2.13 0-3.43-1.2-3.43-3.13a4.1 4.1 0 0 1 4.08-4.36 2.93 2.93 0 0 1 3.2 3.12 4.35 4.35 0 0 1 -.1.9zm.1-.74h5.25a1.27 1.27 0 0 0 0-.27 2.08 2.08 0 0 0 -2.31-2.17 3 3 0 0 0 -2.92 2.44z"/><path d="m265.25 210.73a4.18 4.18 0 0 1 4.29-4.37 3.08 3.08 0 0 1 2.9 1.47l-.84.49a2.27 2.27 0 0 0 -2.14-1.09 3.24 3.24 0 0 0 -3.21 3.46 2.15 2.15 0 0 0 2.45 2.31 2.84 2.84 0 0 0 2.32-1.06l.72.54a3.8 3.8 0 0 1 -3.08 1.4c-2.1-.03-3.41-1.26-3.41-3.15z"/><path d="m276.22 203.39h1l-2.07 10.39h-1z"/><path d="m287.15 206.42-1.47 7.36h-.95l.24-1.16a3.77 3.77 0 0 1 -2.87 1.23 3 3 0 0 1 -3.21-3.12 4.14 4.14 0 0 1 4.16-4.37 2.76 2.76 0 0 1 2.8 1.6l.31-1.54zm-1.65 3.11a2.15 2.15 0 0 0 -2.42-2.3 3.23 3.23 0 0 0 -3.2 3.46 2.15 2.15 0 0 0 2.43 2.28 3.22 3.22 0 0 0 3.19-3.44z"/><path d="m288.72 213 .47-.79a4 4 0 0 0 2.55.82c1.42 0 2.19-.5 2.19-1.32 0-1.67-4.18-.52-4.18-3 0-1.4 1.26-2.3 3.2-2.3a4.47 4.47 0 0 1 2.49.69l-.42.79a3.71 3.71 0 0 0 -2.16-.63c-1.36 0-2.13.55-2.13 1.35 0 1.71 4.18.54 4.18 3 0 1.45-1.31 2.29-3.27 2.29a4.64 4.64 0 0 1 -2.92-.9z"/><path d="m296.61 213 .48-.79a4 4 0 0 0 2.55.82c1.41 0 2.18-.5 2.18-1.32 0-1.67-4.17-.52-4.17-3 0-1.4 1.26-2.3 3.19-2.3a4.5 4.5 0 0 1 2.5.69l-.42.79a3.75 3.75 0 0 0 -2.16-.63c-1.36 0-2.13.55-2.13 1.35 0 1.71 4.17.54 4.17 3 0 1.45-1.3 2.29-3.26 2.29a4.69 4.69 0 0 1 -2.93-.9z"/><path d="m306.22 210.38a1.46 1.46 0 0 0 0 .29c0 1.47.84 2.3 2.54 2.3a3.35 3.35 0 0 0 2.41-.92l.45.71a4.22 4.22 0 0 1 -2.94 1.09c-2.13 0-3.44-1.2-3.44-3.13a4.11 4.11 0 0 1 4.08-4.36 2.93 2.93 0 0 1 3.21 3.12 5.16 5.16 0 0 1 -.1.9zm.1-.74h5.25a2.53 2.53 0 0 0 0-.27 2.08 2.08 0 0 0 -2.31-2.17 3 3 0 0 0 -2.94 2.44z"/><path d="m314 213 .48-.79a4 4 0 0 0 2.52.79c1.41 0 2.19-.5 2.19-1.32 0-1.67-4.18-.52-4.18-3 0-1.4 1.26-2.3 3.2-2.3a4.49 4.49 0 0 1 2.49.69l-.42.79a3.73 3.73 0 0 0 -2.16-.63c-1.36 0-2.13.55-2.13 1.35 0 1.71 4.18.54 4.18 3 0 1.45-1.31 2.29-3.27 2.29a4.69 4.69 0 0 1 -2.9-.87z"/><path d="m335.61 206.42-1.47 7.36h-1l.24-1.16a3.77 3.77 0 0 1 -2.87 1.23 3 3 0 0 1 -3.21-3.12 4.15 4.15 0 0 1 4.16-4.37 2.76 2.76 0 0 1 2.8 1.6l.31-1.54zm-1.61 3.11a2.15 2.15 0 0 0 -2.42-2.3 3.23 3.23 0 0 0 -3.19 3.46 2.14 2.14 0 0 0 2.42 2.28 3.22 3.22 0 0 0 3.19-3.44z"/><path d="m343.14 206.36-.18 1h-.29c-1.56 0-2.61.9-3 2.73l-.74 3.74h-1l1.46-7.36h.95l-.25 1.34a3.33 3.33 0 0 1 3.05-1.45z"/><path d="m345.36 210.38v.29c0 1.47.84 2.3 2.53 2.3a3.34 3.34 0 0 0 2.41-.92l.45.71a4.21 4.21 0 0 1 -2.94 1.09c-2.13 0-3.43-1.2-3.43-3.13a4.1 4.1 0 0 1 4.07-4.36 2.93 2.93 0 0 1 3.21 3.12 4.35 4.35 0 0 1 -.1.9zm.1-.74h5.25a1.27 1.27 0 0 0 0-.27 2.08 2.08 0 0 0 -2.32-2.17 3 3 0 0 0 -2.93 2.44z"/><path d="m366.35 208.75a5.18 5.18 0 0 1 -.08.85l-.84 4.18h-1l.84-4.2a4.13 4.13 0 0 0 .07-.67c0-1-.63-1.65-1.9-1.65a2.87 2.87 0 0 0 -3 2.57l-.79 3.95h-1l1.46-7.36h.95l-.24 1.17a3.64 3.64 0 0 1 2.89-1.23 2.31 2.31 0 0 1 2.64 2.39z"/><path d="m369.15 210.73a4.17 4.17 0 0 1 4.25-4.37 3 3 0 0 1 3.35 3.11 4.18 4.18 0 0 1 -4.26 4.38 3 3 0 0 1 -3.34-3.12zm6.61-1.2a2.16 2.16 0 0 0 -2.43-2.3 3.23 3.23 0 0 0 -3.19 3.46 2.14 2.14 0 0 0 2.42 2.28 3.22 3.22 0 0 0 3.2-3.44z"/><path d="m385.83 203.39h1l-2.07 10.39h-1z"/><path d="m389.5 210.38v.29c0 1.47.84 2.3 2.53 2.3a3.34 3.34 0 0 0 2.41-.92l.45.71a4.19 4.19 0 0 1 -2.94 1.09c-2.13 0-3.43-1.2-3.43-3.13a4.1 4.1 0 0 1 4.07-4.36 2.93 2.93 0 0 1 3.21 3.12 4.35 4.35 0 0 1 -.1.9zm.1-.74h5.25a1.27 1.27 0 0 0 0-.27 2.08 2.08 0 0 0 -2.31-2.17 3 3 0 0 0 -2.94 2.44z"/><path d="m397.3 213 .48-.79a4 4 0 0 0 2.55.82c1.41 0 2.18-.5 2.18-1.32 0-1.67-4.17-.52-4.17-3 0-1.4 1.26-2.3 3.19-2.3a4.47 4.47 0 0 1 2.49.69l-.42.79a3.7 3.7 0 0 0 -2.15-.63c-1.36 0-2.13.55-2.13 1.35 0 1.71 4.17.54 4.17 3 0 1.45-1.3 2.29-3.26 2.29a4.65 4.65 0 0 1 -2.93-.9z"/><path d="m405.2 213 .47-.79a4 4 0 0 0 2.55.82c1.42 0 2.19-.5 2.19-1.32 0-1.67-4.18-.52-4.18-3 0-1.4 1.26-2.3 3.2-2.3a4.49 4.49 0 0 1 2.49.69l-.42.79a3.73 3.73 0 0 0 -2.16-.63c-1.36 0-2.13.55-2.13 1.35 0 1.71 4.18.54 4.18 3 0 1.45-1.31 2.29-3.27 2.29a4.64 4.64 0 0 1 -2.92-.9z"/><path d="m420.19 211.56a2.64 2.64 0 0 0 -.06.46c0 .63.35 1 1.07 1a1.85 1.85 0 0 0 1.13-.38l.24.76a2.73 2.73 0 0 1 -1.64.47 1.61 1.61 0 0 1 -1.79-1.68 2.26 2.26 0 0 1 .06-.57l.85-4.34h-1.3l.15-.84h1.32l.32-1.62h1l-.33 1.62h2.24l-.16.84h-2.29z"/><path d="m433 208.75a4.32 4.32 0 0 1 -.09.85l-.84 4.18h-1l.84-4.2a4.13 4.13 0 0 0 .07-.67c0-1-.63-1.65-1.91-1.65a2.87 2.87 0 0 0 -3 2.57l-.79 3.95h-1l2.07-10.39h1l-.83 4.13a3.58 3.58 0 0 1 2.81-1.16c1.72 0 2.67.9 2.67 2.39z"/><path d="m444.08 206.42-1.47 7.36h-1l.24-1.16a3.77 3.77 0 0 1 -2.87 1.23 3 3 0 0 1 -3.21-3.12 4.15 4.15 0 0 1 4.16-4.37 2.76 2.76 0 0 1 2.8 1.6l.31-1.54zm-1.66 3.11a2.15 2.15 0 0 0 -2.42-2.3 3.23 3.23 0 0 0 -3.19 3.46 2.14 2.14 0 0 0 2.42 2.28 3.21 3.21 0 0 0 3.19-3.44z"/><path d="m454.12 208.75a4.32 4.32 0 0 1 -.09.85l-.84 4.18h-1l.84-4.2a4.13 4.13 0 0 0 .07-.67c0-1-.63-1.65-1.91-1.65a2.87 2.87 0 0 0 -3 2.57l-.78 3.95h-1l1.46-7.36h.95l-.23 1.17a3.62 3.62 0 0 1 2.88-1.23c1.68 0 2.65.9 2.65 2.39z"/><path d="m144.25 223.16-.18 1h-.28c-1.57 0-2.62.9-3 2.73l-.74 3.74h-1l1.46-7.36h.95l-.25 1.34a3.31 3.31 0 0 1 3.04-1.45z"/><path d="m146.48 227.18a1.46 1.46 0 0 0 0 .29c0 1.47.85 2.3 2.54 2.3a3.35 3.35 0 0 0 2.41-.92l.45.71a4.22 4.22 0 0 1 -2.94 1.09c-2.13 0-3.44-1.2-3.44-3.13a4.11 4.11 0 0 1 4.08-4.36 2.93 2.93 0 0 1 3.21 3.12 4.35 4.35 0 0 1 -.1.9zm.1-.74h5.25a2.53 2.53 0 0 0 0-.27 2.07 2.07 0 0 0 -2.31-2.17 3 3 0 0 0 -2.94 2.44z"/><path d="m163.35 223.22-1.29 6.47c-.51 2.6-1.89 3.68-4.28 3.68a4.66 4.66 0 0 1 -3.28-1.11l.59-.75a3.86 3.86 0 0 0 2.76 1 2.89 2.89 0 0 0 3.19-2.64l.17-.81a3.8 3.8 0 0 1 -2.94 1.26c-2 0-3.25-1.13-3.25-3a4.07 4.07 0 0 1 4.2-4.17 2.82 2.82 0 0 1 2.87 1.68l.31-1.62zm-1.68 2.95c0-1.34-.91-2.14-2.44-2.14a3.12 3.12 0 0 0 -3.2 3.25c0 1.34.89 2.14 2.43 2.14a3.13 3.13 0 0 0 3.21-3.25z"/><path d="m173.82 223.22-1.47 7.36h-.95l.24-1.17a3.58 3.58 0 0 1 -2.85 1.24 2.3 2.3 0 0 1 -2.61-2.41 4 4 0 0 1 .08-.82l.84-4.2h1l-.84 4.2a4 4 0 0 0 -.07.66c0 1.06.62 1.68 1.88 1.68a2.87 2.87 0 0 0 3-2.58l.79-4z"/><path d="m178.26 220.19h1l-2.07 10.39h-1z"/><path d="m189.2 223.22-1.47 7.36h-1l.24-1.16a3.77 3.77 0 0 1 -2.87 1.23 3 3 0 0 1 -3.21-3.12 4.15 4.15 0 0 1 4.16-4.37 2.76 2.76 0 0 1 2.8 1.6l.31-1.54zm-1.66 3.11a2.15 2.15 0 0 0 -2.42-2.3 3.23 3.23 0 0 0 -3.19 3.46 2.14 2.14 0 0 0 2.42 2.28 3.22 3.22 0 0 0 3.19-3.44z"/><path d="m196.73 223.16-.19 1h-.28c-1.56 0-2.62.9-3 2.73l-.74 3.74h-1l1.46-7.36h1.02l-.25 1.34a3.33 3.33 0 0 1 2.98-1.45z"/><path d="m205.7 222.4-.17.82h2.26l-.17.84h-2.23l-1.3 6.52h-1l1.31-6.52h-1.32l.15-.84h1.33l.19-.93a2.41 2.41 0 0 1 2.52-2.17 2.21 2.21 0 0 1 1.48.48l-.43.72a1.59 1.59 0 0 0 -1-.36c-.92.04-1.41.45-1.62 1.44z"/><path d="m216.79 223.22-1.47 7.36h-.95l.23-1.16a3.77 3.77 0 0 1 -2.87 1.23 3 3 0 0 1 -3.2-3.12 4.14 4.14 0 0 1 4.16-4.37 2.76 2.76 0 0 1 2.8 1.6l.3-1.54zm-1.65 3.11a2.16 2.16 0 0 0 -2.43-2.3 3.23 3.23 0 0 0 -3.19 3.46 2.14 2.14 0 0 0 2.42 2.28 3.22 3.22 0 0 0 3.2-3.44z"/><path d="m219.07 227.53a4.18 4.18 0 0 1 4.28-4.37 3.06 3.06 0 0 1 2.9 1.47l-.84.49a2.26 2.26 0 0 0 -2.14-1.09 3.24 3.24 0 0 0 -3.21 3.46 2.15 2.15 0 0 0 2.45 2.28 2.86 2.86 0 0 0 2.33-1.06l.71.54a3.8 3.8 0 0 1 -3.08 1.4c-2.1 0-3.4-1.23-3.4-3.12z"/><path d="m228.87 227.18a1.46 1.46 0 0 0 0 .29c0 1.47.84 2.3 2.54 2.3a3.35 3.35 0 0 0 2.41-.92l.45.71a4.22 4.22 0 0 1 -2.94 1.09c-2.13 0-3.44-1.2-3.44-3.13a4.11 4.11 0 0 1 4.08-4.36 2.93 2.93 0 0 1 3.21 3.12 4.35 4.35 0 0 1 -.1.9zm.1-.74h5.25a2.53 2.53 0 0 0 0-.27 2.08 2.08 0 0 0 -2.31-2.17 3 3 0 0 0 -2.91 2.44z"/><path d="m243.76 228.36a4 4 0 0 0 0 .46c0 .63.35 1 1.06 1a1.9 1.9 0 0 0 1.14-.38l.23.76a2.7 2.7 0 0 1 -1.63.47 1.61 1.61 0 0 1 -1.8-1.68 2.83 2.83 0 0 1 .06-.57l.85-4.34h-1.3l.16-.84h1.31l.32-1.62h1l-.32 1.62h2.16l-.17.84h-2.24z"/><path d="m248.56 227.53a4.18 4.18 0 0 1 4.26-4.37 3 3 0 0 1 3.35 3.11 4.18 4.18 0 0 1 -4.26 4.38 3 3 0 0 1 -3.35-3.12zm6.62-1.2a2.16 2.16 0 0 0 -2.43-2.3 3.23 3.23 0 0 0 -3.19 3.46 2.14 2.14 0 0 0 2.42 2.28 3.22 3.22 0 0 0 3.2-3.44z"/><path d="m266 222.4-.16.82h2.16l-.17.84h-2.22l-1.31 6.52h-1l1.3-6.52h-1.32l.16-.84h1.33l.18-.93a2.41 2.41 0 0 1 2.52-2.17 2.26 2.26 0 0 1 1.49.48l-.44.72a1.57 1.57 0 0 0 -1.05-.36c-.82.04-1.31.45-1.47 1.44z"/><path d="m277.05 223.22-1.48 7.36h-.95l.24-1.16a3.77 3.77 0 0 1 -2.87 1.23 3 3 0 0 1 -3.21-3.12 4.15 4.15 0 0 1 4.16-4.37 2.76 2.76 0 0 1 2.8 1.6l.31-1.54zm-1.66 3.11a2.15 2.15 0 0 0 -2.39-2.33 3.23 3.23 0 0 0 -3.19 3.46 2.14 2.14 0 0 0 2.42 2.28 3.22 3.22 0 0 0 3.16-3.41z"/><path d="m279.32 227.53a4.18 4.18 0 0 1 4.29-4.37 3.08 3.08 0 0 1 2.9 1.47l-.84.49a2.28 2.28 0 0 0 -2.15-1.09 3.23 3.23 0 0 0 -3.2 3.46 2.15 2.15 0 0 0 2.45 2.28 2.84 2.84 0 0 0 2.32-1.06l.72.54a3.8 3.8 0 0 1 -3.08 1.4c-2.1 0-3.41-1.23-3.41-3.12z"/><path d="m289.12 227.18v.29c0 1.47.84 2.3 2.53 2.3a3.34 3.34 0 0 0 2.41-.92l.45.71a4.19 4.19 0 0 1 -2.94 1.09c-2.13 0-3.43-1.2-3.43-3.13a4.1 4.1 0 0 1 4.08-4.36 2.93 2.93 0 0 1 3.2 3.12 4.35 4.35 0 0 1 -.1.9zm.1-.74h5.25a1.27 1.27 0 0 0 0-.27 2.08 2.08 0 0 0 -2.31-2.17 3 3 0 0 0 -2.94 2.44z"/><path d="m302.35 227.53a4.18 4.18 0 0 1 4.29-4.37 3.08 3.08 0 0 1 2.9 1.47l-.84.49a2.28 2.28 0 0 0 -2.15-1.09 3.23 3.23 0 0 0 -3.2 3.46 2.15 2.15 0 0 0 2.45 2.28 2.84 2.84 0 0 0 2.32-1.06l.72.54a3.8 3.8 0 0 1 -3.08 1.4c-2.1 0-3.41-1.23-3.41-3.12z"/><path d="m313.32 220.19h1l-2.07 10.39h-1z"/><path d="m324.25 223.22-1.47 7.36h-.95l.24-1.16a3.77 3.77 0 0 1 -2.87 1.23 3 3 0 0 1 -3.21-3.12 4.14 4.14 0 0 1 4.16-4.37 2.76 2.76 0 0 1 2.8 1.6l.31-1.54zm-1.65 3.11a2.15 2.15 0 0 0 -2.42-2.3 3.23 3.23 0 0 0 -3.2 3.46 2.15 2.15 0 0 0 2.43 2.28 3.22 3.22 0 0 0 3.19-3.44z"/><path d="m325.82 229.76.47-.79a4 4 0 0 0 2.55.82c1.42 0 2.19-.5 2.19-1.32 0-1.67-4.18-.52-4.18-3 0-1.4 1.26-2.3 3.2-2.3a4.49 4.49 0 0 1 2.49.69l-.42.79a3.73 3.73 0 0 0 -2.12-.65c-1.36 0-2.13.55-2.13 1.35 0 1.71 4.18.54 4.18 3 0 1.45-1.31 2.29-3.27 2.29a4.64 4.64 0 0 1 -2.96-.88z"/><path d="m333.71 229.76.48-.79a4 4 0 0 0 2.55.82c1.41 0 2.18-.5 2.18-1.32 0-1.67-4.17-.52-4.17-3 0-1.4 1.26-2.3 3.19-2.3a4.53 4.53 0 0 1 2.5.69l-.43.79a3.7 3.7 0 0 0 -2.15-.63c-1.36 0-2.13.55-2.13 1.35 0 1.71 4.17.54 4.17 3 0 1.45-1.3 2.29-3.26 2.29a4.67 4.67 0 0 1 -2.93-.9z"/><path d="m349.18 220.19h1l-2.08 10.39h-1z"/><path d="m352.85 227.18v.29c0 1.47.84 2.3 2.53 2.3a3.34 3.34 0 0 0 2.41-.92l.45.71a4.21 4.21 0 0 1 -2.94 1.09c-2.13 0-3.43-1.2-3.43-3.13a4.1 4.1 0 0 1 4.07-4.36 2.93 2.93 0 0 1 3.21 3.12 4.35 4.35 0 0 1 -.1.9zm.1-.74h5.25a1.27 1.27 0 0 0 0-.27 2.08 2.08 0 0 0 -2.3-2.17 3 3 0 0 0 -2.9 2.44z"/><path d="m369.63 223.22-1.47 7.36h-1l.24-1.16a3.77 3.77 0 0 1 -2.87 1.23 3 3 0 0 1 -3.21-3.12 4.15 4.15 0 0 1 4.16-4.37 2.76 2.76 0 0 1 2.8 1.6l.31-1.54zm-1.63 3.11a2.15 2.15 0 0 0 -2.42-2.3 3.23 3.23 0 0 0 -3.19 3.46 2.14 2.14 0 0 0 2.42 2.28 3.22 3.22 0 0 0 3.19-3.44z"/><path d="m377.16 223.16-.19 1h-.28c-1.56 0-2.61.9-3 2.73l-.74 3.74h-1l1.46-7.36h.95l-.25 1.34a3.33 3.33 0 0 1 3.05-1.45z"/><path d="m386.22 225.55a4.14 4.14 0 0 1 -.09.84l-.84 4.19h-1l.84-4.2a4.13 4.13 0 0 0 .07-.67c0-1.05-.63-1.65-1.91-1.65a2.87 2.87 0 0 0 -3 2.57l-.78 4h-1l1.45-7.36h.95l-.23 1.17a3.62 3.62 0 0 1 2.88-1.23c1.69-.05 2.66.85 2.66 2.34z"/><path d="m390.51 223.22h1l-1.45 7.36h-1zm.25-2.27a.75.75 0 0 1 .77-.76.66.66 0 0 1 .69.63.76.76 0 0 1 -.79.78.65.65 0 0 1 -.67-.6z"/><path d="m401.56 225.55a5 5 0 0 1 -.08.84l-.85 4.19h-1l.84-4.2a4.13 4.13 0 0 0 .07-.67c0-1.05-.63-1.65-1.9-1.65a2.87 2.87 0 0 0 -3 2.57l-.79 4h-1l1.46-7.36h.95l-.24 1.17a3.63 3.63 0 0 1 2.89-1.23 2.31 2.31 0 0 1 2.65 2.34z"/><path d="m412.72 223.22-1.29 6.47c-.52 2.6-1.89 3.68-4.29 3.68a4.68 4.68 0 0 1 -3.28-1.11l.59-.75a3.88 3.88 0 0 0 2.76 1 2.89 2.89 0 0 0 3.2-2.64l.16-.81a3.79 3.79 0 0 1 -2.94 1.26c-1.94 0-3.25-1.13-3.25-3a4.07 4.07 0 0 1 4.2-4.17 2.84 2.84 0 0 1 2.88 1.68l.3-1.62zm-1.72 2.95c0-1.34-.91-2.14-2.44-2.14a3.13 3.13 0 0 0 -3.21 3.25c0 1.34.9 2.14 2.44 2.14a3.13 3.13 0 0 0 3.21-3.25z"/><path d="m414.29 229.76.48-.79a4 4 0 0 0 2.55.82c1.42 0 2.18-.5 2.18-1.32 0-1.67-4.17-.52-4.17-3 0-1.4 1.26-2.3 3.19-2.3a4.5 4.5 0 0 1 2.5.69l-.42.79a3.73 3.73 0 0 0 -2.16-.63c-1.36 0-2.13.55-2.13 1.35 0 1.71 4.18.54 4.18 3 0 1.45-1.31 2.29-3.27 2.29a4.69 4.69 0 0 1 -2.93-.9z"/><path d="m422.46 229.93a.78.78 0 0 1 .78-.8.7.7 0 0 1 .72.72.79.79 0 0 1 -.78.8.72.72 0 0 1 -.72-.72z"/><path d="m432 226.59a5.72 5.72 0 0 1 5.91-5.9c2.9 0 4.55 1.66 4.55 4.08a5.73 5.73 0 0 1 -5.92 5.9c-2.95 0-4.54-1.67-4.54-4.08zm9.43-1.78c0-1.9-1.25-3.19-3.62-3.19a4.72 4.72 0 0 0 -4.79 4.92c0 1.91 1.25 3.2 3.61 3.2a4.73 4.73 0 0 0 4.75-4.93z"/><path d="m452.62 223.22-1.47 7.36h-1l.24-1.17a3.56 3.56 0 0 1 -2.84 1.24 2.3 2.3 0 0 1 -2.62-2.41 4.83 4.83 0 0 1 .08-.82l.84-4.2h1l-.84 4.2a3.16 3.16 0 0 0 -.07.66c0 1.06.61 1.68 1.87 1.68a2.88 2.88 0 0 0 3-2.58l.78-4z"/><path d="m460.16 223.16-.18 1h-.28c-1.57 0-2.62.9-3 2.73l-.74 3.74h-1l1.45-7.36h1l-.25 1.34a3.3 3.3 0 0 1 3-1.45z"/><path d="m142.35 242.35a4.32 4.32 0 0 1 -.09.85l-.84 4.18h-1l.84-4.2a4.13 4.13 0 0 0 .07-.67c0-1-.63-1.65-1.91-1.65a2.87 2.87 0 0 0 -3 2.57l-.78 3.95h-1l2.09-10.38h1l-.82 4.13a3.58 3.58 0 0 1 2.81-1.16c1.66.03 2.63.89 2.63 2.38z"/><path d="m146.14 244a1.46 1.46 0 0 0 0 .29c0 1.47.84 2.3 2.54 2.3a3.35 3.35 0 0 0 2.41-.92l.45.71a4.23 4.23 0 0 1 -3 1.09c-2.13 0-3.43-1.2-3.43-3.13a4.1 4.1 0 0 1 4.08-4.36 2.94 2.94 0 0 1 3.21 3.12 5.16 5.16 0 0 1 -.1.9zm.09-.74h5.26a2.53 2.53 0 0 0 0-.27 2.08 2.08 0 0 0 -2.31-2.17 3 3 0 0 0 -2.95 2.42z"/><path d="m162.91 240-1.47 7.36h-.95l.24-1.16a3.77 3.77 0 0 1 -2.87 1.23 3 3 0 0 1 -3.21-3.12 4.14 4.14 0 0 1 4.16-4.37 2.76 2.76 0 0 1 2.8 1.6l.31-1.54zm-1.65 3.11a2.15 2.15 0 0 0 -2.42-2.3 3.24 3.24 0 0 0 -3.2 3.46 2.15 2.15 0 0 0 2.43 2.28 3.22 3.22 0 0 0 3.19-3.42z"/><path d="m170.44 240-.18 1h-.28c-1.57 0-2.62.9-3 2.73l-.75 3.74h-1l1.46-7.36h.95l-.25 1.34a3.31 3.31 0 0 1 3.05-1.45z"/><path d="m173.73 245.16a2.64 2.64 0 0 0 -.06.46c0 .63.35 1 1.07 1a1.88 1.88 0 0 0 1.13-.38l.24.76a2.73 2.73 0 0 1 -1.64.47 1.61 1.61 0 0 1 -1.79-1.68 2.26 2.26 0 0 1 .06-.57l.85-4.34h-1.3l.15-.84h1.32l.32-1.62h1l-.32 1.62h2.24l-.16.84h-2.25z"/><path d="m181.44 239.2-.16.82h2.25l-.17.84h-2.22l-1.31 6.52h-1l1.3-6.52h-1.31l.18-.86h1.33l.18-.93a2.41 2.41 0 0 1 2.52-2.17 2.26 2.26 0 0 1 1.49.48l-.44.72a1.57 1.57 0 0 0 -1.05-.36c-.89.02-1.38.47-1.59 1.46z"/><path d="m185.27 244a1.46 1.46 0 0 0 0 .29c0 1.47.84 2.3 2.54 2.3a3.35 3.35 0 0 0 2.41-.92l.44.71a4.19 4.19 0 0 1 -2.94 1.09c-2.13 0-3.43-1.2-3.43-3.13a4.1 4.1 0 0 1 4.08-4.36 2.94 2.94 0 0 1 3.21 3.12 5.16 5.16 0 0 1 -.1.9zm.09-.74h5.26a2.53 2.53 0 0 0 0-.27 2.08 2.08 0 0 0 -2.31-2.17 3 3 0 0 0 -2.95 2.42z"/><path d="m195.92 237h1l-2.07 10.39h-1z"/><path d="m200.29 245.16a2.64 2.64 0 0 0 -.06.46c0 .63.35 1 1.07 1a1.9 1.9 0 0 0 1.13-.38l.24.76a2.73 2.73 0 0 1 -1.64.47 1.6 1.6 0 0 1 -1.79-1.68 2.81 2.81 0 0 1 0-.57l.86-4.34h-1.31l.21-.88h1.32l.32-1.62h1l-.32 1.62h2.24l-.17.84h-2.24z"/><path d="m218.44 240-1.29 6.47c-.52 2.6-1.89 3.68-4.29 3.68a4.66 4.66 0 0 1 -3.28-1.11l.59-.75a3.86 3.86 0 0 0 2.76 1 2.89 2.89 0 0 0 3.19-2.63l.17-.82a3.79 3.79 0 0 1 -2.94 1.26c-1.95 0-3.25-1.13-3.25-3a4.07 4.07 0 0 1 4.2-4.17 2.82 2.82 0 0 1 2.87 1.68l.31-1.62zm-1.69 3c0-1.34-.91-2.14-2.43-2.14a3.12 3.12 0 0 0 -3.21 3.25c0 1.34.9 2.14 2.44 2.14a3.12 3.12 0 0 0 3.2-3.25z"/><path d="m226 240-.18 1h-.28c-1.57 0-2.62.9-3 2.73l-.74 3.74h-1l1.45-7.36h1l-.26 1.34a3.33 3.33 0 0 1 3.01-1.45z"/><path d="m235.47 240-1.47 7.38h-.95l.24-1.16a3.77 3.77 0 0 1 -2.87 1.23 3 3 0 0 1 -3.21-3.12 4.14 4.14 0 0 1 4.16-4.37 2.76 2.76 0 0 1 2.8 1.6l.31-1.54zm-1.65 3.11a2.15 2.15 0 0 0 -2.42-2.3 3.24 3.24 0 0 0 -3.2 3.46 2.15 2.15 0 0 0 2.43 2.28 3.22 3.22 0 0 0 3.19-3.42z"/><path d="m239.42 245.16a2.64 2.64 0 0 0 -.06.46c0 .63.35 1 1.07 1a1.9 1.9 0 0 0 1.13-.38l.24.76a2.73 2.73 0 0 1 -1.64.47 1.6 1.6 0 0 1 -1.79-1.68 2.81 2.81 0 0 1 0-.57l.86-4.34h-1.23l.16-.84h1.32l.32-1.62h1l-.32 1.62h2.24l-.17.84h-2.24z"/><path d="m246 240h1l-1.46 7.36h-1zm.25-2.27a.75.75 0 0 1 .75-.73.66.66 0 0 1 .69.63.76.76 0 0 1 -.78.78.66.66 0 0 1 -.65-.66z"/><path d="m251 245.16a2.64 2.64 0 0 0 -.06.46c0 .63.35 1 1.07 1a1.9 1.9 0 0 0 1.13-.38l.24.76a2.73 2.73 0 0 1 -1.64.47 1.6 1.6 0 0 1 -1.79-1.68 2.81 2.81 0 0 1 .05-.57l.86-4.34h-1.31l.16-.84h1.29l.32-1.62h1l-.32 1.58h2.24l-.17.84h-2.24z"/><path d="m264.21 240-1.47 7.36h-.95l.24-1.17a3.57 3.57 0 0 1 -2.84 1.24 2.3 2.3 0 0 1 -2.62-2.41 4 4 0 0 1 .08-.82l.84-4.2h1l-.85 4.2a4 4 0 0 0 -.07.66c0 1.06.62 1.68 1.88 1.68a2.89 2.89 0 0 0 3-2.58l.78-4z"/><path d="m275.37 237-2.07 10.39h-.95l.23-1.16a3.77 3.77 0 0 1 -2.87 1.23 3 3 0 0 1 -3.2-3.12 4.14 4.14 0 0 1 4.16-4.37 2.77 2.77 0 0 1 2.8 1.6l.91-4.57zm-2.25 6.14a2.16 2.16 0 0 0 -2.43-2.3 3.24 3.24 0 0 0 -3.19 3.46 2.14 2.14 0 0 0 2.42 2.28 3.22 3.22 0 0 0 3.2-3.45z"/><path d="m278 244v.29c0 1.47.84 2.3 2.53 2.3a3.34 3.34 0 0 0 2.41-.92l.45.71a4.21 4.21 0 0 1 -2.94 1.09c-2.13 0-3.43-1.2-3.43-3.13a4.1 4.1 0 0 1 4.07-4.36 2.93 2.93 0 0 1 3.21 3.12 4.35 4.35 0 0 1 -.1.9zm.1-.74h5.25a1.27 1.27 0 0 0 0-.27 2.08 2.08 0 0 0 -2.31-2.17 3 3 0 0 0 -2.9 2.42z"/><path d="m292.94 245.16a2.64 2.64 0 0 0 -.06.46c0 .63.35 1 1.07 1a1.88 1.88 0 0 0 1.13-.38l.24.76a2.73 2.73 0 0 1 -1.64.47 1.6 1.6 0 0 1 -1.79-1.68 2.81 2.81 0 0 1 .05-.57l.86-4.34h-1.3l.15-.84h1.35l.32-1.62h1l-.32 1.58h2.24l-.17.84h-2.24z"/><path d="m297.74 244.33a4.18 4.18 0 0 1 4.26-4.33 3 3 0 0 1 3.35 3.11 4.18 4.18 0 0 1 -4.26 4.38 3 3 0 0 1 -3.35-3.16zm6.61-1.2a2.15 2.15 0 0 0 -2.42-2.3 3.24 3.24 0 0 0 -3.2 3.46 2.15 2.15 0 0 0 2.43 2.28 3.22 3.22 0 0 0 3.19-3.44z"/><path d="m320 240-5.38 8.32c-.91 1.4-1.6 1.83-2.66 1.83a2.38 2.38 0 0 1 -1.75-.66l.53-.73a1.7 1.7 0 0 0 1.3.54c.63 0 1.12-.3 1.7-1.19l.51-.79-1.81-7.32h1l1.52 6.27 4-6.27z"/><path d="m320.71 244.33a4.18 4.18 0 0 1 4.29-4.33 3 3 0 0 1 3.35 3.11 4.18 4.18 0 0 1 -4.26 4.38 3 3 0 0 1 -3.38-3.16zm6.62-1.2a2.16 2.16 0 0 0 -2.43-2.3 3.24 3.24 0 0 0 -3.19 3.46 2.14 2.14 0 0 0 2.42 2.28 3.22 3.22 0 0 0 3.2-3.44z"/><path d="m338.72 240-1.47 7.36h-.95l.24-1.17a3.58 3.58 0 0 1 -2.85 1.24 2.31 2.31 0 0 1 -2.62-2.41 4 4 0 0 1 .09-.82l.84-4.2h1l-.84 4.2a4 4 0 0 0 -.07.66c0 1.06.62 1.68 1.88 1.68a2.88 2.88 0 0 0 3-2.58l.79-4z"/><path d="m348.58 239.2-.17.82h2.25l-.17.84h-2.22l-1.27 6.52h-1l1.3-6.52h-1.3l.15-.84h1.33l.18-.93a2.41 2.41 0 0 1 2.52-2.17 2.26 2.26 0 0 1 1.49.48l-.44.72a1.57 1.57 0 0 0 -1.05-.36c-.9 0-1.39.45-1.6 1.44z"/><path d="m351.4 244.33a4.18 4.18 0 0 1 4.26-4.37 3 3 0 0 1 3.35 3.11 4.18 4.18 0 0 1 -4.26 4.38 3 3 0 0 1 -3.35-3.12zm6.61-1.2a2.15 2.15 0 0 0 -2.42-2.3 3.23 3.23 0 0 0 -3.19 3.46 2.14 2.14 0 0 0 2.42 2.28 3.22 3.22 0 0 0 3.18-3.44z"/><path d="m366.48 240-.18 1h-.28c-1.57 0-2.62.9-3 2.73l-.75 3.74h-1l1.46-7.36h.95l-.25 1.34a3.3 3.3 0 0 1 3.05-1.45z"/><path d="m385.76 242.33a5.71 5.71 0 0 1 -.09.87l-.84 4.18h-1l.84-4.2a2.88 2.88 0 0 0 .07-.69c0-1-.6-1.63-1.82-1.63a2.76 2.76 0 0 0 -2.86 2.46l-.81 4.06h-1l.84-4.2a4.13 4.13 0 0 0 .07-.67c0-1-.59-1.65-1.82-1.65a2.82 2.82 0 0 0 -2.89 2.57l-.78 3.95h-1l1.46-7.36h.95l-.24 1.17a3.45 3.45 0 0 1 2.79-1.23 2.29 2.29 0 0 1 2.41 1.47 3.73 3.73 0 0 1 3.11-1.47c1.68.04 2.61.88 2.61 2.37z"/><path d="m396.81 240-1.47 7.36h-1l.24-1.16a3.77 3.77 0 0 1 -2.87 1.23 3 3 0 0 1 -3.21-3.12 4.15 4.15 0 0 1 4.2-4.31 2.76 2.76 0 0 1 2.8 1.6l.31-1.54zm-1.66 3.11a2.15 2.15 0 0 0 -2.42-2.3 3.24 3.24 0 0 0 -3.19 3.46 2.14 2.14 0 0 0 2.42 2.28 3.21 3.21 0 0 0 3.19-3.42z"/><path d="m403.41 243.06 2.65 4.32h-1.16l-2.27-3.72-2.06 1.59-.42 2.13h-1l2.08-10.38h1l-1.4 7 5.07-4h1.42z"/><path d="m409.81 240h1l-1.45 7.36h-1zm.25-2.27a.75.75 0 0 1 .77-.76.66.66 0 0 1 .69.63.76.76 0 0 1 -.79.78.65.65 0 0 1 -.67-.63z"/><path d="m420.86 242.35a4.32 4.32 0 0 1 -.09.85l-.84 4.18h-1l.84-4.2a4.13 4.13 0 0 0 .07-.67c0-1-.63-1.65-1.9-1.65a2.87 2.87 0 0 0 -3 2.57l-.79 3.95h-1l1.46-7.36h.95l-.24 1.17a3.63 3.63 0 0 1 2.89-1.23 2.31 2.31 0 0 1 2.65 2.39z"/><path d="m432 240-1.29 6.47c-.52 2.6-1.89 3.68-4.29 3.68a4.68 4.68 0 0 1 -3.28-1.11l.59-.75a3.86 3.86 0 0 0 2.76 1 2.89 2.89 0 0 0 3.2-2.63l.16-.82a3.79 3.79 0 0 1 -2.94 1.26c-1.94 0-3.25-1.13-3.25-3a4.07 4.07 0 0 1 4.2-4.17 2.84 2.84 0 0 1 2.88 1.68l.3-1.62zm-1.66 3c0-1.34-.91-2.14-2.44-2.14a3.13 3.13 0 0 0 -3.21 3.25c0 1.34.9 2.14 2.44 2.14a3.13 3.13 0 0 0 3.21-3.25z"/><path d="m439 244.33a4.17 4.17 0 0 1 4.25-4.37 3 3 0 0 1 3.35 3.11 4.18 4.18 0 0 1 -4.26 4.38 3 3 0 0 1 -3.34-3.12zm6.61-1.2a2.16 2.16 0 0 0 -2.43-2.3 3.24 3.24 0 0 0 -3.19 3.46 2.14 2.14 0 0 0 2.42 2.28 3.22 3.22 0 0 0 3.23-3.44z"/><path d="m457 240-1.47 7.36h-.95l.24-1.17a3.57 3.57 0 0 1 -2.84 1.24 2.3 2.3 0 0 1 -2.62-2.41 4 4 0 0 1 .08-.82l.84-4.2h1l-.85 4.2a4 4 0 0 0 -.06.66c0 1.06.61 1.68 1.87 1.68a2.88 2.88 0 0 0 3-2.58l.78-4z"/><path d="m464.58 240-.18 1h-.28c-1.57 0-2.62.9-3 2.73l-.74 3.74h-1l1.45-7.36h1l-.26 1.34a3.33 3.33 0 0 1 3.01-1.45z"/><path d="m135.53 259.86 2.65 4.32h-1.18l-2.27-3.72-2.06 1.59-.42 2.13h-1l2.08-10.39h1l-1.4 7 5.07-4h1.42z"/><path d="m141.93 256.82h1l-1.45 7.36h-1zm.25-2.27a.75.75 0 0 1 .77-.76.66.66 0 0 1 .69.63.76.76 0 0 1 -.79.78.65.65 0 0 1 -.67-.65z"/><path d="m154.09 253.79-2.09 10.39h-.95l.24-1.16a3.77 3.77 0 0 1 -2.87 1.23 3 3 0 0 1 -3.21-3.12 4.14 4.14 0 0 1 4.16-4.37 2.77 2.77 0 0 1 2.8 1.6l.91-4.57zm-2.26 6.14a2.15 2.15 0 0 0 -2.42-2.3 3.23 3.23 0 0 0 -3.2 3.46 2.15 2.15 0 0 0 2.43 2.28 3.22 3.22 0 0 0 3.19-3.44z"/><path d="m157.37 254.38h.88l-.79 3.7h-.75z"/><path d="m158.92 263.36.48-.79a4 4 0 0 0 2.55.82c1.42 0 2.19-.5 2.19-1.32 0-1.67-4.18-.52-4.18-3 0-1.4 1.26-2.3 3.2-2.3a4.49 4.49 0 0 1 2.49.69l-.42.79a3.73 3.73 0 0 0 -2.16-.63c-1.36 0-2.13.55-2.13 1.35 0 1.71 4.18.54 4.18 3 0 1.45-1.31 2.29-3.27 2.29a4.69 4.69 0 0 1 -2.93-.9z"/><path d="m171.54 263.36.47-.79a4.09 4.09 0 0 0 2.55.82c1.42 0 2.19-.5 2.19-1.32 0-1.67-4.17-.52-4.17-3 0-1.4 1.26-2.3 3.19-2.3a4.47 4.47 0 0 1 2.49.69l-.42.79a3.7 3.7 0 0 0 -2.15-.63c-1.36 0-2.13.55-2.13 1.35 0 1.71 4.17.54 4.17 3 0 1.45-1.3 2.29-3.26 2.29a4.65 4.65 0 0 1 -2.93-.9z"/><path d="m181.82 262a2.64 2.64 0 0 0 -.06.46c0 .63.35 1 1.06 1a1.9 1.9 0 0 0 1.18-.46l.24.76a2.75 2.75 0 0 1 -1.64.47 1.6 1.6 0 0 1 -1.79-1.68 2.81 2.81 0 0 1 0-.57l.86-4.34h-1.31l.16-.84h1.31l.33-1.62h1l-.32 1.62h2.24l-.17.84h-2.24z"/><path d="m188.41 256.82h1l-1.41 7.36h-1zm.25-2.27a.75.75 0 0 1 .77-.76.66.66 0 0 1 .69.63.76.76 0 0 1 -.79.78.65.65 0 0 1 -.67-.65z"/><path d="m191.7 261.13a4.18 4.18 0 0 1 4.28-4.37 3.06 3.06 0 0 1 2.9 1.47l-.84.49a2.26 2.26 0 0 0 -2.14-1.09 3.24 3.24 0 0 0 -3.21 3.46 2.16 2.16 0 0 0 2.45 2.28 2.86 2.86 0 0 0 2.33-1.06l.71.54a3.78 3.78 0 0 1 -3.08 1.4c-2.1 0-3.4-1.25-3.4-3.12z"/><path d="m204.85 259.86 2.64 4.32h-1.16l-2.27-3.72-2.06 1.59-.42 2.13h-1l2.07-10.39h1l-1.4 7 5.07-4h1.41z"/><path d="m222.73 256.82-1.47 7.36h-1l.24-1.17a3.56 3.56 0 0 1 -2.84 1.24 2.31 2.31 0 0 1 -2.62-2.41 4.83 4.83 0 0 1 .08-.82l.84-4.2h1l-.84 4.2a4 4 0 0 0 -.07.66c0 1.06.61 1.68 1.87 1.68a2.88 2.88 0 0 0 3-2.58l.78-4z"/><path d="m233.35 259.87a4.15 4.15 0 0 1 -4.17 4.38 2.75 2.75 0 0 1 -2.8-1.61l-.84 4.26h-1l2-10.08h1l-.24 1.17a3.74 3.74 0 0 1 2.87-1.23 3 3 0 0 1 3.18 3.11zm-1 .06a2.15 2.15 0 0 0 -2.42-2.3 3.22 3.22 0 0 0 -3.18 3.46 2.14 2.14 0 0 0 2.42 2.28 3.21 3.21 0 0 0 3.17-3.44z"/><path d="m242 262a2.64 2.64 0 0 0 -.06.46c0 .63.35 1 1.06 1a1.9 1.9 0 0 0 1.14-.38l.24.76a2.75 2.75 0 0 1 -1.64.47 1.61 1.61 0 0 1 -1.8-1.68 2.83 2.83 0 0 1 .06-.63l.86-4.34h-1.36l.16-.84h1.34l.33-1.62h1l-.32 1.62h2.24l-.17.84h-2.28z"/><path d="m246.75 261.13a4.18 4.18 0 0 1 4.25-4.37 3 3 0 0 1 3.35 3.11 4.18 4.18 0 0 1 -4.26 4.38 3 3 0 0 1 -3.34-3.12zm6.61-1.2a2.16 2.16 0 0 0 -2.43-2.3 3.23 3.23 0 0 0 -3.19 3.46 2.14 2.14 0 0 0 2.42 2.28 3.22 3.22 0 0 0 3.2-3.44z"/><path d="m263 262a2.64 2.64 0 0 0 -.06.46c0 .63.35 1 1.07 1a1.88 1.88 0 0 0 1.13-.38l.24.76a2.73 2.73 0 0 1 -1.64.47 1.6 1.6 0 0 1 -1.79-1.68 2.81 2.81 0 0 1 0-.57l.86-4.34h-1.3l.15-.84h1.34l.32-1.62h1l-.32 1.62h2.24l-.17.84h-2.24z"/><path d="m275.79 259.15a4.14 4.14 0 0 1 -.09.84l-.84 4.19h-1l.84-4.2a4.13 4.13 0 0 0 .07-.67c0-1.05-.63-1.65-1.91-1.65a2.87 2.87 0 0 0 -3 2.57l-.78 3.95h-1l2.07-10.39h1l-.82 4.13a3.58 3.58 0 0 1 2.81-1.16c1.68 0 2.65.9 2.65 2.39z"/><path d="m279.58 260.78a1.46 1.46 0 0 0 0 .29c0 1.47.84 2.3 2.54 2.3a3.35 3.35 0 0 0 2.41-.92l.45.71a4.23 4.23 0 0 1 -2.95 1.09c-2.13 0-3.43-1.2-3.43-3.13a4.1 4.1 0 0 1 4.08-4.36 2.94 2.94 0 0 1 3.21 3.12 5.16 5.16 0 0 1 -.1.9zm.09-.74h5.26a2.53 2.53 0 0 0 0-.27 2.08 2.08 0 0 0 -2.31-2.17 3 3 0 0 0 -2.95 2.4z"/><path d="m289.61 256.82h1l-1.46 7.36h-1zm.26-2.27a.75.75 0 0 1 .77-.76.65.65 0 0 1 .68.63.76.76 0 0 1 -.78.78.65.65 0 0 1 -.67-.65z"/><path d="m298.16 256.76-.19 1h-.28c-1.57 0-2.62.9-3 2.73l-.74 3.74h-1l1.46-7.36h.95l-.25 1.34a3.33 3.33 0 0 1 3.05-1.45z"/><path d="m303.57 263.36.48-.79a4 4 0 0 0 2.55.82c1.41 0 2.18-.5 2.18-1.32 0-1.67-4.17-.52-4.17-3 0-1.4 1.26-2.3 3.19-2.3a4.47 4.47 0 0 1 2.49.69l-.42.79a3.7 3.7 0 0 0 -2.15-.63c-1.36 0-2.13.55-2.13 1.35 0 1.71 4.17.54 4.17 3 0 1.45-1.3 2.29-3.26 2.29a4.67 4.67 0 0 1 -2.93-.9z"/><path d="m313.85 262a2.64 2.64 0 0 0 -.06.46c0 .63.35 1 1.07 1a1.88 1.88 0 0 0 1.14-.46l.24.76a2.73 2.73 0 0 1 -1.64.47 1.6 1.6 0 0 1 -1.79-1.68 2.81 2.81 0 0 1 .05-.57l.86-4.34h-1.3l.15-.84h1.32l.32-1.62h1l-.32 1.62h2.24l-.17.84h-2.26z"/><path d="m327.1 256.82-1.48 7.36h-.95l.24-1.17a3.56 3.56 0 0 1 -2.84 1.24 2.3 2.3 0 0 1 -2.62-2.41 4.83 4.83 0 0 1 .08-.82l.84-4.2h1l-.84 4.2a3.16 3.16 0 0 0 -.07.66c0 1.06.61 1.68 1.87 1.68a2.88 2.88 0 0 0 3-2.58l.78-4z"/><path d="m338.25 253.79-2.07 10.39h-.95l.24-1.16a3.78 3.78 0 0 1 -2.88 1.23 3 3 0 0 1 -3.2-3.12 4.14 4.14 0 0 1 4.16-4.37 2.77 2.77 0 0 1 2.8 1.6l.91-4.57zm-2.25 6.14a2.15 2.15 0 0 0 -2.42-2.3 3.23 3.23 0 0 0 -3.2 3.46 2.14 2.14 0 0 0 2.42 2.28 3.22 3.22 0 0 0 3.2-3.44z"/><path d="m341.46 256.82h1l-1.46 7.36h-1zm.25-2.27a.75.75 0 0 1 .77-.76.65.65 0 0 1 .68.63.76.76 0 0 1 -.78.78.65.65 0 0 1 -.67-.65z"/><path d="m345.74 260.78v.29c0 1.47.84 2.3 2.53 2.3a3.35 3.35 0 0 0 2.41-.92l.45.71a4.21 4.21 0 0 1 -2.94 1.09c-2.13 0-3.43-1.2-3.43-3.13a4.1 4.1 0 0 1 4.07-4.36 2.93 2.93 0 0 1 3.21 3.12 4.35 4.35 0 0 1 -.1.9zm.1-.74h5.25a2.53 2.53 0 0 0 0-.27 2.08 2.08 0 0 0 -2.31-2.17 3 3 0 0 0 -2.94 2.4z"/><path d="m353.54 263.36.47-.79a4 4 0 0 0 2.55.82c1.42 0 2.19-.5 2.19-1.32 0-1.67-4.18-.52-4.18-3 0-1.4 1.26-2.3 3.2-2.3a4.47 4.47 0 0 1 2.49.69l-.42.79a3.73 3.73 0 0 0 -2.16-.63c-1.36 0-2.13.55-2.13 1.35 0 1.71 4.18.54 4.18 3 0 1.45-1.31 2.29-3.27 2.29a4.64 4.64 0 0 1 -2.92-.9z"/><path d="m375.73 253.79-2.07 10.39h-1l.23-1.16a3.77 3.77 0 0 1 -2.87 1.23 3 3 0 0 1 -3.21-3.12 4.15 4.15 0 0 1 4.16-4.37 2.78 2.78 0 0 1 2.81 1.6l.91-4.57zm-2.25 6.14a2.16 2.16 0 0 0 -2.43-2.3 3.23 3.23 0 0 0 -3.19 3.46 2.14 2.14 0 0 0 2.42 2.28 3.22 3.22 0 0 0 3.2-3.44z"/><path d="m385.59 256.82-1.47 7.36h-1l.24-1.17a3.56 3.56 0 0 1 -2.84 1.24 2.31 2.31 0 0 1 -2.62-2.41 4.83 4.83 0 0 1 .1-.84l.84-4.2h1l-.84 4.2a4 4 0 0 0 -.07.66c0 1.06.61 1.68 1.87 1.68a2.88 2.88 0 0 0 3-2.58l.78-4z"/><path d="m393.13 256.76-.18 1h-.28c-1.57 0-2.62.9-3 2.73l-.74 3.74h-1l1.46-7.36h.95l-.25 1.34a3.3 3.3 0 0 1 3.04-1.45z"/><path d="m396 256.82h1l-1.45 7.36h-1zm.25-2.27a.75.75 0 0 1 .77-.76.66.66 0 0 1 .69.63.76.76 0 0 1 -.79.78.65.65 0 0 1 -.71-.65z"/><path d="m407 259.15a4.14 4.14 0 0 1 -.09.84l-.84 4.19h-1l.84-4.2a4.13 4.13 0 0 0 .07-.67c0-1.05-.63-1.65-1.91-1.65a2.87 2.87 0 0 0 -3 2.57l-.78 3.95h-1l1.45-7.36h1l-.24 1.17a3.62 3.62 0 0 1 2.88-1.23c1.62 0 2.62.9 2.62 2.39z"/><path d="m418.16 256.82-1.28 6.47c-.52 2.6-1.9 3.68-4.29 3.68a4.66 4.66 0 0 1 -3.28-1.11l.59-.75a3.86 3.86 0 0 0 2.76 1 2.89 2.89 0 0 0 3.19-2.64l.17-.81a3.79 3.79 0 0 1 -2.94 1.26c-1.95 0-3.25-1.13-3.25-3a4.07 4.07 0 0 1 4.2-4.17 2.82 2.82 0 0 1 2.87 1.68l.31-1.62zm-1.68 2.95c0-1.34-.91-2.14-2.43-2.14a3.12 3.12 0 0 0 -3.21 3.25c0 1.34.9 2.14 2.44 2.14a3.13 3.13 0 0 0 3.2-3.25z"/><path d="m426.84 262a2.64 2.64 0 0 0 -.06.46c0 .63.35 1 1.07 1a1.88 1.88 0 0 0 1.15-.46l.24.76a2.73 2.73 0 0 1 -1.64.47 1.61 1.61 0 0 1 -1.79-1.68 2.26 2.26 0 0 1 .06-.57l.85-4.34h-1.3l.15-.84h1.32l.32-1.62h1l-.32 1.62h2.24l-.16.84h-2.25z"/><path d="m439.67 259.15a4.14 4.14 0 0 1 -.09.84l-.84 4.19h-1l.84-4.2a4.13 4.13 0 0 0 .07-.67c0-1.05-.63-1.65-1.91-1.65a2.86 2.86 0 0 0 -3 2.57l-.79 3.95h-1l2.07-10.39h1l-.82 4.13a3.58 3.58 0 0 1 2.81-1.16c1.69 0 2.66.9 2.66 2.39z"/><path d="m443.46 260.78a1.46 1.46 0 0 0 0 .29c0 1.47.84 2.3 2.54 2.3a3.35 3.35 0 0 0 2.41-.92l.45.71a4.22 4.22 0 0 1 -2.94 1.09c-2.13 0-3.44-1.2-3.44-3.13a4.11 4.11 0 0 1 4.08-4.36 2.93 2.93 0 0 1 3.21 3.12 4.35 4.35 0 0 1 -.1.9zm.1-.74h5.25a2.53 2.53 0 0 0 0-.27 2.08 2.08 0 0 0 -2.31-2.17 3 3 0 0 0 -2.94 2.4z"/><path d="m451.25 263.36.48-.79a4 4 0 0 0 2.55.82c1.41 0 2.19-.5 2.19-1.32 0-1.67-4.18-.52-4.18-3 0-1.4 1.26-2.3 3.2-2.3a4.49 4.49 0 0 1 2.49.69l-.42.79a3.73 3.73 0 0 0 -2.16-.63c-1.36 0-2.13.55-2.13 1.35 0 1.71 4.18.54 4.18 3 0 1.45-1.31 2.29-3.27 2.29a4.69 4.69 0 0 1 -2.93-.9z"/><path d="m460.86 260.78a1.46 1.46 0 0 0 0 .29c0 1.47.85 2.3 2.54 2.3a3.35 3.35 0 0 0 2.41-.92l.45.71a4.21 4.21 0 0 1 -2.94 1.09c-2.13 0-3.44-1.2-3.44-3.13a4.11 4.11 0 0 1 4.08-4.36 2.93 2.93 0 0 1 3.21 3.12 4.35 4.35 0 0 1 -.1.9zm.1-.74h5.25a2.53 2.53 0 0 0 0-.27 2.07 2.07 0 0 0 -2.31-2.17 3 3 0 0 0 -2.9 2.4z"/><path d="m133.24 278.76a2.58 2.58 0 0 0 -.05.46c0 .63.35 1 1.06 1a1.9 1.9 0 0 0 1.14-.38l.23.76a2.7 2.7 0 0 1 -1.63.47 1.61 1.61 0 0 1 -1.8-1.68 2.83 2.83 0 0 1 .06-.57l.85-4.34h-1.3l.15-.84h1.32l.32-1.62h1l-.32 1.62h2.24l-.17.84h-2.24z"/><path d="m143.56 273.56-.18 1h-.28c-1.57 0-2.62.9-3 2.73l-.75 3.74h-1l1.46-7.36h.95l-.25 1.34a3.31 3.31 0 0 1 3.05-1.45z"/><path d="m152.92 273.62-5.38 8.32c-.91 1.4-1.6 1.83-2.66 1.83a2.42 2.42 0 0 1 -1.76-.66l.54-.73a1.7 1.7 0 0 0 1.3.54c.63 0 1.12-.3 1.69-1.19l.52-.79-1.83-7.32h1l1.52 6.27 4-6.27z"/><path d="m155.35 273.62h1l-1.46 7.38h-1zm.25-2.27a.75.75 0 0 1 .77-.76.66.66 0 0 1 .69.63.76.76 0 0 1 -.79.78.65.65 0 0 1 -.67-.65z"/><path d="m166.4 276a4.32 4.32 0 0 1 -.09.85l-.84 4.18h-1l.84-4.2a4.13 4.13 0 0 0 .07-.67c0-1.05-.63-1.65-1.91-1.65a2.87 2.87 0 0 0 -3 2.57l-.79 4h-1l1.45-7.36h1l-.24 1.17a3.62 3.62 0 0 1 2.88-1.23c1.66-.1 2.63.8 2.63 2.34z"/><path d="m177.56 273.62-1.29 6.47c-.52 2.6-1.89 3.68-4.29 3.68a4.66 4.66 0 0 1 -3.28-1.11l.59-.75a3.86 3.86 0 0 0 2.76 1 2.89 2.89 0 0 0 3.2-2.63l.16-.82a3.79 3.79 0 0 1 -2.94 1.26c-1.95 0-3.25-1.13-3.25-3a4.07 4.07 0 0 1 4.2-4.17 2.84 2.84 0 0 1 2.88 1.68l.3-1.62zm-1.69 2.95c0-1.34-.91-2.14-2.43-2.14a3.12 3.12 0 0 0 -3.21 3.25c0 1.34.9 2.14 2.44 2.14a3.12 3.12 0 0 0 3.2-3.25z"/><path d="m186.23 278.76a2.58 2.58 0 0 0 0 .46c0 .63.35 1 1.06 1a1.9 1.9 0 0 0 1.14-.38l.23.76a2.71 2.71 0 0 1 -1.64.47 1.61 1.61 0 0 1 -1.79-1.68 2.83 2.83 0 0 1 .06-.57l.85-4.34h-1.3l.15-.84h1.32l.32-1.62h1l-.33 1.62h2.25l-.17.84h-2.24z"/><path d="m192.83 273.62h1l-1.47 7.38h-1zm.25-2.27a.75.75 0 0 1 .77-.76.65.65 0 0 1 .68.63.76.76 0 0 1 -.78.78.65.65 0 0 1 -.67-.65z"/><path d="m209.27 275.93a4.74 4.74 0 0 1 -.1.87l-.84 4.18h-1l.85-4.2a3.41 3.41 0 0 0 .07-.68c0-1-.61-1.64-1.83-1.64a2.74 2.74 0 0 0 -2.85 2.46l-.82 4.06h-1l.84-4.2a4.13 4.13 0 0 0 .07-.67c0-1.05-.59-1.65-1.82-1.65a2.83 2.83 0 0 0 -2.84 2.54l-.78 4h-1l1.45-7.36h1l-.23 1.17a3.43 3.43 0 0 1 2.78-1.23 2.29 2.29 0 0 1 2.41 1.47 3.74 3.74 0 0 1 3.11-1.47c1.59-.02 2.53.86 2.53 2.35z"/><path d="m213 277.58v.29c0 1.48.84 2.3 2.53 2.3a3.34 3.34 0 0 0 2.41-.92l.45.71a4.21 4.21 0 0 1 -2.94 1.09c-2.13 0-3.43-1.2-3.43-3.13a4.1 4.1 0 0 1 4.07-4.36 2.93 2.93 0 0 1 3.21 3.12 4.35 4.35 0 0 1 -.1.9zm.1-.74h5.25a1.27 1.27 0 0 0 0-.27 2.08 2.08 0 0 0 -2.32-2.17 3 3 0 0 0 -2.89 2.44z"/><path d="m220.84 280.16.47-.79a4.07 4.07 0 0 0 2.55.82c1.42 0 2.19-.49 2.19-1.32 0-1.67-4.18-.52-4.18-3 0-1.4 1.27-2.3 3.2-2.3a4.47 4.47 0 0 1 2.49.69l-.42.79a3.71 3.71 0 0 0 -2.16-.63c-1.35 0-2.12.55-2.12 1.35 0 1.71 4.17.55 4.17 3 0 1.45-1.3 2.29-3.26 2.29a4.65 4.65 0 0 1 -2.93-.9z"/><path d="m229 280.33a.78.78 0 0 1 .78-.8.71.71 0 0 1 .72.73.78.78 0 0 1 -.77.79.72.72 0 0 1 -.73-.72z"/><path d="m240.43 271.18h1l-2 9.8h-1z"/><path d="m245.13 278.76a2.64 2.64 0 0 0 -.06.46c0 .63.35 1 1.07 1a1.88 1.88 0 0 0 1.13-.38l.24.76a2.73 2.73 0 0 1 -1.64.47 1.6 1.6 0 0 1 -1.79-1.68 2.81 2.81 0 0 1 0-.57l.86-4.34h-1.3l.15-.84h1.32l.32-1.62h1l-.32 1.62h2.24l-.17.84h-2.18z"/><path d="m249.48 280.16.48-.79a4 4 0 0 0 2.55.82c1.41 0 2.18-.49 2.18-1.32 0-1.67-4.17-.52-4.17-3 0-1.4 1.26-2.3 3.19-2.3a4.53 4.53 0 0 1 2.5.69l-.43.79a3.7 3.7 0 0 0 -2.15-.63c-1.36 0-2.13.55-2.13 1.35 0 1.71 4.17.55 4.17 3 0 1.45-1.3 2.29-3.26 2.29a4.67 4.67 0 0 1 -2.93-.9z"/><path d="m262.1 280.16.47-.79a4 4 0 0 0 2.55.82c1.42 0 2.19-.49 2.19-1.32 0-1.67-4.18-.52-4.18-3 0-1.4 1.26-2.3 3.2-2.3a4.49 4.49 0 0 1 2.49.69l-.42.79a3.73 3.73 0 0 0 -2.16-.63c-1.36 0-2.13.55-2.13 1.35 0 1.71 4.18.55 4.18 3 0 1.45-1.31 2.29-3.27 2.29a4.64 4.64 0 0 1 -2.92-.9z"/><path d="m272.23 273.62h1l-1.46 7.38h-1zm.25-2.27a.76.76 0 0 1 .77-.76.66.66 0 0 1 .69.63.76.76 0 0 1 -.78.78.66.66 0 0 1 -.68-.65z"/><path d="m288.67 275.93a5.71 5.71 0 0 1 -.09.87l-.84 4.18h-1l.84-4.2a2.81 2.81 0 0 0 .07-.68c0-1-.6-1.64-1.82-1.64a2.76 2.76 0 0 0 -2.86 2.46l-.81 4.06h-1l.84-4.2a4.13 4.13 0 0 0 .07-.67c0-1.05-.59-1.65-1.82-1.65a2.83 2.83 0 0 0 -2.89 2.57l-.78 4h-1l1.46-7.36h.96l-.24 1.17a3.45 3.45 0 0 1 2.79-1.23 2.29 2.29 0 0 1 2.45 1.39 3.73 3.73 0 0 1 3.11-1.47c1.63.03 2.56.91 2.56 2.4z"/><path d="m299.76 276.67a4.15 4.15 0 0 1 -4.17 4.38 2.76 2.76 0 0 1 -2.81-1.61l-.84 4.26h-1l2-10.08h.95l-.23 1.17a3.74 3.74 0 0 1 2.87-1.23 3 3 0 0 1 3.23 3.11zm-1 .06a2.15 2.15 0 0 0 -2.42-2.3 3.21 3.21 0 0 0 -3.18 3.46 2.14 2.14 0 0 0 2.42 2.28 3.21 3.21 0 0 0 3.17-3.44z"/><path d="m304.11 270.59h1l-2.11 10.41h-1z"/><path d="m314.51 273.62-5.37 8.32c-.91 1.4-1.6 1.83-2.67 1.83a2.41 2.41 0 0 1 -1.75-.66l.54-.73a1.7 1.7 0 0 0 1.3.54c.63 0 1.12-.3 1.69-1.19l.52-.79-1.83-7.32h1l1.52 6.27 4-6.27z"/><path d="m328.47 276.67a4.15 4.15 0 0 1 -4.17 4.38 2.74 2.74 0 0 1 -2.82-1.68l-.32 1.61h-1l2.07-10.39h1l-.83 4.13a3.74 3.74 0 0 1 2.8-1.16 3 3 0 0 1 3.27 3.11zm-1 .06a2.15 2.15 0 0 0 -2.42-2.3 3.22 3.22 0 0 0 -3.18 3.46 2.15 2.15 0 0 0 2.43 2.28 3.2 3.2 0 0 0 3.16-3.44z"/><path d="m331.67 277.58v.29c0 1.48.84 2.3 2.54 2.3a3.35 3.35 0 0 0 2.41-.92l.44.71a4.19 4.19 0 0 1 -2.94 1.09c-2.13 0-3.43-1.2-3.43-3.13a4.1 4.1 0 0 1 4.08-4.36 2.93 2.93 0 0 1 3.2 3.12 5.18 5.18 0 0 1 -.09.9zm.1-.74h5.23a2.53 2.53 0 0 0 0-.27 2.08 2.08 0 0 0 -2.31-2.17 3 3 0 0 0 -2.92 2.44z"/><path d="m347.78 273.62-5.38 8.32c-.91 1.4-1.6 1.83-2.66 1.83a2.38 2.38 0 0 1 -1.75-.66l.53-.73a1.7 1.7 0 0 0 1.3.54c.63 0 1.12-.3 1.7-1.19l.52-.79-1.84-7.32h1l1.53 6.27 4-6.27z"/><path d="m348.47 277.93a4.18 4.18 0 0 1 4.26-4.37 3 3 0 0 1 3.35 3.11 4.18 4.18 0 0 1 -4.26 4.38 3 3 0 0 1 -3.35-3.12zm6.62-1.2a2.16 2.16 0 0 0 -2.43-2.3 3.24 3.24 0 0 0 -3.19 3.46 2.14 2.14 0 0 0 2.42 2.28 3.22 3.22 0 0 0 3.2-3.44z"/><path d="m366.06 276a4.27 4.27 0 0 1 -.08.85l-.84 4.18h-1l.84-4.2a3.25 3.25 0 0 0 .07-.67c0-1.05-.63-1.65-1.9-1.65a2.87 2.87 0 0 0 -3 2.57l-.78 4h-1l1.46-7.36h.95l-.24 1.17a3.66 3.66 0 0 1 2.89-1.23c1.67-.1 2.63.8 2.63 2.34z"/><path d="m377.73 270.59-2.08 10.41h-.95l.24-1.16a3.77 3.77 0 0 1 -2.87 1.23 3 3 0 0 1 -3.21-3.12 4.14 4.14 0 0 1 4.16-4.37 2.77 2.77 0 0 1 2.8 1.6l.91-4.57zm-2.26 6.14a2.15 2.15 0 0 0 -2.42-2.3 3.24 3.24 0 0 0 -3.2 3.46 2.15 2.15 0 0 0 2.43 2.28 3.22 3.22 0 0 0 3.19-3.44z"/><path d="m384.12 277.93a4.18 4.18 0 0 1 4.26-4.37 3 3 0 0 1 3.34 3.11 4.18 4.18 0 0 1 -4.25 4.38 3 3 0 0 1 -3.35-3.12zm6.61-1.2a2.15 2.15 0 0 0 -2.42-2.3 3.24 3.24 0 0 0 -3.2 3.46 2.15 2.15 0 0 0 2.43 2.28 3.22 3.22 0 0 0 3.19-3.44z"/><path d="m402.13 273.62-1.47 7.38h-1l.24-1.17a3.56 3.56 0 0 1 -2.84 1.24 2.31 2.31 0 0 1 -2.62-2.41 4.83 4.83 0 0 1 .08-.82l.84-4.2h1l-.84 4.2a4 4 0 0 0 -.07.66c0 1.06.61 1.68 1.87 1.68a2.88 2.88 0 0 0 3-2.58l.78-4z"/><path d="m409.67 273.56-.18 1h-.28c-1.57 0-2.62.9-3 2.73l-.75 3.74h-1l1.46-7.36h.95l-.25 1.34a3.3 3.3 0 0 1 3.05-1.45z"/><path d="m416.79 277.58v.29c0 1.48.84 2.3 2.54 2.3a3.35 3.35 0 0 0 2.41-.92l.44.71a4.19 4.19 0 0 1 -2.94 1.09c-2.13 0-3.43-1.2-3.43-3.13a4.1 4.1 0 0 1 4.08-4.36 2.93 2.93 0 0 1 3.2 3.12 5.18 5.18 0 0 1 -.09.9zm.1-.74h5.26a2.53 2.53 0 0 0 0-.27 2.08 2.08 0 0 0 -2.31-2.17 3 3 0 0 0 -2.95 2.44z"/><path d="m428.79 277.24 2.21 3.76h-1.1l-1.75-3.06-3 3.06h-1.15l3.71-3.81-2.05-3.55h1.06l1.65 2.88 2.77-2.88h1.15z"/><path d="m442 276.67a4.15 4.15 0 0 1 -4.18 4.38 2.75 2.75 0 0 1 -2.8-1.61l-.84 4.26h-1l2-10.08h1l-.24 1.17a3.74 3.74 0 0 1 2.87-1.23 3 3 0 0 1 3.19 3.11zm-1 .06a2.16 2.16 0 0 0 -2.43-2.3 3.22 3.22 0 0 0 -3.18 3.46 2.15 2.15 0 0 0 2.43 2.28 3.21 3.21 0 0 0 3.18-3.44z"/><path d="m445.16 277.58a1.46 1.46 0 0 0 0 .29c0 1.48.85 2.3 2.54 2.3a3.35 3.35 0 0 0 2.41-.92l.45.71a4.22 4.22 0 0 1 -2.94 1.09c-2.13 0-3.44-1.2-3.44-3.13a4.11 4.11 0 0 1 4.08-4.36 2.93 2.93 0 0 1 3.21 3.12 4.35 4.35 0 0 1 -.1.9zm.1-.74h5.25a2.53 2.53 0 0 0 0-.27 2.08 2.08 0 0 0 -2.31-2.17 3 3 0 0 0 -2.94 2.44z"/><path d="m453.67 277.93a4.18 4.18 0 0 1 4.29-4.37 3.08 3.08 0 0 1 2.9 1.47l-.85.49a2.26 2.26 0 0 0 -2.14-1.09 3.24 3.24 0 0 0 -3.21 3.46 2.16 2.16 0 0 0 2.46 2.28 2.85 2.85 0 0 0 2.32-1.06l.72.54a3.82 3.82 0 0 1 -3.09 1.4c-2.07 0-3.4-1.23-3.4-3.12z"/><path d="m463 276.75h3.67l-.17.87h-3.7z"/><path d="m271.54 295.56a2.64 2.64 0 0 0 -.06.46c0 .63.35 1 1.07 1a1.88 1.88 0 0 0 1.13-.38l.24.76a2.73 2.73 0 0 1 -1.64.47 1.61 1.61 0 0 1 -1.79-1.68 2.26 2.26 0 0 1 .06-.57l.85-4.34h-1.3l.15-.84h1.32l.32-1.62h1l-.32 1.62h2.24l-.16.84h-2.25z"/><path d="m284.61 290.42-1.48 7.36h-.95l.24-1.16a3.77 3.77 0 0 1 -2.87 1.23 3 3 0 0 1 -3.21-3.12 4.15 4.15 0 0 1 4.16-4.37 2.76 2.76 0 0 1 2.8 1.6l.31-1.54zm-1.61 3.11a2.15 2.15 0 0 0 -2.42-2.3 3.23 3.23 0 0 0 -3.19 3.46 2.14 2.14 0 0 0 2.42 2.28 3.22 3.22 0 0 0 3.19-3.44z"/><path d="m288.55 295.56a2.64 2.64 0 0 0 -.06.46c0 .63.35 1 1.07 1a1.88 1.88 0 0 0 1.13-.38l.24.76a2.73 2.73 0 0 1 -1.64.47 1.61 1.61 0 0 1 -1.79-1.68 2.26 2.26 0 0 1 .06-.57l.85-4.34h-1.3l.15-.84h1.32l.32-1.62h1l-.32 1.62h2.24l-.16.84h-2.26z"/><path d="m295.14 290.42h1l-1.46 7.36h-1zm.26-2.27a.75.75 0 0 1 .77-.76.65.65 0 0 1 .68.63.76.76 0 0 1 -.78.78.65.65 0 0 1 -.67-.65z"/><path d="m298.43 294.73a4.18 4.18 0 0 1 4.26-4.37 3 3 0 0 1 3.35 3.11 4.18 4.18 0 0 1 -4.26 4.38 3 3 0 0 1 -3.35-3.12zm6.61-1.2a2.15 2.15 0 0 0 -2.42-2.3 3.24 3.24 0 0 0 -3.19 3.46 2.14 2.14 0 0 0 2.42 2.28 3.21 3.21 0 0 0 3.15-3.44z"/><path d="m316 292.75a5.18 5.18 0 0 1 -.08.85l-.84 4.18h-1l.84-4.2a4.13 4.13 0 0 0 .07-.67c0-1.05-.63-1.65-1.9-1.65a2.87 2.87 0 0 0 -3 2.57l-.78 3.95h-1l1.46-7.36h.95l-.24 1.17a3.64 3.64 0 0 1 2.89-1.23 2.31 2.31 0 0 1 2.63 2.39z"/><path d="m318.07 297 .48-.79a4 4 0 0 0 2.55.82c1.41 0 2.19-.5 2.19-1.32 0-1.67-4.18-.52-4.18-3 0-1.4 1.26-2.3 3.19-2.3a4.5 4.5 0 0 1 2.5.69l-.42.79a3.73 3.73 0 0 0 -2.16-.63c-1.36 0-2.13.55-2.13 1.35 0 1.71 4.18.55 4.18 3 0 1.45-1.31 2.29-3.27 2.29a4.69 4.69 0 0 1 -2.93-.9z"/><path d="m326.24 297.13a.78.78 0 0 1 .78-.8.71.71 0 0 1 .72.73.78.78 0 0 1 -.78.79.72.72 0 0 1 -.72-.72z"/><path d="m214.28 351.77.81-1.82a7 7 0 0 0 4.16 1.39c2 0 2.79-.7 2.79-1.64 0-2.72-7.49-.94-7.49-5.62 0-2 1.62-3.76 5.07-3.76a8 8 0 0 1 4.2 1.12l-.74 1.81a7 7 0 0 0 -3.47-1c-2 0-2.74.76-2.74 1.71 0 2.69 7.47.94 7.47 5.57 0 2-1.64 3.74-5.09 3.74a8.1 8.1 0 0 1 -4.97-1.5z"/><path d="m235.84 347.47v5.63h-2.12v-1.17a3.42 3.42 0 0 1 -3 1.3c-2.19 0-3.58-1.21-3.58-2.88s1.08-2.86 4-2.86h2.48v-.15c0-1.31-.79-2.09-2.39-2.09a4.74 4.74 0 0 0 -2.92 1l-.88-1.64a6.78 6.78 0 0 1 4.07-1.19c2.74-.04 4.34 1.27 4.34 4.05zm-2.25 2.63v-1.1h-2.32c-1.53 0-1.94.58-1.94 1.28s.68 1.33 1.83 1.33a2.44 2.44 0 0 0 2.43-1.51z"/><path d="m245.64 343.38v2.14a3.49 3.49 0 0 0 -.53 0c-1.71 0-2.79 1-2.79 3v4.66h-2.25v-9.61h2.14v1.4a3.79 3.79 0 0 1 3.43-1.59z"/><path d="m256.89 347.47v5.63h-2.13v-1.17a3.4 3.4 0 0 1 -3 1.3c-2.2 0-3.59-1.21-3.59-2.88s1.08-2.86 4-2.86h2.49v-.15c0-1.31-.8-2.09-2.4-2.09a4.74 4.74 0 0 0 -2.92 1l-.88-1.64a6.78 6.78 0 0 1 4.07-1.19c2.75-.04 4.36 1.27 4.36 4.05zm-2.25 2.63v-1.1h-2.33c-1.53 0-1.94.58-1.94 1.28s.68 1.33 1.84 1.33a2.46 2.46 0 0 0 2.43-1.51z"/><path d="m269.94 343.49-4.13 9.61h-2.32l-4.12-9.61h2.34l3 7.13 3.08-7.13z"/><path d="m280.43 347.47v5.63h-2.12v-1.17a3.42 3.42 0 0 1 -3 1.3c-2.2 0-3.58-1.21-3.58-2.88s1.08-2.86 4-2.86h2.49v-.15c0-1.31-.79-2.09-2.4-2.09a4.71 4.71 0 0 0 -2.91 1l-.88-1.64a6.75 6.75 0 0 1 4.06-1.19c2.74-.04 4.34 1.27 4.34 4.05zm-2.25 2.63v-1.1h-2.32c-1.53 0-1.95.58-1.95 1.28s.69 1.33 1.84 1.33a2.45 2.45 0 0 0 2.43-1.51z"/><path d="m294.13 347.59v5.51h-2.25v-5.22c0-1.71-.85-2.54-2.29-2.54-1.6 0-2.68 1-2.68 2.9v4.86h-2.25v-9.61h2.14v1.24a4.19 4.19 0 0 1 3.31-1.35c2.31 0 4.02 1.31 4.02 4.21z"/><path d="m306.39 347.47v5.63h-2.13v-1.17a3.4 3.4 0 0 1 -3 1.3c-2.2 0-3.59-1.21-3.59-2.88s1.08-2.86 4-2.86h2.49v-.15c0-1.31-.8-2.09-2.4-2.09a4.74 4.74 0 0 0 -2.92 1l-.88-1.64a6.78 6.78 0 0 1 4.07-1.19c2.75-.04 4.36 1.27 4.36 4.05zm-2.25 2.63v-1.1h-2.33c-1.53 0-1.94.58-1.94 1.28s.68 1.33 1.83 1.33a2.46 2.46 0 0 0 2.44-1.51z"/><path d="m321.49 347.83-2 2.05v3.22h-2.34v-12.6h2.34v6.5l6.23-6.46h2.63l-5.3 5.63 5.62 7h-2.74z"/><path d="m340.39 343.49v9.61h-2.14v-1.22a4 4 0 0 1 -3.1 1.35c-2.47 0-4.14-1.35-4.14-4.25v-5.49h2.25v5.18c0 1.75.83 2.58 2.25 2.58s2.63-1 2.63-2.9v-4.86z"/><path d="m360.77 347.59v5.51h-2.26v-5.22c0-1.71-.79-2.54-2.16-2.54s-2.5 1-2.5 2.88v4.88h-2.25v-5.22c0-1.71-.79-2.54-2.16-2.54s-2.5 1-2.5 2.88v4.88h-2.25v-9.61h2.14v1.22a4 4 0 0 1 3.15-1.33 3.59 3.59 0 0 1 3.24 1.6 4.49 4.49 0 0 1 3.6-1.6c2.33 0 3.95 1.31 3.95 4.21z"/><path d="m373 347.47v5.63h-2.13v-1.17a3.4 3.4 0 0 1 -3 1.3c-2.2 0-3.58-1.21-3.58-2.88s1.08-2.86 4-2.86h2.49v-.15c0-1.31-.79-2.09-2.4-2.09a4.71 4.71 0 0 0 -2.91 1l-.89-1.64a6.8 6.8 0 0 1 4.07-1.19c2.79-.04 4.35 1.27 4.35 4.05zm-2.25 2.63v-1.1h-2.32c-1.53 0-2 .58-2 1.28s.69 1.33 1.84 1.33a2.45 2.45 0 0 0 2.52-1.51z"/><path d="m382.83 343.38v2.14a3.49 3.49 0 0 0 -.52 0c-1.71 0-2.79 1-2.79 3v4.66h-2.25v-9.61h2.14v1.4a3.78 3.78 0 0 1 3.42-1.59z"/></g></svg>