<svg id="be756580-488b-4d00-b3e3-4877e59b15e4" data-name="Layer 1" xmlns="http://www.w3.org/2000/svg" viewBox="0 0 600 466"><defs><style>.f3f14f84-a3a2-463f-b18b-bb2c734ee081{fill:#5bc0c7;}.af8f5c32-6024-474f-a395-33aadcb98a3e{fill:#fff;}.af004f9c-6c01-454f-bc0a-93f06805dccf{fill:none;stroke:#fff;stroke-linecap:round;stroke-linejoin:round;stroke-width:2.83px;}</style></defs><title>Core-values-Artboard 7</title><rect class="f3f14f84-a3a2-463f-b18b-bb2c734ee081" x="-0.83" width="600" height="466"/><path class="af8f5c32-6024-474f-a395-33aadcb98a3e" d="M468.52,93.39c0-7.4,5.22-12.24,12.24-12.24s12.36,5,12.36,12.24c0,3.31-.51,5.74-3.44,12.75l-7.39,18.35H469.66l5.61-20.27C471.07,102.44,468.52,98.61,468.52,93.39Zm-30.09,0c0-7.4,5.23-12.24,12.24-12.24S463,86.12,463,93.39c0,3.31-.51,5.74-3.45,12.75l-7.39,18.35H439.58l5.61-20.27C441,102.44,438.43,98.61,438.43,93.39Z"/><path class="af004f9c-6c01-454f-bc0a-93f06805dccf" d="M440.91,76.84a165.26,165.26,0,0,0-97.84-32H89V206.33c0,1.62-.08,3.25-.08,4.89h0c0,1.64,0,3.27.08,4.9V377.63h85.41l-22.29,43.55,76.11-43.55H509.47V211.22h0v-4.95h-.08a164.93,164.93,0,0,0-20.53-75"/><path class="af8f5c32-6024-474f-a395-33aadcb98a3e" d="M156.88,136.78l-5.27,9.8h-1.09l-1.2-8.32-4.57,8.32h-1.09l-1.35-9.8h1l1.16,8.44,4.61-8.44h1l1.19,8.46,4.59-8.46Z"/><path class="af8f5c32-6024-474f-a395-33aadcb98a3e" d="M158,143.18a1.46,1.46,0,0,0,0,.29c0,1.47.84,2.3,2.54,2.3a3.35,3.35,0,0,0,2.41-.92l.45.71a4.22,4.22,0,0,1-2.94,1.09c-2.13,0-3.44-1.2-3.44-3.13a4.11,4.11,0,0,1,4.08-4.36,2.93,2.93,0,0,1,3.21,3.12,4.35,4.35,0,0,1-.1.9Zm.1-.74h5.25a2.53,2.53,0,0,0,0-.27,2.08,2.08,0,0,0-2.31-2.17A3,3,0,0,0,158.11,142.44Z"/><path class="af8f5c32-6024-474f-a395-33aadcb98a3e" d="M170.52,145.76,171,145a4,4,0,0,0,2.55.82c1.41,0,2.18-.5,2.18-1.32,0-1.67-4.17-.52-4.17-3,0-1.4,1.26-2.3,3.19-2.3a4.5,4.5,0,0,1,2.5.69l-.42.79a3.75,3.75,0,0,0-2.16-.63c-1.36,0-2.13.55-2.13,1.35,0,1.71,4.17.54,4.17,3,0,1.45-1.3,2.29-3.26,2.29A4.69,4.69,0,0,1,170.52,145.76Z"/><path class="af8f5c32-6024-474f-a395-33aadcb98a3e" d="M180.66,139.22h1l-1.45,7.36h-1Zm.25-2.27a.75.75,0,0,1,.77-.76.66.66,0,0,1,.69.63.76.76,0,0,1-.79.78A.65.65,0,0,1,180.91,137Z"/><path class="af8f5c32-6024-474f-a395-33aadcb98a3e" d="M191.71,141.55a4.14,4.14,0,0,1-.09.84l-.84,4.19h-1l.84-4.2a4.13,4.13,0,0,0,.07-.67c0-1.05-.63-1.65-1.9-1.65a2.87,2.87,0,0,0-3,2.57l-.79,4h-1l1.46-7.36h1l-.24,1.17a3.63,3.63,0,0,1,2.89-1.23A2.31,2.31,0,0,1,191.71,141.55Z"/><path class="af8f5c32-6024-474f-a395-33aadcb98a3e" d="M194.5,143.53a4.18,4.18,0,0,1,4.29-4.37,3.07,3.07,0,0,1,2.9,1.47l-.84.49a2.26,2.26,0,0,0-2.14-1.09,3.24,3.24,0,0,0-3.21,3.46,2.15,2.15,0,0,0,2.45,2.28,2.87,2.87,0,0,0,2.33-1.06l.71.54a3.8,3.8,0,0,1-3.08,1.4C195.81,146.65,194.5,145.42,194.5,143.53Z"/><path class="af8f5c32-6024-474f-a395-33aadcb98a3e" d="M204.31,143.18a1.46,1.46,0,0,0,0,.29c0,1.47.84,2.3,2.54,2.3a3.35,3.35,0,0,0,2.41-.92l.44.71a4.19,4.19,0,0,1-2.94,1.09c-2.13,0-3.43-1.2-3.43-3.13a4.1,4.1,0,0,1,4.08-4.36,2.93,2.93,0,0,1,3.2,3.12,5.18,5.18,0,0,1-.09.9Zm.09-.74h5.26a2.53,2.53,0,0,0,0-.27,2.08,2.08,0,0,0-2.31-2.17A3,3,0,0,0,204.4,142.44Z"/><path class="af8f5c32-6024-474f-a395-33aadcb98a3e" d="M218.07,139.16l-.18,1-.28,0c-1.57,0-2.62.9-3,2.73l-.74,3.74h-1l1.45-7.36h1l-.26,1.34A3.33,3.33,0,0,1,218.07,139.16Z"/><path class="af8f5c32-6024-474f-a395-33aadcb98a3e" d="M220.29,143.18c0,.1,0,.2,0,.29,0,1.47.84,2.3,2.53,2.3a3.34,3.34,0,0,0,2.41-.92l.45.71a4.19,4.19,0,0,1-2.94,1.09c-2.13,0-3.43-1.2-3.43-3.13a4.1,4.1,0,0,1,4.07-4.36,2.93,2.93,0,0,1,3.21,3.12,4.35,4.35,0,0,1-.1.9Zm.1-.74h5.25a1.27,1.27,0,0,0,0-.27,2.08,2.08,0,0,0-2.31-2.17A3,3,0,0,0,220.39,142.44Z"/><path class="af8f5c32-6024-474f-a395-33aadcb98a3e" d="M231,136.19h1l-2.07,10.39h-1Z"/><path class="af8f5c32-6024-474f-a395-33aadcb98a3e" d="M241.35,139.22,236,147.54c-.91,1.4-1.59,1.83-2.66,1.83a2.39,2.39,0,0,1-1.75-.66l.53-.73a1.74,1.74,0,0,0,1.31.54c.63,0,1.12-.3,1.69-1.19l.52-.79-1.84-7.32h1l1.53,6.27,4-6.27Z"/><path class="af8f5c32-6024-474f-a395-33aadcb98a3e" d="M255.24,139.22l-1.47,7.36h-1l.24-1.16a3.81,3.81,0,0,1-2.88,1.23,3,3,0,0,1-3.2-3.12,4.14,4.14,0,0,1,4.16-4.37,2.76,2.76,0,0,1,2.8,1.6l.31-1.54Zm-1.65,3.11a2.16,2.16,0,0,0-2.43-2.3,3.23,3.23,0,0,0-3.19,3.46,2.14,2.14,0,0,0,2.42,2.28A3.22,3.22,0,0,0,253.59,142.33Z"/><path class="af8f5c32-6024-474f-a395-33aadcb98a3e" d="M265.85,142.27a4.15,4.15,0,0,1-4.17,4.38,2.75,2.75,0,0,1-2.8-1.61L258,149.3h-1l2-10.08h1l-.24,1.17a3.74,3.74,0,0,1,2.87-1.23A3,3,0,0,1,265.85,142.27Zm-1,.06a2.15,2.15,0,0,0-2.42-2.3,3.22,3.22,0,0,0-3.18,3.46,2.14,2.14,0,0,0,2.42,2.28A3.21,3.21,0,0,0,264.84,142.33Z"/><path class="af8f5c32-6024-474f-a395-33aadcb98a3e" d="M276.39,142.27a4.15,4.15,0,0,1-4.17,4.38,2.75,2.75,0,0,1-2.8-1.61l-.84,4.26h-1l2-10.08h1l-.24,1.17a3.74,3.74,0,0,1,2.87-1.23A3,3,0,0,1,276.39,142.27Zm-1,.06A2.16,2.16,0,0,0,273,140a3.22,3.22,0,0,0-3.18,3.46,2.15,2.15,0,0,0,2.43,2.28A3.21,3.21,0,0,0,275.39,142.33Z"/><path class="af8f5c32-6024-474f-a395-33aadcb98a3e" d="M283.85,139.16l-.18,1-.28,0c-1.57,0-2.62.9-3,2.73l-.74,3.74h-1l1.46-7.36h.95l-.25,1.34A3.31,3.31,0,0,1,283.85,139.16Z"/><path class="af8f5c32-6024-474f-a395-33aadcb98a3e" d="M286.08,143.18a1.46,1.46,0,0,0,0,.29c0,1.47.84,2.3,2.54,2.3a3.35,3.35,0,0,0,2.41-.92l.45.71a4.22,4.22,0,0,1-2.94,1.09c-2.13,0-3.44-1.2-3.44-3.13a4.11,4.11,0,0,1,4.08-4.36,2.93,2.93,0,0,1,3.21,3.12,4.35,4.35,0,0,1-.1.9Zm.1-.74h5.25a2.53,2.53,0,0,0,0-.27,2.08,2.08,0,0,0-2.31-2.17A3,3,0,0,0,286.18,142.44Z"/><path class="af8f5c32-6024-474f-a395-33aadcb98a3e" d="M294.59,143.53a4.18,4.18,0,0,1,4.29-4.37,3.08,3.08,0,0,1,2.9,1.47l-.85.49a2.26,2.26,0,0,0-2.14-1.09,3.24,3.24,0,0,0-3.21,3.46,2.16,2.16,0,0,0,2.46,2.28,2.85,2.85,0,0,0,2.32-1.06l.72.54a3.82,3.82,0,0,1-3.09,1.4C295.89,146.65,294.59,145.42,294.59,143.53Z"/><path class="af8f5c32-6024-474f-a395-33aadcb98a3e" d="M305.05,139.22h1l-1.45,7.36h-1Zm.25-2.27a.75.75,0,0,1,.77-.76.66.66,0,0,1,.69.63.76.76,0,0,1-.79.78A.65.65,0,0,1,305.3,137Z"/><path class="af8f5c32-6024-474f-a395-33aadcb98a3e" d="M316.6,139.22l-1.47,7.36h-.95l.24-1.16a3.78,3.78,0,0,1-2.88,1.23,3,3,0,0,1-3.2-3.12,4.14,4.14,0,0,1,4.16-4.37,2.76,2.76,0,0,1,2.8,1.6l.31-1.54ZM315,142.33a2.15,2.15,0,0,0-2.42-2.3,3.23,3.23,0,0,0-3.2,3.46,2.14,2.14,0,0,0,2.42,2.28A3.22,3.22,0,0,0,315,142.33Z"/><path class="af8f5c32-6024-474f-a395-33aadcb98a3e" d="M320.55,144.36a2.64,2.64,0,0,0-.06.46c0,.63.35,1,1.06,1a1.9,1.9,0,0,0,1.14-.38l.24.76a2.75,2.75,0,0,1-1.64.47A1.6,1.6,0,0,1,319.5,145a2.81,2.81,0,0,1,.05-.57l.86-4.34H319.1l.16-.84h1.31l.33-1.62h1l-.32,1.62h2.24l-.17.84H321.4Z"/><path class="af8f5c32-6024-474f-a395-33aadcb98a3e" d="M326.34,143.18c0,.1,0,.2,0,.29,0,1.47.84,2.3,2.53,2.3a3.34,3.34,0,0,0,2.41-.92l.45.71a4.21,4.21,0,0,1-2.94,1.09c-2.13,0-3.43-1.2-3.43-3.13a4.1,4.1,0,0,1,4.07-4.36,2.93,2.93,0,0,1,3.21,3.12,4.35,4.35,0,0,1-.1.9Zm.1-.74h5.25a1.27,1.27,0,0,0,0-.27A2.08,2.08,0,0,0,329.4,140,3,3,0,0,0,326.44,142.44Z"/><path class="af8f5c32-6024-474f-a395-33aadcb98a3e" d="M347.3,139.22l-5.38,8.32c-.91,1.4-1.59,1.83-2.66,1.83a2.41,2.41,0,0,1-1.75-.66L338,148a1.74,1.74,0,0,0,1.31.54c.63,0,1.12-.3,1.69-1.19l.52-.79-1.84-7.32h1l1.53,6.27,4-6.27Z"/><path class="af8f5c32-6024-474f-a395-33aadcb98a3e" d="M348,143.53a4.18,4.18,0,0,1,4.26-4.37,3,3,0,0,1,3.34,3.11,4.18,4.18,0,0,1-4.25,4.38A3,3,0,0,1,348,143.53Zm6.61-1.2a2.15,2.15,0,0,0-2.42-2.3,3.23,3.23,0,0,0-3.2,3.46,2.15,2.15,0,0,0,2.43,2.28A3.22,3.22,0,0,0,354.61,142.33Z"/><path class="af8f5c32-6024-474f-a395-33aadcb98a3e" d="M366,139.22l-1.47,7.36h-1l.24-1.17a3.56,3.56,0,0,1-2.84,1.24,2.31,2.31,0,0,1-2.62-2.41,4.83,4.83,0,0,1,.08-.82l.84-4.2h1l-.84,4.2a4,4,0,0,0-.07.66c0,1.06.61,1.68,1.88,1.68a2.88,2.88,0,0,0,3-2.58l.78-4Z"/><path class="af8f5c32-6024-474f-a395-33aadcb98a3e" d="M373.55,139.16l-.18,1-.28,0c-1.57,0-2.62.9-3,2.73l-.75,3.74h-1l1.46-7.36h.95l-.25,1.34A3.3,3.3,0,0,1,373.55,139.16Z"/><path class="af8f5c32-6024-474f-a395-33aadcb98a3e" d="M380.67,143.18c0,.1,0,.2,0,.29,0,1.47.84,2.3,2.54,2.3a3.35,3.35,0,0,0,2.41-.92l.44.71a4.19,4.19,0,0,1-2.94,1.09c-2.13,0-3.43-1.2-3.43-3.13a4.1,4.1,0,0,1,4.08-4.36,2.93,2.93,0,0,1,3.2,3.12,5.18,5.18,0,0,1-.09.9Zm.1-.74H386a2.53,2.53,0,0,0,0-.27,2.08,2.08,0,0,0-2.31-2.17A3,3,0,0,0,380.77,142.44Z"/><path class="af8f5c32-6024-474f-a395-33aadcb98a3e" d="M392,138.4l-.17.82h2.26l-.17.84h-2.23l-1.3,6.52h-1l1.31-6.52h-1.32l.15-.84h1.34l.18-.93a2.41,2.41,0,0,1,2.52-2.17,2.21,2.21,0,0,1,1.48.48l-.43.72a1.59,1.59,0,0,0-1-.36C392.73,137,392.24,137.41,392,138.4Z"/><path class="af8f5c32-6024-474f-a395-33aadcb98a3e" d="M397.83,138.4l-.17.82h2.25l-.16.84h-2.23l-1.31,6.52h-1l1.3-6.52h-1.31l.15-.84h1.33l.18-.93a2.41,2.41,0,0,1,2.52-2.17,2.26,2.26,0,0,1,1.49.48l-.43.72a1.62,1.62,0,0,0-1.06-.36C398.53,137,398,137.41,397.83,138.4Z"/><path class="af8f5c32-6024-474f-a395-33aadcb98a3e" d="M400.65,143.53a4.18,4.18,0,0,1,4.26-4.37,3,3,0,0,1,3.35,3.11,4.18,4.18,0,0,1-4.26,4.38A3,3,0,0,1,400.65,143.53Zm6.61-1.2a2.15,2.15,0,0,0-2.42-2.3,3.23,3.23,0,0,0-3.19,3.46,2.14,2.14,0,0,0,2.42,2.28A3.21,3.21,0,0,0,407.26,142.33Z"/><path class="af8f5c32-6024-474f-a395-33aadcb98a3e" d="M415.73,139.16l-.18,1-.28,0c-1.57,0-2.62.9-3,2.73l-.75,3.74h-1l1.46-7.36H413l-.25,1.34A3.31,3.31,0,0,1,415.73,139.16Z"/><path class="af8f5c32-6024-474f-a395-33aadcb98a3e" d="M419,144.36a2.64,2.64,0,0,0-.06.46c0,.63.36,1,1.07,1a1.85,1.85,0,0,0,1.13-.38l.24.76a2.73,2.73,0,0,1-1.64.47A1.61,1.61,0,0,1,418,145a2.26,2.26,0,0,1,.06-.57l.85-4.34h-1.3l.15-.84h1.32l.32-1.62h1l-.33,1.62h2.24l-.16.84h-2.25Z"/><path class="af8f5c32-6024-474f-a395-33aadcb98a3e" d="M423.37,145.76l.48-.79a4,4,0,0,0,2.55.82c1.41,0,2.18-.5,2.18-1.32,0-1.67-4.17-.52-4.17-3,0-1.4,1.26-2.3,3.19-2.3a4.5,4.5,0,0,1,2.5.69l-.42.79a3.73,3.73,0,0,0-2.16-.63c-1.36,0-2.13.55-2.13,1.35,0,1.71,4.17.54,4.17,3,0,1.45-1.3,2.29-3.26,2.29A4.69,4.69,0,0,1,423.37,145.76Z"/><path class="af8f5c32-6024-474f-a395-33aadcb98a3e" d="M438.37,144.36a2.64,2.64,0,0,0-.06.46c0,.63.35,1,1.07,1a1.88,1.88,0,0,0,1.13-.38l.24.76a2.73,2.73,0,0,1-1.64.47,1.6,1.6,0,0,1-1.79-1.68,2.81,2.81,0,0,1,.05-.57l.86-4.34h-1.3l.15-.84h1.32l.32-1.62h1l-.32,1.62h2.24l-.17.84h-2.24Z"/><path class="af8f5c32-6024-474f-a395-33aadcb98a3e" d="M443.17,143.53a4.18,4.18,0,0,1,4.26-4.37,3,3,0,0,1,3.35,3.11,4.18,4.18,0,0,1-4.26,4.38A3,3,0,0,1,443.17,143.53Zm6.61-1.2a2.15,2.15,0,0,0-2.42-2.3,3.23,3.23,0,0,0-3.2,3.46,2.15,2.15,0,0,0,2.43,2.28A3.22,3.22,0,0,0,449.78,142.33Z"/><path class="af8f5c32-6024-474f-a395-33aadcb98a3e" d="M453.36,142.35H457l-.17.87h-3.67Z"/><path class="af8f5c32-6024-474f-a395-33aadcb98a3e" d="M156.35,156l-4.16,7.36h-1l-1.23-6-3.45,6h-1L144.15,156h.91l1.2,6.24,3.55-6.24h.84l1.24,6.24,3.5-6.24Z"/><path class="af8f5c32-6024-474f-a395-33aadcb98a3e" d="M165.35,156l-1.47,7.36h-.95l.24-1.16a3.77,3.77,0,0,1-2.87,1.23,3,3,0,0,1-3.21-3.12,4.15,4.15,0,0,1,4.16-4.37,2.76,2.76,0,0,1,2.8,1.6l.31-1.54Zm-1.65,3.11a2.15,2.15,0,0,0-2.42-2.3,3.24,3.24,0,0,0-3.2,3.46,2.15,2.15,0,0,0,2.43,2.28A3.22,3.22,0,0,0,163.7,159.13Z"/><path class="af8f5c32-6024-474f-a395-33aadcb98a3e" d="M172.88,156l-.18,1-.28,0c-1.57,0-2.62.9-3,2.73l-.74,3.74h-1l1.46-7.36h1l-.25,1.34A3.31,3.31,0,0,1,172.88,156Z"/><path class="af8f5c32-6024-474f-a395-33aadcb98a3e" d="M183,153l-2.07,10.39H180l.23-1.16a3.77,3.77,0,0,1-2.87,1.23,3,3,0,0,1-3.21-3.12,4.15,4.15,0,0,1,4.16-4.37,2.79,2.79,0,0,1,2.81,1.6L182,153Zm-2.25,6.14a2.16,2.16,0,0,0-2.43-2.3,3.24,3.24,0,0,0-3.19,3.46,2.14,2.14,0,0,0,2.42,2.28A3.22,3.22,0,0,0,180.73,159.13Z"/><path class="af8f5c32-6024-474f-a395-33aadcb98a3e" d="M183.94,162.56l.48-.79a4,4,0,0,0,2.55.82c1.41,0,2.18-.49,2.18-1.32,0-1.67-4.17-.52-4.17-3,0-1.4,1.26-2.3,3.19-2.3a4.47,4.47,0,0,1,2.49.69l-.41.79a3.75,3.75,0,0,0-2.16-.63c-1.36,0-2.13.55-2.13,1.35,0,1.71,4.17.54,4.17,3,0,1.45-1.3,2.29-3.26,2.29A4.67,4.67,0,0,1,183.94,162.56Z"/><path class="af8f5c32-6024-474f-a395-33aadcb98a3e" d="M197.27,160.33a4.18,4.18,0,0,1,4.29-4.37,3.08,3.08,0,0,1,2.9,1.47l-.84.49a2.28,2.28,0,0,0-2.15-1.09,3.24,3.24,0,0,0-3.21,3.46,2.16,2.16,0,0,0,2.46,2.28,2.85,2.85,0,0,0,2.32-1.06l.72.54a3.82,3.82,0,0,1-3.09,1.4C198.57,163.45,197.27,162.22,197.27,160.33Z"/><path class="af8f5c32-6024-474f-a395-33aadcb98a3e" d="M206.08,160.33a4.17,4.17,0,0,1,4.25-4.37,3,3,0,0,1,3.35,3.11,4.18,4.18,0,0,1-4.26,4.38A3,3,0,0,1,206.08,160.33Zm6.61-1.2a2.16,2.16,0,0,0-2.43-2.3,3.24,3.24,0,0,0-3.19,3.46,2.14,2.14,0,0,0,2.42,2.28A3.22,3.22,0,0,0,212.69,159.13Z"/><path class="af8f5c32-6024-474f-a395-33aadcb98a3e" d="M223.66,158.35a4.27,4.27,0,0,1-.08.85l-.84,4.18h-1l.84-4.2a4.13,4.13,0,0,0,.07-.67c0-1-.63-1.65-1.91-1.65a2.87,2.87,0,0,0-3,2.57l-.78,3.95h-1l1.46-7.36h.95l-.23,1.17A3.62,3.62,0,0,1,221,156C222.7,156,223.66,156.86,223.66,158.35Z"/><path class="af8f5c32-6024-474f-a395-33aadcb98a3e" d="M235.33,153l-2.08,10.39h-.95l.24-1.16a3.77,3.77,0,0,1-2.87,1.23,3,3,0,0,1-3.21-3.12,4.14,4.14,0,0,1,4.16-4.37,2.77,2.77,0,0,1,2.8,1.6l.91-4.57Zm-2.26,6.14a2.15,2.15,0,0,0-2.42-2.3,3.24,3.24,0,0,0-3.2,3.46,2.15,2.15,0,0,0,2.43,2.28A3.22,3.22,0,0,0,233.07,159.13Z"/><path class="af8f5c32-6024-474f-a395-33aadcb98a3e" d="M245.18,156l-1.47,7.36h-1l.24-1.17a3.58,3.58,0,0,1-2.85,1.24,2.31,2.31,0,0,1-2.62-2.41,4,4,0,0,1,.09-.82l.84-4.2h1l-.84,4.2a4,4,0,0,0-.07.66c0,1.06.62,1.68,1.88,1.68a2.88,2.88,0,0,0,3-2.58l.79-4Z"/><path class="af8f5c32-6024-474f-a395-33aadcb98a3e" d="M247.47,160.33a4.18,4.18,0,0,1,4.29-4.37,3.08,3.08,0,0,1,2.9,1.47l-.84.49a2.27,2.27,0,0,0-2.14-1.09,3.24,3.24,0,0,0-3.21,3.46,2.15,2.15,0,0,0,2.45,2.28,2.87,2.87,0,0,0,2.33-1.06l.71.54a3.8,3.8,0,0,1-3.08,1.4C248.78,163.45,247.47,162.22,247.47,160.33Z"/><path class="af8f5c32-6024-474f-a395-33aadcb98a3e" d="M258.16,161.16a2.64,2.64,0,0,0-.06.46c0,.63.35,1,1.06,1a1.9,1.9,0,0,0,1.14-.38l.24.76a2.73,2.73,0,0,1-1.64.47,1.6,1.6,0,0,1-1.79-1.68,2.81,2.81,0,0,1,.05-.57l.86-4.34h-1.31l.16-.84h1.31l.33-1.62h1l-.32,1.62h2.24l-.17.84H259Z"/><path class="af8f5c32-6024-474f-a395-33aadcb98a3e" d="M264.75,156h1l-1.45,7.36h-1Zm.25-2.27a.75.75,0,0,1,.77-.76.66.66,0,0,1,.69.63.76.76,0,0,1-.79.78A.65.65,0,0,1,265,153.75Z"/><path class="af8f5c32-6024-474f-a395-33aadcb98a3e" d="M275.8,158.35a4.32,4.32,0,0,1-.09.85l-.84,4.18h-1l.84-4.2a4.13,4.13,0,0,0,.07-.67c0-1-.63-1.65-1.9-1.65a2.87,2.87,0,0,0-3,2.57l-.79,3.95h-1l1.46-7.36h.95l-.24,1.17a3.63,3.63,0,0,1,2.89-1.23A2.31,2.31,0,0,1,275.8,158.35Z"/><path class="af8f5c32-6024-474f-a395-33aadcb98a3e" d="M287,156l-1.29,6.47c-.52,2.6-1.89,3.68-4.29,3.68a4.68,4.68,0,0,1-3.28-1.11l.59-.75a3.88,3.88,0,0,0,2.76,1,2.89,2.89,0,0,0,3.2-2.63l.16-.82a3.79,3.79,0,0,1-2.94,1.26c-1.94,0-3.25-1.13-3.25-3a4.07,4.07,0,0,1,4.21-4.17,2.83,2.83,0,0,1,2.87,1.68L286,156ZM285.28,159c0-1.34-.91-2.14-2.44-2.14a3.13,3.13,0,0,0-3.21,3.25c0,1.34.9,2.14,2.44,2.14A3.13,3.13,0,0,0,285.28,159Z"/><path class="af8f5c32-6024-474f-a395-33aadcb98a3e" d="M294,160.33a4.18,4.18,0,0,1,4.26-4.37,3,3,0,0,1,3.34,3.11,4.18,4.18,0,0,1-4.26,4.38A3,3,0,0,1,294,160.33Zm6.61-1.2a2.15,2.15,0,0,0-2.42-2.3,3.24,3.24,0,0,0-3.2,3.46,2.14,2.14,0,0,0,2.42,2.28A3.22,3.22,0,0,0,300.58,159.13Z"/><path class="af8f5c32-6024-474f-a395-33aadcb98a3e" d="M311.55,158.35a4.27,4.27,0,0,1-.08.85l-.84,4.18h-1l.84-4.2a4.13,4.13,0,0,0,.07-.67c0-1-.63-1.65-1.91-1.65a2.87,2.87,0,0,0-3,2.57l-.78,3.95h-1l1.46-7.36h.95l-.23,1.17a3.62,3.62,0,0,1,2.88-1.23C310.59,156,311.55,156.86,311.55,158.35Z"/><path class="af8f5c32-6024-474f-a395-33aadcb98a3e" d="M316.47,153h1l-2.07,10.39h-1Z"/><path class="af8f5c32-6024-474f-a395-33aadcb98a3e" d="M320.66,156h1l-1.46,7.36h-1Zm.26-2.27a.75.75,0,0,1,.77-.76.65.65,0,0,1,.68.63.76.76,0,0,1-.78.78A.65.65,0,0,1,320.92,153.75Z"/><path class="af8f5c32-6024-474f-a395-33aadcb98a3e" d="M331.71,158.35a4.27,4.27,0,0,1-.08.85l-.84,4.18h-1l.84-4.2a4.13,4.13,0,0,0,.07-.67c0-1-.63-1.65-1.91-1.65a2.87,2.87,0,0,0-3,2.57l-.78,3.95h-1l1.46-7.36h.95l-.23,1.17a3.62,3.62,0,0,1,2.88-1.23C330.75,156,331.71,156.86,331.71,158.35Z"/><path class="af8f5c32-6024-474f-a395-33aadcb98a3e" d="M335.5,160c0,.1,0,.2,0,.29,0,1.47.84,2.3,2.54,2.3a3.35,3.35,0,0,0,2.41-.92l.44.71a4.19,4.19,0,0,1-2.94,1.09c-2.13,0-3.43-1.2-3.43-3.13a4.1,4.1,0,0,1,4.08-4.36,2.93,2.93,0,0,1,3.2,3.12,5.18,5.18,0,0,1-.09.9Zm.1-.74h5.26a2.53,2.53,0,0,0,0-.27,2.08,2.08,0,0,0-2.31-2.17A3,3,0,0,0,335.6,159.24Z"/><path class="af8f5c32-6024-474f-a395-33aadcb98a3e" d="M348.73,160.33A4.18,4.18,0,0,1,353,156a3.08,3.08,0,0,1,2.9,1.47l-.84.49a2.27,2.27,0,0,0-2.14-1.09,3.24,3.24,0,0,0-3.21,3.46,2.15,2.15,0,0,0,2.45,2.28,2.84,2.84,0,0,0,2.32-1.06l.72.54a3.8,3.8,0,0,1-3.08,1.4C350,163.45,348.73,162.22,348.73,160.33Z"/><path class="af8f5c32-6024-474f-a395-33aadcb98a3e" d="M359.7,153h1l-2.07,10.39h-1Z"/><path class="af8f5c32-6024-474f-a395-33aadcb98a3e" d="M370.63,156l-1.47,7.36h-1l.24-1.16a3.77,3.77,0,0,1-2.87,1.23,3,3,0,0,1-3.21-3.12,4.14,4.14,0,0,1,4.16-4.37,2.76,2.76,0,0,1,2.8,1.6l.31-1.54ZM369,159.13a2.15,2.15,0,0,0-2.42-2.3,3.24,3.24,0,0,0-3.2,3.46,2.15,2.15,0,0,0,2.43,2.28A3.22,3.22,0,0,0,369,159.13Z"/><path class="af8f5c32-6024-474f-a395-33aadcb98a3e" d="M372.2,162.56l.47-.79a4,4,0,0,0,2.55.82c1.42,0,2.19-.49,2.19-1.32,0-1.67-4.18-.52-4.18-3,0-1.4,1.26-2.3,3.2-2.3a4.47,4.47,0,0,1,2.49.69l-.42.79a3.71,3.71,0,0,0-2.16-.63c-1.36,0-2.13.55-2.13,1.35,0,1.71,4.18.54,4.18,3,0,1.45-1.3,2.29-3.27,2.29A4.64,4.64,0,0,1,372.2,162.56Z"/><path class="af8f5c32-6024-474f-a395-33aadcb98a3e" d="M380.09,162.56l.48-.79a4,4,0,0,0,2.55.82c1.41,0,2.18-.49,2.18-1.32,0-1.67-4.17-.52-4.17-3,0-1.4,1.26-2.3,3.19-2.3a4.5,4.5,0,0,1,2.5.69l-.42.79a3.73,3.73,0,0,0-2.16-.63c-1.36,0-2.13.55-2.13,1.35,0,1.71,4.17.54,4.17,3,0,1.45-1.3,2.29-3.26,2.29A4.69,4.69,0,0,1,380.09,162.56Z"/><path class="af8f5c32-6024-474f-a395-33aadcb98a3e" d="M389.7,160a1.46,1.46,0,0,0,0,.29c0,1.47.84,2.3,2.54,2.3a3.35,3.35,0,0,0,2.41-.92l.45.71a4.22,4.22,0,0,1-2.94,1.09c-2.13,0-3.44-1.2-3.44-3.13a4.11,4.11,0,0,1,4.08-4.36,2.93,2.93,0,0,1,3.21,3.12,4.35,4.35,0,0,1-.1.9Zm.1-.74h5.25a2.53,2.53,0,0,0,0-.27,2.08,2.08,0,0,0-2.31-2.17A3,3,0,0,0,389.8,159.24Z"/><path class="af8f5c32-6024-474f-a395-33aadcb98a3e" d="M397.5,162.56l.47-.79a4,4,0,0,0,2.55.82c1.41,0,2.19-.49,2.19-1.32,0-1.67-4.18-.52-4.18-3,0-1.4,1.26-2.3,3.2-2.3a4.49,4.49,0,0,1,2.49.69l-.42.79a3.73,3.73,0,0,0-2.16-.63c-1.36,0-2.13.55-2.13,1.35,0,1.71,4.18.54,4.18,3,0,1.45-1.31,2.29-3.27,2.29A4.64,4.64,0,0,1,397.5,162.56Z"/><path class="af8f5c32-6024-474f-a395-33aadcb98a3e" d="M411.82,160a1.46,1.46,0,0,0,0,.29c0,1.47.84,2.3,2.54,2.3a3.35,3.35,0,0,0,2.41-.92l.45.71a4.23,4.23,0,0,1-2.95,1.09c-2.12,0-3.43-1.2-3.43-3.13A4.11,4.11,0,0,1,414.9,156a2.93,2.93,0,0,1,3.21,3.12,4.35,4.35,0,0,1-.1.9Zm.1-.74h5.25a2.53,2.53,0,0,0,0-.27,2.08,2.08,0,0,0-2.31-2.17A3,3,0,0,0,411.92,159.24Z"/><path class="af8f5c32-6024-474f-a395-33aadcb98a3e" d="M423.17,155.2,423,156h2.26l-.17.84h-2.23l-1.3,6.52h-1l1.3-6.52h-1.32l.16-.84H422l.18-.93a2.41,2.41,0,0,1,2.52-2.17,2.26,2.26,0,0,1,1.49.48l-.44.72a1.57,1.57,0,0,0-1.05-.36C423.87,153.76,423.38,154.21,423.17,155.2Z"/><path class="af8f5c32-6024-474f-a395-33aadcb98a3e" d="M429,155.2l-.17.82h2.26l-.17.84h-2.23l-1.3,6.52h-1l1.3-6.52h-1.31l.15-.84h1.33l.19-.93a2.41,2.41,0,0,1,2.52-2.17,2.21,2.21,0,0,1,1.48.48l-.43.72a1.59,1.59,0,0,0-1-.36C429.67,153.76,429.18,154.21,429,155.2Z"/><path class="af8f5c32-6024-474f-a395-33aadcb98a3e" d="M432.79,160c0,.1,0,.2,0,.29,0,1.47.84,2.3,2.53,2.3a3.35,3.35,0,0,0,2.41-.92l.45.71a4.22,4.22,0,0,1-2.94,1.09c-2.13,0-3.44-1.2-3.44-3.13a4.11,4.11,0,0,1,4.08-4.36,2.93,2.93,0,0,1,3.21,3.12,4.35,4.35,0,0,1-.1.9Zm.1-.74h5.25a2.53,2.53,0,0,0,0-.27,2.07,2.07,0,0,0-2.31-2.17A3,3,0,0,0,432.89,159.24Z"/><path class="af8f5c32-6024-474f-a395-33aadcb98a3e" d="M441.3,160.33a4.18,4.18,0,0,1,4.29-4.37,3.08,3.08,0,0,1,2.9,1.47l-.84.49a2.28,2.28,0,0,0-2.15-1.09,3.24,3.24,0,0,0-3.21,3.46,2.16,2.16,0,0,0,2.46,2.28,2.85,2.85,0,0,0,2.32-1.06l.72.54a3.8,3.8,0,0,1-3.09,1.4C442.6,163.45,441.3,162.22,441.3,160.33Z"/><path class="af8f5c32-6024-474f-a395-33aadcb98a3e" d="M450.6,159.15h3.67l-.17.87h-3.67Z"/><path class="af8f5c32-6024-474f-a395-33aadcb98a3e" d="M141.71,178a2.64,2.64,0,0,0-.06.46c0,.63.35,1,1.06,1a1.9,1.9,0,0,0,1.14-.38l.24.76a2.75,2.75,0,0,1-1.64.47,1.61,1.61,0,0,1-1.8-1.68,2.83,2.83,0,0,1,.06-.57l.86-4.34h-1.31l.16-.84h1.31l.33-1.62h1l-.32,1.62H145l-.17.84h-2.24Z"/><path class="af8f5c32-6024-474f-a395-33aadcb98a3e" d="M148.3,172.82h1l-1.45,7.36h-1Zm.25-2.27a.75.75,0,0,1,.77-.76.66.66,0,0,1,.69.63.76.76,0,0,1-.79.78A.65.65,0,0,1,148.55,170.55Z"/><path class="af8f5c32-6024-474f-a395-33aadcb98a3e" d="M159.32,172.82l-4.73,7.36h-1l-1.82-7.36h1l1.52,6.28,4-6.28Z"/><path class="af8f5c32-6024-474f-a395-33aadcb98a3e" d="M161,176.78c0,.1,0,.2,0,.29,0,1.47.84,2.3,2.53,2.3a3.35,3.35,0,0,0,2.41-.92l.45.71a4.21,4.21,0,0,1-2.94,1.09c-2.13,0-3.43-1.2-3.43-3.13a4.1,4.1,0,0,1,4.07-4.36,2.93,2.93,0,0,1,3.21,3.12,4.35,4.35,0,0,1-.1.9Zm.1-.74h5.25a1.27,1.27,0,0,0,0-.27,2.08,2.08,0,0,0-2.32-2.17A3,3,0,0,0,161.11,176Z"/><path class="af8f5c32-6024-474f-a395-33aadcb98a3e" d="M171.66,169.79h1l-2.07,10.39h-1Z"/><path class="af8f5c32-6024-474f-a395-33aadcb98a3e" d="M182.07,172.82l-5.38,8.32c-.91,1.4-1.6,1.83-2.66,1.83a2.38,2.38,0,0,1-1.75-.66l.53-.73a1.7,1.7,0,0,0,1.3.54c.63,0,1.12-.3,1.7-1.19l.52-.79-1.84-7.32h1l1.53,6.27,4-6.27Z"/><path class="af8f5c32-6024-474f-a395-33aadcb98a3e" d="M189.36,178a2.64,2.64,0,0,0-.06.46c0,.63.35,1,1.07,1a1.85,1.85,0,0,0,1.13-.38l.24.76a2.73,2.73,0,0,1-1.64.47,1.61,1.61,0,0,1-1.79-1.68,2.26,2.26,0,0,1,.06-.57l.85-4.34h-1.3l.15-.84h1.32l.32-1.62h1l-.33,1.62h2.24l-.16.84h-2.25Z"/><path class="af8f5c32-6024-474f-a395-33aadcb98a3e" d="M194.16,177.13a4.18,4.18,0,0,1,4.26-4.37,3,3,0,0,1,3.35,3.11,4.18,4.18,0,0,1-4.26,4.38A3,3,0,0,1,194.16,177.13Zm6.61-1.2a2.15,2.15,0,0,0-2.42-2.3,3.23,3.23,0,0,0-3.19,3.46,2.14,2.14,0,0,0,2.42,2.28A3.22,3.22,0,0,0,200.77,175.93Z"/><path class="af8f5c32-6024-474f-a395-33aadcb98a3e" d="M209.7,176.78c0,.1,0,.2,0,.29,0,1.47.84,2.3,2.53,2.3a3.34,3.34,0,0,0,2.41-.92l.45.71a4.21,4.21,0,0,1-2.94,1.09c-2.13,0-3.43-1.2-3.43-3.13a4.1,4.1,0,0,1,4.07-4.36,2.93,2.93,0,0,1,3.21,3.12,4.35,4.35,0,0,1-.1.9Zm.1-.74h5.25a1.27,1.27,0,0,0,0-.27,2.08,2.08,0,0,0-2.31-2.17A3,3,0,0,0,209.8,176Z"/><path class="af8f5c32-6024-474f-a395-33aadcb98a3e" d="M226,175.15a4.11,4.11,0,0,1-.08.84l-.84,4.19h-1l.85-4.2a4.13,4.13,0,0,0,.07-.67c0-1.05-.64-1.65-1.91-1.65a2.87,2.87,0,0,0-3,2.57l-.78,4h-1l1.46-7.36h.95l-.23,1.17a3.62,3.62,0,0,1,2.88-1.23C225,172.76,226,173.66,226,175.15Z"/><path class="af8f5c32-6024-474f-a395-33aadcb98a3e" d="M228,179.36l.47-.79a4,4,0,0,0,2.55.82c1.42,0,2.19-.5,2.19-1.32,0-1.67-4.18-.52-4.18-3,0-1.4,1.26-2.3,3.2-2.3a4.47,4.47,0,0,1,2.49.69l-.42.79a3.71,3.71,0,0,0-2.16-.63c-1.36,0-2.13.55-2.13,1.35,0,1.71,4.18.54,4.18,3,0,1.45-1.3,2.29-3.27,2.29A4.64,4.64,0,0,1,228,179.36Z"/><path class="af8f5c32-6024-474f-a395-33aadcb98a3e" d="M244.82,172.82l-1.47,7.36h-1l.24-1.17a3.56,3.56,0,0,1-2.84,1.24,2.31,2.31,0,0,1-2.62-2.41,4.83,4.83,0,0,1,.08-.82l.84-4.2h1l-.84,4.2a4,4,0,0,0-.07.66c0,1.06.61,1.68,1.87,1.68a2.88,2.88,0,0,0,3-2.58l.78-4Z"/><path class="af8f5c32-6024-474f-a395-33aadcb98a3e" d="M252.36,172.76l-.18,1-.28,0c-1.57,0-2.62.9-3,2.73l-.75,3.74h-1l1.46-7.36h1l-.25,1.34A3.3,3.3,0,0,1,252.36,172.76Z"/><path class="af8f5c32-6024-474f-a395-33aadcb98a3e" d="M254.59,176.78a1.46,1.46,0,0,0,0,.29c0,1.47.84,2.3,2.54,2.3a3.35,3.35,0,0,0,2.41-.92l.44.71a4.19,4.19,0,0,1-2.94,1.09c-2.13,0-3.43-1.2-3.43-3.13a4.1,4.1,0,0,1,4.08-4.36,2.93,2.93,0,0,1,3.2,3.12,5.18,5.18,0,0,1-.09.9Zm.09-.74h5.26a2.53,2.53,0,0,0,0-.27,2.08,2.08,0,0,0-2.31-2.17A3,3,0,0,0,254.68,176Z"/><path class="af8f5c32-6024-474f-a395-33aadcb98a3e" d="M267.81,177.13a4.18,4.18,0,0,1,4.26-4.37,3,3,0,0,1,3.35,3.11,4.18,4.18,0,0,1-4.26,4.38A3,3,0,0,1,267.81,177.13Zm6.62-1.2a2.16,2.16,0,0,0-2.43-2.3,3.23,3.23,0,0,0-3.19,3.46,2.14,2.14,0,0,0,2.42,2.28A3.22,3.22,0,0,0,274.43,175.93Z"/><path class="af8f5c32-6024-474f-a395-33aadcb98a3e" d="M285.82,172.82l-1.47,7.36h-1l.24-1.17a3.58,3.58,0,0,1-2.85,1.24,2.31,2.31,0,0,1-2.62-2.41,4,4,0,0,1,.09-.82l.84-4.2h1l-.84,4.2a4,4,0,0,0-.07.66c0,1.06.62,1.68,1.88,1.68a2.87,2.87,0,0,0,3-2.58l.79-4Z"/><path class="af8f5c32-6024-474f-a395-33aadcb98a3e" d="M293.37,172.76l-.18,1-.28,0c-1.57,0-2.62.9-3,2.73l-.74,3.74h-1l1.46-7.36h.95l-.25,1.34A3.33,3.33,0,0,1,293.37,172.76Z"/><path class="af8f5c32-6024-474f-a395-33aadcb98a3e" d="M303.83,175.86l2.64,4.32h-1.16L303,176.46,301,178.05l-.42,2.13h-1l2.07-10.39h1l-1.4,7,5.07-4h1.42Z"/><path class="af8f5c32-6024-474f-a395-33aadcb98a3e" d="M310.22,172.82h1l-1.46,7.36h-1Zm.25-2.27a.76.76,0,0,1,.77-.76.66.66,0,0,1,.69.63.76.76,0,0,1-.78.78A.66.66,0,0,1,310.47,170.55Z"/><path class="af8f5c32-6024-474f-a395-33aadcb98a3e" d="M322.38,169.79l-2.08,10.39h-.95l.24-1.16a3.77,3.77,0,0,1-2.87,1.23,3,3,0,0,1-3.21-3.12,4.15,4.15,0,0,1,4.16-4.37,2.77,2.77,0,0,1,2.8,1.6l.91-4.57Zm-2.26,6.14a2.15,2.15,0,0,0-2.42-2.3,3.23,3.23,0,0,0-3.2,3.46,2.15,2.15,0,0,0,2.43,2.28A3.22,3.22,0,0,0,320.12,175.93Z"/><path class="af8f5c32-6024-474f-a395-33aadcb98a3e" d="M323.34,179.36l.47-.79a4,4,0,0,0,2.55.82c1.42,0,2.19-.5,2.19-1.32,0-1.67-4.18-.52-4.18-3,0-1.4,1.26-2.3,3.2-2.3a4.47,4.47,0,0,1,2.49.69l-.42.79a3.71,3.71,0,0,0-2.16-.63c-1.36,0-2.13.55-2.13,1.35,0,1.71,4.18.54,4.18,3,0,1.45-1.3,2.29-3.26,2.29A4.65,4.65,0,0,1,323.34,179.36Z"/><path class="af8f5c32-6024-474f-a395-33aadcb98a3e" d="M349.08,172.82l-4.16,7.36h-1l-1.23-6-3.45,6h-.95l-1.44-7.36h.91l1.19,6.24,3.56-6.24h.84l1.23,6.24,3.5-6.24Z"/><path class="af8f5c32-6024-474f-a395-33aadcb98a3e" d="M349.81,177.13a4.18,4.18,0,0,1,4.26-4.37,3,3,0,0,1,3.35,3.11,4.18,4.18,0,0,1-4.26,4.38A3,3,0,0,1,349.81,177.13Zm6.61-1.2a2.15,2.15,0,0,0-2.42-2.3,3.23,3.23,0,0,0-3.19,3.46,2.14,2.14,0,0,0,2.42,2.28A3.21,3.21,0,0,0,356.42,175.93Z"/><path class="af8f5c32-6024-474f-a395-33aadcb98a3e" d="M367.4,175.15a5,5,0,0,1-.08.84l-.84,4.19h-1l.84-4.2a4.13,4.13,0,0,0,.07-.67c0-1.05-.63-1.65-1.9-1.65a2.87,2.87,0,0,0-3,2.57l-.79,4h-1l1.46-7.36h.95l-.24,1.17a3.64,3.64,0,0,1,2.89-1.23A2.31,2.31,0,0,1,367.4,175.15Z"/><path class="af8f5c32-6024-474f-a395-33aadcb98a3e" d="M371.78,170.38h.88l-.8,3.7h-.74Z"/><path class="af8f5c32-6024-474f-a395-33aadcb98a3e" d="M375.71,178a2.58,2.58,0,0,0,0,.46c0,.63.35,1,1.06,1a1.9,1.9,0,0,0,1.14-.38l.23.76a2.7,2.7,0,0,1-1.63.47,1.61,1.61,0,0,1-1.8-1.68,2.83,2.83,0,0,1,.06-.57l.85-4.34h-1.3l.15-.84h1.32l.32-1.62h1l-.32,1.62H379l-.17.84h-2.24Z"/><path class="af8f5c32-6024-474f-a395-33aadcb98a3e" d="M387.64,169.79h1l-2.08,10.39h-1Z"/><path class="af8f5c32-6024-474f-a395-33aadcb98a3e" d="M390.31,177.13a4.18,4.18,0,0,1,4.26-4.37,3,3,0,0,1,3.35,3.11,4.18,4.18,0,0,1-4.26,4.38A3,3,0,0,1,390.31,177.13Zm6.61-1.2a2.15,2.15,0,0,0-2.42-2.3,3.23,3.23,0,0,0-3.19,3.46,2.14,2.14,0,0,0,2.42,2.28A3.21,3.21,0,0,0,396.92,175.93Z"/><path class="af8f5c32-6024-474f-a395-33aadcb98a3e" d="M399.43,179.36l.47-.79a4,4,0,0,0,2.55.82c1.42,0,2.19-.5,2.19-1.32,0-1.67-4.18-.52-4.18-3,0-1.4,1.26-2.3,3.2-2.3a4.47,4.47,0,0,1,2.49.69l-.42.79a3.71,3.71,0,0,0-2.16-.63c-1.36,0-2.13.55-2.13,1.35,0,1.71,4.18.54,4.18,3,0,1.45-1.3,2.29-3.27,2.29A4.64,4.64,0,0,1,399.43,179.36Z"/><path class="af8f5c32-6024-474f-a395-33aadcb98a3e" d="M409,176.78c0,.1,0,.2,0,.29,0,1.47.84,2.3,2.53,2.3a3.34,3.34,0,0,0,2.41-.92l.45.71a4.21,4.21,0,0,1-2.94,1.09c-2.13,0-3.43-1.2-3.43-3.13a4.1,4.1,0,0,1,4.07-4.36,2.93,2.93,0,0,1,3.21,3.12,4.35,4.35,0,0,1-.1.9Zm.1-.74h5.25a1.27,1.27,0,0,0,0-.27,2.08,2.08,0,0,0-2.31-2.17A3,3,0,0,0,409.13,176Z"/><path class="af8f5c32-6024-474f-a395-33aadcb98a3e" d="M423.93,178a2.64,2.64,0,0,0-.06.46c0,.63.35,1,1.07,1a1.88,1.88,0,0,0,1.13-.38l.24.76a2.73,2.73,0,0,1-1.64.47,1.6,1.6,0,0,1-1.79-1.68,2.81,2.81,0,0,1,.05-.57l.86-4.34h-1.3l.15-.84H424l.32-1.62h1l-.32,1.62h2.24l-.17.84h-2.24Z"/><path class="af8f5c32-6024-474f-a395-33aadcb98a3e" d="M436.75,175.15a4.11,4.11,0,0,1-.08.84l-.84,4.19h-1l.84-4.2a4.13,4.13,0,0,0,.07-.67c0-1.05-.63-1.65-1.91-1.65a2.87,2.87,0,0,0-3,2.57l-.78,4h-1l2.07-10.39h1l-.82,4.13a3.58,3.58,0,0,1,2.81-1.16C435.79,172.76,436.75,173.66,436.75,175.15Z"/><path class="af8f5c32-6024-474f-a395-33aadcb98a3e" d="M440.55,176.78a1.46,1.46,0,0,0,0,.29c0,1.47.84,2.3,2.54,2.3a3.35,3.35,0,0,0,2.41-.92l.44.71a4.19,4.19,0,0,1-2.94,1.09c-2.13,0-3.43-1.2-3.43-3.13a4.1,4.1,0,0,1,4.08-4.36,2.93,2.93,0,0,1,3.2,3.12,5.18,5.18,0,0,1-.09.9Zm.09-.74h5.26a2.53,2.53,0,0,0,0-.27,2.08,2.08,0,0,0-2.31-2.17A3,3,0,0,0,440.64,176Z"/><path class="af8f5c32-6024-474f-a395-33aadcb98a3e" d="M450.58,172.82h1l-1.46,7.36h-1Zm.26-2.27a.75.75,0,0,1,.77-.76.65.65,0,0,1,.68.63.76.76,0,0,1-.78.78A.65.65,0,0,1,450.84,170.55Z"/><path class="af8f5c32-6024-474f-a395-33aadcb98a3e" d="M459.13,172.76l-.19,1-.28,0c-1.57,0-2.62.9-3,2.73l-.74,3.74h-1l1.46-7.36h1l-.25,1.34A3.32,3.32,0,0,1,459.13,172.76Z"/><path class="af8f5c32-6024-474f-a395-33aadcb98a3e" d="M140.5,196.16l.48-.79a4,4,0,0,0,2.55.82c1.41,0,2.18-.49,2.18-1.32,0-1.67-4.17-.52-4.17-3,0-1.4,1.26-2.3,3.19-2.3a4.47,4.47,0,0,1,2.49.69l-.42.79a3.7,3.7,0,0,0-2.15-.63c-1.36,0-2.13.55-2.13,1.35,0,1.71,4.17.55,4.17,3,0,1.45-1.3,2.29-3.26,2.29A4.65,4.65,0,0,1,140.5,196.16Z"/><path class="af8f5c32-6024-474f-a395-33aadcb98a3e" d="M157.29,189.62,155.82,197h-.95l.24-1.17a3.58,3.58,0,0,1-2.85,1.24,2.31,2.31,0,0,1-2.62-2.41,4,4,0,0,1,.09-.82l.84-4.2h1l-.84,4.2a4,4,0,0,0-.07.66c0,1.06.62,1.68,1.88,1.68a2.88,2.88,0,0,0,3-2.58l.79-4Z"/><path class="af8f5c32-6024-474f-a395-33aadcb98a3e" d="M167.92,192.67a4.15,4.15,0,0,1-4.18,4.38,2.72,2.72,0,0,1-2.81-1.68L160.6,197h-.95l2.08-10.39h1l-.83,4.13a3.75,3.75,0,0,1,2.81-1.16A3,3,0,0,1,167.92,192.67Zm-1,.06a2.15,2.15,0,0,0-2.42-2.3,3.21,3.21,0,0,0-3.18,3.46,2.14,2.14,0,0,0,2.42,2.28A3.21,3.21,0,0,0,166.91,192.73Z"/><path class="af8f5c32-6024-474f-a395-33aadcb98a3e" d="M167.1,199.31l.46-.77a1.64,1.64,0,0,0,1.11.38c.8,0,1.27-.42,1.47-1.4l1.58-7.9h1l-1.59,7.92a2.36,2.36,0,0,1-2.48,2.23A2.51,2.51,0,0,1,167.1,199.31Zm4.86-12a.75.75,0,0,1,.77-.76.66.66,0,0,1,.69.63.76.76,0,0,1-.79.78A.65.65,0,0,1,172,187.35Z"/><path class="af8f5c32-6024-474f-a395-33aadcb98a3e" d="M176,193.58c0,.1,0,.2,0,.29,0,1.48.84,2.3,2.54,2.3a3.35,3.35,0,0,0,2.41-.92l.44.71a4.19,4.19,0,0,1-2.94,1.09c-2.13,0-3.43-1.2-3.43-3.13a4.1,4.1,0,0,1,4.08-4.36,2.93,2.93,0,0,1,3.2,3.12,5.18,5.18,0,0,1-.09.9Zm.1-.74h5.26a2.53,2.53,0,0,0,0-.27,2.08,2.08,0,0,0-2.31-2.17A3,3,0,0,0,176.1,192.84Z"/><path class="af8f5c32-6024-474f-a395-33aadcb98a3e" d="M184.52,193.93a4.17,4.17,0,0,1,4.28-4.37,3.06,3.06,0,0,1,2.9,1.47l-.84.49a2.26,2.26,0,0,0-2.14-1.09,3.24,3.24,0,0,0-3.21,3.46,2.15,2.15,0,0,0,2.45,2.28,2.87,2.87,0,0,0,2.33-1.06l.71.54a3.8,3.8,0,0,1-3.08,1.4C185.82,197.05,184.52,195.82,184.52,193.93Z"/><path class="af8f5c32-6024-474f-a395-33aadcb98a3e" d="M195.2,194.76a2.64,2.64,0,0,0-.06.46c0,.63.35,1,1.07,1a1.88,1.88,0,0,0,1.13-.38l.24.76a2.73,2.73,0,0,1-1.64.47,1.6,1.6,0,0,1-1.79-1.68,2.81,2.81,0,0,1,0-.57l.86-4.34h-1.3l.15-.84h1.32l.32-1.62h1l-.32,1.62h2.24l-.17.84h-2.24Z"/><path class="af8f5c32-6024-474f-a395-33aadcb98a3e" d="M199.55,196.16l.48-.79a4,4,0,0,0,2.55.82c1.41,0,2.18-.49,2.18-1.32,0-1.67-4.17-.52-4.17-3,0-1.4,1.26-2.3,3.19-2.3a4.47,4.47,0,0,1,2.49.69l-.42.79a3.7,3.7,0,0,0-2.15-.63c-1.36,0-2.13.55-2.13,1.35,0,1.71,4.17.55,4.17,3,0,1.45-1.3,2.29-3.26,2.29A4.67,4.67,0,0,1,199.55,196.16Z"/><path class="af8f5c32-6024-474f-a395-33aadcb98a3e" d="M221.14,189.62,219.67,197h-.95l.24-1.16a3.77,3.77,0,0,1-2.87,1.23,3,3,0,0,1-3.21-3.12,4.14,4.14,0,0,1,4.16-4.37,2.76,2.76,0,0,1,2.8,1.6l.31-1.54Zm-1.65,3.11a2.15,2.15,0,0,0-2.42-2.3,3.24,3.24,0,0,0-3.2,3.46,2.15,2.15,0,0,0,2.43,2.28A3.22,3.22,0,0,0,219.49,192.73Z"/><path class="af8f5c32-6024-474f-a395-33aadcb98a3e" d="M225.09,194.76a2.64,2.64,0,0,0-.06.46c0,.63.35,1,1.07,1a1.88,1.88,0,0,0,1.13-.38l.24.76a2.73,2.73,0,0,1-1.64.47,1.6,1.6,0,0,1-1.79-1.68,2.81,2.81,0,0,1,.05-.57l.86-4.34h-1.3l.15-.84h1.32l.32-1.62h1l-.32,1.62h2.24l-.17.84h-2.24Z"/><path class="af8f5c32-6024-474f-a395-33aadcb98a3e" d="M243.14,189.62,241.67,197h-1l.24-1.16a3.77,3.77,0,0,1-2.87,1.23,3,3,0,0,1-3.21-3.12,4.15,4.15,0,0,1,4.16-4.37,2.76,2.76,0,0,1,2.8,1.6l.31-1.54Zm-1.66,3.11a2.15,2.15,0,0,0-2.42-2.3,3.24,3.24,0,0,0-3.19,3.46,2.14,2.14,0,0,0,2.42,2.28A3.21,3.21,0,0,0,241.48,192.73Z"/><path class="af8f5c32-6024-474f-a395-33aadcb98a3e" d="M253.18,192a4.32,4.32,0,0,1-.09.85l-.84,4.18h-1l.84-4.2a4.13,4.13,0,0,0,.07-.67c0-1.05-.63-1.65-1.91-1.65a2.87,2.87,0,0,0-3,2.57l-.78,3.95h-1l1.45-7.36h.95l-.23,1.17a3.62,3.62,0,0,1,2.88-1.23C252.21,189.56,253.18,190.46,253.18,192Z"/><path class="af8f5c32-6024-474f-a395-33aadcb98a3e" d="M263.54,189.62l-5.38,8.32c-.91,1.4-1.6,1.83-2.67,1.83a2.41,2.41,0,0,1-1.75-.66l.54-.73a1.7,1.7,0,0,0,1.3.54c.63,0,1.12-.3,1.69-1.19l.52-.79L256,189.62h1l1.52,6.27,4-6.27Z"/><path class="af8f5c32-6024-474f-a395-33aadcb98a3e" d="M269.16,193.93a4.18,4.18,0,0,1,4.29-4.37,3.06,3.06,0,0,1,2.89,1.47l-.84.49a2.26,2.26,0,0,0-2.14-1.09,3.24,3.24,0,0,0-3.21,3.46,2.16,2.16,0,0,0,2.45,2.28,2.86,2.86,0,0,0,2.33-1.06l.71.54a3.78,3.78,0,0,1-3.08,1.4C270.46,197.05,269.16,195.82,269.16,193.93Z"/><path class="af8f5c32-6024-474f-a395-33aadcb98a3e" d="M278,193.93a4.18,4.18,0,0,1,4.26-4.37,3,3,0,0,1,3.35,3.11,4.18,4.18,0,0,1-4.26,4.38A3,3,0,0,1,278,193.93Zm6.62-1.2a2.16,2.16,0,0,0-2.43-2.3,3.24,3.24,0,0,0-3.19,3.46,2.14,2.14,0,0,0,2.42,2.28A3.22,3.22,0,0,0,284.58,192.73Z"/><path class="af8f5c32-6024-474f-a395-33aadcb98a3e" d="M287.08,196.16l.47-.79a4.07,4.07,0,0,0,2.55.82c1.42,0,2.19-.49,2.19-1.32,0-1.67-4.18-.52-4.18-3,0-1.4,1.27-2.3,3.2-2.3a4.47,4.47,0,0,1,2.49.69l-.42.79a3.71,3.71,0,0,0-2.16-.63c-1.35,0-2.12.55-2.12,1.35,0,1.71,4.17.55,4.17,3,0,1.45-1.3,2.29-3.26,2.29A4.65,4.65,0,0,1,287.08,196.16Z"/><path class="af8f5c32-6024-474f-a395-33aadcb98a3e" d="M297.36,194.76a2.64,2.64,0,0,0-.06.46c0,.63.35,1,1.06,1a1.9,1.9,0,0,0,1.14-.38l.24.76a2.75,2.75,0,0,1-1.64.47,1.61,1.61,0,0,1-1.8-1.68,2.83,2.83,0,0,1,.06-.57l.86-4.34h-1.31l.16-.84h1.31l.33-1.62h1l-.32,1.62h2.24l-.17.84h-2.24Z"/><path class="af8f5c32-6024-474f-a395-33aadcb98a3e" d="M302.11,196.33a.79.79,0,0,1,.79-.8.7.7,0,0,1,.71.73.77.77,0,0,1-.77.79A.73.73,0,0,1,302.11,196.33Z"/><path class="af8f5c32-6024-474f-a395-33aadcb98a3e" d="M312.63,192.94c0,1.91,1.25,3.2,3.67,3.2a4.18,4.18,0,0,0,2.51-.77l.65-3.29h1l-.76,3.77a5.47,5.47,0,0,1-3.51,1.22c-2.89,0-4.58-1.64-4.58-4.08a5.73,5.73,0,0,1,6-5.9,4.49,4.49,0,0,1,3.64,1.43l-.73.63a3.64,3.64,0,0,0-2.95-1.13A4.75,4.75,0,0,0,312.63,192.94Z"/><path class="af8f5c32-6024-474f-a395-33aadcb98a3e" d="M324.16,193.58c0,.1,0,.2,0,.29,0,1.48.84,2.3,2.54,2.3a3.35,3.35,0,0,0,2.41-.92l.44.71a4.19,4.19,0,0,1-2.94,1.09c-2.13,0-3.43-1.2-3.43-3.13a4.1,4.1,0,0,1,4.08-4.36,2.93,2.93,0,0,1,3.2,3.12,5.18,5.18,0,0,1-.09.9Zm.1-.74h5.26a2.53,2.53,0,0,0,0-.27,2.08,2.08,0,0,0-2.31-2.17A3,3,0,0,0,324.26,192.84Z"/><path class="af8f5c32-6024-474f-a395-33aadcb98a3e" d="M345.83,191.93a4.74,4.74,0,0,1-.1.87l-.84,4.18h-1l.84-4.2a3.41,3.41,0,0,0,.07-.68c0-1-.61-1.64-1.82-1.64a2.74,2.74,0,0,0-2.86,2.46l-.81,4.06h-1l.84-4.2a4.13,4.13,0,0,0,.07-.67c0-1.05-.59-1.65-1.82-1.65a2.82,2.82,0,0,0-2.89,2.57l-.78,3.95h-1l1.45-7.36h1l-.24,1.17a3.43,3.43,0,0,1,2.78-1.23,2.29,2.29,0,0,1,2.41,1.47,3.74,3.74,0,0,1,3.11-1.47C344.89,189.56,345.83,190.44,345.83,191.93Z"/><path class="af8f5c32-6024-474f-a395-33aadcb98a3e" d="M347.87,196.16l.47-.79a4,4,0,0,0,2.55.82c1.42,0,2.19-.49,2.19-1.32,0-1.67-4.18-.52-4.18-3,0-1.4,1.26-2.3,3.2-2.3a4.49,4.49,0,0,1,2.49.69l-.42.79a3.73,3.73,0,0,0-2.16-.63c-1.36,0-2.13.55-2.13,1.35,0,1.71,4.18.55,4.18,3,0,1.45-1.31,2.29-3.27,2.29A4.64,4.64,0,0,1,347.87,196.16Z"/><path class="af8f5c32-6024-474f-a395-33aadcb98a3e" d="M365.16,188.08H361.7l.18-.9h7.94l-.19.9h-3.45L364.4,197h-1Z"/><path class="af8f5c32-6024-474f-a395-33aadcb98a3e" d="M370.5,193.58c0,.1,0,.2,0,.29,0,1.48.84,2.3,2.54,2.3a3.31,3.31,0,0,0,2.4-.92l.45.71a4.19,4.19,0,0,1-2.94,1.09c-2.13,0-3.43-1.2-3.43-3.13a4.1,4.1,0,0,1,4.08-4.36,2.93,2.93,0,0,1,3.2,3.12,5.18,5.18,0,0,1-.09.9Zm.1-.74h5.26a2.53,2.53,0,0,0,0-.27,2.08,2.08,0,0,0-2.31-2.17A3,3,0,0,0,370.6,192.84Z"/><path class="af8f5c32-6024-474f-a395-33aadcb98a3e" d="M387.28,189.62,385.81,197h-.95l.23-1.16a3.77,3.77,0,0,1-2.87,1.23,3,3,0,0,1-3.2-3.12,4.14,4.14,0,0,1,4.16-4.37,2.76,2.76,0,0,1,2.8,1.6l.31-1.54Zm-1.65,3.11a2.16,2.16,0,0,0-2.43-2.3,3.24,3.24,0,0,0-3.19,3.46,2.14,2.14,0,0,0,2.42,2.28A3.22,3.22,0,0,0,385.63,192.73Z"/><path class="af8f5c32-6024-474f-a395-33aadcb98a3e" d="M389.56,193.93a4.18,4.18,0,0,1,4.28-4.37,3.06,3.06,0,0,1,2.9,1.47l-.84.49a2.26,2.26,0,0,0-2.14-1.09,3.24,3.24,0,0,0-3.21,3.46,2.15,2.15,0,0,0,2.45,2.28,2.86,2.86,0,0,0,2.33-1.06l.71.54a3.8,3.8,0,0,1-3.08,1.4C390.86,197.05,389.56,195.82,389.56,193.93Z"/><path class="af8f5c32-6024-474f-a395-33aadcb98a3e" d="M406.14,192a4.32,4.32,0,0,1-.09.85l-.84,4.18h-1l.84-4.2a4.13,4.13,0,0,0,.07-.67c0-1.05-.63-1.65-1.91-1.65a2.87,2.87,0,0,0-3,2.57l-.79,3.95h-1l2.07-10.39h1l-.83,4.13a3.58,3.58,0,0,1,2.81-1.16C405.17,189.56,406.14,190.46,406.14,192Z"/><path class="af8f5c32-6024-474f-a395-33aadcb98a3e" d="M409.93,193.58a1.46,1.46,0,0,0,0,.29c0,1.48.84,2.3,2.54,2.3a3.35,3.35,0,0,0,2.41-.92l.45.71a4.22,4.22,0,0,1-2.94,1.09c-2.13,0-3.44-1.2-3.44-3.13a4.11,4.11,0,0,1,4.08-4.36,2.93,2.93,0,0,1,3.21,3.12,5.16,5.16,0,0,1-.1.9Zm.1-.74h5.25a2.53,2.53,0,0,0,0-.27A2.08,2.08,0,0,0,413,190.4,3,3,0,0,0,410,192.84Z"/><path class="af8f5c32-6024-474f-a395-33aadcb98a3e" d="M423.69,189.56l-.18,1-.28,0c-1.57,0-2.62.9-3,2.73L419.5,197h-1l1.46-7.36h.95l-.25,1.34A3.3,3.3,0,0,1,423.69,189.56Z"/><path class="af8f5c32-6024-474f-a395-33aadcb98a3e" d="M424.33,196.16l.48-.79a4,4,0,0,0,2.55.82c1.41,0,2.18-.49,2.18-1.32,0-1.67-4.17-.52-4.17-3,0-1.4,1.26-2.3,3.19-2.3a4.5,4.5,0,0,1,2.5.69l-.42.79a3.73,3.73,0,0,0-2.16-.63c-1.36,0-2.13.55-2.13,1.35,0,1.71,4.17.55,4.17,3,0,1.45-1.3,2.29-3.26,2.29A4.69,4.69,0,0,1,424.33,196.16Z"/><path class="af8f5c32-6024-474f-a395-33aadcb98a3e" d="M438.66,193.58a1.46,1.46,0,0,0,0,.29c0,1.48.84,2.3,2.54,2.3a3.35,3.35,0,0,0,2.41-.92l.44.71a4.19,4.19,0,0,1-2.94,1.09c-2.13,0-3.43-1.2-3.43-3.13a4.1,4.1,0,0,1,4.08-4.36,2.93,2.93,0,0,1,3.2,3.12,5.18,5.18,0,0,1-.09.9Zm.09-.74H444a2.53,2.53,0,0,0,0-.27,2.08,2.08,0,0,0-2.31-2.17A3,3,0,0,0,438.75,192.84Z"/><path class="af8f5c32-6024-474f-a395-33aadcb98a3e" d="M450,188.8l-.17.82h2.26l-.17.84H449.7L448.4,197h-1l1.3-6.52h-1.32l.15-.84h1.34l.18-.93a2.41,2.41,0,0,1,2.52-2.17,2.21,2.21,0,0,1,1.48.48l-.43.72a1.59,1.59,0,0,0-1.05-.36C450.71,187.36,450.22,187.81,450,188.8Z"/><path class="af8f5c32-6024-474f-a395-33aadcb98a3e" d="M453.33,192.75H457l-.17.87h-3.67Z"/><path class="af8f5c32-6024-474f-a395-33aadcb98a3e" d="M146.54,205.6l-.17.82h2.25l-.16.84h-2.23l-1.3,6.52h-1l1.3-6.52h-1.31l.15-.84h1.33l.18-.93a2.41,2.41,0,0,1,2.52-2.17,2.26,2.26,0,0,1,1.49.48l-.43.72a1.6,1.6,0,0,0-1.06-.36C147.24,204.16,146.75,204.61,146.54,205.6Z"/><path class="af8f5c32-6024-474f-a395-33aadcb98a3e" d="M149.36,210.73a4.18,4.18,0,0,1,4.26-4.37,3,3,0,0,1,3.35,3.11,4.18,4.18,0,0,1-4.26,4.38A3,3,0,0,1,149.36,210.73Zm6.61-1.2a2.15,2.15,0,0,0-2.42-2.3,3.23,3.23,0,0,0-3.19,3.46,2.14,2.14,0,0,0,2.42,2.28A3.21,3.21,0,0,0,156,209.53Z"/><path class="af8f5c32-6024-474f-a395-33aadcb98a3e" d="M164.44,206.36l-.18,1-.28,0c-1.57,0-2.62.9-3,2.73l-.74,3.74h-1l1.46-7.36h.95l-.25,1.34A3.31,3.31,0,0,1,164.44,206.36Z"/><path class="af8f5c32-6024-474f-a395-33aadcb98a3e" d="M167.73,211.56a2.58,2.58,0,0,0,0,.46c0,.63.35,1,1.06,1a1.85,1.85,0,0,0,1.13-.38l.24.76a2.73,2.73,0,0,1-1.64.47,1.61,1.61,0,0,1-1.79-1.68,2.26,2.26,0,0,1,.06-.57l.85-4.34h-1.3l.15-.84h1.32l.32-1.62h1l-.33,1.62H171l-.17.84h-2.24Z"/><path class="af8f5c32-6024-474f-a395-33aadcb98a3e" d="M172.08,213l.48-.79a4,4,0,0,0,2.55.82c1.41,0,2.18-.5,2.18-1.32,0-1.67-4.17-.52-4.17-3,0-1.4,1.26-2.3,3.19-2.3a4.5,4.5,0,0,1,2.5.69l-.42.79a3.73,3.73,0,0,0-2.16-.63c-1.36,0-2.13.55-2.13,1.35,0,1.71,4.18.54,4.18,3,0,1.45-1.31,2.29-3.27,2.29A4.69,4.69,0,0,1,172.08,213Z"/><path class="af8f5c32-6024-474f-a395-33aadcb98a3e" d="M185.41,210.73a4.18,4.18,0,0,1,4.26-4.37,3,3,0,0,1,3.35,3.11,4.18,4.18,0,0,1-4.26,4.38A3,3,0,0,1,185.41,210.73Zm6.61-1.2a2.15,2.15,0,0,0-2.42-2.3,3.23,3.23,0,0,0-3.19,3.46,2.14,2.14,0,0,0,2.42,2.28A3.22,3.22,0,0,0,192,209.53Z"/><path class="af8f5c32-6024-474f-a395-33aadcb98a3e" d="M203,208.75a5.18,5.18,0,0,1-.08.85l-.84,4.18h-1l.84-4.2a4.13,4.13,0,0,0,.07-.67c0-1-.63-1.65-1.9-1.65a2.87,2.87,0,0,0-3,2.57l-.79,3.95h-1l1.46-7.36h.95l-.24,1.17a3.64,3.64,0,0,1,2.89-1.23A2.31,2.31,0,0,1,203,208.75Z"/><path class="af8f5c32-6024-474f-a395-33aadcb98a3e" d="M210.49,210.73a4.17,4.17,0,0,1,4.25-4.37,3,3,0,0,1,3.35,3.11,4.18,4.18,0,0,1-4.26,4.38A3,3,0,0,1,210.49,210.73Zm6.61-1.2a2.16,2.16,0,0,0-2.43-2.3,3.23,3.23,0,0,0-3.19,3.46A2.14,2.14,0,0,0,213.9,213,3.22,3.22,0,0,0,217.1,209.53Z"/><path class="af8f5c32-6024-474f-a395-33aadcb98a3e" d="M228.07,208.75a4.27,4.27,0,0,1-.08.85l-.84,4.18h-1l.84-4.2a4.13,4.13,0,0,0,.07-.67c0-1-.63-1.65-1.91-1.65a2.87,2.87,0,0,0-3,2.57l-.78,3.95h-1l1.46-7.36h.95l-.23,1.17a3.62,3.62,0,0,1,2.88-1.23C227.11,206.36,228.07,207.26,228.07,208.75Z"/><path class="af8f5c32-6024-474f-a395-33aadcb98a3e" d="M233,203.39h1l-2.07,10.39h-1Z"/><path class="af8f5c32-6024-474f-a395-33aadcb98a3e" d="M237.18,206.42h1l-1.46,7.36h-1Zm.26-2.27a.75.75,0,0,1,.77-.76.65.65,0,0,1,.68.63.76.76,0,0,1-.78.78A.65.65,0,0,1,237.44,204.15Z"/><path class="af8f5c32-6024-474f-a395-33aadcb98a3e" d="M248.23,208.75a4.27,4.27,0,0,1-.08.85l-.84,4.18h-1l.85-4.2a4.13,4.13,0,0,0,.07-.67c0-1-.64-1.65-1.91-1.65a2.87,2.87,0,0,0-3,2.57l-.78,3.95h-1l1.46-7.36H243l-.24,1.17a3.66,3.66,0,0,1,2.89-1.23C247.27,206.36,248.23,207.26,248.23,208.75Z"/><path class="af8f5c32-6024-474f-a395-33aadcb98a3e" d="M252,210.38c0,.1,0,.2,0,.29,0,1.47.84,2.3,2.53,2.3a3.32,3.32,0,0,0,2.41-.92l.45.71a4.19,4.19,0,0,1-2.94,1.09c-2.13,0-3.43-1.2-3.43-3.13a4.1,4.1,0,0,1,4.08-4.36,2.93,2.93,0,0,1,3.2,3.12,4.35,4.35,0,0,1-.1.9Zm.1-.74h5.25a1.27,1.27,0,0,0,0-.27,2.08,2.08,0,0,0-2.31-2.17A3,3,0,0,0,252.12,209.64Z"/><path class="af8f5c32-6024-474f-a395-33aadcb98a3e" d="M265.25,210.73a4.18,4.18,0,0,1,4.29-4.37,3.08,3.08,0,0,1,2.9,1.47l-.84.49a2.27,2.27,0,0,0-2.14-1.09,3.24,3.24,0,0,0-3.21,3.46A2.15,2.15,0,0,0,268.7,213a2.84,2.84,0,0,0,2.32-1.06l.72.54a3.8,3.8,0,0,1-3.08,1.4C266.56,213.85,265.25,212.62,265.25,210.73Z"/><path class="af8f5c32-6024-474f-a395-33aadcb98a3e" d="M276.22,203.39h1l-2.07,10.39h-1Z"/><path class="af8f5c32-6024-474f-a395-33aadcb98a3e" d="M287.15,206.42l-1.47,7.36h-.95l.24-1.16a3.77,3.77,0,0,1-2.87,1.23,3,3,0,0,1-3.21-3.12,4.14,4.14,0,0,1,4.16-4.37,2.76,2.76,0,0,1,2.8,1.6l.31-1.54Zm-1.65,3.11a2.15,2.15,0,0,0-2.42-2.3,3.23,3.23,0,0,0-3.2,3.46,2.15,2.15,0,0,0,2.43,2.28A3.22,3.22,0,0,0,285.5,209.53Z"/><path class="af8f5c32-6024-474f-a395-33aadcb98a3e" d="M288.72,213l.47-.79a4,4,0,0,0,2.55.82c1.42,0,2.19-.5,2.19-1.32,0-1.67-4.18-.52-4.18-3,0-1.4,1.26-2.3,3.2-2.3a4.47,4.47,0,0,1,2.49.69l-.42.79a3.71,3.71,0,0,0-2.16-.63c-1.36,0-2.13.55-2.13,1.35,0,1.71,4.18.54,4.18,3,0,1.45-1.31,2.29-3.27,2.29A4.64,4.64,0,0,1,288.72,213Z"/><path class="af8f5c32-6024-474f-a395-33aadcb98a3e" d="M296.61,213l.48-.79a4,4,0,0,0,2.55.82c1.41,0,2.18-.5,2.18-1.32,0-1.67-4.17-.52-4.17-3,0-1.4,1.26-2.3,3.19-2.3a4.5,4.5,0,0,1,2.5.69l-.42.79a3.75,3.75,0,0,0-2.16-.63c-1.36,0-2.13.55-2.13,1.35,0,1.71,4.17.54,4.17,3,0,1.45-1.3,2.29-3.26,2.29A4.69,4.69,0,0,1,296.61,213Z"/><path class="af8f5c32-6024-474f-a395-33aadcb98a3e" d="M306.22,210.38a1.46,1.46,0,0,0,0,.29c0,1.47.84,2.3,2.54,2.3a3.35,3.35,0,0,0,2.41-.92l.45.71a4.22,4.22,0,0,1-2.94,1.09c-2.13,0-3.44-1.2-3.44-3.13a4.11,4.11,0,0,1,4.08-4.36,2.93,2.93,0,0,1,3.21,3.12,5.16,5.16,0,0,1-.1.9Zm.1-.74h5.25a2.53,2.53,0,0,0,0-.27,2.08,2.08,0,0,0-2.31-2.17A3,3,0,0,0,306.32,209.64Z"/><path class="af8f5c32-6024-474f-a395-33aadcb98a3e" d="M314,213l.48-.79A4,4,0,0,0,317,213c1.41,0,2.19-.5,2.19-1.32,0-1.67-4.18-.52-4.18-3,0-1.4,1.26-2.3,3.2-2.3a4.49,4.49,0,0,1,2.49.69l-.42.79a3.73,3.73,0,0,0-2.16-.63c-1.36,0-2.13.55-2.13,1.35,0,1.71,4.18.54,4.18,3,0,1.45-1.31,2.29-3.27,2.29A4.69,4.69,0,0,1,314,213Z"/><path class="af8f5c32-6024-474f-a395-33aadcb98a3e" d="M335.61,206.42l-1.47,7.36h-1l.24-1.16a3.77,3.77,0,0,1-2.87,1.23,3,3,0,0,1-3.21-3.12,4.15,4.15,0,0,1,4.16-4.37,2.76,2.76,0,0,1,2.8,1.6l.31-1.54ZM334,209.53a2.15,2.15,0,0,0-2.42-2.3,3.23,3.23,0,0,0-3.19,3.46,2.14,2.14,0,0,0,2.42,2.28A3.22,3.22,0,0,0,334,209.53Z"/><path class="af8f5c32-6024-474f-a395-33aadcb98a3e" d="M343.14,206.36l-.18,1-.29,0c-1.56,0-2.61.9-3,2.73l-.74,3.74h-1l1.46-7.36h.95l-.25,1.34A3.33,3.33,0,0,1,343.14,206.36Z"/><path class="af8f5c32-6024-474f-a395-33aadcb98a3e" d="M345.36,210.38c0,.1,0,.2,0,.29,0,1.47.84,2.3,2.53,2.3a3.34,3.34,0,0,0,2.41-.92l.45.71a4.21,4.21,0,0,1-2.94,1.09c-2.13,0-3.43-1.2-3.43-3.13a4.1,4.1,0,0,1,4.07-4.36,2.93,2.93,0,0,1,3.21,3.12,4.35,4.35,0,0,1-.1.9Zm.1-.74h5.25a1.27,1.27,0,0,0,0-.27,2.08,2.08,0,0,0-2.32-2.17A3,3,0,0,0,345.46,209.64Z"/><path class="af8f5c32-6024-474f-a395-33aadcb98a3e" d="M366.35,208.75a5.18,5.18,0,0,1-.08.85l-.84,4.18h-1l.84-4.2a4.13,4.13,0,0,0,.07-.67c0-1-.63-1.65-1.9-1.65a2.87,2.87,0,0,0-3,2.57l-.79,3.95h-1l1.46-7.36h.95l-.24,1.17a3.64,3.64,0,0,1,2.89-1.23A2.31,2.31,0,0,1,366.35,208.75Z"/><path class="af8f5c32-6024-474f-a395-33aadcb98a3e" d="M369.15,210.73a4.17,4.17,0,0,1,4.25-4.37,3,3,0,0,1,3.35,3.11,4.18,4.18,0,0,1-4.26,4.38A3,3,0,0,1,369.15,210.73Zm6.61-1.2a2.16,2.16,0,0,0-2.43-2.3,3.23,3.23,0,0,0-3.19,3.46,2.14,2.14,0,0,0,2.42,2.28A3.22,3.22,0,0,0,375.76,209.53Z"/><path class="af8f5c32-6024-474f-a395-33aadcb98a3e" d="M385.83,203.39h1l-2.07,10.39h-1Z"/><path class="af8f5c32-6024-474f-a395-33aadcb98a3e" d="M389.5,210.38c0,.1,0,.2,0,.29,0,1.47.84,2.3,2.53,2.3a3.34,3.34,0,0,0,2.41-.92l.45.71a4.19,4.19,0,0,1-2.94,1.09c-2.13,0-3.43-1.2-3.43-3.13a4.1,4.1,0,0,1,4.07-4.36,2.93,2.93,0,0,1,3.21,3.12,4.35,4.35,0,0,1-.1.9Zm.1-.74h5.25a1.27,1.27,0,0,0,0-.27,2.08,2.08,0,0,0-2.31-2.17A3,3,0,0,0,389.6,209.64Z"/><path class="af8f5c32-6024-474f-a395-33aadcb98a3e" d="M397.3,213l.48-.79a4,4,0,0,0,2.55.82c1.41,0,2.18-.5,2.18-1.32,0-1.67-4.17-.52-4.17-3,0-1.4,1.26-2.3,3.19-2.3a4.47,4.47,0,0,1,2.49.69l-.42.79a3.7,3.7,0,0,0-2.15-.63c-1.36,0-2.13.55-2.13,1.35,0,1.71,4.17.54,4.17,3,0,1.45-1.3,2.29-3.26,2.29A4.65,4.65,0,0,1,397.3,213Z"/><path class="af8f5c32-6024-474f-a395-33aadcb98a3e" d="M405.2,213l.47-.79a4,4,0,0,0,2.55.82c1.42,0,2.19-.5,2.19-1.32,0-1.67-4.18-.52-4.18-3,0-1.4,1.26-2.3,3.2-2.3a4.49,4.49,0,0,1,2.49.69l-.42.79a3.73,3.73,0,0,0-2.16-.63c-1.36,0-2.13.55-2.13,1.35,0,1.71,4.18.54,4.18,3,0,1.45-1.31,2.29-3.27,2.29A4.64,4.64,0,0,1,405.2,213Z"/><path class="af8f5c32-6024-474f-a395-33aadcb98a3e" d="M420.19,211.56a2.64,2.64,0,0,0-.06.46c0,.63.35,1,1.07,1a1.85,1.85,0,0,0,1.13-.38l.24.76a2.73,2.73,0,0,1-1.64.47,1.61,1.61,0,0,1-1.79-1.68,2.26,2.26,0,0,1,.06-.57l.85-4.34h-1.3l.15-.84h1.32l.32-1.62h1l-.33,1.62h2.24l-.16.84H421Z"/><path class="af8f5c32-6024-474f-a395-33aadcb98a3e" d="M433,208.75a4.32,4.32,0,0,1-.09.85l-.84,4.18h-1l.84-4.2a4.13,4.13,0,0,0,.07-.67c0-1-.63-1.65-1.91-1.65a2.87,2.87,0,0,0-3,2.57l-.79,3.95h-1l2.07-10.39h1l-.83,4.13a3.58,3.58,0,0,1,2.81-1.16C432.05,206.36,433,207.26,433,208.75Z"/><path class="af8f5c32-6024-474f-a395-33aadcb98a3e" d="M444.08,206.42l-1.47,7.36h-1l.24-1.16a3.77,3.77,0,0,1-2.87,1.23,3,3,0,0,1-3.21-3.12,4.15,4.15,0,0,1,4.16-4.37,2.76,2.76,0,0,1,2.8,1.6l.31-1.54Zm-1.66,3.11a2.15,2.15,0,0,0-2.42-2.3,3.23,3.23,0,0,0-3.19,3.46,2.14,2.14,0,0,0,2.42,2.28A3.21,3.21,0,0,0,442.42,209.53Z"/><path class="af8f5c32-6024-474f-a395-33aadcb98a3e" d="M454.12,208.75a4.32,4.32,0,0,1-.09.85l-.84,4.18h-1l.84-4.2a4.13,4.13,0,0,0,.07-.67c0-1-.63-1.65-1.91-1.65a2.87,2.87,0,0,0-3,2.57l-.78,3.95h-1l1.46-7.36h.95l-.23,1.17a3.62,3.62,0,0,1,2.88-1.23C453.15,206.36,454.12,207.26,454.12,208.75Z"/><path class="af8f5c32-6024-474f-a395-33aadcb98a3e" d="M144.25,223.16l-.18,1-.28,0c-1.57,0-2.62.9-3,2.73l-.74,3.74h-1l1.46-7.36h.95l-.25,1.34A3.31,3.31,0,0,1,144.25,223.16Z"/><path class="af8f5c32-6024-474f-a395-33aadcb98a3e" d="M146.48,227.18a1.46,1.46,0,0,0,0,.29c0,1.47.85,2.3,2.54,2.3a3.35,3.35,0,0,0,2.41-.92l.45.71a4.22,4.22,0,0,1-2.94,1.09c-2.13,0-3.44-1.2-3.44-3.13a4.11,4.11,0,0,1,4.08-4.36,2.93,2.93,0,0,1,3.21,3.12,4.35,4.35,0,0,1-.1.9Zm.1-.74h5.25a2.53,2.53,0,0,0,0-.27,2.07,2.07,0,0,0-2.31-2.17A3,3,0,0,0,146.58,226.44Z"/><path class="af8f5c32-6024-474f-a395-33aadcb98a3e" d="M163.35,223.22l-1.29,6.47c-.51,2.6-1.89,3.68-4.28,3.68a4.66,4.66,0,0,1-3.28-1.11l.59-.75a3.86,3.86,0,0,0,2.76,1,2.89,2.89,0,0,0,3.19-2.64l.17-.81a3.8,3.8,0,0,1-2.94,1.26c-2,0-3.25-1.13-3.25-3a4.07,4.07,0,0,1,4.2-4.17,2.82,2.82,0,0,1,2.87,1.68l.31-1.62Zm-1.68,2.95c0-1.34-.91-2.14-2.44-2.14a3.12,3.12,0,0,0-3.2,3.25c0,1.34.89,2.14,2.43,2.14A3.13,3.13,0,0,0,161.67,226.17Z"/><path class="af8f5c32-6024-474f-a395-33aadcb98a3e" d="M173.82,223.22l-1.47,7.36h-.95l.24-1.17a3.58,3.58,0,0,1-2.85,1.24,2.3,2.3,0,0,1-2.61-2.41,4,4,0,0,1,.08-.82l.84-4.2h1l-.84,4.2a4,4,0,0,0-.07.66c0,1.06.62,1.68,1.88,1.68a2.87,2.87,0,0,0,3-2.58l.79-4Z"/><path class="af8f5c32-6024-474f-a395-33aadcb98a3e" d="M178.26,220.19h1l-2.07,10.39h-1Z"/><path class="af8f5c32-6024-474f-a395-33aadcb98a3e" d="M189.2,223.22l-1.47,7.36h-1l.24-1.16a3.77,3.77,0,0,1-2.87,1.23,3,3,0,0,1-3.21-3.12,4.15,4.15,0,0,1,4.16-4.37,2.76,2.76,0,0,1,2.8,1.6l.31-1.54Zm-1.66,3.11a2.15,2.15,0,0,0-2.42-2.3,3.23,3.23,0,0,0-3.19,3.46,2.14,2.14,0,0,0,2.42,2.28A3.22,3.22,0,0,0,187.54,226.33Z"/><path class="af8f5c32-6024-474f-a395-33aadcb98a3e" d="M196.73,223.16l-.19,1-.28,0c-1.56,0-2.62.9-3,2.73l-.74,3.74h-1l1.46-7.36H194l-.25,1.34A3.33,3.33,0,0,1,196.73,223.16Z"/><path class="af8f5c32-6024-474f-a395-33aadcb98a3e" d="M205.7,222.4l-.17.82h2.26l-.17.84h-2.23l-1.3,6.52h-1l1.31-6.52h-1.32l.15-.84h1.33l.19-.93a2.41,2.41,0,0,1,2.52-2.17,2.21,2.21,0,0,1,1.48.48l-.43.72a1.59,1.59,0,0,0-1-.36C206.4,221,205.91,221.41,205.7,222.4Z"/><path class="af8f5c32-6024-474f-a395-33aadcb98a3e" d="M216.79,223.22l-1.47,7.36h-.95l.23-1.16a3.77,3.77,0,0,1-2.87,1.23,3,3,0,0,1-3.2-3.12,4.14,4.14,0,0,1,4.16-4.37,2.76,2.76,0,0,1,2.8,1.6l.3-1.54Zm-1.65,3.11a2.16,2.16,0,0,0-2.43-2.3,3.23,3.23,0,0,0-3.19,3.46,2.14,2.14,0,0,0,2.42,2.28A3.22,3.22,0,0,0,215.14,226.33Z"/><path class="af8f5c32-6024-474f-a395-33aadcb98a3e" d="M219.07,227.53a4.18,4.18,0,0,1,4.28-4.37,3.06,3.06,0,0,1,2.9,1.47l-.84.49a2.26,2.26,0,0,0-2.14-1.09,3.24,3.24,0,0,0-3.21,3.46,2.15,2.15,0,0,0,2.45,2.28,2.86,2.86,0,0,0,2.33-1.06l.71.54a3.8,3.8,0,0,1-3.08,1.4C220.37,230.65,219.07,229.42,219.07,227.53Z"/><path class="af8f5c32-6024-474f-a395-33aadcb98a3e" d="M228.87,227.18a1.46,1.46,0,0,0,0,.29c0,1.47.84,2.3,2.54,2.3a3.35,3.35,0,0,0,2.41-.92l.45.71a4.22,4.22,0,0,1-2.94,1.09c-2.13,0-3.44-1.2-3.44-3.13a4.11,4.11,0,0,1,4.08-4.36,2.93,2.93,0,0,1,3.21,3.12,4.35,4.35,0,0,1-.1.9Zm.1-.74h5.25a2.53,2.53,0,0,0,0-.27,2.08,2.08,0,0,0-2.31-2.17A3,3,0,0,0,229,226.44Z"/><path class="af8f5c32-6024-474f-a395-33aadcb98a3e" d="M243.76,228.36a4,4,0,0,0,0,.46c0,.63.35,1,1.06,1a1.9,1.9,0,0,0,1.14-.38l.23.76a2.7,2.7,0,0,1-1.63.47,1.61,1.61,0,0,1-1.8-1.68,2.83,2.83,0,0,1,.06-.57l.85-4.34h-1.3l.16-.84h1.31l.32-1.62h1l-.32,1.62H247l-.17.84h-2.24Z"/><path class="af8f5c32-6024-474f-a395-33aadcb98a3e" d="M248.56,227.53a4.18,4.18,0,0,1,4.26-4.37,3,3,0,0,1,3.35,3.11,4.18,4.18,0,0,1-4.26,4.38A3,3,0,0,1,248.56,227.53Zm6.62-1.2a2.16,2.16,0,0,0-2.43-2.3,3.23,3.23,0,0,0-3.19,3.46,2.14,2.14,0,0,0,2.42,2.28A3.22,3.22,0,0,0,255.18,226.33Z"/><path class="af8f5c32-6024-474f-a395-33aadcb98a3e" d="M266,222.4l-.16.82H268l-.17.84h-2.22l-1.31,6.52h-1l1.3-6.52h-1.32l.16-.84h1.33l.18-.93a2.41,2.41,0,0,1,2.52-2.17,2.26,2.26,0,0,1,1.49.48l-.44.72a1.57,1.57,0,0,0-1.05-.36C266.65,221,266.16,221.41,266,222.4Z"/><path class="af8f5c32-6024-474f-a395-33aadcb98a3e" d="M277.05,223.22l-1.48,7.36h-.95l.24-1.16a3.77,3.77,0,0,1-2.87,1.23,3,3,0,0,1-3.21-3.12,4.15,4.15,0,0,1,4.16-4.37,2.76,2.76,0,0,1,2.8,1.6l.31-1.54Zm-1.66,3.11A2.15,2.15,0,0,0,273,224a3.23,3.23,0,0,0-3.19,3.46,2.14,2.14,0,0,0,2.42,2.28A3.22,3.22,0,0,0,275.39,226.33Z"/><path class="af8f5c32-6024-474f-a395-33aadcb98a3e" d="M279.32,227.53a4.18,4.18,0,0,1,4.29-4.37,3.08,3.08,0,0,1,2.9,1.47l-.84.49a2.28,2.28,0,0,0-2.15-1.09,3.23,3.23,0,0,0-3.2,3.46,2.15,2.15,0,0,0,2.45,2.28,2.84,2.84,0,0,0,2.32-1.06l.72.54a3.8,3.8,0,0,1-3.08,1.4C280.63,230.65,279.32,229.42,279.32,227.53Z"/><path class="af8f5c32-6024-474f-a395-33aadcb98a3e" d="M289.12,227.18c0,.1,0,.2,0,.29,0,1.47.84,2.3,2.53,2.3a3.34,3.34,0,0,0,2.41-.92l.45.71a4.19,4.19,0,0,1-2.94,1.09c-2.13,0-3.43-1.2-3.43-3.13a4.1,4.1,0,0,1,4.08-4.36,2.93,2.93,0,0,1,3.2,3.12,4.35,4.35,0,0,1-.1.9Zm.1-.74h5.25a1.27,1.27,0,0,0,0-.27,2.08,2.08,0,0,0-2.31-2.17A3,3,0,0,0,289.22,226.44Z"/><path class="af8f5c32-6024-474f-a395-33aadcb98a3e" d="M302.35,227.53a4.18,4.18,0,0,1,4.29-4.37,3.08,3.08,0,0,1,2.9,1.47l-.84.49a2.28,2.28,0,0,0-2.15-1.09,3.23,3.23,0,0,0-3.2,3.46,2.15,2.15,0,0,0,2.45,2.28,2.84,2.84,0,0,0,2.32-1.06l.72.54a3.8,3.8,0,0,1-3.08,1.4C303.66,230.65,302.35,229.42,302.35,227.53Z"/><path class="af8f5c32-6024-474f-a395-33aadcb98a3e" d="M313.32,220.19h1l-2.07,10.39h-1Z"/><path class="af8f5c32-6024-474f-a395-33aadcb98a3e" d="M324.25,223.22l-1.47,7.36h-.95l.24-1.16a3.77,3.77,0,0,1-2.87,1.23,3,3,0,0,1-3.21-3.12,4.14,4.14,0,0,1,4.16-4.37,2.76,2.76,0,0,1,2.8,1.6l.31-1.54Zm-1.65,3.11a2.15,2.15,0,0,0-2.42-2.3,3.23,3.23,0,0,0-3.2,3.46,2.15,2.15,0,0,0,2.43,2.28A3.22,3.22,0,0,0,322.6,226.33Z"/><path class="af8f5c32-6024-474f-a395-33aadcb98a3e" d="M325.82,229.76l.47-.79a4,4,0,0,0,2.55.82c1.42,0,2.19-.5,2.19-1.32,0-1.67-4.18-.52-4.18-3,0-1.4,1.26-2.3,3.2-2.3a4.49,4.49,0,0,1,2.49.69l-.42.79A3.73,3.73,0,0,0,330,224c-1.36,0-2.13.55-2.13,1.35,0,1.71,4.18.54,4.18,3,0,1.45-1.31,2.29-3.27,2.29A4.64,4.64,0,0,1,325.82,229.76Z"/><path class="af8f5c32-6024-474f-a395-33aadcb98a3e" d="M333.71,229.76l.48-.79a4,4,0,0,0,2.55.82c1.41,0,2.18-.5,2.18-1.32,0-1.67-4.17-.52-4.17-3,0-1.4,1.26-2.3,3.19-2.3a4.53,4.53,0,0,1,2.5.69l-.43.79a3.7,3.7,0,0,0-2.15-.63c-1.36,0-2.13.55-2.13,1.35,0,1.71,4.17.54,4.17,3,0,1.45-1.3,2.29-3.26,2.29A4.67,4.67,0,0,1,333.71,229.76Z"/><path class="af8f5c32-6024-474f-a395-33aadcb98a3e" d="M349.18,220.19h1l-2.08,10.39h-1Z"/><path class="af8f5c32-6024-474f-a395-33aadcb98a3e" d="M352.85,227.18c0,.1,0,.2,0,.29,0,1.47.84,2.3,2.53,2.3a3.34,3.34,0,0,0,2.41-.92l.45.71a4.21,4.21,0,0,1-2.94,1.09c-2.13,0-3.43-1.2-3.43-3.13a4.1,4.1,0,0,1,4.07-4.36,2.93,2.93,0,0,1,3.21,3.12,4.35,4.35,0,0,1-.1.9Zm.1-.74h5.25a1.27,1.27,0,0,0,0-.27A2.08,2.08,0,0,0,355.9,224,3,3,0,0,0,353,226.44Z"/><path class="af8f5c32-6024-474f-a395-33aadcb98a3e" d="M369.63,223.22l-1.47,7.36h-1l.24-1.16a3.77,3.77,0,0,1-2.87,1.23,3,3,0,0,1-3.21-3.12,4.15,4.15,0,0,1,4.16-4.37,2.76,2.76,0,0,1,2.8,1.6l.31-1.54ZM368,226.33a2.15,2.15,0,0,0-2.42-2.3,3.23,3.23,0,0,0-3.19,3.46,2.14,2.14,0,0,0,2.42,2.28A3.22,3.22,0,0,0,368,226.33Z"/><path class="af8f5c32-6024-474f-a395-33aadcb98a3e" d="M377.16,223.16l-.19,1-.28,0c-1.56,0-2.61.9-3,2.73l-.74,3.74h-1l1.46-7.36h.95l-.25,1.34A3.33,3.33,0,0,1,377.16,223.16Z"/><path class="af8f5c32-6024-474f-a395-33aadcb98a3e" d="M386.22,225.55a4.14,4.14,0,0,1-.09.84l-.84,4.19h-1l.84-4.2a4.13,4.13,0,0,0,.07-.67c0-1.05-.63-1.65-1.91-1.65a2.87,2.87,0,0,0-3,2.57l-.78,4h-1l1.45-7.36h.95l-.23,1.17a3.62,3.62,0,0,1,2.88-1.23C385.25,223.16,386.22,224.06,386.22,225.55Z"/><path class="af8f5c32-6024-474f-a395-33aadcb98a3e" d="M390.51,223.22h1l-1.45,7.36h-1Zm.25-2.27a.75.75,0,0,1,.77-.76.66.66,0,0,1,.69.63.76.76,0,0,1-.79.78A.65.65,0,0,1,390.76,221Z"/><path class="af8f5c32-6024-474f-a395-33aadcb98a3e" d="M401.56,225.55a5,5,0,0,1-.08.84l-.85,4.19h-1l.84-4.2a4.13,4.13,0,0,0,.07-.67c0-1.05-.63-1.65-1.9-1.65a2.87,2.87,0,0,0-3,2.57l-.79,4h-1l1.46-7.36h.95l-.24,1.17a3.63,3.63,0,0,1,2.89-1.23A2.31,2.31,0,0,1,401.56,225.55Z"/><path class="af8f5c32-6024-474f-a395-33aadcb98a3e" d="M412.72,223.22l-1.29,6.47c-.52,2.6-1.89,3.68-4.29,3.68a4.68,4.68,0,0,1-3.28-1.11l.59-.75a3.88,3.88,0,0,0,2.76,1,2.89,2.89,0,0,0,3.2-2.64l.16-.81a3.79,3.79,0,0,1-2.94,1.26c-1.94,0-3.25-1.13-3.25-3a4.07,4.07,0,0,1,4.2-4.17,2.84,2.84,0,0,1,2.88,1.68l.3-1.62ZM411,226.17c0-1.34-.91-2.14-2.44-2.14a3.13,3.13,0,0,0-3.21,3.25c0,1.34.9,2.14,2.44,2.14A3.13,3.13,0,0,0,411,226.17Z"/><path class="af8f5c32-6024-474f-a395-33aadcb98a3e" d="M414.29,229.76l.48-.79a4,4,0,0,0,2.55.82c1.42,0,2.18-.5,2.18-1.32,0-1.67-4.17-.52-4.17-3,0-1.4,1.26-2.3,3.19-2.3a4.5,4.5,0,0,1,2.5.69l-.42.79a3.73,3.73,0,0,0-2.16-.63c-1.36,0-2.13.55-2.13,1.35,0,1.71,4.18.54,4.18,3,0,1.45-1.31,2.29-3.27,2.29A4.69,4.69,0,0,1,414.29,229.76Z"/><path class="af8f5c32-6024-474f-a395-33aadcb98a3e" d="M422.46,229.93a.78.78,0,0,1,.78-.8.7.7,0,0,1,.72.72.79.79,0,0,1-.78.8A.72.72,0,0,1,422.46,229.93Z"/><path class="af8f5c32-6024-474f-a395-33aadcb98a3e" d="M432,226.59a5.72,5.72,0,0,1,5.91-5.9c2.9,0,4.55,1.66,4.55,4.08a5.73,5.73,0,0,1-5.92,5.9C433.59,230.67,432,229,432,226.59Zm9.43-1.78c0-1.9-1.25-3.19-3.62-3.19a4.72,4.72,0,0,0-4.79,4.92c0,1.91,1.25,3.2,3.61,3.2A4.73,4.73,0,0,0,441.38,224.81Z"/><path class="af8f5c32-6024-474f-a395-33aadcb98a3e" d="M452.62,223.22l-1.47,7.36h-1l.24-1.17a3.56,3.56,0,0,1-2.84,1.24,2.3,2.3,0,0,1-2.62-2.41,4.83,4.83,0,0,1,.08-.82l.84-4.2h1l-.84,4.2a3.16,3.16,0,0,0-.07.66c0,1.06.61,1.68,1.87,1.68a2.88,2.88,0,0,0,3-2.58l.78-4Z"/><path class="af8f5c32-6024-474f-a395-33aadcb98a3e" d="M460.16,223.16l-.18,1-.28,0c-1.57,0-2.62.9-3,2.73l-.74,3.74h-1l1.45-7.36h1l-.25,1.34A3.3,3.3,0,0,1,460.16,223.16Z"/><path class="af8f5c32-6024-474f-a395-33aadcb98a3e" d="M142.35,242.35a4.32,4.32,0,0,1-.09.85l-.84,4.18h-1l.84-4.2a4.13,4.13,0,0,0,.07-.67c0-1-.63-1.65-1.91-1.65a2.87,2.87,0,0,0-3,2.57l-.78,3.95h-1L136.73,237h1l-.82,4.13a3.58,3.58,0,0,1,2.81-1.16C141.38,240,142.35,240.86,142.35,242.35Z"/><path class="af8f5c32-6024-474f-a395-33aadcb98a3e" d="M146.14,244a1.46,1.46,0,0,0,0,.29c0,1.47.84,2.3,2.54,2.3a3.35,3.35,0,0,0,2.41-.92l.45.71a4.23,4.23,0,0,1-3,1.09c-2.13,0-3.43-1.2-3.43-3.13a4.1,4.1,0,0,1,4.08-4.36,2.94,2.94,0,0,1,3.21,3.12,5.16,5.16,0,0,1-.1.9Zm.09-.74h5.26a2.53,2.53,0,0,0,0-.27,2.08,2.08,0,0,0-2.31-2.17A3,3,0,0,0,146.23,243.24Z"/><path class="af8f5c32-6024-474f-a395-33aadcb98a3e" d="M162.91,240l-1.47,7.36h-.95l.24-1.16a3.77,3.77,0,0,1-2.87,1.23,3,3,0,0,1-3.21-3.12,4.14,4.14,0,0,1,4.16-4.37,2.76,2.76,0,0,1,2.8,1.6l.31-1.54Zm-1.65,3.11a2.15,2.15,0,0,0-2.42-2.3,3.24,3.24,0,0,0-3.2,3.46,2.15,2.15,0,0,0,2.43,2.28A3.22,3.22,0,0,0,161.26,243.13Z"/><path class="af8f5c32-6024-474f-a395-33aadcb98a3e" d="M170.44,240l-.18,1-.28,0c-1.57,0-2.62.9-3,2.73l-.75,3.74h-1l1.46-7.36h.95l-.25,1.34A3.31,3.31,0,0,1,170.44,240Z"/><path class="af8f5c32-6024-474f-a395-33aadcb98a3e" d="M173.73,245.16a2.64,2.64,0,0,0-.06.46c0,.63.35,1,1.07,1a1.88,1.88,0,0,0,1.13-.38l.24.76a2.73,2.73,0,0,1-1.64.47,1.61,1.61,0,0,1-1.79-1.68,2.26,2.26,0,0,1,.06-.57l.85-4.34h-1.3l.15-.84h1.32l.32-1.62h1l-.32,1.62H177l-.16.84h-2.25Z"/><path class="af8f5c32-6024-474f-a395-33aadcb98a3e" d="M181.44,239.2l-.16.82h2.25l-.17.84h-2.22l-1.31,6.52h-1l1.3-6.52h-1.31L179,240h1.33l.18-.93a2.41,2.41,0,0,1,2.52-2.17,2.26,2.26,0,0,1,1.49.48l-.44.72a1.57,1.57,0,0,0-1.05-.36C182.14,237.76,181.65,238.21,181.44,239.2Z"/><path class="af8f5c32-6024-474f-a395-33aadcb98a3e" d="M185.27,244a1.46,1.46,0,0,0,0,.29c0,1.47.84,2.3,2.54,2.3a3.35,3.35,0,0,0,2.41-.92l.44.71a4.19,4.19,0,0,1-2.94,1.09c-2.13,0-3.43-1.2-3.43-3.13a4.1,4.1,0,0,1,4.08-4.36,2.94,2.94,0,0,1,3.21,3.12,5.16,5.16,0,0,1-.1.9Zm.09-.74h5.26a2.53,2.53,0,0,0,0-.27,2.08,2.08,0,0,0-2.31-2.17A3,3,0,0,0,185.36,243.24Z"/><path class="af8f5c32-6024-474f-a395-33aadcb98a3e" d="M195.92,237h1l-2.07,10.39h-1Z"/><path class="af8f5c32-6024-474f-a395-33aadcb98a3e" d="M200.29,245.16a2.64,2.64,0,0,0-.06.46c0,.63.35,1,1.07,1a1.9,1.9,0,0,0,1.13-.38l.24.76a2.73,2.73,0,0,1-1.64.47,1.6,1.6,0,0,1-1.79-1.68,2.81,2.81,0,0,1,0-.57l.86-4.34h-1.31L199,240h1.32l.32-1.62h1l-.32,1.62h2.24l-.17.84h-2.24Z"/><path class="af8f5c32-6024-474f-a395-33aadcb98a3e" d="M218.44,240l-1.29,6.47c-.52,2.6-1.89,3.68-4.29,3.68a4.66,4.66,0,0,1-3.28-1.11l.59-.75a3.86,3.86,0,0,0,2.76,1,2.89,2.89,0,0,0,3.19-2.63l.17-.82a3.79,3.79,0,0,1-2.94,1.26c-1.95,0-3.25-1.13-3.25-3a4.07,4.07,0,0,1,4.2-4.17,2.82,2.82,0,0,1,2.87,1.68l.31-1.62ZM216.75,243c0-1.34-.91-2.14-2.43-2.14a3.12,3.12,0,0,0-3.21,3.25c0,1.34.9,2.14,2.44,2.14A3.12,3.12,0,0,0,216.75,243Z"/><path class="af8f5c32-6024-474f-a395-33aadcb98a3e" d="M226,240l-.18,1-.28,0c-1.57,0-2.62.9-3,2.73l-.74,3.74h-1l1.45-7.36h1l-.26,1.34A3.33,3.33,0,0,1,226,240Z"/><path class="af8f5c32-6024-474f-a395-33aadcb98a3e" d="M235.47,240,234,247.38h-.95l.24-1.16a3.77,3.77,0,0,1-2.87,1.23,3,3,0,0,1-3.21-3.12,4.14,4.14,0,0,1,4.16-4.37,2.76,2.76,0,0,1,2.8,1.6l.31-1.54Zm-1.65,3.11a2.15,2.15,0,0,0-2.42-2.3,3.24,3.24,0,0,0-3.2,3.46,2.15,2.15,0,0,0,2.43,2.28A3.22,3.22,0,0,0,233.82,243.13Z"/><path class="af8f5c32-6024-474f-a395-33aadcb98a3e" d="M239.42,245.16a2.64,2.64,0,0,0-.06.46c0,.63.35,1,1.07,1a1.9,1.9,0,0,0,1.13-.38l.24.76a2.73,2.73,0,0,1-1.64.47,1.6,1.6,0,0,1-1.79-1.68,2.81,2.81,0,0,1,0-.57l.86-4.34H238l.16-.84h1.32l.32-1.62h1l-.32,1.62h2.24l-.17.84h-2.24Z"/><path class="af8f5c32-6024-474f-a395-33aadcb98a3e" d="M246,240h1l-1.46,7.36h-1Zm.25-2.27A.75.75,0,0,1,247,237a.66.66,0,0,1,.69.63.76.76,0,0,1-.78.78A.66.66,0,0,1,246.26,237.75Z"/><path class="af8f5c32-6024-474f-a395-33aadcb98a3e" d="M251,245.16a2.64,2.64,0,0,0-.06.46c0,.63.35,1,1.07,1a1.9,1.9,0,0,0,1.13-.38l.24.76a2.73,2.73,0,0,1-1.64.47,1.6,1.6,0,0,1-1.79-1.68,2.81,2.81,0,0,1,.05-.57l.86-4.34h-1.31l.16-.84H251l.32-1.62h1L252,240h2.24l-.17.84h-2.24Z"/><path class="af8f5c32-6024-474f-a395-33aadcb98a3e" d="M264.21,240l-1.47,7.36h-.95l.24-1.17a3.57,3.57,0,0,1-2.84,1.24,2.3,2.3,0,0,1-2.62-2.41,4,4,0,0,1,.08-.82l.84-4.2h1l-.85,4.2a4,4,0,0,0-.07.66c0,1.06.62,1.68,1.88,1.68a2.89,2.89,0,0,0,3-2.58l.78-4Z"/><path class="af8f5c32-6024-474f-a395-33aadcb98a3e" d="M275.37,237l-2.07,10.39h-.95l.23-1.16a3.77,3.77,0,0,1-2.87,1.23,3,3,0,0,1-3.2-3.12,4.14,4.14,0,0,1,4.16-4.37,2.77,2.77,0,0,1,2.8,1.6l.91-4.57Zm-2.25,6.14a2.16,2.16,0,0,0-2.43-2.3,3.24,3.24,0,0,0-3.19,3.46,2.14,2.14,0,0,0,2.42,2.28A3.22,3.22,0,0,0,273.12,243.13Z"/><path class="af8f5c32-6024-474f-a395-33aadcb98a3e" d="M278,244c0,.1,0,.2,0,.29,0,1.47.84,2.3,2.53,2.3a3.34,3.34,0,0,0,2.41-.92l.45.71a4.21,4.21,0,0,1-2.94,1.09c-2.13,0-3.43-1.2-3.43-3.13a4.1,4.1,0,0,1,4.07-4.36,2.93,2.93,0,0,1,3.21,3.12,4.35,4.35,0,0,1-.1.9Zm.1-.74h5.25a1.27,1.27,0,0,0,0-.27,2.08,2.08,0,0,0-2.31-2.17A3,3,0,0,0,278.14,243.24Z"/><path class="af8f5c32-6024-474f-a395-33aadcb98a3e" d="M292.94,245.16a2.64,2.64,0,0,0-.06.46c0,.63.35,1,1.07,1a1.88,1.88,0,0,0,1.13-.38l.24.76a2.73,2.73,0,0,1-1.64.47,1.6,1.6,0,0,1-1.79-1.68,2.81,2.81,0,0,1,.05-.57l.86-4.34h-1.3l.15-.84H293l.32-1.62h1L294,240h2.24l-.17.84h-2.24Z"/><path class="af8f5c32-6024-474f-a395-33aadcb98a3e" d="M297.74,244.33A4.18,4.18,0,0,1,302,240a3,3,0,0,1,3.35,3.11,4.18,4.18,0,0,1-4.26,4.38A3,3,0,0,1,297.74,244.33Zm6.61-1.2a2.15,2.15,0,0,0-2.42-2.3,3.24,3.24,0,0,0-3.2,3.46,2.15,2.15,0,0,0,2.43,2.28A3.22,3.22,0,0,0,304.35,243.13Z"/><path class="af8f5c32-6024-474f-a395-33aadcb98a3e" d="M320,240l-5.38,8.32c-.91,1.4-1.6,1.83-2.66,1.83a2.38,2.38,0,0,1-1.75-.66l.53-.73a1.7,1.7,0,0,0,1.3.54c.63,0,1.12-.3,1.7-1.19l.51-.79L312.44,240h1l1.52,6.27,4-6.27Z"/><path class="af8f5c32-6024-474f-a395-33aadcb98a3e" d="M320.71,244.33A4.18,4.18,0,0,1,325,240a3,3,0,0,1,3.35,3.11,4.18,4.18,0,0,1-4.26,4.38A3,3,0,0,1,320.71,244.33Zm6.62-1.2a2.16,2.16,0,0,0-2.43-2.3,3.24,3.24,0,0,0-3.19,3.46,2.14,2.14,0,0,0,2.42,2.28A3.22,3.22,0,0,0,327.33,243.13Z"/><path class="af8f5c32-6024-474f-a395-33aadcb98a3e" d="M338.72,240l-1.47,7.36h-.95l.24-1.17a3.58,3.58,0,0,1-2.85,1.24,2.31,2.31,0,0,1-2.62-2.41,4,4,0,0,1,.09-.82L332,240h1l-.84,4.2a4,4,0,0,0-.07.66c0,1.06.62,1.68,1.88,1.68a2.88,2.88,0,0,0,3-2.58l.79-4Z"/><path class="af8f5c32-6024-474f-a395-33aadcb98a3e" d="M348.58,239.2l-.17.82h2.25l-.17.84h-2.22L347,247.38h-1l1.3-6.52H346l.15-.84h1.33l.18-.93a2.41,2.41,0,0,1,2.52-2.17,2.26,2.26,0,0,1,1.49.48l-.44.72a1.57,1.57,0,0,0-1.05-.36C349.28,237.76,348.79,238.21,348.58,239.2Z"/><path class="af8f5c32-6024-474f-a395-33aadcb98a3e" d="M351.4,244.33a4.18,4.18,0,0,1,4.26-4.37,3,3,0,0,1,3.35,3.11,4.18,4.18,0,0,1-4.26,4.38A3,3,0,0,1,351.4,244.33Zm6.61-1.2a2.15,2.15,0,0,0-2.42-2.3,3.23,3.23,0,0,0-3.19,3.46,2.14,2.14,0,0,0,2.42,2.28A3.22,3.22,0,0,0,358,243.13Z"/><path class="af8f5c32-6024-474f-a395-33aadcb98a3e" d="M366.48,240l-.18,1-.28,0c-1.57,0-2.62.9-3,2.73l-.75,3.74h-1l1.46-7.36h.95l-.25,1.34A3.3,3.3,0,0,1,366.48,240Z"/><path class="af8f5c32-6024-474f-a395-33aadcb98a3e" d="M385.76,242.33a5.71,5.71,0,0,1-.09.87l-.84,4.18h-1l.84-4.2a2.88,2.88,0,0,0,.07-.69c0-1-.6-1.63-1.82-1.63a2.76,2.76,0,0,0-2.86,2.46l-.81,4.06h-1l.84-4.2a4.13,4.13,0,0,0,.07-.67c0-1-.59-1.65-1.82-1.65a2.82,2.82,0,0,0-2.89,2.57l-.78,3.95h-1l1.46-7.36h.95l-.24,1.17a3.45,3.45,0,0,1,2.79-1.23,2.29,2.29,0,0,1,2.41,1.47,3.73,3.73,0,0,1,3.11-1.47C384.83,240,385.76,240.84,385.76,242.33Z"/><path class="af8f5c32-6024-474f-a395-33aadcb98a3e" d="M396.81,240l-1.47,7.36h-1l.24-1.16a3.77,3.77,0,0,1-2.87,1.23,3,3,0,0,1-3.21-3.12A4.15,4.15,0,0,1,392.7,240a2.76,2.76,0,0,1,2.8,1.6l.31-1.54Zm-1.66,3.11a2.15,2.15,0,0,0-2.42-2.3,3.24,3.24,0,0,0-3.19,3.46,2.14,2.14,0,0,0,2.42,2.28A3.21,3.21,0,0,0,395.15,243.13Z"/><path class="af8f5c32-6024-474f-a395-33aadcb98a3e" d="M403.41,243.06l2.65,4.32H404.9l-2.27-3.72-2.06,1.59-.42,2.13h-1L401.23,237h1l-1.4,7,5.07-4h1.42Z"/><path class="af8f5c32-6024-474f-a395-33aadcb98a3e" d="M409.81,240h1l-1.45,7.36h-1Zm.25-2.27a.75.75,0,0,1,.77-.76.66.66,0,0,1,.69.63.76.76,0,0,1-.79.78A.65.65,0,0,1,410.06,237.75Z"/><path class="af8f5c32-6024-474f-a395-33aadcb98a3e" d="M420.86,242.35a4.32,4.32,0,0,1-.09.85l-.84,4.18h-1l.84-4.2a4.13,4.13,0,0,0,.07-.67c0-1-.63-1.65-1.9-1.65a2.87,2.87,0,0,0-3,2.57l-.79,3.95h-1l1.46-7.36h.95l-.24,1.17a3.63,3.63,0,0,1,2.89-1.23A2.31,2.31,0,0,1,420.86,242.35Z"/><path class="af8f5c32-6024-474f-a395-33aadcb98a3e" d="M432,240l-1.29,6.47c-.52,2.6-1.89,3.68-4.29,3.68a4.68,4.68,0,0,1-3.28-1.11l.59-.75a3.86,3.86,0,0,0,2.76,1,2.89,2.89,0,0,0,3.2-2.63l.16-.82a3.79,3.79,0,0,1-2.94,1.26c-1.94,0-3.25-1.13-3.25-3a4.07,4.07,0,0,1,4.2-4.17,2.84,2.84,0,0,1,2.88,1.68l.3-1.62ZM430.34,243c0-1.34-.91-2.14-2.44-2.14a3.13,3.13,0,0,0-3.21,3.25c0,1.34.9,2.14,2.44,2.14A3.13,3.13,0,0,0,430.34,243Z"/><path class="af8f5c32-6024-474f-a395-33aadcb98a3e" d="M439,244.33a4.17,4.17,0,0,1,4.25-4.37,3,3,0,0,1,3.35,3.11,4.18,4.18,0,0,1-4.26,4.38A3,3,0,0,1,439,244.33Zm6.61-1.2a2.16,2.16,0,0,0-2.43-2.3,3.24,3.24,0,0,0-3.19,3.46,2.14,2.14,0,0,0,2.42,2.28A3.22,3.22,0,0,0,445.64,243.13Z"/><path class="af8f5c32-6024-474f-a395-33aadcb98a3e" d="M457,240l-1.47,7.36h-.95l.24-1.17a3.57,3.57,0,0,1-2.84,1.24,2.3,2.3,0,0,1-2.62-2.41,4,4,0,0,1,.08-.82l.84-4.2h1l-.85,4.2a4,4,0,0,0-.06.66c0,1.06.61,1.68,1.87,1.68a2.88,2.88,0,0,0,3-2.58l.78-4Z"/><path class="af8f5c32-6024-474f-a395-33aadcb98a3e" d="M464.58,240l-.18,1-.28,0c-1.57,0-2.62.9-3,2.73l-.74,3.74h-1l1.45-7.36h1l-.26,1.34A3.33,3.33,0,0,1,464.58,240Z"/><path class="af8f5c32-6024-474f-a395-33aadcb98a3e" d="M135.53,259.86l2.65,4.32H137l-2.27-3.72-2.06,1.59-.42,2.13h-1l2.08-10.39h1l-1.4,7,5.07-4h1.42Z"/><path class="af8f5c32-6024-474f-a395-33aadcb98a3e" d="M141.93,256.82h1l-1.45,7.36h-1Zm.25-2.27a.75.75,0,0,1,.77-.76.66.66,0,0,1,.69.63.76.76,0,0,1-.79.78A.65.65,0,0,1,142.18,254.55Z"/><path class="af8f5c32-6024-474f-a395-33aadcb98a3e" d="M154.09,253.79,152,264.18h-.95l.24-1.16a3.77,3.77,0,0,1-2.87,1.23,3,3,0,0,1-3.21-3.12,4.14,4.14,0,0,1,4.16-4.37,2.77,2.77,0,0,1,2.8,1.6l.91-4.57Zm-2.26,6.14a2.15,2.15,0,0,0-2.42-2.3,3.23,3.23,0,0,0-3.2,3.46,2.15,2.15,0,0,0,2.43,2.28A3.22,3.22,0,0,0,151.83,259.93Z"/><path class="af8f5c32-6024-474f-a395-33aadcb98a3e" d="M157.37,254.38h.88l-.79,3.7h-.75Z"/><path class="af8f5c32-6024-474f-a395-33aadcb98a3e" d="M158.92,263.36l.48-.79a4,4,0,0,0,2.55.82c1.42,0,2.19-.5,2.19-1.32,0-1.67-4.18-.52-4.18-3,0-1.4,1.26-2.3,3.2-2.3a4.49,4.49,0,0,1,2.49.69l-.42.79a3.73,3.73,0,0,0-2.16-.63c-1.36,0-2.13.55-2.13,1.35,0,1.71,4.18.54,4.18,3,0,1.45-1.31,2.29-3.27,2.29A4.69,4.69,0,0,1,158.92,263.36Z"/><path class="af8f5c32-6024-474f-a395-33aadcb98a3e" d="M171.54,263.36l.47-.79a4.09,4.09,0,0,0,2.55.82c1.42,0,2.19-.5,2.19-1.32,0-1.67-4.17-.52-4.17-3,0-1.4,1.26-2.3,3.19-2.3a4.47,4.47,0,0,1,2.49.69l-.42.79a3.7,3.7,0,0,0-2.15-.63c-1.36,0-2.13.55-2.13,1.35,0,1.71,4.17.54,4.17,3,0,1.45-1.3,2.29-3.26,2.29A4.65,4.65,0,0,1,171.54,263.36Z"/><path class="af8f5c32-6024-474f-a395-33aadcb98a3e" d="M181.82,262a2.64,2.64,0,0,0-.06.46c0,.63.35,1,1.06,1A1.9,1.9,0,0,0,184,263l.24.76a2.75,2.75,0,0,1-1.64.47,1.6,1.6,0,0,1-1.79-1.68,2.81,2.81,0,0,1,0-.57l.86-4.34h-1.31l.16-.84h1.31l.33-1.62h1l-.32,1.62h2.24l-.17.84h-2.24Z"/><path class="af8f5c32-6024-474f-a395-33aadcb98a3e" d="M188.41,256.82h1L188,264.18h-1Zm.25-2.27a.75.75,0,0,1,.77-.76.66.66,0,0,1,.69.63.76.76,0,0,1-.79.78A.65.65,0,0,1,188.66,254.55Z"/><path class="af8f5c32-6024-474f-a395-33aadcb98a3e" d="M191.7,261.13a4.18,4.18,0,0,1,4.28-4.37,3.06,3.06,0,0,1,2.9,1.47l-.84.49a2.26,2.26,0,0,0-2.14-1.09,3.24,3.24,0,0,0-3.21,3.46,2.16,2.16,0,0,0,2.45,2.28,2.86,2.86,0,0,0,2.33-1.06l.71.54a3.78,3.78,0,0,1-3.08,1.4C193,264.25,191.7,263,191.7,261.13Z"/><path class="af8f5c32-6024-474f-a395-33aadcb98a3e" d="M204.85,259.86l2.64,4.32h-1.16l-2.27-3.72L202,262.05l-.42,2.13h-1l2.07-10.39h1l-1.4,7,5.07-4h1.41Z"/><path class="af8f5c32-6024-474f-a395-33aadcb98a3e" d="M222.73,256.82l-1.47,7.36h-1l.24-1.17a3.56,3.56,0,0,1-2.84,1.24,2.31,2.31,0,0,1-2.62-2.41,4.83,4.83,0,0,1,.08-.82l.84-4.2h1l-.84,4.2a4,4,0,0,0-.07.66c0,1.06.61,1.68,1.87,1.68a2.88,2.88,0,0,0,3-2.58l.78-4Z"/><path class="af8f5c32-6024-474f-a395-33aadcb98a3e" d="M233.35,259.87a4.15,4.15,0,0,1-4.17,4.38,2.75,2.75,0,0,1-2.8-1.61l-.84,4.26h-1l2-10.08h1l-.24,1.17a3.74,3.74,0,0,1,2.87-1.23A3,3,0,0,1,233.35,259.87Zm-1,.06a2.15,2.15,0,0,0-2.42-2.3,3.22,3.22,0,0,0-3.18,3.46,2.14,2.14,0,0,0,2.42,2.28A3.21,3.21,0,0,0,232.34,259.93Z"/><path class="af8f5c32-6024-474f-a395-33aadcb98a3e" d="M242,262a2.64,2.64,0,0,0-.06.46c0,.63.35,1,1.06,1a1.9,1.9,0,0,0,1.14-.38l.24.76a2.75,2.75,0,0,1-1.64.47,1.61,1.61,0,0,1-1.8-1.68A2.83,2.83,0,0,1,241,262l.86-4.34H240.5l.16-.84H242l.33-1.62h1l-.32,1.62h2.24l-.17.84H242.8Z"/><path class="af8f5c32-6024-474f-a395-33aadcb98a3e" d="M246.75,261.13a4.18,4.18,0,0,1,4.25-4.37,3,3,0,0,1,3.35,3.11,4.18,4.18,0,0,1-4.26,4.38A3,3,0,0,1,246.75,261.13Zm6.61-1.2a2.16,2.16,0,0,0-2.43-2.3,3.23,3.23,0,0,0-3.19,3.46,2.14,2.14,0,0,0,2.42,2.28A3.22,3.22,0,0,0,253.36,259.93Z"/><path class="af8f5c32-6024-474f-a395-33aadcb98a3e" d="M263,262a2.64,2.64,0,0,0-.06.46c0,.63.35,1,1.07,1a1.88,1.88,0,0,0,1.13-.38l.24.76a2.73,2.73,0,0,1-1.64.47,1.6,1.6,0,0,1-1.79-1.68,2.81,2.81,0,0,1,0-.57l.86-4.34h-1.3l.15-.84H263l.32-1.62h1l-.32,1.62h2.24l-.17.84h-2.24Z"/><path class="af8f5c32-6024-474f-a395-33aadcb98a3e" d="M275.79,259.15a4.14,4.14,0,0,1-.09.84l-.84,4.19h-1l.84-4.2a4.13,4.13,0,0,0,.07-.67c0-1.05-.63-1.65-1.91-1.65a2.87,2.87,0,0,0-3,2.57l-.78,3.95h-1l2.07-10.39h1l-.82,4.13a3.58,3.58,0,0,1,2.81-1.16C274.82,256.76,275.79,257.66,275.79,259.15Z"/><path class="af8f5c32-6024-474f-a395-33aadcb98a3e" d="M279.58,260.78a1.46,1.46,0,0,0,0,.29c0,1.47.84,2.3,2.54,2.3a3.35,3.35,0,0,0,2.41-.92l.45.71a4.23,4.23,0,0,1-2.95,1.09c-2.13,0-3.43-1.2-3.43-3.13a4.1,4.1,0,0,1,4.08-4.36,2.94,2.94,0,0,1,3.21,3.12,5.16,5.16,0,0,1-.1.9Zm.09-.74h5.26a2.53,2.53,0,0,0,0-.27,2.08,2.08,0,0,0-2.31-2.17A3,3,0,0,0,279.67,260Z"/><path class="af8f5c32-6024-474f-a395-33aadcb98a3e" d="M289.61,256.82h1l-1.46,7.36h-1Zm.26-2.27a.75.75,0,0,1,.77-.76.65.65,0,0,1,.68.63.76.76,0,0,1-.78.78A.65.65,0,0,1,289.87,254.55Z"/><path class="af8f5c32-6024-474f-a395-33aadcb98a3e" d="M298.16,256.76l-.19,1-.28,0c-1.57,0-2.62.9-3,2.73l-.74,3.74h-1l1.46-7.36h.95l-.25,1.34A3.33,3.33,0,0,1,298.16,256.76Z"/><path class="af8f5c32-6024-474f-a395-33aadcb98a3e" d="M303.57,263.36l.48-.79a4,4,0,0,0,2.55.82c1.41,0,2.18-.5,2.18-1.32,0-1.67-4.17-.52-4.17-3,0-1.4,1.26-2.3,3.19-2.3a4.47,4.47,0,0,1,2.49.69l-.42.79a3.7,3.7,0,0,0-2.15-.63c-1.36,0-2.13.55-2.13,1.35,0,1.71,4.17.54,4.17,3,0,1.45-1.3,2.29-3.26,2.29A4.67,4.67,0,0,1,303.57,263.36Z"/><path class="af8f5c32-6024-474f-a395-33aadcb98a3e" d="M313.85,262a2.64,2.64,0,0,0-.06.46c0,.63.35,1,1.07,1A1.88,1.88,0,0,0,316,263l.24.76a2.73,2.73,0,0,1-1.64.47,1.6,1.6,0,0,1-1.79-1.68,2.81,2.81,0,0,1,.05-.57l.86-4.34h-1.3l.15-.84h1.32l.32-1.62h1l-.32,1.62h2.24l-.17.84H314.7Z"/><path class="af8f5c32-6024-474f-a395-33aadcb98a3e" d="M327.1,256.82l-1.48,7.36h-.95l.24-1.17a3.56,3.56,0,0,1-2.84,1.24,2.3,2.3,0,0,1-2.62-2.41,4.83,4.83,0,0,1,.08-.82l.84-4.2h1l-.84,4.2a3.16,3.16,0,0,0-.07.66c0,1.06.61,1.68,1.87,1.68a2.88,2.88,0,0,0,3-2.58l.78-4Z"/><path class="af8f5c32-6024-474f-a395-33aadcb98a3e" d="M338.25,253.79l-2.07,10.39h-.95l.24-1.16a3.78,3.78,0,0,1-2.88,1.23,3,3,0,0,1-3.2-3.12,4.14,4.14,0,0,1,4.16-4.37,2.77,2.77,0,0,1,2.8,1.6l.91-4.57ZM336,259.93a2.15,2.15,0,0,0-2.42-2.3,3.23,3.23,0,0,0-3.2,3.46,2.14,2.14,0,0,0,2.42,2.28A3.22,3.22,0,0,0,336,259.93Z"/><path class="af8f5c32-6024-474f-a395-33aadcb98a3e" d="M341.46,256.82h1L341,264.18h-1Zm.25-2.27a.75.75,0,0,1,.77-.76.65.65,0,0,1,.68.63.76.76,0,0,1-.78.78A.65.65,0,0,1,341.71,254.55Z"/><path class="af8f5c32-6024-474f-a395-33aadcb98a3e" d="M345.74,260.78c0,.1,0,.2,0,.29,0,1.47.84,2.3,2.53,2.3a3.35,3.35,0,0,0,2.41-.92l.45.71a4.21,4.21,0,0,1-2.94,1.09c-2.13,0-3.43-1.2-3.43-3.13a4.1,4.1,0,0,1,4.07-4.36,2.93,2.93,0,0,1,3.21,3.12,4.35,4.35,0,0,1-.1.9Zm.1-.74h5.25a2.53,2.53,0,0,0,0-.27,2.08,2.08,0,0,0-2.31-2.17A3,3,0,0,0,345.84,260Z"/><path class="af8f5c32-6024-474f-a395-33aadcb98a3e" d="M353.54,263.36l.47-.79a4,4,0,0,0,2.55.82c1.42,0,2.19-.5,2.19-1.32,0-1.67-4.18-.52-4.18-3,0-1.4,1.26-2.3,3.2-2.3a4.47,4.47,0,0,1,2.49.69l-.42.79a3.73,3.73,0,0,0-2.16-.63c-1.36,0-2.13.55-2.13,1.35,0,1.71,4.18.54,4.18,3,0,1.45-1.31,2.29-3.27,2.29A4.64,4.64,0,0,1,353.54,263.36Z"/><path class="af8f5c32-6024-474f-a395-33aadcb98a3e" d="M375.73,253.79l-2.07,10.39h-1l.23-1.16a3.77,3.77,0,0,1-2.87,1.23,3,3,0,0,1-3.21-3.12,4.15,4.15,0,0,1,4.16-4.37,2.78,2.78,0,0,1,2.81,1.6l.91-4.57Zm-2.25,6.14a2.16,2.16,0,0,0-2.43-2.3,3.23,3.23,0,0,0-3.19,3.46,2.14,2.14,0,0,0,2.42,2.28A3.22,3.22,0,0,0,373.48,259.93Z"/><path class="af8f5c32-6024-474f-a395-33aadcb98a3e" d="M385.59,256.82l-1.47,7.36h-1l.24-1.17a3.56,3.56,0,0,1-2.84,1.24,2.31,2.31,0,0,1-2.62-2.41A4.83,4.83,0,0,1,378,261l.84-4.2h1L379,261a4,4,0,0,0-.07.66c0,1.06.61,1.68,1.87,1.68a2.88,2.88,0,0,0,3-2.58l.78-4Z"/><path class="af8f5c32-6024-474f-a395-33aadcb98a3e" d="M393.13,256.76l-.18,1-.28,0c-1.57,0-2.62.9-3,2.73l-.74,3.74h-1l1.46-7.36h.95l-.25,1.34A3.3,3.3,0,0,1,393.13,256.76Z"/><path class="af8f5c32-6024-474f-a395-33aadcb98a3e" d="M396,256.82h1l-1.45,7.36h-1Zm.25-2.27a.75.75,0,0,1,.77-.76.66.66,0,0,1,.69.63.76.76,0,0,1-.79.78A.65.65,0,0,1,396.21,254.55Z"/><path class="af8f5c32-6024-474f-a395-33aadcb98a3e" d="M407,259.15a4.14,4.14,0,0,1-.09.84l-.84,4.19h-1l.84-4.2a4.13,4.13,0,0,0,.07-.67c0-1.05-.63-1.65-1.91-1.65a2.87,2.87,0,0,0-3,2.57l-.78,3.95h-1l1.45-7.36h1l-.24,1.17a3.62,3.62,0,0,1,2.88-1.23C406,256.76,407,257.66,407,259.15Z"/><path class="af8f5c32-6024-474f-a395-33aadcb98a3e" d="M418.16,256.82l-1.28,6.47c-.52,2.6-1.9,3.68-4.29,3.68a4.66,4.66,0,0,1-3.28-1.11l.59-.75a3.86,3.86,0,0,0,2.76,1,2.89,2.89,0,0,0,3.19-2.64l.17-.81a3.79,3.79,0,0,1-2.94,1.26c-1.95,0-3.25-1.13-3.25-3a4.07,4.07,0,0,1,4.2-4.17,2.82,2.82,0,0,1,2.87,1.68l.31-1.62Zm-1.68,2.95c0-1.34-.91-2.14-2.43-2.14a3.12,3.12,0,0,0-3.21,3.25c0,1.34.9,2.14,2.44,2.14A3.13,3.13,0,0,0,416.48,259.77Z"/><path class="af8f5c32-6024-474f-a395-33aadcb98a3e" d="M426.84,262a2.64,2.64,0,0,0-.06.46c0,.63.35,1,1.07,1A1.88,1.88,0,0,0,429,263l.24.76a2.73,2.73,0,0,1-1.64.47,1.61,1.61,0,0,1-1.79-1.68,2.26,2.26,0,0,1,.06-.57l.85-4.34h-1.3l.15-.84h1.32l.32-1.62h1l-.32,1.62h2.24l-.16.84h-2.25Z"/><path class="af8f5c32-6024-474f-a395-33aadcb98a3e" d="M439.67,259.15a4.14,4.14,0,0,1-.09.84l-.84,4.19h-1l.84-4.2a4.13,4.13,0,0,0,.07-.67c0-1.05-.63-1.65-1.91-1.65a2.86,2.86,0,0,0-3,2.57l-.79,3.95h-1l2.07-10.39h1l-.82,4.13a3.58,3.58,0,0,1,2.81-1.16C438.7,256.76,439.67,257.66,439.67,259.15Z"/><path class="af8f5c32-6024-474f-a395-33aadcb98a3e" d="M443.46,260.78a1.46,1.46,0,0,0,0,.29c0,1.47.84,2.3,2.54,2.3a3.35,3.35,0,0,0,2.41-.92l.45.71a4.22,4.22,0,0,1-2.94,1.09c-2.13,0-3.44-1.2-3.44-3.13a4.11,4.11,0,0,1,4.08-4.36,2.93,2.93,0,0,1,3.21,3.12,4.35,4.35,0,0,1-.1.9Zm.1-.74h5.25a2.53,2.53,0,0,0,0-.27,2.08,2.08,0,0,0-2.31-2.17A3,3,0,0,0,443.56,260Z"/><path class="af8f5c32-6024-474f-a395-33aadcb98a3e" d="M451.25,263.36l.48-.79a4,4,0,0,0,2.55.82c1.41,0,2.19-.5,2.19-1.32,0-1.67-4.18-.52-4.18-3,0-1.4,1.26-2.3,3.2-2.3a4.49,4.49,0,0,1,2.49.69l-.42.79a3.73,3.73,0,0,0-2.16-.63c-1.36,0-2.13.55-2.13,1.35,0,1.71,4.18.54,4.18,3,0,1.45-1.31,2.29-3.27,2.29A4.69,4.69,0,0,1,451.25,263.36Z"/><path class="af8f5c32-6024-474f-a395-33aadcb98a3e" d="M460.86,260.78a1.46,1.46,0,0,0,0,.29c0,1.47.85,2.3,2.54,2.3a3.35,3.35,0,0,0,2.41-.92l.45.71a4.21,4.21,0,0,1-2.94,1.09c-2.13,0-3.44-1.2-3.44-3.13a4.11,4.11,0,0,1,4.08-4.36,2.93,2.93,0,0,1,3.21,3.12,4.35,4.35,0,0,1-.1.9Zm.1-.74h5.25a2.53,2.53,0,0,0,0-.27,2.07,2.07,0,0,0-2.31-2.17A3,3,0,0,0,461,260Z"/><path class="af8f5c32-6024-474f-a395-33aadcb98a3e" d="M133.24,278.76a2.58,2.58,0,0,0-.05.46c0,.63.35,1,1.06,1a1.9,1.9,0,0,0,1.14-.38l.23.76a2.7,2.7,0,0,1-1.63.47,1.61,1.61,0,0,1-1.8-1.68,2.83,2.83,0,0,1,.06-.57l.85-4.34h-1.3l.15-.84h1.32l.32-1.62h1l-.32,1.62h2.24l-.17.84H134.1Z"/><path class="af8f5c32-6024-474f-a395-33aadcb98a3e" d="M143.56,273.56l-.18,1-.28,0c-1.57,0-2.62.9-3,2.73l-.75,3.74h-1l1.46-7.36h.95l-.25,1.34A3.31,3.31,0,0,1,143.56,273.56Z"/><path class="af8f5c32-6024-474f-a395-33aadcb98a3e" d="M152.92,273.62l-5.38,8.32c-.91,1.4-1.6,1.83-2.66,1.83a2.42,2.42,0,0,1-1.76-.66l.54-.73a1.7,1.7,0,0,0,1.3.54c.63,0,1.12-.3,1.69-1.19l.52-.79-1.83-7.32h1l1.52,6.27,4-6.27Z"/><path class="af8f5c32-6024-474f-a395-33aadcb98a3e" d="M155.35,273.62h1L154.89,281h-1Zm.25-2.27a.75.75,0,0,1,.77-.76.66.66,0,0,1,.69.63.76.76,0,0,1-.79.78A.65.65,0,0,1,155.6,271.35Z"/><path class="af8f5c32-6024-474f-a395-33aadcb98a3e" d="M166.4,276a4.32,4.32,0,0,1-.09.85l-.84,4.18h-1l.84-4.2a4.13,4.13,0,0,0,.07-.67c0-1.05-.63-1.65-1.91-1.65a2.87,2.87,0,0,0-3,2.57l-.79,4h-1l1.45-7.36h1l-.24,1.17a3.62,3.62,0,0,1,2.88-1.23C165.43,273.56,166.4,274.46,166.4,276Z"/><path class="af8f5c32-6024-474f-a395-33aadcb98a3e" d="M177.56,273.62l-1.29,6.47c-.52,2.6-1.89,3.68-4.29,3.68a4.66,4.66,0,0,1-3.28-1.11l.59-.75a3.86,3.86,0,0,0,2.76,1,2.89,2.89,0,0,0,3.2-2.63l.16-.82a3.79,3.79,0,0,1-2.94,1.26c-1.95,0-3.25-1.13-3.25-3a4.07,4.07,0,0,1,4.2-4.17,2.84,2.84,0,0,1,2.88,1.68l.3-1.62Zm-1.69,2.95c0-1.34-.91-2.14-2.43-2.14a3.12,3.12,0,0,0-3.21,3.25c0,1.34.9,2.14,2.44,2.14A3.12,3.12,0,0,0,175.87,276.57Z"/><path class="af8f5c32-6024-474f-a395-33aadcb98a3e" d="M186.23,278.76a2.58,2.58,0,0,0,0,.46c0,.63.35,1,1.06,1a1.9,1.9,0,0,0,1.14-.38l.23.76a2.71,2.71,0,0,1-1.64.47,1.61,1.61,0,0,1-1.79-1.68,2.83,2.83,0,0,1,.06-.57l.85-4.34h-1.3l.15-.84h1.32l.32-1.62h1l-.33,1.62h2.25l-.17.84h-2.24Z"/><path class="af8f5c32-6024-474f-a395-33aadcb98a3e" d="M192.83,273.62h1L192.36,281h-1Zm.25-2.27a.75.75,0,0,1,.77-.76.65.65,0,0,1,.68.63.76.76,0,0,1-.78.78A.65.65,0,0,1,193.08,271.35Z"/><path class="af8f5c32-6024-474f-a395-33aadcb98a3e" d="M209.27,275.93a4.74,4.74,0,0,1-.1.87l-.84,4.18h-1l.85-4.2a3.41,3.41,0,0,0,.07-.68c0-1-.61-1.64-1.83-1.64a2.74,2.74,0,0,0-2.85,2.46l-.82,4.06h-1l.84-4.2a4.13,4.13,0,0,0,.07-.67c0-1.05-.59-1.65-1.82-1.65A2.83,2.83,0,0,0,198,277l-.78,4h-1l1.45-7.36h1l-.23,1.17a3.43,3.43,0,0,1,2.78-1.23,2.29,2.29,0,0,1,2.41,1.47,3.74,3.74,0,0,1,3.11-1.47C208.33,273.56,209.27,274.44,209.27,275.93Z"/><path class="af8f5c32-6024-474f-a395-33aadcb98a3e" d="M213,277.58c0,.1,0,.2,0,.29,0,1.48.84,2.3,2.53,2.3a3.34,3.34,0,0,0,2.41-.92l.45.71a4.21,4.21,0,0,1-2.94,1.09c-2.13,0-3.43-1.2-3.43-3.13a4.1,4.1,0,0,1,4.07-4.36,2.93,2.93,0,0,1,3.21,3.12,4.35,4.35,0,0,1-.1.9Zm.1-.74h5.25a1.27,1.27,0,0,0,0-.27,2.08,2.08,0,0,0-2.32-2.17A3,3,0,0,0,213.14,276.84Z"/><path class="af8f5c32-6024-474f-a395-33aadcb98a3e" d="M220.84,280.16l.47-.79a4.07,4.07,0,0,0,2.55.82c1.42,0,2.19-.49,2.19-1.32,0-1.67-4.18-.52-4.18-3,0-1.4,1.27-2.3,3.2-2.3a4.47,4.47,0,0,1,2.49.69l-.42.79a3.71,3.71,0,0,0-2.16-.63c-1.35,0-2.12.55-2.12,1.35,0,1.71,4.17.55,4.17,3,0,1.45-1.3,2.29-3.26,2.29A4.65,4.65,0,0,1,220.84,280.16Z"/><path class="af8f5c32-6024-474f-a395-33aadcb98a3e" d="M229,280.33a.78.78,0,0,1,.78-.8.71.71,0,0,1,.72.73.78.78,0,0,1-.77.79A.72.72,0,0,1,229,280.33Z"/><path class="af8f5c32-6024-474f-a395-33aadcb98a3e" d="M240.43,271.18h1l-2,9.8h-1Z"/><path class="af8f5c32-6024-474f-a395-33aadcb98a3e" d="M245.13,278.76a2.64,2.64,0,0,0-.06.46c0,.63.35,1,1.07,1a1.88,1.88,0,0,0,1.13-.38l.24.76a2.73,2.73,0,0,1-1.64.47,1.6,1.6,0,0,1-1.79-1.68,2.81,2.81,0,0,1,0-.57l.86-4.34h-1.3l.15-.84h1.32l.32-1.62h1l-.32,1.62h2.24l-.17.84H246Z"/><path class="af8f5c32-6024-474f-a395-33aadcb98a3e" d="M249.48,280.16l.48-.79a4,4,0,0,0,2.55.82c1.41,0,2.18-.49,2.18-1.32,0-1.67-4.17-.52-4.17-3,0-1.4,1.26-2.3,3.19-2.3a4.53,4.53,0,0,1,2.5.69l-.43.79a3.7,3.7,0,0,0-2.15-.63c-1.36,0-2.13.55-2.13,1.35,0,1.71,4.17.55,4.17,3,0,1.45-1.3,2.29-3.26,2.29A4.67,4.67,0,0,1,249.48,280.16Z"/><path class="af8f5c32-6024-474f-a395-33aadcb98a3e" d="M262.1,280.16l.47-.79a4,4,0,0,0,2.55.82c1.42,0,2.19-.49,2.19-1.32,0-1.67-4.18-.52-4.18-3,0-1.4,1.26-2.3,3.2-2.3a4.49,4.49,0,0,1,2.49.69l-.42.79a3.73,3.73,0,0,0-2.16-.63c-1.36,0-2.13.55-2.13,1.35,0,1.71,4.18.55,4.18,3,0,1.45-1.31,2.29-3.27,2.29A4.64,4.64,0,0,1,262.1,280.16Z"/><path class="af8f5c32-6024-474f-a395-33aadcb98a3e" d="M272.23,273.62h1L271.77,281h-1Zm.25-2.27a.76.76,0,0,1,.77-.76.66.66,0,0,1,.69.63.76.76,0,0,1-.78.78A.66.66,0,0,1,272.48,271.35Z"/><path class="af8f5c32-6024-474f-a395-33aadcb98a3e" d="M288.67,275.93a5.71,5.71,0,0,1-.09.87l-.84,4.18h-1l.84-4.2a2.81,2.81,0,0,0,.07-.68c0-1-.6-1.64-1.82-1.64a2.76,2.76,0,0,0-2.86,2.46l-.81,4.06h-1l.84-4.2a4.13,4.13,0,0,0,.07-.67c0-1.05-.59-1.65-1.82-1.65a2.83,2.83,0,0,0-2.89,2.57l-.78,4h-1l1.46-7.36H278l-.24,1.17a3.45,3.45,0,0,1,2.79-1.23A2.29,2.29,0,0,1,283,275a3.73,3.73,0,0,1,3.11-1.47C287.74,273.56,288.67,274.44,288.67,275.93Z"/><path class="af8f5c32-6024-474f-a395-33aadcb98a3e" d="M299.76,276.67a4.15,4.15,0,0,1-4.17,4.38,2.76,2.76,0,0,1-2.81-1.61l-.84,4.26h-1l2-10.08h.95l-.23,1.17a3.74,3.74,0,0,1,2.87-1.23A3,3,0,0,1,299.76,276.67Zm-1,.06a2.15,2.15,0,0,0-2.42-2.3,3.21,3.21,0,0,0-3.18,3.46,2.14,2.14,0,0,0,2.42,2.28A3.21,3.21,0,0,0,298.75,276.73Z"/><path class="af8f5c32-6024-474f-a395-33aadcb98a3e" d="M304.11,270.59h1L303,281h-1Z"/><path class="af8f5c32-6024-474f-a395-33aadcb98a3e" d="M314.51,273.62l-5.37,8.32c-.91,1.4-1.6,1.83-2.67,1.83a2.41,2.41,0,0,1-1.75-.66l.54-.73a1.7,1.7,0,0,0,1.3.54c.63,0,1.12-.3,1.69-1.19l.52-.79-1.83-7.32h1l1.52,6.27,4-6.27Z"/><path class="af8f5c32-6024-474f-a395-33aadcb98a3e" d="M328.47,276.67a4.15,4.15,0,0,1-4.17,4.38,2.74,2.74,0,0,1-2.82-1.68l-.32,1.61h-1l2.07-10.39h1l-.83,4.13a3.74,3.74,0,0,1,2.8-1.16A3,3,0,0,1,328.47,276.67Zm-1,.06a2.15,2.15,0,0,0-2.42-2.3,3.22,3.22,0,0,0-3.18,3.46,2.15,2.15,0,0,0,2.43,2.28A3.2,3.2,0,0,0,327.46,276.73Z"/><path class="af8f5c32-6024-474f-a395-33aadcb98a3e" d="M331.67,277.58c0,.1,0,.2,0,.29,0,1.48.84,2.3,2.54,2.3a3.35,3.35,0,0,0,2.41-.92l.44.71a4.19,4.19,0,0,1-2.94,1.09c-2.13,0-3.43-1.2-3.43-3.13a4.1,4.1,0,0,1,4.08-4.36,2.93,2.93,0,0,1,3.2,3.12,5.18,5.18,0,0,1-.09.9Zm.1-.74H337a2.53,2.53,0,0,0,0-.27,2.08,2.08,0,0,0-2.31-2.17A3,3,0,0,0,331.77,276.84Z"/><path class="af8f5c32-6024-474f-a395-33aadcb98a3e" d="M347.78,273.62l-5.38,8.32c-.91,1.4-1.6,1.83-2.66,1.83a2.38,2.38,0,0,1-1.75-.66l.53-.73a1.7,1.7,0,0,0,1.3.54c.63,0,1.12-.3,1.7-1.19l.52-.79-1.84-7.32h1l1.53,6.27,4-6.27Z"/><path class="af8f5c32-6024-474f-a395-33aadcb98a3e" d="M348.47,277.93a4.18,4.18,0,0,1,4.26-4.37,3,3,0,0,1,3.35,3.11,4.18,4.18,0,0,1-4.26,4.38A3,3,0,0,1,348.47,277.93Zm6.62-1.2a2.16,2.16,0,0,0-2.43-2.3,3.24,3.24,0,0,0-3.19,3.46,2.14,2.14,0,0,0,2.42,2.28A3.22,3.22,0,0,0,355.09,276.73Z"/><path class="af8f5c32-6024-474f-a395-33aadcb98a3e" d="M366.06,276a4.27,4.27,0,0,1-.08.85l-.84,4.18h-1l.84-4.2a3.25,3.25,0,0,0,.07-.67c0-1.05-.63-1.65-1.9-1.65a2.87,2.87,0,0,0-3,2.57l-.78,4h-1l1.46-7.36h.95l-.24,1.17a3.66,3.66,0,0,1,2.89-1.23C365.1,273.56,366.06,274.46,366.06,276Z"/><path class="af8f5c32-6024-474f-a395-33aadcb98a3e" d="M377.73,270.59,375.65,281h-.95l.24-1.16a3.77,3.77,0,0,1-2.87,1.23,3,3,0,0,1-3.21-3.12,4.14,4.14,0,0,1,4.16-4.37,2.77,2.77,0,0,1,2.8,1.6l.91-4.57Zm-2.26,6.14a2.15,2.15,0,0,0-2.42-2.3,3.24,3.24,0,0,0-3.2,3.46,2.15,2.15,0,0,0,2.43,2.28A3.22,3.22,0,0,0,375.47,276.73Z"/><path class="af8f5c32-6024-474f-a395-33aadcb98a3e" d="M384.12,277.93a4.18,4.18,0,0,1,4.26-4.37,3,3,0,0,1,3.34,3.11,4.18,4.18,0,0,1-4.25,4.38A3,3,0,0,1,384.12,277.93Zm6.61-1.2a2.15,2.15,0,0,0-2.42-2.3,3.24,3.24,0,0,0-3.2,3.46,2.15,2.15,0,0,0,2.43,2.28A3.22,3.22,0,0,0,390.73,276.73Z"/><path class="af8f5c32-6024-474f-a395-33aadcb98a3e" d="M402.13,273.62,400.66,281h-1l.24-1.17a3.56,3.56,0,0,1-2.84,1.24,2.31,2.31,0,0,1-2.62-2.41,4.83,4.83,0,0,1,.08-.82l.84-4.2h1l-.84,4.2a4,4,0,0,0-.07.66c0,1.06.61,1.68,1.87,1.68a2.88,2.88,0,0,0,3-2.58l.78-4Z"/><path class="af8f5c32-6024-474f-a395-33aadcb98a3e" d="M409.67,273.56l-.18,1-.28,0c-1.57,0-2.62.9-3,2.73l-.75,3.74h-1l1.46-7.36h.95l-.25,1.34A3.3,3.3,0,0,1,409.67,273.56Z"/><path class="af8f5c32-6024-474f-a395-33aadcb98a3e" d="M416.79,277.58c0,.1,0,.2,0,.29,0,1.48.84,2.3,2.54,2.3a3.35,3.35,0,0,0,2.41-.92l.44.71a4.19,4.19,0,0,1-2.94,1.09c-2.13,0-3.43-1.2-3.43-3.13a4.1,4.1,0,0,1,4.08-4.36,2.93,2.93,0,0,1,3.2,3.12,5.18,5.18,0,0,1-.09.9Zm.1-.74h5.26a2.53,2.53,0,0,0,0-.27,2.08,2.08,0,0,0-2.31-2.17A3,3,0,0,0,416.89,276.84Z"/><path class="af8f5c32-6024-474f-a395-33aadcb98a3e" d="M428.79,277.24,431,281H429.9l-1.75-3.06-3,3.06H424l3.71-3.81-2.05-3.55h1.06l1.65,2.88,2.77-2.88h1.15Z"/><path class="af8f5c32-6024-474f-a395-33aadcb98a3e" d="M442,276.67a4.15,4.15,0,0,1-4.18,4.38,2.75,2.75,0,0,1-2.8-1.61l-.84,4.26h-1l2-10.08h1l-.24,1.17a3.74,3.74,0,0,1,2.87-1.23A3,3,0,0,1,442,276.67Zm-1,.06a2.16,2.16,0,0,0-2.43-2.3,3.22,3.22,0,0,0-3.18,3.46,2.15,2.15,0,0,0,2.43,2.28A3.21,3.21,0,0,0,441,276.73Z"/><path class="af8f5c32-6024-474f-a395-33aadcb98a3e" d="M445.16,277.58a1.46,1.46,0,0,0,0,.29c0,1.48.85,2.3,2.54,2.3a3.35,3.35,0,0,0,2.41-.92l.45.71a4.22,4.22,0,0,1-2.94,1.09c-2.13,0-3.44-1.2-3.44-3.13a4.11,4.11,0,0,1,4.08-4.36,2.93,2.93,0,0,1,3.21,3.12,4.35,4.35,0,0,1-.1.9Zm.1-.74h5.25a2.53,2.53,0,0,0,0-.27,2.08,2.08,0,0,0-2.31-2.17A3,3,0,0,0,445.26,276.84Z"/><path class="af8f5c32-6024-474f-a395-33aadcb98a3e" d="M453.67,277.93a4.18,4.18,0,0,1,4.29-4.37,3.08,3.08,0,0,1,2.9,1.47l-.85.49a2.26,2.26,0,0,0-2.14-1.09,3.24,3.24,0,0,0-3.21,3.46,2.16,2.16,0,0,0,2.46,2.28,2.85,2.85,0,0,0,2.32-1.06l.72.54a3.82,3.82,0,0,1-3.09,1.4C455,281.05,453.67,279.82,453.67,277.93Z"/><path class="af8f5c32-6024-474f-a395-33aadcb98a3e" d="M463,276.75h3.67l-.17.87H462.8Z"/><path class="af8f5c32-6024-474f-a395-33aadcb98a3e" d="M271.54,295.56a2.64,2.64,0,0,0-.06.46c0,.63.35,1,1.07,1a1.88,1.88,0,0,0,1.13-.38l.24.76a2.73,2.73,0,0,1-1.64.47,1.61,1.61,0,0,1-1.79-1.68,2.26,2.26,0,0,1,.06-.57l.85-4.34h-1.3l.15-.84h1.32l.32-1.62h1l-.32,1.62h2.24l-.16.84h-2.25Z"/><path class="af8f5c32-6024-474f-a395-33aadcb98a3e" d="M284.61,290.42l-1.48,7.36h-.95l.24-1.16a3.77,3.77,0,0,1-2.87,1.23,3,3,0,0,1-3.21-3.12,4.15,4.15,0,0,1,4.16-4.37,2.76,2.76,0,0,1,2.8,1.6l.31-1.54ZM283,293.53a2.15,2.15,0,0,0-2.42-2.3,3.23,3.23,0,0,0-3.19,3.46,2.14,2.14,0,0,0,2.42,2.28A3.22,3.22,0,0,0,283,293.53Z"/><path class="af8f5c32-6024-474f-a395-33aadcb98a3e" d="M288.55,295.56a2.64,2.64,0,0,0-.06.46c0,.63.35,1,1.07,1a1.88,1.88,0,0,0,1.13-.38l.24.76a2.73,2.73,0,0,1-1.64.47,1.61,1.61,0,0,1-1.79-1.68,2.26,2.26,0,0,1,.06-.57l.85-4.34h-1.3l.15-.84h1.32l.32-1.62h1l-.32,1.62h2.24l-.16.84H289.4Z"/><path class="af8f5c32-6024-474f-a395-33aadcb98a3e" d="M295.14,290.42h1l-1.46,7.36h-1Zm.26-2.27a.75.75,0,0,1,.77-.76.65.65,0,0,1,.68.63.76.76,0,0,1-.78.78A.65.65,0,0,1,295.4,288.15Z"/><path class="af8f5c32-6024-474f-a395-33aadcb98a3e" d="M298.43,294.73a4.18,4.18,0,0,1,4.26-4.37,3,3,0,0,1,3.35,3.11,4.18,4.18,0,0,1-4.26,4.38A3,3,0,0,1,298.43,294.73Zm6.61-1.2a2.15,2.15,0,0,0-2.42-2.3,3.24,3.24,0,0,0-3.19,3.46,2.14,2.14,0,0,0,2.42,2.28A3.21,3.21,0,0,0,305,293.53Z"/><path class="af8f5c32-6024-474f-a395-33aadcb98a3e" d="M316,292.75a5.18,5.18,0,0,1-.08.85l-.84,4.18h-1l.84-4.2a4.13,4.13,0,0,0,.07-.67c0-1.05-.63-1.65-1.9-1.65a2.87,2.87,0,0,0-3,2.57l-.78,3.95h-1l1.46-7.36h.95l-.24,1.17a3.64,3.64,0,0,1,2.89-1.23A2.31,2.31,0,0,1,316,292.75Z"/><path class="af8f5c32-6024-474f-a395-33aadcb98a3e" d="M318.07,297l.48-.79a4,4,0,0,0,2.55.82c1.41,0,2.19-.5,2.19-1.32,0-1.67-4.18-.52-4.18-3,0-1.4,1.26-2.3,3.19-2.3a4.5,4.5,0,0,1,2.5.69l-.42.79a3.73,3.73,0,0,0-2.16-.63c-1.36,0-2.13.55-2.13,1.35,0,1.71,4.18.55,4.18,3,0,1.45-1.31,2.29-3.27,2.29A4.69,4.69,0,0,1,318.07,297Z"/><path class="af8f5c32-6024-474f-a395-33aadcb98a3e" d="M326.24,297.13a.78.78,0,0,1,.78-.8.71.71,0,0,1,.72.73.78.78,0,0,1-.78.79A.72.72,0,0,1,326.24,297.13Z"/><path class="af8f5c32-6024-474f-a395-33aadcb98a3e" d="M214.28,351.77l.81-1.82a7,7,0,0,0,4.16,1.39c2,0,2.79-.7,2.79-1.64,0-2.72-7.49-.94-7.49-5.62,0-2,1.62-3.76,5.07-3.76a8,8,0,0,1,4.2,1.12l-.74,1.81a7,7,0,0,0-3.47-1c-2,0-2.74.76-2.74,1.71,0,2.69,7.47.94,7.47,5.57,0,2-1.64,3.74-5.09,3.74A8.1,8.1,0,0,1,214.28,351.77Z"/><path class="af8f5c32-6024-474f-a395-33aadcb98a3e" d="M235.84,347.47v5.63h-2.12v-1.17a3.42,3.42,0,0,1-3,1.3c-2.19,0-3.58-1.21-3.58-2.88s1.08-2.86,4-2.86h2.48v-.15c0-1.31-.79-2.09-2.39-2.09a4.74,4.74,0,0,0-2.92,1l-.88-1.64a6.78,6.78,0,0,1,4.07-1.19C234.24,343.38,235.84,344.69,235.84,347.47Zm-2.25,2.63V349h-2.32c-1.53,0-1.94.58-1.94,1.28s.68,1.33,1.83,1.33A2.44,2.44,0,0,0,233.59,350.1Z"/><path class="af8f5c32-6024-474f-a395-33aadcb98a3e" d="M245.64,343.38v2.14a3.49,3.49,0,0,0-.53,0c-1.71,0-2.79,1-2.79,3v4.66h-2.25v-9.61h2.14v1.4A3.79,3.79,0,0,1,245.64,343.38Z"/><path class="af8f5c32-6024-474f-a395-33aadcb98a3e" d="M256.89,347.47v5.63h-2.13v-1.17a3.4,3.4,0,0,1-3,1.3c-2.2,0-3.59-1.21-3.59-2.88s1.08-2.86,4-2.86h2.49v-.15c0-1.31-.8-2.09-2.4-2.09a4.74,4.74,0,0,0-2.92,1l-.88-1.64a6.78,6.78,0,0,1,4.07-1.19C255.28,343.38,256.89,344.69,256.89,347.47Zm-2.25,2.63V349h-2.33c-1.53,0-1.94.58-1.94,1.28s.68,1.33,1.84,1.33A2.46,2.46,0,0,0,254.64,350.1Z"/><path class="af8f5c32-6024-474f-a395-33aadcb98a3e" d="M269.94,343.49l-4.13,9.61h-2.32l-4.12-9.61h2.34l3,7.13,3.08-7.13Z"/><path class="af8f5c32-6024-474f-a395-33aadcb98a3e" d="M280.43,347.47v5.63h-2.12v-1.17a3.42,3.42,0,0,1-3,1.3c-2.2,0-3.58-1.21-3.58-2.88s1.08-2.86,4-2.86h2.49v-.15c0-1.31-.79-2.09-2.4-2.09a4.71,4.71,0,0,0-2.91,1l-.88-1.64a6.75,6.75,0,0,1,4.06-1.19C278.83,343.38,280.43,344.69,280.43,347.47Zm-2.25,2.63V349h-2.32c-1.53,0-1.95.58-1.95,1.28s.69,1.33,1.84,1.33A2.45,2.45,0,0,0,278.18,350.1Z"/><path class="af8f5c32-6024-474f-a395-33aadcb98a3e" d="M294.13,347.59v5.51h-2.25v-5.22c0-1.71-.85-2.54-2.29-2.54-1.6,0-2.68,1-2.68,2.9v4.86h-2.25v-9.61h2.14v1.24a4.19,4.19,0,0,1,3.31-1.35C292.42,343.38,294.13,344.69,294.13,347.59Z"/><path class="af8f5c32-6024-474f-a395-33aadcb98a3e" d="M306.39,347.47v5.63h-2.13v-1.17a3.4,3.4,0,0,1-3,1.3c-2.2,0-3.59-1.21-3.59-2.88s1.08-2.86,4-2.86h2.49v-.15c0-1.31-.8-2.09-2.4-2.09a4.74,4.74,0,0,0-2.92,1l-.88-1.64a6.78,6.78,0,0,1,4.07-1.19C304.78,343.38,306.39,344.69,306.39,347.47Zm-2.25,2.63V349h-2.33c-1.53,0-1.94.58-1.94,1.28s.68,1.33,1.83,1.33A2.46,2.46,0,0,0,304.14,350.1Z"/><path class="af8f5c32-6024-474f-a395-33aadcb98a3e" d="M321.49,347.83l-2,2.05v3.22h-2.34V340.5h2.34V347l6.23-6.46h2.63l-5.3,5.63,5.62,7h-2.74Z"/><path class="af8f5c32-6024-474f-a395-33aadcb98a3e" d="M340.39,343.49v9.61h-2.14v-1.22a4,4,0,0,1-3.1,1.35c-2.47,0-4.14-1.35-4.14-4.25v-5.49h2.25v5.18c0,1.75.83,2.58,2.25,2.58s2.63-1,2.63-2.9v-4.86Z"/><path class="af8f5c32-6024-474f-a395-33aadcb98a3e" d="M360.77,347.59v5.51h-2.26v-5.22c0-1.71-.79-2.54-2.16-2.54s-2.5,1-2.5,2.88v4.88H351.6v-5.22c0-1.71-.79-2.54-2.16-2.54s-2.5,1-2.5,2.88v4.88h-2.25v-9.61h2.14v1.22a4,4,0,0,1,3.15-1.33,3.59,3.59,0,0,1,3.24,1.6,4.49,4.49,0,0,1,3.6-1.6C359.15,343.38,360.77,344.69,360.77,347.59Z"/><path class="af8f5c32-6024-474f-a395-33aadcb98a3e" d="M373,347.47v5.63h-2.13v-1.17a3.4,3.4,0,0,1-3,1.3c-2.2,0-3.58-1.21-3.58-2.88s1.08-2.86,4-2.86h2.49v-.15c0-1.31-.79-2.09-2.4-2.09a4.71,4.71,0,0,0-2.91,1l-.89-1.64a6.8,6.8,0,0,1,4.07-1.19C371.44,343.38,373,344.69,373,347.47Zm-2.25,2.63V349h-2.32c-1.53,0-2,.58-2,1.28s.69,1.33,1.84,1.33A2.45,2.45,0,0,0,370.79,350.1Z"/><path class="af8f5c32-6024-474f-a395-33aadcb98a3e" d="M382.83,343.38v2.14a3.49,3.49,0,0,0-.52,0c-1.71,0-2.79,1-2.79,3v4.66h-2.25v-9.61h2.14v1.4A3.78,3.78,0,0,1,382.83,343.38Z"/></svg>