<svg viewBox="0 0 600 466" xmlns="http://www.w3.org/2000/svg"><path d="m0 0h600v466h-600z" fill="#5bc0c7"/><path d="m469.34 93.39c0-7.4 5.23-12.24 12.24-12.24s12.42 4.97 12.42 12.24c0 3.31-.51 5.74-3.45 12.75l-7.39 18.35h-12.67l5.61-20.27c-4.21-1.78-6.76-5.61-6.76-10.83zm-30.08 0c0-7.4 5.23-12.24 12.24-12.24s12.36 5 12.36 12.24c0 3.31-.51 5.74-3.44 12.75l-7.42 18.35h-12.59l5.6-20.27c-4.2-1.78-6.75-5.61-6.75-10.83z" fill="#fff"/><path d="m441.74 76.84a165.26 165.26 0 0 0 -97.84-32h-254.12v161.49c0 1.62-.08 3.25-.08 4.89s0 3.27.08 4.9v161.51h85.41l-22.3 43.55 76.11-43.55h281.3v-166.41-4.95h-.08a164.94 164.94 0 0 0 -20.54-75" fill="none" stroke="#fff" stroke-linecap="round" stroke-linejoin="round" stroke-width="2.83"/><g fill="#fff"><path d="m137.37 145.67h-3.46l.18-.89h7.91l-.2.89h-3.44l-1.78 8.91h-1z"/><path d="m150.25 149.55a4.14 4.14 0 0 1 -.09.84l-.84 4.19h-1l.84-4.2a4.13 4.13 0 0 0 .07-.67c0-1.05-.63-1.65-1.91-1.65a2.87 2.87 0 0 0 -3 2.57l-.79 4h-1l2.07-10.39h1l-.83 4.13a3.58 3.58 0 0 1 2.82-1.16 2.31 2.31 0 0 1 2.66 2.34z"/><path d="m161.31 147.22-1.47 7.36h-1l.23-1.16a3.77 3.77 0 0 1 -2.87 1.23 3 3 0 0 1 -3.21-3.12 4.15 4.15 0 0 1 4.16-4.37 2.76 2.76 0 0 1 2.81 1.6l.3-1.54zm-1.65 3.11a2.16 2.16 0 0 0 -2.43-2.3 3.23 3.23 0 0 0 -3.19 3.46 2.14 2.14 0 0 0 2.42 2.28 3.22 3.22 0 0 0 3.2-3.44z"/><path d="m171.35 149.55a4.14 4.14 0 0 1 -.09.84l-.84 4.19h-1l.84-4.2a4.13 4.13 0 0 0 .07-.67c0-1.05-.63-1.65-1.91-1.65a2.86 2.86 0 0 0 -3 2.57l-.79 4h-1l1.45-7.36h1l-.24 1.17a3.62 3.62 0 0 1 2.88-1.23c1.66-.05 2.63.85 2.63 2.34z"/><path d="m178.44 150.26 2.65 4.32h-1.16l-2.27-3.72-2.06 1.59-.42 2.13h-1l2.08-10.39h1l-1.4 7 5.07-4h1.42z"/><path d="m182.49 153.76.51-.76a4 4 0 0 0 2.55.82c1.42 0 2.19-.5 2.19-1.32 0-1.67-4.18-.52-4.18-3 0-1.4 1.26-2.3 3.2-2.3a4.47 4.47 0 0 1 2.49.69l-.42.79a3.73 3.73 0 0 0 -2.16-.63c-1.36 0-2.13.55-2.13 1.35 0 1.71 4.18.54 4.18 3 0 1.45-1.31 2.29-3.27 2.29a4.64 4.64 0 0 1 -2.96-.93z"/><path d="m204.08 147.22-1.47 7.36h-1l.23-1.16a3.77 3.77 0 0 1 -2.87 1.23 3 3 0 0 1 -3.21-3.12 4.15 4.15 0 0 1 4.16-4.37 2.76 2.76 0 0 1 2.81 1.6l.3-1.54zm-1.65 3.11a2.16 2.16 0 0 0 -2.43-2.33 3.23 3.23 0 0 0 -3.19 3.46 2.14 2.14 0 0 0 2.42 2.28 3.22 3.22 0 0 0 3.2-3.41z"/><path d="m213.22 144.19h1l-2.07 10.39h-1z"/><path d="m215.89 151.53a4.18 4.18 0 0 1 4.26-4.37 3 3 0 0 1 3.35 3.11 4.18 4.18 0 0 1 -4.26 4.38 3 3 0 0 1 -3.35-3.12zm6.61-1.2a2.15 2.15 0 0 0 -2.42-2.3 3.23 3.23 0 0 0 -3.2 3.46 2.15 2.15 0 0 0 2.43 2.28 3.22 3.22 0 0 0 3.19-3.44z"/><path d="m227.38 152.36a4 4 0 0 0 0 .46c0 .63.35 1 1.06 1a1.9 1.9 0 0 0 1.14-.38l.24.76a2.75 2.75 0 0 1 -1.64.47 1.61 1.61 0 0 1 -1.8-1.68 2.83 2.83 0 0 1 .06-.57l.86-4.34h-1.31l.16-.84h1.31l.33-1.62h1l-.32 1.62h2.24l-.17.84h-2.24z"/><path d="m240 146.4-.17.82h2.26l-.17.84h-2.22l-1.31 6.52h-1l1.3-6.52h-1.32l.16-.84h1.33l.18-.93a2.41 2.41 0 0 1 2.52-2.17 2.26 2.26 0 0 1 1.49.48l-.44.72a1.57 1.57 0 0 0 -1-.36c-.9.04-1.39.45-1.61 1.44z"/><path d="m242.84 151.53a4.18 4.18 0 0 1 4.26-4.37 3 3 0 0 1 3.35 3.11 4.18 4.18 0 0 1 -4.26 4.38 3 3 0 0 1 -3.35-3.12zm6.61-1.2a2.15 2.15 0 0 0 -2.45-2.33 3.23 3.23 0 0 0 -3.2 3.46 2.15 2.15 0 0 0 2.43 2.28 3.22 3.22 0 0 0 3.22-3.41z"/><path d="m257.92 147.16-.18 1h-.28c-1.57 0-2.62.9-3 2.73l-.74 3.74h-1l1.45-7.36h1l-.25 1.34a3.3 3.3 0 0 1 3-1.45z"/><path d="m271.78 147.22-5.38 8.32c-.91 1.4-1.59 1.83-2.66 1.83a2.39 2.39 0 0 1 -1.75-.66l.53-.73a1.72 1.72 0 0 0 1.31.54c.63 0 1.12-.3 1.69-1.19l.52-.79-1.84-7.32h1l1.53 6.27 4-6.27z"/><path d="m272.48 151.53a4.18 4.18 0 0 1 4.26-4.37 3 3 0 0 1 3.34 3.11 4.18 4.18 0 0 1 -4.25 4.38 3 3 0 0 1 -3.35-3.12zm6.61-1.2a2.15 2.15 0 0 0 -2.42-2.3 3.23 3.23 0 0 0 -3.2 3.46 2.15 2.15 0 0 0 2.43 2.28 3.22 3.22 0 0 0 3.19-3.44z"/><path d="m290.49 147.22-1.49 7.36h-.95l.24-1.17a3.56 3.56 0 0 1 -2.84 1.24 2.3 2.3 0 0 1 -2.62-2.41 4.83 4.83 0 0 1 .08-.82l.84-4.2h1l-.84 4.2a3.16 3.16 0 0 0 -.07.66c0 1.06.61 1.68 1.87 1.68a2.88 2.88 0 0 0 3-2.58l.78-4z"/><path d="m298 147.16-.18 1h-.28c-1.57 0-2.62.9-3 2.73l-.74 3.74h-1l1.45-7.36h1l-.26 1.34a3.33 3.33 0 0 1 3.01-1.45z"/><path d="m307 146.4-.17.82h2.26l-.17.84h-2.23l-1.3 6.52h-1l1.3-6.52h-1.32l.16-.84h1.33l.18-.93a2.41 2.41 0 0 1 2.52-2.17 2.26 2.26 0 0 1 1.49.48l-.44.72a1.57 1.57 0 0 0 -1.05-.36c-.86.04-1.35.45-1.56 1.44z"/><path d="m316.33 147.16-.18 1h-.28c-1.57 0-2.62.9-3 2.73l-.74 3.74h-1l1.45-7.36h.95l-.25 1.34a3.33 3.33 0 0 1 3.05-1.45z"/><path d="m319.15 147.22h1l-1.46 7.36h-1zm.26-2.27a.75.75 0 0 1 .77-.76.65.65 0 0 1 .68.63.76.76 0 0 1 -.78.78.65.65 0 0 1 -.67-.6z"/><path d="m323.44 151.18a1.46 1.46 0 0 0 0 .29c0 1.47.84 2.3 2.54 2.3a3.35 3.35 0 0 0 2.41-.92l.45.71a4.23 4.23 0 0 1 -2.95 1.09c-2.12 0-3.43-1.2-3.43-3.13a4.1 4.1 0 0 1 4.08-4.36 2.93 2.93 0 0 1 3.21 3.12 5.16 5.16 0 0 1 -.1.9zm.1-.74h5.25a2.53 2.53 0 0 0 0-.27 2.08 2.08 0 0 0 -2.31-2.17 3 3 0 0 0 -2.94 2.44z"/><path d="m339.71 149.55a4.14 4.14 0 0 1 -.09.84l-.84 4.19h-1l.84-4.2a4.13 4.13 0 0 0 .07-.67c0-1.05-.63-1.65-1.91-1.65a2.87 2.87 0 0 0 -3 2.57l-.79 4h-1l1.46-7.36h.95l-.24 1.17a3.63 3.63 0 0 1 2.89-1.23 2.31 2.31 0 0 1 2.66 2.34z"/><path d="m351.37 144.19-2.07 10.39h-.95l.23-1.16a3.77 3.77 0 0 1 -2.87 1.23 3 3 0 0 1 -3.21-3.12 4.15 4.15 0 0 1 4.16-4.37 2.78 2.78 0 0 1 2.81 1.6l.91-4.57zm-2.25 6.14a2.16 2.16 0 0 0 -2.43-2.3 3.23 3.23 0 0 0 -3.19 3.46 2.14 2.14 0 0 0 2.42 2.28 3.22 3.22 0 0 0 3.2-3.44z"/><path d="m355.19 144.19h1l-2.07 10.39h-1z"/><path d="m365.59 147.22-5.37 8.32c-.92 1.4-1.6 1.83-2.67 1.83a2.41 2.41 0 0 1 -1.75-.66l.53-.73a1.74 1.74 0 0 0 1.31.54c.63 0 1.12-.3 1.69-1.19l.52-.79-1.85-7.32h1l1.53 6.27 4-6.27z"/><path d="m379.58 147.22-1.29 6.47c-.52 2.6-1.89 3.68-4.29 3.68a4.63 4.63 0 0 1 -3.27-1.11l.59-.75a3.85 3.85 0 0 0 2.76 1 2.89 2.89 0 0 0 3.19-2.64l.17-.81a3.8 3.8 0 0 1 -2.94 1.26c-1.95 0-3.25-1.13-3.25-3a4.07 4.07 0 0 1 4.2-4.17 2.82 2.82 0 0 1 2.87 1.68l.31-1.62zm-1.68 2.95c0-1.34-.91-2.14-2.44-2.14a3.13 3.13 0 0 0 -3.21 3.25c0 1.34.9 2.14 2.44 2.14a3.13 3.13 0 0 0 3.21-3.25z"/><path d="m382.87 151.18a1.46 1.46 0 0 0 0 .29c0 1.47.84 2.3 2.54 2.3a3.35 3.35 0 0 0 2.41-.92l.45.71a4.23 4.23 0 0 1 -2.95 1.09c-2.13 0-3.43-1.2-3.43-3.13a4.1 4.1 0 0 1 4.08-4.36 2.93 2.93 0 0 1 3.21 3.12 5.16 5.16 0 0 1 -.1.9zm.09-.74h5.26a2.53 2.53 0 0 0 0-.27 2.08 2.08 0 0 0 -2.31-2.17 3 3 0 0 0 -2.91 2.44z"/><path d="m390.66 153.76.48-.79a4 4 0 0 0 2.55.82c1.41 0 2.18-.5 2.18-1.32 0-1.67-4.17-.52-4.17-3 0-1.4 1.26-2.3 3.19-2.3a4.5 4.5 0 0 1 2.5.69l-.42.79a3.73 3.73 0 0 0 -2.16-.63c-1.36 0-2.13.55-2.13 1.35 0 1.71 4.17.54 4.17 3 0 1.45-1.3 2.29-3.26 2.29a4.69 4.69 0 0 1 -2.93-.9z"/><path d="m400.94 152.36a2.64 2.64 0 0 0 -.06.46c0 .63.35 1 1.07 1a1.88 1.88 0 0 0 1.13-.38l.24.76a2.73 2.73 0 0 1 -1.64.47 1.61 1.61 0 0 1 -1.79-1.68 2.26 2.26 0 0 1 .06-.57l.85-4.34h-1.3l.15-.84h1.35l.32-1.62h1l-.33 1.62h2.24l-.16.84h-2.25z"/><path d="m414.19 147.22-1.47 7.36h-1l.24-1.17a3.56 3.56 0 0 1 -2.84 1.24 2.31 2.31 0 0 1 -2.62-2.41 4.83 4.83 0 0 1 .08-.82l.84-4.2h1l-.84 4.2a4 4 0 0 0 -.07.66c0 1.06.61 1.68 1.87 1.68a2.88 2.88 0 0 0 3-2.58l.78-4z"/><path d="m421.73 147.16-.18 1h-.28c-1.57 0-2.62.9-3 2.73l-.75 3.74h-1l1.46-7.36h1.02l-.25 1.34a3.3 3.3 0 0 1 2.98-1.45z"/><path d="m424 151.18a1.46 1.46 0 0 0 0 .29c0 1.47.84 2.3 2.54 2.3a3.35 3.35 0 0 0 2.41-.92l.44.71a4.19 4.19 0 0 1 -2.94 1.09c-2.13 0-3.43-1.2-3.43-3.13a4.1 4.1 0 0 1 4.08-4.36 2.94 2.94 0 0 1 3.21 3.12 5.16 5.16 0 0 1 -.1.9zm.09-.74h5.26a2.53 2.53 0 0 0 0-.27 2.08 2.08 0 0 0 -2.35-2.17 3 3 0 0 0 -2.95 2.44z"/><path d="m445.45 147.22-1.45 7.36h-1l.23-1.16a3.77 3.77 0 0 1 -2.87 1.23 3 3 0 0 1 -3.21-3.12 4.15 4.15 0 0 1 4.16-4.37 2.76 2.76 0 0 1 2.81 1.6l.3-1.54zm-1.65 3.11a2.16 2.16 0 0 0 -2.43-2.3 3.23 3.23 0 0 0 -3.19 3.46 2.14 2.14 0 0 0 2.42 2.28 3.22 3.22 0 0 0 3.2-3.44z"/><path d="m455.49 149.55a4.14 4.14 0 0 1 -.09.84l-.84 4.19h-1l.84-4.2a4.13 4.13 0 0 0 .07-.67c0-1.05-.63-1.65-1.91-1.65a2.86 2.86 0 0 0 -3 2.57l-.79 4h-1l1.45-7.36h1l-.24 1.17a3.62 3.62 0 0 1 2.88-1.23c1.66-.05 2.63.85 2.63 2.34z"/><path d="m467.15 144.19-2.07 10.39h-1l.24-1.16a3.77 3.77 0 0 1 -2.87 1.23 3 3 0 0 1 -3.21-3.12 4.15 4.15 0 0 1 4.16-4.37 2.77 2.77 0 0 1 2.8 1.6l.92-4.57zm-2.26 6.14a2.15 2.15 0 0 0 -2.42-2.3 3.23 3.23 0 0 0 -3.19 3.46 2.14 2.14 0 0 0 2.42 2.28 3.21 3.21 0 0 0 3.19-3.44z"/><path d="m120.33 168.33a4.18 4.18 0 0 1 4.29-4.37 3.08 3.08 0 0 1 2.9 1.47l-.84.49a2.27 2.27 0 0 0 -2.14-1.09 3.24 3.24 0 0 0 -3.21 3.46 2.15 2.15 0 0 0 2.45 2.28 2.84 2.84 0 0 0 2.32-1.06l.72.54a3.8 3.8 0 0 1 -3.08 1.4c-2.1 0-3.41-1.23-3.41-3.12z"/><path d="m129.14 168.33a4.18 4.18 0 0 1 4.26-4.33 3 3 0 0 1 3.35 3.11 4.18 4.18 0 0 1 -4.26 4.38 3 3 0 0 1 -3.35-3.16zm6.61-1.2a2.15 2.15 0 0 0 -2.42-2.3 3.24 3.24 0 0 0 -3.2 3.46 2.15 2.15 0 0 0 2.43 2.28 3.22 3.22 0 0 0 3.19-3.44z"/><path d="m146.73 166.35a4.32 4.32 0 0 1 -.09.85l-.84 4.18h-1l.84-4.2a4.13 4.13 0 0 0 .07-.67c0-1-.63-1.65-1.91-1.65a2.87 2.87 0 0 0 -3 2.57l-.79 3.95h-1l1.45-7.36h1l-.24 1.17a3.62 3.62 0 0 1 2.88-1.23c1.66.04 2.63.9 2.63 2.39z"/><path d="m151.16 169.16a2.58 2.58 0 0 0 0 .46c0 .63.35 1 1.06 1a1.9 1.9 0 0 0 1.14-.38l.23.76a2.72 2.72 0 0 1 -1.63.47 1.61 1.61 0 0 1 -1.8-1.68 2.83 2.83 0 0 1 .06-.57l.85-4.34h-1.3l.15-.84h1.32l.32-1.62h1l-.33 1.62h2.25l-.17.84h-2.31z"/><path d="m157.76 164h1l-1.46 7.36h-1zm.25-2.27a.75.75 0 0 1 .77-.76.65.65 0 0 1 .68.63.76.76 0 0 1 -.78.78.65.65 0 0 1 -.68-.63z"/><path d="m168.81 166.35a4.32 4.32 0 0 1 -.09.85l-.84 4.18h-1l.84-4.2a4.13 4.13 0 0 0 .07-.67c0-1-.63-1.65-1.91-1.65a2.87 2.87 0 0 0 -3 2.57l-.78 3.95h-1l1.45-7.36h1l-.23 1.17a3.62 3.62 0 0 1 2.88-1.23c1.64.04 2.61.9 2.61 2.39z"/><path d="m179.75 164-1.47 7.36h-.95l.24-1.17a3.58 3.58 0 0 1 -2.85 1.24 2.3 2.3 0 0 1 -2.61-2.41 4 4 0 0 1 .08-.82l.81-4.2h1l-.84 4.2a4 4 0 0 0 -.07.66c0 1.06.62 1.68 1.88 1.68a2.87 2.87 0 0 0 3-2.58l.79-4z"/><path d="m183 168v.29c0 1.47.84 2.3 2.53 2.3a3.35 3.35 0 0 0 2.41-.92l.45.71a4.21 4.21 0 0 1 -2.94 1.09c-2.13 0-3.44-1.2-3.44-3.13a4.11 4.11 0 0 1 4.08-4.36 2.93 2.93 0 0 1 3.21 3.12 4.35 4.35 0 0 1 -.1.9zm.1-.74h5.25a2.53 2.53 0 0 0 0-.27 2.07 2.07 0 0 0 -2.31-2.17 3 3 0 0 0 -2.9 2.42z"/><path d="m200.42 161-2.08 10.39h-1l.24-1.16a3.77 3.77 0 0 1 -2.87 1.23 3 3 0 0 1 -3.21-3.12 4.15 4.15 0 0 1 4.16-4.37 2.77 2.77 0 0 1 2.8 1.6l.91-4.57zm-2.26 6.14a2.15 2.15 0 0 0 -2.42-2.3 3.24 3.24 0 0 0 -3.2 3.46 2.15 2.15 0 0 0 2.43 2.28 3.22 3.22 0 0 0 3.19-3.45z"/><path d="m206.1 170.56.47-.79a4 4 0 0 0 2.55.82c1.42 0 2.19-.49 2.19-1.32 0-1.67-4.18-.52-4.18-3 0-1.4 1.26-2.3 3.2-2.3a4.49 4.49 0 0 1 2.49.69l-.42.79a3.71 3.71 0 0 0 -2.16-.63c-1.36 0-2.13.55-2.13 1.35 0 1.71 4.18.54 4.18 3 0 1.45-1.3 2.29-3.27 2.29a4.64 4.64 0 0 1 -2.92-.9z"/><path d="m222.89 164-1.47 7.36h-1l.24-1.17a3.56 3.56 0 0 1 -2.84 1.24 2.31 2.31 0 0 1 -2.62-2.41 4.83 4.83 0 0 1 .08-.82l.84-4.2h1l-.84 4.2a4 4 0 0 0 -.07.66c0 1.06.61 1.68 1.87 1.68a2.88 2.88 0 0 0 3-2.58l.78-4z"/><path d="m233.51 167.07a4.15 4.15 0 0 1 -4.17 4.38 2.75 2.75 0 0 1 -2.8-1.61l-.84 4.26h-1l2-10.08h.95l-.24 1.17a3.74 3.74 0 0 1 2.87-1.23 3 3 0 0 1 3.23 3.11zm-1 .06a2.15 2.15 0 0 0 -2.42-2.3 3.22 3.22 0 0 0 -3.18 3.46 2.15 2.15 0 0 0 2.43 2.28 3.2 3.2 0 0 0 3.16-3.44z"/><path d="m244.05 167.07a4.15 4.15 0 0 1 -4.17 4.38 2.75 2.75 0 0 1 -2.8-1.61l-.84 4.26h-1l2-10.08h.95l-.24 1.17a3.74 3.74 0 0 1 2.87-1.23 3 3 0 0 1 3.23 3.11zm-1 .06a2.16 2.16 0 0 0 -2.43-2.3 3.22 3.22 0 0 0 -3.18 3.46 2.15 2.15 0 0 0 2.43 2.28 3.21 3.21 0 0 0 3.18-3.44z"/><path d="m246.26 168.33a4.18 4.18 0 0 1 4.26-4.37 3 3 0 0 1 3.35 3.11 4.18 4.18 0 0 1 -4.26 4.38 3 3 0 0 1 -3.35-3.12zm6.61-1.2a2.15 2.15 0 0 0 -2.42-2.3 3.24 3.24 0 0 0 -3.19 3.46 2.14 2.14 0 0 0 2.42 2.28 3.22 3.22 0 0 0 3.19-3.44z"/><path d="m261.34 164-.18 1h-.28c-1.57 0-2.62.9-3 2.73l-.74 3.74h-1l1.46-7.36h.95l-.25 1.34a3.31 3.31 0 0 1 3.04-1.45z"/><path d="m264.63 169.16a2.58 2.58 0 0 0 -.05.46c0 .63.34 1 1.06 1a1.85 1.85 0 0 0 1.13-.38l.24.76a2.73 2.73 0 0 1 -1.64.47 1.61 1.61 0 0 1 -1.79-1.68 2.26 2.26 0 0 1 .06-.57l.85-4.34h-1.3l.15-.84h1.32l.32-1.62h1l-.33 1.62h2.25l-.17.84h-2.24z"/><path d="m276.08 169.16a2.58 2.58 0 0 0 -.05.46c0 .63.35 1 1.06 1a1.9 1.9 0 0 0 1.14-.38l.23.76a2.7 2.7 0 0 1 -1.63.47 1.61 1.61 0 0 1 -1.8-1.68 2.83 2.83 0 0 1 .06-.57l.85-4.34h-1.3l.15-.84h1.32l.32-1.62h1l-.32 1.62h2.24l-.17.84h-2.24z"/><path d="m280.88 168.33a4.18 4.18 0 0 1 4.26-4.37 3 3 0 0 1 3.35 3.11 4.18 4.18 0 0 1 -4.26 4.38 3 3 0 0 1 -3.35-3.12zm6.62-1.2a2.16 2.16 0 0 0 -2.43-2.3 3.24 3.24 0 0 0 -3.19 3.46 2.14 2.14 0 0 0 2.42 2.28 3.22 3.22 0 0 0 3.2-3.44z"/><path d="m295 170.22.5-.81a4.53 4.53 0 0 0 3.15 1.18c1.71 0 2.89-.71 2.89-1.94 0-2.25-5.1-1.12-5.1-4.2 0-1.85 1.64-3 3.92-3a5.34 5.34 0 0 1 3 .84l-.43.85a4.5 4.5 0 0 0 -2.66-.8c-1.71 0-2.86.75-2.86 2 0 2.29 5.11 1.19 5.11 4.16 0 1.89-1.68 3-4 3a5.15 5.15 0 0 1 -3.52-1.28z"/><path d="m313.27 164-1.47 7.36h-.95l.23-1.17a3.54 3.54 0 0 1 -2.84 1.24 2.31 2.31 0 0 1 -2.62-2.41 4 4 0 0 1 .09-.82l.84-4.2h1l-.84 4.2a4 4 0 0 0 -.07.66c0 1.06.62 1.68 1.88 1.68a2.88 2.88 0 0 0 3-2.58l.79-4z"/><path d="m319.89 167.06 2.65 4.32h-1.17l-2.26-3.72-2.06 1.59-.42 2.13h-1l2.07-10.38h1l-1.4 7 5.07-4h1.41z"/><path d="m330 164-.18 1h-.28c-1.57 0-2.62.9-3 2.73l-.75 3.74h-1l1.46-7.36h.95l-.25 1.34a3.31 3.31 0 0 1 3.05-1.45z"/><path d="m332.84 164h1l-1.45 7.36h-1zm.25-2.27a.75.75 0 0 1 .77-.76.66.66 0 0 1 .69.63.76.76 0 0 1 -.79.78.65.65 0 0 1 -.67-.63z"/><path d="m337.79 169.16a4 4 0 0 0 -.05.46c0 .63.35 1 1.06 1a1.9 1.9 0 0 0 1.14-.38l.24.76a2.75 2.75 0 0 1 -1.64.47 1.61 1.61 0 0 1 -1.8-1.68 2.83 2.83 0 0 1 .06-.57l.85-4.34h-1.3l.16-.84h1.31l.32-1.62h1l-.32 1.62h2.24l-.17.84h-2.24z"/><path d="m344.39 164h1l-1.45 7.36h-1zm.25-2.27a.75.75 0 0 1 .77-.76.66.66 0 0 1 .69.63.76.76 0 0 1 -.79.78.65.65 0 0 1 -.67-.63z"/><path d="m360.66 164-1.47 7.36h-.95l.23-1.16a3.77 3.77 0 0 1 -2.87 1.23 3 3 0 0 1 -3.2-3.12 4.14 4.14 0 0 1 4.16-4.37 2.76 2.76 0 0 1 2.8 1.6l.3-1.54zm-1.66 3.13a2.16 2.16 0 0 0 -2.43-2.3 3.24 3.24 0 0 0 -3.19 3.46 2.14 2.14 0 0 0 2.42 2.28 3.22 3.22 0 0 0 3.2-3.44z"/><path d="m370.7 166.35a4.32 4.32 0 0 1 -.09.85l-.84 4.18h-1l.84-4.2a4.13 4.13 0 0 0 .07-.67c0-1-.63-1.65-1.91-1.65a2.86 2.86 0 0 0 -3 2.57l-.79 3.95h-1l1.45-7.36h1l-.24 1.17a3.62 3.62 0 0 1 2.88-1.23c1.66.04 2.63.9 2.63 2.39z"/><path d="m382.36 161-2.07 10.39h-1l.24-1.16a3.77 3.77 0 0 1 -2.87 1.23 3 3 0 0 1 -3.21-3.12 4.15 4.15 0 0 1 4.16-4.37 2.77 2.77 0 0 1 2.8 1.6l.92-4.57zm-2.26 6.14a2.15 2.15 0 0 0 -2.42-2.3 3.24 3.24 0 0 0 -3.19 3.46 2.14 2.14 0 0 0 2.42 2.28 3.21 3.21 0 0 0 3.19-3.45z"/><path d="m401.91 166.33a5.81 5.81 0 0 1 -.1.87l-.84 4.18h-1l.84-4.2a2.88 2.88 0 0 0 .07-.69c0-1-.6-1.63-1.82-1.63a2.76 2.76 0 0 0 -2.86 2.46l-.81 4.06h-1l.84-4.2a4.13 4.13 0 0 0 .07-.67c0-1-.59-1.65-1.82-1.65a2.82 2.82 0 0 0 -2.89 2.57l-.78 3.95h-1l1.46-7.36h1l-.24 1.17a3.45 3.45 0 0 1 2.79-1.23 2.29 2.29 0 0 1 2.41 1.47 3.73 3.73 0 0 1 3.07-1.43c1.7 0 2.61.84 2.61 2.33z"/><path d="m413 164-1.47 7.36h-1l.23-1.16a3.77 3.77 0 0 1 -2.87 1.23 3 3 0 0 1 -3.21-3.12 4.15 4.15 0 0 1 4.16-4.37 2.76 2.76 0 0 1 2.81 1.6l.35-1.54zm-1.65 3.11a2.16 2.16 0 0 0 -2.43-2.3 3.24 3.24 0 0 0 -3.19 3.46 2.14 2.14 0 0 0 2.42 2.28 3.22 3.22 0 0 0 3.15-3.42z"/><path d="m419.55 167.06 2.65 4.32h-1.2l-2.27-3.72-2.06 1.59-.42 2.13h-1l2.12-10.38h1l-1.4 7 5.07-4h1.42z"/><path d="m426 164h1l-1.46 7.36h-1zm.25-2.27a.76.76 0 0 1 .75-.73.66.66 0 0 1 .69.63.76.76 0 0 1 -.78.78.66.66 0 0 1 -.71-.66z"/><path d="m437 166.35a5.18 5.18 0 0 1 -.08.85l-.84 4.18h-1l.84-4.2a4.13 4.13 0 0 0 .07-.67c0-1-.63-1.65-1.9-1.65a2.87 2.87 0 0 0 -3 2.57l-.79 3.95h-1l1.46-7.36h1l-.24 1.17a3.64 3.64 0 0 1 2.89-1.23 2.31 2.31 0 0 1 2.59 2.39z"/><path d="m448.16 164-1.29 6.47c-.52 2.6-1.89 3.68-4.29 3.68a4.63 4.63 0 0 1 -3.27-1.11l.58-.75a3.88 3.88 0 0 0 2.76 1 2.89 2.89 0 0 0 3.2-2.63l.17-.82a3.81 3.81 0 0 1 -2.95 1.26c-1.94 0-3.25-1.13-3.25-3a4.08 4.08 0 0 1 4.18-4.1 2.83 2.83 0 0 1 2.87 1.68l.31-1.62zm-1.68 3c0-1.34-.91-2.14-2.44-2.14a3.13 3.13 0 0 0 -3.21 3.25c0 1.34.9 2.14 2.44 2.14a3.13 3.13 0 0 0 3.21-3.25z"/><path d="m462.93 166.35a4.32 4.32 0 0 1 -.09.85l-.84 4.18h-1l.84-4.2a4.13 4.13 0 0 0 .07-.67c0-1-.63-1.65-1.91-1.65a2.87 2.87 0 0 0 -3 2.57l-.79 3.95h-1l2.1-10.38h1l-.83 4.13a3.58 3.58 0 0 1 2.81-1.16c1.71.03 2.64.89 2.64 2.38z"/><path d="m466.72 168a1.46 1.46 0 0 0 0 .29c0 1.47.84 2.3 2.54 2.3a3.35 3.35 0 0 0 2.41-.92l.45.71a4.22 4.22 0 0 1 -2.94 1.09c-2.13 0-3.44-1.2-3.44-3.13a4.11 4.11 0 0 1 4.06-4.34 2.93 2.93 0 0 1 3.21 3.12 4.35 4.35 0 0 1 -.1.9zm.1-.74h5.25a2.53 2.53 0 0 0 0-.27 2.08 2.08 0 0 0 -2.31-2.17 3 3 0 0 0 -2.94 2.42z"/><path d="m480.48 164-.18 1h-.28c-1.57 0-2.62.9-3 2.73l-.75 3.74h-1l1.46-7.36h.95l-.25 1.34a3.31 3.31 0 0 1 3.05-1.45z"/><path d="m129.09 180.82-1.47 7.36h-1l.24-1.16a3.77 3.77 0 0 1 -2.87 1.23 3 3 0 0 1 -3.21-3.12 4.15 4.15 0 0 1 4.16-4.37 2.76 2.76 0 0 1 2.8 1.6l.31-1.54zm-1.65 3.11a2.15 2.15 0 0 0 -2.42-2.3 3.23 3.23 0 0 0 -3.19 3.46 2.14 2.14 0 0 0 2.42 2.28 3.22 3.22 0 0 0 3.19-3.44z"/><path d="m140.24 177.79-2.07 10.39h-1l.24-1.16a3.77 3.77 0 0 1 -2.87 1.23 3 3 0 0 1 -3.21-3.12 4.15 4.15 0 0 1 4.16-4.37 2.77 2.77 0 0 1 2.8 1.6l.92-4.57zm-2.24 6.14a2.15 2.15 0 0 0 -2.42-2.3 3.23 3.23 0 0 0 -3.19 3.46 2.14 2.14 0 0 0 2.42 2.28 3.21 3.21 0 0 0 3.19-3.44z"/><path d="m138.89 190.51.46-.77a1.64 1.64 0 0 0 1.11.38c.8 0 1.27-.42 1.47-1.4l1.58-7.9h1l-1.59 7.92a2.36 2.36 0 0 1 -2.48 2.23 2.51 2.51 0 0 1 -1.55-.46zm4.86-12a.75.75 0 0 1 .77-.76.66.66 0 0 1 .69.63.76.76 0 0 1 -.79.78.65.65 0 0 1 -.67-.61z"/><path d="m155 180.82-1.47 7.36h-.95l.24-1.17a3.58 3.58 0 0 1 -2.85 1.24 2.31 2.31 0 0 1 -2.62-2.41 4 4 0 0 1 .09-.82l.84-4.2h1l-.84 4.2a4 4 0 0 0 -.07.66c0 1.06.62 1.68 1.88 1.68a2.88 2.88 0 0 0 3-2.58l.79-4z"/><path d="m156.56 187.36.47-.79a4.07 4.07 0 0 0 2.55.82c1.42 0 2.19-.5 2.19-1.32 0-1.67-4.18-.52-4.18-3 0-1.4 1.27-2.3 3.2-2.3a4.47 4.47 0 0 1 2.49.69l-.42.79a3.71 3.71 0 0 0 -2.16-.63c-1.35 0-2.12.55-2.12 1.35 0 1.71 4.17.54 4.17 3 0 1.45-1.3 2.29-3.26 2.29a4.65 4.65 0 0 1 -2.93-.9z"/><path d="m166.83 186a4 4 0 0 0 -.05.46c0 .63.35 1 1.06 1a1.9 1.9 0 0 0 1.16-.46l.24.76a2.75 2.75 0 0 1 -1.64.47 1.61 1.61 0 0 1 -1.8-1.68 2.83 2.83 0 0 1 .06-.57l.86-4.34h-1.31l.16-.84h1.31l.33-1.62h1l-.32 1.62h2.24l-.17.84h-2.24z"/><path d="m176.62 185.13a4.18 4.18 0 0 1 4.29-4.37 3.08 3.08 0 0 1 2.9 1.47l-.84.49a2.29 2.29 0 0 0 -2.15-1.09 3.24 3.24 0 0 0 -3.21 3.46 2.16 2.16 0 0 0 2.46 2.28 2.85 2.85 0 0 0 2.32-1.06l.72.54a3.82 3.82 0 0 1 -3.09 1.4c-2.1 0-3.4-1.25-3.4-3.12z"/><path d="m185.43 185.13a4.18 4.18 0 0 1 4.25-4.37 3 3 0 0 1 3.35 3.11 4.18 4.18 0 0 1 -4.26 4.38 3 3 0 0 1 -3.34-3.12zm6.61-1.2a2.16 2.16 0 0 0 -2.43-2.3 3.23 3.23 0 0 0 -3.19 3.46 2.14 2.14 0 0 0 2.42 2.28 3.22 3.22 0 0 0 3.16-3.44z"/><path d="m208.41 183.13a4.55 4.55 0 0 1 -.1.86l-.84 4.19h-1l.84-4.2a2.88 2.88 0 0 0 .07-.69c0-1-.6-1.63-1.82-1.63a2.74 2.74 0 0 0 -2.85 2.46l-.82 4.06h-1l.84-4.2a4.13 4.13 0 0 0 .07-.67c0-1.05-.59-1.65-1.82-1.65a2.82 2.82 0 0 0 -2.89 2.57l-.78 4h-1l1.46-7.36h.95l-.22 1.13a3.43 3.43 0 0 1 2.78-1.23 2.29 2.29 0 0 1 2.41 1.47 3.73 3.73 0 0 1 3.11-1.47c1.67-.01 2.61.87 2.61 2.36z"/><path d="m214 180-.17.82h2.26l-.17.84h-2.23l-1.3 6.52h-1l1.3-6.52h-1.32l.16-.84h1.33l.18-.93a2.41 2.41 0 0 1 2.52-2.17 2.26 2.26 0 0 1 1.49.48l-.44.72a1.59 1.59 0 0 0 -1.05-.36c-.86 0-1.35.44-1.56 1.44z"/><path d="m216.83 185.13a4.18 4.18 0 0 1 4.26-4.37 3 3 0 0 1 3.34 3.11 4.18 4.18 0 0 1 -4.25 4.38 3 3 0 0 1 -3.35-3.12zm6.61-1.2a2.15 2.15 0 0 0 -2.42-2.3 3.23 3.23 0 0 0 -3.2 3.46 2.15 2.15 0 0 0 2.43 2.28 3.22 3.22 0 0 0 3.19-3.44z"/><path d="m231.91 180.76-.18 1h-.28c-1.57 0-2.62.9-3 2.73l-.74 3.74h-1l1.45-7.36h1l-.26 1.34a3.33 3.33 0 0 1 3.01-1.45z"/><path d="m235.2 186a2.64 2.64 0 0 0 -.06.46c0 .63.35 1 1.07 1a1.9 1.9 0 0 0 1.13-.38l.24.76a2.73 2.73 0 0 1 -1.64.47 1.6 1.6 0 0 1 -1.79-1.68 2.81 2.81 0 0 1 0-.57l.86-4.34h-1.31l.16-.84h1.31l.33-1.62h1l-.32 1.62h2.24l-.17.84h-2.24z"/><path d="m248.26 180.82-1.47 7.36h-.95l.24-1.16a3.77 3.77 0 0 1 -2.87 1.23 3 3 0 0 1 -3.21-3.12 4.14 4.14 0 0 1 4.16-4.37 2.76 2.76 0 0 1 2.8 1.6l.31-1.54zm-1.65 3.11a2.15 2.15 0 0 0 -2.42-2.3 3.23 3.23 0 0 0 -3.2 3.46 2.14 2.14 0 0 0 2.42 2.28 3.22 3.22 0 0 0 3.2-3.44z"/><path d="m258.87 183.87a4.15 4.15 0 0 1 -4.17 4.38 2.74 2.74 0 0 1 -2.82-1.68l-.32 1.61h-.95l2.07-10.39h1l-.83 4.13a3.74 3.74 0 0 1 2.8-1.16 3 3 0 0 1 3.22 3.11zm-1 .06a2.16 2.16 0 0 0 -2.43-2.3 3.22 3.22 0 0 0 -3.18 3.46 2.15 2.15 0 0 0 2.43 2.28 3.21 3.21 0 0 0 3.18-3.44z"/><path d="m263.22 177.79h1l-2.07 10.39h-1z"/><path d="m273.63 180.82-5.38 8.32c-.91 1.4-1.6 1.83-2.66 1.83a2.38 2.38 0 0 1 -1.75-.66l.53-.73a1.7 1.7 0 0 0 1.3.54c.63 0 1.12-.3 1.7-1.19l.52-.79-1.84-7.32h1l1.53 6.27 4-6.27z"/><path d="m280.92 186a2.64 2.64 0 0 0 -.06.46c0 .63.35 1 1.07 1a1.88 1.88 0 0 0 1.13-.38l.24.76a2.73 2.73 0 0 1 -1.64.47 1.61 1.61 0 0 1 -1.79-1.68 2.26 2.26 0 0 1 .06-.57l.85-4.34h-1.3l.15-.84h1.37l.32-1.62h1l-.32 1.62h2.24l-.16.84h-2.25z"/><path d="m285.72 185.13a4.18 4.18 0 0 1 4.26-4.37 3 3 0 0 1 3.35 3.11 4.18 4.18 0 0 1 -4.26 4.38 3 3 0 0 1 -3.35-3.12zm6.61-1.2a2.15 2.15 0 0 0 -2.42-2.3 3.23 3.23 0 0 0 -3.19 3.46 2.14 2.14 0 0 0 2.42 2.28 3.22 3.22 0 0 0 3.19-3.44z"/><path d="m301.93 186a4 4 0 0 0 -.05.46c0 .63.35 1 1.06 1a1.9 1.9 0 0 0 1.14-.38l.24.76a2.75 2.75 0 0 1 -1.64.47 1.61 1.61 0 0 1 -1.8-1.68 2.83 2.83 0 0 1 .06-.57l.85-4.34h-1.3l.16-.84h1.35l.32-1.62h1l-.32 1.62h2.24l-.17.84h-2.24z"/><path d="m314.76 183.15a5 5 0 0 1 -.08.84l-.84 4.19h-1l.84-4.2a4.13 4.13 0 0 0 .07-.67c0-1.05-.63-1.65-1.9-1.65a2.87 2.87 0 0 0 -3 2.57l-.78 4h-1l2.07-10.39h1l-.83 4.13a3.58 3.58 0 0 1 2.82-1.16 2.31 2.31 0 0 1 2.63 2.34z"/><path d="m318.55 184.78v.29c0 1.47.84 2.3 2.53 2.3a3.34 3.34 0 0 0 2.41-.92l.45.71a4.21 4.21 0 0 1 -2.94 1.09c-2.13 0-3.43-1.2-3.43-3.13a4.1 4.1 0 0 1 4.07-4.36 2.93 2.93 0 0 1 3.21 3.12 4.35 4.35 0 0 1 -.1.9zm.1-.74h5.25a1.27 1.27 0 0 0 0-.27 2.08 2.08 0 0 0 -2.32-2.17 3 3 0 0 0 -2.93 2.4z"/><path d="m339.54 183.15a5 5 0 0 1 -.08.84l-.84 4.19h-1l.84-4.2a4.13 4.13 0 0 0 .07-.67c0-1.05-.63-1.65-1.9-1.65a2.87 2.87 0 0 0 -3 2.57l-.79 4h-1l1.46-7.36h.95l-.25 1.13a3.66 3.66 0 0 1 2.89-1.23 2.31 2.31 0 0 1 2.65 2.38z"/><path d="m343.33 184.78v.29c0 1.47.84 2.3 2.53 2.3a3.34 3.34 0 0 0 2.41-.92l.45.71a4.21 4.21 0 0 1 -2.94 1.09c-2.13 0-3.43-1.2-3.43-3.13a4.1 4.1 0 0 1 4.07-4.36 2.93 2.93 0 0 1 3.21 3.12 4.35 4.35 0 0 1 -.1.9zm.1-.74h5.25a1.27 1.27 0 0 0 0-.27 2.08 2.08 0 0 0 -2.32-2.17 3 3 0 0 0 -2.93 2.4z"/><path d="m364.11 180.82-4.11 7.36h-1l-1.24-6-3.44 6h-1l-1.44-7.36h.91l1.19 6.24 3.56-6.24h.84l1.23 6.24 3.51-6.24z"/><path d="m370.77 184.78v.29c0 1.47.84 2.3 2.53 2.3a3.34 3.34 0 0 0 2.41-.92l.45.71a4.21 4.21 0 0 1 -2.94 1.09c-2.13 0-3.43-1.2-3.43-3.13a4.1 4.1 0 0 1 4.07-4.36 2.93 2.93 0 0 1 3.21 3.12 4.35 4.35 0 0 1 -.1.9zm.1-.74h5.25a1.27 1.27 0 0 0 0-.27 2.08 2.08 0 0 0 -2.32-2.17 3 3 0 0 0 -2.93 2.4z"/><path d="m387 183.15a5 5 0 0 1 -.08.84l-.84 4.19h-1l.92-4.18a3.25 3.25 0 0 0 .07-.67c0-1.05-.63-1.65-1.9-1.65a2.87 2.87 0 0 0 -3 2.57l-.78 4h-1l1.46-7.36h.95l-.24 1.17a3.66 3.66 0 0 1 2.89-1.23c1.63-.07 2.55.83 2.55 2.32z"/><path d="m397.4 180.82-4.73 7.36h-1l-1.83-7.36h1l1.52 6.28 4-6.28z"/><path d="m399.83 180.82h1l-1.46 7.36h-1zm.26-2.27a.75.75 0 0 1 .77-.76.65.65 0 0 1 .68.63.76.76 0 0 1 -.78.78.65.65 0 0 1 -.67-.65z"/><path d="m408.38 180.76-.19 1h-.28c-1.57 0-2.62.9-3 2.73l-.74 3.74h-1l1.46-7.36h1l-.25 1.34a3.33 3.33 0 0 1 3-1.45z"/><path d="m409.61 185.13a4.17 4.17 0 0 1 4.25-4.37 3 3 0 0 1 3.35 3.11 4.18 4.18 0 0 1 -4.26 4.38 3 3 0 0 1 -3.34-3.12zm6.61-1.2a2.16 2.16 0 0 0 -2.43-2.3 3.23 3.23 0 0 0 -3.19 3.46 2.14 2.14 0 0 0 2.42 2.28 3.22 3.22 0 0 0 3.2-3.44z"/><path d="m427.19 183.15a4.11 4.11 0 0 1 -.08.84l-.84 4.19h-1l.85-4.2a4.06 4.06 0 0 0 .06-.67c0-1.05-.63-1.65-1.9-1.65a2.87 2.87 0 0 0 -3 2.57l-.78 4h-1l1.46-7.36h1l-.24 1.17a3.66 3.66 0 0 1 2.89-1.23c1.62-.05 2.58.85 2.58 2.34z"/><path d="m443.11 183.13a5.47 5.47 0 0 1 -.09.86l-.84 4.19h-1l.82-4.18a2.88 2.88 0 0 0 .07-.69c0-1-.6-1.63-1.82-1.63a2.76 2.76 0 0 0 -2.86 2.46l-.81 4.06h-1l.84-4.2a4.13 4.13 0 0 0 .07-.67c0-1.05-.59-1.65-1.82-1.65a2.82 2.82 0 0 0 -2.89 2.57l-.78 4h-1l1.46-7.36h.95l-.21 1.11a3.45 3.45 0 0 1 2.79-1.23 2.29 2.29 0 0 1 2.41 1.47 3.73 3.73 0 0 1 3.11-1.47c1.67-.01 2.6.87 2.6 2.36z"/><path d="m446.89 184.78a1.46 1.46 0 0 0 0 .29c0 1.47.84 2.3 2.54 2.3a3.35 3.35 0 0 0 2.41-.92l.45.71a4.22 4.22 0 0 1 -2.94 1.09c-2.13 0-3.44-1.2-3.44-3.13a4.11 4.11 0 0 1 4.08-4.36 2.93 2.93 0 0 1 3.21 3.12 5.16 5.16 0 0 1 -.1.9zm.1-.74h5.25a2.53 2.53 0 0 0 0-.27 2.08 2.08 0 0 0 -2.31-2.17 3 3 0 0 0 -2.93 2.4z"/><path d="m463.16 183.15a5 5 0 0 1 -.08.84l-.85 4.19h-1l.84-4.2a4.13 4.13 0 0 0 .07-.67c0-1.05-.63-1.65-1.9-1.65a2.87 2.87 0 0 0 -3 2.57l-.79 4h-1l1.46-7.36h.95l-.24 1.17a3.63 3.63 0 0 1 2.89-1.23 2.31 2.31 0 0 1 2.65 2.34z"/><path d="m467.59 186a4 4 0 0 0 0 .46c0 .63.35 1 1.06 1a1.9 1.9 0 0 0 1.14-.38l.23.76a2.7 2.7 0 0 1 -1.63.47 1.61 1.61 0 0 1 -1.8-1.68 2.83 2.83 0 0 1 .06-.57l.85-4.34h-1.3l.15-.84h1.32l.32-1.62h1l-.32 1.62h2.24l-.17.84h-2.24z"/><path d="m478.43 187.45a1.4 1.4 0 0 1 -.27.75l-1.06 2h-.67l.89-2.06a.69.69 0 0 1 -.39-.64.78.78 0 0 1 .78-.8.7.7 0 0 1 .72.75z"/><path d="m127.6 200a4.32 4.32 0 0 1 -.09.85l-.84 4.18h-1l.84-4.2a4.13 4.13 0 0 0 .07-.67c0-1.05-.63-1.65-1.91-1.65a2.87 2.87 0 0 0 -3 2.57l-.77 3.92h-1l1.45-7.36h1l-.24 1.17a3.62 3.62 0 0 1 2.88-1.23c1.64-.02 2.61.88 2.61 2.42z"/><path d="m131.39 201.58a1.46 1.46 0 0 0 0 .29c0 1.48.84 2.3 2.54 2.3a3.35 3.35 0 0 0 2.41-.92l.45.71a4.22 4.22 0 0 1 -2.94 1.09c-2.13 0-3.44-1.2-3.44-3.13a4.11 4.11 0 0 1 4.08-4.36 2.93 2.93 0 0 1 3.21 3.12 5.16 5.16 0 0 1 -.1.9zm.1-.74h5.25a2.53 2.53 0 0 0 0-.27 2.08 2.08 0 0 0 -2.31-2.17 3 3 0 0 0 -2.94 2.44z"/><path d="m152.17 197.62-4.17 7.38h-1l-1.23-6-3.45 6h-1l-1.32-7.38h.91l1.19 6.24 3.56-6.24h.84l1.23 6.24 3.5-6.24z"/><path d="m157.83 201.93a4.18 4.18 0 0 1 4.29-4.37 3.08 3.08 0 0 1 2.88 1.44l-.84.49a2.27 2.27 0 0 0 -2.14-1.09 3.24 3.24 0 0 0 -3.21 3.46 2.15 2.15 0 0 0 2.45 2.28 2.84 2.84 0 0 0 2.32-1.06l.72.54a3.8 3.8 0 0 1 -3.08 1.4c-2.08.03-3.39-1.2-3.39-3.09z"/><path d="m168.8 194.59h1l-2.08 10.41h-1z"/><path d="m179.73 197.62-1.47 7.38h-.95l.24-1.16a3.77 3.77 0 0 1 -2.87 1.23 3 3 0 0 1 -3.21-3.12 4.14 4.14 0 0 1 4.16-4.37 2.76 2.76 0 0 1 2.8 1.6l.31-1.54zm-1.65 3.11a2.15 2.15 0 0 0 -2.42-2.3 3.24 3.24 0 0 0 -3.2 3.46 2.15 2.15 0 0 0 2.43 2.28 3.22 3.22 0 0 0 3.19-3.44z"/><path d="m181.3 204.16.47-.79a4 4 0 0 0 2.55.82c1.42 0 2.19-.49 2.19-1.32 0-1.67-4.18-.52-4.18-3 0-1.4 1.26-2.3 3.2-2.3a4.49 4.49 0 0 1 2.49.69l-.42.79a3.71 3.71 0 0 0 -2.16-.63c-1.36 0-2.13.55-2.13 1.35 0 1.71 4.18.55 4.18 3 0 1.45-1.31 2.29-3.27 2.29a4.64 4.64 0 0 1 -2.92-.9z"/><path d="m189.19 204.16.48-.79a4 4 0 0 0 2.55.82c1.41 0 2.18-.49 2.18-1.32 0-1.67-4.17-.52-4.17-3 0-1.4 1.26-2.3 3.19-2.3a4.5 4.5 0 0 1 2.5.69l-.42.79a3.75 3.75 0 0 0 -2.16-.63c-1.36 0-2.13.55-2.13 1.35 0 1.71 4.17.55 4.17 3 0 1.45-1.3 2.29-3.26 2.29a4.67 4.67 0 0 1 -2.93-.9z"/><path d="m203.57 204.26a1.32 1.32 0 0 1 -.27.74l-1.06 2h-.67l.89-2.06a.71.71 0 0 1 -.39-.64.79.79 0 0 1 .79-.8.7.7 0 0 1 .71.76z"/><path d="m219 200a4.32 4.32 0 0 1 -.09.85l-.84 4.18h-1l.84-4.2a4.13 4.13 0 0 0 .07-.67c0-1.05-.63-1.65-1.91-1.65a2.86 2.86 0 0 0 -3 2.57l-.79 3.95h-1l1.45-7.36h1l-.24 1.17a3.62 3.62 0 0 1 2.88-1.23c1.68-.05 2.63.85 2.63 2.39z"/><path d="m222.81 201.58a1.46 1.46 0 0 0 0 .29c0 1.48.84 2.3 2.54 2.3a3.35 3.35 0 0 0 2.41-.92l.45.71a4.23 4.23 0 0 1 -2.95 1.09c-2.13 0-3.43-1.2-3.43-3.13a4.11 4.11 0 0 1 4.08-4.36 2.94 2.94 0 0 1 3.21 3.12 5.16 5.16 0 0 1 -.1.9zm.09-.74h5.26a2.53 2.53 0 0 0 0-.27 2.08 2.08 0 0 0 -2.31-2.17 3 3 0 0 0 -2.95 2.44z"/><path d="m243.59 197.62-4.16 7.38h-1l-1.23-6-3.45 6h-.95l-1.44-7.36h.91l1.19 6.24 3.56-6.24h.84l1.23 6.24 3.5-6.24z"/><path d="m252.09 196.8-.16.82h2.25l-.17.84h-2.22l-1.31 6.54h-1l1.3-6.52h-1.31l.15-.84h1.38l.18-.93a2.41 2.41 0 0 1 2.52-2.17 2.26 2.26 0 0 1 1.49.48l-.44.72a1.57 1.57 0 0 0 -1.05-.36c-.9-.02-1.39.43-1.61 1.42z"/><path d="m261.42 197.56-.18 1h-.28c-1.57 0-2.62.9-3 2.73l-.74 3.74h-1l1.45-7.36h1l-.26 1.34a3.33 3.33 0 0 1 3.01-1.45z"/><path d="m264.25 197.62h1l-1.47 7.38h-1zm.25-2.27a.75.75 0 0 1 .77-.76.66.66 0 0 1 .69.63.76.76 0 0 1 -.79.78.65.65 0 0 1 -.67-.65z"/><path d="m268.53 201.58v.29c0 1.48.84 2.3 2.53 2.3a3.35 3.35 0 0 0 2.41-.92l.45.71a4.21 4.21 0 0 1 -2.94 1.09c-2.13 0-3.43-1.2-3.43-3.13a4.1 4.1 0 0 1 4.07-4.36 2.93 2.93 0 0 1 3.21 3.12 4.35 4.35 0 0 1 -.1.9zm.1-.74h5.25a2.53 2.53 0 0 0 0-.27 2.07 2.07 0 0 0 -2.31-2.17 3 3 0 0 0 -2.94 2.44z"/><path d="m284.8 200a5.18 5.18 0 0 1 -.08.85l-.84 4.18h-1l.84-4.2a4.13 4.13 0 0 0 .07-.67c0-1.05-.63-1.65-1.9-1.65a2.87 2.87 0 0 0 -3 2.57l-.78 3.95h-1l1.46-7.36h.95l-.24 1.17a3.64 3.64 0 0 1 2.89-1.23 2.31 2.31 0 0 1 2.63 2.39z"/><path d="m296.46 194.59-2.07 10.41h-.95l.24-1.16a3.78 3.78 0 0 1 -2.88 1.23 3 3 0 0 1 -3.2-3.12 4.14 4.14 0 0 1 4.16-4.37 2.77 2.77 0 0 1 2.8 1.6l.91-4.57zm-2.25 6.14a2.15 2.15 0 0 0 -2.42-2.3 3.24 3.24 0 0 0 -3.2 3.46 2.14 2.14 0 0 0 2.42 2.28 3.22 3.22 0 0 0 3.2-3.44z"/><path d="m297.42 204.16.48-.79a4 4 0 0 0 2.55.82c1.41 0 2.18-.49 2.18-1.32 0-1.67-4.17-.52-4.17-3 0-1.4 1.26-2.3 3.19-2.3a4.5 4.5 0 0 1 2.5.69l-.42.79a3.73 3.73 0 0 0 -2.16-.63c-1.36 0-2.13.55-2.13 1.35 0 1.71 4.18.55 4.18 3 0 1.45-1.31 2.29-3.27 2.29a4.69 4.69 0 0 1 -2.93-.9z"/><path d="m317.63 203.11 1.08 1.38-.67.65-1.04-1.36a5 5 0 0 1 -3.4 1.29c-1.84 0-3-.87-3-2.24s.93-2.27 3.07-3.32a3.33 3.33 0 0 1 -.8-2 2.44 2.44 0 0 1 2.72-2.44c1.27 0 2.14.66 2.14 1.72s-.84 1.95-2.75 2.87l2.15 2.73a7.55 7.55 0 0 0 1-1.9l.78.25a8.59 8.59 0 0 1 -1.28 2.37zm-1.16 0-2.36-3c-1.89.92-2.54 1.6-2.54 2.56s.74 1.57 2.07 1.57a4.07 4.07 0 0 0 2.83-1.11zm-2.71-5.7a2.81 2.81 0 0 0 .73 1.67c1.81-.85 2.34-1.36 2.34-2.2 0-.59-.46-1.05-1.3-1.05a1.58 1.58 0 0 0 -1.77 1.6z"/><path d="m333.65 200a4.32 4.32 0 0 1 -.09.85l-.84 4.18h-1l.84-4.2a4.13 4.13 0 0 0 .07-.67c0-1.05-.63-1.65-1.91-1.65a2.86 2.86 0 0 0 -3 2.57l-.72 3.92h-1l1.45-7.36h1l-.24 1.17a3.62 3.62 0 0 1 2.88-1.23c1.59-.02 2.56.88 2.56 2.42z"/><path d="m337.44 201.58a1.46 1.46 0 0 0 0 .29c0 1.48.84 2.3 2.54 2.3a3.35 3.35 0 0 0 2.41-.92l.45.71a4.23 4.23 0 0 1 -2.95 1.09c-2.12 0-3.43-1.2-3.43-3.13a4.1 4.1 0 0 1 4.08-4.36 2.93 2.93 0 0 1 3.21 3.12 5.16 5.16 0 0 1 -.1.9zm.1-.74h5.25a2.53 2.53 0 0 0 0-.27 2.08 2.08 0 0 0 -2.31-2.17 3 3 0 0 0 -2.94 2.44z"/><path d="m358.22 197.62-4.16 7.38h-1l-1.23-6-3.45 6h-1l-1.38-7.38h.91l1.19 6.24 3.56-6.24h.84l1.23 6.24 3.5-6.24z"/><path d="m365.55 202.76a2.64 2.64 0 0 0 -.06.46c0 .63.35 1 1.07 1a1.88 1.88 0 0 0 1.13-.38l.24.76a2.73 2.73 0 0 1 -1.64.47 1.6 1.6 0 0 1 -1.79-1.68 2.81 2.81 0 0 1 .05-.57l.86-4.34h-1.3l.15-.84h1.32l.32-1.62h1l-.32 1.62h2.24l-.17.84h-2.25z"/><path d="m371.34 201.58v.29c0 1.48.84 2.3 2.54 2.3a3.31 3.31 0 0 0 2.4-.92l.45.71a4.19 4.19 0 0 1 -2.94 1.09c-2.13 0-3.43-1.2-3.43-3.13a4.1 4.1 0 0 1 4.08-4.36 2.93 2.93 0 0 1 3.2 3.12 5.18 5.18 0 0 1 -.09.9zm.1-.74h5.26a2.53 2.53 0 0 0 0-.27 2.08 2.08 0 0 0 -2.31-2.17 3 3 0 0 0 -2.95 2.44z"/><path d="m388.12 197.62-1.47 7.38h-.95l.23-1.16a3.76 3.76 0 0 1 -2.87 1.23 3 3 0 0 1 -3.2-3.12 4.14 4.14 0 0 1 4.16-4.37 2.76 2.76 0 0 1 2.8 1.6l.31-1.54zm-1.65 3.11a2.16 2.16 0 0 0 -2.43-2.3 3.24 3.24 0 0 0 -3.19 3.46 2.14 2.14 0 0 0 2.42 2.28 3.22 3.22 0 0 0 3.2-3.44z"/><path d="m390.4 201.93a4.18 4.18 0 0 1 4.28-4.37 3.06 3.06 0 0 1 2.9 1.47l-.84.49a2.26 2.26 0 0 0 -2.14-1.09 3.24 3.24 0 0 0 -3.21 3.46 2.15 2.15 0 0 0 2.45 2.28 2.86 2.86 0 0 0 2.33-1.06l.71.54a3.8 3.8 0 0 1 -3.08 1.4c-2.1 0-3.4-1.23-3.4-3.12z"/><path d="m407 200a4.32 4.32 0 0 1 -.09.85l-.84 4.18h-1l.84-4.2a4.13 4.13 0 0 0 .07-.67c0-1.05-.63-1.65-1.91-1.65a2.87 2.87 0 0 0 -3 2.57l-.79 3.95h-1l2.07-10.39h1l-.83 4.13a3.58 3.58 0 0 1 2.81-1.16c1.67-.05 2.67.85 2.67 2.39z"/><path d="m410.77 201.58a1.46 1.46 0 0 0 0 .29c0 1.48.84 2.3 2.54 2.3a3.35 3.35 0 0 0 2.41-.92l.45.71a4.22 4.22 0 0 1 -2.94 1.09c-2.13 0-3.44-1.2-3.44-3.13a4.11 4.11 0 0 1 4.08-4.36 2.93 2.93 0 0 1 3.21 3.12 4.35 4.35 0 0 1 -.1.9zm.1-.74h5.25a2.53 2.53 0 0 0 0-.27 2.08 2.08 0 0 0 -2.31-2.17 3 3 0 0 0 -2.94 2.44z"/><path d="m424.53 197.56-.18 1h-.28c-1.57 0-2.62.9-3 2.73l-.75 3.74h-1l1.46-7.36h.95l-.25 1.34a3.3 3.3 0 0 1 3.05-1.45z"/><path d="m425.17 204.16.48-.79a4 4 0 0 0 2.55.82c1.41 0 2.18-.49 2.18-1.32 0-1.67-4.17-.52-4.17-3 0-1.4 1.26-2.3 3.19-2.3a4.5 4.5 0 0 1 2.5.69l-.42.79a3.73 3.73 0 0 0 -2.16-.63c-1.36 0-2.13.55-2.13 1.35 0 1.71 4.17.55 4.17 3 0 1.45-1.3 2.29-3.26 2.29a4.69 4.69 0 0 1 -2.93-.9z"/><path d="m433.33 204.33a.79.79 0 0 1 .79-.8.7.7 0 0 1 .71.73.77.77 0 0 1 -.77.79.73.73 0 0 1 -.73-.72z"/><path d="m444.76 195.18h1l-2 9.8h-1z"/><path d="m452.51 201.93a4.18 4.18 0 0 1 4.29-4.37 3.07 3.07 0 0 1 2.9 1.47l-.84.49a2.26 2.26 0 0 0 -2.14-1.09 3.24 3.24 0 0 0 -3.21 3.46 2.15 2.15 0 0 0 2.45 2.28 2.87 2.87 0 0 0 2.33-1.06l.71.54a3.8 3.8 0 0 1 -3.08 1.4c-2.1 0-3.41-1.23-3.41-3.12z"/><path d="m469.58 197.62-1.47 7.38h-.95l.24-1.16a3.77 3.77 0 0 1 -2.87 1.23 3 3 0 0 1 -3.21-3.12 4.14 4.14 0 0 1 4.16-4.37 2.76 2.76 0 0 1 2.8 1.6l.31-1.54zm-1.65 3.11a2.15 2.15 0 0 0 -2.42-2.3 3.24 3.24 0 0 0 -3.2 3.46 2.15 2.15 0 0 0 2.43 2.28 3.22 3.22 0 0 0 3.19-3.44z"/><path d="m479.62 200a5.18 5.18 0 0 1 -.08.85l-.84 4.15h-1l.84-4.2a3.25 3.25 0 0 0 .07-.67c0-1.05-.63-1.65-1.9-1.65a2.87 2.87 0 0 0 -3 2.57l-.78 3.95h-1l1.46-7.36h.95l-.24 1.17a3.66 3.66 0 0 1 2.89-1.23c1.67-.02 2.63.88 2.63 2.42z"/><path d="m127.38 221 .48-.79a4 4 0 0 0 2.55.82c1.41 0 2.18-.5 2.18-1.32 0-1.67-4.17-.52-4.17-3 0-1.4 1.26-2.3 3.19-2.3a4.5 4.5 0 0 1 2.5.69l-.42.79a3.73 3.73 0 0 0 -2.16-.63c-1.36 0-2.13.55-2.13 1.35 0 1.71 4.17.54 4.17 3 0 1.45-1.3 2.29-3.26 2.29a4.69 4.69 0 0 1 -2.93-.9z"/><path d="m144.17 214.42-1.47 7.36h-.95l.24-1.17a3.58 3.58 0 0 1 -2.85 1.24 2.3 2.3 0 0 1 -2.61-2.41 4 4 0 0 1 .08-.82l.84-4.2h1l-.84 4.2a4 4 0 0 0 -.07.66c0 1.06.62 1.68 1.88 1.68a2.87 2.87 0 0 0 3-2.58l.79-4z"/><path d="m159.62 216.73a4.74 4.74 0 0 1 -.1.87l-.84 4.18h-1l.85-4.2a3.45 3.45 0 0 0 .06-.69c0-1-.6-1.63-1.82-1.63a2.74 2.74 0 0 0 -2.85 2.46l-.82 4.06h-1l.84-4.2a4.13 4.13 0 0 0 .07-.67c0-1-.59-1.65-1.82-1.65a2.82 2.82 0 0 0 -2.89 2.57l-.78 3.95h-1l1.46-7.36h.95l-.23 1.17a3.43 3.43 0 0 1 2.78-1.23 2.29 2.29 0 0 1 2.41 1.47 3.74 3.74 0 0 1 3.11-1.47c1.68 0 2.62.88 2.62 2.37z"/><path d="m175.52 216.73a4.74 4.74 0 0 1 -.1.87l-.84 4.18h-1l.84-4.2a2.88 2.88 0 0 0 .07-.69c0-1-.6-1.63-1.82-1.63a2.76 2.76 0 0 0 -2.86 2.46l-.81 4.06h-1l.84-4.2a3.25 3.25 0 0 0 .07-.67c0-1-.58-1.65-1.82-1.65a2.81 2.81 0 0 0 -2.88 2.57l-.79 3.95h-1l1.46-7.36h.95l-.24 1.17a3.45 3.45 0 0 1 2.79-1.23 2.31 2.31 0 0 1 2.41 1.47 3.73 3.73 0 0 1 3.11-1.47c1.68 0 2.62.88 2.62 2.37z"/><path d="m186.56 214.42-1.47 7.36h-1l.24-1.16a3.77 3.77 0 0 1 -2.87 1.23 3 3 0 0 1 -3.21-3.12 4.15 4.15 0 0 1 4.16-4.37 2.76 2.76 0 0 1 2.8 1.6l.31-1.54zm-1.65 3.11a2.15 2.15 0 0 0 -2.42-2.3 3.23 3.23 0 0 0 -3.2 3.46 2.15 2.15 0 0 0 2.43 2.28 3.22 3.22 0 0 0 3.19-3.44z"/><path d="m194.09 214.36-.18 1h-.28c-1.57 0-2.62.9-3 2.73l-.74 3.74h-1l1.46-7.36h.95l-.25 1.34a3.31 3.31 0 0 1 3.04-1.45z"/><path d="m196.92 214.42h1l-1.45 7.36h-1zm.25-2.27a.76.76 0 0 1 .77-.76.66.66 0 0 1 .69.63.76.76 0 0 1 -.79.78.65.65 0 0 1 -.67-.65z"/><path d="m206.71 215.07-5.71 5.93h4.66l-.17.82h-6l.12-.65 5.75-5.87h-4.47l.17-.84h5.81z"/><path d="m209.28 218.38v.29c0 1.47.84 2.3 2.53 2.3a3.34 3.34 0 0 0 2.41-.92l.45.71a4.21 4.21 0 0 1 -2.94 1.09c-2.13 0-3.43-1.2-3.43-3.13a4.1 4.1 0 0 1 4.07-4.36 2.93 2.93 0 0 1 3.21 3.12 4.35 4.35 0 0 1 -.1.9zm.1-.74h5.25a1.27 1.27 0 0 0 0-.27 2.08 2.08 0 0 0 -2.31-2.17 3 3 0 0 0 -2.94 2.44z"/><path d="m230.78 214.42-1.47 7.36h-1l.24-1.16a3.77 3.77 0 0 1 -2.87 1.23 3 3 0 0 1 -3.21-3.12 4.15 4.15 0 0 1 4.16-4.37 2.76 2.76 0 0 1 2.8 1.6l.31-1.54zm-1.66 3.11a2.15 2.15 0 0 0 -2.42-2.3 3.23 3.23 0 0 0 -3.19 3.46 2.14 2.14 0 0 0 2.42 2.28 3.22 3.22 0 0 0 3.19-3.44z"/><path d="m235.2 211.39h1l-2.07 10.39h-1z"/><path d="m240 211.39h1l-2.08 10.39h-1z"/><path d="m249.07 219.56a2.64 2.64 0 0 0 -.06.46c0 .63.35 1 1.07 1a1.85 1.85 0 0 0 1.13-.38l.24.76a2.73 2.73 0 0 1 -1.64.47 1.61 1.61 0 0 1 -1.79-1.68 2.26 2.26 0 0 1 .06-.57l.85-4.34h-1.3l.15-.84h1.32l.32-1.62h1l-.32 1.62h2.24l-.16.84h-2.25z"/><path d="m261.9 216.75a4.32 4.32 0 0 1 -.09.85l-.84 4.18h-1l.84-4.2a4.13 4.13 0 0 0 .07-.67c0-1-.63-1.65-1.91-1.65a2.86 2.86 0 0 0 -3 2.57l-.79 3.95h-1l2.07-10.39h1l-.82 4.13a3.58 3.58 0 0 1 2.81-1.16c1.69 0 2.66.9 2.66 2.39z"/><path d="m265.69 218.38a1.46 1.46 0 0 0 0 .29c0 1.47.84 2.3 2.54 2.3a3.35 3.35 0 0 0 2.41-.92l.45.71a4.23 4.23 0 0 1 -2.95 1.09c-2.12 0-3.43-1.2-3.43-3.13a4.11 4.11 0 0 1 4.08-4.36 2.93 2.93 0 0 1 3.21 3.12 5.16 5.16 0 0 1 -.1.9zm.1-.74h5.21a2.53 2.53 0 0 0 0-.27 2.08 2.08 0 0 0 -2.31-2.17 3 3 0 0 0 -2.9 2.44z"/><path d="m287.18 214.42-1.47 7.36h-.95l.24-1.16a3.78 3.78 0 0 1 -2.88 1.23 3 3 0 0 1 -3.2-3.12 4.14 4.14 0 0 1 4.16-4.37 2.76 2.76 0 0 1 2.8 1.6l.31-1.54zm-1.65 3.11a2.16 2.16 0 0 0 -2.43-2.3 3.23 3.23 0 0 0 -3.19 3.46 2.14 2.14 0 0 0 2.42 2.28 3.22 3.22 0 0 0 3.2-3.44z"/><path d="m297.79 217.47a4.15 4.15 0 0 1 -4.17 4.38 2.74 2.74 0 0 1 -2.82-1.68l-.32 1.61h-1l2.07-10.39h1l-.83 4.13a3.74 3.74 0 0 1 2.8-1.16 3 3 0 0 1 3.27 3.11zm-1 .06a2.15 2.15 0 0 0 -2.42-2.3 3.22 3.22 0 0 0 -3.18 3.46 2.14 2.14 0 0 0 2.41 2.31 3.21 3.21 0 0 0 3.18-3.47z"/><path d="m300 218.73a4.18 4.18 0 0 1 4.26-4.37 3 3 0 0 1 3.35 3.11 4.18 4.18 0 0 1 -4.26 4.38 3 3 0 0 1 -3.35-3.12zm6.61-1.2a2.15 2.15 0 0 0 -2.42-2.3 3.23 3.23 0 0 0 -3.19 3.46 2.14 2.14 0 0 0 2.42 2.28 3.22 3.22 0 0 0 3.19-3.44z"/><path d="m317.35 214.42-4.73 7.36h-1l-1.82-7.36h1l1.52 6.28 4-6.28z"/><path d="m319 218.38v.29c0 1.47.84 2.3 2.53 2.3a3.34 3.34 0 0 0 2.41-.92l.45.71a4.21 4.21 0 0 1 -2.94 1.09c-2.13 0-3.43-1.2-3.43-3.13a4.1 4.1 0 0 1 4.07-4.36 2.93 2.93 0 0 1 3.21 3.12 4.35 4.35 0 0 1 -.1.9zm.1-.74h5.25a1.27 1.27 0 0 0 0-.27 2.08 2.08 0 0 0 -2.32-2.17 3 3 0 0 0 -2.89 2.44z"/><path d="m340 216.75a5.18 5.18 0 0 1 -.08.85l-.84 4.18h-1l.84-4.2a4.13 4.13 0 0 0 .07-.67c0-1-.63-1.65-1.9-1.65a2.87 2.87 0 0 0 -3 2.57l-.79 3.95h-1l1.46-7.36h.95l-.24 1.17a3.64 3.64 0 0 1 2.89-1.23 2.31 2.31 0 0 1 2.64 2.39z"/><path d="m343.82 218.38v.29c0 1.47.84 2.3 2.53 2.3a3.34 3.34 0 0 0 2.41-.92l.45.71a4.21 4.21 0 0 1 -2.94 1.09c-2.13 0-3.43-1.2-3.43-3.13a4.1 4.1 0 0 1 4.07-4.36 2.93 2.93 0 0 1 3.21 3.12 4.35 4.35 0 0 1 -.1.9zm.1-.74h5.25a1.27 1.27 0 0 0 0-.27 2.08 2.08 0 0 0 -2.32-2.17 3 3 0 0 0 -2.93 2.44z"/><path d="m364.6 214.42-4.16 7.36h-1l-1.24-6-3.44 6h-1l-1.44-7.36h.91l1.19 6.24 3.56-6.24h.84l1.23 6.24 3.51-6.24z"/><path d="m371.93 219.56a4 4 0 0 0 -.05.46c0 .63.35 1 1.06 1a1.9 1.9 0 0 0 1.14-.38l.23.76a2.71 2.71 0 0 1 -1.64.47 1.61 1.61 0 0 1 -1.79-1.68 2.83 2.83 0 0 1 .06-.57l.85-4.34h-1.3l.15-.84h1.36l.32-1.62h1l-.32 1.62h2.24l-.17.84h-2.24z"/><path d="m376.73 218.73a4.18 4.18 0 0 1 4.26-4.37 3 3 0 0 1 3.35 3.11 4.18 4.18 0 0 1 -4.26 4.38 3 3 0 0 1 -3.35-3.12zm6.61-1.2a2.15 2.15 0 0 0 -2.42-2.3 3.23 3.23 0 0 0 -3.19 3.46 2.14 2.14 0 0 0 2.42 2.28 3.21 3.21 0 0 0 3.19-3.44z"/><path d="m391.28 218.73a4.18 4.18 0 0 1 4.26-4.37 3 3 0 0 1 3.35 3.11 4.18 4.18 0 0 1 -4.26 4.38 3 3 0 0 1 -3.35-3.12zm6.61-1.2a2.15 2.15 0 0 0 -2.42-2.3 3.23 3.23 0 0 0 -3.2 3.46 2.15 2.15 0 0 0 2.43 2.31 3.22 3.22 0 0 0 3.19-3.47z"/><path d="m408.87 216.75a4.32 4.32 0 0 1 -.09.85l-.84 4.18h-1l.84-4.2a4.13 4.13 0 0 0 .07-.67c0-1-.63-1.65-1.91-1.65a2.87 2.87 0 0 0 -3 2.57l-.79 3.95h-1l1.45-7.36h1l-.24 1.17a3.62 3.62 0 0 1 2.88-1.23c1.66 0 2.63.9 2.63 2.39z"/><path d="m412.66 218.38a1.46 1.46 0 0 0 0 .29c0 1.47.84 2.3 2.54 2.3a3.35 3.35 0 0 0 2.41-.92l.45.71a4.22 4.22 0 0 1 -2.94 1.09c-2.13 0-3.44-1.2-3.44-3.13a4.11 4.11 0 0 1 4.08-4.36 2.93 2.93 0 0 1 3.21 3.12 4.35 4.35 0 0 1 -.1.9zm.1-.74h5.24a2.53 2.53 0 0 0 0-.27 2.08 2.08 0 0 0 -2.31-2.17 3 3 0 0 0 -2.93 2.44z"/><path d="m425.17 221 .48-.79a4 4 0 0 0 2.55.82c1.41 0 2.18-.5 2.18-1.32 0-1.67-4.17-.52-4.17-3 0-1.4 1.26-2.3 3.19-2.3a4.5 4.5 0 0 1 2.5.69l-.42.79a3.73 3.73 0 0 0 -2.16-.63c-1.36 0-2.13.55-2.13 1.35 0 1.71 4.17.54 4.17 3 0 1.45-1.3 2.29-3.26 2.29a4.69 4.69 0 0 1 -2.93-.9z"/><path d="m435.31 214.42h1l-1.45 7.36h-1zm.25-2.27a.75.75 0 0 1 .77-.76.66.66 0 0 1 .69.63.76.76 0 0 1 -.79.78.65.65 0 0 1 -.67-.65z"/><path d="m446.36 216.75a5.18 5.18 0 0 1 -.08.85l-.85 4.18h-1l.84-4.2a4.13 4.13 0 0 0 .07-.67c0-1-.63-1.65-1.9-1.65a2.87 2.87 0 0 0 -3 2.57l-.79 3.95h-1l1.46-7.36h.95l-.24 1.17a3.63 3.63 0 0 1 2.89-1.23 2.31 2.31 0 0 1 2.65 2.39z"/><path d="m457.52 214.42-1.29 6.47c-.52 2.6-1.89 3.68-4.29 3.68a4.68 4.68 0 0 1 -3.28-1.11l.59-.75a3.88 3.88 0 0 0 2.76 1 2.89 2.89 0 0 0 3.2-2.63l.16-.82a3.79 3.79 0 0 1 -2.94 1.26c-1.94 0-3.25-1.13-3.25-3a4.07 4.07 0 0 1 4.2-4.17 2.84 2.84 0 0 1 2.88 1.68l.3-1.62zm-1.68 3c0-1.34-.91-2.14-2.44-2.14a3.13 3.13 0 0 0 -3.21 3.25c0 1.34.9 2.14 2.44 2.14a3.13 3.13 0 0 0 3.21-3.3z"/><path d="m462 211.39h1l-2.08 10.39h-1z"/><path d="m465.62 218.38a1.46 1.46 0 0 0 0 .29c0 1.47.85 2.3 2.54 2.3a3.35 3.35 0 0 0 2.41-.92l.45.71a4.21 4.21 0 0 1 -2.94 1.09c-2.13 0-3.44-1.2-3.44-3.13a4.11 4.11 0 0 1 4.08-4.36 2.93 2.93 0 0 1 3.21 3.12 4.35 4.35 0 0 1 -.1.9zm.1-.74h5.28a2.53 2.53 0 0 0 0-.27 2.07 2.07 0 0 0 -2.31-2.17 3 3 0 0 0 -2.97 2.44z"/><path d="m133.12 231.22-4.12 7.36h-1l-1.24-6-3.44 6h-.95l-1.45-7.36h.91l1.19 6.24 3.56-6.24h.84l1.23 6.24 3.51-6.24z"/><path d="m133.86 235.53a4.18 4.18 0 0 1 4.26-4.37 3 3 0 0 1 3.34 3.11 4.18 4.18 0 0 1 -4.25 4.38 3 3 0 0 1 -3.35-3.12zm6.61-1.2a2.15 2.15 0 0 0 -2.42-2.3 3.23 3.23 0 0 0 -3.2 3.46 2.15 2.15 0 0 0 2.43 2.28 3.22 3.22 0 0 0 3.19-3.44z"/><path d="m148.94 231.16-.18 1h-.28c-1.57 0-2.62.9-3 2.73l-.74 3.74h-1l1.45-7.36h.95l-.25 1.34a3.33 3.33 0 0 1 3.05-1.45z"/><path d="m159 228.19-2 10.39h-1l.24-1.16a3.77 3.77 0 0 1 -2.87 1.23 3 3 0 0 1 -3.21-3.12 4.14 4.14 0 0 1 4.16-4.37 2.77 2.77 0 0 1 2.8 1.6l.91-4.57zm-2.26 6.14a2.15 2.15 0 0 0 -2.42-2.3 3.23 3.23 0 0 0 -3.2 3.46 2.15 2.15 0 0 0 2.43 2.28 3.22 3.22 0 0 0 3.23-3.44z"/><path d="m167 231.22h1l-1.46 7.36h-1zm.26-2.27a.75.75 0 0 1 .77-.76.65.65 0 0 1 .68.63.76.76 0 0 1 -.78.78.65.65 0 0 1 -.72-.6z"/><path d="m169.8 237.93a.78.78 0 0 1 .78-.8.69.69 0 0 1 .71.72.78.78 0 0 1 -.77.8.72.72 0 0 1 -.72-.72z"/><path d="m175.05 235.18a1.46 1.46 0 0 0 0 .29c0 1.47.84 2.3 2.54 2.3a3.35 3.35 0 0 0 2.41-.92l.44.71a4.19 4.19 0 0 1 -2.94 1.09c-2.13 0-3.43-1.2-3.43-3.13a4.1 4.1 0 0 1 4.08-4.36 2.93 2.93 0 0 1 3.21 3.12 5.16 5.16 0 0 1 -.1.9zm.09-.74h5.26a2.53 2.53 0 0 0 0-.27 2.08 2.08 0 0 0 -2.3-2.17 3 3 0 0 0 -2.96 2.44z"/><path d="m196 233.55a4.14 4.14 0 0 1 -.09.84l-.84 4.19h-1l.84-4.2a4.13 4.13 0 0 0 .07-.67c0-1.05-.63-1.65-1.91-1.65a2.87 2.87 0 0 0 -3 2.57l-.78 4h-1l1.45-7.36h.95l-.23 1.17a3.62 3.62 0 0 1 2.88-1.23c1.73-.05 2.66.85 2.66 2.34z"/><path d="m199.83 235.18a1.46 1.46 0 0 0 0 .29c0 1.47.84 2.3 2.54 2.3a3.35 3.35 0 0 0 2.41-.92l.44.71a4.19 4.19 0 0 1 -2.94 1.09c-2.13 0-3.43-1.2-3.43-3.13a4.1 4.1 0 0 1 4.08-4.36 2.94 2.94 0 0 1 3.21 3.12 5.16 5.16 0 0 1 -.1.9zm.09-.74h5.26a2.53 2.53 0 0 0 0-.27 2.08 2.08 0 0 0 -2.31-2.17 3 3 0 0 0 -2.95 2.44z"/><path d="m220.61 231.22-4.16 7.36h-1l-1.23-6-3.45 6h-1l-1.44-7.36h.91l1.19 6.24 3.56-6.24h.84l1.23 6.24 3.5-6.24z"/><path d="m225.85 237.42.5-.81a4.54 4.54 0 0 0 3.16 1.18c1.71 0 2.88-.71 2.88-1.94 0-2.25-5.1-1.12-5.1-4.2 0-1.85 1.64-3 3.93-3a5.33 5.33 0 0 1 3 .84l-.43.84a4.57 4.57 0 0 0 -2.66-.79c-1.71 0-2.86.75-2.86 2 0 2.28 5.11 1.19 5.11 4.16 0 1.89-1.68 3-4 3a5.15 5.15 0 0 1 -3.53-1.28z"/><path d="m236.24 234.59a5.73 5.73 0 0 1 6-5.9 4.12 4.12 0 0 1 3.48 1.43l-.72.65a3.45 3.45 0 0 0 -2.85-1.15 4.74 4.74 0 0 0 -4.86 4.92c0 1.91 1.25 3.2 3.64 3.2a4.26 4.26 0 0 0 3.11-1.16l.61.69a5.22 5.22 0 0 1 -3.8 1.4c-2.94 0-4.61-1.67-4.61-4.08z"/><path d="m257.47 228.78-2 9.8h-1l.89-4.51h-6.13l-.9 4.51h-1l2-9.8h1l-.87 4.35h6.14l.87-4.35z"/><path d="m259.79 234.59a5.71 5.71 0 0 1 5.91-5.9c2.9 0 4.55 1.66 4.55 4.08a5.73 5.73 0 0 1 -5.92 5.9c-2.9 0-4.54-1.67-4.54-4.08zm9.42-1.78c0-1.9-1.24-3.19-3.61-3.19a4.72 4.72 0 0 0 -4.79 4.92c0 1.91 1.25 3.2 3.61 3.2a4.72 4.72 0 0 0 4.79-4.93z"/><path d="m272.58 234.59a5.72 5.72 0 0 1 5.91-5.9c2.9 0 4.56 1.66 4.56 4.08a5.73 5.73 0 0 1 -5.93 5.9c-2.9 0-4.54-1.67-4.54-4.08zm9.43-1.78c0-1.9-1.25-3.19-3.61-3.19a4.72 4.72 0 0 0 -4.79 4.92c0 1.91 1.24 3.2 3.61 3.2a4.72 4.72 0 0 0 4.78-4.93z"/><path d="m287.31 228.78h1l-1.77 8.91h5.49l-.19.89h-6.51z"/><path d="m300.13 237.85a1.38 1.38 0 0 1 -.26.75l-1.07 2h-.67l.9-2.06a.7.7 0 0 1 -.39-.64.78.78 0 0 1 .78-.8.69.69 0 0 1 .71.75z"/><path d="m316.15 234.27a4.15 4.15 0 0 1 -4.17 4.38 2.74 2.74 0 0 1 -2.82-1.68l-.32 1.61h-.95l2.11-10.39h1l-.83 4.13a3.74 3.74 0 0 1 2.8-1.16 3 3 0 0 1 3.18 3.11zm-1 .06a2.16 2.16 0 0 0 -2.43-2.3 3.22 3.22 0 0 0 -3.18 3.46 2.15 2.15 0 0 0 2.43 2.28 3.21 3.21 0 0 0 3.18-3.44z"/><path d="m326.54 231.22-1.47 7.36h-.95l.24-1.17a3.58 3.58 0 0 1 -2.85 1.24 2.31 2.31 0 0 1 -2.62-2.41 4 4 0 0 1 .09-.82l.84-4.2h1l-.84 4.2a4 4 0 0 0 -.07.66c0 1.06.62 1.68 1.88 1.68a2.88 2.88 0 0 0 3-2.58l.79-4z"/><path d="m330.5 236.36a2.64 2.64 0 0 0 -.06.46c0 .63.35 1 1.07 1a1.88 1.88 0 0 0 1.13-.38l.24.76a2.73 2.73 0 0 1 -1.64.47 1.61 1.61 0 0 1 -1.79-1.68 2.26 2.26 0 0 1 .06-.57l.85-4.34h-1.3l.15-.84h1.32l.32-1.62h1l-.32 1.62h2.24l-.16.84h-2.25z"/><path d="m341.81 231.22h1l-1.46 7.36h-1zm.25-2.27a.76.76 0 0 1 .77-.76.66.66 0 0 1 .69.63.76.76 0 0 1 -.78.78.66.66 0 0 1 -.68-.6z"/><path d="m357.58 233.55a5 5 0 0 1 -.08.84l-.84 4.19h-1l.84-4.2a4.13 4.13 0 0 0 .07-.67c0-1.05-.63-1.65-1.9-1.65a2.87 2.87 0 0 0 -3 2.57l-.79 4h-1l2.12-10.44h1l-.83 4.13a3.58 3.58 0 0 1 2.82-1.16 2.31 2.31 0 0 1 2.59 2.39z"/><path d="m368.64 231.22-1.47 7.36h-.95l.23-1.16a3.77 3.77 0 0 1 -2.87 1.23 3 3 0 0 1 -3.21-3.12 4.15 4.15 0 0 1 4.17-4.37 2.76 2.76 0 0 1 2.8 1.6l.3-1.54zm-1.64 3.11a2.16 2.16 0 0 0 -2.43-2.3 3.23 3.23 0 0 0 -3.19 3.46 2.14 2.14 0 0 0 2.42 2.28 3.22 3.22 0 0 0 3.2-3.44z"/><path d="m378.65 231.22-4.74 7.36h-1l-1.82-7.36h1l1.52 6.28 4-6.28z"/><path d="m380.34 235.18v.29c0 1.47.84 2.3 2.53 2.3a3.35 3.35 0 0 0 2.41-.92l.45.71a4.22 4.22 0 0 1 -2.94 1.09c-2.13 0-3.44-1.2-3.44-3.13a4.11 4.11 0 0 1 4.08-4.36 2.93 2.93 0 0 1 3.21 3.12 4.35 4.35 0 0 1 -.1.9zm.1-.74h5.25a2.53 2.53 0 0 0 0-.27 2.07 2.07 0 0 0 -2.31-2.17 3 3 0 0 0 -2.94 2.44z"/><path d="m406.72 233.53a4.55 4.55 0 0 1 -.1.86l-.84 4.19h-1l.84-4.2a3.51 3.51 0 0 0 .07-.69c0-1-.6-1.63-1.82-1.63a2.76 2.76 0 0 0 -2.86 2.46l-.81 4.06h-1l.84-4.2a3.25 3.25 0 0 0 .07-.67c0-1.05-.58-1.65-1.82-1.65a2.81 2.81 0 0 0 -2.88 2.57l-.79 4h-1l1.46-7.36h.95l-.24 1.17a3.45 3.45 0 0 1 2.79-1.23 2.31 2.31 0 0 1 2.41 1.47 3.73 3.73 0 0 1 3.11-1.47c1.68-.05 2.62.79 2.62 2.32z"/><path d="m410.5 235.18a1.46 1.46 0 0 0 0 .29c0 1.47.84 2.3 2.54 2.3a3.35 3.35 0 0 0 2.41-.92l.44.71a4.19 4.19 0 0 1 -2.94 1.09c-2.13 0-3.43-1.2-3.43-3.13a4.1 4.1 0 0 1 4.08-4.36 2.93 2.93 0 0 1 3.2 3.12 5.18 5.18 0 0 1 -.09.9zm.09-.74h5.26a2.53 2.53 0 0 0 0-.27 2.08 2.08 0 0 0 -2.31-2.17 3 3 0 0 0 -2.95 2.44z"/><path d="m426.77 233.55a4.14 4.14 0 0 1 -.09.84l-.84 4.19h-1l.84-4.2a4.13 4.13 0 0 0 .07-.67c0-1.05-.63-1.65-1.91-1.65a2.86 2.86 0 0 0 -3 2.57l-.79 4h-1l1.45-7.36h1l-.24 1.17a3.62 3.62 0 0 1 2.88-1.23c1.66-.05 2.63.85 2.63 2.34z"/><path d="m431.2 236.36a2.58 2.58 0 0 0 -.05.46c0 .63.35 1 1.06 1a1.85 1.85 0 0 0 1.13-.38l.24.76a2.73 2.73 0 0 1 -1.64.47 1.61 1.61 0 0 1 -1.79-1.68 2.26 2.26 0 0 1 .06-.57l.85-4.34h-1.3l.15-.84h1.32l.32-1.62h1l-.33 1.62h2.24l-.16.84h-2.24z"/><path d="m437.79 231.22h1l-1.46 7.36h-1zm.26-2.27a.75.75 0 0 1 .77-.76.65.65 0 0 1 .68.63.76.76 0 0 1 -.78.78.65.65 0 0 1 -.67-.6z"/><path d="m441.08 235.53a4.18 4.18 0 0 1 4.26-4.37 3 3 0 0 1 3.35 3.11 4.18 4.18 0 0 1 -4.26 4.38 3 3 0 0 1 -3.35-3.12zm6.62-1.2a2.16 2.16 0 0 0 -2.43-2.3 3.23 3.23 0 0 0 -3.19 3.46 2.14 2.14 0 0 0 2.42 2.28 3.22 3.22 0 0 0 3.2-3.44z"/><path d="m458.67 233.55a5 5 0 0 1 -.08.84l-.84 4.19h-1l.84-4.2a3.25 3.25 0 0 0 .07-.67c0-1.05-.63-1.65-1.9-1.65a2.87 2.87 0 0 0 -3 2.57l-.78 4h-1l1.46-7.36h.95l-.24 1.17a3.66 3.66 0 0 1 2.89-1.23c1.67-.05 2.63.85 2.63 2.34z"/><path d="m462.46 235.18v.29c0 1.47.84 2.3 2.53 2.3a3.34 3.34 0 0 0 2.41-.92l.45.71a4.21 4.21 0 0 1 -2.94 1.09c-2.13 0-3.43-1.2-3.43-3.13a4.1 4.1 0 0 1 4.07-4.36 2.93 2.93 0 0 1 3.21 3.12 4.35 4.35 0 0 1 -.1.9zm.1-.74h5.25a1.27 1.27 0 0 0 0-.27 2.08 2.08 0 0 0 -2.31-2.17 3 3 0 0 0 -2.94 2.44z"/><path d="m479.84 228.19-2.07 10.39h-1l.24-1.16a3.77 3.77 0 0 1 -2.87 1.23 3 3 0 0 1 -3.21-3.12 4.15 4.15 0 0 1 4.16-4.37 2.77 2.77 0 0 1 2.8 1.6l.92-4.57zm-2.26 6.14a2.15 2.15 0 0 0 -2.42-2.3 3.23 3.23 0 0 0 -3.19 3.46 2.14 2.14 0 0 0 2.42 2.28 3.21 3.21 0 0 0 3.19-3.44z"/><path d="m123.83 248h1l-1.46 7.36h-1zm.26-2.27a.75.75 0 0 1 .77-.76.65.65 0 0 1 .68.63.76.76 0 0 1 -.78.78.65.65 0 0 1 -.67-.63z"/><path d="m128.79 253.16a2.58 2.58 0 0 0 0 .46c0 .63.34 1 1.06 1a1.85 1.85 0 0 0 1.13-.38l.24.76a2.73 2.73 0 0 1 -1.64.47 1.61 1.61 0 0 1 -1.79-1.68 2.26 2.26 0 0 1 .06-.57l.85-4.34h-1.3l.15-.84h1.32l.32-1.62h1l-.33 1.62h2.24l-.16.84h-2.24z"/><path d="m147.44 245-2.07 10.39h-1l.24-1.16a3.79 3.79 0 0 1 -2.88 1.23 3 3 0 0 1 -3.2-3.12 4.14 4.14 0 0 1 4.16-4.37 2.77 2.77 0 0 1 2.8 1.6l.91-4.57zm-2.25 6.14a2.16 2.16 0 0 0 -2.43-2.3 3.24 3.24 0 0 0 -3.19 3.46 2.14 2.14 0 0 0 2.42 2.28 3.22 3.22 0 0 0 3.2-3.45z"/><path d="m150.64 248h1l-1.46 7.36h-1zm.26-2.27a.75.75 0 0 1 .77-.76.65.65 0 0 1 .68.63.76.76 0 0 1 -.78.78.65.65 0 0 1 -.67-.63z"/><path d="m156.78 247.2-.17.82h2.25l-.16.84h-2.23l-1.3 6.52h-1l1.3-6.52h-1.31l.15-.84h1.33l.19-.93a2.41 2.41 0 0 1 2.52-2.17 2.23 2.23 0 0 1 1.48.48l-.43.72a1.59 1.59 0 0 0 -1.05-.36c-.87 0-1.35.45-1.57 1.44z"/><path d="m162.57 247.2-.16.82h2.25l-.17.84h-2.23l-1.3 6.52h-1l1.3-6.52h-1.26l.16-.84h1.33l.18-.93a2.41 2.41 0 0 1 2.52-2.17 2.26 2.26 0 0 1 1.49.48l-.44.72a1.57 1.57 0 0 0 -1.05-.36c-.92 0-1.41.45-1.62 1.44z"/><path d="m166.39 252v.29c0 1.47.84 2.3 2.53 2.3a3.36 3.36 0 0 0 2.42-.92l.44.71a4.19 4.19 0 0 1 -2.94 1.09c-2.13 0-3.43-1.2-3.43-3.13a4.1 4.1 0 0 1 4.08-4.36 2.93 2.93 0 0 1 3.2 3.12 5.18 5.18 0 0 1 -.09.9zm.1-.74h5.26a2.53 2.53 0 0 0 0-.27 2.08 2.08 0 0 0 -2.31-2.17 3 3 0 0 0 -2.95 2.42z"/><path d="m180.16 248-.18 1h-.28c-1.57 0-2.62.9-3 2.73l-.74 3.74h-1l1.45-7.36h.95l-.25 1.34a3.33 3.33 0 0 1 3.05-1.45z"/><path d="m182.38 252v.29c0 1.47.84 2.3 2.53 2.3a3.34 3.34 0 0 0 2.41-.92l.45.71a4.19 4.19 0 0 1 -2.94 1.09c-2.13 0-3.43-1.2-3.43-3.13a4.1 4.1 0 0 1 4.07-4.36 2.93 2.93 0 0 1 3.21 3.12 4.35 4.35 0 0 1 -.1.9zm.1-.74h5.25a1.27 1.27 0 0 0 0-.27 2.08 2.08 0 0 0 -2.31-2.17 3 3 0 0 0 -2.94 2.42z"/><path d="m198.65 250.35a4.27 4.27 0 0 1 -.08.85l-.84 4.18h-1l.85-4.2a4.13 4.13 0 0 0 .07-.67c0-1-.64-1.65-1.91-1.65a2.87 2.87 0 0 0 -3 2.57l-.78 3.95h-1l1.46-7.36h1l-.24 1.17a3.66 3.66 0 0 1 2.82-1.19c1.69 0 2.65.86 2.65 2.35z"/><path d="m203.09 253.16a2.64 2.64 0 0 0 -.06.46c0 .63.35 1 1.07 1a1.88 1.88 0 0 0 1.13-.38l.24.76a2.73 2.73 0 0 1 -1.64.47 1.6 1.6 0 0 1 -1.79-1.68 2.81 2.81 0 0 1 .05-.57l.86-4.34h-1.3l.15-.84h1.32l.32-1.62h1l-.32 1.62h2.24l-.17.84h-2.24z"/><path d="m210.3 245h1l-2.07 10.39h-1z"/><path d="m220.7 248-5.38 8.32c-.91 1.4-1.59 1.83-2.66 1.83a2.41 2.41 0 0 1 -1.75-.66l.53-.73a1.74 1.74 0 0 0 1.31.54c.63 0 1.12-.3 1.69-1.19l.52-.79-1.84-7.32h1l1.53 6.27 4-6.27z"/><path d="m234.59 248-1.47 7.36h-1l.24-1.16a3.78 3.78 0 0 1 -2.88 1.23 3 3 0 0 1 -3.2-3.12 4.14 4.14 0 0 1 4.16-4.37 2.76 2.76 0 0 1 2.8 1.6l.31-1.54zm-1.65 3.11a2.16 2.16 0 0 0 -2.43-2.3 3.24 3.24 0 0 0 -3.19 3.46 2.15 2.15 0 0 0 2.43 2.28 3.22 3.22 0 0 0 3.19-3.42z"/><path d="m236.15 254.56.48-.79a4 4 0 0 0 2.55.82c1.41 0 2.19-.49 2.19-1.32 0-1.67-4.18-.52-4.18-3 0-1.4 1.26-2.3 3.19-2.3a4.5 4.5 0 0 1 2.5.69l-.42.79a3.73 3.73 0 0 0 -2.16-.63c-1.36 0-2.13.55-2.13 1.35 0 1.71 4.18.54 4.18 3 0 1.45-1.31 2.29-3.27 2.29a4.69 4.69 0 0 1 -2.93-.9z"/><path d="m257.21 248-5.37 8.32c-.92 1.4-1.6 1.83-2.67 1.83a2.41 2.41 0 0 1 -1.75-.66l.54-.73a1.7 1.7 0 0 0 1.3.54c.63 0 1.12-.3 1.69-1.19l.52-.79-1.83-7.32h1l1.52 6.27 4-6.27z"/><path d="m257.91 252.33a4.18 4.18 0 0 1 4.26-4.37 3 3 0 0 1 3.35 3.11 4.18 4.18 0 0 1 -4.26 4.38 3 3 0 0 1 -3.35-3.12zm6.61-1.2a2.15 2.15 0 0 0 -2.42-2.3 3.23 3.23 0 0 0 -3.19 3.46 2.14 2.14 0 0 0 2.42 2.28 3.22 3.22 0 0 0 3.19-3.44z"/><path d="m275.92 248-1.47 7.36h-.95l.23-1.17a3.56 3.56 0 0 1 -2.84 1.24 2.31 2.31 0 0 1 -2.62-2.41 4.83 4.83 0 0 1 .08-.82l.85-4.2h1l-.84 4.2a4 4 0 0 0 -.07.66c0 1.06.62 1.68 1.88 1.68a2.88 2.88 0 0 0 3-2.58l.78-4z"/><path d="m290.69 250.35a4.32 4.32 0 0 1 -.09.85l-.84 4.18h-1l.84-4.2a4.13 4.13 0 0 0 .07-.67c0-1-.63-1.65-1.9-1.65a2.87 2.87 0 0 0 -3 2.57l-.79 3.95h-1l2.09-10.38h1l-.83 4.13a3.58 3.58 0 0 1 2.82-1.16 2.31 2.31 0 0 1 2.63 2.38z"/><path d="m301.75 248-1.47 7.36h-.95l.23-1.16a3.77 3.77 0 0 1 -2.87 1.23 3 3 0 0 1 -3.21-3.12 4.15 4.15 0 0 1 4.16-4.37 2.76 2.76 0 0 1 2.81 1.6l.3-1.54zm-1.65 3.11a2.16 2.16 0 0 0 -2.43-2.3 3.24 3.24 0 0 0 -3.19 3.46 2.14 2.14 0 0 0 2.42 2.28 3.22 3.22 0 0 0 3.2-3.42z"/><path d="m311.76 248-4.76 7.38h-1l-1.82-7.38h1l1.53 6.29 4-6.29z"/><path d="m313.45 252a1.46 1.46 0 0 0 0 .29c0 1.47.84 2.3 2.54 2.3a3.35 3.35 0 0 0 2.41-.92l.45.71a4.22 4.22 0 0 1 -2.94 1.09c-2.13 0-3.44-1.2-3.44-3.13a4.11 4.11 0 0 1 4.08-4.36 2.93 2.93 0 0 1 3.21 3.12 4.35 4.35 0 0 1 -.1.9zm.1-.74h5.25a2.53 2.53 0 0 0 0-.27 2.08 2.08 0 0 0 -2.31-2.17 3 3 0 0 0 -2.94 2.42z"/><path d="m326 254.56.48-.79a4 4 0 0 0 2.55.82c1.41 0 2.18-.49 2.18-1.32 0-1.67-4.17-.52-4.17-3 0-1.4 1.26-2.3 3.19-2.3a4.5 4.5 0 0 1 2.5.69l-.42.79a3.73 3.73 0 0 0 -2.16-.63c-1.36 0-2.13.55-2.13 1.35 0 1.71 4.18.54 4.18 3 0 1.45-1.31 2.29-3.27 2.29a4.69 4.69 0 0 1 -2.93-.9z"/><path d="m342.75 248-1.47 7.36h-.95l.24-1.17a3.57 3.57 0 0 1 -2.84 1.24 2.3 2.3 0 0 1 -2.62-2.41 4 4 0 0 1 .08-.82l.81-4.2h1l-.84 4.2a4 4 0 0 0 -.07.66c0 1.06.62 1.68 1.88 1.68a2.89 2.89 0 0 0 3-2.58l.78-4z"/><path d="m353.38 251.07a4.15 4.15 0 0 1 -4.17 4.38 2.76 2.76 0 0 1 -2.81-1.61l-.84 4.26h-1l2-10.08h.95l-.23 1.17a3.74 3.74 0 0 1 2.87-1.23 3 3 0 0 1 3.23 3.11zm-1 .06a2.15 2.15 0 0 0 -2.42-2.3 3.21 3.21 0 0 0 -3.18 3.46 2.14 2.14 0 0 0 2.42 2.28 3.21 3.21 0 0 0 3.17-3.44z"/><path d="m363.92 251.07a4.15 4.15 0 0 1 -4.17 4.38 2.75 2.75 0 0 1 -2.8-1.61l-.84 4.26h-1l2-10.08h1l-.24 1.17a3.74 3.74 0 0 1 2.83-1.19 3 3 0 0 1 3.22 3.07zm-1 .06a2.15 2.15 0 0 0 -2.42-2.3 3.22 3.22 0 0 0 -3.18 3.46 2.14 2.14 0 0 0 2.42 2.28 3.21 3.21 0 0 0 3.17-3.44z"/><path d="m366.13 252.33a4.18 4.18 0 0 1 4.26-4.37 3 3 0 0 1 3.35 3.11 4.18 4.18 0 0 1 -4.26 4.38 3 3 0 0 1 -3.35-3.12zm6.61-1.2a2.15 2.15 0 0 0 -2.42-2.3 3.24 3.24 0 0 0 -3.2 3.46 2.15 2.15 0 0 0 2.43 2.28 3.22 3.22 0 0 0 3.19-3.44z"/><path d="m381.21 248-.18 1h-.28c-1.57 0-2.62.9-3 2.73l-.74 3.74h-1l1.45-7.36h1l-.26 1.34a3.33 3.33 0 0 1 3.01-1.45z"/><path d="m384.5 253.16a2.64 2.64 0 0 0 -.06.46c0 .63.35 1 1.07 1a1.88 1.88 0 0 0 1.13-.38l.24.76a2.73 2.73 0 0 1 -1.64.47 1.6 1.6 0 0 1 -1.79-1.68 2.81 2.81 0 0 1 .05-.57l.86-4.34h-1.3l.15-.84h1.32l.32-1.62h1l-.32 1.62h2.24l-.17.84h-2.24z"/><path d="m390.29 252v.29c0 1.47.84 2.3 2.54 2.3a3.31 3.31 0 0 0 2.4-.92l.45.71a4.19 4.19 0 0 1 -2.94 1.09c-2.13 0-3.43-1.2-3.43-3.13a4.1 4.1 0 0 1 4.08-4.36 2.93 2.93 0 0 1 3.2 3.12 5.18 5.18 0 0 1 -.09.9zm.1-.74h5.25a1.27 1.27 0 0 0 0-.27 2.08 2.08 0 0 0 -2.31-2.17 3 3 0 0 0 -2.94 2.42z"/><path d="m407.67 245-2.07 10.39h-1l.23-1.16a3.77 3.77 0 0 1 -2.87 1.23 3 3 0 0 1 -3.2-3.12 4.14 4.14 0 0 1 4.24-4.34 2.77 2.77 0 0 1 2.8 1.6l.91-4.57zm-2.25 6.14a2.16 2.16 0 0 0 -2.43-2.3 3.24 3.24 0 0 0 -3.19 3.46 2.14 2.14 0 0 0 2.42 2.28 3.22 3.22 0 0 0 3.2-3.45z"/><path d="m421.83 250.35a4.32 4.32 0 0 1 -.09.85l-.84 4.18h-1l.84-4.2a4.13 4.13 0 0 0 .07-.67c0-1-.63-1.65-1.91-1.65a2.87 2.87 0 0 0 -3 2.57l-.78 3.95h-1l2.09-10.38h1l-.82 4.13a3.58 3.58 0 0 1 2.81-1.16c1.66.03 2.63.89 2.63 2.38z"/><path d="m425.62 252a1.46 1.46 0 0 0 0 .29c0 1.47.84 2.3 2.54 2.3a3.35 3.35 0 0 0 2.41-.92l.44.71a4.19 4.19 0 0 1 -2.94 1.09c-2.13 0-3.43-1.2-3.43-3.13a4.1 4.1 0 0 1 4.06-4.34 2.94 2.94 0 0 1 3.21 3.12 5.16 5.16 0 0 1 -.1.9zm.09-.74h5.29a2.53 2.53 0 0 0 0-.27 2.08 2.08 0 0 0 -2.31-2.17 3 3 0 0 0 -2.98 2.42z"/><path d="m439.38 248-.18 1h-.28c-1.57 0-2.62.9-3 2.73l-.74 3.74h-1l1.45-7.36h1l-.26 1.34a3.33 3.33 0 0 1 3.01-1.45z"/><path d="m444.79 254.56.48-.79a4 4 0 0 0 2.55.82c1.41 0 2.18-.49 2.18-1.32 0-1.67-4.17-.52-4.17-3 0-1.4 1.26-2.3 3.19-2.3a4.5 4.5 0 0 1 2.5.69l-.42.79a3.73 3.73 0 0 0 -2.16-.63c-1.36 0-2.13.55-2.13 1.35 0 1.71 4.18.54 4.18 3 0 1.45-1.31 2.29-3.27 2.29a4.69 4.69 0 0 1 -2.93-.9z"/><path d="m455.07 253.16a2.58 2.58 0 0 0 -.05.46c0 .63.35 1 1.06 1a1.85 1.85 0 0 0 1.13-.38l.24.76a2.73 2.73 0 0 1 -1.64.47 1.61 1.61 0 0 1 -1.79-1.68 2.83 2.83 0 0 1 .06-.57l.85-4.34h-1.3l.15-.84h1.32l.32-1.62h1l-.33 1.62h2.24l-.16.84h-2.24z"/><path d="m460.87 252a1.46 1.46 0 0 0 0 .29c0 1.47.84 2.3 2.54 2.3a3.35 3.35 0 0 0 2.41-.92l.45.71a4.23 4.23 0 0 1 -2.95 1.09c-2.13 0-3.43-1.2-3.43-3.13a4.1 4.1 0 0 1 4.11-4.34 2.93 2.93 0 0 1 3.21 3.12 5.16 5.16 0 0 1 -.1.9zm.09-.74h5.26a2.53 2.53 0 0 0 0-.27 2.08 2.08 0 0 0 -2.31-2.17 3 3 0 0 0 -2.91 2.42z"/><path d="m477.71 251.07a4.15 4.15 0 0 1 -4.17 4.38 2.75 2.75 0 0 1 -2.8-1.61l-.84 4.26h-1l2-10.08h.95l-.24 1.17a3.74 3.74 0 0 1 2.87-1.23 3 3 0 0 1 3.23 3.11zm-1 .06a2.15 2.15 0 0 0 -2.42-2.3 3.22 3.22 0 0 0 -3.18 3.46 2.14 2.14 0 0 0 2.42 2.28 3.21 3.21 0 0 0 3.17-3.44z"/><path d="m224.51 267.87a4.15 4.15 0 0 1 -4.17 4.38 2.74 2.74 0 0 1 -2.82-1.68l-.32 1.61h-.95l2.07-10.39h1l-.82 4.13a3.72 3.72 0 0 1 2.8-1.16 3 3 0 0 1 3.21 3.11zm-1 .06a2.15 2.15 0 0 0 -2.42-2.3 3.22 3.22 0 0 0 -3.18 3.46 2.14 2.14 0 0 0 2.42 2.28 3.21 3.21 0 0 0 3.17-3.44z"/><path d="m234.24 264.82-5.38 8.32c-.91 1.4-1.59 1.83-2.66 1.83a2.38 2.38 0 0 1 -1.75-.66l.53-.73a1.71 1.71 0 0 0 1.31.54c.62 0 1.12-.3 1.69-1.19l.52-.79-1.84-7.32h1l1.53 6.27 4-6.27z"/><path d="m239.15 271.36.48-.79a4 4 0 0 0 2.55.82c1.41 0 2.18-.5 2.18-1.32 0-1.67-4.17-.52-4.17-3 0-1.4 1.26-2.3 3.19-2.3a4.47 4.47 0 0 1 2.49.69l-.42.79a3.7 3.7 0 0 0 -2.15-.63c-1.36 0-2.13.55-2.13 1.35 0 1.71 4.17.54 4.17 3 0 1.45-1.3 2.29-3.26 2.29a4.65 4.65 0 0 1 -2.93-.9z"/><path d="m249.43 270a2.64 2.64 0 0 0 -.06.46c0 .63.35 1 1.07 1a1.9 1.9 0 0 0 1.13-.38l.24.76a2.73 2.73 0 0 1 -1.64.47 1.6 1.6 0 0 1 -1.79-1.68 2.81 2.81 0 0 1 .05-.57l.86-4.34h-1.29l.15-.84h1.32l.32-1.62h1l-.32 1.62h2.24l-.17.84h-2.24z"/><path d="m255.22 268.78v.29c0 1.47.84 2.3 2.53 2.3a3.34 3.34 0 0 0 2.41-.92l.45.71a4.21 4.21 0 0 1 -2.94 1.09c-2.13 0-3.43-1.2-3.43-3.13a4.1 4.1 0 0 1 4.07-4.36 2.93 2.93 0 0 1 3.21 3.12 4.35 4.35 0 0 1 -.1.9zm.1-.74h5.25a1.27 1.27 0 0 0 0-.27 2.08 2.08 0 0 0 -2.31-2.17 3 3 0 0 0 -2.94 2.4z"/><path d="m272.07 267.87a4.15 4.15 0 0 1 -4.18 4.38 2.75 2.75 0 0 1 -2.8-1.61l-.84 4.26h-1l2-10.08h.95l-.2 1.18a3.74 3.74 0 0 1 2.87-1.23 3 3 0 0 1 3.2 3.1zm-1 .06a2.15 2.15 0 0 0 -2.42-2.3 3.21 3.21 0 0 0 -3.18 3.46 2.14 2.14 0 0 0 2.42 2.28 3.21 3.21 0 0 0 3.17-3.44z"/><path d="m287.26 264.82-1.47 7.36h-1l.24-1.16a3.77 3.77 0 0 1 -2.87 1.23 3 3 0 0 1 -3.21-3.12 4.15 4.15 0 0 1 4.16-4.37 2.76 2.76 0 0 1 2.81 1.6l.3-1.54zm-1.65 3.11a2.16 2.16 0 0 0 -2.43-2.3 3.23 3.23 0 0 0 -3.19 3.46 2.14 2.14 0 0 0 2.42 2.28 3.22 3.22 0 0 0 3.2-3.44z"/><path d="m291.2 270a2.58 2.58 0 0 0 -.05.46c0 .63.35 1 1.06 1a1.9 1.9 0 0 0 1.14-.38l.23.76a2.7 2.7 0 0 1 -1.63.47 1.61 1.61 0 0 1 -1.8-1.68 2.83 2.83 0 0 1 .06-.57l.85-4.34h-1.3l.15-.84h1.32l.32-1.62h1l-.32 1.62h2.24l-.17.84h-2.24z"/><path d="m302 268.78v.29c0 1.47.84 2.3 2.53 2.3a3.34 3.34 0 0 0 2.41-.92l.45.71a4.21 4.21 0 0 1 -2.94 1.09c-2.13 0-3.43-1.2-3.43-3.13a4.1 4.1 0 0 1 4.07-4.36 2.93 2.93 0 0 1 3.21 3.12 4.35 4.35 0 0 1 -.1.9zm.1-.74h5.25a1.27 1.27 0 0 0 0-.27 2.08 2.08 0 0 0 -2.35-2.17 3 3 0 0 0 -2.92 2.4z"/><path d="m318.76 264.82-1.47 7.36h-1l.24-1.16a3.77 3.77 0 0 1 -2.87 1.23 3 3 0 0 1 -3.21-3.12 4.15 4.15 0 0 1 4.16-4.37 2.76 2.76 0 0 1 2.81 1.6l.3-1.54zm-1.65 3.11a2.16 2.16 0 0 0 -2.43-2.3 3.23 3.23 0 0 0 -3.19 3.46 2.14 2.14 0 0 0 2.42 2.28 3.22 3.22 0 0 0 3.2-3.44z"/><path d="m321 269.13a4.17 4.17 0 0 1 4.28-4.37 3.07 3.07 0 0 1 2.9 1.47l-.84.49a2.26 2.26 0 0 0 -2.14-1.09 3.24 3.24 0 0 0 -3.21 3.46 2.15 2.15 0 0 0 2.45 2.28 2.87 2.87 0 0 0 2.33-1.06l.71.54a3.8 3.8 0 0 1 -3.08 1.4c-2.06 0-3.4-1.25-3.4-3.12z"/><path d="m337.62 267.15a4.14 4.14 0 0 1 -.09.84l-.84 4.19h-1l.84-4.2a4.13 4.13 0 0 0 .07-.67c0-1.05-.63-1.65-1.91-1.65a2.87 2.87 0 0 0 -3 2.57l-.78 3.95h-1l2.09-10.39h1l-.82 4.13a3.58 3.58 0 0 1 2.81-1.16c1.66 0 2.63.9 2.63 2.39z"/><path d="m347.25 261.79h1l-2.07 10.39h-1z"/><path d="m350.91 268.78v.29c0 1.47.84 2.3 2.53 2.3a3.34 3.34 0 0 0 2.41-.92l.45.71a4.21 4.21 0 0 1 -2.94 1.09c-2.13 0-3.43-1.2-3.43-3.13a4.1 4.1 0 0 1 4.07-4.36 2.93 2.93 0 0 1 3.21 3.12 4.35 4.35 0 0 1 -.1.9zm.1-.74h5.25a1.27 1.27 0 0 0 0-.27 2.08 2.08 0 0 0 -2.26-2.17 3 3 0 0 0 -3 2.4z"/><path d="m367 264.82-4.74 7.36h-1l-1.82-7.36h1l1.56 6.28 4-6.28z"/><path d="m368.71 268.78a1.46 1.46 0 0 0 0 .29c0 1.47.84 2.3 2.54 2.3a3.35 3.35 0 0 0 2.41-.92l.44.71a4.19 4.19 0 0 1 -2.94 1.09c-2.13 0-3.43-1.2-3.43-3.13a4.1 4.1 0 0 1 4.08-4.36 2.94 2.94 0 0 1 3.21 3.12 5.16 5.16 0 0 1 -.1.9zm.09-.74h5.26a2.53 2.53 0 0 0 0-.27 2.08 2.08 0 0 0 -2.31-2.17 3 3 0 0 0 -2.95 2.4z"/><path d="m379.36 261.79h1l-2.07 10.39h-1z"/><path d="m381.58 271.53a.79.79 0 0 1 .79-.8.7.7 0 0 1 .71.72.78.78 0 0 1 -.77.8.73.73 0 0 1 -.73-.72z"/><path d="m250.37 346.1v-8.35l-4.14 6.91h-1l-4.14-6.8v8.24h-2.24v-12.6h1.93l5 8.35 4.91-8.35h1.93v12.6z"/><path d="m255.88 341.3a5.12 5.12 0 1 1 5.11 4.93 4.84 4.84 0 0 1 -5.11-4.93zm8 0a2.86 2.86 0 1 0 -2.86 3 2.8 2.8 0 0 0 2.83-3z"/><path d="m278.65 340.59v5.51h-2.25v-5.22c0-1.71-.85-2.54-2.29-2.54-1.6 0-2.68 1-2.68 2.9v4.86h-2.25v-13.36h2.25v4.86a4.29 4.29 0 0 1 3.2-1.22c2.31 0 4.02 1.31 4.02 4.21z"/><path d="m282.1 333.55a1.37 1.37 0 0 1 1.44-1.35 1.34 1.34 0 0 1 1.44 1.3 1.44 1.44 0 0 1 -2.88.05zm.31 2.94h2.25v9.61h-2.25z"/><path d="m294.29 345.58a3.55 3.55 0 0 1 -2.16.65c-2.11 0-3.31-1.12-3.31-3.24v-4.63h-1.59v-1.8h1.59v-2.2h2.25v2.2h2.57v1.8h-2.57v4.57c0 .94.46 1.44 1.33 1.44a2 2 0 0 0 1.26-.39z"/><path d="m311.73 339.66h2.27v5a8 8 0 0 1 -4.94 1.6 6.44 6.44 0 0 1 -6.79-6.48c0-3.76 2.89-6.48 6.83-6.48a6.51 6.51 0 0 1 5.06 2.05l-1.48 1.44a4.67 4.67 0 0 0 -3.47-1.44 4.43 4.43 0 1 0 0 8.86 5.06 5.06 0 0 0 2.59-.65z"/><path d="m327 336.49v9.61h-2.14v-1.22a3.93 3.93 0 0 1 -3.1 1.35c-2.46 0-4.14-1.35-4.14-4.25v-5.49h2.25v5.18c0 1.75.83 2.58 2.25 2.58s2.63-1 2.63-2.9v-4.86z"/><path d="m341.07 341.3a4.68 4.68 0 0 1 -4.88 4.93 3.94 3.94 0 0 1 -3.08-1.3v4.67h-2.25v-13.11h2.14v1.26a4 4 0 0 1 3.19-1.37 4.68 4.68 0 0 1 4.88 4.92zm-2.29 0a2.85 2.85 0 1 0 -2.84 3 2.79 2.79 0 0 0 2.84-3z"/><path d="m349.89 345.58a3.55 3.55 0 0 1 -2.16.65c-2.11 0-3.31-1.12-3.31-3.24v-4.63h-1.59v-1.8h1.59v-2.2h2.25v2.2h2.57v1.8h-2.57v4.57c0 .94.47 1.44 1.33 1.44a2 2 0 0 0 1.26-.39z"/><path d="m360.69 340.47v5.63h-2.12v-1.17a3.42 3.42 0 0 1 -3 1.3c-2.2 0-3.58-1.21-3.58-2.88s1.08-2.86 4-2.86h2.48v-.15c0-1.31-.79-2.09-2.4-2.09a4.71 4.71 0 0 0 -2.91 1l-.88-1.64a6.76 6.76 0 0 1 4.07-1.19c2.74-.04 4.34 1.27 4.34 4.05zm-2.25 2.63v-1.1h-2.32c-1.53 0-1.95.58-1.95 1.28s.69 1.33 1.84 1.33a2.45 2.45 0 0 0 2.43-1.51z"/></g></svg>