<svg viewBox="0 0 600 466" xmlns="http://www.w3.org/2000/svg"><path d="m0 0h600v466h-600z" fill="#5bc0c7"/><path d="m469.34 93.39c0-7.4 5.23-12.24 12.24-12.24s12.42 4.97 12.42 12.24c0 3.31-.51 5.74-3.45 12.75l-7.39 18.35h-12.67l5.61-20.27c-4.21-1.78-6.76-5.61-6.76-10.83zm-30.08 0c0-7.4 5.23-12.24 12.24-12.24s12.36 5 12.36 12.24c0 3.31-.51 5.74-3.44 12.75l-7.42 18.35h-12.59l5.6-20.27c-4.2-1.78-6.75-5.61-6.75-10.83z" fill="#fff"/><path d="m441.74 76.84a165.26 165.26 0 0 0 -97.84-32h-254.12v161.49c0 1.62-.08 3.25-.08 4.89s0 3.27.08 4.9v161.51h85.41l-22.3 43.55 76.11-43.55h281.3v-166.41-4.95h-.08a164.94 164.94 0 0 0 -20.54-75" fill="none" stroke="#fff" stroke-linecap="round" stroke-linejoin="round" stroke-width="2.83"/><g fill="#fff"><path d="m154 136.78-5.26 9.8h-1.1l-1.2-8.32-4.57 8.32h-1.09l-1.34-9.8h1l1.16 8.44 4.61-8.44h1l1.19 8.46 4.58-8.46z"/><path d="m155.11 143.18v.29c0 1.47.84 2.3 2.53 2.3a3.35 3.35 0 0 0 2.41-.92l.45.71a4.21 4.21 0 0 1 -2.94 1.09c-2.13 0-3.43-1.2-3.43-3.13a4.1 4.1 0 0 1 4.07-4.36 2.93 2.93 0 0 1 3.21 3.12 4.35 4.35 0 0 1 -.1.9zm.1-.74h5.25a2.53 2.53 0 0 0 0-.27 2.07 2.07 0 0 0 -2.31-2.17 3 3 0 0 0 -2.94 2.44z"/><path d="m176.6 139.22-1.47 7.36h-.95l.24-1.16a3.77 3.77 0 0 1 -2.87 1.23 3 3 0 0 1 -3.21-3.12 4.14 4.14 0 0 1 4.16-4.37 2.76 2.76 0 0 1 2.8 1.6l.31-1.54zm-1.6 3.11a2.15 2.15 0 0 0 -2.42-2.3 3.23 3.23 0 0 0 -3.2 3.46 2.15 2.15 0 0 0 2.43 2.28 3.22 3.22 0 0 0 3.19-3.44z"/><path d="m178.17 145.76.47-.79a4 4 0 0 0 2.55.82c1.42 0 2.19-.5 2.19-1.32 0-1.67-4.18-.52-4.18-3 0-1.4 1.26-2.3 3.2-2.3a4.49 4.49 0 0 1 2.49.69l-.42.79a3.71 3.71 0 0 0 -2.16-.63c-1.36 0-2.13.55-2.13 1.35 0 1.71 4.18.54 4.18 3 0 1.45-1.3 2.29-3.27 2.29a4.64 4.64 0 0 1 -2.92-.9z"/><path d="m200.75 139.55c0 2.52-1.75 3.94-4.55 3.94h-2.77l-.63 3.09h-1l2-9.8h3.51c2.15 0 3.44 1.02 3.44 2.77zm-1 .1c0-1.29-.91-2-2.55-2h-2.58l-1 4.91h2.62c2.2.02 3.48-.98 3.48-2.91z"/><path d="m210.68 139.22-1.47 7.36h-1l.23-1.16a3.77 3.77 0 0 1 -2.87 1.23 3 3 0 0 1 -3.21-3.12 4.15 4.15 0 0 1 4.17-4.37 2.76 2.76 0 0 1 2.8 1.6l.3-1.54zm-1.68 3.11a2.16 2.16 0 0 0 -2.43-2.3 3.23 3.23 0 0 0 -3.19 3.46 2.14 2.14 0 0 0 2.42 2.28 3.22 3.22 0 0 0 3.2-3.44z"/><path d="m218.21 139.16-.18 1h-.28c-1.57 0-2.62.9-3 2.73l-.74 3.74h-1l1.45-7.36h1l-.26 1.34a3.33 3.33 0 0 1 3.01-1.45z"/><path d="m220.43 143.18v.29c0 1.47.84 2.3 2.53 2.3a3.34 3.34 0 0 0 2.41-.92l.45.71a4.19 4.19 0 0 1 -2.94 1.09c-2.13 0-3.43-1.2-3.43-3.13a4.1 4.1 0 0 1 4.07-4.36 2.93 2.93 0 0 1 3.21 3.12 4.35 4.35 0 0 1 -.1.9zm.1-.74h5.25a1.27 1.27 0 0 0 0-.27 2.08 2.08 0 0 0 -2.31-2.17 3 3 0 0 0 -2.94 2.44z"/><path d="m236.7 141.55a4.11 4.11 0 0 1 -.08.84l-.84 4.19h-1l.84-4.2a4.13 4.13 0 0 0 .07-.67c0-1.05-.63-1.65-1.91-1.65a2.87 2.87 0 0 0 -3 2.57l-.78 4h-1l1.46-7.36h.95l-.23 1.17a3.62 3.62 0 0 1 2.88-1.23c1.68-.05 2.64.85 2.64 2.34z"/><path d="m241.14 144.36a2.64 2.64 0 0 0 -.06.46c0 .63.35 1 1.07 1a1.88 1.88 0 0 0 1.13-.38l.24.76a2.73 2.73 0 0 1 -1.64.47 1.61 1.61 0 0 1 -1.79-1.68 2.81 2.81 0 0 1 0-.57l.86-4.34h-1.3l.15-.84h1.32l.32-1.62h1l-.32 1.62h2.24l-.16.84h-2.2z"/><path d="m245.49 145.76.51-.76a4 4 0 0 0 2.55.82c1.41 0 2.18-.5 2.18-1.32 0-1.67-4.17-.52-4.17-3 0-1.4 1.26-2.3 3.19-2.3a4.5 4.5 0 0 1 2.5.69l-.43.79a3.7 3.7 0 0 0 -2.15-.63c-1.36 0-2.13.55-2.13 1.35 0 1.71 4.17.54 4.17 3 0 1.45-1.3 2.29-3.26 2.29a4.67 4.67 0 0 1 -2.96-.93z"/><path d="m258.82 143.53a4.18 4.18 0 0 1 4.26-4.37 3 3 0 0 1 3.35 3.11 4.18 4.18 0 0 1 -4.26 4.38 3 3 0 0 1 -3.35-3.12zm6.61-1.2a2.15 2.15 0 0 0 -2.43-2.33 3.23 3.23 0 0 0 -3.2 3.46 2.15 2.15 0 0 0 2.43 2.28 3.22 3.22 0 0 0 3.2-3.41z"/><path d="m271.49 138.4-.17.82h2.26l-.17.84h-2.23l-1.3 6.52h-1l1.3-6.52h-1.32l.16-.84h1.33l.18-.93a2.41 2.41 0 0 1 2.52-2.17 2.26 2.26 0 0 1 1.49.48l-.44.72a1.59 1.59 0 0 0 -1.05-.36c-.86.04-1.35.45-1.56 1.44z"/><path d="m281.4 136.78h3.73c2.95 0 4.62 1.58 4.62 4 0 3.43-2.41 5.81-6.09 5.81h-4.22zm2.29 8.91a4.69 4.69 0 0 0 5-4.88c0-1.89-1.22-3.14-3.7-3.14h-2.78l-1.59 8z"/><path d="m292.77 143.18v.29c0 1.47.84 2.3 2.53 2.3a3.35 3.35 0 0 0 2.41-.92l.45.71a4.21 4.21 0 0 1 -2.94 1.09c-2.13 0-3.43-1.2-3.43-3.13a4.1 4.1 0 0 1 4.07-4.36 2.93 2.93 0 0 1 3.21 3.12 4.35 4.35 0 0 1 -.1.9zm.1-.74h5.25a2.53 2.53 0 0 0 0-.27 2.07 2.07 0 0 0 -2.31-2.17 3 3 0 0 0 -2.94 2.44z"/><path d="m302.28 143.18a1.46 1.46 0 0 0 0 .29c0 1.47.84 2.3 2.54 2.3a3.35 3.35 0 0 0 2.41-.92l.45.71a4.23 4.23 0 0 1 -3 1.09c-2.13 0-3.43-1.2-3.43-3.13a4.1 4.1 0 0 1 4.08-4.36 2.94 2.94 0 0 1 3.21 3.12 5.16 5.16 0 0 1 -.1.9zm.09-.74h5.26a2.53 2.53 0 0 0 0-.27 2.08 2.08 0 0 0 -2.31-2.17 3 3 0 0 0 -2.95 2.44z"/><path d="m319.12 142.27a4.15 4.15 0 0 1 -4.17 4.38 2.75 2.75 0 0 1 -2.8-1.61l-.84 4.26h-1l2-10.08h1l-.24 1.17a3.74 3.74 0 0 1 2.87-1.23 3 3 0 0 1 3.18 3.11zm-1 .06a2.15 2.15 0 0 0 -2.42-2.3 3.21 3.21 0 0 0 -3.18 3.46 2.14 2.14 0 0 0 2.42 2.28 3.21 3.21 0 0 0 3.17-3.44z"/><path d="m320.62 145.76.47-.79a4 4 0 0 0 2.55.82c1.42 0 2.19-.5 2.19-1.32 0-1.67-4.18-.52-4.18-3 0-1.4 1.26-2.3 3.19-2.3a4.5 4.5 0 0 1 2.5.69l-.42.79a3.73 3.73 0 0 0 -2.16-.63c-1.36 0-2.13.55-2.13 1.35 0 1.71 4.18.54 4.18 3 0 1.45-1.31 2.29-3.27 2.29a4.64 4.64 0 0 1 -2.92-.9z"/><path d="m337.49 139.22-1.49 7.36h-.95l.23-1.16a3.77 3.77 0 0 1 -2.87 1.23 3 3 0 0 1 -3.2-3.12 4.14 4.14 0 0 1 4.16-4.37 2.76 2.76 0 0 1 2.8 1.6l.31-1.54zm-1.65 3.11a2.16 2.16 0 0 0 -2.43-2.3 3.23 3.23 0 0 0 -3.19 3.46 2.14 2.14 0 0 0 2.42 2.28 3.22 3.22 0 0 0 3.2-3.44z"/><path d="m356.91 136.78-2 9.8h-1l1.56-7.77-5.07 6.53h-.4l-2.62-6.66-1.57 7.9h-1l2-9.8h.84l2.83 7.28 5.6-7.28z"/><path d="m367.17 139.22-1.47 7.36h-.95l.23-1.16a3.77 3.77 0 0 1 -2.87 1.23 3 3 0 0 1 -3.2-3.12 4.14 4.14 0 0 1 4.16-4.37 2.76 2.76 0 0 1 2.8 1.6l.3-1.54zm-1.65 3.11a2.16 2.16 0 0 0 -2.43-2.3 3.23 3.23 0 0 0 -3.19 3.46 2.14 2.14 0 0 0 2.42 2.28 3.22 3.22 0 0 0 3.2-3.44z"/><path d="m373.78 142.26 2.64 4.32h-1.16l-2.26-3.72-2.06 1.59-.42 2.13h-1l2.07-10.39h1l-1.4 7 5.07-4h1.42z"/><path d="m383.08 142.26 2.65 4.32h-1.16l-2.27-3.72-2.06 1.59-.42 2.13h-1l2.07-10.39h1l-1.4 7 5.07-4h1.44z"/><path d="m396 139.22-1.47 7.36h-1l.24-1.16a3.77 3.77 0 0 1 -2.87 1.23 3 3 0 0 1 -3.21-3.12 4.15 4.15 0 0 1 4.16-4.37 2.76 2.76 0 0 1 2.8 1.6l.31-1.54zm-1.66 3.11a2.15 2.15 0 0 0 -2.34-2.33 3.23 3.23 0 0 0 -3.19 3.46 2.14 2.14 0 0 0 2.42 2.28 3.21 3.21 0 0 0 3.15-3.41z"/><path d="m403.57 139.16-.18 1h-.28c-1.57 0-2.62.9-3 2.73l-.74 3.74h-1l1.46-7.36h1l-.25 1.34a3.33 3.33 0 0 1 2.99-1.45z"/><path d="m405.89 145.85a1.33 1.33 0 0 1 -.27.75l-1.06 2h-.67l.89-2.06a.7.7 0 0 1 -.39-.64.78.78 0 0 1 .78-.8.7.7 0 0 1 .72.75z"/><path d="m422.13 146.58h-1.13l-3.2-4.58-2.4 2-.52 2.56h-1l2-9.8h1l-1.18 5.85 6.84-5.85h1.36l-5.3 4.55z"/><path d="m425.56 142.54c0 1.91 1.25 3.2 3.67 3.2a4.18 4.18 0 0 0 2.51-.77l.66-3.29h1l-.76 3.77a5.53 5.53 0 0 1 -3.51 1.22c-2.89 0-4.58-1.64-4.58-4.08a5.73 5.73 0 0 1 6-5.9 4.49 4.49 0 0 1 3.64 1.43l-.73.63a3.64 3.64 0 0 0 -2.95-1.13 4.75 4.75 0 0 0 -4.95 4.92z"/><path d="m436.46 142.35h3.67l-.16.87h-3.67z"/><path d="m446.35 136.78-2 9.8h-1l1.78-8.91h-2.32l.19-.89z"/><path d="m455.37 144h-5.48l-1.69 2.62h-1.12l6.44-9.8h1l2.52 9.8h-1zm-.2-.84-1.33-5.29-3.42 5.29z"/><path d="m461 145.85a1.33 1.33 0 0 1 -.27.75l-1.06 2h-.67l.89-2.06a.7.7 0 0 1 -.39-.64.78.78 0 0 1 .78-.8.7.7 0 0 1 .72.75z"/><path d="m153.79 156-4.16 7.36h-1l-1.24-6-3.44 6h-1l-1.36-7.36h.91l1.19 6.24 3.56-6.24h.84l1.24 6.24 3.5-6.24z"/><path d="m162.79 156-1.47 7.36h-.95l.24-1.16a3.77 3.77 0 0 1 -2.87 1.23 3 3 0 0 1 -3.21-3.12 4.14 4.14 0 0 1 4.16-4.37 2.76 2.76 0 0 1 2.8 1.6l.31-1.54zm-1.65 3.11a2.15 2.15 0 0 0 -2.42-2.3 3.24 3.24 0 0 0 -3.2 3.46 2.15 2.15 0 0 0 2.43 2.28 3.22 3.22 0 0 0 3.19-3.42z"/><path d="m172.83 158.35a5.18 5.18 0 0 1 -.08.85l-.84 4.18h-1l.84-4.2a4.13 4.13 0 0 0 .07-.67c0-1-.63-1.65-1.9-1.65a2.87 2.87 0 0 0 -3 2.57l-.79 3.95h-1l1.47-7.38h1l-.24 1.17a3.64 3.64 0 0 1 2.84-1.17 2.31 2.31 0 0 1 2.63 2.35z"/><path d="m177.26 161.16a4 4 0 0 0 0 .46c0 .63.35 1 1.06 1a1.9 1.9 0 0 0 1.14-.38l.24.76a2.75 2.75 0 0 1 -1.64.47 1.61 1.61 0 0 1 -1.8-1.68 2.83 2.83 0 0 1 .06-.57l.85-4.34h-1.3l.13-.88h1.31l.33-1.62h1l-.32 1.62h2.24l-.17.84h-2.24z"/><path d="m188.72 161.16a2.64 2.64 0 0 0 -.06.46c0 .63.35 1 1.07 1a1.9 1.9 0 0 0 1.13-.38l.24.76a2.73 2.73 0 0 1 -1.64.47 1.6 1.6 0 0 1 -1.79-1.68 2.81 2.81 0 0 1 .05-.57l.86-4.34h-1.31l.16-.84h1.32l.32-1.62h1l-.32 1.62h2.25l-.17.84h-2.24z"/><path d="m193.52 160.33a4.18 4.18 0 0 1 4.26-4.37 3 3 0 0 1 3.34 3.11 4.18 4.18 0 0 1 -4.25 4.38 3 3 0 0 1 -3.35-3.12zm6.61-1.2a2.15 2.15 0 0 0 -2.42-2.3 3.24 3.24 0 0 0 -3.2 3.46 2.15 2.15 0 0 0 2.43 2.28 3.22 3.22 0 0 0 3.19-3.44z"/><path d="m220.47 156-4.16 7.36h-1l-1.23-6-3.45 6h-.95l-1.41-7.36h.91l1.19 6.24 3.56-6.24h.84l1.24 6.24 3.5-6.24z"/><path d="m226.67 156-.18 1h-.28c-1.57 0-2.62.9-3 2.73l-.75 3.74h-1l1.54-7.47h1l-.25 1.34a3.31 3.31 0 0 1 2.92-1.34z"/><path d="m229.5 156h1l-1.5 7.38h-1zm.25-2.27a.75.75 0 0 1 .77-.76.66.66 0 0 1 .69.63.76.76 0 0 1 -.79.78.65.65 0 0 1 -.67-.63z"/><path d="m234.45 161.16a4 4 0 0 0 0 .46c0 .63.35 1 1.06 1a1.9 1.9 0 0 0 1.14-.38l.24.76a2.75 2.75 0 0 1 -1.64.47 1.61 1.61 0 0 1 -1.8-1.68 2.83 2.83 0 0 1 .06-.57l.85-4.34h-1.36l.16-.84h1.31l.32-1.62h1l-.32 1.62h2.24l-.17.84h-2.24z"/><path d="m240.25 160v.29c0 1.47.84 2.3 2.53 2.3a3.35 3.35 0 0 0 2.41-.92l.45.71a4.21 4.21 0 0 1 -2.94 1.09c-2.13 0-3.43-1.2-3.43-3.13a4.1 4.1 0 0 1 4.07-4.36 2.93 2.93 0 0 1 3.21 3.12 4.35 4.35 0 0 1 -.1.9zm.1-.74h5.25a1.27 1.27 0 0 0 0-.27 2.08 2.08 0 0 0 -2.32-2.17 3 3 0 0 0 -2.93 2.42z"/><path d="m261.74 156-1.47 7.36h-.95l.24-1.16a3.77 3.77 0 0 1 -2.87 1.23 3 3 0 0 1 -3.21-3.12 4.14 4.14 0 0 1 4.16-4.37 2.76 2.76 0 0 1 2.8 1.6l.31-1.54zm-1.65 3.11a2.15 2.15 0 0 0 -2.42-2.3 3.24 3.24 0 0 0 -3.2 3.46 2.15 2.15 0 0 0 2.43 2.28 3.22 3.22 0 0 0 3.19-3.42z"/><path d="m276.5 158.35a4.32 4.32 0 0 1 -.09.85l-.83 4.18h-1l.84-4.2a4.13 4.13 0 0 0 .07-.67c0-1-.63-1.65-1.9-1.65a2.87 2.87 0 0 0 -3 2.57l-.79 3.95h-1l1.46-7.36h1l-.24 1.17a3.63 3.63 0 0 1 2.89-1.23 2.31 2.31 0 0 1 2.59 2.39z"/><path d="m279.29 160.33a4.18 4.18 0 0 1 4.26-4.37 3 3 0 0 1 3.35 3.11 4.18 4.18 0 0 1 -4.26 4.38 3 3 0 0 1 -3.35-3.12zm6.62-1.2a2.16 2.16 0 0 0 -2.43-2.3 3.24 3.24 0 0 0 -3.19 3.46 2.14 2.14 0 0 0 2.42 2.28 3.22 3.22 0 0 0 3.2-3.44z"/><path d="m290.79 161.16a2.64 2.64 0 0 0 -.06.46c0 .63.35 1 1.07 1a1.88 1.88 0 0 0 1.13-.38l.24.76a2.73 2.73 0 0 1 -1.64.47 1.61 1.61 0 0 1 -1.79-1.68 2.81 2.81 0 0 1 .05-.57l.86-4.34h-1.3l.15-.84h1.32l.32-1.62h1l-.32 1.62h2.24l-.16.84h-2.25z"/><path d="m296.58 160v.29c0 1.47.84 2.3 2.54 2.3a3.35 3.35 0 0 0 2.41-.92l.44.71a4.19 4.19 0 0 1 -2.94 1.09c-2.13 0-3.43-1.2-3.43-3.13a4.1 4.1 0 0 1 4.08-4.36 2.93 2.93 0 0 1 3.2 3.12 5.18 5.18 0 0 1 -.09.9zm.1-.74h5.26a2.53 2.53 0 0 0 0-.27 2.08 2.08 0 0 0 -2.31-2.17 3 3 0 0 0 -2.95 2.42z"/><path d="m309.81 160.33a4.18 4.18 0 0 1 4.26-4.37 3 3 0 0 1 3.35 3.11 4.18 4.18 0 0 1 -4.26 4.38 3 3 0 0 1 -3.35-3.12zm6.62-1.2a2.16 2.16 0 0 0 -2.43-2.3 3.24 3.24 0 0 0 -3.19 3.46 2.14 2.14 0 0 0 2.42 2.28 3.22 3.22 0 0 0 3.2-3.44z"/><path d="m322.49 155.2-.17.82h2.25l-.16.84h-2.23l-1.3 6.52h-1l1.3-6.52h-1.31l.13-.86h1.33l.18-.93a2.42 2.42 0 0 1 2.53-2.17 2.25 2.25 0 0 1 1.48.48l-.43.72a1.59 1.59 0 0 0 -1.05-.36c-.85.02-1.34.47-1.55 1.46z"/><path d="m338.42 156-1.42 7.38h-1l.24-1.16a3.79 3.79 0 0 1 -2.88 1.23 3 3 0 0 1 -3.2-3.12 4.14 4.14 0 0 1 4.16-4.37 2.76 2.76 0 0 1 2.8 1.6l.31-1.54zm-1.65 3.11a2.16 2.16 0 0 0 -2.43-2.3 3.24 3.24 0 0 0 -3.19 3.46 2.14 2.14 0 0 0 2.42 2.28 3.22 3.22 0 0 0 3.2-3.42z"/><path d="m349 159.07a4.15 4.15 0 0 1 -4.17 4.38 2.75 2.75 0 0 1 -2.8-1.61l-.84 4.26h-1l2-10.08h.95l-.24 1.17a3.74 3.74 0 0 1 2.87-1.23 3 3 0 0 1 3.23 3.11zm-1 .06a2.15 2.15 0 0 0 -2.42-2.3 3.22 3.22 0 0 0 -3.18 3.46 2.14 2.14 0 0 0 2.42 2.28 3.21 3.21 0 0 0 3.18-3.44z"/><path d="m359.58 159.07a4.15 4.15 0 0 1 -4.18 4.38 2.75 2.75 0 0 1 -2.8-1.61l-.84 4.26h-1l2-10.08h1l-.24 1.17a3.74 3.74 0 0 1 2.87-1.23 3 3 0 0 1 3.19 3.11zm-1 .06a2.16 2.16 0 0 0 -2.43-2.3 3.22 3.22 0 0 0 -3.18 3.46 2.15 2.15 0 0 0 2.43 2.28 3.21 3.21 0 0 0 3.17-3.44z"/><path d="m367 156-.19 1h-.28c-1.57 0-2.62.9-3 2.73l-.74 3.74h-1l1.46-7.36h.95l-.25 1.34a3.32 3.32 0 0 1 3.05-1.45z"/><path d="m369.26 160v.29c0 1.47.83 2.3 2.53 2.3a3.35 3.35 0 0 0 2.41-.92l.45.71a4.22 4.22 0 0 1 -2.94 1.09c-2.13 0-3.44-1.2-3.44-3.13a4.11 4.11 0 0 1 4.08-4.36 2.93 2.93 0 0 1 3.21 3.12 4.35 4.35 0 0 1 -.1.9zm.1-.74h5.25a2.53 2.53 0 0 0 0-.27 2.08 2.08 0 0 0 -2.31-2.17 3 3 0 0 0 -2.94 2.42z"/><path d="m377.77 160.33a4.18 4.18 0 0 1 4.29-4.37 3.08 3.08 0 0 1 2.9 1.47l-.84.49a2.28 2.28 0 0 0 -2.15-1.09 3.24 3.24 0 0 0 -3.21 3.46 2.16 2.16 0 0 0 2.46 2.28 2.85 2.85 0 0 0 2.32-1.06l.71.54a3.78 3.78 0 0 1 -3.08 1.4c-2.1 0-3.4-1.23-3.4-3.12z"/><path d="m388.23 156h1l-1.45 7.36h-1zm.25-2.27a.75.75 0 0 1 .77-.76.66.66 0 0 1 .69.63.76.76 0 0 1 -.79.78.65.65 0 0 1 -.67-.63z"/><path d="m399.78 156-1.47 7.36h-.95l.24-1.16a3.77 3.77 0 0 1 -2.87 1.23 3 3 0 0 1 -3.21-3.12 4.14 4.14 0 0 1 4.16-4.37 2.76 2.76 0 0 1 2.8 1.6l.31-1.54zm-1.65 3.11a2.15 2.15 0 0 0 -2.42-2.3 3.24 3.24 0 0 0 -3.2 3.46 2.15 2.15 0 0 0 2.43 2.28 3.22 3.22 0 0 0 3.19-3.42z"/><path d="m403.73 161.16a2.64 2.64 0 0 0 -.06.46c0 .63.35 1 1.07 1a1.9 1.9 0 0 0 1.13-.38l.24.76a2.73 2.73 0 0 1 -1.64.47 1.6 1.6 0 0 1 -1.79-1.68 2.81 2.81 0 0 1 .05-.57l.86-4.34h-1.31l.16-.84h1.31l.33-1.62h1l-.32 1.62h2.24l-.17.84h-2.24z"/><path d="m410.32 156h1l-1.45 7.36h-1zm.25-2.27a.75.75 0 0 1 .77-.76.66.66 0 0 1 .69.63.76.76 0 0 1 -.78.78.66.66 0 0 1 -.68-.63z"/><path d="m413.61 160.33a4.18 4.18 0 0 1 4.26-4.37 3 3 0 0 1 3.35 3.11 4.18 4.18 0 0 1 -4.26 4.38 3 3 0 0 1 -3.35-3.12zm6.61-1.2a2.15 2.15 0 0 0 -2.42-2.3 3.24 3.24 0 0 0 -3.2 3.46 2.15 2.15 0 0 0 2.43 2.28 3.22 3.22 0 0 0 3.19-3.44z"/><path d="m431.2 158.35a4.32 4.32 0 0 1 -.09.85l-.84 4.18h-1l.84-4.2a4.13 4.13 0 0 0 .07-.67c0-1-.63-1.65-1.91-1.65a2.87 2.87 0 0 0 -3 2.57l-.79 3.95h-1l1.52-7.38h1l-.24 1.17a3.62 3.62 0 0 1 2.88-1.23c1.59.06 2.56.92 2.56 2.41z"/><path d="m441.53 155.2-.17.82h2.25l-.16.84h-2.23l-1.3 6.52h-1l1.3-6.52h-1.31l.15-.84h1.33l.18-.93a2.42 2.42 0 0 1 2.53-2.17 2.25 2.25 0 0 1 1.48.48l-.43.72a1.59 1.59 0 0 0 -1-.36c-.92 0-1.41.45-1.62 1.44z"/><path d="m444.35 160.33a4.18 4.18 0 0 1 4.26-4.37 3 3 0 0 1 3.35 3.11 4.18 4.18 0 0 1 -4.26 4.38 3 3 0 0 1 -3.35-3.12zm6.61-1.2a2.15 2.15 0 0 0 -2.42-2.3 3.24 3.24 0 0 0 -3.19 3.46 2.14 2.14 0 0 0 2.42 2.28 3.21 3.21 0 0 0 3.23-3.44z"/><path d="m459.43 156-.18 1h-.28c-1.57 0-2.62.9-3 2.73l-.74 3.74h-1l1.46-7.36h1l-.25 1.34a3.31 3.31 0 0 1 2.99-1.45z"/><path d="m139.68 178a2.64 2.64 0 0 0 -.06.46c0 .63.35 1 1.06 1a1.9 1.9 0 0 0 1.14-.38l.24.76a2.75 2.75 0 0 1 -1.64.47 1.61 1.61 0 0 1 -1.8-1.68 2.83 2.83 0 0 1 .06-.57l.86-4.34h-1.31l.16-.84h1.31l.33-1.62h1l-.32 1.62h2.24l-.17.84h-2.24z"/><path d="m152.5 175.15a5 5 0 0 1 -.08.84l-.84 4.19h-1l.84-4.2a3.25 3.25 0 0 0 .07-.67c0-1.05-.63-1.65-1.9-1.65a2.87 2.87 0 0 0 -3 2.57l-.78 4h-1l2.08-10.39h1l-.83 4.13a3.58 3.58 0 0 1 2.82-1.16c1.66-.05 2.62.85 2.62 2.34z"/><path d="m156.29 176.78v.29c0 1.47.84 2.3 2.53 2.3a3.34 3.34 0 0 0 2.41-.92l.45.71a4.19 4.19 0 0 1 -2.94 1.09c-2.13 0-3.43-1.2-3.43-3.13a4.1 4.1 0 0 1 4.07-4.36 2.93 2.93 0 0 1 3.21 3.12 4.35 4.35 0 0 1 -.1.9zm.1-.74h5.25a1.27 1.27 0 0 0 0-.27 2.08 2.08 0 0 0 -2.31-2.17 3 3 0 0 0 -2.94 2.4z"/><path d="m173.49 171.27h-3.49l.18-.89h7.94l-.2.89h-3.44l-1.78 8.91h-1z"/><path d="m178.83 176.78v.29c0 1.47.84 2.3 2.53 2.3a3.34 3.34 0 0 0 2.41-.92l.45.71a4.19 4.19 0 0 1 -2.94 1.09c-2.13 0-3.43-1.2-3.43-3.13a4.1 4.1 0 0 1 4.07-4.36 2.93 2.93 0 0 1 3.21 3.12 4.35 4.35 0 0 1 -.1.9zm.1-.74h5.25a1.27 1.27 0 0 0 0-.27 2.08 2.08 0 0 0 -2.31-2.17 3 3 0 0 0 -2.94 2.4z"/><path d="m195.61 172.82-1.47 7.36h-1l.24-1.16a3.77 3.77 0 0 1 -2.87 1.23 3 3 0 0 1 -3.21-3.12 4.15 4.15 0 0 1 4.16-4.37 2.76 2.76 0 0 1 2.81 1.6l.3-1.54zm-1.61 3.11a2.16 2.16 0 0 0 -2.43-2.3 3.23 3.23 0 0 0 -3.19 3.46 2.14 2.14 0 0 0 2.42 2.28 3.22 3.22 0 0 0 3.2-3.44z"/><path d="m197.89 177.13a4.17 4.17 0 0 1 4.28-4.37 3.06 3.06 0 0 1 2.9 1.47l-.84.49a2.26 2.26 0 0 0 -2.14-1.09 3.24 3.24 0 0 0 -3.21 3.46 2.15 2.15 0 0 0 2.45 2.28 2.87 2.87 0 0 0 2.33-1.06l.71.54a3.8 3.8 0 0 1 -3.08 1.4c-2.1 0-3.4-1.25-3.4-3.12z"/><path d="m214.47 175.15a4.14 4.14 0 0 1 -.09.84l-.84 4.19h-1l.84-4.2a4.13 4.13 0 0 0 .07-.67c0-1.05-.63-1.65-1.91-1.65a2.87 2.87 0 0 0 -3 2.57l-.78 4h-1l2.07-10.39h1l-.82 4.13a3.58 3.58 0 0 1 2.81-1.16c1.68-.05 2.65.85 2.65 2.34z"/><path d="m218.26 176.78a1.46 1.46 0 0 0 0 .29c0 1.47.84 2.3 2.54 2.3a3.35 3.35 0 0 0 2.41-.92l.44.71a4.19 4.19 0 0 1 -2.94 1.09c-2.13 0-3.43-1.2-3.43-3.13a4.1 4.1 0 0 1 4.08-4.36 2.94 2.94 0 0 1 3.21 3.12 5.16 5.16 0 0 1 -.1.9zm.09-.74h5.26a2.53 2.53 0 0 0 0-.27 2.08 2.08 0 0 0 -2.31-2.17 3 3 0 0 0 -2.95 2.4z"/><path d="m232 172.76-.18 1h-.28c-1.57 0-2.62.9-3 2.73l-.74 3.74h-1l1.45-7.36h1l-.26 1.34a3.33 3.33 0 0 1 3.01-1.45z"/><path d="m232.66 179.36.48-.79a4 4 0 0 0 2.55.82c1.41 0 2.18-.5 2.18-1.32 0-1.67-4.17-.52-4.17-3 0-1.4 1.26-2.3 3.19-2.3a4.47 4.47 0 0 1 2.49.69l-.42.79a3.7 3.7 0 0 0 -2.15-.63c-1.36 0-2.13.55-2.13 1.35 0 1.71 4.17.54 4.17 3 0 1.45-1.3 2.29-3.26 2.29a4.67 4.67 0 0 1 -2.93-.9z"/><path d="m246 177.13a4.18 4.18 0 0 1 4.26-4.37 3 3 0 0 1 3.34 3.11 4.18 4.18 0 0 1 -4.25 4.38 3 3 0 0 1 -3.35-3.12zm6.61-1.2a2.15 2.15 0 0 0 -2.42-2.3 3.23 3.23 0 0 0 -3.2 3.46 2.15 2.15 0 0 0 2.43 2.28 3.22 3.22 0 0 0 3.18-3.44z"/><path d="m258.66 172-.17.82h2.26l-.17.84h-2.23l-1.3 6.52h-1l1.3-6.52h-1.35l.16-.84h1.33l.18-.93a2.41 2.41 0 0 1 2.52-2.17 2.21 2.21 0 0 1 1.48.48l-.43.72a1.59 1.59 0 0 0 -1-.36c-.88 0-1.37.44-1.58 1.44z"/><path d="m267.66 176.14c0 1.91 1.25 3.2 3.67 3.2a4.18 4.18 0 0 0 2.51-.77l.66-3.29h1l-.75 3.77a5.52 5.52 0 0 1 -3.52 1.22c-2.89 0-4.58-1.64-4.58-4.08a5.73 5.73 0 0 1 6-5.9 4.49 4.49 0 0 1 3.64 1.43l-.73.63a3.62 3.62 0 0 0 -2.95-1.13 4.75 4.75 0 0 0 -4.95 4.92z"/><path d="m281.28 171.27-.7 3.49h5.09l-.17.88h-5.08l-.73 3.65h5.89l-.18.89h-6.92l2-9.8h6.73l-.18.89z"/><path d="m301 170.38-2 9.8h-1l1.55-7.77-5.07 6.53h-.49l-2.62-6.66-1.57 7.9h-1l2-9.8h.84l2.83 7.28 5.6-7.28z"/><path d="m302.62 179 .5-.81a4.53 4.53 0 0 0 3.15 1.18c1.71 0 2.89-.71 2.89-1.94 0-2.25-5.1-1.12-5.1-4.2 0-1.85 1.64-3 3.92-3a5.34 5.34 0 0 1 3 .84l-.43.84a4.59 4.59 0 0 0 -2.66-.79c-1.71 0-2.86.75-2.86 2 0 2.28 5.11 1.19 5.11 4.16 0 1.89-1.68 3-4 3a5.15 5.15 0 0 1 -3.52-1.28z"/><path d="m318.41 176.78v.29c0 1.47.84 2.3 2.53 2.3a3.34 3.34 0 0 0 2.41-.92l.45.71a4.21 4.21 0 0 1 -2.94 1.09c-2.13 0-3.43-1.2-3.43-3.13a4.1 4.1 0 0 1 4.07-4.36 2.93 2.93 0 0 1 3.21 3.12 4.35 4.35 0 0 1 -.1.9zm.1-.74h5.25a1.27 1.27 0 0 0 0-.27 2.08 2.08 0 0 0 -2.32-2.17 3 3 0 0 0 -2.93 2.4z"/><path d="m326.21 179.36.47-.79a4.09 4.09 0 0 0 2.55.82c1.42 0 2.19-.5 2.19-1.32 0-1.67-4.17-.52-4.17-3 0-1.4 1.25-2.3 3.19-2.3a4.47 4.47 0 0 1 2.49.69l-.42.79a3.71 3.71 0 0 0 -2.16-.63c-1.35 0-2.12.55-2.12 1.35 0 1.71 4.17.54 4.17 3 0 1.45-1.3 2.29-3.26 2.29a4.65 4.65 0 0 1 -2.93-.9z"/><path d="m343.15 175.87a4.15 4.15 0 0 1 -4.17 4.38 2.75 2.75 0 0 1 -2.8-1.61l-.84 4.26h-1l2-10.08h1l-.24 1.17a3.74 3.74 0 0 1 2.87-1.23 3 3 0 0 1 3.18 3.11zm-1 .06a2.15 2.15 0 0 0 -2.42-2.3 3.22 3.22 0 0 0 -3.18 3.46 2.14 2.14 0 0 0 2.42 2.28 3.21 3.21 0 0 0 3.17-3.44z"/><path d="m346.35 176.78v.29c0 1.47.84 2.3 2.54 2.3a3.35 3.35 0 0 0 2.41-.92l.44.71a4.19 4.19 0 0 1 -2.94 1.09c-2.13 0-3.43-1.2-3.43-3.13a4.1 4.1 0 0 1 4.08-4.36 2.93 2.93 0 0 1 3.2 3.12 5.18 5.18 0 0 1 -.09.9zm.1-.74h5.26a2.53 2.53 0 0 0 0-.27 2.08 2.08 0 0 0 -2.31-2.17 3 3 0 0 0 -2.95 2.4z"/><path d="m354.87 177.13a4.18 4.18 0 0 1 4.28-4.37 3.06 3.06 0 0 1 2.9 1.47l-.84.49a2.26 2.26 0 0 0 -2.14-1.09 3.24 3.24 0 0 0 -3.21 3.46 2.15 2.15 0 0 0 2.45 2.28 2.87 2.87 0 0 0 2.33-1.06l.71.54a3.8 3.8 0 0 1 -3.08 1.4c-2.1 0-3.4-1.25-3.4-3.12z"/><path d="m365.33 172.82h1l-1.46 7.36h-1zm.25-2.27a.75.75 0 0 1 .77-.76.65.65 0 0 1 .68.63.76.76 0 0 1 -.78.78.65.65 0 0 1 -.67-.65z"/><path d="m376.88 172.82-1.47 7.36h-1l.23-1.16a3.77 3.77 0 0 1 -2.87 1.23 3 3 0 0 1 -3.21-3.12 4.15 4.15 0 0 1 4.16-4.37 2.77 2.77 0 0 1 2.81 1.6l.3-1.54zm-1.65 3.11a2.16 2.16 0 0 0 -2.43-2.3 3.23 3.23 0 0 0 -3.19 3.46 2.14 2.14 0 0 0 2.42 2.28 3.22 3.22 0 0 0 3.2-3.44z"/><path d="m381.3 169.79h1l-2.07 10.39h-1z"/><path d="m386.11 169.79h1l-2.11 10.39h-1z"/><path d="m396.52 172.82-5.38 8.32c-.91 1.4-1.6 1.83-2.66 1.83a2.38 2.38 0 0 1 -1.75-.66l.53-.73a1.7 1.7 0 0 0 1.3.54c.63 0 1.12-.3 1.7-1.19l.52-.79-1.84-7.32h1l1.53 6.27 4-6.27z"/><path d="m411.4 173.15c0 2.52-1.75 3.94-4.55 3.94h-2.77l-.63 3.09h-1l2-9.8h3.52c2.14 0 3.43 1.02 3.43 2.77zm-1 .1c0-1.29-.91-2-2.55-2h-2.58l-1 4.91h2.61c2.21.02 3.49-.98 3.49-2.91z"/><path d="m421.33 172.82-1.47 7.36h-1l.24-1.16a3.77 3.77 0 0 1 -2.87 1.23 3 3 0 0 1 -3.21-3.12 4.15 4.15 0 0 1 4.16-4.37 2.76 2.76 0 0 1 2.8 1.6l.31-1.54zm-1.66 3.11a2.15 2.15 0 0 0 -2.42-2.3 3.23 3.23 0 0 0 -3.19 3.46 2.14 2.14 0 0 0 2.42 2.28 3.21 3.21 0 0 0 3.19-3.44z"/><path d="m436 172.82-4.16 7.36h-1l-1.23-6-3.45 6h-.95l-1.44-7.36h.91l1.19 6.24 3.55-6.24h.84l1.24 6.24 3.5-6.24z"/><path d="m445 172.82-1.48 7.36h-1l.24-1.16a3.77 3.77 0 0 1 -2.87 1.23 3 3 0 0 1 -3.21-3.12 4.15 4.15 0 0 1 4.16-4.37 2.76 2.76 0 0 1 2.8 1.6l.31-1.54zm-1.66 3.11a2.15 2.15 0 0 0 -2.42-2.3 3.23 3.23 0 0 0 -3.19 3.46 2.14 2.14 0 0 0 2.42 2.28 3.22 3.22 0 0 0 3.21-3.44z"/><path d="m455.05 175.15a4.11 4.11 0 0 1 -.08.84l-.84 4.19h-1l.87-4.18a3.25 3.25 0 0 0 .07-.67c0-1.05-.63-1.65-1.9-1.65a2.87 2.87 0 0 0 -3 2.57l-.78 4h-1l1.46-7.36h.95l-.24 1.17a3.66 3.66 0 0 1 2.89-1.23c1.64-.07 2.6.83 2.6 2.32z"/><path d="m458.18 176h3.68l-.17.87h-3.69z"/><path d="m143.05 186.59-2.05 10.41h-1l.24-1.16a3.77 3.77 0 0 1 -2.87 1.23 3 3 0 0 1 -3.21-3.12 4.15 4.15 0 0 1 4.16-4.37 2.77 2.77 0 0 1 2.8 1.6l.91-4.57zm-2.26 6.14a2.15 2.15 0 0 0 -2.42-2.3 3.24 3.24 0 0 0 -3.2 3.46 2.15 2.15 0 0 0 2.43 2.28 3.22 3.22 0 0 0 3.19-3.44z"/><path d="m145.72 193.58a1.46 1.46 0 0 0 0 .29c0 1.48.84 2.3 2.54 2.3a3.35 3.35 0 0 0 2.41-.92l.45.71a4.23 4.23 0 0 1 -2.95 1.09c-2.13 0-3.43-1.2-3.43-3.13a4.11 4.11 0 0 1 4.08-4.36 2.93 2.93 0 0 1 3.21 3.12 5.16 5.16 0 0 1 -.1.9zm.09-.74h5.26a2.53 2.53 0 0 0 0-.27 2.08 2.08 0 0 0 -2.31-2.17 3 3 0 0 0 -2.95 2.44z"/><path d="m155.22 193.58v.29c0 1.48.84 2.3 2.53 2.3a3.34 3.34 0 0 0 2.41-.92l.45.71a4.21 4.21 0 0 1 -2.94 1.09c-2.13 0-3.43-1.2-3.43-3.13a4.1 4.1 0 0 1 4.07-4.36 2.93 2.93 0 0 1 3.21 3.12 4.35 4.35 0 0 1 -.1.9zm.1-.74h5.25a1.27 1.27 0 0 0 0-.27 2.08 2.08 0 0 0 -2.31-2.17 3 3 0 0 0 -2.94 2.44z"/><path d="m172.07 192.67a4.15 4.15 0 0 1 -4.18 4.38 2.75 2.75 0 0 1 -2.8-1.61l-.84 4.26h-1l2-10.08h1l-.24 1.17a3.76 3.76 0 0 1 2.88-1.23 3 3 0 0 1 3.18 3.11zm-1 .06a2.15 2.15 0 0 0 -2.42-2.3 3.21 3.21 0 0 0 -3.18 3.46 2.14 2.14 0 0 0 2.42 2.28 3.21 3.21 0 0 0 3.17-3.44z"/><path d="m185.87 195.11 1.08 1.38-.67.65-1.07-1.36a5 5 0 0 1 -3.4 1.29c-1.84 0-3-.87-3-2.24s.93-2.27 3.07-3.32a3.33 3.33 0 0 1 -.8-2 2.44 2.44 0 0 1 2.72-2.44c1.27 0 2.14.66 2.14 1.72s-.84 1.95-2.74 2.87l2.14 2.73a7 7 0 0 0 1-1.9l.78.25a8.33 8.33 0 0 1 -1.25 2.37zm-1.16 0-2.35-3c-1.9.92-2.55 1.6-2.55 2.56s.74 1.57 2.07 1.57a4.07 4.07 0 0 0 2.83-1.11zm-2.71-5.7a2.81 2.81 0 0 0 .73 1.67c1.81-.85 2.34-1.36 2.34-2.2 0-.59-.46-1.05-1.3-1.05a1.59 1.59 0 0 0 -1.77 1.6z"/><path d="m201.13 194.36h-5.48l-1.65 2.64h-1.12l6.44-9.8h1l2.53 9.8h-1zm-.19-.84-1.34-5.29-3.41 5.29z"/><path d="m213 192a4.32 4.32 0 0 1 -.09.85l-.84 4.18h-1l.84-4.2a4.13 4.13 0 0 0 .07-.67c0-1.05-.63-1.65-1.91-1.65a2.87 2.87 0 0 0 -3 2.57l-.78 3.95h-1l1.45-7.36h.95l-.23 1.17a3.62 3.62 0 0 1 2.88-1.23c1.66-.05 2.66.85 2.66 2.39z"/><path d="m217.41 194.76a2.64 2.64 0 0 0 -.06.46c0 .63.35 1 1.07 1a1.85 1.85 0 0 0 1.13-.38l.24.76a2.73 2.73 0 0 1 -1.64.47 1.61 1.61 0 0 1 -1.79-1.68 2.81 2.81 0 0 1 0-.57l.86-4.34h-1.22l.15-.84h1.32l.32-1.62h1l-.32 1.62h2.24l-.16.84h-2.25z"/><path d="m223.21 193.58a1.46 1.46 0 0 0 0 .29c0 1.48.84 2.3 2.54 2.3a3.35 3.35 0 0 0 2.41-.92l.44.71a4.19 4.19 0 0 1 -2.94 1.09c-2.13 0-3.43-1.2-3.43-3.13a4.1 4.1 0 0 1 4.08-4.36 2.94 2.94 0 0 1 3.21 3.12 5.16 5.16 0 0 1 -.1.9zm.09-.74h5.26a2.53 2.53 0 0 0 0-.27 2.08 2.08 0 0 0 -2.31-2.17 3 3 0 0 0 -2.95 2.44z"/><path d="m237 189.56-.18 1h-.28c-1.57 0-2.62.9-3 2.73l-.74 3.74h-1l1.45-7.36h1l-.26 1.34a3.33 3.33 0 0 1 3.01-1.45z"/><path d="m246.6 192.67a4.15 4.15 0 0 1 -4.17 4.38 2.75 2.75 0 0 1 -2.8-1.61l-.84 4.26h-1l2-10.08h.95l-.24 1.17a3.74 3.74 0 0 1 2.87-1.23 3 3 0 0 1 3.23 3.11zm-1 .06a2.15 2.15 0 0 0 -2.42-2.3 3.22 3.22 0 0 0 -3.18 3.46 2.14 2.14 0 0 0 2.42 2.28 3.21 3.21 0 0 0 3.17-3.44z"/><path d="m254.06 189.56-.18 1h-.28c-1.57 0-2.62.9-3 2.73l-.75 3.74h-1l1.46-7.36h.95l-.26 1.33a3.31 3.31 0 0 1 3.06-1.44z"/><path d="m256.29 193.58a1.46 1.46 0 0 0 0 .29c0 1.48.84 2.3 2.54 2.3a3.35 3.35 0 0 0 2.41-.92l.45.71a4.23 4.23 0 0 1 -2.95 1.09c-2.12 0-3.43-1.2-3.43-3.13a4.11 4.11 0 0 1 4.08-4.36 2.93 2.93 0 0 1 3.21 3.12 5.16 5.16 0 0 1 -.1.9zm.1-.74h5.25a2.53 2.53 0 0 0 0-.27 2.08 2.08 0 0 0 -2.31-2.17 3 3 0 0 0 -2.94 2.44z"/><path d="m265.79 193.58v.29c0 1.48.84 2.3 2.53 2.3a3.34 3.34 0 0 0 2.41-.92l.45.71a4.19 4.19 0 0 1 -2.94 1.09c-2.13 0-3.43-1.2-3.43-3.13a4.1 4.1 0 0 1 4.07-4.36 2.93 2.93 0 0 1 3.21 3.12 4.35 4.35 0 0 1 -.1.9zm.1-.74h5.25a1.27 1.27 0 0 0 0-.27 2.08 2.08 0 0 0 -2.31-2.17 3 3 0 0 0 -2.94 2.44z"/><path d="m276 194.76a2.64 2.64 0 0 0 -.06.46c0 .63.36 1 1.07 1a1.85 1.85 0 0 0 1.13-.38l.24.76a2.73 2.73 0 0 1 -1.64.47 1.61 1.61 0 0 1 -1.79-1.68 2.26 2.26 0 0 1 .06-.57l.85-4.34h-1.3l.15-.84h1.29l.32-1.62h1l-.33 1.62h2.25l-.17.84h-2.24z"/><path d="m298.18 187.18-2 9.8h-1l1.56-7.77-5.07 6.53h-.49l-2.62-6.66-1.56 7.92h-1l2-9.8h.84l2.83 7.28 5.6-7.28z"/><path d="m308.44 189.62-1.44 7.38h-1l.23-1.16a3.77 3.77 0 0 1 -2.87 1.23 3 3 0 0 1 -3.2-3.12 4.14 4.14 0 0 1 4.16-4.37 2.76 2.76 0 0 1 2.8 1.6l.31-1.54zm-1.65 3.11a2.16 2.16 0 0 0 -2.43-2.3 3.24 3.24 0 0 0 -3.19 3.46 2.14 2.14 0 0 0 2.42 2.28 3.22 3.22 0 0 0 3.2-3.44z"/><path d="m312.33 187.18h.88l-.8 3.7h-.74z"/><path d="m322.86 189.62-1.47 7.38h-.95l.23-1.16a3.77 3.77 0 0 1 -2.87 1.23 3 3 0 0 1 -3.2-3.12 4.14 4.14 0 0 1 4.16-4.37 2.76 2.76 0 0 1 2.8 1.6l.31-1.54zm-1.65 3.11a2.16 2.16 0 0 0 -2.43-2.3 3.24 3.24 0 0 0 -3.19 3.46 2.14 2.14 0 0 0 2.42 2.28 3.22 3.22 0 0 0 3.2-3.44z"/><path d="m338.29 191.93a4.74 4.74 0 0 1 -.1.87l-.84 4.18h-1l.84-4.2a3.41 3.41 0 0 0 .07-.68c0-1-.6-1.64-1.82-1.64a2.76 2.76 0 0 0 -2.86 2.46l-.81 4.06h-1l.84-4.2a4.13 4.13 0 0 0 .07-.67c0-1.05-.59-1.65-1.82-1.65a2.81 2.81 0 0 0 -2.86 2.54l-.8 4h-1l1.45-7.36h1l-.24 1.17a3.45 3.45 0 0 1 2.79-1.23 2.31 2.31 0 0 1 2.41 1.47 3.73 3.73 0 0 1 3.11-1.47c1.63-.02 2.57.86 2.57 2.35z"/><path d="m358.17 189.62-4.17 7.38h-1l-1.23-6-3.45 6h-.95l-1.37-7.38h.91l1.19 6.24 3.56-6.24h.84l1.23 6.24 3.5-6.24z"/><path d="m366.88 192a4.32 4.32 0 0 1 -.09.85l-.79 4.15h-1l.84-4.2a4.13 4.13 0 0 0 .07-.67c0-1.05-.63-1.65-1.91-1.65a2.87 2.87 0 0 0 -3 2.57l-.78 3.95h-1l2.07-10.39h1l-.82 4.13a3.58 3.58 0 0 1 2.81-1.16c1.63-.02 2.6.88 2.6 2.42z"/><path d="m369.67 193.93a4.18 4.18 0 0 1 4.26-4.37 3 3 0 0 1 3.35 3.11 4.18 4.18 0 0 1 -4.26 4.38 3 3 0 0 1 -3.35-3.12zm6.61-1.2a2.15 2.15 0 0 0 -2.42-2.3 3.24 3.24 0 0 0 -3.2 3.46 2.15 2.15 0 0 0 2.43 2.28 3.22 3.22 0 0 0 3.19-3.44z"/><path d="m392 192a4.32 4.32 0 0 1 -.09.85l-.84 4.18h-1l.84-4.2a4.13 4.13 0 0 0 .07-.67c0-1.05-.63-1.65-1.91-1.65a2.87 2.87 0 0 0 -3 2.57l-.79 3.95h-1l2.07-10.39h1l-.82 4.13a3.58 3.58 0 0 1 2.81-1.16c1.66-.05 2.66.85 2.66 2.39z"/><path d="m403 189.62-1.43 7.38h-1l.24-1.16a3.77 3.77 0 0 1 -2.87 1.23 3 3 0 0 1 -3.21-3.12 4.15 4.15 0 0 1 4.16-4.37 2.76 2.76 0 0 1 2.8 1.6l.31-1.54zm-1.66 3.11a2.15 2.15 0 0 0 -2.42-2.3 3.24 3.24 0 0 0 -3.19 3.46 2.14 2.14 0 0 0 2.42 2.28 3.21 3.21 0 0 0 3.23-3.44z"/><path d="m413.05 189.62-4.74 7.38h-1l-1.82-7.36h1l1.53 6.29 4-6.29z"/><path d="m414.74 193.58a1.46 1.46 0 0 0 0 .29c0 1.48.84 2.3 2.54 2.3a3.35 3.35 0 0 0 2.41-.92l.45.71a4.23 4.23 0 0 1 -2.95 1.09c-2.12 0-3.43-1.2-3.43-3.13a4.11 4.11 0 0 1 4.08-4.36 2.93 2.93 0 0 1 3.21 3.12 4.35 4.35 0 0 1 -.1.9zm.09-.74h5.26a2.53 2.53 0 0 0 0-.27 2.08 2.08 0 0 0 -2.31-2.17 3 3 0 0 0 -2.95 2.44z"/><path d="m436.3 192.67a4.15 4.15 0 0 1 -4.17 4.38 2.74 2.74 0 0 1 -2.82-1.68l-.31 1.63h-1l2.07-10.39h1l-.82 4.13a3.72 3.72 0 0 1 2.8-1.16 3 3 0 0 1 3.25 3.09zm-1 .06a2.15 2.15 0 0 0 -2.42-2.3 3.21 3.21 0 0 0 -3.18 3.46 2.14 2.14 0 0 0 2.42 2.28 3.21 3.21 0 0 0 3.17-3.44z"/><path d="m439.5 193.58v.29c0 1.48.84 2.3 2.53 2.3a3.34 3.34 0 0 0 2.41-.92l.45.71a4.19 4.19 0 0 1 -2.94 1.09c-2.13 0-3.43-1.2-3.43-3.13a4.1 4.1 0 0 1 4.07-4.36 2.93 2.93 0 0 1 3.21 3.12 4.35 4.35 0 0 1 -.1.9zm.1-.74h5.25a1.27 1.27 0 0 0 0-.27 2.08 2.08 0 0 0 -2.31-2.17 3 3 0 0 0 -2.94 2.44z"/><path d="m449 193.58v.29c0 1.48.83 2.3 2.53 2.3a3.35 3.35 0 0 0 2.41-.92l.45.71a4.22 4.22 0 0 1 -2.94 1.09c-2.13 0-3.44-1.2-3.44-3.13a4.11 4.11 0 0 1 4.08-4.36 2.93 2.93 0 0 1 3.21 3.12 4.35 4.35 0 0 1 -.1.9zm.1-.74h5.25a2.53 2.53 0 0 0 0-.27 2.07 2.07 0 0 0 -2.31-2.17 3 3 0 0 0 -2.93 2.44z"/><path d="m465.28 192a5.18 5.18 0 0 1 -.08.85l-.84 4.18h-1l.84-4.2a4.13 4.13 0 0 0 .07-.67c0-1.05-.63-1.65-1.9-1.65a2.87 2.87 0 0 0 -3 2.57l-.79 3.95h-1l1.46-7.36h.96l-.24 1.17a3.64 3.64 0 0 1 2.89-1.23 2.31 2.31 0 0 1 2.63 2.39z"/><path d="m146.17 203.39-2.07 10.39h-.95l.24-1.16a3.77 3.77 0 0 1 -2.87 1.23 3 3 0 0 1 -3.21-3.12 4.14 4.14 0 0 1 4.16-4.37 2.77 2.77 0 0 1 2.8 1.6l.91-4.57zm-2.25 6.14a2.15 2.15 0 0 0 -2.42-2.3 3.23 3.23 0 0 0 -3.2 3.46 2.15 2.15 0 0 0 2.43 2.28 3.22 3.22 0 0 0 3.19-3.44z"/><path d="m147.85 210.73a4.18 4.18 0 0 1 4.26-4.37 3 3 0 0 1 3.35 3.11 4.18 4.18 0 0 1 -4.26 4.38 3 3 0 0 1 -3.35-3.12zm6.61-1.2a2.15 2.15 0 0 0 -2.42-2.3 3.23 3.23 0 0 0 -3.2 3.46 2.15 2.15 0 0 0 2.43 2.28 3.22 3.22 0 0 0 3.19-3.44z"/><path d="m159.21 206.42h1l-1.46 7.36h-1zm.25-2.27a.75.75 0 0 1 .77-.76.65.65 0 0 1 .68.63.76.76 0 0 1 -.78.78.65.65 0 0 1 -.67-.65z"/><path d="m170.25 208.75a4.27 4.27 0 0 1 -.08.85l-.84 4.18h-1l.85-4.2a4.13 4.13 0 0 0 .07-.67c0-1-.63-1.65-1.91-1.65a2.87 2.87 0 0 0 -3 2.57l-.78 3.95h-1l1.46-7.36h.98l-.23 1.17a3.62 3.62 0 0 1 2.88-1.23c1.64 0 2.6.9 2.6 2.39z"/><path d="m181.41 206.42-1.29 6.47c-.51 2.6-1.89 3.68-4.28 3.68a4.66 4.66 0 0 1 -3.28-1.11l.59-.75a3.86 3.86 0 0 0 2.76 1 2.89 2.89 0 0 0 3.19-2.63l.17-.82a3.8 3.8 0 0 1 -2.94 1.26c-2 0-3.25-1.13-3.25-3a4.07 4.07 0 0 1 4.2-4.17 2.82 2.82 0 0 1 2.87 1.68l.31-1.62zm-1.68 3c0-1.34-.91-2.14-2.44-2.14a3.12 3.12 0 0 0 -3.2 3.25c0 1.34.89 2.14 2.43 2.14a3.13 3.13 0 0 0 3.21-3.3z"/><path d="m196.69 206.42-1.47 7.36h-1l.24-1.16a3.77 3.77 0 0 1 -2.87 1.23 3 3 0 0 1 -3.21-3.12 4.15 4.15 0 0 1 4.16-4.37 2.76 2.76 0 0 1 2.8 1.6l.31-1.54zm-1.69 3.11a2.15 2.15 0 0 0 -2.42-2.3 3.23 3.23 0 0 0 -3.19 3.46 2.14 2.14 0 0 0 2.42 2.28 3.22 3.22 0 0 0 3.19-3.44z"/><path d="m206.53 205.6-.17.82h2.25l-.17.84h-2.22l-1.31 6.52h-1l1.3-6.52h-1.31l.15-.84h1.33l.18-.93a2.41 2.41 0 0 1 2.52-2.17 2.26 2.26 0 0 1 1.49.48l-.44.72a1.57 1.57 0 0 0 -1-.36c-.9 0-1.39.45-1.6 1.44z"/><path d="m217.62 206.42-1.47 7.36h-1l.24-1.16a3.77 3.77 0 0 1 -2.87 1.23 3 3 0 0 1 -3.21-3.12 4.15 4.15 0 0 1 4.16-4.37 2.76 2.76 0 0 1 2.8 1.6l.31-1.54zm-1.62 3.11a2.15 2.15 0 0 0 -2.42-2.3 3.23 3.23 0 0 0 -3.19 3.46 2.14 2.14 0 0 0 2.42 2.28 3.22 3.22 0 0 0 3.19-3.44z"/><path d="m228.23 209.47a4.15 4.15 0 0 1 -4.18 4.38 2.72 2.72 0 0 1 -2.81-1.68l-.32 1.61h-1l2.08-10.39h1l-.82 4.13a3.71 3.71 0 0 1 2.8-1.16 3 3 0 0 1 3.25 3.11zm-1 .06a2.15 2.15 0 0 0 -2.42-2.3 3.21 3.21 0 0 0 -3.18 3.46 2.14 2.14 0 0 0 2.37 2.31 3.21 3.21 0 0 0 3.22-3.47z"/><path d="m238.62 206.42-1.47 7.36h-1l.24-1.17a3.56 3.56 0 0 1 -2.84 1.24 2.3 2.3 0 0 1 -2.62-2.41 4.83 4.83 0 0 1 .08-.82l.84-4.2h1l-.84 4.2a3.16 3.16 0 0 0 -.07.66c0 1.06.61 1.68 1.87 1.68a2.88 2.88 0 0 0 3-2.58l.78-4z"/><path d="m243.05 203.39h1l-2.05 10.39h-1z"/><path d="m245.72 210.73a4.18 4.18 0 0 1 4.26-4.37 3 3 0 0 1 3.35 3.11 4.18 4.18 0 0 1 -4.26 4.38 3 3 0 0 1 -3.35-3.12zm6.61-1.2a2.15 2.15 0 0 0 -2.42-2.3 3.23 3.23 0 0 0 -3.19 3.46 2.14 2.14 0 0 0 2.42 2.28 3.21 3.21 0 0 0 3.19-3.44z"/><path d="m263.73 206.42-1.47 7.36h-.95l.24-1.17a3.58 3.58 0 0 1 -2.85 1.24 2.31 2.31 0 0 1 -2.62-2.41 4 4 0 0 1 .09-.82l.84-4.2h1l-.84 4.2a4 4 0 0 0 -.07.66c0 1.06.62 1.68 1.88 1.68a2.88 2.88 0 0 0 3-2.58l.79-4z"/><path d="m265.31 213 .48-.79a4 4 0 0 0 2.54.82c1.42 0 2.19-.5 2.19-1.32 0-1.67-4.18-.52-4.18-3 0-1.4 1.27-2.3 3.2-2.3a4.47 4.47 0 0 1 2.49.69l-.42.79a3.7 3.7 0 0 0 -2.15-.63c-1.36 0-2.13.55-2.13 1.35 0 1.71 4.17.54 4.17 3 0 1.45-1.3 2.29-3.26 2.29a4.65 4.65 0 0 1 -2.93-.9z"/><path d="m275.61 216.11.46-.77a1.66 1.66 0 0 0 1.11.38c.8 0 1.28-.42 1.47-1.4l1.58-7.9h1l-1.58 7.92a2.37 2.37 0 0 1 -2.48 2.23 2.56 2.56 0 0 1 -1.56-.46zm4.86-12a.75.75 0 0 1 .77-.76.66.66 0 0 1 .69.63.76.76 0 0 1 -.79.78.65.65 0 0 1 -.67-.61z"/><path d="m283.52 210.73a4.18 4.18 0 0 1 4.26-4.37 3 3 0 0 1 3.35 3.11 4.18 4.18 0 0 1 -4.26 4.38 3 3 0 0 1 -3.35-3.12zm6.61-1.2a2.15 2.15 0 0 0 -2.42-2.3 3.23 3.23 0 0 0 -3.19 3.46 2.14 2.14 0 0 0 2.42 2.28 3.21 3.21 0 0 0 3.19-3.44z"/><path d="m301.69 209.47a4.15 4.15 0 0 1 -4.18 4.38 2.72 2.72 0 0 1 -2.81-1.68l-.33 1.61h-.95l2.07-10.39h1l-.83 4.13a3.74 3.74 0 0 1 2.8-1.16 3 3 0 0 1 3.23 3.11zm-1 .06a2.16 2.16 0 0 0 -2.43-2.3 3.22 3.22 0 0 0 -3.18 3.46 2.15 2.15 0 0 0 2.42 2.31 3.21 3.21 0 0 0 3.18-3.47z"/><path d="m321 206.42-4.16 7.36h-1l-1.23-6-3.44 6h-1l-1.44-7.36h.91l1.19 6.24 3.56-6.24h.84l1.23 6.24 3.5-6.24z"/><path d="m323.49 206.42h1l-1.49 7.36h-1zm.26-2.27a.75.75 0 0 1 .77-.76.65.65 0 0 1 .68.63.76.76 0 0 1 -.78.78.65.65 0 0 1 -.67-.65z"/><path d="m328.45 211.56a2.64 2.64 0 0 0 -.06.46c0 .63.35 1 1.07 1a1.88 1.88 0 0 0 1.13-.38l.24.76a2.73 2.73 0 0 1 -1.64.47 1.6 1.6 0 0 1 -1.79-1.68 2.26 2.26 0 0 1 .06-.57l.85-4.34h-1.31l.15-.84h1.32l.32-1.62h1l-.32 1.62h2.24l-.17.84h-2.24z"/><path d="m341.28 208.75a4.32 4.32 0 0 1 -.09.85l-.84 4.18h-1l.84-4.2a4.13 4.13 0 0 0 .07-.67c0-1-.63-1.65-1.91-1.65a2.86 2.86 0 0 0 -3 2.57l-.79 3.95h-1l2.07-10.39h1l-.82 4.13a3.58 3.58 0 0 1 2.81-1.16c1.69 0 2.66.9 2.66 2.39z"/><path d="m348.76 210.73a4.18 4.18 0 0 1 4.26-4.37 3 3 0 0 1 3.35 3.11 4.18 4.18 0 0 1 -4.26 4.38 3 3 0 0 1 -3.35-3.12zm6.61-1.2a2.15 2.15 0 0 0 -2.42-2.3 3.23 3.23 0 0 0 -3.19 3.46 2.14 2.14 0 0 0 2.42 2.28 3.22 3.22 0 0 0 3.19-3.44z"/><path d="m366.35 208.75a5.18 5.18 0 0 1 -.08.85l-.84 4.18h-1l.84-4.2a4.13 4.13 0 0 0 .07-.67c0-1-.63-1.65-1.9-1.65a2.87 2.87 0 0 0 -3 2.57l-.78 3.95h-1l1.46-7.36h.95l-.24 1.17a3.64 3.64 0 0 1 2.89-1.23 2.31 2.31 0 0 1 2.63 2.39z"/><path d="m371.26 203.39h1l-2.08 10.39h-1z"/><path d="m375.46 206.42h1l-1.46 7.36h-1zm.25-2.27a.76.76 0 0 1 .77-.76.66.66 0 0 1 .69.63.76.76 0 0 1 -.79.78.65.65 0 0 1 -.67-.65z"/><path d="m386.51 208.75a5.18 5.18 0 0 1 -.08.85l-.85 4.18h-1l.84-4.2a4.13 4.13 0 0 0 .07-.67c0-1-.63-1.65-1.9-1.65a2.87 2.87 0 0 0 -3 2.57l-.79 3.95h-1l1.46-7.36h1l-.24 1.17a3.64 3.64 0 0 1 2.89-1.23 2.31 2.31 0 0 1 2.6 2.39z"/><path d="m390.3 210.38v.29c0 1.47.84 2.3 2.53 2.3a3.35 3.35 0 0 0 2.41-.92l.45.71a4.21 4.21 0 0 1 -2.94 1.09c-2.13 0-3.43-1.2-3.43-3.13a4.1 4.1 0 0 1 4.07-4.36 2.93 2.93 0 0 1 3.21 3.12 4.35 4.35 0 0 1 -.1.9zm.1-.74h5.25a2.53 2.53 0 0 0 0-.27 2.07 2.07 0 0 0 -2.31-2.17 3 3 0 0 0 -2.94 2.44z"/><path d="m403.53 210.73a4.18 4.18 0 0 1 4.29-4.37 3.06 3.06 0 0 1 2.89 1.47l-.84.49a2.26 2.26 0 0 0 -2.14-1.09 3.24 3.24 0 0 0 -3.21 3.46 2.16 2.16 0 0 0 2.48 2.31 2.85 2.85 0 0 0 2.32-1.06l.71.54a3.78 3.78 0 0 1 -3.08 1.4c-2.12-.03-3.42-1.26-3.42-3.15z"/><path d="m414.49 203.39h1l-2.08 10.39h-1z"/><path d="m425.43 206.42-1.43 7.36h-1l.23-1.16a3.77 3.77 0 0 1 -2.87 1.23 3 3 0 0 1 -3.21-3.12 4.15 4.15 0 0 1 4.17-4.37 2.76 2.76 0 0 1 2.8 1.6l.3-1.54zm-1.65 3.11a2.16 2.16 0 0 0 -2.43-2.3 3.23 3.23 0 0 0 -3.19 3.46 2.14 2.14 0 0 0 2.42 2.28 3.22 3.22 0 0 0 3.2-3.44z"/><path d="m427 213 .48-.79a4 4 0 0 0 2.52.79c1.41 0 2.18-.5 2.18-1.32 0-1.67-4.17-.52-4.17-3 0-1.4 1.26-2.3 3.19-2.3a4.5 4.5 0 0 1 2.5.69l-.42.79a3.73 3.73 0 0 0 -2.16-.63c-1.36 0-2.13.55-2.13 1.35 0 1.71 4.17.54 4.17 3 0 1.45-1.3 2.29-3.26 2.29a4.69 4.69 0 0 1 -2.9-.87z"/><path d="m434.89 213 .47-.79a4.07 4.07 0 0 0 2.55.82c1.42 0 2.19-.5 2.19-1.32 0-1.67-4.18-.52-4.18-3 0-1.4 1.27-2.3 3.2-2.3a4.47 4.47 0 0 1 2.49.69l-.42.79a3.7 3.7 0 0 0 -2.15-.63c-1.36 0-2.13.55-2.13 1.35 0 1.71 4.17.54 4.17 3 0 1.45-1.3 2.29-3.26 2.29a4.65 4.65 0 0 1 -2.93-.9z"/><path d="m444.49 210.38v.29c0 1.47.84 2.3 2.53 2.3a3.32 3.32 0 0 0 2.41-.92l.45.71a4.19 4.19 0 0 1 -2.94 1.09c-2.13 0-3.43-1.2-3.43-3.13a4.1 4.1 0 0 1 4.08-4.36 2.93 2.93 0 0 1 3.2 3.12 4.35 4.35 0 0 1 -.1.9zm.1-.74h5.25a1.27 1.27 0 0 0 0-.27 2.08 2.08 0 0 0 -2.31-2.17 3 3 0 0 0 -2.94 2.44z"/><path d="m452.29 213 .48-.79a4 4 0 0 0 2.55.82c1.41 0 2.18-.5 2.18-1.32 0-1.67-4.17-.52-4.17-3 0-1.4 1.26-2.3 3.19-2.3a4.47 4.47 0 0 1 2.49.69l-.42.79a3.7 3.7 0 0 0 -2.15-.63c-1.36 0-2.13.55-2.13 1.35 0 1.71 4.17.54 4.17 3 0 1.45-1.3 2.29-3.26 2.29a4.65 4.65 0 0 1 -2.93-.9z"/><path d="m460.45 213.13a.79.79 0 0 1 .79-.8.7.7 0 0 1 .71.73.77.77 0 0 1 -.77.79.72.72 0 0 1 -.73-.72z"/><path d="m141.2 221.67h-3.46l.18-.89h8l-.2.89h-3.44l-1.78 8.91h-1z"/><path d="m154.08 225.55a4.11 4.11 0 0 1 -.08.84l-.84 4.19h-1l.84-4.2a4.13 4.13 0 0 0 .07-.67c0-1.05-.63-1.65-1.91-1.65a2.87 2.87 0 0 0 -3 2.57l-.78 4h-1l2.08-10.39h1l-.82 4.13a3.58 3.58 0 0 1 2.81-1.16c1.67-.05 2.63.85 2.63 2.34z"/><path d="m157.87 227.18v.29c0 1.47.84 2.3 2.54 2.3a3.35 3.35 0 0 0 2.41-.92l.44.71a4.19 4.19 0 0 1 -2.94 1.09c-2.13 0-3.43-1.2-3.43-3.13a4.1 4.1 0 0 1 4.08-4.36 2.93 2.93 0 0 1 3.2 3.12 5.18 5.18 0 0 1 -.09.9zm.1-.74h5.26a2.53 2.53 0 0 0 0-.27 2.08 2.08 0 0 0 -2.31-2.17 3 3 0 0 0 -2.92 2.44z"/><path d="m174 223.22-5.38 8.32c-.91 1.4-1.6 1.83-2.66 1.83a2.38 2.38 0 0 1 -1.75-.66l.53-.73a1.7 1.7 0 0 0 1.3.54c.63 0 1.12-.3 1.7-1.19l.52-.79-1.84-7.32h1l1.53 6.27 4-6.27z"/><path d="m187.87 223.22-1.47 7.36h-1l.24-1.16a3.77 3.77 0 0 1 -2.87 1.23 3 3 0 0 1 -3.21-3.12 4.15 4.15 0 0 1 4.16-4.37 2.76 2.76 0 0 1 2.8 1.6l.31-1.54zm-1.66 3.11a2.15 2.15 0 0 0 -2.42-2.3 3.23 3.23 0 0 0 -3.19 3.46 2.14 2.14 0 0 0 2.42 2.28 3.22 3.22 0 0 0 3.19-3.44z"/><path d="m195.4 223.16-.19 1h-.28c-1.56 0-2.61.9-3 2.73l-.74 3.74h-1l1.46-7.36h1l-.25 1.34a3.33 3.33 0 0 1 3-1.45z"/><path d="m197.62 227.18v.29c0 1.47.84 2.3 2.53 2.3a3.35 3.35 0 0 0 2.41-.92l.45.71a4.21 4.21 0 0 1 -2.94 1.09c-2.13 0-3.43-1.2-3.43-3.13a4.1 4.1 0 0 1 4.07-4.36 2.93 2.93 0 0 1 3.21 3.12 4.35 4.35 0 0 1 -.1.9zm.1-.74h5.28a1.27 1.27 0 0 0 0-.27 2.08 2.08 0 0 0 -2.32-2.17 3 3 0 0 0 -2.96 2.44z"/><path d="m218.58 223.22-4.73 7.36h-1l-1.85-7.36h1l1.53 6.28 4-6.28z"/><path d="m220.27 227.18v.29c0 1.47.84 2.3 2.53 2.3a3.34 3.34 0 0 0 2.41-.92l.45.71a4.21 4.21 0 0 1 -2.94 1.09c-2.13 0-3.43-1.2-3.43-3.13a4.1 4.1 0 0 1 4.07-4.36 2.93 2.93 0 0 1 3.21 3.12 4.35 4.35 0 0 1 -.1.9zm.1-.74h5.25a1.27 1.27 0 0 0 0-.27 2.08 2.08 0 0 0 -2.31-2.17 3 3 0 0 0 -2.94 2.44z"/><path d="m234 223.16-.19 1h-.28c-1.57 0-2.61.9-3 2.73l-.74 3.74h-1l1.46-7.36h.95l-.25 1.34a3.33 3.33 0 0 1 3.05-1.45z"/><path d="m243.39 223.22-5.39 8.32c-.91 1.4-1.6 1.83-2.66 1.83a2.38 2.38 0 0 1 -1.75-.66l.53-.73a1.7 1.7 0 0 0 1.3.54c.63 0 1.12-.3 1.7-1.19l.52-.79-1.84-7.32h1l1.53 6.27 4-6.27z"/><path d="m257.35 226.27a4.15 4.15 0 0 1 -4.18 4.38 2.75 2.75 0 0 1 -2.8-1.61l-.84 4.26h-1l2-10.08h1l-.24 1.17a3.76 3.76 0 0 1 2.88-1.23 3 3 0 0 1 3.18 3.11zm-1 .06a2.15 2.15 0 0 0 -2.42-2.3 3.21 3.21 0 0 0 -3.18 3.46 2.14 2.14 0 0 0 2.42 2.28 3.21 3.21 0 0 0 3.17-3.44z"/><path d="m267.82 223.22-1.47 7.36h-1l.23-1.16a3.77 3.77 0 0 1 -2.87 1.23 3 3 0 0 1 -3.2-3.12 4.14 4.14 0 0 1 4.16-4.37 2.76 2.76 0 0 1 2.8 1.6l.31-1.54zm-1.65 3.11a2.16 2.16 0 0 0 -2.43-2.3 3.23 3.23 0 0 0 -3.19 3.46 2.14 2.14 0 0 0 2.42 2.28 3.22 3.22 0 0 0 3.2-3.44z"/><path d="m271.76 228.36a4 4 0 0 0 -.05.46c0 .63.35 1 1.06 1a1.9 1.9 0 0 0 1.14-.38l.24.76a2.75 2.75 0 0 1 -1.64.47 1.61 1.61 0 0 1 -1.8-1.68 2.83 2.83 0 0 1 .06-.57l.85-4.34h-1.3l.16-.84h1.31l.32-1.62h1l-.32 1.62h2.21l-.17.84h-2.24z"/><path d="m278.36 223.22h1l-1.45 7.36h-1zm.25-2.27a.75.75 0 0 1 .77-.76.66.66 0 0 1 .69.63.76.76 0 0 1 -.79.78.65.65 0 0 1 -.67-.6z"/><path d="m282.64 227.18v.29c0 1.47.84 2.3 2.53 2.3a3.34 3.34 0 0 0 2.41-.92l.45.71a4.21 4.21 0 0 1 -2.94 1.09c-2.13 0-3.43-1.2-3.43-3.13a4.1 4.1 0 0 1 4.07-4.36 2.93 2.93 0 0 1 3.21 3.12 4.35 4.35 0 0 1 -.1.9zm.1-.74h5.26a1.27 1.27 0 0 0 0-.27 2.08 2.08 0 0 0 -2.32-2.17 3 3 0 0 0 -2.94 2.44z"/><path d="m298.91 225.55a5 5 0 0 1 -.08.84l-.84 4.19h-1l.84-4.2a3.25 3.25 0 0 0 .07-.67c0-1.05-.63-1.65-1.9-1.65a2.87 2.87 0 0 0 -3 2.57l-.78 4h-1l1.46-7.36h.95l-.24 1.17a3.66 3.66 0 0 1 2.89-1.23c1.72-.05 2.63.85 2.63 2.34z"/><path d="m303.35 228.36a2.64 2.64 0 0 0 -.06.46c0 .63.35 1 1.07 1a1.9 1.9 0 0 0 1.13-.38l.24.76a2.73 2.73 0 0 1 -1.64.47 1.6 1.6 0 0 1 -1.79-1.67 2.81 2.81 0 0 1 .05-.57l.86-4.34h-1.31l.16-.84h1.31l.33-1.62h1l-.32 1.62h2.24l-.17.84h-2.25z"/><path d="m321.4 223.22-1.47 7.36h-1l.24-1.16a3.77 3.77 0 0 1 -2.87 1.23 3 3 0 0 1 -3.21-3.12 4.15 4.15 0 0 1 4.16-4.37 2.76 2.76 0 0 1 2.8 1.6l.31-1.54zm-1.66 3.11a2.15 2.15 0 0 0 -2.42-2.3 3.23 3.23 0 0 0 -3.19 3.46 2.14 2.14 0 0 0 2.42 2.28 3.22 3.22 0 0 0 3.19-3.44z"/><path d="m331.43 225.55a4.11 4.11 0 0 1 -.08.84l-.84 4.19h-1l.85-4.2a4.13 4.13 0 0 0 .07-.67c0-1.05-.63-1.65-1.91-1.65a2.87 2.87 0 0 0 -3 2.57l-.78 4h-1l1.46-7.36h.95l-.24 1.17a3.66 3.66 0 0 1 2.89-1.23c1.67-.05 2.63.85 2.63 2.34z"/><path d="m343.1 220.19-2.1 10.39h-.95l.24-1.16a3.77 3.77 0 0 1 -2.87 1.23 3 3 0 0 1 -3.21-3.12 4.15 4.15 0 0 1 4.16-4.37 2.77 2.77 0 0 1 2.8 1.6l.91-4.57zm-2.26 6.14a2.15 2.15 0 0 0 -2.42-2.3 3.23 3.23 0 0 0 -3.2 3.46 2.15 2.15 0 0 0 2.43 2.28 3.22 3.22 0 0 0 3.19-3.44z"/><path d="m350.48 227.18v.29c0 1.47.84 2.3 2.54 2.3a3.31 3.31 0 0 0 2.4-.92l.45.71a4.19 4.19 0 0 1 -2.94 1.09c-2.13 0-3.43-1.2-3.43-3.13a4.1 4.1 0 0 1 4.08-4.36 2.93 2.93 0 0 1 3.2 3.12 5.18 5.18 0 0 1 -.09.9zm.1-.74h5.25a1.27 1.27 0 0 0 0-.27 2.08 2.08 0 0 0 -2.31-2.17 3 3 0 0 0 -2.94 2.44z"/><path d="m366.76 225.55a4.14 4.14 0 0 1 -.09.84l-.84 4.19h-1l.84-4.2a4.13 4.13 0 0 0 .07-.67c0-1.05-.63-1.65-1.91-1.65a2.87 2.87 0 0 0 -3 2.57l-.78 4h-1l1.45-7.36h1l-.23 1.17a3.62 3.62 0 0 1 2.88-1.23c1.64-.05 2.61.85 2.61 2.34z"/><path d="m368.81 229.76.48-.79a4 4 0 0 0 2.54.82c1.42 0 2.19-.5 2.19-1.32 0-1.67-4.17-.52-4.17-3 0-1.4 1.26-2.3 3.19-2.3a4.47 4.47 0 0 1 2.49.69l-.42.79a3.7 3.7 0 0 0 -2.11-.65c-1.36 0-2.13.55-2.13 1.35 0 1.71 4.17.54 4.17 3 0 1.45-1.3 2.29-3.26 2.29a4.65 4.65 0 0 1 -2.97-.88z"/><path d="m385.6 223.22-1.47 7.36h-.95l.23-1.17a3.54 3.54 0 0 1 -2.84 1.24 2.31 2.31 0 0 1 -2.62-2.41 4 4 0 0 1 .09-.82l.84-4.2h1l-.84 4.2a4 4 0 0 0 -.07.66c0 1.06.62 1.68 1.88 1.68a2.88 2.88 0 0 0 3-2.58l.78-4z"/><path d="m393.14 223.16-.18 1h-.28c-1.57 0-2.62.9-3 2.73l-.74 3.74h-1l1.46-7.36h.95l-.25 1.34a3.31 3.31 0 0 1 3.04-1.45z"/><path d="m395.37 227.18a1.46 1.46 0 0 0 0 .29c0 1.47.84 2.3 2.54 2.3a3.35 3.35 0 0 0 2.41-.92l.45.71a4.22 4.22 0 0 1 -2.94 1.09c-2.13 0-3.44-1.2-3.44-3.13a4.11 4.11 0 0 1 4.08-4.36 2.93 2.93 0 0 1 3.21 3.12 4.35 4.35 0 0 1 -.1.9zm.1-.74h5.25a2.53 2.53 0 0 0 0-.27 2.08 2.08 0 0 0 -2.31-2.17 3 3 0 0 0 -2.94 2.44z"/><path d="m416.86 223.22-1.47 7.36h-.95l.24-1.16a3.78 3.78 0 0 1 -2.88 1.23 3 3 0 0 1 -3.2-3.12 4.14 4.14 0 0 1 4.16-4.37 2.76 2.76 0 0 1 2.8 1.6l.31-1.54zm-1.65 3.11a2.15 2.15 0 0 0 -2.42-2.3 3.23 3.23 0 0 0 -3.2 3.46 2.14 2.14 0 0 0 2.42 2.28 3.22 3.22 0 0 0 3.2-3.44z"/><path d="m421.28 220.19h1l-2.08 10.39h-1z"/><path d="m426.1 220.19h1l-2.1 10.39h-1z"/><path d="m432.77 229.76.48-.79a4 4 0 0 0 2.55.82c1.41 0 2.19-.5 2.19-1.32 0-1.67-4.18-.52-4.18-3 0-1.4 1.26-2.3 3.19-2.3a4.5 4.5 0 0 1 2.5.69l-.42.79a3.73 3.73 0 0 0 -2.16-.63c-1.36 0-2.13.55-2.13 1.35 0 1.71 4.18.54 4.18 3 0 1.45-1.31 2.29-3.27 2.29a4.69 4.69 0 0 1 -2.93-.9z"/><path d="m443.05 228.36a2.58 2.58 0 0 0 -.05.46c0 .63.35 1 1.06 1a1.85 1.85 0 0 0 1.13-.38l.24.76a2.73 2.73 0 0 1 -1.64.47 1.61 1.61 0 0 1 -1.79-1.67 2.26 2.26 0 0 1 .06-.57l.85-4.34h-1.3l.15-.84h1.32l.32-1.62h1l-.33 1.62h2.25l-.17.84h-2.24z"/><path d="m456.3 223.22-1.47 7.36h-.95l.23-1.17a3.54 3.54 0 0 1 -2.84 1.24 2.31 2.31 0 0 1 -2.62-2.41 4.83 4.83 0 0 1 .08-.82l.85-4.2h1l-.84 4.2a4 4 0 0 0 -.07.66c0 1.06.62 1.68 1.88 1.68a2.88 2.88 0 0 0 3-2.58l.78-4z"/><path d="m459 226.35h3.67l-.16.87h-3.67z"/><path d="m141.88 237-2.08 10.39h-1l.24-1.16a3.77 3.77 0 0 1 -2.87 1.23 3 3 0 0 1 -3.21-3.12 4.15 4.15 0 0 1 4.16-4.37 2.77 2.77 0 0 1 2.8 1.6l.91-4.57zm-2.26 6.14a2.15 2.15 0 0 0 -2.42-2.3 3.23 3.23 0 0 0 -3.19 3.46 2.14 2.14 0 0 0 2.42 2.28 3.22 3.22 0 0 0 3.19-3.45z"/><path d="m144.55 244a1.46 1.46 0 0 0 0 .29c0 1.47.84 2.3 2.54 2.3a3.35 3.35 0 0 0 2.41-.92l.45.71a4.22 4.22 0 0 1 -2.94 1.09c-2.13 0-3.44-1.2-3.44-3.13a4.11 4.11 0 0 1 4.08-4.36 2.93 2.93 0 0 1 3.21 3.12 5.16 5.16 0 0 1 -.1.9zm.1-.74h5.25a2.53 2.53 0 0 0 0-.27 2.08 2.08 0 0 0 -2.31-2.17 3 3 0 0 0 -2.94 2.42z"/><path d="m160.82 242.35a5.18 5.18 0 0 1 -.08.85l-.85 4.18h-1l.84-4.2a4.13 4.13 0 0 0 .07-.67c0-1-.63-1.65-1.9-1.65a2.87 2.87 0 0 0 -3 2.57l-.79 3.95h-1l1.46-7.36h.95l-.24 1.17a3.63 3.63 0 0 1 2.89-1.23 2.31 2.31 0 0 1 2.65 2.39z"/><path d="m165.25 245.16a4 4 0 0 0 -.05.46c0 .63.35 1 1.06 1a1.9 1.9 0 0 0 1.14-.38l.23.76a2.7 2.7 0 0 1 -1.63.47 1.61 1.61 0 0 1 -1.8-1.68 2.83 2.83 0 0 1 .06-.57l.85-4.34h-1.3l.19-.88h1.32l.32-1.62h1l-.32 1.62h2.24l-.17.84h-2.24z"/><path d="m169.61 246.56.47-.79a4 4 0 0 0 2.55.82c1.42 0 2.19-.49 2.19-1.32 0-1.67-4.18-.52-4.18-3 0-1.4 1.26-2.3 3.2-2.3a4.49 4.49 0 0 1 2.49.69l-.42.79a3.73 3.73 0 0 0 -2.16-.63c-1.36 0-2.13.55-2.13 1.35 0 1.71 4.18.54 4.18 3 0 1.45-1.3 2.29-3.27 2.29a4.64 4.64 0 0 1 -2.92-.9z"/><path d="m191.2 240-1.47 7.36h-.95l.23-1.16a3.77 3.77 0 0 1 -2.87 1.23 3 3 0 0 1 -3.21-3.12 4.15 4.15 0 0 1 4.16-4.37 2.76 2.76 0 0 1 2.81 1.6l.3-1.54zm-1.65 3.11a2.16 2.16 0 0 0 -2.43-2.3 3.24 3.24 0 0 0 -3.19 3.46 2.14 2.14 0 0 0 2.42 2.28 3.22 3.22 0 0 0 3.2-3.42z"/><path d="m198.73 240-.18 1h-.28c-1.57 0-2.62.9-3 2.73l-.74 3.74h-1l1.47-7.47h1l-.26 1.34a3.33 3.33 0 0 1 2.99-1.34z"/><path d="m201 244v.29c0 1.47.84 2.3 2.53 2.3a3.34 3.34 0 0 0 2.41-.92l.45.71a4.19 4.19 0 0 1 -2.94 1.09c-2.13 0-3.43-1.2-3.43-3.13a4.1 4.1 0 0 1 3.98-4.34 2.93 2.93 0 0 1 3.21 3.12 4.35 4.35 0 0 1 -.1.9zm.1-.74h5.25a1.27 1.27 0 0 0 0-.27 2.08 2.08 0 0 0 -2.35-2.19 3 3 0 0 0 -2.95 2.44z"/><path d="m215.71 240h1l-1.45 7.36h-1zm.25-2.27a.75.75 0 0 1 .77-.76.66.66 0 0 1 .69.63.76.76 0 0 1 -.79.78.65.65 0 0 1 -.63-.63z"/><path d="m226.76 242.35a4.32 4.32 0 0 1 -.09.85l-.84 4.18h-1l.84-4.2a4.13 4.13 0 0 0 .07-.67c0-1-.63-1.65-1.91-1.65a2.87 2.87 0 0 0 -3 2.57l-.79 3.95h-1l1.45-7.36h1l-.24 1.17a3.62 3.62 0 0 1 2.88-1.23c1.66.04 2.63.9 2.63 2.39z"/><path d="m229.55 244.33a4.18 4.18 0 0 1 4.29-4.37 3.08 3.08 0 0 1 2.9 1.47l-.84.49a2.27 2.27 0 0 0 -2.14-1.09 3.24 3.24 0 0 0 -3.21 3.46 2.15 2.15 0 0 0 2.45 2.28 2.87 2.87 0 0 0 2.33-1.06l.71.54a3.8 3.8 0 0 1 -3.08 1.4c-2.1 0-3.41-1.23-3.41-3.12z"/><path d="m240.52 237h1l-2.07 10.39h-1z"/><path d="m251.37 240-1.47 7.36h-1l.23-1.17a3.54 3.54 0 0 1 -2.84 1.24 2.31 2.31 0 0 1 -2.62-2.41 4 4 0 0 1 .09-.82l.84-4.2h1l-.84 4.2a4 4 0 0 0 -.07.66c0 1.06.62 1.68 1.88 1.68a2.88 2.88 0 0 0 3-2.58l.79-4z"/><path d="m262.53 237-2.07 10.39h-1l.24-1.16a3.77 3.77 0 0 1 -2.87 1.23 3 3 0 0 1 -3.21-3.12 4.15 4.15 0 0 1 4.16-4.37 2.77 2.77 0 0 1 2.8 1.6l.91-4.57zm-2.26 6.14a2.15 2.15 0 0 0 -2.42-2.3 3.23 3.23 0 0 0 -3.19 3.46 2.14 2.14 0 0 0 2.42 2.28 3.22 3.22 0 0 0 3.19-3.45z"/><path d="m265.2 244a1.46 1.46 0 0 0 0 .29c0 1.47.84 2.3 2.54 2.3a3.35 3.35 0 0 0 2.41-.92l.45.71a4.22 4.22 0 0 1 -2.94 1.09c-2.13 0-3.44-1.2-3.44-3.13a4.11 4.11 0 0 1 4.08-4.36 2.93 2.93 0 0 1 3.21 3.12 4.35 4.35 0 0 1 -.1.9zm.1-.74h5.25a2.53 2.53 0 0 0 0-.27 2.08 2.08 0 0 0 -2.31-2.17 3 3 0 0 0 -2.94 2.42z"/><path d="m282.58 237-2.08 10.39h-.95l.24-1.16a3.77 3.77 0 0 1 -2.87 1.23 3 3 0 0 1 -3.21-3.12 4.14 4.14 0 0 1 4.16-4.37 2.77 2.77 0 0 1 2.8 1.6l.91-4.57zm-2.26 6.14a2.15 2.15 0 0 0 -2.42-2.3 3.24 3.24 0 0 0 -3.2 3.46 2.15 2.15 0 0 0 2.43 2.28 3.22 3.22 0 0 0 3.19-3.45z"/><path d="m283.8 246.73a.79.79 0 0 1 .79-.8.7.7 0 0 1 .71.73.77.77 0 0 1 -.77.79.72.72 0 0 1 -.73-.72z"/><path d="m297 238.47h-3.46l.18-.89h7.95l-.2.89h-3.47l-1.78 8.91h-1z"/><path d="m309.83 242.35a4.27 4.27 0 0 1 -.08.85l-.84 4.18h-1l.84-4.2a3.3 3.3 0 0 0 .08-.67c0-1-.64-1.65-1.91-1.65a2.87 2.87 0 0 0 -3 2.57l-.78 3.95h-1l2.08-10.38h1l-.83 4.13a3.6 3.6 0 0 1 2.81-1.13c1.67 0 2.63.86 2.63 2.35z"/><path d="m313.62 244v.29c0 1.47.84 2.3 2.53 2.3a3.34 3.34 0 0 0 2.41-.92l.45.71a4.19 4.19 0 0 1 -2.94 1.09c-2.13 0-3.43-1.2-3.43-3.13a4.1 4.1 0 0 1 4.08-4.36 2.93 2.93 0 0 1 3.2 3.12 4.35 4.35 0 0 1 -.1.9zm.1-.74h5.28a1.27 1.27 0 0 0 0-.27 2.08 2.08 0 0 0 -2.31-2.17 3 3 0 0 0 -2.97 2.42z"/><path d="m339.26 240-4.16 7.36h-1l-1.24-6-3.44 6h-1l-1.36-7.36h.94l1.19 6.24 3.56-6.24h.84l1.23 6.24 3.48-6.24z"/><path d="m348.26 240-1.47 7.36h-1l.24-1.16a3.77 3.77 0 0 1 -2.87 1.23 3 3 0 0 1 -3.21-3.12 4.14 4.14 0 0 1 4.16-4.37 2.76 2.76 0 0 1 2.8 1.6l.31-1.54zm-1.65 3.11a2.15 2.15 0 0 0 -2.42-2.3 3.24 3.24 0 0 0 -3.2 3.46 2.15 2.15 0 0 0 2.43 2.28 3.22 3.22 0 0 0 3.19-3.42z"/><path d="m358.27 240-5.38 8.32c-.91 1.4-1.59 1.83-2.66 1.83a2.39 2.39 0 0 1 -1.75-.66l.53-.73a1.72 1.72 0 0 0 1.31.54c.63 0 1.12-.3 1.69-1.19l.52-.79-1.84-7.32h1l1.53 6.27 4-6.27z"/><path d="m365.56 245.16a4 4 0 0 0 -.05.46c0 .63.35 1 1.06 1a1.9 1.9 0 0 0 1.14-.38l.23.76a2.7 2.7 0 0 1 -1.63.47 1.61 1.61 0 0 1 -1.8-1.68 2.83 2.83 0 0 1 .06-.57l.85-4.34h-1.3l.15-.84h1.32l.32-1.62h1l-.33 1.62h2.25l-.17.84h-2.24z"/><path d="m378.39 242.35a5.18 5.18 0 0 1 -.08.85l-.84 4.18h-1l.84-4.2a4.13 4.13 0 0 0 .07-.67c0-1-.63-1.65-1.9-1.65a2.87 2.87 0 0 0 -3 2.57l-.79 3.95h-1l2.08-10.38h1l-.83 4.13a3.58 3.58 0 0 1 2.82-1.16 2.31 2.31 0 0 1 2.63 2.38z"/><path d="m382.18 244v.29c0 1.47.84 2.3 2.53 2.3a3.35 3.35 0 0 0 2.41-.92l.45.71a4.21 4.21 0 0 1 -2.94 1.09c-2.13 0-3.43-1.2-3.43-3.13a4.1 4.1 0 0 1 4.07-4.36 2.93 2.93 0 0 1 3.21 3.12 4.35 4.35 0 0 1 -.1.9zm.1-.74h5.25a2.53 2.53 0 0 0 0-.27 2.07 2.07 0 0 0 -2.31-2.17 3 3 0 0 0 -2.94 2.42z"/><path d="m398.28 240-5.37 8.32c-.92 1.4-1.6 1.83-2.67 1.83a2.41 2.41 0 0 1 -1.75-.66l.53-.73a1.74 1.74 0 0 0 1.31.54c.63 0 1.12-.3 1.69-1.19l.52-.79-1.83-7.32h1l1.53 6.27 4-6.27z"/><path d="m412.17 240-1.47 7.36h-.95l.24-1.16a3.77 3.77 0 0 1 -2.87 1.23 3 3 0 0 1 -3.21-3.12 4.14 4.14 0 0 1 4.16-4.37 2.76 2.76 0 0 1 2.8 1.6l.31-1.54zm-1.65 3.11a2.15 2.15 0 0 0 -2.42-2.3 3.24 3.24 0 0 0 -3.2 3.46 2.15 2.15 0 0 0 2.43 2.28 3.22 3.22 0 0 0 3.19-3.42z"/><path d="m419.7 240-.18 1h-.28c-1.57 0-2.62.9-3 2.73l-.75 3.74h-1l1.51-7.47h.95l-.25 1.34a3.3 3.3 0 0 1 3-1.34z"/><path d="m421.93 244a1.46 1.46 0 0 0 0 .29c0 1.47.84 2.3 2.54 2.3a3.35 3.35 0 0 0 2.41-.92l.44.71a4.19 4.19 0 0 1 -2.94 1.09c-2.13 0-3.43-1.2-3.43-3.13a4.1 4.1 0 0 1 4.05-4.34 2.94 2.94 0 0 1 3.21 3.12 5.16 5.16 0 0 1 -.1.9zm.09-.74h5.26a2.53 2.53 0 0 0 0-.27 2.08 2.08 0 0 0 -2.28-2.19 3 3 0 0 0 -3 2.44z"/><path d="m440.41 240-.18 1h-.28c-1.57 0-2.62.9-3 2.73l-.74 3.74h-1l1.45-7.36h.95l-.25 1.34a3.33 3.33 0 0 1 3.05-1.45z"/><path d="m450 240-1.47 7.36h-.95l.23-1.17a3.56 3.56 0 0 1 -2.84 1.24 2.31 2.31 0 0 1 -2.62-2.41 4.83 4.83 0 0 1 .08-.82l.85-4.2h1l-.84 4.2a4 4 0 0 0 -.07.66c0 1.06.62 1.68 1.88 1.68a2.88 2.88 0 0 0 3-2.58l.78-4z"/><path d="m460.05 242.35a5.18 5.18 0 0 1 -.08.85l-.84 4.18h-1l.84-4.2a4.13 4.13 0 0 0 .07-.67c0-1-.63-1.65-1.9-1.65a2.87 2.87 0 0 0 -3 2.57l-.78 3.95h-1l1.46-7.36h.95l-.24 1.17a3.64 3.64 0 0 1 2.89-1.23 2.31 2.31 0 0 1 2.63 2.39z"/><path d="m463.18 243.15h3.67l-.17.87h-3.68z"/><path d="m189.58 259.15a5 5 0 0 1 -.08.84l-.84 4.19h-1l.84-4.2a3.25 3.25 0 0 0 .07-.67c0-1.05-.63-1.65-1.9-1.65a2.87 2.87 0 0 0 -3 2.57l-.78 3.95h-1l1.46-7.36h1l-.24 1.17a3.66 3.66 0 0 1 2.89-1.23c1.62 0 2.58.9 2.58 2.39z"/><path d="m193.88 256.82h1l-1.46 7.36h-1zm.25-2.27a.75.75 0 0 1 .77-.76.65.65 0 0 1 .68.63.76.76 0 0 1 -.78.78.65.65 0 0 1 -.67-.65z"/><path d="m204.93 259.15a4.14 4.14 0 0 1 -.09.84l-.84 4.19h-1l.84-4.2a4.13 4.13 0 0 0 .07-.67c0-1.05-.63-1.65-1.91-1.65a2.87 2.87 0 0 0 -3 2.57l-.78 3.95h-1l1.45-7.36h.95l-.23 1.17a3.62 3.62 0 0 1 2.88-1.23c1.73 0 2.66.9 2.66 2.39z"/><path d="m216.08 256.82-1.29 6.47c-.51 2.6-1.89 3.68-4.28 3.68a4.66 4.66 0 0 1 -3.28-1.11l.59-.75a3.86 3.86 0 0 0 2.76 1 2.89 2.89 0 0 0 3.19-2.64l.17-.81a3.79 3.79 0 0 1 -2.94 1.24c-1.95 0-3.25-1.13-3.25-3a4.07 4.07 0 0 1 4.2-4.17 2.82 2.82 0 0 1 2.87 1.68l.31-1.62zm-1.68 2.95c0-1.34-.91-2.14-2.43-2.14a3.12 3.12 0 0 0 -3.21 3.25c0 1.34.89 2.14 2.44 2.14a3.13 3.13 0 0 0 3.2-3.25z"/><path d="m224.76 262a2.64 2.64 0 0 0 -.06.46c0 .63.35 1 1.07 1a1.88 1.88 0 0 0 1.13-.38l.24.76a2.73 2.73 0 0 1 -1.64.47 1.61 1.61 0 0 1 -1.79-1.68 2.26 2.26 0 0 1 .06-.57l.85-4.34h-1.3l.15-.84h1.32l.32-1.62h1l-.32 1.62h2.21l-.16.84h-2.25z"/><path d="m237.59 259.15a4.14 4.14 0 0 1 -.09.84l-.84 4.19h-1l.84-4.2a4.13 4.13 0 0 0 .07-.67c0-1.05-.63-1.65-1.91-1.65a2.86 2.86 0 0 0 -3 2.57l-.79 3.95h-1l2.13-10.39h1l-.82 4.13a3.58 3.58 0 0 1 2.81-1.16c1.63 0 2.6.9 2.6 2.39z"/><path d="m241.38 260.78a1.46 1.46 0 0 0 0 .29c0 1.47.84 2.3 2.54 2.3a3.35 3.35 0 0 0 2.41-.92l.45.71a4.23 4.23 0 0 1 -2.95 1.09c-2.12 0-3.43-1.2-3.43-3.13a4.11 4.11 0 0 1 4.08-4.36 2.93 2.93 0 0 1 3.21 3.12 5.16 5.16 0 0 1 -.1.9zm.1-.74h5.25a2.53 2.53 0 0 0 0-.27 2.08 2.08 0 0 0 -2.31-2.17 3 3 0 0 0 -2.94 2.4z"/><path d="m251.41 256.82h1l-1.41 7.36h-1zm.26-2.27a.75.75 0 0 1 .77-.76.65.65 0 0 1 .68.63.76.76 0 0 1 -.78.78.65.65 0 0 1 -.67-.65z"/><path d="m260 256.76-.19 1h-.27c-1.57 0-2.63.9-3 2.73l-.74 3.74h-1l1.46-7.36h.95l-.25 1.34a3.33 3.33 0 0 1 3.04-1.45z"/><path d="m266.09 261.13a4.17 4.17 0 0 1 4.28-4.37 3.06 3.06 0 0 1 2.9 1.47l-.84.49a2.26 2.26 0 0 0 -2.14-1.09 3.24 3.24 0 0 0 -3.21 3.46 2.15 2.15 0 0 0 2.45 2.28 2.86 2.86 0 0 0 2.33-1.06l.71.54a3.8 3.8 0 0 1 -3.08 1.4c-2.1 0-3.4-1.25-3.4-3.12z"/><path d="m277.05 253.79h1l-2.05 10.39h-1z"/><path d="m288 256.82-1.47 7.36h-1l.24-1.16a3.77 3.77 0 0 1 -2.87 1.23 3 3 0 0 1 -3.21-3.12 4.15 4.15 0 0 1 4.16-4.37 2.76 2.76 0 0 1 2.8 1.6l.31-1.54zm-1.66 3.11a2.15 2.15 0 0 0 -2.42-2.3 3.23 3.23 0 0 0 -3.19 3.46 2.14 2.14 0 0 0 2.42 2.28 3.22 3.22 0 0 0 3.18-3.44z"/><path d="m289.55 263.36.48-.79a4 4 0 0 0 2.55.82c1.41 0 2.18-.5 2.18-1.32 0-1.67-4.17-.52-4.17-3 0-1.4 1.26-2.3 3.19-2.3a4.47 4.47 0 0 1 2.49.69l-.42.79a3.7 3.7 0 0 0 -2.15-.63c-1.36 0-2.13.55-2.13 1.35 0 1.71 4.17.54 4.17 3 0 1.45-1.3 2.29-3.26 2.29a4.65 4.65 0 0 1 -2.93-.9z"/><path d="m297.45 263.36.47-.79a4 4 0 0 0 2.55.82c1.42 0 2.19-.5 2.19-1.32 0-1.67-4.18-.52-4.18-3 0-1.4 1.26-2.3 3.2-2.3a4.49 4.49 0 0 1 2.49.69l-.42.79a3.73 3.73 0 0 0 -2.16-.63c-1.36 0-2.13.55-2.13 1.35 0 1.71 4.18.54 4.18 3 0 1.45-1.31 2.29-3.27 2.29a4.64 4.64 0 0 1 -2.92-.9z"/><path d="m307.05 260.78v.29c0 1.47.84 2.3 2.53 2.3a3.35 3.35 0 0 0 2.41-.92l.45.71a4.21 4.21 0 0 1 -2.94 1.09c-2.13 0-3.43-1.2-3.43-3.13a4.1 4.1 0 0 1 4.07-4.36 2.93 2.93 0 0 1 3.21 3.12 4.35 4.35 0 0 1 -.1.9zm.1-.74h5.25a2.53 2.53 0 0 0 0-.27 2.07 2.07 0 0 0 -2.31-2.17 3 3 0 0 0 -2.94 2.4z"/><path d="m314.85 263.36.47-.79a4 4 0 0 0 2.55.82c1.42 0 2.19-.5 2.19-1.32 0-1.67-4.18-.52-4.18-3 0-1.4 1.26-2.3 3.2-2.3a4.47 4.47 0 0 1 2.49.69l-.42.79a3.71 3.71 0 0 0 -2.16-.63c-1.36 0-2.13.55-2.13 1.35 0 1.71 4.18.54 4.18 3 0 1.45-1.3 2.29-3.27 2.29a4.64 4.64 0 0 1 -2.92-.9z"/><path d="m327.46 263.36.48-.79a4 4 0 0 0 2.55.82c1.41 0 2.18-.5 2.18-1.32 0-1.67-4.17-.52-4.17-3 0-1.4 1.26-2.3 3.19-2.3a4.47 4.47 0 0 1 2.49.69l-.42.79a3.7 3.7 0 0 0 -2.15-.63c-1.36 0-2.13.55-2.13 1.35 0 1.71 4.17.54 4.17 3 0 1.45-1.3 2.29-3.26 2.29a4.67 4.67 0 0 1 -2.93-.9z"/><path d="m343.83 259.15a5 5 0 0 1 -.08.84l-.84 4.19h-1l.84-4.2a4.13 4.13 0 0 0 .07-.67c0-1.05-.63-1.65-1.9-1.65a2.87 2.87 0 0 0 -3 2.57l-.78 3.95h-1l2.07-10.39h1l-.83 4.13a3.58 3.58 0 0 1 2.82-1.16c1.67 0 2.63.9 2.63 2.39z"/><path d="m346.63 261.13a4.18 4.18 0 0 1 4.26-4.37 3 3 0 0 1 3.34 3.11 4.18 4.18 0 0 1 -4.26 4.38 3 3 0 0 1 -3.34-3.12zm6.61-1.2a2.15 2.15 0 0 0 -2.42-2.3 3.23 3.23 0 0 0 -3.2 3.46 2.14 2.14 0 0 0 2.42 2.28 3.22 3.22 0 0 0 3.2-3.44z"/><path d="m368.66 256.82-4.16 7.36h-1l-1.23-6-3.45 6h-1l-1.44-7.36h.91l1.19 6.24 3.55-6.24h.97l1.24 6.24 3.5-6.24z"/><path d="m368.8 263.36.48-.79a4 4 0 0 0 2.55.82c1.41 0 2.18-.5 2.18-1.32 0-1.67-4.17-.52-4.17-3 0-1.4 1.26-2.3 3.19-2.3a4.5 4.5 0 0 1 2.5.69l-.42.79a3.73 3.73 0 0 0 -2.16-.63c-1.36 0-2.13.55-2.13 1.35 0 1.71 4.17.54 4.17 3 0 1.45-1.3 2.29-3.26 2.29a4.69 4.69 0 0 1 -2.93-.9z"/><path d="m383.8 262a2.64 2.64 0 0 0 -.06.46c0 .63.35 1 1.07 1a1.9 1.9 0 0 0 1.13-.38l.24.76a2.73 2.73 0 0 1 -1.64.47 1.6 1.6 0 0 1 -1.79-1.68 2.81 2.81 0 0 1 .05-.57l.86-4.34h-1.31l.16-.84h1.32l.32-1.62h1l-.32 1.62h2.24l-.17.84h-2.24z"/><path d="m396.62 259.15a4.11 4.11 0 0 1 -.08.84l-.84 4.19h-1l.84-4.2a4.13 4.13 0 0 0 .07-.67c0-1.05-.63-1.65-1.91-1.65a2.87 2.87 0 0 0 -3 2.57l-.78 3.95h-1l2.08-10.39h1l-.82 4.13a3.58 3.58 0 0 1 2.81-1.16c1.67 0 2.63.9 2.63 2.39z"/><path d="m400.41 260.78v.29c0 1.47.84 2.3 2.54 2.3a3.35 3.35 0 0 0 2.41-.92l.44.71a4.19 4.19 0 0 1 -2.94 1.09c-2.13 0-3.43-1.2-3.43-3.13a4.1 4.1 0 0 1 4.08-4.36 2.93 2.93 0 0 1 3.2 3.12 5.18 5.18 0 0 1 -.09.9zm.1-.74h5.26a2.53 2.53 0 0 0 0-.27 2.08 2.08 0 0 0 -2.31-2.17 3 3 0 0 0 -2.95 2.4z"/><path d="m410.45 256.82h1l-1.45 7.36h-1zm.26-2.27a.75.75 0 0 1 .77-.76.65.65 0 0 1 .68.63.76.76 0 0 1 -.78.78.65.65 0 0 1 -.67-.65z"/><path d="m419 256.76-.19 1h-.28c-1.57 0-2.62.9-3 2.73l-.74 3.74h-1l1.46-7.36h1l-.25 1.34a3.32 3.32 0 0 1 3-1.45z"/><path d="m246 276.67a4.15 4.15 0 0 1 -4.17 4.38 2.75 2.75 0 0 1 -2.8-1.61l-.84 4.26h-1l2-10.08h1l-.24 1.17a3.74 3.74 0 0 1 2.87-1.23 3 3 0 0 1 3.18 3.11zm-1 .06a2.15 2.15 0 0 0 -2.42-2.3 3.21 3.21 0 0 0 -3.18 3.46 2.14 2.14 0 0 0 2.42 2.28 3.21 3.21 0 0 0 3.12-3.44z"/><path d="m253.41 273.56-.18 1h-.28c-1.57 0-2.62.9-3 2.73l-.75 3.74h-1l1.46-7.36h.95l-.25 1.34a3.3 3.3 0 0 1 3.05-1.45z"/><path d="m254.64 277.93a4.18 4.18 0 0 1 4.26-4.37 3 3 0 0 1 3.35 3.11 4.18 4.18 0 0 1 -4.26 4.38 3 3 0 0 1 -3.35-3.12zm6.61-1.2a2.15 2.15 0 0 0 -2.42-2.3 3.23 3.23 0 0 0 -3.19 3.46 2.14 2.14 0 0 0 2.42 2.28 3.22 3.22 0 0 0 3.19-3.44z"/><path d="m267.31 272.8-.17.82h2.26l-.17.84h-2.23l-1.3 6.54h-1l1.3-6.52h-1.32l.16-.84h1.33l.18-.93a2.41 2.41 0 0 1 2.52-2.17 2.26 2.26 0 0 1 1.49.48l-.44.72a1.59 1.59 0 0 0 -1.05-.36c-.87-.02-1.35.43-1.56 1.42z"/><path d="m271.13 277.58v.29c0 1.48.84 2.3 2.54 2.3a3.31 3.31 0 0 0 2.4-.92l.45.71a4.19 4.19 0 0 1 -2.94 1.09c-2.13 0-3.43-1.2-3.43-3.13a4.1 4.1 0 0 1 4.07-4.36 2.93 2.93 0 0 1 3.21 3.12 5.18 5.18 0 0 1 -.09.9zm.1-.74h5.25a1.27 1.27 0 0 0 0-.27 2.08 2.08 0 0 0 -2.31-2.17 3 3 0 0 0 -2.94 2.44z"/><path d="m278.93 280.16.48-.79a4 4 0 0 0 2.55.82c1.41 0 2.18-.49 2.18-1.32 0-1.67-4.17-.52-4.17-3 0-1.4 1.26-2.3 3.19-2.3a4.47 4.47 0 0 1 2.49.69l-.42.79a3.7 3.7 0 0 0 -2.15-.63c-1.36 0-2.13.55-2.13 1.35 0 1.71 4.17.55 4.17 3 0 1.45-1.3 2.29-3.26 2.29a4.65 4.65 0 0 1 -2.93-.9z"/><path d="m286.83 280.16.47-.79a4 4 0 0 0 2.55.82c1.42 0 2.19-.49 2.19-1.32 0-1.67-4.18-.52-4.18-3 0-1.4 1.26-2.3 3.2-2.3a4.47 4.47 0 0 1 2.49.69l-.42.79a3.71 3.71 0 0 0 -2.16-.63c-1.36 0-2.13.55-2.13 1.35 0 1.71 4.18.55 4.18 3 0 1.45-1.31 2.29-3.27 2.29a4.64 4.64 0 0 1 -2.92-.9z"/><path d="m297 273.62h1l-1.5 7.38h-1zm.26-2.27a.75.75 0 0 1 .77-.76.65.65 0 0 1 .68.63.76.76 0 0 1 -.78.78.65.65 0 0 1 -.71-.65z"/><path d="m300.25 277.93a4.18 4.18 0 0 1 4.26-4.37 3 3 0 0 1 3.35 3.11 4.18 4.18 0 0 1 -4.26 4.38 3 3 0 0 1 -3.35-3.12zm6.61-1.2a2.15 2.15 0 0 0 -2.42-2.3 3.24 3.24 0 0 0 -3.19 3.46 2.14 2.14 0 0 0 2.42 2.28 3.22 3.22 0 0 0 3.19-3.44z"/><path d="m317.84 276a5.18 5.18 0 0 1 -.08.85l-.84 4.18h-1l.84-4.2a4.13 4.13 0 0 0 .07-.67c0-1.05-.63-1.65-1.9-1.65a2.87 2.87 0 0 0 -3 2.57l-.78 4h-1l1.46-7.36h.95l-.24 1.17a3.64 3.64 0 0 1 2.89-1.23 2.31 2.31 0 0 1 2.63 2.34z"/><path d="m328.9 273.62-1.47 7.38h-.95l.24-1.16a3.79 3.79 0 0 1 -2.88 1.23 3 3 0 0 1 -3.2-3.12 4.14 4.14 0 0 1 4.16-4.37 2.76 2.76 0 0 1 2.8 1.6l.31-1.54zm-1.65 3.11a2.15 2.15 0 0 0 -2.42-2.3 3.24 3.24 0 0 0 -3.2 3.46 2.14 2.14 0 0 0 2.42 2.28 3.22 3.22 0 0 0 3.2-3.44z"/><path d="m333.32 270.59h1l-2.08 10.41h-1z"/><path d="m337.52 273.62h1l-1.46 7.38h-1zm.25-2.27a.76.76 0 0 1 .77-.76.66.66 0 0 1 .69.63.76.76 0 0 1 -.78.78.66.66 0 0 1 -.68-.65z"/><path d="m340.1 280.16.47-.79a4 4 0 0 0 2.55.82c1.42 0 2.19-.49 2.19-1.32 0-1.67-4.18-.52-4.18-3 0-1.4 1.26-2.3 3.2-2.3a4.49 4.49 0 0 1 2.49.69l-.42.79a3.71 3.71 0 0 0 -2.16-.63c-1.36 0-2.13.55-2.13 1.35 0 1.71 4.18.55 4.18 3 0 1.45-1.31 2.29-3.27 2.29a4.64 4.64 0 0 1 -2.92-.9z"/><path d="m361.86 275.93a4.74 4.74 0 0 1 -.1.87l-.84 4.18h-1l.84-4.2a3.41 3.41 0 0 0 .07-.68c0-1-.61-1.64-1.82-1.64a2.74 2.74 0 0 0 -2.86 2.46l-.81 4.06h-1l.84-4.2a4.13 4.13 0 0 0 .07-.67c0-1.05-.59-1.65-1.82-1.65a2.83 2.83 0 0 0 -2.89 2.57l-.78 4h-1l1.45-7.36h1l-.24 1.17a3.43 3.43 0 0 1 2.78-1.23 2.29 2.29 0 0 1 2.41 1.47 3.74 3.74 0 0 1 3.11-1.47c1.65-.05 2.59.83 2.59 2.32z"/><path d="m203.15 339.07c0 2.52-1.75 3.94-4.55 3.94h-2.77l-.63 3.09h-1l2-9.8h3.52c2.14 0 3.43 1.02 3.43 2.77zm-1 .1c0-1.29-.92-2-2.55-2h-2.6l-1 4.91h2.62c2.22.02 3.5-.98 3.5-2.91z"/><path d="m213.08 338.74-1.47 7.36h-1l.24-1.16a3.77 3.77 0 0 1 -2.87 1.23 3 3 0 0 1 -3.21-3.12 4.15 4.15 0 0 1 4.16-4.37 2.76 2.76 0 0 1 2.8 1.6l.31-1.54zm-1.66 3.1a2.15 2.15 0 0 0 -2.42-2.29 3.23 3.23 0 0 0 -3.19 3.46 2.14 2.14 0 0 0 2.42 2.28 3.22 3.22 0 0 0 3.19-3.45z"/><path d="m220.61 338.68-.19 1h-.27c-1.57 0-2.62.9-3 2.73l-.74 3.74h-1l1.46-7.36h1l-.25 1.34a3.33 3.33 0 0 1 2.99-1.45z"/><path d="m222.83 342.7v.29c0 1.47.84 2.3 2.53 2.3a3.34 3.34 0 0 0 2.41-.92l.45.71a4.21 4.21 0 0 1 -2.94 1.09c-2.13 0-3.43-1.2-3.43-3.13a4.1 4.1 0 0 1 4.07-4.36 2.93 2.93 0 0 1 3.21 3.12 4.35 4.35 0 0 1 -.1.9zm.1-.74h5.25a1.27 1.27 0 0 0 0-.27 2.08 2.08 0 0 0 -2.32-2.17 3 3 0 0 0 -2.93 2.48z"/><path d="m239.1 341.07a4.11 4.11 0 0 1 -.08.84l-.84 4.19h-1l.84-4.2a3.25 3.25 0 0 0 .07-.67c0-1.05-.63-1.65-1.9-1.65a2.87 2.87 0 0 0 -3 2.57l-.78 4h-1l1.46-7.36h.95l-.24 1.17a3.66 3.66 0 0 1 2.89-1.23c1.67-.05 2.63.85 2.63 2.34z"/><path d="m243.54 343.88a2.64 2.64 0 0 0 -.06.46c0 .63.35 1 1.07 1a1.9 1.9 0 0 0 1.13-.38l.24.76a2.73 2.73 0 0 1 -1.64.47 1.6 1.6 0 0 1 -1.79-1.68 2.81 2.81 0 0 1 0-.57l.86-4.34h-1.31l.16-.84h1.32l.32-1.62h1l-.32 1.62h2.24l-.17.84h-2.24z"/><path d="m247.89 345.28.48-.79a4 4 0 0 0 2.54.81c1.42 0 2.19-.49 2.19-1.31 0-1.67-4.17-.52-4.17-3 0-1.4 1.26-2.3 3.19-2.3a4.47 4.47 0 0 1 2.49.69l-.42.79a3.7 3.7 0 0 0 -2.15-.63c-1.36 0-2.13.55-2.13 1.35 0 1.71 4.17.54 4.17 3 0 1.45-1.3 2.29-3.26 2.29a4.71 4.71 0 0 1 -2.93-.9z"/><path d="m261.22 343.05a4.18 4.18 0 0 1 4.26-4.37 3 3 0 0 1 3.34 3.11 4.18 4.18 0 0 1 -4.25 4.38 3 3 0 0 1 -3.35-3.12zm6.61-1.21a2.15 2.15 0 0 0 -2.42-2.29 3.23 3.23 0 0 0 -3.2 3.46 2.15 2.15 0 0 0 2.43 2.28 3.22 3.22 0 0 0 3.19-3.45z"/><path d="m273.89 337.92-.17.82h2.28l-.17.84h-2.23l-1.3 6.52h-1l1.31-6.52h-1.32l.15-.84h1.33l.19-.93a2.41 2.41 0 0 1 2.52-2.17 2.21 2.21 0 0 1 1.48.48l-.43.72a1.59 1.59 0 0 0 -1.05-.36c-.89 0-1.38.45-1.59 1.44z"/><path d="m283.8 336.3h3.73c3 0 4.62 1.58 4.62 4 0 3.43-2.41 5.81-6.09 5.81h-4.22zm2.28 8.91a4.69 4.69 0 0 0 5-4.88c0-1.89-1.22-3.14-3.7-3.14h-2.77l-1.6 8z"/><path d="m295.17 342.7a1.46 1.46 0 0 0 0 .29c0 1.47.85 2.3 2.54 2.3a3.35 3.35 0 0 0 2.41-.92l.45.71a4.22 4.22 0 0 1 -2.94 1.09c-2.13 0-3.44-1.2-3.44-3.13a4.11 4.11 0 0 1 4.08-4.36 2.93 2.93 0 0 1 3.21 3.12 4.35 4.35 0 0 1 -.1.9zm.1-.74h5.25a2.53 2.53 0 0 0 0-.27 2.08 2.08 0 0 0 -2.31-2.17 3 3 0 0 0 -2.94 2.48z"/><path d="m304.67 342.7v.29c0 1.47.84 2.3 2.54 2.3a3.31 3.31 0 0 0 2.4-.92l.45.71a4.19 4.19 0 0 1 -2.94 1.09c-2.13 0-3.43-1.2-3.43-3.13a4.1 4.1 0 0 1 4.08-4.36 2.93 2.93 0 0 1 3.2 3.12 5.18 5.18 0 0 1 -.09.9zm.1-.74h5.23a2.53 2.53 0 0 0 0-.27 2.08 2.08 0 0 0 -2.31-2.17 3 3 0 0 0 -2.92 2.48z"/><path d="m321.52 341.79a4.15 4.15 0 0 1 -4.17 4.38 2.76 2.76 0 0 1 -2.81-1.61l-.84 4.26h-1l2-10.08h1l-.23 1.17a3.74 3.74 0 0 1 2.87-1.23 3 3 0 0 1 3.18 3.11zm-1 0a2.15 2.15 0 0 0 -2.42-2.29 3.21 3.21 0 0 0 -3.18 3.46 2.14 2.14 0 0 0 2.42 2.28 3.21 3.21 0 0 0 3.17-3.4z"/><path d="m323 345.28.48-.79a4 4 0 0 0 2.55.81c1.41 0 2.18-.49 2.18-1.31 0-1.67-4.17-.52-4.17-3 0-1.4 1.26-2.3 3.19-2.3a4.5 4.5 0 0 1 2.5.69l-.42.79a3.75 3.75 0 0 0 -2.16-.63c-1.36 0-2.13.55-2.13 1.35 0 1.71 4.17.54 4.17 3 0 1.45-1.3 2.29-3.26 2.29a4.75 4.75 0 0 1 -2.93-.9z"/><path d="m339.89 338.74-1.47 7.36h-1l.24-1.16a3.77 3.77 0 0 1 -2.87 1.23 3 3 0 0 1 -3.21-3.12 4.15 4.15 0 0 1 4.16-4.37 2.76 2.76 0 0 1 2.8 1.6l.31-1.54zm-1.65 3.1a2.16 2.16 0 0 0 -2.43-2.29 3.23 3.23 0 0 0 -3.19 3.46 2.14 2.14 0 0 0 2.42 2.28 3.22 3.22 0 0 0 3.2-3.45z"/><path d="m359.31 336.3-2 9.8h-1l1.56-7.77-5.07 6.53h-.49l-2.62-6.66-1.57 7.9h-1l2-9.8h.88l2.83 7.28 5.61-7.28z"/><path d="m369.57 338.74-1.47 7.36h-1l.24-1.16a3.77 3.77 0 0 1 -2.87 1.23 3 3 0 0 1 -3.21-3.12 4.15 4.15 0 0 1 4.16-4.37 2.76 2.76 0 0 1 2.8 1.6l.31-1.54zm-1.66 3.1a2.15 2.15 0 0 0 -2.42-2.29 3.23 3.23 0 0 0 -3.19 3.45 2.14 2.14 0 0 0 2.42 2.28 3.22 3.22 0 0 0 3.19-3.44z"/><path d="m376.17 341.78 2.65 4.32h-1.16l-2.27-3.72-2.06 1.62-.42 2.13h-1l2.09-10.42h1l-1.4 7 5.07-4h1.42z"/><path d="m385.48 341.78 2.65 4.32h-1.13l-2.27-3.72-2.09 1.62-.42 2.13h-1l2.08-10.39h1l-1.4 7 5.07-4h1.42z"/><path d="m398.44 338.74-1.44 7.36h-1l.24-1.16a3.77 3.77 0 0 1 -2.87 1.23 3 3 0 0 1 -3.21-3.12 4.15 4.15 0 0 1 4.16-4.37 2.76 2.76 0 0 1 2.8 1.6l.31-1.54zm-1.66 3.1a2.15 2.15 0 0 0 -2.42-2.29 3.23 3.23 0 0 0 -3.2 3.46 2.15 2.15 0 0 0 2.43 2.28 3.22 3.22 0 0 0 3.19-3.45z"/><path d="m406 338.68-.19 1h-.28c-1.57 0-2.62.9-3 2.73l-.74 3.74h-1l1.46-7.36h.95l-.25 1.34a3.32 3.32 0 0 1 3.05-1.45z"/></g></svg>