<svg viewBox="0 0 600 466" xmlns="http://www.w3.org/2000/svg"><path d="m0 0h600v466h-600z" fill="#5bc0c7"/><path d="m469.34 93.39c0-7.4 5.23-12.24 12.24-12.24s12.42 4.97 12.42 12.24c0 3.31-.51 5.74-3.45 12.75l-7.39 18.35h-12.67l5.61-20.27c-4.21-1.78-6.76-5.61-6.76-10.83zm-30.08 0c0-7.4 5.23-12.24 12.24-12.24s12.36 5 12.36 12.24c0 3.31-.51 5.74-3.44 12.75l-7.42 18.35h-12.59l5.6-20.27c-4.2-1.78-6.75-5.61-6.75-10.83z" fill="#fff"/><path d="m441.74 76.84a165.26 165.26 0 0 0 -97.84-32h-254.12v161.49c0 1.62-.08 3.25-.08 4.89s0 3.27.08 4.9v161.51h85.41l-22.3 43.55 76.11-43.55h281.3v-166.41-4.95h-.08a164.94 164.94 0 0 0 -20.54-75" fill="none" stroke="#fff" stroke-linecap="round" stroke-linejoin="round" stroke-width="2.83"/><g fill="#fff"><path d="m128.24 136.78h1l-2 9.8h-1z"/><path d="m148.4 139.22-4.16 7.36h-1l-1.24-6-3.44 6h-.95l-1.45-7.36h.91l1.19 6.24 3.56-6.24h.84l1.23 6.24 3.51-6.24z"/><path d="m157.4 139.22-1.47 7.36h-1l.24-1.16a3.77 3.77 0 0 1 -2.87 1.23 3 3 0 0 1 -3.21-3.12 4.14 4.14 0 0 1 4.16-4.37 2.76 2.76 0 0 1 2.8 1.6l.31-1.54zm-1.65 3.11a2.15 2.15 0 0 0 -2.42-2.3 3.23 3.23 0 0 0 -3.2 3.46 2.15 2.15 0 0 0 2.43 2.28 3.22 3.22 0 0 0 3.19-3.44z"/><path d="m167.44 141.55a5 5 0 0 1 -.08.84l-.84 4.19h-1l.84-4.2a4.13 4.13 0 0 0 .07-.67c0-1.05-.63-1.65-1.9-1.65a2.87 2.87 0 0 0 -3 2.57l-.78 4h-1l1.46-7.36h.95l-.24 1.17a3.64 3.64 0 0 1 2.89-1.23 2.31 2.31 0 0 1 2.63 2.34z"/><path d="m171.87 144.36a4 4 0 0 0 -.05.46c0 .63.35 1 1.06 1a1.9 1.9 0 0 0 1.14-.38l.24.76a2.75 2.75 0 0 1 -1.64.47 1.61 1.61 0 0 1 -1.8-1.68 2.83 2.83 0 0 1 .06-.57l.86-4.34h-1.31l.16-.84h1.31l.33-1.62h1l-.32 1.62h2.24l-.17.84h-2.24z"/><path d="m177.67 143.18v.29c0 1.47.84 2.3 2.53 2.3a3.35 3.35 0 0 0 2.41-.92l.45.71a4.21 4.21 0 0 1 -2.94 1.09c-2.13 0-3.43-1.2-3.43-3.13a4.1 4.1 0 0 1 4.07-4.36 2.93 2.93 0 0 1 3.21 3.12 4.35 4.35 0 0 1 -.1.9zm.1-.74h5.23a1.27 1.27 0 0 0 0-.27 2.08 2.08 0 0 0 -2.32-2.17 3 3 0 0 0 -2.91 2.44z"/><path d="m195.05 136.19-2.05 10.39h-1l.24-1.16a3.77 3.77 0 0 1 -2.87 1.23 3 3 0 0 1 -3.21-3.12 4.15 4.15 0 0 1 4.16-4.37 2.77 2.77 0 0 1 2.8 1.6l.91-4.57zm-2.26 6.14a2.15 2.15 0 0 0 -2.42-2.3 3.23 3.23 0 0 0 -3.19 3.46 2.14 2.14 0 0 0 2.42 2.28 3.22 3.22 0 0 0 3.19-3.44z"/><path d="m203.11 144.36a2.64 2.64 0 0 0 -.06.46c0 .63.35 1 1.07 1a1.9 1.9 0 0 0 1.13-.38l.24.76a2.73 2.73 0 0 1 -1.64.47 1.6 1.6 0 0 1 -1.79-1.68 2.81 2.81 0 0 1 .05-.57l.86-4.34h-1.3l.15-.84h1.32l.32-1.62h1l-.32 1.62h2.24l-.17.84h-2.21z"/><path d="m207.91 143.53a4.18 4.18 0 0 1 4.26-4.37 3 3 0 0 1 3.35 3.11 4.18 4.18 0 0 1 -4.26 4.38 3 3 0 0 1 -3.35-3.12zm6.61-1.2a2.15 2.15 0 0 0 -2.42-2.3 3.23 3.23 0 0 0 -3.2 3.46 2.15 2.15 0 0 0 2.43 2.28 3.22 3.22 0 0 0 3.19-3.44z"/><path d="m224.12 144.36a2.58 2.58 0 0 0 -.05.46c0 .63.35 1 1.06 1a1.9 1.9 0 0 0 1.14-.38l.23.76a2.73 2.73 0 0 1 -1.64.47 1.61 1.61 0 0 1 -1.79-1.68 2.83 2.83 0 0 1 .06-.57l.85-4.34h-1.3l.15-.84h1.32l.32-1.62h1l-.32 1.62h2.24l-.17.84h-2.22z"/><path d="m237.19 139.22-1.47 7.36h-1l.24-1.16a3.77 3.77 0 0 1 -2.87 1.23 3 3 0 0 1 -3.21-3.12 4.15 4.15 0 0 1 4.16-4.37 2.76 2.76 0 0 1 2.8 1.6l.31-1.54zm-1.65 3.11a2.16 2.16 0 0 0 -2.43-2.3 3.23 3.23 0 0 0 -3.19 3.46 2.14 2.14 0 0 0 2.42 2.28 3.22 3.22 0 0 0 3.2-3.44z"/><path d="m243.79 142.26 2.65 4.32h-1.16l-2.28-3.72-2 1.59-.42 2.13h-1l2.07-10.39h1l-1.4 7 5.07-4h1.42z"/><path d="m249.48 143.18a1.46 1.46 0 0 0 0 .29c0 1.47.84 2.3 2.54 2.3a3.35 3.35 0 0 0 2.41-.92l.44.71a4.19 4.19 0 0 1 -2.94 1.09c-2.13 0-3.43-1.2-3.43-3.13a4.1 4.1 0 0 1 4.08-4.36 2.94 2.94 0 0 1 3.21 3.12 5.16 5.16 0 0 1 -.1.9zm.09-.74h5.26a2.53 2.53 0 0 0 0-.27 2.08 2.08 0 0 0 -2.31-2.17 3 3 0 0 0 -2.95 2.44z"/><path d="m271 139.22-1.47 7.36h-.95l.23-1.16a3.77 3.77 0 0 1 -2.87 1.23 3 3 0 0 1 -3.2-3.12 4.14 4.14 0 0 1 4.16-4.37 2.76 2.76 0 0 1 2.8 1.6l.31-1.54zm-1.65 3.11a2.16 2.16 0 0 0 -2.43-2.3 3.23 3.23 0 0 0 -3.19 3.46 2.14 2.14 0 0 0 2.42 2.28 3.22 3.22 0 0 0 3.17-3.44z"/><path d="m291.12 141.53a4.55 4.55 0 0 1 -.1.86l-.84 4.19h-1l.85-4.2a3.51 3.51 0 0 0 .07-.69c0-1-.61-1.63-1.83-1.63a2.74 2.74 0 0 0 -2.85 2.46l-.82 4.06h-1l.84-4.2a4.13 4.13 0 0 0 .07-.67c0-1.05-.59-1.65-1.82-1.65a2.82 2.82 0 0 0 -2.89 2.57l-.78 4h-1l1.45-7.36h.95l-.23 1.17a3.43 3.43 0 0 1 2.78-1.23 2.29 2.29 0 0 1 2.41 1.47 3.74 3.74 0 0 1 3.11-1.47c1.69-.05 2.63.79 2.63 2.32z"/><path d="m293.9 143.53a4.18 4.18 0 0 1 4.26-4.37 3 3 0 0 1 3.34 3.11 4.18 4.18 0 0 1 -4.26 4.38 3 3 0 0 1 -3.34-3.12zm6.61-1.2a2.16 2.16 0 0 0 -2.43-2.3 3.23 3.23 0 0 0 -3.19 3.46 2.14 2.14 0 0 0 2.42 2.28 3.22 3.22 0 0 0 3.2-3.44z"/><path d="m316.88 141.53a4.55 4.55 0 0 1 -.1.86l-.84 4.19h-1l.85-4.2a3.51 3.51 0 0 0 .07-.69c0-1-.61-1.63-1.83-1.63a2.74 2.74 0 0 0 -2.85 2.46l-.82 4.06h-1l.84-4.2a4.13 4.13 0 0 0 .07-.67c0-1.05-.59-1.65-1.82-1.65a2.82 2.82 0 0 0 -2.89 2.57l-.78 4h-1l1.46-7.36h.95l-.23 1.17a3.43 3.43 0 0 1 2.78-1.23 2.29 2.29 0 0 1 2.41 1.47 3.74 3.74 0 0 1 3.11-1.47c1.68-.05 2.62.79 2.62 2.32z"/><path d="m320.65 143.18v.29c0 1.47.84 2.3 2.53 2.3a3.34 3.34 0 0 0 2.41-.92l.45.71a4.21 4.21 0 0 1 -2.94 1.09c-2.13 0-3.43-1.2-3.43-3.13a4.1 4.1 0 0 1 4.07-4.36 2.93 2.93 0 0 1 3.21 3.12 4.35 4.35 0 0 1 -.1.9zm.1-.74h5.25a1.27 1.27 0 0 0 0-.27 2.08 2.08 0 0 0 -2.31-2.17 3 3 0 0 0 -2.94 2.44z"/><path d="m336.92 141.55a5 5 0 0 1 -.08.84l-.84 4.19h-1l.84-4.2a3.25 3.25 0 0 0 .07-.67c0-1.05-.63-1.65-1.9-1.65a2.87 2.87 0 0 0 -3 2.57l-.78 4h-1l1.46-7.36h.95l-.24 1.17a3.66 3.66 0 0 1 2.89-1.23c1.71-.05 2.63.85 2.63 2.34z"/><path d="m341.36 144.36a2.64 2.64 0 0 0 -.06.46c0 .63.35 1 1.07 1a1.9 1.9 0 0 0 1.13-.38l.24.76a2.73 2.73 0 0 1 -1.64.47 1.6 1.6 0 0 1 -1.79-1.68 2.81 2.81 0 0 1 .05-.57l.86-4.34h-1.31l.16-.84h1.31l.33-1.62h1l-.32 1.62h2.24l-.17.84h-2.24z"/><path d="m352.81 144.36a2.64 2.64 0 0 0 -.06.46c0 .63.35 1 1.07 1a1.88 1.88 0 0 0 1.13-.38l.24.76a2.73 2.73 0 0 1 -1.64.47 1.6 1.6 0 0 1 -1.79-1.68 2.81 2.81 0 0 1 .05-.57l.86-4.34h-1.3l.15-.84h1.32l.32-1.62h1l-.32 1.62h2.24l-.17.84h-2.24z"/><path d="m357.61 143.53a4.18 4.18 0 0 1 4.26-4.37 3 3 0 0 1 3.35 3.11 4.18 4.18 0 0 1 -4.26 4.38 3 3 0 0 1 -3.35-3.12zm6.61-1.2a2.15 2.15 0 0 0 -2.42-2.3 3.23 3.23 0 0 0 -3.2 3.46 2.15 2.15 0 0 0 2.43 2.28 3.22 3.22 0 0 0 3.19-3.44z"/><path d="m373.82 144.36a2.58 2.58 0 0 0 -.05.46c0 .63.35 1 1.06 1a1.9 1.9 0 0 0 1.14-.38l.23.76a2.7 2.7 0 0 1 -1.63.47 1.61 1.61 0 0 1 -1.8-1.68 2.83 2.83 0 0 1 .06-.57l.85-4.34h-1.3l.15-.84h1.32l.32-1.62h1l-.32 1.62h2.24l-.17.84h-2.24z"/><path d="m386.65 141.55a5 5 0 0 1 -.08.84l-.84 4.19h-1l.84-4.2a4.13 4.13 0 0 0 .07-.67c0-1.05-.63-1.65-1.9-1.65a2.87 2.87 0 0 0 -3 2.57l-.79 4h-1l2.05-10.44h1l-.83 4.13a3.58 3.58 0 0 1 2.82-1.16 2.31 2.31 0 0 1 2.66 2.39z"/><path d="m397.71 139.22-1.47 7.36h-.95l.23-1.16a3.77 3.77 0 0 1 -2.87 1.23 3 3 0 0 1 -3.2-3.12 4.14 4.14 0 0 1 4.16-4.37 2.76 2.76 0 0 1 2.8 1.6l.31-1.54zm-1.65 3.11a2.16 2.16 0 0 0 -2.43-2.3 3.23 3.23 0 0 0 -3.19 3.46 2.14 2.14 0 0 0 2.42 2.28 3.22 3.22 0 0 0 3.2-3.44z"/><path d="m407.75 141.55a4.14 4.14 0 0 1 -.09.84l-.84 4.19h-1l.84-4.2a4.13 4.13 0 0 0 .07-.67c0-1.05-.63-1.65-1.91-1.65a2.86 2.86 0 0 0 -3 2.57l-.79 4h-1l1.45-7.36h1l-.24 1.17a3.62 3.62 0 0 1 2.88-1.23c1.66-.05 2.63.85 2.63 2.34z"/><path d="m414.84 142.26 2.65 4.32h-1.16l-2.27-3.72-2.06 1.59-.42 2.13h-1l2.08-10.39h1l-1.4 7 5.07-4h1.42z"/><path d="m432.81 139.22-1.47 7.36h-1l.24-1.16a3.77 3.77 0 0 1 -2.87 1.23 3 3 0 0 1 -3.21-3.12 4.15 4.15 0 0 1 4.16-4.37 2.76 2.76 0 0 1 2.8 1.6l.31-1.54zm-1.65 3.11a2.16 2.16 0 0 0 -2.43-2.3 3.23 3.23 0 0 0 -3.19 3.46 2.14 2.14 0 0 0 2.42 2.28 3.22 3.22 0 0 0 3.2-3.44z"/><path d="m437.23 136.19h1l-2.07 10.39h-1z"/><path d="m442 136.19h1l-2 10.39h-1z"/><path d="m451.1 144.36a2.58 2.58 0 0 0 -.05.46c0 .63.35 1 1.06 1a1.9 1.9 0 0 0 1.14-.38l.23.76a2.73 2.73 0 0 1 -1.64.47 1.61 1.61 0 0 1 -1.79-1.68 2.83 2.83 0 0 1 .06-.57l.85-4.34h-1.3l.15-.84h1.32l.32-1.62h1l-.33 1.62h2.25l-.17.84h-2.2z"/><path d="m463.93 141.55a4.14 4.14 0 0 1 -.09.84l-.84 4.19h-1l.84-4.2a4.13 4.13 0 0 0 .07-.67c0-1.05-.63-1.65-1.91-1.65a2.87 2.87 0 0 0 -3 2.57l-.79 4h-1l2.07-10.39h1l-.83 4.13a3.58 3.58 0 0 1 2.82-1.16 2.31 2.31 0 0 1 2.66 2.34z"/><path d="m467.72 143.18v.29c0 1.47.84 2.3 2.53 2.3a3.35 3.35 0 0 0 2.41-.92l.45.71a4.22 4.22 0 0 1 -2.94 1.09c-2.13 0-3.44-1.2-3.44-3.13a4.11 4.11 0 0 1 4.08-4.36 2.93 2.93 0 0 1 3.21 3.12 4.35 4.35 0 0 1 -.1.9zm.1-.74h5.25a2.53 2.53 0 0 0 0-.27 2.07 2.07 0 0 0 -2.31-2.17 3 3 0 0 0 -2.94 2.44z"/><path d="m129.5 161.16a4 4 0 0 0 -.05.46c0 .63.35 1 1.06 1a1.9 1.9 0 0 0 1.14-.38l.24.76a2.75 2.75 0 0 1 -1.64.47 1.61 1.61 0 0 1 -1.8-1.68 2.83 2.83 0 0 1 .06-.57l.85-4.34h-1.3l.16-.84h1.31l.32-1.62h1l-.32 1.62h2.24l-.17.84h-2.24z"/><path d="m135.3 160v.29c0 1.47.84 2.3 2.53 2.3a3.35 3.35 0 0 0 2.41-.92l.45.71a4.21 4.21 0 0 1 -2.94 1.09c-2.13 0-3.43-1.2-3.43-3.13a4.1 4.1 0 0 1 4.07-4.36 2.93 2.93 0 0 1 3.21 3.12 4.35 4.35 0 0 1 -.1.9zm.1-.74h5.25a2.53 2.53 0 0 0 0-.27 2.07 2.07 0 0 0 -2.31-2.17 3 3 0 0 0 -2.94 2.42z"/><path d="m152.08 156-1.48 7.36h-.95l.24-1.16a3.77 3.77 0 0 1 -2.87 1.23 3 3 0 0 1 -3.21-3.12 4.15 4.15 0 0 1 4.19-4.31 2.76 2.76 0 0 1 2.8 1.6l.31-1.54zm-1.66 3.11a2.15 2.15 0 0 0 -2.42-2.3 3.23 3.23 0 0 0 -3.19 3.46 2.14 2.14 0 0 0 2.42 2.28 3.22 3.22 0 0 0 3.19-3.42z"/><path d="m154.35 160.33a4.18 4.18 0 0 1 4.29-4.37 3.08 3.08 0 0 1 2.9 1.47l-.84.49a2.27 2.27 0 0 0 -2.14-1.09 3.24 3.24 0 0 0 -3.21 3.46 2.15 2.15 0 0 0 2.45 2.28 2.84 2.84 0 0 0 2.32-1.06l.72.54a3.8 3.8 0 0 1 -3.08 1.4c-2.1 0-3.41-1.23-3.41-3.12z"/><path d="m170.93 158.35a4.27 4.27 0 0 1 -.08.85l-.84 4.18h-1l.84-4.2a3.25 3.25 0 0 0 .07-.67c0-1-.63-1.65-1.9-1.65a2.87 2.87 0 0 0 -3 2.57l-.78 3.95h-1l2.08-10.38h1l-.83 4.13a3.58 3.58 0 0 1 2.81-1.13c1.7 0 2.63.86 2.63 2.35z"/><path d="m174.72 160v.29c0 1.47.84 2.3 2.54 2.3a3.31 3.31 0 0 0 2.4-.92l.45.71a4.19 4.19 0 0 1 -2.94 1.09c-2.13 0-3.43-1.2-3.43-3.13a4.1 4.1 0 0 1 4.08-4.36 2.93 2.93 0 0 1 3.2 3.12 4.35 4.35 0 0 1 -.1.9zm.1-.74h5.25a1.27 1.27 0 0 0 0-.27 2.08 2.08 0 0 0 -2.31-2.17 3 3 0 0 0 -2.94 2.42z"/><path d="m188.49 156-.18 1h-.28c-1.57 0-2.62.9-3 2.73l-.74 3.74h-1l1.46-7.36h1l-.25 1.34a3.33 3.33 0 0 1 2.99-1.45z"/><path d="m189.13 162.56.47-.79a4.07 4.07 0 0 0 2.55.82c1.42 0 2.19-.49 2.19-1.32 0-1.67-4.18-.52-4.18-3 0-1.4 1.27-2.3 3.2-2.3a4.47 4.47 0 0 1 2.49.69l-.42.79a3.71 3.71 0 0 0 -2.16-.63c-1.35 0-2.12.55-2.12 1.35 0 1.71 4.17.54 4.17 3 0 1.45-1.3 2.29-3.26 2.29a4.65 4.65 0 0 1 -2.93-.9z"/><path d="m205.3 155.2-.17.82h2.26l-.17.84h-2.22l-1.3 6.52h-1l1.31-6.52h-1.32l.15-.84h1.33l.19-.93a2.41 2.41 0 0 1 2.52-2.17 2.21 2.21 0 0 1 1.48.48l-.43.72a1.59 1.59 0 0 0 -1-.36c-.93 0-1.42.45-1.63 1.44z"/><path d="m208.13 160.33a4.18 4.18 0 0 1 4.25-4.37 3 3 0 0 1 3.35 3.11 4.18 4.18 0 0 1 -4.26 4.38 3 3 0 0 1 -3.34-3.12zm6.61-1.2a2.16 2.16 0 0 0 -2.43-2.3 3.24 3.24 0 0 0 -3.19 3.46 2.14 2.14 0 0 0 2.42 2.28 3.22 3.22 0 0 0 3.2-3.44z"/><path d="m223.21 156-.18 1h-.28c-1.57 0-2.62.9-3 2.73l-.74 3.74h-1l1.46-7.36h1l-.25 1.34a3.33 3.33 0 0 1 2.99-1.45z"/><path d="m231 161.16a4 4 0 0 0 -.05.46c0 .63.35 1 1.06 1a1.9 1.9 0 0 0 1.14-.38l.23.76a2.7 2.7 0 0 1 -1.63.47 1.61 1.61 0 0 1 -1.8-1.68 2.83 2.83 0 0 1 .06-.57l.85-4.34h-1.3l.15-.84h1.29l.32-1.62h1l-.32 1.58h2.24l-.17.84h-2.24z"/><path d="m243.83 158.35a5.18 5.18 0 0 1 -.08.85l-.84 4.18h-1l.84-4.2a4.13 4.13 0 0 0 .07-.67c0-1-.63-1.65-1.9-1.65a2.87 2.87 0 0 0 -3 2.57l-.79 3.95h-1l2.08-10.38h1l-.83 4.13a3.58 3.58 0 0 1 2.82-1.13 2.31 2.31 0 0 1 2.63 2.35z"/><path d="m247.62 160v.29c0 1.47.84 2.3 2.53 2.3a3.35 3.35 0 0 0 2.41-.92l.45.71a4.21 4.21 0 0 1 -2.94 1.09c-2.13 0-3.43-1.2-3.43-3.13a4.1 4.1 0 0 1 4.06-4.34 2.93 2.93 0 0 1 3.21 3.12 4.35 4.35 0 0 1 -.1.9zm.1-.74h5.28a1.27 1.27 0 0 0 0-.27 2.08 2.08 0 0 0 -2.32-2.17 3 3 0 0 0 -2.96 2.42z"/><path d="m273.26 156-4.16 7.36h-1l-1.23-6-3.44 6h-1l-1.37-7.36h.94l1.19 6.24 3.56-6.24h.84l1.23 6.24 3.5-6.24z"/><path d="m282.26 156-1.47 7.36h-1l.24-1.16a3.81 3.81 0 0 1 -2.88 1.23 3 3 0 0 1 -3.2-3.12 4.14 4.14 0 0 1 4.16-4.37 2.76 2.76 0 0 1 2.8 1.6l.31-1.54zm-1.65 3.11a2.16 2.16 0 0 0 -2.43-2.3 3.24 3.24 0 0 0 -3.19 3.46 2.14 2.14 0 0 0 2.42 2.28 3.22 3.22 0 0 0 3.2-3.42z"/><path d="m292.27 156-5.38 8.32c-.91 1.4-1.6 1.83-2.66 1.83a2.38 2.38 0 0 1 -1.75-.66l.53-.73a1.7 1.7 0 0 0 1.3.54c.63 0 1.12-.3 1.7-1.19l.52-.79-1.84-7.32h1l1.53 6.27 4-6.27z"/><path d="m299.56 161.16a2.64 2.64 0 0 0 -.06.46c0 .63.35 1 1.07 1a1.85 1.85 0 0 0 1.13-.38l.24.76a2.73 2.73 0 0 1 -1.64.47 1.61 1.61 0 0 1 -1.79-1.68 2.26 2.26 0 0 1 .06-.57l.85-4.34h-1.3l.15-.84h1.32l.32-1.62h1l-.33 1.62h2.24l-.16.84h-2.25z"/><path d="m312.39 158.35a4.32 4.32 0 0 1 -.09.85l-.84 4.18h-1l.84-4.2a4.13 4.13 0 0 0 .07-.67c0-1-.63-1.65-1.91-1.65a2.87 2.87 0 0 0 -3 2.57l-.79 3.95h-1l2.1-10.38h1l-.82 4.13a3.58 3.58 0 0 1 2.81-1.16c1.66.03 2.63.89 2.63 2.38z"/><path d="m316.18 160a1.46 1.46 0 0 0 0 .29c0 1.47.84 2.3 2.54 2.3a3.35 3.35 0 0 0 2.41-.92l.45.71a4.23 4.23 0 0 1 -2.95 1.09c-2.12 0-3.43-1.2-3.43-3.13a4.11 4.11 0 0 1 4.08-4.36 2.93 2.93 0 0 1 3.21 3.12 5.16 5.16 0 0 1 -.1.9zm.1-.74h5.25a2.53 2.53 0 0 0 0-.27 2.08 2.08 0 0 0 -2.31-2.17 3 3 0 0 0 -2.94 2.42z"/><path d="m332.28 156-5.38 8.32c-.91 1.4-1.59 1.83-2.66 1.83a2.38 2.38 0 0 1 -1.75-.66l.53-.73a1.71 1.71 0 0 0 1.31.54c.63 0 1.12-.3 1.69-1.19l.52-.79-1.84-7.32h1l1.53 6.27 4-6.27z"/><path d="m338.9 160v.29c0 1.47.84 2.3 2.53 2.3a3.35 3.35 0 0 0 2.41-.92l.45.71a4.21 4.21 0 0 1 -2.94 1.09c-2.13 0-3.43-1.2-3.43-3.13a4.1 4.1 0 0 1 4.08-4.34 2.93 2.93 0 0 1 3.21 3.12 4.35 4.35 0 0 1 -.1.9zm.1-.74h5.25a2.53 2.53 0 0 0 0-.27 2.07 2.07 0 0 0 -2.25-2.19 3 3 0 0 0 -3 2.44z"/><path d="m350.9 159.64 2.17 3.74h-1.07l-1.75-3.06-2.95 3.06h-1.18l3.71-3.81-2-3.55h1l1.65 2.88 2.78-2.88h1.14z"/><path d="m364.06 159.07a4.15 4.15 0 0 1 -4.17 4.38 2.76 2.76 0 0 1 -2.81-1.61l-.83 4.26h-1l2-10.08h1l-.24 1.17a3.74 3.74 0 0 1 2.87-1.23 3 3 0 0 1 3.18 3.11zm-1 .06a2.15 2.15 0 0 0 -2.42-2.3 3.21 3.21 0 0 0 -3.18 3.46 2.14 2.14 0 0 0 2.42 2.28 3.21 3.21 0 0 0 3.17-3.44z"/><path d="m368.41 153h1l-2.08 10.39h-1z"/><path d="m379.35 156-1.47 7.36h-.95l.23-1.16a3.77 3.77 0 0 1 -2.87 1.23 3 3 0 0 1 -3.21-3.12 4.15 4.15 0 0 1 4.17-4.37 2.76 2.76 0 0 1 2.8 1.6l.3-1.54zm-1.65 3.11a2.16 2.16 0 0 0 -2.43-2.3 3.24 3.24 0 0 0 -3.19 3.46 2.14 2.14 0 0 0 2.42 2.28 3.22 3.22 0 0 0 3.2-3.42z"/><path d="m383.15 156h1l-1.46 7.36h-1zm.26-2.27a.75.75 0 0 1 .77-.76.65.65 0 0 1 .68.63.76.76 0 0 1 -.78.78.65.65 0 0 1 -.67-.63z"/><path d="m394.2 158.35a5.18 5.18 0 0 1 -.08.85l-.84 4.18h-1l.84-4.2a3.25 3.25 0 0 0 .07-.67c0-1-.63-1.65-1.9-1.65a2.87 2.87 0 0 0 -3 2.57l-.78 3.95h-1l1.49-7.38h.95l-.24 1.17a3.66 3.66 0 0 1 2.89-1.23c1.64.06 2.6.92 2.6 2.41z"/><path d="m403.35 161.16a4 4 0 0 0 -.05.46c0 .63.35 1 1.06 1a1.9 1.9 0 0 0 1.14-.38l.24.76a2.75 2.75 0 0 1 -1.64.47 1.61 1.61 0 0 1 -1.8-1.68 2.83 2.83 0 0 1 .06-.57l.85-4.34h-1.3l.16-.84h1.31l.33-1.62h1l-.32 1.62h2.24l-.17.84h-2.24z"/><path d="m408.16 160.33a4.17 4.17 0 0 1 4.25-4.37 3 3 0 0 1 3.35 3.11 4.18 4.18 0 0 1 -4.26 4.38 3 3 0 0 1 -3.34-3.12zm6.61-1.2a2.16 2.16 0 0 0 -2.43-2.3 3.24 3.24 0 0 0 -3.19 3.46 2.14 2.14 0 0 0 2.42 2.28 3.22 3.22 0 0 0 3.2-3.44z"/><path d="m431 156-1.47 7.36h-1l.24-1.16a3.77 3.77 0 0 1 -2.87 1.23 3 3 0 0 1 -3.21-3.12 4.15 4.15 0 0 1 4.16-4.37 2.76 2.76 0 0 1 2.8 1.6l.35-1.54zm-1.66 3.11a2.15 2.15 0 0 0 -2.42-2.3 3.24 3.24 0 0 0 -3.19 3.46 2.14 2.14 0 0 0 2.42 2.28 3.21 3.21 0 0 0 3.16-3.42z"/><path d="m435.39 153h1l-2.07 10.39h-1z"/><path d="m440.2 153h1l-2.08 10.39h-1z"/><path d="m449.26 161.16a2.64 2.64 0 0 0 -.06.46c0 .63.35 1 1.07 1a1.88 1.88 0 0 0 1.13-.38l.24.76a2.73 2.73 0 0 1 -1.64.47 1.61 1.61 0 0 1 -1.79-1.68 2.26 2.26 0 0 1 .06-.57l.85-4.34h-1.3l.18-.88h1.32l.32-1.62h1l-.33 1.62h2.24l-.16.84h-2.24z"/><path d="m462.09 158.35a4.32 4.32 0 0 1 -.09.85l-.84 4.18h-1l.84-4.2a4.13 4.13 0 0 0 .07-.67c0-1-.63-1.65-1.91-1.65a2.87 2.87 0 0 0 -3 2.57l-.79 3.95h-1l2.1-10.38h1l-.83 4.13a3.58 3.58 0 0 1 2.81-1.16c1.67.03 2.64.89 2.64 2.38z"/><path d="m465.88 160a1.46 1.46 0 0 0 0 .29c0 1.47.84 2.3 2.54 2.3a3.35 3.35 0 0 0 2.41-.92l.45.71a4.22 4.22 0 0 1 -2.94 1.09c-2.13 0-3.44-1.2-3.44-3.13a4.11 4.11 0 0 1 4.1-4.34 2.93 2.93 0 0 1 3.21 3.12 5.16 5.16 0 0 1 -.1.9zm.1-.74h5.25a2.53 2.53 0 0 0 0-.27 2.08 2.08 0 0 0 -2.31-2.17 3 3 0 0 0 -2.92 2.42z"/><path d="m121.56 177.13a4.18 4.18 0 0 1 4.28-4.37 3.09 3.09 0 0 1 2.91 1.47l-.85.49a2.26 2.26 0 0 0 -2.14-1.09 3.24 3.24 0 0 0 -3.21 3.46 2.16 2.16 0 0 0 2.45 2.28 2.86 2.86 0 0 0 2.33-1.06l.71.54a3.78 3.78 0 0 1 -3.08 1.4c-2.1 0-3.4-1.25-3.4-3.12z"/><path d="m138.14 175.15a4.14 4.14 0 0 1 -.09.84l-.84 4.19h-1l.84-4.2a4.13 4.13 0 0 0 .07-.67c0-1.05-.63-1.65-1.9-1.65a2.87 2.87 0 0 0 -3 2.57l-.79 4h-1l2.07-10.39h1l-.83 4.13a3.58 3.58 0 0 1 2.82-1.16 2.31 2.31 0 0 1 2.65 2.34z"/><path d="m142.43 172.82h1l-1.43 7.36h-1zm.26-2.27a.75.75 0 0 1 .77-.76.65.65 0 0 1 .68.63.76.76 0 0 1 -.78.78.65.65 0 0 1 -.67-.65z"/><path d="m147.87 169.79h1l-2.07 10.39h-1z"/><path d="m159.41 169.79-2.08 10.39h-1l.24-1.16a3.77 3.77 0 0 1 -2.87 1.23 3 3 0 0 1 -3.21-3.12 4.14 4.14 0 0 1 4.16-4.37 2.77 2.77 0 0 1 2.8 1.6l.91-4.57zm-2.26 6.14a2.15 2.15 0 0 0 -2.42-2.3 3.23 3.23 0 0 0 -3.2 3.46 2.15 2.15 0 0 0 2.43 2.28 3.22 3.22 0 0 0 3.19-3.44z"/><path d="m166.33 172.76-.18 1h-.28c-1.57 0-2.62.9-3 2.73l-.74 3.74h-1l1.46-7.36h.95l-.25 1.34a3.31 3.31 0 0 1 3.04-1.45z"/><path d="m168.56 176.78a1.46 1.46 0 0 0 0 .29c0 1.47.84 2.3 2.54 2.3a3.35 3.35 0 0 0 2.41-.92l.45.71a4.23 4.23 0 0 1 -2.95 1.09c-2.12 0-3.43-1.2-3.43-3.13a4.11 4.11 0 0 1 4.08-4.36 2.93 2.93 0 0 1 3.21 3.12 5.16 5.16 0 0 1 -.1.9zm.1-.74h5.25a2.53 2.53 0 0 0 0-.27 2.08 2.08 0 0 0 -2.31-2.17 3 3 0 0 0 -2.94 2.4z"/><path d="m184.83 175.15a4.14 4.14 0 0 1 -.09.84l-.84 4.19h-1l.84-4.2a4.13 4.13 0 0 0 .07-.67c0-1.05-.63-1.65-1.91-1.65a2.87 2.87 0 0 0 -3 2.57l-.79 4h-1l1.45-7.36h1l-.24 1.17a3.63 3.63 0 0 1 2.89-1.23 2.31 2.31 0 0 1 2.62 2.34z"/><path d="m201.18 169.79-2.07 10.39h-1l.23-1.16a3.77 3.77 0 0 1 -2.87 1.23 3 3 0 0 1 -3.21-3.12 4.15 4.15 0 0 1 4.16-4.37 2.79 2.79 0 0 1 2.81 1.6l.91-4.57zm-2.25 6.14a2.16 2.16 0 0 0 -2.43-2.3 3.23 3.23 0 0 0 -3.19 3.46 2.14 2.14 0 0 0 2.42 2.28 3.22 3.22 0 0 0 3.2-3.44z"/><path d="m211 172.82-1.47 7.36h-1l.24-1.17a3.56 3.56 0 0 1 -2.84 1.24 2.3 2.3 0 0 1 -2.62-2.41 4.83 4.83 0 0 1 .08-.82l.84-4.2h1l-.84 4.2a3.16 3.16 0 0 0 -.07.66c0 1.06.61 1.68 1.87 1.68a2.88 2.88 0 0 0 3-2.58l.78-4z"/><path d="m218.58 172.76-.18 1h-.28c-1.57 0-2.62.9-3 2.73l-.74 3.74h-1l1.45-7.36h1l-.26 1.34a3.33 3.33 0 0 1 3.01-1.45z"/><path d="m221.41 172.82h1l-1.46 7.36h-1zm.25-2.27a.75.75 0 0 1 .77-.76.66.66 0 0 1 .69.63.76.76 0 0 1 -.79.78.65.65 0 0 1 -.67-.65z"/><path d="m232.46 175.15a4.14 4.14 0 0 1 -.09.84l-.84 4.19h-1l.84-4.2a4.13 4.13 0 0 0 .07-.67c0-1.05-.63-1.65-1.91-1.65a2.87 2.87 0 0 0 -3 2.57l-.78 4h-1l1.45-7.36h.95l-.23 1.17a3.62 3.62 0 0 1 2.88-1.23c1.69-.05 2.66.85 2.66 2.34z"/><path d="m243.61 172.82-1.28 6.47c-.52 2.6-1.9 3.68-4.29 3.68a4.66 4.66 0 0 1 -3.28-1.11l.59-.75a3.86 3.86 0 0 0 2.76 1 2.89 2.89 0 0 0 3.19-2.64l.17-.81a3.79 3.79 0 0 1 -2.94 1.26c-1.95 0-3.25-1.13-3.25-3a4.07 4.07 0 0 1 4.2-4.17 2.82 2.82 0 0 1 2.87 1.68l.31-1.62zm-1.68 3c0-1.34-.91-2.14-2.43-2.14a3.12 3.12 0 0 0 -3.21 3.25c0 1.34.89 2.14 2.44 2.14a3.13 3.13 0 0 0 3.2-3.3z"/><path d="m252.29 178a2.64 2.64 0 0 0 -.06.46c0 .63.35 1 1.07 1a1.88 1.88 0 0 0 1.13-.38l.24.76a2.73 2.73 0 0 1 -1.64.47 1.61 1.61 0 0 1 -1.79-1.68 2.26 2.26 0 0 1 .06-.57l.85-4.34h-1.3l.15-.84h1.32l.32-1.62h1l-.32 1.62h2.24l-.16.84h-2.25z"/><path d="m265.12 175.15a4.14 4.14 0 0 1 -.09.84l-.84 4.19h-1l.81-4.18a4.13 4.13 0 0 0 .07-.67c0-1.05-.63-1.65-1.91-1.65a2.86 2.86 0 0 0 -3 2.57l-.79 4h-1l2.07-10.39h1l-.83 4.13a3.58 3.58 0 0 1 2.81-1.16c1.73-.07 2.7.83 2.7 2.32z"/><path d="m268.91 176.78a1.46 1.46 0 0 0 0 .29c0 1.47.84 2.3 2.54 2.3a3.35 3.35 0 0 0 2.41-.92l.45.71a4.23 4.23 0 0 1 -3 1.09c-2.12 0-3.43-1.2-3.43-3.13a4.11 4.11 0 0 1 4.08-4.36 2.93 2.93 0 0 1 3.21 3.12 5.16 5.16 0 0 1 -.1.9zm.09-.78h5.26a2.53 2.53 0 0 0 0-.27 2.08 2.08 0 0 0 -2.26-2.13 3 3 0 0 0 -3 2.4z"/><path d="m282.14 177.13a4.17 4.17 0 0 1 4.25-4.37 3 3 0 0 1 3.35 3.11 4.18 4.18 0 0 1 -4.26 4.38 3 3 0 0 1 -3.34-3.12zm6.61-1.2a2.15 2.15 0 0 0 -2.42-2.3 3.23 3.23 0 0 0 -3.2 3.46 2.14 2.14 0 0 0 2.42 2.28 3.22 3.22 0 0 0 3.2-3.44z"/><path d="m299.72 175.15a4.11 4.11 0 0 1 -.08.84l-.84 4.19h-1l.84-4.2a4.13 4.13 0 0 0 .07-.67c0-1.05-.63-1.65-1.91-1.65a2.87 2.87 0 0 0 -3 2.57l-.78 4h-1l1.46-7.36h.95l-.23 1.17a3.62 3.62 0 0 1 2.88-1.23c1.68-.05 2.64.85 2.64 2.34z"/><path d="m304.64 169.79h1l-2.07 10.39h-1z"/><path d="m308.83 172.82h1l-1.46 7.36h-1zm.26-2.27a.75.75 0 0 1 .77-.76.65.65 0 0 1 .68.63.76.76 0 0 1 -.78.78.65.65 0 0 1 -.67-.65z"/><path d="m319.88 175.15a4.11 4.11 0 0 1 -.08.84l-.84 4.19h-1l.85-4.2a4.13 4.13 0 0 0 .07-.67c0-1.05-.63-1.65-1.91-1.65a2.87 2.87 0 0 0 -3 2.57l-.78 4h-1l1.46-7.36h1l-.23 1.17a3.62 3.62 0 0 1 2.88-1.23c1.62-.05 2.58.85 2.58 2.34z"/><path d="m323.67 176.78v.29c0 1.47.84 2.3 2.54 2.3a3.31 3.31 0 0 0 2.4-.92l.45.71a4.19 4.19 0 0 1 -2.94 1.09c-2.13 0-3.43-1.2-3.43-3.13a4.1 4.1 0 0 1 4.08-4.36 2.93 2.93 0 0 1 3.2 3.12 5.18 5.18 0 0 1 -.09.9zm.1-.74h5.23a2.53 2.53 0 0 0 0-.27 2.08 2.08 0 0 0 -2.31-2.17 3 3 0 0 0 -2.92 2.4z"/><path d="m336.9 177.13a4.18 4.18 0 0 1 4.29-4.37 3.08 3.08 0 0 1 2.9 1.47l-.84.49a2.27 2.27 0 0 0 -2.14-1.09 3.24 3.24 0 0 0 -3.21 3.46 2.15 2.15 0 0 0 2.45 2.28 2.84 2.84 0 0 0 2.32-1.06l.72.54a3.8 3.8 0 0 1 -3.08 1.4c-2.1 0-3.41-1.25-3.41-3.12z"/><path d="m347.87 169.79h1l-2.07 10.39h-1z"/><path d="m358.8 172.82-1.47 7.36h-.95l.24-1.16a3.77 3.77 0 0 1 -2.87 1.23 3 3 0 0 1 -3.21-3.12 4.14 4.14 0 0 1 4.16-4.37 2.76 2.76 0 0 1 2.8 1.6l.31-1.54zm-1.65 3.11a2.15 2.15 0 0 0 -2.42-2.3 3.23 3.23 0 0 0 -3.2 3.46 2.15 2.15 0 0 0 2.43 2.28 3.22 3.22 0 0 0 3.19-3.44z"/><path d="m360.37 179.36.47-.79a4 4 0 0 0 2.55.82c1.42 0 2.19-.5 2.19-1.32 0-1.67-4.18-.52-4.18-3 0-1.4 1.26-2.3 3.2-2.3a4.47 4.47 0 0 1 2.49.69l-.42.79a3.71 3.71 0 0 0 -2.16-.63c-1.36 0-2.13.55-2.13 1.35 0 1.71 4.18.54 4.18 3 0 1.45-1.31 2.29-3.27 2.29a4.64 4.64 0 0 1 -2.92-.9z"/><path d="m368.26 179.36.48-.79a4 4 0 0 0 2.55.82c1.41 0 2.18-.5 2.18-1.32 0-1.67-4.17-.52-4.17-3 0-1.4 1.26-2.3 3.19-2.3a4.5 4.5 0 0 1 2.5.69l-.42.79a3.75 3.75 0 0 0 -2.16-.63c-1.36 0-2.13.55-2.13 1.35 0 1.71 4.17.54 4.17 3 0 1.45-1.3 2.29-3.26 2.29a4.69 4.69 0 0 1 -2.93-.9z"/><path d="m377.87 176.78a1.46 1.46 0 0 0 0 .29c0 1.47.84 2.3 2.54 2.3a3.35 3.35 0 0 0 2.41-.92l.45.71a4.22 4.22 0 0 1 -2.94 1.09c-2.13 0-3.44-1.2-3.44-3.13a4.11 4.11 0 0 1 4.08-4.36 2.93 2.93 0 0 1 3.21 3.12 4.35 4.35 0 0 1 -.1.9zm.1-.74h5.25a2.53 2.53 0 0 0 0-.27 2.08 2.08 0 0 0 -2.31-2.17 3 3 0 0 0 -2.91 2.4z"/><path d="m385.66 179.36.48-.79a4 4 0 0 0 2.55.82c1.41 0 2.18-.5 2.18-1.32 0-1.67-4.17-.52-4.17-3 0-1.4 1.26-2.3 3.19-2.3a4.5 4.5 0 0 1 2.5.69l-.42.79a3.73 3.73 0 0 0 -2.16-.63c-1.36 0-2.13.55-2.13 1.35 0 1.71 4.18.54 4.18 3 0 1.45-1.31 2.29-3.27 2.29a4.69 4.69 0 0 1 -2.93-.9z"/><path d="m393.83 179.53a.78.78 0 0 1 .78-.8.7.7 0 0 1 .72.72.79.79 0 0 1 -.78.8.72.72 0 0 1 -.72-.72z"/><path d="m405.25 170.38h1l-2 9.8h-1z"/><path d="m415.85 172-.17.82h2.26l-.17.84h-2.23l-1.3 6.52h-1l1.31-6.52h-1.32l.15-.84h1.34l.18-.93a2.41 2.41 0 0 1 2.52-2.17 2.21 2.21 0 0 1 1.48.48l-.43.72a1.59 1.59 0 0 0 -1.05-.36c-.87 0-1.36.44-1.57 1.44z"/><path d="m419.67 176.78v.29c0 1.47.84 2.3 2.53 2.3a3.34 3.34 0 0 0 2.41-.92l.45.71a4.21 4.21 0 0 1 -2.94 1.09c-2.13 0-3.43-1.2-3.43-3.13a4.1 4.1 0 0 1 4.07-4.36 2.93 2.93 0 0 1 3.21 3.12 4.35 4.35 0 0 1 -.1.9zm.1-.74h5.23a1.27 1.27 0 0 0 0-.27 2.08 2.08 0 0 0 -2.32-2.17 3 3 0 0 0 -2.91 2.4z"/><path d="m429.18 176.78a1.46 1.46 0 0 0 0 .29c0 1.47.84 2.3 2.54 2.3a3.35 3.35 0 0 0 2.41-.92l.45.71a4.23 4.23 0 0 1 -2.95 1.09c-2.12 0-3.43-1.2-3.43-3.13a4.11 4.11 0 0 1 4.08-4.36 2.93 2.93 0 0 1 3.21 3.12 5.16 5.16 0 0 1 -.1.9zm.09-.74h5.26a2.53 2.53 0 0 0 0-.27 2.08 2.08 0 0 0 -2.31-2.17 3 3 0 0 0 -2.95 2.4z"/><path d="m439.83 169.79h1l-2.08 10.39h-1z"/><path d="m455 172.82-4.73 7.36h-1l-1.82-7.36h1l1.53 6.28 4-6.28z"/><path d="m456.64 176.78v.29c0 1.47.84 2.3 2.53 2.3a3.36 3.36 0 0 0 2.42-.92l.44.71a4.19 4.19 0 0 1 -2.94 1.09c-2.13 0-3.43-1.2-3.43-3.13a4.1 4.1 0 0 1 4.08-4.36 2.93 2.93 0 0 1 3.2 3.12 4.35 4.35 0 0 1 -.1.9zm.1-.74h5.26a2.53 2.53 0 0 0 0-.27 2.08 2.08 0 0 0 -2.31-2.17 3 3 0 0 0 -2.95 2.4z"/><path d="m470.41 172.76-.18 1h-.28c-1.57 0-2.62.9-3 2.73l-.74 3.74h-1l1.45-7.36h.95l-.25 1.34a3.33 3.33 0 0 1 3.05-1.45z"/><path d="m479.76 172.82-5.38 8.32c-.91 1.4-1.59 1.83-2.66 1.83a2.38 2.38 0 0 1 -1.75-.66l.53-.73a1.74 1.74 0 0 0 1.31.54c.63 0 1.12-.3 1.69-1.19l.52-.79-1.84-7.32h1l1.53 6.27 4-6.27z"/><path d="m136.72 192.67a4.15 4.15 0 0 1 -4.18 4.38 2.75 2.75 0 0 1 -2.8-1.61l-.84 4.26h-1l2-10.08h1l-.24 1.17a3.78 3.78 0 0 1 2.88-1.23 3 3 0 0 1 3.18 3.11zm-1 .06a2.15 2.15 0 0 0 -2.42-2.3 3.21 3.21 0 0 0 -3.18 3.46 2.14 2.14 0 0 0 2.42 2.28 3.21 3.21 0 0 0 3.17-3.44z"/><path d="m144.18 189.56-.18 1h-.28c-1.57 0-2.62.9-3 2.73l-.72 3.71h-1l1.45-7.36h1l-.25 1.34a3.33 3.33 0 0 1 2.98-1.42z"/><path d="m145.41 193.93a4.18 4.18 0 0 1 4.25-4.37 3 3 0 0 1 3.35 3.11 4.18 4.18 0 0 1 -4.26 4.38 3 3 0 0 1 -3.34-3.12zm6.61-1.2a2.15 2.15 0 0 0 -2.42-2.3 3.24 3.24 0 0 0 -3.2 3.46 2.15 2.15 0 0 0 2.43 2.28 3.22 3.22 0 0 0 3.17-3.44z"/><path d="m163.41 189.62-1.47 7.38h-.94l.24-1.17a3.56 3.56 0 0 1 -2.84 1.24 2.3 2.3 0 0 1 -2.62-2.41 4.83 4.83 0 0 1 .08-.82l.84-4.2h1l-.84 4.2a3.16 3.16 0 0 0 -.07.66c0 1.06.61 1.68 1.87 1.68a2.88 2.88 0 0 0 3-2.58l.78-4z"/><path d="m174.57 186.59-2.07 10.41h-.95l.24-1.16a3.78 3.78 0 0 1 -2.88 1.23 3 3 0 0 1 -3.2-3.12 4.14 4.14 0 0 1 4.16-4.37 2.77 2.77 0 0 1 2.8 1.6l.91-4.57zm-2.25 6.14a2.15 2.15 0 0 0 -2.42-2.3 3.24 3.24 0 0 0 -3.2 3.46 2.14 2.14 0 0 0 2.42 2.28 3.22 3.22 0 0 0 3.2-3.44z"/><path d="m182.63 194.76a4 4 0 0 0 0 .46c0 .63.35 1 1.06 1a1.9 1.9 0 0 0 1.14-.38l.23.76a2.7 2.7 0 0 1 -1.63.47 1.61 1.61 0 0 1 -1.8-1.68 2.83 2.83 0 0 1 .06-.57l.85-4.34h-1.3l.15-.84h1.32l.29-1.64h1l-.32 1.62h2.24l-.17.84h-2.24z"/><path d="m195.46 192a5.18 5.18 0 0 1 -.08.85l-.84 4.18h-1l.84-4.2a4.13 4.13 0 0 0 .07-.67c0-1.05-.63-1.65-1.9-1.65a2.87 2.87 0 0 0 -3 2.57l-.79 3.95h-1l2.07-10.39h1l-.83 4.13a3.58 3.58 0 0 1 2.82-1.16 2.31 2.31 0 0 1 2.64 2.39z"/><path d="m206.52 189.62-1.47 7.38h-1l.23-1.16a3.74 3.74 0 0 1 -2.87 1.23 3 3 0 0 1 -3.2-3.12 4.14 4.14 0 0 1 4.16-4.37 2.76 2.76 0 0 1 2.8 1.6l.31-1.54zm-1.65 3.11a2.16 2.16 0 0 0 -2.43-2.3 3.24 3.24 0 0 0 -3.19 3.46 2.14 2.14 0 0 0 2.42 2.28 3.22 3.22 0 0 0 3.2-3.44z"/><path d="m210.46 194.76a4 4 0 0 0 -.05.46c0 .63.35 1 1.06 1a1.9 1.9 0 0 0 1.14-.38l.24.76a2.75 2.75 0 0 1 -1.64.47 1.61 1.61 0 0 1 -1.8-1.68 2.83 2.83 0 0 1 .06-.57l.86-4.34h-1.33l.16-.84h1.31l.33-1.62h1l-.32 1.62h2.24l-.17.84h-2.24z"/><path d="m233.4 191.93a5.71 5.71 0 0 1 -.09.87l-.85 4.18h-1l.84-4.2a2.81 2.81 0 0 0 .07-.68c0-1-.6-1.64-1.82-1.64a2.76 2.76 0 0 0 -2.86 2.46l-.81 4.06h-1l.84-4.2a4.13 4.13 0 0 0 .07-.67c0-1.05-.59-1.65-1.82-1.65a2.82 2.82 0 0 0 -2.87 2.54l-.79 3.95h-1l1.46-7.36h.95l-.24 1.17a3.45 3.45 0 0 1 2.79-1.23 2.29 2.29 0 0 1 2.41 1.47 3.73 3.73 0 0 1 3.11-1.47c1.67.03 2.61.91 2.61 2.4z"/><path d="m243.75 189.62-5.38 8.32c-.91 1.4-1.6 1.83-2.66 1.83a2.38 2.38 0 0 1 -1.75-.66l.53-.73a1.7 1.7 0 0 0 1.3.54c.63 0 1.12-.3 1.7-1.19l.51-.79-1.83-7.32h1l1.52 6.27 4-6.27z"/><path d="m249.37 193.93a4.18 4.18 0 0 1 4.29-4.37 3.08 3.08 0 0 1 2.9 1.47l-.84.49a2.29 2.29 0 0 0 -2.15-1.09 3.24 3.24 0 0 0 -3.21 3.46 2.16 2.16 0 0 0 2.46 2.28 2.85 2.85 0 0 0 2.32-1.06l.72.54a3.82 3.82 0 0 1 -3.09 1.4c-2.1 0-3.4-1.23-3.4-3.12z"/><path d="m266 192a5.18 5.18 0 0 1 -.08.85l-.92 4.15h-1l.84-4.2a4.13 4.13 0 0 0 .07-.67c0-1.05-.63-1.65-1.9-1.65a2.87 2.87 0 0 0 -3 2.57l-.79 3.95h-1l2.07-10.39h1l-.83 4.13a3.58 3.58 0 0 1 2.82-1.16 2.31 2.31 0 0 1 2.72 2.42z"/><path d="m270.24 189.62h1l-1.46 7.38h-1zm.26-2.27a.75.75 0 0 1 .77-.76.65.65 0 0 1 .68.63.76.76 0 0 1 -.78.78.65.65 0 0 1 -.67-.65z"/><path d="m275.68 186.59h1l-2.08 10.41h-1z"/><path d="m287.22 186.59-2.08 10.41h-.95l.24-1.16a3.77 3.77 0 0 1 -2.87 1.23 3 3 0 0 1 -3.21-3.12 4.14 4.14 0 0 1 4.16-4.37 2.77 2.77 0 0 1 2.8 1.6l.91-4.57zm-2.22 6.14a2.15 2.15 0 0 0 -2.42-2.3 3.24 3.24 0 0 0 -3.2 3.46 2.15 2.15 0 0 0 2.43 2.28 3.22 3.22 0 0 0 3.19-3.44z"/><path d="m292.89 196.16.48-.79a4 4 0 0 0 2.55.82c1.41 0 2.19-.49 2.19-1.32 0-1.67-4.18-.52-4.18-3 0-1.4 1.26-2.3 3.19-2.3a4.5 4.5 0 0 1 2.5.69l-.42.79a3.73 3.73 0 0 0 -2.16-.63c-1.36 0-2.13.55-2.13 1.35 0 1.71 4.18.55 4.18 3 0 1.45-1.31 2.29-3.27 2.29a4.69 4.69 0 0 1 -2.93-.9z"/><path d="m303.17 194.76a2.58 2.58 0 0 0 -.05.46c0 .63.35 1 1.06 1a1.9 1.9 0 0 0 1.14-.38l.23.76a2.73 2.73 0 0 1 -1.64.47 1.61 1.61 0 0 1 -1.79-1.68 2.83 2.83 0 0 1 .06-.57l.85-4.34h-1.3l.15-.84h1.32l.32-1.62h1l-.33 1.62h2.25l-.17.84h-2.27z"/><path d="m316.42 189.62-1.42 7.38h-1l.23-1.17a3.54 3.54 0 0 1 -2.84 1.24 2.31 2.31 0 0 1 -2.62-2.41 4 4 0 0 1 .09-.82l.84-4.2h1l-.84 4.2a4 4 0 0 0 -.07.66c0 1.06.62 1.68 1.88 1.68a2.88 2.88 0 0 0 3-2.58l.78-4z"/><path d="m327.58 186.59-2.08 10.41h-.95l.24-1.16a3.77 3.77 0 0 1 -2.87 1.23 3 3 0 0 1 -3.21-3.12 4.15 4.15 0 0 1 4.16-4.37 2.77 2.77 0 0 1 2.8 1.6l.91-4.57zm-2.26 6.14a2.15 2.15 0 0 0 -2.42-2.3 3.23 3.23 0 0 0 -3.19 3.46 2.14 2.14 0 0 0 2.42 2.28 3.22 3.22 0 0 0 3.19-3.44z"/><path d="m330.78 189.62h1l-1.46 7.38h-1zm.25-2.27a.75.75 0 0 1 .77-.76.66.66 0 0 1 .69.63.76.76 0 0 1 -.79.78.65.65 0 0 1 -.7-.65z"/><path d="m335.06 193.58v.29c0 1.48.84 2.3 2.53 2.3a3.32 3.32 0 0 0 2.41-.92l.45.71a4.19 4.19 0 0 1 -2.94 1.09c-2.13 0-3.43-1.2-3.43-3.13a4.1 4.1 0 0 1 4.07-4.36 2.93 2.93 0 0 1 3.21 3.12 4.35 4.35 0 0 1 -.1.9zm.1-.74h5.25a1.27 1.27 0 0 0 0-.27 2.08 2.08 0 0 0 -2.31-2.17 3 3 0 0 0 -2.94 2.44z"/><path d="m342.86 196.16.48-.79a4 4 0 0 0 2.55.82c1.41 0 2.18-.49 2.18-1.32 0-1.67-4.17-.52-4.17-3 0-1.4 1.26-2.3 3.19-2.3a4.47 4.47 0 0 1 2.49.69l-.42.79a3.7 3.7 0 0 0 -2.15-.63c-1.36 0-2.13.55-2.13 1.35 0 1.71 4.17.55 4.17 3 0 1.45-1.3 2.29-3.26 2.29a4.65 4.65 0 0 1 -2.93-.9z"/><path d="m357.71 189.62h1l-1.46 7.38h-1zm.26-2.27a.75.75 0 0 1 .77-.76.65.65 0 0 1 .68.63.76.76 0 0 1 -.78.78.65.65 0 0 1 -.64-.65z"/><path d="m368.76 192a4.27 4.27 0 0 1 -.08.85l-.84 4.18h-1l.85-4.2a4.13 4.13 0 0 0 .07-.67c0-1.05-.63-1.65-1.91-1.65a2.87 2.87 0 0 0 -3 2.57l-.78 3.95h-1l1.46-7.36h1l-.23 1.17a3.62 3.62 0 0 1 2.88-1.23c1.62-.05 2.58.85 2.58 2.39z"/><path d="m375.54 196.16.47-.79a4 4 0 0 0 2.55.82c1.42 0 2.19-.49 2.19-1.32 0-1.67-4.18-.52-4.18-3 0-1.4 1.26-2.3 3.2-2.3a4.49 4.49 0 0 1 2.49.69l-.42.79a3.73 3.73 0 0 0 -2.16-.63c-1.36 0-2.13.55-2.13 1.35 0 1.71 4.18.55 4.18 3 0 1.45-1.31 2.29-3.27 2.29a4.64 4.64 0 0 1 -2.92-.9z"/><path d="m392.33 189.62-1.47 7.38h-1l.24-1.17a3.56 3.56 0 0 1 -2.84 1.24 2.3 2.3 0 0 1 -2.62-2.41 4.83 4.83 0 0 1 .08-.82l.84-4.2h1l-.84 4.2a3.16 3.16 0 0 0 -.07.66c0 1.06.61 1.68 1.87 1.68a2.88 2.88 0 0 0 3-2.58l.78-4z"/><path d="m394.62 193.93a4.18 4.18 0 0 1 4.28-4.37 3.06 3.06 0 0 1 2.9 1.47l-.84.49a2.26 2.26 0 0 0 -2.14-1.09 3.24 3.24 0 0 0 -3.21 3.46 2.16 2.16 0 0 0 2.45 2.28 2.86 2.86 0 0 0 2.33-1.06l.71.54a3.8 3.8 0 0 1 -3.08 1.4c-2.1 0-3.4-1.23-3.4-3.12z"/><path d="m411.2 192a4.32 4.32 0 0 1 -.09.85l-.84 4.18h-1l.84-4.2a4.13 4.13 0 0 0 .07-.67c0-1.05-.63-1.65-1.91-1.65a2.87 2.87 0 0 0 -3 2.57l-.77 3.92h-1l2.07-10.39h1l-.83 4.13a3.58 3.58 0 0 1 2.81-1.16c1.68-.02 2.65.88 2.65 2.42z"/><path d="m427 189.62-1.52 7.38h-1l.24-1.16a3.77 3.77 0 0 1 -2.87 1.23 3 3 0 0 1 -3.21-3.12 4.15 4.15 0 0 1 4.16-4.37 2.76 2.76 0 0 1 2.81 1.6l.3-1.54zm-1.66 3.11a2.15 2.15 0 0 0 -2.42-2.3 3.24 3.24 0 0 0 -3.19 3.46 2.14 2.14 0 0 0 2.42 2.28 3.21 3.21 0 0 0 3.14-3.44z"/><path d="m446.35 189.62-4.16 7.38h-1l-1.19-6-3.45 6h-.95l-1.45-7.36h.91l1.19 6.24 3.56-6.24h.84l1.24 6.24 3.5-6.24z"/><path d="m447.09 193.93a4.18 4.18 0 0 1 4.26-4.37 3 3 0 0 1 3.35 3.11 4.18 4.18 0 0 1 -4.26 4.38 3 3 0 0 1 -3.35-3.12zm6.61-1.2a2.15 2.15 0 0 0 -2.42-2.3 3.24 3.24 0 0 0 -3.2 3.46 2.15 2.15 0 0 0 2.43 2.28 3.22 3.22 0 0 0 3.19-3.44z"/><path d="m464.68 192a4.32 4.32 0 0 1 -.09.85l-.84 4.18h-1l.84-4.2a4.13 4.13 0 0 0 .07-.67c0-1.05-.63-1.65-1.91-1.65a2.87 2.87 0 0 0 -3 2.57l-.75 3.92h-1l1.45-7.36h1l-.24 1.17a3.62 3.62 0 0 1 2.88-1.23c1.62-.02 2.59.88 2.59 2.42z"/><path d="m467.81 192.75h3.67l-.17.87h-3.67z"/><path d="m136.11 203.39-2.11 10.39h-1l.24-1.16a3.77 3.77 0 0 1 -2.87 1.23 3 3 0 0 1 -3.21-3.12 4.15 4.15 0 0 1 4.16-4.37 2.77 2.77 0 0 1 2.8 1.6l.92-4.57zm-2.26 6.14a2.15 2.15 0 0 0 -2.42-2.3 3.23 3.23 0 0 0 -3.19 3.46 2.14 2.14 0 0 0 2.42 2.28 3.21 3.21 0 0 0 3.19-3.44z"/><path d="m138.78 210.38v.29c0 1.47.84 2.3 2.53 2.3a3.35 3.35 0 0 0 2.41-.92l.45.71a4.21 4.21 0 0 1 -2.94 1.09c-2.13 0-3.43-1.2-3.43-3.13a4.1 4.1 0 0 1 4.07-4.36 2.93 2.93 0 0 1 3.21 3.12 4.35 4.35 0 0 1 -.1.9zm.1-.74h5.25a2.53 2.53 0 0 0 0-.27 2.07 2.07 0 0 0 -2.31-2.17 3 3 0 0 0 -2.94 2.44z"/><path d="m152.54 206.36-.18 1h-.28c-1.57 0-2.62.9-3 2.73l-.74 3.74h-1l1.46-7.36h1l-.25 1.34a3.31 3.31 0 0 1 2.99-1.45z"/><path d="m157 205.6-.17.82h2.25l-.16.84h-2.22l-1.3 6.52h-1l1.31-6.52h-1.32l.15-.84h1.33l.19-.93a2.41 2.41 0 0 1 2.52-2.17 2.23 2.23 0 0 1 1.48.48l-.43.72a1.59 1.59 0 0 0 -1-.36c-.92 0-1.41.45-1.63 1.44z"/><path d="m168.14 206.42-1.47 7.36h-.95l.24-1.17a3.58 3.58 0 0 1 -2.85 1.24 2.31 2.31 0 0 1 -2.62-2.41 4 4 0 0 1 .09-.82l.84-4.2h1l-.84 4.2a4 4 0 0 0 -.07.66c0 1.06.62 1.68 1.88 1.68a2.88 2.88 0 0 0 3-2.58l.79-4z"/><path d="m172.58 203.39h1l-2.07 10.39h-1z"/><path d="m179.25 213 .48-.79a4 4 0 0 0 2.55.82c1.41 0 2.18-.5 2.18-1.32 0-1.67-4.17-.52-4.17-3 0-1.4 1.26-2.3 3.19-2.3a4.53 4.53 0 0 1 2.5.69l-.43.79a3.7 3.7 0 0 0 -2.15-.63c-1.36 0-2.13.55-2.13 1.35 0 1.71 4.17.54 4.17 3 0 1.45-1.3 2.29-3.26 2.29a4.67 4.67 0 0 1 -2.93-.9z"/><path d="m187.86 210.73a4.18 4.18 0 0 1 4.29-4.37 3.08 3.08 0 0 1 2.9 1.47l-.84.49a2.28 2.28 0 0 0 -2.15-1.09 3.23 3.23 0 0 0 -3.2 3.46 2.15 2.15 0 0 0 2.45 2.28 2.84 2.84 0 0 0 2.32-1.06l.72.54a3.8 3.8 0 0 1 -3.08 1.4c-2.11 0-3.41-1.23-3.41-3.12z"/><path d="m204.44 208.75a5.18 5.18 0 0 1 -.08.85l-.84 4.18h-1l.84-4.2a3.25 3.25 0 0 0 .07-.67c0-1-.63-1.65-1.9-1.65a2.87 2.87 0 0 0 -3 2.57l-.78 3.95h-1l2.08-10.39h1l-.83 4.13a3.58 3.58 0 0 1 2.82-1.16c1.66 0 2.62.9 2.62 2.39z"/><path d="m207.24 210.73a4.18 4.18 0 0 1 4.26-4.37 3 3 0 0 1 3.34 3.11 4.18 4.18 0 0 1 -4.26 4.38 3 3 0 0 1 -3.34-3.12zm6.61-1.2a2.15 2.15 0 0 0 -2.42-2.3 3.23 3.23 0 0 0 -3.2 3.46 2.15 2.15 0 0 0 2.43 2.28 3.22 3.22 0 0 0 3.19-3.44z"/><path d="m217.07 210.73a4.17 4.17 0 0 1 4.25-4.37 3 3 0 0 1 3.35 3.11 4.18 4.18 0 0 1 -4.26 4.38 3 3 0 0 1 -3.34-3.12zm6.61-1.2a2.16 2.16 0 0 0 -2.43-2.3 3.23 3.23 0 0 0 -3.19 3.46 2.14 2.14 0 0 0 2.42 2.28 3.22 3.22 0 0 0 3.2-3.44z"/><path d="m229 203.39h1l-2 10.39h-1z"/><path d="m244.61 206.42-1.47 7.36h-1l.24-1.17a3.56 3.56 0 0 1 -2.84 1.24 2.31 2.31 0 0 1 -2.62-2.41 4.83 4.83 0 0 1 .08-.82l.84-4.2h1l-.84 4.2a4 4 0 0 0 -.07.66c0 1.06.61 1.68 1.87 1.68a2.88 2.88 0 0 0 3-2.58l.78-4z"/><path d="m254.66 208.75a5.18 5.18 0 0 1 -.08.85l-.84 4.18h-1l.84-4.2a4.13 4.13 0 0 0 .07-.67c0-1-.63-1.65-1.9-1.65a2.87 2.87 0 0 0 -3 2.57l-.79 3.95h-1l1.46-7.36h.95l-.24 1.17a3.63 3.63 0 0 1 2.89-1.23 2.31 2.31 0 0 1 2.64 2.39z"/><path d="m266.32 203.39-2.07 10.39h-.95l.23-1.16a3.77 3.77 0 0 1 -2.87 1.23 3 3 0 0 1 -3.2-3.12 4.14 4.14 0 0 1 4.16-4.37 2.77 2.77 0 0 1 2.8 1.6l.91-4.57zm-2.25 6.14a2.16 2.16 0 0 0 -2.43-2.3 3.23 3.23 0 0 0 -3.19 3.46 2.14 2.14 0 0 0 2.42 2.28 3.22 3.22 0 0 0 3.2-3.44z"/><path d="m269 210.38v.29c0 1.47.84 2.3 2.53 2.3a3.34 3.34 0 0 0 2.41-.92l.45.71a4.21 4.21 0 0 1 -2.94 1.09c-2.13 0-3.43-1.2-3.43-3.13a4.1 4.1 0 0 1 4.07-4.36 2.93 2.93 0 0 1 3.21 3.12 4.35 4.35 0 0 1 -.1.9zm.1-.74h5.25a1.27 1.27 0 0 0 0-.27 2.08 2.08 0 0 0 -2.31-2.17 3 3 0 0 0 -2.95 2.44z"/><path d="m282.76 206.36-.19 1h-.28c-1.57 0-2.62.9-3 2.73l-.74 3.74h-1l1.46-7.36h1l-.25 1.34a3.32 3.32 0 0 1 3-1.45z"/><path d="m290.55 211.56a2.58 2.58 0 0 0 -.05.46c0 .63.35 1 1.06 1a1.85 1.85 0 0 0 1.13-.38l.24.76a2.73 2.73 0 0 1 -1.64.47 1.61 1.61 0 0 1 -1.79-1.68 2.26 2.26 0 0 1 .06-.57l.85-4.34h-1.3l.15-.84h1.32l.32-1.62h1l-.33 1.62h2.25l-.17.84h-2.24z"/><path d="m303.38 208.75a4.32 4.32 0 0 1 -.09.85l-.84 4.18h-1l.84-4.2a4.13 4.13 0 0 0 .07-.67c0-1-.63-1.65-1.9-1.65a2.87 2.87 0 0 0 -3 2.57l-.79 3.95h-1l2.07-10.39h1l-.83 4.13a3.58 3.58 0 0 1 2.82-1.16 2.31 2.31 0 0 1 2.65 2.39z"/><path d="m307.17 210.38v.29c0 1.47.84 2.3 2.53 2.3a3.35 3.35 0 0 0 2.41-.92l.45.71a4.22 4.22 0 0 1 -2.94 1.09c-2.13 0-3.44-1.2-3.44-3.13a4.11 4.11 0 0 1 4.08-4.36 2.93 2.93 0 0 1 3.21 3.12 4.35 4.35 0 0 1 -.1.9zm.1-.74h5.25a2.53 2.53 0 0 0 0-.27 2.08 2.08 0 0 0 -2.31-2.17 3 3 0 0 0 -2.94 2.44z"/><path d="m319.68 213 .48-.79a4 4 0 0 0 2.55.82c1.41 0 2.18-.5 2.18-1.32 0-1.67-4.17-.52-4.17-3 0-1.4 1.26-2.3 3.19-2.3a4.5 4.5 0 0 1 2.5.69l-.42.79a3.73 3.73 0 0 0 -2.16-.63c-1.36 0-2.13.55-2.13 1.35 0 1.71 4.17.54 4.17 3 0 1.45-1.3 2.29-3.26 2.29a4.69 4.69 0 0 1 -2.93-.9z"/><path d="m336.47 206.42-1.47 7.36h-.95l.24-1.17a3.56 3.56 0 0 1 -2.84 1.24 2.3 2.3 0 0 1 -2.62-2.41 4 4 0 0 1 .08-.82l.84-4.2h1l-.84 4.2a3.2 3.2 0 0 0 -.08.66c0 1.06.62 1.68 1.88 1.68a2.89 2.89 0 0 0 3-2.58l.78-4z"/><path d="m347.1 209.47a4.15 4.15 0 0 1 -4.17 4.38 2.76 2.76 0 0 1 -2.81-1.61l-.84 4.26h-1l2-10.08h1l-.24 1.17a3.74 3.74 0 0 1 2.87-1.23 3 3 0 0 1 3.19 3.11zm-1 .06a2.15 2.15 0 0 0 -2.42-2.3 3.21 3.21 0 0 0 -3.18 3.46 2.14 2.14 0 0 0 2.42 2.28 3.21 3.21 0 0 0 3.17-3.44z"/><path d="m350.3 210.38v.29c0 1.47.84 2.3 2.53 2.3a3.34 3.34 0 0 0 2.41-.92l.45.71a4.19 4.19 0 0 1 -2.94 1.09c-2.13 0-3.43-1.2-3.43-3.13a4.1 4.1 0 0 1 4.07-4.36 2.93 2.93 0 0 1 3.21 3.12 4.35 4.35 0 0 1 -.1.9zm.1-.74h5.25a1.27 1.27 0 0 0 0-.27 2.08 2.08 0 0 0 -2.31-2.17 3 3 0 0 0 -2.94 2.44z"/><path d="m364.07 206.36-.19 1h-.28c-1.56 0-2.62.9-3 2.73l-.74 3.74h-1l1.46-7.36h1l-.25 1.34a3.32 3.32 0 0 1 3-1.45z"/><path d="m373.42 206.42-4.74 7.36h-1l-1.82-7.36h1l1.52 6.28 4-6.28z"/><path d="m375.85 206.42h1l-1.46 7.36h-1zm.25-2.27a.76.76 0 0 1 .77-.76.66.66 0 0 1 .69.63.76.76 0 0 1 -.78.78.66.66 0 0 1 -.68-.65z"/><path d="m378.43 213 .47-.79a4 4 0 0 0 2.55.82c1.42 0 2.19-.5 2.19-1.32 0-1.67-4.18-.52-4.18-3 0-1.4 1.26-2.3 3.2-2.3a4.47 4.47 0 0 1 2.49.69l-.42.79a3.71 3.71 0 0 0 -2.16-.63c-1.36 0-2.13.55-2.13 1.35 0 1.71 4.18.54 4.18 3 0 1.45-1.3 2.29-3.27 2.29a4.64 4.64 0 0 1 -2.92-.9z"/><path d="m388.56 206.42h1l-1.46 7.36h-1zm.26-2.27a.75.75 0 0 1 .77-.76.65.65 0 0 1 .68.63.76.76 0 0 1 -.78.78.65.65 0 0 1 -.67-.65z"/><path d="m391.85 210.73a4.18 4.18 0 0 1 4.26-4.37 3 3 0 0 1 3.35 3.11 4.18 4.18 0 0 1 -4.26 4.38 3 3 0 0 1 -3.35-3.12zm6.61-1.2a2.15 2.15 0 0 0 -2.42-2.3 3.23 3.23 0 0 0 -3.19 3.46 2.14 2.14 0 0 0 2.42 2.28 3.21 3.21 0 0 0 3.19-3.44z"/><path d="m409.44 208.75a5.18 5.18 0 0 1 -.08.85l-.84 4.18h-1l.84-4.2a3.25 3.25 0 0 0 .07-.67c0-1-.63-1.65-1.9-1.65a2.87 2.87 0 0 0 -3 2.57l-.78 3.95h-1l1.46-7.36h1l-.24 1.17a3.66 3.66 0 0 1 2.89-1.23 2.31 2.31 0 0 1 2.58 2.39z"/><path d="m416.93 210.73a4.18 4.18 0 0 1 4.26-4.37 3 3 0 0 1 3.34 3.11 4.18 4.18 0 0 1 -4.26 4.38 3 3 0 0 1 -3.34-3.12zm6.61-1.2a2.15 2.15 0 0 0 -2.42-2.3 3.23 3.23 0 0 0 -3.2 3.46 2.14 2.14 0 0 0 2.42 2.28 3.22 3.22 0 0 0 3.2-3.44z"/><path d="m429.6 205.6-.17.82h2.26l-.17.84h-2.23l-1.3 6.52h-1l1.31-6.52h-1.3l.15-.84h1.33l.19-.93a2.41 2.41 0 0 1 2.52-2.17 2.21 2.21 0 0 1 1.48.48l-.43.72a1.59 1.59 0 0 0 -1.05-.36c-.89 0-1.38.45-1.59 1.44z"/><path d="m436.55 213 .48-.79a4 4 0 0 0 2.55.82c1.42 0 2.18-.5 2.18-1.32 0-1.67-4.17-.52-4.17-3 0-1.4 1.26-2.3 3.19-2.3a4.5 4.5 0 0 1 2.5.69l-.42.79a3.73 3.73 0 0 0 -2.16-.63c-1.36 0-2.13.55-2.13 1.35 0 1.71 4.18.54 4.18 3 0 1.45-1.31 2.29-3.27 2.29a4.69 4.69 0 0 1 -2.93-.9z"/><path d="m453.34 206.42-1.47 7.36h-.95l.24-1.17a3.56 3.56 0 0 1 -2.84 1.24 2.3 2.3 0 0 1 -2.62-2.41 4.83 4.83 0 0 1 .08-.82l.84-4.2h1l-.84 4.2a3.16 3.16 0 0 0 -.07.66c0 1.06.61 1.68 1.87 1.68a2.88 2.88 0 0 0 3-2.58l.78-4z"/><path d="m455.64 210.73a4.17 4.17 0 0 1 4.28-4.37 3.06 3.06 0 0 1 2.9 1.47l-.84.49a2.26 2.26 0 0 0 -2.14-1.09 3.24 3.24 0 0 0 -3.21 3.46 2.15 2.15 0 0 0 2.45 2.28 2.86 2.86 0 0 0 2.33-1.06l.71.54a3.8 3.8 0 0 1 -3.08 1.4c-2.1 0-3.4-1.23-3.4-3.12z"/><path d="m472.22 208.75a4.32 4.32 0 0 1 -.09.85l-.84 4.18h-1l.84-4.2a4.13 4.13 0 0 0 .07-.67c0-1-.63-1.65-1.91-1.65a2.86 2.86 0 0 0 -3 2.57l-.79 3.95h-1l2.07-10.39h1l-.82 4.13a3.58 3.58 0 0 1 2.81-1.16c1.69 0 2.66.9 2.66 2.39z"/><path d="m124.84 226.26 2.65 4.32h-1.16l-2.27-3.72-2.06 1.59-.42 2.13h-1l2.07-10.39h1l-1.4 7 5.07-4h1.42z"/><path d="m137.47 225.55a4.11 4.11 0 0 1 -.08.84l-.84 4.19h-1l.85-4.2a4.13 4.13 0 0 0 .07-.67c0-1.05-.64-1.65-1.91-1.65a2.87 2.87 0 0 0 -3 2.57l-.78 4h-1l1.46-7.36h.95l-.23 1.17a3.62 3.62 0 0 1 2.88-1.23c1.67-.05 2.63.85 2.63 2.34z"/><path d="m140.27 227.53a4.18 4.18 0 0 1 4.26-4.37 3 3 0 0 1 3.35 3.11 4.18 4.18 0 0 1 -4.26 4.38 3 3 0 0 1 -3.35-3.12zm6.61-1.2a2.15 2.15 0 0 0 -2.42-2.3 3.23 3.23 0 0 0 -3.2 3.46 2.15 2.15 0 0 0 2.43 2.28 3.22 3.22 0 0 0 3.19-3.44z"/><path d="m162.3 223.22-4.16 7.36h-1l-1.23-6-3.45 6h-1l-1.44-7.36h.98l1.19 6.24 3.56-6.24h.84l1.23 6.24 3.5-6.24z"/><path d="m165.39 220.19h1l-2.07 10.39h-1z"/><path d="m169.05 227.18v.29c0 1.47.84 2.3 2.54 2.3a3.35 3.35 0 0 0 2.41-.92l.44.71a4.19 4.19 0 0 1 -2.94 1.09c-2.13 0-3.43-1.2-3.43-3.13a4.1 4.1 0 0 1 4.08-4.36 2.93 2.93 0 0 1 3.2 3.12 5.18 5.18 0 0 1 -.09.9zm.1-.74h5.26a2.53 2.53 0 0 0 0-.27 2.08 2.08 0 0 0 -2.31-2.17 3 3 0 0 0 -2.95 2.44z"/><path d="m186.43 220.19-2.07 10.39h-1l.24-1.16a3.81 3.81 0 0 1 -2.88 1.23 3 3 0 0 1 -3.2-3.12 4.14 4.14 0 0 1 4.16-4.37 2.77 2.77 0 0 1 2.8 1.6l.91-4.57zm-2.25 6.14a2.16 2.16 0 0 0 -2.43-2.3 3.23 3.23 0 0 0 -3.19 3.46 2.14 2.14 0 0 0 2.42 2.28 3.22 3.22 0 0 0 3.2-3.44z"/><path d="m196.47 223.22-1.29 6.47c-.52 2.6-1.89 3.68-4.28 3.68a4.64 4.64 0 0 1 -3.28-1.11l.59-.75a3.84 3.84 0 0 0 2.75 1 2.89 2.89 0 0 0 3.2-2.64l.17-.81a3.8 3.8 0 0 1 -2.94 1.26c-1.95 0-3.25-1.13-3.25-3a4.07 4.07 0 0 1 4.2-4.17 2.82 2.82 0 0 1 2.87 1.68l.31-1.62zm-1.68 2.95c0-1.34-.91-2.14-2.44-2.14a3.13 3.13 0 0 0 -3.21 3.25c0 1.34.9 2.14 2.44 2.14a3.13 3.13 0 0 0 3.21-3.25z"/><path d="m199.76 227.18a1.46 1.46 0 0 0 0 .29c0 1.47.84 2.3 2.54 2.3a3.35 3.35 0 0 0 2.41-.92l.44.71a4.19 4.19 0 0 1 -2.94 1.09c-2.13 0-3.43-1.2-3.43-3.13a4.1 4.1 0 0 1 4.08-4.36 2.93 2.93 0 0 1 3.2 3.12 5.18 5.18 0 0 1 -.09.9zm.09-.74h5.26a2.53 2.53 0 0 0 0-.27 2.08 2.08 0 0 0 -2.31-2.17 3 3 0 0 0 -2.95 2.44z"/><path d="m216.53 223.22-1.47 7.36h-.95l.24-1.16a3.79 3.79 0 0 1 -2.88 1.23 3 3 0 0 1 -3.2-3.12 4.14 4.14 0 0 1 4.16-4.37 2.76 2.76 0 0 1 2.8 1.6l.31-1.54zm-1.65 3.11a2.15 2.15 0 0 0 -2.42-2.3 3.23 3.23 0 0 0 -3.2 3.46 2.14 2.14 0 0 0 2.42 2.28 3.22 3.22 0 0 0 3.2-3.44z"/><path d="m227.14 226.27a4.15 4.15 0 0 1 -4.17 4.38 2.74 2.74 0 0 1 -2.82-1.68l-.32 1.61h-1l2.17-10.39h1l-.83 4.13a3.74 3.74 0 0 1 2.8-1.16 3 3 0 0 1 3.17 3.11zm-1 .06a2.15 2.15 0 0 0 -2.42-2.3 3.22 3.22 0 0 0 -3.18 3.46 2.15 2.15 0 0 0 2.43 2.28 3.2 3.2 0 0 0 3.16-3.44z"/><path d="m231.49 220.19h1l-2.08 10.39h-1z"/><path d="m235.16 227.18v.29c0 1.47.84 2.3 2.53 2.3a3.34 3.34 0 0 0 2.41-.92l.45.71a4.21 4.21 0 0 1 -2.94 1.09c-2.13 0-3.43-1.2-3.43-3.13a4.1 4.1 0 0 1 4.07-4.36 2.93 2.93 0 0 1 3.21 3.12 4.35 4.35 0 0 1 -.1.9zm.1-.74h5.25a1.27 1.27 0 0 0 0-.27 2.08 2.08 0 0 0 -2.32-2.17 3 3 0 0 0 -2.93 2.44z"/><path d="m250.06 228.36a2.64 2.64 0 0 0 -.06.46c0 .63.35 1 1.07 1a1.9 1.9 0 0 0 1.13-.38l.24.76a2.73 2.73 0 0 1 -1.64.47 1.6 1.6 0 0 1 -1.8-1.67 2.81 2.81 0 0 1 .05-.57l.86-4.34h-1.31l.16-.84h1.31l.33-1.62h1l-.32 1.62h2.24l-.17.84h-2.24z"/><path d="m255.85 227.18v.29c0 1.47.84 2.3 2.53 2.3a3.34 3.34 0 0 0 2.41-.92l.45.71a4.19 4.19 0 0 1 -2.94 1.09c-2.13 0-3.43-1.2-3.43-3.13a4.1 4.1 0 0 1 4.07-4.36 2.93 2.93 0 0 1 3.21 3.12 4.35 4.35 0 0 1 -.1.9zm.1-.74h5.25a1.27 1.27 0 0 0 0-.27 2.08 2.08 0 0 0 -2.31-2.17 3 3 0 0 0 -2.89 2.44z"/><path d="m272.63 223.22-1.47 7.36h-1l.23-1.16a3.77 3.77 0 0 1 -2.87 1.23 3 3 0 0 1 -3.21-3.12 4.15 4.15 0 0 1 4.16-4.37 2.76 2.76 0 0 1 2.81 1.6l.3-1.54zm-1.63 3.11a2.16 2.16 0 0 0 -2.43-2.3 3.23 3.23 0 0 0 -3.19 3.46 2.14 2.14 0 0 0 2.42 2.28 3.22 3.22 0 0 0 3.2-3.44z"/><path d="m274.91 227.53a4.18 4.18 0 0 1 4.28-4.37 3.06 3.06 0 0 1 2.9 1.47l-.84.49a2.26 2.26 0 0 0 -2.14-1.09 3.24 3.24 0 0 0 -3.21 3.46 2.15 2.15 0 0 0 2.45 2.28 2.86 2.86 0 0 0 2.33-1.06l.71.54a3.8 3.8 0 0 1 -3.08 1.4c-2.1 0-3.4-1.23-3.4-3.12z"/><path d="m291.49 225.55a4.14 4.14 0 0 1 -.09.84l-.84 4.19h-1l.84-4.2a4.13 4.13 0 0 0 .07-.67c0-1.05-.63-1.65-1.91-1.65a2.85 2.85 0 0 0 -3 2.57l-.79 4h-1l2.07-10.39h1l-.82 4.13a3.58 3.58 0 0 1 2.81-1.16c1.69-.05 2.66.85 2.66 2.34z"/><path d="m295.28 227.18a1.46 1.46 0 0 0 0 .29c0 1.47.84 2.3 2.54 2.3a3.35 3.35 0 0 0 2.41-.92l.45.71a4.23 4.23 0 0 1 -3 1.09c-2.13 0-3.43-1.2-3.43-3.13a4.1 4.1 0 0 1 4.08-4.36 2.93 2.93 0 0 1 3.21 3.12 5.16 5.16 0 0 1 -.1.9zm.09-.74h5.26a2.53 2.53 0 0 0 0-.27 2.08 2.08 0 0 0 -2.31-2.17 3 3 0 0 0 -2.95 2.44z"/><path d="m309 223.16-.18 1h-.28c-1.57 0-2.62.9-3 2.73l-.74 3.74h-1l1.45-7.36h1l-.26 1.34a3.33 3.33 0 0 1 3.01-1.45z"/><path d="m309.68 229.76.48-.79a4 4 0 0 0 2.55.82c1.41 0 2.18-.5 2.18-1.32 0-1.67-4.17-.52-4.17-3 0-1.4 1.26-2.3 3.19-2.3a4.53 4.53 0 0 1 2.5.69l-.43.79a3.7 3.7 0 0 0 -2.15-.63c-1.36 0-2.13.55-2.13 1.35 0 1.71 4.17.54 4.17 3 0 1.45-1.3 2.29-3.26 2.29a4.67 4.67 0 0 1 -2.93-.9z"/><path d="m317.84 229.93a.79.79 0 0 1 .79-.8.7.7 0 0 1 .71.72.78.78 0 0 1 -.77.8.72.72 0 0 1 -.73-.72z"/><path d="m331 221.67h-3.46l.18-.89h8l-.2.89h-3.52l-1.77 8.91h-1z"/><path d="m343.87 225.55a4.11 4.11 0 0 1 -.08.84l-.84 4.19h-1l.84-4.2a3.25 3.25 0 0 0 .07-.67c0-1.05-.63-1.65-1.9-1.65a2.87 2.87 0 0 0 -3 2.57l-.78 4h-1l2.08-10.39h1l-.83 4.13a3.6 3.6 0 0 1 2.82-1.16c1.66-.05 2.62.85 2.62 2.34z"/><path d="m347.66 227.18v.29c0 1.47.84 2.3 2.53 2.3a3.34 3.34 0 0 0 2.41-.92l.45.71a4.19 4.19 0 0 1 -2.94 1.09c-2.13 0-3.43-1.2-3.43-3.13a4.1 4.1 0 0 1 4.08-4.36 2.93 2.93 0 0 1 3.2 3.12 4.35 4.35 0 0 1 -.1.9zm.1-.74h5.24a1.27 1.27 0 0 0 0-.27 2.08 2.08 0 0 0 -2.31-2.17 3 3 0 0 0 -2.93 2.44z"/><path d="m373.3 223.22-4.16 7.36h-1l-1.24-6-3.44 6h-.95l-1.45-7.36h.94l1.19 6.24 3.56-6.24h.84l1.23 6.24 3.51-6.24z"/><path d="m382.3 223.22-1.47 7.36h-.95l.24-1.16a3.77 3.77 0 0 1 -2.87 1.23 3 3 0 0 1 -3.21-3.12 4.14 4.14 0 0 1 4.16-4.37 2.76 2.76 0 0 1 2.8 1.6l.31-1.54zm-1.65 3.11a2.15 2.15 0 0 0 -2.42-2.3 3.23 3.23 0 0 0 -3.2 3.46 2.15 2.15 0 0 0 2.43 2.28 3.22 3.22 0 0 0 3.19-3.44z"/><path d="m392.31 223.22-5.38 8.32c-.91 1.4-1.59 1.83-2.66 1.83a2.41 2.41 0 0 1 -1.75-.66l.53-.73a1.74 1.74 0 0 0 1.31.54c.63 0 1.12-.3 1.69-1.19l.52-.79-1.84-7.32h1l1.53 6.27 4-6.27z"/><path d="m399.6 228.36a4 4 0 0 0 -.05.46c0 .63.35 1 1.06 1a1.9 1.9 0 0 0 1.14-.38l.23.76a2.7 2.7 0 0 1 -1.63.47 1.61 1.61 0 0 1 -1.8-1.68 2.83 2.83 0 0 1 .06-.57l.85-4.34h-1.3l.15-.84h1.32l.32-1.62h1l-.32 1.62h2.24l-.17.84h-2.24z"/><path d="m412.43 225.55a5 5 0 0 1 -.08.84l-.84 4.19h-1l.84-4.2a4.13 4.13 0 0 0 .07-.67c0-1.05-.63-1.65-1.9-1.65a2.87 2.87 0 0 0 -3 2.57l-.79 4h-1l2.07-10.39h1l-.83 4.13a3.58 3.58 0 0 1 2.82-1.16 2.31 2.31 0 0 1 2.64 2.34z"/><path d="m416.22 227.18v.29c0 1.47.84 2.3 2.53 2.3a3.35 3.35 0 0 0 2.41-.92l.45.71a4.21 4.21 0 0 1 -2.94 1.09c-2.13 0-3.43-1.2-3.43-3.13a4.1 4.1 0 0 1 4.07-4.36 2.93 2.93 0 0 1 3.21 3.12 4.35 4.35 0 0 1 -.1.9zm.1-.74h5.25a2.53 2.53 0 0 0 0-.27 2.07 2.07 0 0 0 -2.31-2.17 3 3 0 0 0 -2.94 2.44z"/><path d="m431.12 228.36a2.64 2.64 0 0 0 -.06.46c0 .63.35 1 1.06 1a1.9 1.9 0 0 0 1.14-.38l.24.76a2.73 2.73 0 0 1 -1.64.47 1.6 1.6 0 0 1 -1.79-1.68 2.81 2.81 0 0 1 .05-.57l.86-4.34h-1.31l.16-.84h1.31l.33-1.62h1l-.32 1.62h2.24l-.17.84h-2.22z"/><path d="m436.91 227.18v.29c0 1.47.84 2.3 2.53 2.3a3.34 3.34 0 0 0 2.41-.92l.45.71a4.21 4.21 0 0 1 -2.94 1.09c-2.13 0-3.43-1.2-3.43-3.13a4.1 4.1 0 0 1 4.07-4.36 2.93 2.93 0 0 1 3.21 3.12 4.35 4.35 0 0 1 -.1.9zm.1-.74h5.25a1.27 1.27 0 0 0 0-.27 2.08 2.08 0 0 0 -2.26-2.17 3 3 0 0 0 -3 2.44z"/><path d="m453.69 223.22-1.47 7.36h-1l.24-1.16a3.77 3.77 0 0 1 -2.87 1.23 3 3 0 0 1 -3.21-3.12 4.15 4.15 0 0 1 4.16-4.37 2.76 2.76 0 0 1 2.8 1.6l.31-1.54zm-1.69 3.11a2.16 2.16 0 0 0 -2.43-2.3 3.23 3.23 0 0 0 -3.19 3.46 2.14 2.14 0 0 0 2.42 2.28 3.22 3.22 0 0 0 3.2-3.44z"/><path d="m456 227.53a4.17 4.17 0 0 1 4.28-4.37 3.07 3.07 0 0 1 2.9 1.47l-.84.49a2.26 2.26 0 0 0 -2.14-1.09 3.24 3.24 0 0 0 -3.21 3.46 2.15 2.15 0 0 0 2.45 2.28 2.87 2.87 0 0 0 2.33-1.06l.71.54a3.8 3.8 0 0 1 -3.08 1.4c-2.13 0-3.4-1.23-3.4-3.12z"/><path d="m472.55 225.55a4.14 4.14 0 0 1 -.09.84l-.84 4.19h-1l.84-4.2a4.13 4.13 0 0 0 .07-.67c0-1.05-.63-1.65-1.91-1.65a2.87 2.87 0 0 0 -3 2.57l-.78 4h-1l2.07-10.39h1l-.82 4.13a3.58 3.58 0 0 1 2.81-1.16c1.68-.05 2.65.85 2.65 2.34z"/><path d="m475.68 226.35h3.67l-.17.87h-3.67z"/><path d="m130.14 244v.29c0 1.47.84 2.3 2.53 2.3a3.34 3.34 0 0 0 2.41-.92l.45.71a4.21 4.21 0 0 1 -2.94 1.09c-2.13 0-3.43-1.2-3.43-3.13a4.1 4.1 0 0 1 4.07-4.36 2.93 2.93 0 0 1 3.21 3.12 4.35 4.35 0 0 1 -.1.9zm.1-.74h5.25a1.27 1.27 0 0 0 0-.27 2.08 2.08 0 0 0 -2.31-2.17 3 3 0 0 0 -2.94 2.42z"/><path d="m143.91 240-.19 1h-.28c-1.57 0-2.62.9-3 2.73l-.74 3.74h-1l1.46-7.36h.95l-.25 1.34a3.32 3.32 0 0 1 3.05-1.45z"/><path d="m144.55 246.56.47-.79a4 4 0 0 0 2.55.82c1.42 0 2.19-.49 2.19-1.32 0-1.67-4.18-.52-4.18-3 0-1.4 1.26-2.3 3.2-2.3a4.49 4.49 0 0 1 2.49.69l-.42.79a3.71 3.71 0 0 0 -2.16-.63c-1.36 0-2.13.55-2.13 1.35 0 1.71 4.18.54 4.18 3 0 1.45-1.31 2.29-3.27 2.29a4.64 4.64 0 0 1 -2.92-.9z"/><path d="m158.87 244v.29c0 1.47.84 2.3 2.53 2.3a3.35 3.35 0 0 0 2.41-.92l.45.71a4.21 4.21 0 0 1 -2.94 1.09c-2.13 0-3.44-1.2-3.44-3.13a4.11 4.11 0 0 1 4.12-4.34 2.93 2.93 0 0 1 3.21 3.12 4.35 4.35 0 0 1 -.1.9zm.1-.74h5.25a2.53 2.53 0 0 0 0-.27 2.07 2.07 0 0 0 -2.31-2.17 3 3 0 0 0 -2.91 2.42z"/><path d="m170.87 243.64 2.17 3.74h-1.04l-1.76-3.06-2.95 3.06h-1.18l3.71-3.81-2-3.55h1.05l1.65 2.88 2.78-2.88h1.14z"/><path d="m184 243.07a4.15 4.15 0 0 1 -4.17 4.38 2.75 2.75 0 0 1 -2.8-1.61l-.85 4.26h-1l2-10.08h1l-.24 1.17a3.74 3.74 0 0 1 2.87-1.23 3 3 0 0 1 3.19 3.11zm-1 .06a2.15 2.15 0 0 0 -2.42-2.3 3.21 3.21 0 0 0 -3.18 3.46 2.14 2.14 0 0 0 2.42 2.28 3.21 3.21 0 0 0 3.18-3.44z"/><path d="m188.38 237h1l-2.08 10.39h-1z"/><path d="m199.32 240-1.47 7.36h-.95l.23-1.16a3.77 3.77 0 0 1 -2.87 1.23 3 3 0 0 1 -3.21-3.12 4.15 4.15 0 0 1 4.16-4.37 2.76 2.76 0 0 1 2.81 1.6l.3-1.54zm-1.65 3.11a2.16 2.16 0 0 0 -2.43-2.3 3.24 3.24 0 0 0 -3.19 3.46 2.14 2.14 0 0 0 2.42 2.28 3.22 3.22 0 0 0 3.2-3.42z"/><path d="m203.12 240h1l-1.46 7.36h-1zm.25-2.27a.76.76 0 0 1 .78-.76.65.65 0 0 1 .68.63.76.76 0 0 1 -.78.78.66.66 0 0 1 -.68-.63z"/><path d="m214.17 242.35a5.18 5.18 0 0 1 -.08.85l-.84 4.18h-1l.84-4.2a3.25 3.25 0 0 0 .07-.67c0-1-.63-1.65-1.9-1.65a2.87 2.87 0 0 0 -3 2.57l-.78 3.95h-1l1.46-7.36h.95l-.24 1.17a3.66 3.66 0 0 1 2.89-1.23c1.67.04 2.63.9 2.63 2.39z"/><path d="m222.65 244v.29c0 1.47.84 2.3 2.53 2.3a3.34 3.34 0 0 0 2.41-.92l.45.71a4.21 4.21 0 0 1 -2.94 1.09c-2.13 0-3.43-1.2-3.43-3.13a4.1 4.1 0 0 1 4.07-4.36 2.93 2.93 0 0 1 3.21 3.12 4.35 4.35 0 0 1 -.1.9zm.1-.74h5.25a1.27 1.27 0 0 0 0-.27 2.08 2.08 0 0 0 -2.31-2.17 3 3 0 0 0 -2.94 2.42z"/><path d="m238.76 240-4.76 7.38h-1l-1.82-7.38h1l1.53 6.29 4-6.29z"/><path d="m240.45 244a1.46 1.46 0 0 0 0 .29c0 1.47.84 2.3 2.54 2.3a3.35 3.35 0 0 0 2.41-.92l.45.71a4.23 4.23 0 0 1 -3 1.09c-2.13 0-3.43-1.2-3.43-3.13a4.1 4.1 0 0 1 4.08-4.36 2.94 2.94 0 0 1 3.21 3.12 5.16 5.16 0 0 1 -.1.9zm.09-.74h5.26a2.53 2.53 0 0 0 0-.27 2.08 2.08 0 0 0 -2.31-2.17 3 3 0 0 0 -2.95 2.42z"/><path d="m254.21 240-.18 1h-.28c-1.57 0-2.62.9-3 2.73l-.74 3.74h-1l1.45-7.36h1l-.26 1.34a3.33 3.33 0 0 1 3.01-1.45z"/><path d="m263.56 240-5.38 8.32c-.91 1.4-1.59 1.83-2.66 1.83a2.41 2.41 0 0 1 -1.75-.66l.53-.73a1.74 1.74 0 0 0 1.31.54c.63 0 1.12-.3 1.69-1.19l.52-.79-1.82-7.32h1l1.53 6.27 4-6.27z"/><path d="m266.35 245.16a2.64 2.64 0 0 0 -.06.46c0 .63.35 1 1.06 1a1.9 1.9 0 0 0 1.14-.38l.24.76a2.75 2.75 0 0 1 -1.64.47 1.6 1.6 0 0 1 -1.79-1.68 2.81 2.81 0 0 1 .05-.57l.86-4.34h-1.31l.16-.84h1.31l.33-1.62h1l-.32 1.62h2.24l-.17.84h-2.25z"/><path d="m279.17 242.35a4.27 4.27 0 0 1 -.08.85l-.84 4.18h-1l.84-4.2a3.25 3.25 0 0 0 .07-.67c0-1-.63-1.65-1.9-1.65a2.87 2.87 0 0 0 -3 2.57l-.78 3.95h-1l2.08-10.38h1l-.83 4.13a3.6 3.6 0 0 1 2.82-1.16c1.66.03 2.62.89 2.62 2.38z"/><path d="m283.47 240h1l-1.47 7.38h-1zm.25-2.27a.75.75 0 0 1 .77-.76.66.66 0 0 1 .69.63.76.76 0 0 1 -.79.78.65.65 0 0 1 -.67-.63z"/><path d="m294.52 242.35a4.32 4.32 0 0 1 -.09.85l-.84 4.18h-1l.84-4.2a4.13 4.13 0 0 0 .07-.67c0-1-.63-1.65-1.91-1.65a2.86 2.86 0 0 0 -3 2.57l-.79 3.95h-1l1.45-7.36h1l-.24 1.17a3.62 3.62 0 0 1 2.88-1.23c1.66.04 2.63.9 2.63 2.39z"/><path d="m305.67 240-1.28 6.47c-.52 2.6-1.89 3.68-4.29 3.68a4.66 4.66 0 0 1 -3.28-1.11l.59-.75a3.86 3.86 0 0 0 2.76 1 2.89 2.89 0 0 0 3.19-2.63l.17-.82a3.79 3.79 0 0 1 -2.94 1.26c-1.95 0-3.25-1.13-3.25-3a4.07 4.07 0 0 1 4.2-4.17 2.82 2.82 0 0 1 2.87 1.68l.31-1.62zm-1.67 3c0-1.34-.91-2.14-2.43-2.14a3.12 3.12 0 0 0 -3.21 3.25c0 1.34.9 2.14 2.44 2.14a3.13 3.13 0 0 0 3.2-3.25z"/><path d="m314.21 240h1l-1.46 7.36h-1zm.25-2.27a.76.76 0 0 1 .77-.76.66.66 0 0 1 .69.63.76.76 0 0 1 -.79.78.65.65 0 0 1 -.67-.63z"/><path d="m316.79 246.56.47-.79a4 4 0 0 0 2.55.82c1.42 0 2.19-.49 2.19-1.32 0-1.67-4.18-.52-4.18-3 0-1.4 1.26-2.3 3.2-2.3a4.49 4.49 0 0 1 2.49.69l-.42.79a3.73 3.73 0 0 0 -2.16-.63c-1.36 0-2.13.55-2.13 1.35 0 1.71 4.18.54 4.18 3 0 1.45-1.31 2.29-3.27 2.29a4.64 4.64 0 0 1 -2.92-.9z"/><path d="m329.4 246.56.48-.79a4 4 0 0 0 2.54.82c1.42 0 2.19-.49 2.19-1.32 0-1.67-4.17-.52-4.17-3 0-1.4 1.26-2.3 3.19-2.3a4.47 4.47 0 0 1 2.49.69l-.42.79a3.7 3.7 0 0 0 -2.15-.63c-1.36 0-2.13.55-2.13 1.35 0 1.71 4.17.54 4.17 3 0 1.45-1.3 2.29-3.26 2.29a4.65 4.65 0 0 1 -2.93-.9z"/><path d="m338 244.33a4.18 4.18 0 0 1 4.26-4.37 3 3 0 0 1 3.35 3.11 4.18 4.18 0 0 1 -4.26 4.38 3 3 0 0 1 -3.35-3.12zm6.61-1.2a2.15 2.15 0 0 0 -2.42-2.3 3.24 3.24 0 0 0 -3.2 3.46 2.15 2.15 0 0 0 2.43 2.28 3.22 3.22 0 0 0 3.2-3.44z"/><path d="m360.82 240-1.47 7.36h-1l.23-1.16a3.77 3.77 0 0 1 -2.87 1.23 3 3 0 0 1 -3.2-3.12 4.14 4.14 0 0 1 4.16-4.37 2.76 2.76 0 0 1 2.8 1.6l.31-1.54zm-1.65 3.11a2.16 2.16 0 0 0 -2.43-2.3 3.24 3.24 0 0 0 -3.19 3.46 2.14 2.14 0 0 0 2.42 2.28 3.22 3.22 0 0 0 3.2-3.42z"/><path d="m376.25 242.33a4.74 4.74 0 0 1 -.1.87l-.84 4.18h-1l.84-4.2a3.51 3.51 0 0 0 .07-.69c0-1-.6-1.63-1.82-1.63a2.76 2.76 0 0 0 -2.86 2.46l-.81 4.06h-1l.84-4.2a4.13 4.13 0 0 0 .07-.67c0-1-.58-1.65-1.82-1.65a2.81 2.81 0 0 0 -2.88 2.57l-.79 3.95h-1l1.45-7.36h1l-.24 1.17a3.45 3.45 0 0 1 2.79-1.23 2.31 2.31 0 0 1 2.41 1.47 3.73 3.73 0 0 1 3.11-1.47c1.64.04 2.58.88 2.58 2.37z"/><path d="m387.29 240-1.47 7.36h-.95l.24-1.16a3.77 3.77 0 0 1 -2.87 1.23 3 3 0 0 1 -3.21-3.12 4.14 4.14 0 0 1 4.16-4.37 2.76 2.76 0 0 1 2.8 1.6l.31-1.54zm-1.65 3.11a2.15 2.15 0 0 0 -2.42-2.3 3.24 3.24 0 0 0 -3.2 3.46 2.15 2.15 0 0 0 2.43 2.28 3.22 3.22 0 0 0 3.19-3.42z"/><path d="m396.07 240.67-5.74 5.89h4.67l-.17.82h-6l.13-.65 5.74-5.87h-4.47l.17-.84h5.81z"/><path d="m399.3 240h1l-1.46 7.36h-1zm.25-2.27a.76.76 0 0 1 .77-.76.66.66 0 0 1 .69.63.76.76 0 0 1 -.78.78.66.66 0 0 1 -.68-.63z"/><path d="m410.35 242.35a5.18 5.18 0 0 1 -.08.85l-.84 4.18h-1l.84-4.2a4.13 4.13 0 0 0 .07-.67c0-1-.63-1.65-1.9-1.65a2.87 2.87 0 0 0 -3 2.57l-.78 3.95h-1l1.46-7.36h.95l-.24 1.17a3.66 3.66 0 0 1 2.89-1.23 2.31 2.31 0 0 1 2.63 2.39z"/><path d="m421.51 240-1.29 6.47c-.52 2.6-1.89 3.68-4.29 3.68a4.63 4.63 0 0 1 -3.27-1.11l.59-.75a3.84 3.84 0 0 0 2.75 1 2.89 2.89 0 0 0 3.2-2.63l.17-.82a3.81 3.81 0 0 1 -2.95 1.26c-1.94 0-3.25-1.13-3.25-3a4.08 4.08 0 0 1 4.21-4.17 2.82 2.82 0 0 1 2.87 1.68l.31-1.62zm-1.68 3c0-1.34-.91-2.14-2.44-2.14a3.13 3.13 0 0 0 -3.21 3.25c0 1.34.9 2.14 2.44 2.14a3.13 3.13 0 0 0 3.21-3.25z"/><path d="m430.19 245.16a2.64 2.64 0 0 0 -.06.46c0 .63.35 1 1.06 1a1.9 1.9 0 0 0 1.14-.38l.24.76a2.75 2.75 0 0 1 -1.64.47 1.61 1.61 0 0 1 -1.8-1.68 2.83 2.83 0 0 1 .06-.57l.86-4.34h-1.31l.16-.84h1.31l.33-1.62h1l-.32 1.62h2.24l-.17.84h-2.29z"/><path d="m443 242.35a5.18 5.18 0 0 1 -.08.85l-.84 4.18h-1l.84-4.2a3.25 3.25 0 0 0 .07-.67c0-1-.63-1.65-1.9-1.65a2.87 2.87 0 0 0 -3 2.57l-.78 3.95h-1l2.09-10.38h1l-.83 4.13a3.6 3.6 0 0 1 2.82-1.16c1.66.03 2.61.89 2.61 2.38z"/><path d="m454.07 240-1.47 7.36h-1l.24-1.16a3.77 3.77 0 0 1 -2.87 1.23 3 3 0 0 1 -3.21-3.12 4.14 4.14 0 0 1 4.24-4.31 2.76 2.76 0 0 1 2.8 1.6l.31-1.54zm-1.65 3.11a2.15 2.15 0 0 0 -2.42-2.3 3.24 3.24 0 0 0 -3.2 3.46 2.15 2.15 0 0 0 2.43 2.28 3.22 3.22 0 0 0 3.19-3.42z"/><path d="m458 245.16a2.64 2.64 0 0 0 -.06.46c0 .63.35 1 1.07 1a1.9 1.9 0 0 0 1.13-.38l.24.76a2.73 2.73 0 0 1 -1.64.47 1.6 1.6 0 0 1 -1.79-1.68 2.81 2.81 0 0 1 0-.57l.86-4.34h-1.31l.16-.84h1.34l.33-1.62h1l-.33 1.58h2.24l-.17.84h-2.24z"/><path d="m470 237.58h1l-2 9.8h-1z"/><path d="m125.39 256.82-1.47 7.36h-1l.24-1.16a3.77 3.77 0 0 1 -2.87 1.23 3 3 0 0 1 -3.21-3.12 4.14 4.14 0 0 1 4.16-4.37 2.76 2.76 0 0 1 2.8 1.6l.31-1.54zm-1.65 3.11a2.15 2.15 0 0 0 -2.42-2.3 3.23 3.23 0 0 0 -3.2 3.46 2.15 2.15 0 0 0 2.43 2.28 3.22 3.22 0 0 0 3.19-3.44z"/><path d="m140.82 259.13a5.47 5.47 0 0 1 -.09.86l-.85 4.19h-1l.84-4.2a2.88 2.88 0 0 0 .07-.69c0-1-.6-1.63-1.82-1.63a2.76 2.76 0 0 0 -2.86 2.46l-.81 4.06h-1l.84-4.2a4.13 4.13 0 0 0 .07-.67c0-1.05-.59-1.65-1.82-1.65a2.82 2.82 0 0 0 -2.89 2.57l-.78 3.95h-1l1.46-7.36h1l-.24 1.17a3.45 3.45 0 0 1 2.79-1.23 2.29 2.29 0 0 1 2.41 1.47 3.73 3.73 0 0 1 3.11-1.47c1.63 0 2.57.88 2.57 2.37z"/><path d="m147.58 263.36.47-.79a4 4 0 0 0 2.55.82c1.42 0 2.19-.5 2.19-1.32 0-1.67-4.18-.52-4.18-3 0-1.4 1.26-2.3 3.2-2.3a4.47 4.47 0 0 1 2.49.69l-.42.79a3.71 3.71 0 0 0 -2.16-.63c-1.35 0-2.13.55-2.13 1.35 0 1.71 4.18.54 4.18 3 0 1.45-1.3 2.29-3.27 2.29a4.64 4.64 0 0 1 -2.92-.9z"/><path d="m164.37 256.82-1.47 7.36h-1l.23-1.17a3.56 3.56 0 0 1 -2.84 1.24 2.31 2.31 0 0 1 -2.62-2.41 4.83 4.83 0 0 1 .08-.82l.84-4.2h1l-.84 4.2a4 4 0 0 0 -.07.66c0 1.06.61 1.68 1.88 1.68a2.88 2.88 0 0 0 3-2.58l.78-4z"/><path d="m171.91 256.76-.18 1h-.28c-1.57 0-2.62.9-3 2.73l-.75 3.74h-1l1.46-7.36h.95l-.25 1.34a3.31 3.31 0 0 1 3.05-1.45z"/><path d="m174.14 260.78a1.46 1.46 0 0 0 0 .29c0 1.47.84 2.3 2.54 2.3a3.35 3.35 0 0 0 2.41-.92l.44.71a4.19 4.19 0 0 1 -2.94 1.09c-2.13 0-3.43-1.2-3.43-3.13a4.1 4.1 0 0 1 4.08-4.36 2.94 2.94 0 0 1 3.21 3.12 5.16 5.16 0 0 1 -.1.9zm.09-.74h5.26a2.53 2.53 0 0 0 0-.27 2.08 2.08 0 0 0 -2.31-2.17 3 3 0 0 0 -2.95 2.4z"/><path d="m195.63 256.82-1.47 7.36h-.95l.23-1.16a3.77 3.77 0 0 1 -2.87 1.23 3 3 0 0 1 -3.2-3.12 4.14 4.14 0 0 1 4.16-4.37 2.76 2.76 0 0 1 2.8 1.6l.31-1.54zm-1.63 3.11a2.16 2.16 0 0 0 -2.43-2.3 3.23 3.23 0 0 0 -3.19 3.46 2.14 2.14 0 0 0 2.42 2.28 3.22 3.22 0 0 0 3.2-3.44z"/><path d="m200.05 253.79h1l-2.05 10.39h-1z"/><path d="m204.87 253.79h1l-2.07 10.39h-1z"/><path d="m213.92 262a4 4 0 0 0 0 .46c0 .63.35 1 1.06 1a1.9 1.9 0 0 0 1.14-.38l.24.76a2.75 2.75 0 0 1 -1.64.47 1.61 1.61 0 0 1 -1.8-1.68 2.83 2.83 0 0 1 .06-.57l.85-4.34h-1.3l.16-.84h1.31l.32-1.62h1l-.32 1.62h2.24l-.17.84h-2.24z"/><path d="m226.75 259.15a5 5 0 0 1 -.08.84l-.84 4.19h-1l.84-4.2a4.13 4.13 0 0 0 .07-.67c0-1.05-.63-1.65-1.9-1.65a2.87 2.87 0 0 0 -3 2.57l-.78 3.95h-1l2.07-10.39h1l-.83 4.13a3.58 3.58 0 0 1 2.82-1.16 2.31 2.31 0 0 1 2.63 2.39z"/><path d="m230.54 260.78v.29c0 1.47.84 2.3 2.53 2.3a3.34 3.34 0 0 0 2.41-.92l.45.71a4.21 4.21 0 0 1 -2.94 1.09c-2.13 0-3.43-1.2-3.43-3.13a4.1 4.1 0 0 1 4.07-4.36 2.93 2.93 0 0 1 3.21 3.12 4.35 4.35 0 0 1 -.1.9zm.1-.74h5.25a1.27 1.27 0 0 0 0-.27 2.08 2.08 0 0 0 -2.32-2.17 3 3 0 0 0 -2.93 2.4z"/><path d="m243.77 261.13a4.18 4.18 0 0 1 4.29-4.37 3.08 3.08 0 0 1 2.9 1.47l-.84.49a2.28 2.28 0 0 0 -2.15-1.09 3.24 3.24 0 0 0 -3.21 3.46 2.16 2.16 0 0 0 2.46 2.28 2.84 2.84 0 0 0 2.32-1.06l.72.54a3.8 3.8 0 0 1 -3.09 1.4c-2.1 0-3.4-1.25-3.4-3.12z"/><path d="m260.35 259.15a5 5 0 0 1 -.08.84l-.84 4.19h-1l.84-4.2a4.13 4.13 0 0 0 .07-.67c0-1.05-.63-1.65-1.9-1.65a2.87 2.87 0 0 0 -3 2.57l-.78 3.95h-1l2.07-10.39h1l-.83 4.13a3.58 3.58 0 0 1 2.82-1.16 2.31 2.31 0 0 1 2.63 2.39z"/><path d="m264.65 256.82h1l-1.46 7.36h-1zm.25-2.27a.75.75 0 0 1 .77-.76.65.65 0 0 1 .68.63.76.76 0 0 1 -.78.78.65.65 0 0 1 -.67-.65z"/><path d="m270.08 253.79h1l-2.08 10.39h-1z"/><path d="m281.62 253.79-2.08 10.39h-1l.24-1.16a3.77 3.77 0 0 1 -2.87 1.23 3 3 0 0 1 -3.21-3.12 4.14 4.14 0 0 1 4.16-4.37 2.77 2.77 0 0 1 2.8 1.6l.91-4.57zm-2.26 6.14a2.15 2.15 0 0 0 -2.42-2.3 3.23 3.23 0 0 0 -3.2 3.46 2.15 2.15 0 0 0 2.43 2.28 3.22 3.22 0 0 0 3.19-3.44z"/><path d="m288.54 256.76-.18 1h-.28c-1.57 0-2.62.9-3 2.73l-.74 3.74h-1l1.46-7.36h.95l-.25 1.34a3.31 3.31 0 0 1 3.04-1.45z"/><path d="m290.77 260.78a1.46 1.46 0 0 0 0 .29c0 1.47.84 2.3 2.54 2.3a3.35 3.35 0 0 0 2.41-.92l.45.71a4.22 4.22 0 0 1 -2.94 1.09c-2.13 0-3.44-1.2-3.44-3.13a4.11 4.11 0 0 1 4.08-4.36 2.93 2.93 0 0 1 3.21 3.12 4.35 4.35 0 0 1 -.1.9zm.1-.74h5.25a2.53 2.53 0 0 0 0-.27 2.07 2.07 0 0 0 -2.31-2.17 3 3 0 0 0 -2.94 2.4z"/><path d="m307 259.15a5 5 0 0 1 -.08.84l-.84 4.19h-1l.92-4.18a4.13 4.13 0 0 0 .07-.67c0-1.05-.63-1.65-1.9-1.65a2.87 2.87 0 0 0 -3 2.57l-.79 3.95h-1l1.46-7.36h.95l-.24 1.17a3.64 3.64 0 0 1 2.89-1.23 2.31 2.31 0 0 1 2.56 2.37z"/><path d="m327.68 259.13a4.55 4.55 0 0 1 -.1.86l-.84 4.19h-1l.84-4.2a3.51 3.51 0 0 0 .07-.69c0-1-.61-1.63-1.83-1.63a2.74 2.74 0 0 0 -2.85 2.46l-.82 4.06h-1l.85-4.18a4.13 4.13 0 0 0 .07-.67c0-1.05-.59-1.65-1.82-1.65a2.82 2.82 0 0 0 -2.89 2.57l-.78 3.95h-1l1.45-7.36h.97l-.23 1.17a3.43 3.43 0 0 1 2.78-1.23 2.29 2.29 0 0 1 2.41 1.47 3.74 3.74 0 0 1 3.11-1.47c1.67-.02 2.61.86 2.61 2.35z"/><path d="m338.61 256.82-1.47 7.36h-.95l.23-1.17a3.54 3.54 0 0 1 -2.84 1.24 2.31 2.31 0 0 1 -2.62-2.41 4 4 0 0 1 .09-.82l.84-4.2h1l-.89 4.18a4 4 0 0 0 -.07.66c0 1.06.62 1.68 1.88 1.68a2.88 2.88 0 0 0 3-2.58l.79-4z"/><path d="m340.19 263.36.47-.79a4 4 0 0 0 2.55.82c1.42 0 2.19-.5 2.19-1.32 0-1.67-4.18-.52-4.18-3 0-1.4 1.26-2.3 3.2-2.3a4.47 4.47 0 0 1 2.49.69l-.42.79a3.71 3.71 0 0 0 -2.16-.63c-1.36 0-2.13.55-2.13 1.35 0 1.71 4.18.54 4.18 3 0 1.45-1.3 2.29-3.27 2.29a4.64 4.64 0 0 1 -2.92-.9z"/><path d="m350.46 262a4 4 0 0 0 0 .46c0 .63.35 1 1.06 1a1.9 1.9 0 0 0 1.14-.38l.23.76a2.7 2.7 0 0 1 -1.63.47 1.61 1.61 0 0 1 -1.8-1.68 2.83 2.83 0 0 1 .06-.57l.85-4.34h-1.37l.15-.84h1.32l.32-1.62h1l-.32 1.62h2.24l-.17.84h-2.24z"/><path d="m368.58 259.87a4.15 4.15 0 0 1 -4.17 4.38 2.74 2.74 0 0 1 -2.82-1.68l-.32 1.61h-.95l2.07-10.39h1l-.83 4.13a3.74 3.74 0 0 1 2.8-1.16 3 3 0 0 1 3.22 3.11zm-1 .06a2.16 2.16 0 0 0 -2.43-2.3 3.22 3.22 0 0 0 -3.18 3.46 2.15 2.15 0 0 0 2.43 2.28 3.21 3.21 0 0 0 3.18-3.44z"/><path d="m371.79 260.78a1.46 1.46 0 0 0 0 .29c0 1.47.84 2.3 2.54 2.3a3.35 3.35 0 0 0 2.41-.92l.44.71a4.19 4.19 0 0 1 -2.94 1.09c-2.13 0-3.43-1.2-3.43-3.13a4.1 4.1 0 0 1 4.08-4.36 2.94 2.94 0 0 1 3.21 3.12 5.16 5.16 0 0 1 -.1.9zm.09-.74h5.26a2.53 2.53 0 0 0 0-.27 2.08 2.08 0 0 0 -2.31-2.17 3 3 0 0 0 -2.95 2.4z"/><path d="m393.2 256.82-1.48 7.36h-1l.28-1.18a3.56 3.56 0 0 1 -2.84 1.24 2.3 2.3 0 0 1 -2.62-2.41 4.83 4.83 0 0 1 .08-.82l.84-4.2h1l-.84 4.2a3.16 3.16 0 0 0 -.07.66c0 1.06.61 1.68 1.87 1.68a2.88 2.88 0 0 0 3-2.58l.78-4z"/><path d="m403.25 259.15a4.14 4.14 0 0 1 -.09.84l-.84 4.19h-1l.84-4.2a4.13 4.13 0 0 0 .07-.67c0-1.05-.63-1.65-1.91-1.65a2.87 2.87 0 0 0 -3 2.57l-.78 3.95h-1l1.45-7.36h1l-.24 1.17a3.62 3.62 0 0 1 2.88-1.23c1.65 0 2.62.9 2.62 2.39z"/><path d="m414.91 253.79-2.07 10.39h-1l.24-1.16a3.77 3.77 0 0 1 -2.87 1.23 3 3 0 0 1 -3.21-3.12 4.15 4.15 0 0 1 4.16-4.37 2.77 2.77 0 0 1 2.8 1.6l.91-4.57zm-2.26 6.14a2.15 2.15 0 0 0 -2.42-2.3 3.23 3.23 0 0 0 -3.19 3.46 2.14 2.14 0 0 0 2.42 2.28 3.22 3.22 0 0 0 3.19-3.44z"/><path d="m417.58 260.78a1.46 1.46 0 0 0 0 .29c0 1.47.85 2.3 2.54 2.3a3.35 3.35 0 0 0 2.41-.92l.45.71a4.22 4.22 0 0 1 -2.94 1.09c-2.13 0-3.44-1.2-3.44-3.13a4.11 4.11 0 0 1 4.08-4.36 2.93 2.93 0 0 1 3.21 3.12 4.35 4.35 0 0 1 -.1.9zm.1-.74h5.25a2.53 2.53 0 0 0 0-.27 2.08 2.08 0 0 0 -2.31-2.17 3 3 0 0 0 -2.94 2.4z"/><path d="m431.34 256.76-.18 1h-.28c-1.57 0-2.62.9-3 2.73l-.74 3.74h-1l1.46-7.36h.95l-.25 1.34a3.31 3.31 0 0 1 3.04-1.45z"/><path d="m432 263.36.48-.79a4 4 0 0 0 2.55.82c1.41 0 2.18-.5 2.18-1.32 0-1.67-4.17-.52-4.17-3 0-1.4 1.26-2.3 3.19-2.3a4.5 4.5 0 0 1 2.5.69l-.42.79a3.73 3.73 0 0 0 -2.16-.63c-1.36 0-2.13.55-2.13 1.35 0 1.71 4.17.54 4.17 3 0 1.45-1.3 2.29-3.26 2.29a4.69 4.69 0 0 1 -2.93-.9z"/><path d="m442.26 262a2.64 2.64 0 0 0 -.06.46c0 .63.35 1 1.07 1a1.88 1.88 0 0 0 1.13-.38l.24.76a2.73 2.73 0 0 1 -1.64.47 1.61 1.61 0 0 1 -1.79-1.68 2.26 2.26 0 0 1 .06-.57l.85-4.34h-1.3l.15-.84h1.32l.32-1.62h1l-.33 1.62h2.24l-.16.84h-2.24z"/><path d="m455.33 256.82-1.47 7.36h-1l.24-1.16a3.77 3.77 0 0 1 -2.87 1.23 3 3 0 0 1 -3.21-3.12 4.15 4.15 0 0 1 4.16-4.37 2.76 2.76 0 0 1 2.8 1.6l.31-1.54zm-1.66 3.11a2.15 2.15 0 0 0 -2.42-2.3 3.23 3.23 0 0 0 -3.19 3.46 2.14 2.14 0 0 0 2.42 2.28 3.22 3.22 0 0 0 3.19-3.44z"/><path d="m465.36 259.15a4.11 4.11 0 0 1 -.08.84l-.84 4.19h-1l.85-4.2a4.13 4.13 0 0 0 .07-.67c0-1.05-.63-1.65-1.91-1.65a2.87 2.87 0 0 0 -3 2.57l-.78 3.95h-1l1.46-7.36h.95l-.24 1.17a3.66 3.66 0 0 1 2.89-1.23c1.67 0 2.63.9 2.63 2.39z"/><path d="m477 253.79-2 10.39h-1l.24-1.16a3.77 3.77 0 0 1 -2.87 1.23 3 3 0 0 1 -3.21-3.12 4.14 4.14 0 0 1 4.16-4.37 2.77 2.77 0 0 1 2.8 1.6l.91-4.57zm-2.26 6.14a2.15 2.15 0 0 0 -2.42-2.3 3.23 3.23 0 0 0 -3.2 3.46 2.15 2.15 0 0 0 2.43 2.28 3.22 3.22 0 0 0 3.22-3.44z"/><path d="m479.07 260h3.67l-.17.87h-3.67z"/><path d="m125.41 273.62h1l-1.41 7.38h-1zm.25-2.27a.75.75 0 0 1 .77-.76.66.66 0 0 1 .69.63.76.76 0 0 1 -.79.78.65.65 0 0 1 -.67-.65z"/><path d="m136.46 276a5.18 5.18 0 0 1 -.08.85l-.84 4.18h-1l.84-4.2a4.13 4.13 0 0 0 .07-.67c0-1.05-.63-1.65-1.9-1.65a2.87 2.87 0 0 0 -3 2.57l-.79 4h-1l1.46-7.36h1l-.24 1.17a3.64 3.64 0 0 1 2.89-1.23 2.31 2.31 0 0 1 2.59 2.34z"/><path d="m147.62 273.62-1.29 6.47c-.52 2.6-1.89 3.68-4.29 3.68a4.68 4.68 0 0 1 -3.28-1.11l.59-.75a3.88 3.88 0 0 0 2.76 1 2.88 2.88 0 0 0 3.2-2.63l.16-.82a3.79 3.79 0 0 1 -2.94 1.26c-1.94 0-3.25-1.13-3.25-3a4.07 4.07 0 0 1 4.21-4.17 2.83 2.83 0 0 1 2.87 1.68l.3-1.62zm-1.68 2.95c0-1.34-.91-2.14-2.44-2.14a3.13 3.13 0 0 0 -3.21 3.25c0 1.34.9 2.14 2.44 2.14a3.13 3.13 0 0 0 3.21-3.25z"/><path d="m156.15 273.62h1l-1.46 7.38h-1zm.26-2.27a.75.75 0 0 1 .77-.76.65.65 0 0 1 .68.63.76.76 0 0 1 -.78.78.65.65 0 0 1 -.67-.65z"/><path d="m161.11 278.76a2.64 2.64 0 0 0 -.06.46c0 .63.35 1 1.07 1a1.88 1.88 0 0 0 1.13-.38l.24.76a2.73 2.73 0 0 1 -1.64.47 1.61 1.61 0 0 1 -1.79-1.68 2.26 2.26 0 0 1 .06-.57l.85-4.34h-1.3l.15-.84h1.32l.32-1.62h1l-.32 1.62h2.24l-.16.84h-2.22z"/><path d="m183.31 273.62-4.16 7.38h-1l-1.15-6-3.45 6h-.95l-1.45-7.36h.85l1.2 6.24 3.55-6.24h.84l1.24 6.24 3.5-6.24z"/><path d="m185 277.58a1.46 1.46 0 0 0 0 .29c0 1.48.84 2.3 2.54 2.3a3.35 3.35 0 0 0 2.41-.92l.44.71a4.19 4.19 0 0 1 -2.94 1.09c-2.13 0-3.43-1.2-3.43-3.13a4.1 4.1 0 0 1 4.08-4.36 2.93 2.93 0 0 1 3.2 3.12 5.18 5.18 0 0 1 -.09.9zm.09-.74h5.26a2.53 2.53 0 0 0 0-.27 2.08 2.08 0 0 0 -2.31-2.17 3 3 0 0 0 -2.91 2.44z"/><path d="m195.69 270.59h1l-2.08 10.41h-1z"/><path d="m200.5 270.59h1l-2.07 10.41h-1z"/><path d="m216.16 273.62-1.47 7.38h-.95l.24-1.16a3.81 3.81 0 0 1 -2.88 1.23 3 3 0 0 1 -3.2-3.12 4.14 4.14 0 0 1 4.16-4.37 2.76 2.76 0 0 1 2.8 1.6l.31-1.54zm-1.65 3.11a2.16 2.16 0 0 0 -2.43-2.3 3.24 3.24 0 0 0 -3.19 3.46 2.14 2.14 0 0 0 2.42 2.28 3.22 3.22 0 0 0 3.2-3.44z"/><path d="m226.2 276a4.32 4.32 0 0 1 -.09.85l-.84 4.18h-1l.84-4.2a4.13 4.13 0 0 0 .07-.67c0-1.05-.63-1.65-1.91-1.65a2.87 2.87 0 0 0 -3 2.57l-.79 4h-1l1.45-7.36h1l-.24 1.17a3.62 3.62 0 0 1 2.88-1.23c1.66-.1 2.63.8 2.63 2.34z"/><path d="m237.86 270.59-2.07 10.41h-1l.24-1.16a3.77 3.77 0 0 1 -2.87 1.23 3 3 0 0 1 -3.21-3.12 4.15 4.15 0 0 1 4.16-4.37 2.79 2.79 0 0 1 2.81 1.6l.91-4.57zm-2.25 6.14a2.16 2.16 0 0 0 -2.43-2.3 3.24 3.24 0 0 0 -3.19 3.46 2.14 2.14 0 0 0 2.42 2.28 3.22 3.22 0 0 0 3.2-3.44z"/><path d="m244.25 277.93a4.18 4.18 0 0 1 4.29-4.37 3.08 3.08 0 0 1 2.9 1.47l-.84.49a2.27 2.27 0 0 0 -2.14-1.09 3.24 3.24 0 0 0 -3.21 3.46 2.15 2.15 0 0 0 2.45 2.28 2.84 2.84 0 0 0 2.32-1.06l.72.54a3.8 3.8 0 0 1 -3.08 1.4c-2.1 0-3.41-1.23-3.41-3.12z"/><path d="m255.22 270.59h1l-2.08 10.41h-1z"/><path d="m258.88 277.58v.29c0 1.48.84 2.3 2.54 2.3a3.31 3.31 0 0 0 2.4-.92l.45.71a4.19 4.19 0 0 1 -2.94 1.09c-2.13 0-3.43-1.2-3.43-3.13a4.1 4.1 0 0 1 4.08-4.36 2.93 2.93 0 0 1 3.2 3.12 5.18 5.18 0 0 1 -.09.9zm.1-.74h5.26a2.53 2.53 0 0 0 0-.27 2.08 2.08 0 0 0 -2.31-2.17 3 3 0 0 0 -2.93 2.44z"/><path d="m275.66 273.62-1.47 7.38h-.95l.23-1.16a3.77 3.77 0 0 1 -2.87 1.23 3 3 0 0 1 -3.2-3.12 4.14 4.14 0 0 1 4.16-4.37 2.76 2.76 0 0 1 2.8 1.6l.3-1.54zm-1.66 3.11a2.16 2.16 0 0 0 -2.43-2.3 3.24 3.24 0 0 0 -3.19 3.46 2.14 2.14 0 0 0 2.42 2.28 3.22 3.22 0 0 0 3.2-3.44z"/><path d="m283.19 273.56-.18 1h-.28c-1.57 0-2.62.9-3 2.73l-.73 3.71h-1l1.45-7.36h1l-.26 1.34a3.33 3.33 0 0 1 3-1.42z"/><path d="m286 273.62h1l-1.45 7.38h-1zm.25-2.27a.75.75 0 0 1 .77-.76.65.65 0 0 1 .68.63.76.76 0 0 1 -.78.78.65.65 0 0 1 -.65-.65z"/><path d="m297.07 276a4.32 4.32 0 0 1 -.09.85l-.84 4.18h-1l.84-4.2a4.13 4.13 0 0 0 .07-.67c0-1.05-.63-1.65-1.91-1.65a2.87 2.87 0 0 0 -3 2.57l-.78 4h-1l1.46-7.36h.95l-.23 1.17a3.62 3.62 0 0 1 2.88-1.23c1.68-.1 2.65.8 2.65 2.34z"/><path d="m308.22 273.62-1.29 6.47c-.51 2.6-1.89 3.68-4.28 3.68a4.66 4.66 0 0 1 -3.28-1.11l.59-.75a3.86 3.86 0 0 0 2.76 1 2.88 2.88 0 0 0 3.19-2.63l.17-.82a3.8 3.8 0 0 1 -2.94 1.26c-1.95 0-3.25-1.13-3.25-3a4.07 4.07 0 0 1 4.2-4.17 2.82 2.82 0 0 1 2.87 1.68l.31-1.62zm-1.68 2.95c0-1.34-.91-2.14-2.44-2.14a3.12 3.12 0 0 0 -3.2 3.25c0 1.34.89 2.14 2.43 2.14a3.13 3.13 0 0 0 3.21-3.25z"/><path d="m316.9 278.76a2.64 2.64 0 0 0 -.06.46c0 .63.35 1 1.07 1a1.88 1.88 0 0 0 1.13-.38l.24.76a2.73 2.73 0 0 1 -1.64.47 1.61 1.61 0 0 1 -1.79-1.68 2.26 2.26 0 0 1 .06-.57l.85-4.34h-1.3l.15-.84h1.32l.32-1.62h1l-.32 1.62h2.24l-.16.84h-2.25z"/><path d="m329.73 276a4.32 4.32 0 0 1 -.09.85l-.84 4.15h-1l.84-4.2a4.13 4.13 0 0 0 .07-.67c0-1.05-.63-1.65-1.91-1.65a2.85 2.85 0 0 0 -3 2.57l-.79 4h-1l2.07-10.39h1l-.82 4.13a3.58 3.58 0 0 1 2.81-1.16c1.69-.07 2.66.83 2.66 2.37z"/><path d="m333.52 277.58a1.46 1.46 0 0 0 0 .29c0 1.48.84 2.3 2.54 2.3a3.35 3.35 0 0 0 2.41-.92l.45.71a4.23 4.23 0 0 1 -2.95 1.09c-2.12 0-3.43-1.2-3.43-3.13a4.11 4.11 0 0 1 4.08-4.36 2.94 2.94 0 0 1 3.21 3.12 5.16 5.16 0 0 1 -.1.9zm.09-.74h5.26a2.53 2.53 0 0 0 0-.27 2.08 2.08 0 0 0 -2.31-2.17 3 3 0 0 0 -2.95 2.44z"/><path d="m343.55 273.62h1l-1.46 7.38h-1zm.26-2.27a.75.75 0 0 1 .77-.76.65.65 0 0 1 .68.63.76.76 0 0 1 -.78.78.65.65 0 0 1 -.67-.65z"/><path d="m352.1 273.56-.19 1h-.28c-1.56 0-2.62.9-3 2.73l-.74 3.74h-1l1.46-7.36h.95l-.25 1.34a3.33 3.33 0 0 1 3.05-1.45z"/><path d="m366.56 276.67a4.15 4.15 0 0 1 -4.17 4.38 2.74 2.74 0 0 1 -2.82-1.68l-.32 1.61h-.95l2.07-10.39h1l-.82 4.13a3.71 3.71 0 0 1 2.8-1.16 3 3 0 0 1 3.21 3.11zm-1 .06a2.15 2.15 0 0 0 -2.42-2.3 3.21 3.21 0 0 0 -3.18 3.46 2.14 2.14 0 0 0 2.42 2.28 3.21 3.21 0 0 0 3.17-3.44z"/><path d="m377 273.62-1.44 7.38h-.95l.24-1.16a3.79 3.79 0 0 1 -2.87 1.23 3 3 0 0 1 -3.21-3.12 4.14 4.14 0 0 1 4.16-4.37 2.76 2.76 0 0 1 2.8 1.6l.31-1.54zm-1.65 3.11a2.15 2.15 0 0 0 -2.42-2.3 3.24 3.24 0 0 0 -3.2 3.46 2.14 2.14 0 0 0 2.42 2.28 3.22 3.22 0 0 0 3.23-3.44z"/><path d="m378.59 280.16.48-.79a4 4 0 0 0 2.55.82c1.42 0 2.19-.49 2.19-1.32 0-1.67-4.18-.52-4.18-3 0-1.4 1.26-2.3 3.2-2.3a4.49 4.49 0 0 1 2.49.69l-.42.79a3.73 3.73 0 0 0 -2.16-.63c-1.36 0-2.13.55-2.13 1.35 0 1.71 4.18.55 4.18 3 0 1.45-1.31 2.29-3.27 2.29a4.69 4.69 0 0 1 -2.93-.9z"/><path d="m388.73 273.62h1l-1.46 7.38h-1zm.25-2.27a.76.76 0 0 1 .77-.76.66.66 0 0 1 .69.63.76.76 0 0 1 -.78.78.66.66 0 0 1 -.66-.65z"/><path d="m392 277.93a4.18 4.18 0 0 1 4.29-4.37 3.08 3.08 0 0 1 2.9 1.47l-.84.49a2.28 2.28 0 0 0 -2.15-1.09 3.23 3.23 0 0 0 -3.2 3.46 2.15 2.15 0 0 0 2.45 2.28 2.84 2.84 0 0 0 2.32-1.06l.72.54a3.8 3.8 0 0 1 -3.09 1.4c-2.08 0-3.4-1.23-3.4-3.12z"/><path d="m405.67 277.93a4.18 4.18 0 0 1 4.29-4.37 3.08 3.08 0 0 1 2.9 1.47l-.84.49a2.28 2.28 0 0 0 -2.15-1.09 3.24 3.24 0 0 0 -3.21 3.46 2.16 2.16 0 0 0 2.46 2.28 2.84 2.84 0 0 0 2.32-1.06l.72.54a3.81 3.81 0 0 1 -3.08 1.4c-2.08 0-3.41-1.23-3.41-3.12z"/><path d="m414.48 277.93a4.18 4.18 0 0 1 4.26-4.37 3 3 0 0 1 3.34 3.11 4.18 4.18 0 0 1 -4.26 4.38 3 3 0 0 1 -3.34-3.12zm6.61-1.2a2.16 2.16 0 0 0 -2.43-2.3 3.24 3.24 0 0 0 -3.19 3.46 2.14 2.14 0 0 0 2.42 2.28 3.22 3.22 0 0 0 3.2-3.44z"/><path d="m432.07 276a4.32 4.32 0 0 1 -.09.85l-.84 4.18h-1l.84-4.2a4.13 4.13 0 0 0 .07-.67c0-1.05-.63-1.65-1.91-1.65a2.87 2.87 0 0 0 -3 2.57l-.78 4h-1l1.46-7.36h.95l-.23 1.17a3.62 3.62 0 0 1 2.88-1.23c1.68-.1 2.65.8 2.65 2.34z"/><path d="m434.86 277.93a4.18 4.18 0 0 1 4.29-4.37 3.08 3.08 0 0 1 2.9 1.47l-.84.49a2.28 2.28 0 0 0 -2.15-1.09 3.23 3.23 0 0 0 -3.2 3.46 2.15 2.15 0 0 0 2.45 2.28 2.84 2.84 0 0 0 2.32-1.06l.72.54a3.8 3.8 0 0 1 -3.09 1.4c-2.1 0-3.4-1.23-3.4-3.12z"/><path d="m444.66 277.58v.29c0 1.48.84 2.3 2.53 2.3a3.34 3.34 0 0 0 2.41-.92l.45.71a4.21 4.21 0 0 1 -2.94 1.09c-2.13 0-3.43-1.2-3.43-3.13a4.1 4.1 0 0 1 4.07-4.36 2.93 2.93 0 0 1 3.21 3.12 4.35 4.35 0 0 1 -.1.9zm.1-.74h5.24a1.27 1.27 0 0 0 0-.27 2.08 2.08 0 0 0 -2.32-2.17 3 3 0 0 0 -2.92 2.44z"/><path d="m461.51 276.67a4.15 4.15 0 0 1 -4.18 4.38 2.75 2.75 0 0 1 -2.8-1.61l-.84 4.26h-1l2-10.08h.95l-.24 1.17a3.74 3.74 0 0 1 2.88-1.23 3 3 0 0 1 3.23 3.11zm-1 .06a2.15 2.15 0 0 0 -2.42-2.3 3.21 3.21 0 0 0 -3.18 3.46 2.14 2.14 0 0 0 2.42 2.28 3.21 3.21 0 0 0 3.17-3.44z"/><path d="m465.38 278.76a2.58 2.58 0 0 0 -.05.46c0 .63.34 1 1.06 1a1.85 1.85 0 0 0 1.13-.38l.24.76a2.73 2.73 0 0 1 -1.64.47 1.61 1.61 0 0 1 -1.79-1.68 2.26 2.26 0 0 1 .06-.57l.85-4.34h-1.3l.15-.84h1.32l.32-1.62h1l-.33 1.62h2.25l-.17.84h-2.24z"/><path d="m469.73 280.16.48-.79a4 4 0 0 0 2.55.82c1.41 0 2.18-.49 2.18-1.32 0-1.67-4.17-.52-4.17-3 0-1.4 1.26-2.3 3.19-2.3a4.5 4.5 0 0 1 2.5.69l-.46.74a3.73 3.73 0 0 0 -2.16-.63c-1.36 0-2.13.55-2.13 1.35 0 1.71 4.17.55 4.17 3 0 1.45-1.3 2.29-3.26 2.29a4.69 4.69 0 0 1 -2.89-.85z"/><path d="m173.88 290.42-4.16 7.36h-1l-1.23-6-3.45 6h-.95l-1.44-7.36h.91l1.19 6.24 3.55-6.24h.84l1.24 6.24 3.5-6.24z"/><path d="m182.58 292.75a5.18 5.18 0 0 1 -.08.85l-.84 4.18h-1l.84-4.2a3.25 3.25 0 0 0 .07-.67c0-1.05-.63-1.65-1.9-1.65a2.87 2.87 0 0 0 -3 2.57l-.78 3.95h-1l2.11-10.39h1l-.83 4.13a3.58 3.58 0 0 1 2.82-1.16c1.63 0 2.59.9 2.59 2.39z"/><path d="m186.88 290.42h1l-1.46 7.36h-1zm.25-2.27a.75.75 0 0 1 .77-.76.65.65 0 0 1 .68.63.76.76 0 0 1 -.78.78.65.65 0 0 1 -.67-.65z"/><path d="m190.16 294.73a4.18 4.18 0 0 1 4.29-4.37 3.07 3.07 0 0 1 2.9 1.47l-.84.49a2.26 2.26 0 0 0 -2.14-1.09 3.24 3.24 0 0 0 -3.21 3.46 2.15 2.15 0 0 0 2.45 2.28 2.87 2.87 0 0 0 2.33-1.06l.71.54a3.8 3.8 0 0 1 -3.08 1.4c-2.1 0-3.41-1.23-3.41-3.12z"/><path d="m206.75 292.75a4.32 4.32 0 0 1 -.09.85l-.84 4.18h-1l.84-4.2a4.13 4.13 0 0 0 .07-.67c0-1.05-.63-1.65-1.91-1.65a2.87 2.87 0 0 0 -3 2.57l-.78 3.95h-1l2.07-10.39h1l-.82 4.13a3.58 3.58 0 0 1 2.81-1.16c1.68 0 2.65.9 2.65 2.39z"/><path d="m215.76 290.42h1l-1.45 7.36h-1zm.25-2.27a.75.75 0 0 1 .77-.76.66.66 0 0 1 .69.63.76.76 0 0 1 -.79.78.65.65 0 0 1 -.68-.65z"/><path d="m218.33 297 .48-.79a4 4 0 0 0 2.55.82c1.41 0 2.18-.5 2.18-1.32 0-1.67-4.17-.52-4.17-3 0-1.4 1.26-2.3 3.19-2.3a4.5 4.5 0 0 1 2.5.69l-.42.79a3.73 3.73 0 0 0 -2.16-.63c-1.36 0-2.13.55-2.13 1.35 0 1.71 4.17.55 4.17 3 0 1.45-1.3 2.29-3.26 2.29a4.69 4.69 0 0 1 -2.93-.9z"/><path d="m231 297 .47-.79a4 4 0 0 0 2.53.79c1.42 0 2.19-.5 2.19-1.32 0-1.67-4.18-.52-4.18-3 0-1.4 1.26-2.3 3.2-2.3a4.47 4.47 0 0 1 2.49.69l-.42.79a3.71 3.71 0 0 0 -2.16-.63c-1.36 0-2.13.55-2.13 1.35 0 1.71 4.18.55 4.18 3 0 1.45-1.31 2.29-3.27 2.29a4.64 4.64 0 0 1 -2.9-.87z"/><path d="m239.56 294.73a4.17 4.17 0 0 1 4.26-4.37 3 3 0 0 1 3.34 3.11 4.18 4.18 0 0 1 -4.26 4.38 3 3 0 0 1 -3.34-3.12zm6.61-1.2a2.15 2.15 0 0 0 -2.42-2.3 3.24 3.24 0 0 0 -3.2 3.46 2.14 2.14 0 0 0 2.45 2.31 3.22 3.22 0 0 0 3.17-3.47z"/><path d="m255.63 290.42h1l-1.45 7.36h-1zm.25-2.27a.75.75 0 0 1 .77-.76.66.66 0 0 1 .69.63.76.76 0 0 1 -.79.78.65.65 0 0 1 -.67-.65z"/><path d="m272.07 292.73a4.74 4.74 0 0 1 -.1.87l-.84 4.18h-1l.84-4.2a2.81 2.81 0 0 0 .07-.68c0-1-.6-1.64-1.82-1.64a2.76 2.76 0 0 0 -2.86 2.46l-.81 4.06h-1l.84-4.2a3.25 3.25 0 0 0 .07-.67c0-1.05-.58-1.65-1.82-1.65a2.81 2.81 0 0 0 -2.88 2.57l-.79 3.95h-1l1.46-7.36h.95l-.24 1.17a3.45 3.45 0 0 1 2.79-1.23 2.31 2.31 0 0 1 2.41 1.47 3.73 3.73 0 0 1 3.11-1.47c1.68 0 2.62.88 2.62 2.37z"/><path d="m283.16 293.47a4.15 4.15 0 0 1 -4.18 4.38 2.75 2.75 0 0 1 -2.8-1.61l-.84 4.26h-1l2-10.08h.95l-.24 1.17a3.76 3.76 0 0 1 2.88-1.23 3 3 0 0 1 3.23 3.11zm-1 .06a2.15 2.15 0 0 0 -2.42-2.3 3.21 3.21 0 0 0 -3.18 3.46 2.14 2.14 0 0 0 2.44 2.31 3.21 3.21 0 0 0 3.15-3.47z"/><path d="m285.36 294.73a4.18 4.18 0 0 1 4.26-4.37 3 3 0 0 1 3.35 3.11 4.18 4.18 0 0 1 -4.26 4.38 3 3 0 0 1 -3.35-3.12zm6.62-1.2a2.16 2.16 0 0 0 -2.43-2.3 3.24 3.24 0 0 0 -3.19 3.46 2.14 2.14 0 0 0 2.42 2.28 3.22 3.22 0 0 0 3.22-3.44z"/><path d="m300.45 290.36-.19 1h-.28c-1.57 0-2.62.9-3 2.73l-.74 3.74h-1l1.46-7.36h.95l-.25 1.34a3.32 3.32 0 0 1 3.05-1.45z"/><path d="m303.73 295.56a4 4 0 0 0 -.05.46c0 .63.35 1 1.06 1a1.9 1.9 0 0 0 1.14-.38l.23.76a2.7 2.7 0 0 1 -1.63.47 1.61 1.61 0 0 1 -1.8-1.68 2.83 2.83 0 0 1 .06-.57l.85-4.34h-1.3l.15-.84h1.32l.32-1.62h1l-.32 1.62h2.24l-.17.84h-2.24z"/><path d="m316.8 290.42-1.47 7.36h-1l.24-1.16a3.77 3.77 0 0 1 -2.87 1.23 3 3 0 0 1 -3.21-3.12 4.15 4.15 0 0 1 4.16-4.37 2.77 2.77 0 0 1 2.81 1.6l.3-1.54zm-1.65 3.11a2.16 2.16 0 0 0 -2.43-2.3 3.24 3.24 0 0 0 -3.19 3.46 2.14 2.14 0 0 0 2.47 2.31 3.22 3.22 0 0 0 3.15-3.47z"/><path d="m326.84 292.75a4.32 4.32 0 0 1 -.09.85l-.84 4.18h-1l.84-4.2a4.13 4.13 0 0 0 .07-.67c0-1.05-.63-1.65-1.91-1.65a2.87 2.87 0 0 0 -3 2.57l-.78 3.95h-1l1.45-7.36h1l-.24 1.17a3.62 3.62 0 0 1 2.88-1.23c1.65 0 2.62.9 2.62 2.39z"/><path d="m331.27 295.56a2.64 2.64 0 0 0 -.06.46c0 .63.35 1 1.07 1a1.85 1.85 0 0 0 1.13-.38l.24.76a2.73 2.73 0 0 1 -1.64.47 1.61 1.61 0 0 1 -1.79-1.68 2.26 2.26 0 0 1 .06-.57l.85-4.34h-1.3l.15-.84h1.32l.32-1.62h1l-.33 1.62h2.24l-.16.84h-2.25z"/><path d="m349.32 290.42-1.47 7.36h-1l.23-1.16a3.77 3.77 0 0 1 -2.87 1.23 3 3 0 0 1 -3.2-3.12 4.14 4.14 0 0 1 4.16-4.37 2.76 2.76 0 0 1 2.83 1.64l.31-1.54zm-1.65 3.11a2.16 2.16 0 0 0 -2.43-2.3 3.24 3.24 0 0 0 -3.19 3.46 2.14 2.14 0 0 0 2.42 2.28 3.22 3.22 0 0 0 3.2-3.44z"/><path d="m353.26 295.56a4 4 0 0 0 -.05.46c0 .63.35 1 1.06 1a1.9 1.9 0 0 0 1.14-.38l.24.76a2.75 2.75 0 0 1 -1.64.47 1.61 1.61 0 0 1 -1.8-1.68 2.83 2.83 0 0 1 .06-.57l.85-4.34h-1.3l.16-.84h1.31l.32-1.62h1l-.32 1.62h2.24l-.17.84h-2.24z"/><path d="m364.72 295.56a2.64 2.64 0 0 0 -.06.46c0 .63.35 1 1.06 1a1.9 1.9 0 0 0 1.14-.38l.24.76a2.73 2.73 0 0 1 -1.64.47 1.61 1.61 0 0 1 -1.8-1.68 2.83 2.83 0 0 1 .06-.57l.86-4.34h-1.31l.16-.84h1.31l.33-1.62h1l-.32 1.62h2.25l-.17.84h-2.24z"/><path d="m377.54 292.75a4.27 4.27 0 0 1 -.08.85l-.84 4.18h-1l.84-4.2a3.25 3.25 0 0 0 .07-.67c0-1.05-.63-1.65-1.9-1.65a2.87 2.87 0 0 0 -3 2.57l-.78 3.95h-1l2.08-10.39h1l-.83 4.13a3.6 3.6 0 0 1 2.82-1.16c1.66 0 2.62.9 2.62 2.39z"/><path d="m381.33 294.38v.29c0 1.48.84 2.3 2.53 2.3a3.34 3.34 0 0 0 2.41-.92l.45.71a4.19 4.19 0 0 1 -2.94 1.09c-2.13 0-3.43-1.2-3.43-3.13a4.1 4.1 0 0 1 4.07-4.36 2.93 2.93 0 0 1 3.21 3.12 4.35 4.35 0 0 1 -.1.9zm.1-.74h5.25a1.27 1.27 0 0 0 0-.27 2.08 2.08 0 0 0 -2.31-2.17 3 3 0 0 0 -2.94 2.44z"/><path d="m391.37 290.42h1l-1.46 7.36h-1zm.25-2.27a.76.76 0 0 1 .77-.76.66.66 0 0 1 .69.63.76.76 0 0 1 -.78.78.66.66 0 0 1 -.68-.65z"/><path d="m399.91 290.36-.18 1h-.28c-1.57 0-2.62.9-3 2.73l-.74 3.74h-1l1.46-7.36h.95l-.25 1.34a3.31 3.31 0 0 1 3.04-1.45z"/><path d="m414.31 290.42-1.47 7.36h-1l.24-1.16a3.77 3.77 0 0 1 -2.87 1.23 3 3 0 0 1 -3.21-3.12 4.15 4.15 0 0 1 4.16-4.37 2.76 2.76 0 0 1 2.84 1.64l.31-1.54zm-1.66 3.11a2.15 2.15 0 0 0 -2.42-2.3 3.24 3.24 0 0 0 -3.19 3.46 2.14 2.14 0 0 0 2.42 2.28 3.22 3.22 0 0 0 3.19-3.44z"/><path d="m425 290.42-1.29 6.47c-.52 2.6-1.89 3.68-4.29 3.68a4.68 4.68 0 0 1 -3.28-1.11l.59-.75a3.88 3.88 0 0 0 2.76 1 2.89 2.89 0 0 0 3.2-2.63l.16-.82a3.79 3.79 0 0 1 -2.94 1.26c-1.95 0-3.25-1.13-3.25-3a4.07 4.07 0 0 1 4.2-4.17 2.84 2.84 0 0 1 2.88 1.68l.3-1.62zm-1.68 2.95c0-1.34-.91-2.14-2.44-2.14a3.13 3.13 0 0 0 -3.21 3.25c0 1.34.9 2.14 2.44 2.14a3.13 3.13 0 0 0 3.16-3.25z"/><path d="m428.23 294.38v.29c0 1.48.84 2.3 2.53 2.3a3.34 3.34 0 0 0 2.41-.92l.45.71a4.21 4.21 0 0 1 -2.94 1.09c-2.13 0-3.43-1.2-3.43-3.13a4.1 4.1 0 0 1 4.07-4.36 2.93 2.93 0 0 1 3.21 3.12 4.35 4.35 0 0 1 -.1.9zm.1-.74h5.25a1.27 1.27 0 0 0 0-.27 2.08 2.08 0 0 0 -2.31-2.17 3 3 0 0 0 -2.94 2.44z"/><path d="m436.3 297.13a.78.78 0 0 1 .78-.8.7.7 0 0 1 .71.73.77.77 0 0 1 -.77.79.72.72 0 0 1 -.72-.72z"/><path d="m234.05 344.46 1.33-1.6a3.05 3.05 0 0 0 2.5 1.44c1.3 0 2-.77 2-2.32v-6.52h-4.49v-2h6.83v8.35c0 3-1.48 4.43-4.25 4.43a4.74 4.74 0 0 1 -3.92-1.78z"/><path d="m254.19 340.47v5.63h-2.12v-1.17a3.4 3.4 0 0 1 -3 1.3c-2.19 0-3.58-1.21-3.58-2.88s1.08-2.86 4-2.86h2.48v-.15c0-1.31-.79-2.09-2.39-2.09a4.74 4.74 0 0 0 -2.92 1l-.88-1.64a6.78 6.78 0 0 1 4.07-1.19c2.74-.04 4.34 1.27 4.34 4.05zm-2.25 2.63v-1.1h-2.32c-1.53 0-1.94.58-1.94 1.28s.68 1.33 1.83 1.33a2.44 2.44 0 0 0 2.43-1.51z"/><path d="m256.87 345.15.87-1.71a6.43 6.43 0 0 0 3.35.95c1.42 0 2-.39 2-1.06 0-1.84-5.94-.11-5.94-3.94 0-1.82 1.64-3 4.23-3a7.66 7.66 0 0 1 3.6.83l-.86 1.71a5.28 5.28 0 0 0 -2.76-.72c-1.36 0-2 .45-2 1.08 0 1.94 5.94.21 5.94 4 0 1.8-1.66 3-4.36 3a7.68 7.68 0 0 1 -4.07-1.14z"/><path d="m277.61 340.59v5.51h-2.25v-5.22c0-1.71-.84-2.54-2.28-2.54-1.61 0-2.69 1-2.69 2.9v4.86h-2.25v-9.61h2.15v1.24a4.16 4.16 0 0 1 3.31-1.35c2.3 0 4.01 1.31 4.01 4.21z"/><path d="m290.46 342h-7.54a2.91 2.91 0 0 0 3.12 2.3 3.46 3.46 0 0 0 2.61-1l1.2 1.38a4.85 4.85 0 0 1 -3.87 1.57c-3.22 0-5.31-2.07-5.31-4.93a4.78 4.78 0 0 1 5-4.92 4.69 4.69 0 0 1 4.86 5c-.03.13-.05.4-.07.6zm-7.56-1.5h5.46a2.61 2.61 0 0 0 -2.72-2.34 2.66 2.66 0 0 0 -2.74 2.36z"/><path d="m302.56 342h-7.56a2.91 2.91 0 0 0 3.11 2.3 3.44 3.44 0 0 0 2.61-1l1.21 1.38a4.88 4.88 0 0 1 -3.87 1.57c-3.23 0-5.31-2.07-5.31-4.93a4.78 4.78 0 0 1 5-4.92 4.69 4.69 0 0 1 4.86 5c-.01.13-.03.4-.05.6zm-7.56-1.5h5.45a2.61 2.61 0 0 0 -2.71-2.34 2.66 2.66 0 0 0 -2.74 2.36z"/><path d="m311.43 345.58a3.55 3.55 0 0 1 -2.16.65 3 3 0 0 1 -3.27-3.23v-4.63h-1.59v-1.8h1.59v-2.2h2.25v2.2h2.58v1.8h-2.58v4.57c0 .94.47 1.44 1.33 1.44a2 2 0 0 0 1.26-.39z"/><path d="m324.61 340.83-2 2.05v3.22h-2.34v-12.6h2.34v6.5l6.23-6.46h2.63l-5.3 5.63 5.62 7h-2.73z"/><path d="m341.89 340.47v5.63h-2.13v-1.17a3.38 3.38 0 0 1 -3 1.3c-2.2 0-3.58-1.21-3.58-2.88s1.08-2.86 4-2.86h2.49v-.15c0-1.31-.79-2.09-2.4-2.09a4.71 4.71 0 0 0 -2.91 1l-.88-1.64a6.75 6.75 0 0 1 4.06-1.19c2.75-.04 4.35 1.27 4.35 4.05zm-2.25 2.63v-1.1h-2.32c-1.53 0-1.95.58-1.95 1.28s.69 1.33 1.84 1.33a2.45 2.45 0 0 0 2.43-1.51z"/><path d="m355 336.49v9.61h-2.15v-1.22a3.92 3.92 0 0 1 -3.09 1.35c-2.47 0-4.15-1.35-4.15-4.25v-5.49h2.26v5.18c0 1.75.82 2.58 2.25 2.58s2.63-1 2.63-2.9v-4.86z"/><path d="m364.39 336.38v2.14a3.49 3.49 0 0 0 -.52 0c-1.71 0-2.79 1-2.79 3v4.66h-2.25v-9.61h2.17v1.4a3.78 3.78 0 0 1 3.39-1.59z"/></g></svg>