<svg id="f5f94373-b945-4e9a-b9ff-d197ebf34321" data-name="Layer 1" xmlns="http://www.w3.org/2000/svg" viewBox="0 0 600 466"><defs><style>.b7d9d17b-75e8-4d7a-99ba-a488bdaea2df{fill:#5bc0c7;}.a9824b4f-e91f-4899-a6e7-df8e654c4761{fill:#fff;}.bc9e9685-ea8d-41ea-ab99-a19380627550{fill:none;stroke:#fff;stroke-linecap:round;stroke-linejoin:round;stroke-width:2.83px;}</style></defs><title>Core-values-Artboard 8</title><rect class="b7d9d17b-75e8-4d7a-99ba-a488bdaea2df" width="600" height="466"/><path class="a9824b4f-e91f-4899-a6e7-df8e654c4761" d="M469.34,93.39c0-7.4,5.23-12.24,12.24-12.24S494,86.12,494,93.39c0,3.31-.51,5.74-3.45,12.75l-7.39,18.35H470.49l5.61-20.27C471.89,102.44,469.34,98.61,469.34,93.39Zm-30.08,0c0-7.4,5.23-12.24,12.24-12.24s12.36,5,12.36,12.24c0,3.31-.51,5.74-3.44,12.75L453,124.49H440.41l5.6-20.27C441.81,102.44,439.26,98.61,439.26,93.39Z"/><path class="bc9e9685-ea8d-41ea-ab99-a19380627550" d="M441.74,76.84a165.26,165.26,0,0,0-97.84-32H89.78V206.33c0,1.62-.08,3.25-.08,4.89h0c0,1.64,0,3.27.08,4.9V377.63h85.41l-22.3,43.55L229,377.63H510.3V211.22h0v-4.95h-.08a164.94,164.94,0,0,0-20.54-75"/><path class="a9824b4f-e91f-4899-a6e7-df8e654c4761" d="M154,136.78l-5.26,9.8h-1.1l-1.2-8.32-4.57,8.32h-1.09l-1.34-9.8h1l1.16,8.44,4.61-8.44h1l1.19,8.46,4.58-8.46Z"/><path class="a9824b4f-e91f-4899-a6e7-df8e654c4761" d="M155.11,143.18c0,.1,0,.2,0,.29,0,1.47.84,2.3,2.53,2.3a3.35,3.35,0,0,0,2.41-.92l.45.71a4.21,4.21,0,0,1-2.94,1.09c-2.13,0-3.43-1.2-3.43-3.13a4.1,4.1,0,0,1,4.07-4.36,2.93,2.93,0,0,1,3.21,3.12,4.35,4.35,0,0,1-.1.9Zm.1-.74h5.25a2.53,2.53,0,0,0,0-.27,2.07,2.07,0,0,0-2.31-2.17A3,3,0,0,0,155.21,142.44Z"/><path class="a9824b4f-e91f-4899-a6e7-df8e654c4761" d="M176.6,139.22l-1.47,7.36h-.95l.24-1.16a3.77,3.77,0,0,1-2.87,1.23,3,3,0,0,1-3.21-3.12,4.14,4.14,0,0,1,4.16-4.37,2.76,2.76,0,0,1,2.8,1.6l.31-1.54ZM175,142.33a2.15,2.15,0,0,0-2.42-2.3,3.23,3.23,0,0,0-3.2,3.46,2.15,2.15,0,0,0,2.43,2.28A3.22,3.22,0,0,0,175,142.33Z"/><path class="a9824b4f-e91f-4899-a6e7-df8e654c4761" d="M178.17,145.76l.47-.79a4,4,0,0,0,2.55.82c1.42,0,2.19-.5,2.19-1.32,0-1.67-4.18-.52-4.18-3,0-1.4,1.26-2.3,3.2-2.3a4.49,4.49,0,0,1,2.49.69l-.42.79a3.71,3.71,0,0,0-2.16-.63c-1.36,0-2.13.55-2.13,1.35,0,1.71,4.18.54,4.18,3,0,1.45-1.3,2.29-3.27,2.29A4.64,4.64,0,0,1,178.17,145.76Z"/><path class="a9824b4f-e91f-4899-a6e7-df8e654c4761" d="M200.75,139.55c0,2.52-1.75,3.94-4.55,3.94h-2.77l-.63,3.09h-1l2-9.8h3.51C199.46,136.78,200.75,137.8,200.75,139.55Zm-1,.1c0-1.29-.91-2-2.55-2h-2.58l-1,4.91h2.62C198.44,142.58,199.72,141.58,199.72,139.65Z"/><path class="a9824b4f-e91f-4899-a6e7-df8e654c4761" d="M210.68,139.22l-1.47,7.36h-1l.23-1.16a3.77,3.77,0,0,1-2.87,1.23,3,3,0,0,1-3.21-3.12,4.15,4.15,0,0,1,4.17-4.37,2.76,2.76,0,0,1,2.8,1.6l.3-1.54ZM209,142.33a2.16,2.16,0,0,0-2.43-2.3,3.23,3.23,0,0,0-3.19,3.46,2.14,2.14,0,0,0,2.42,2.28A3.22,3.22,0,0,0,209,142.33Z"/><path class="a9824b4f-e91f-4899-a6e7-df8e654c4761" d="M218.21,139.16l-.18,1-.28,0c-1.57,0-2.62.9-3,2.73l-.74,3.74h-1l1.45-7.36h1l-.26,1.34A3.33,3.33,0,0,1,218.21,139.16Z"/><path class="a9824b4f-e91f-4899-a6e7-df8e654c4761" d="M220.43,143.18c0,.1,0,.2,0,.29,0,1.47.84,2.3,2.53,2.3a3.34,3.34,0,0,0,2.41-.92l.45.71a4.19,4.19,0,0,1-2.94,1.09c-2.13,0-3.43-1.2-3.43-3.13a4.1,4.1,0,0,1,4.07-4.36,2.93,2.93,0,0,1,3.21,3.12,4.35,4.35,0,0,1-.1.9Zm.1-.74h5.25a1.27,1.27,0,0,0,0-.27,2.08,2.08,0,0,0-2.31-2.17A3,3,0,0,0,220.53,142.44Z"/><path class="a9824b4f-e91f-4899-a6e7-df8e654c4761" d="M236.7,141.55a4.11,4.11,0,0,1-.08.84l-.84,4.19h-1l.84-4.2a4.13,4.13,0,0,0,.07-.67c0-1.05-.63-1.65-1.91-1.65a2.87,2.87,0,0,0-3,2.57l-.78,4h-1l1.46-7.36h.95l-.23,1.17a3.62,3.62,0,0,1,2.88-1.23C235.74,139.16,236.7,140.06,236.7,141.55Z"/><path class="a9824b4f-e91f-4899-a6e7-df8e654c4761" d="M241.14,144.36a2.64,2.64,0,0,0-.06.46c0,.63.35,1,1.07,1a1.88,1.88,0,0,0,1.13-.38l.24.76a2.73,2.73,0,0,1-1.64.47,1.61,1.61,0,0,1-1.79-1.68,2.81,2.81,0,0,1,0-.57l.86-4.34h-1.3l.15-.84h1.32l.32-1.62h1l-.32,1.62h2.24l-.16.84H242Z"/><path class="a9824b4f-e91f-4899-a6e7-df8e654c4761" d="M245.49,145.76,246,145a4,4,0,0,0,2.55.82c1.41,0,2.18-.5,2.18-1.32,0-1.67-4.17-.52-4.17-3,0-1.4,1.26-2.3,3.19-2.3a4.5,4.5,0,0,1,2.5.69l-.43.79a3.7,3.7,0,0,0-2.15-.63c-1.36,0-2.13.55-2.13,1.35,0,1.71,4.17.54,4.17,3,0,1.45-1.3,2.29-3.26,2.29A4.67,4.67,0,0,1,245.49,145.76Z"/><path class="a9824b4f-e91f-4899-a6e7-df8e654c4761" d="M258.82,143.53a4.18,4.18,0,0,1,4.26-4.37,3,3,0,0,1,3.35,3.11,4.18,4.18,0,0,1-4.26,4.38A3,3,0,0,1,258.82,143.53Zm6.61-1.2A2.15,2.15,0,0,0,263,140a3.23,3.23,0,0,0-3.2,3.46,2.15,2.15,0,0,0,2.43,2.28A3.22,3.22,0,0,0,265.43,142.33Z"/><path class="a9824b4f-e91f-4899-a6e7-df8e654c4761" d="M271.49,138.4l-.17.82h2.26l-.17.84h-2.23l-1.3,6.52h-1l1.3-6.52h-1.32l.16-.84h1.33l.18-.93a2.41,2.41,0,0,1,2.52-2.17,2.26,2.26,0,0,1,1.49.48l-.44.72a1.59,1.59,0,0,0-1.05-.36C272.19,137,271.7,137.41,271.49,138.4Z"/><path class="a9824b4f-e91f-4899-a6e7-df8e654c4761" d="M281.4,136.78h3.73c2.95,0,4.62,1.58,4.62,4,0,3.43-2.41,5.81-6.09,5.81h-4.22Zm2.29,8.91a4.69,4.69,0,0,0,5-4.88c0-1.89-1.22-3.14-3.7-3.14h-2.78l-1.59,8Z"/><path class="a9824b4f-e91f-4899-a6e7-df8e654c4761" d="M292.77,143.18c0,.1,0,.2,0,.29,0,1.47.84,2.3,2.53,2.3a3.35,3.35,0,0,0,2.41-.92l.45.71a4.21,4.21,0,0,1-2.94,1.09c-2.13,0-3.43-1.2-3.43-3.13a4.1,4.1,0,0,1,4.07-4.36,2.93,2.93,0,0,1,3.21,3.12,4.35,4.35,0,0,1-.1.9Zm.1-.74h5.25a2.53,2.53,0,0,0,0-.27,2.07,2.07,0,0,0-2.31-2.17A3,3,0,0,0,292.87,142.44Z"/><path class="a9824b4f-e91f-4899-a6e7-df8e654c4761" d="M302.28,143.18a1.46,1.46,0,0,0,0,.29c0,1.47.84,2.3,2.54,2.3a3.35,3.35,0,0,0,2.41-.92l.45.71a4.23,4.23,0,0,1-3,1.09c-2.13,0-3.43-1.2-3.43-3.13a4.1,4.1,0,0,1,4.08-4.36,2.94,2.94,0,0,1,3.21,3.12,5.16,5.16,0,0,1-.1.9Zm.09-.74h5.26a2.53,2.53,0,0,0,0-.27,2.08,2.08,0,0,0-2.31-2.17A3,3,0,0,0,302.37,142.44Z"/><path class="a9824b4f-e91f-4899-a6e7-df8e654c4761" d="M319.12,142.27a4.15,4.15,0,0,1-4.17,4.38,2.75,2.75,0,0,1-2.8-1.61l-.84,4.26h-1l2-10.08h1l-.24,1.17a3.74,3.74,0,0,1,2.87-1.23A3,3,0,0,1,319.12,142.27Zm-1,.06a2.15,2.15,0,0,0-2.42-2.3,3.21,3.21,0,0,0-3.18,3.46,2.14,2.14,0,0,0,2.42,2.28A3.21,3.21,0,0,0,318.11,142.33Z"/><path class="a9824b4f-e91f-4899-a6e7-df8e654c4761" d="M320.62,145.76l.47-.79a4,4,0,0,0,2.55.82c1.42,0,2.19-.5,2.19-1.32,0-1.67-4.18-.52-4.18-3,0-1.4,1.26-2.3,3.19-2.3a4.5,4.5,0,0,1,2.5.69l-.42.79a3.73,3.73,0,0,0-2.16-.63c-1.36,0-2.13.55-2.13,1.35,0,1.71,4.18.54,4.18,3,0,1.45-1.31,2.29-3.27,2.29A4.64,4.64,0,0,1,320.62,145.76Z"/><path class="a9824b4f-e91f-4899-a6e7-df8e654c4761" d="M337.49,139.22,336,146.58h-.95l.23-1.16a3.77,3.77,0,0,1-2.87,1.23,3,3,0,0,1-3.2-3.12,4.14,4.14,0,0,1,4.16-4.37,2.76,2.76,0,0,1,2.8,1.6l.31-1.54Zm-1.65,3.11a2.16,2.16,0,0,0-2.43-2.3,3.23,3.23,0,0,0-3.19,3.46,2.14,2.14,0,0,0,2.42,2.28A3.22,3.22,0,0,0,335.84,142.33Z"/><path class="a9824b4f-e91f-4899-a6e7-df8e654c4761" d="M356.91,136.78l-2,9.8h-1l1.56-7.77-5.07,6.53H350l-2.62-6.66-1.57,7.9h-1l2-9.8h.84l2.83,7.28,5.6-7.28Z"/><path class="a9824b4f-e91f-4899-a6e7-df8e654c4761" d="M367.17,139.22l-1.47,7.36h-.95l.23-1.16a3.77,3.77,0,0,1-2.87,1.23,3,3,0,0,1-3.2-3.12,4.14,4.14,0,0,1,4.16-4.37,2.76,2.76,0,0,1,2.8,1.6l.3-1.54Zm-1.65,3.11a2.16,2.16,0,0,0-2.43-2.3,3.23,3.23,0,0,0-3.19,3.46,2.14,2.14,0,0,0,2.42,2.28A3.22,3.22,0,0,0,365.52,142.33Z"/><path class="a9824b4f-e91f-4899-a6e7-df8e654c4761" d="M373.78,142.26l2.64,4.32h-1.16L373,142.86l-2.06,1.59-.42,2.13h-1l2.07-10.39h1l-1.4,7,5.07-4h1.42Z"/><path class="a9824b4f-e91f-4899-a6e7-df8e654c4761" d="M383.08,142.26l2.65,4.32h-1.16l-2.27-3.72-2.06,1.59-.42,2.13h-1l2.07-10.39h1l-1.4,7,5.07-4H387Z"/><path class="a9824b4f-e91f-4899-a6e7-df8e654c4761" d="M396,139.22l-1.47,7.36h-1l.24-1.16a3.77,3.77,0,0,1-2.87,1.23,3,3,0,0,1-3.21-3.12,4.15,4.15,0,0,1,4.16-4.37,2.76,2.76,0,0,1,2.8,1.6l.31-1.54Zm-1.66,3.11A2.15,2.15,0,0,0,392,140a3.23,3.23,0,0,0-3.19,3.46,2.14,2.14,0,0,0,2.42,2.28A3.21,3.21,0,0,0,394.38,142.33Z"/><path class="a9824b4f-e91f-4899-a6e7-df8e654c4761" d="M403.57,139.16l-.18,1-.28,0c-1.57,0-2.62.9-3,2.73l-.74,3.74h-1l1.46-7.36h1l-.25,1.34A3.33,3.33,0,0,1,403.57,139.16Z"/><path class="a9824b4f-e91f-4899-a6e7-df8e654c4761" d="M405.89,145.85a1.33,1.33,0,0,1-.27.75l-1.06,2h-.67l.89-2.06a.7.7,0,0,1-.39-.64.78.78,0,0,1,.78-.8A.7.7,0,0,1,405.89,145.85Z"/><path class="a9824b4f-e91f-4899-a6e7-df8e654c4761" d="M422.13,146.58H421L417.8,142,415.4,144l-.52,2.56h-1l2-9.8h1l-1.18,5.85,6.84-5.85h1.36l-5.3,4.55Z"/><path class="a9824b4f-e91f-4899-a6e7-df8e654c4761" d="M425.56,142.54c0,1.91,1.25,3.2,3.67,3.2a4.18,4.18,0,0,0,2.51-.77l.66-3.29h1l-.76,3.77a5.53,5.53,0,0,1-3.51,1.22c-2.89,0-4.58-1.64-4.58-4.08a5.73,5.73,0,0,1,6-5.9,4.49,4.49,0,0,1,3.64,1.43l-.73.63a3.64,3.64,0,0,0-2.95-1.13A4.75,4.75,0,0,0,425.56,142.54Z"/><path class="a9824b4f-e91f-4899-a6e7-df8e654c4761" d="M436.46,142.35h3.67l-.16.87H436.3Z"/><path class="a9824b4f-e91f-4899-a6e7-df8e654c4761" d="M446.35,136.78l-2,9.8h-1l1.78-8.91h-2.32l.19-.89Z"/><path class="a9824b4f-e91f-4899-a6e7-df8e654c4761" d="M455.37,144h-5.48l-1.69,2.62h-1.12l6.44-9.8h1l2.52,9.8h-1Zm-.2-.84-1.33-5.29-3.42,5.29Z"/><path class="a9824b4f-e91f-4899-a6e7-df8e654c4761" d="M461,145.85a1.33,1.33,0,0,1-.27.75l-1.06,2H459l.89-2.06a.7.7,0,0,1-.39-.64.78.78,0,0,1,.78-.8A.7.7,0,0,1,461,145.85Z"/><path class="a9824b4f-e91f-4899-a6e7-df8e654c4761" d="M153.79,156l-4.16,7.36h-1l-1.24-6-3.44,6h-1L141.59,156h.91l1.19,6.24,3.56-6.24h.84l1.24,6.24,3.5-6.24Z"/><path class="a9824b4f-e91f-4899-a6e7-df8e654c4761" d="M162.79,156l-1.47,7.36h-.95l.24-1.16a3.77,3.77,0,0,1-2.87,1.23,3,3,0,0,1-3.21-3.12,4.14,4.14,0,0,1,4.16-4.37,2.76,2.76,0,0,1,2.8,1.6l.31-1.54Zm-1.65,3.11a2.15,2.15,0,0,0-2.42-2.3,3.24,3.24,0,0,0-3.2,3.46,2.15,2.15,0,0,0,2.43,2.28A3.22,3.22,0,0,0,161.14,159.13Z"/><path class="a9824b4f-e91f-4899-a6e7-df8e654c4761" d="M172.83,158.35a5.18,5.18,0,0,1-.08.85l-.84,4.18h-1l.84-4.2a4.13,4.13,0,0,0,.07-.67c0-1-.63-1.65-1.9-1.65a2.87,2.87,0,0,0-3,2.57l-.79,3.95h-1L166.6,156h1l-.24,1.17A3.64,3.64,0,0,1,170.2,156,2.31,2.31,0,0,1,172.83,158.35Z"/><path class="a9824b4f-e91f-4899-a6e7-df8e654c4761" d="M177.26,161.16a4,4,0,0,0,0,.46c0,.63.35,1,1.06,1a1.9,1.9,0,0,0,1.14-.38l.24.76a2.75,2.75,0,0,1-1.64.47,1.61,1.61,0,0,1-1.8-1.68,2.83,2.83,0,0,1,.06-.57l.85-4.34h-1.3L176,156h1.31l.33-1.62h1l-.32,1.62h2.24l-.17.84h-2.24Z"/><path class="a9824b4f-e91f-4899-a6e7-df8e654c4761" d="M188.72,161.16a2.64,2.64,0,0,0-.06.46c0,.63.35,1,1.07,1a1.9,1.9,0,0,0,1.13-.38l.24.76a2.73,2.73,0,0,1-1.64.47,1.6,1.6,0,0,1-1.79-1.68,2.81,2.81,0,0,1,.05-.57l.86-4.34h-1.31l.16-.84h1.32l.32-1.62h1l-.32,1.62H192l-.17.84h-2.24Z"/><path class="a9824b4f-e91f-4899-a6e7-df8e654c4761" d="M193.52,160.33a4.18,4.18,0,0,1,4.26-4.37,3,3,0,0,1,3.34,3.11,4.18,4.18,0,0,1-4.25,4.38A3,3,0,0,1,193.52,160.33Zm6.61-1.2a2.15,2.15,0,0,0-2.42-2.3,3.24,3.24,0,0,0-3.2,3.46,2.15,2.15,0,0,0,2.43,2.28A3.22,3.22,0,0,0,200.13,159.13Z"/><path class="a9824b4f-e91f-4899-a6e7-df8e654c4761" d="M220.47,156l-4.16,7.36h-1l-1.23-6-3.45,6h-.95L208.27,156h.91l1.19,6.24,3.56-6.24h.84l1.24,6.24,3.5-6.24Z"/><path class="a9824b4f-e91f-4899-a6e7-df8e654c4761" d="M226.67,156l-.18,1-.28,0c-1.57,0-2.62.9-3,2.73l-.75,3.74h-1L223,156h1l-.25,1.34A3.31,3.31,0,0,1,226.67,156Z"/><path class="a9824b4f-e91f-4899-a6e7-df8e654c4761" d="M229.5,156h1L229,163.38h-1Zm.25-2.27a.75.75,0,0,1,.77-.76.66.66,0,0,1,.69.63.76.76,0,0,1-.79.78A.65.65,0,0,1,229.75,153.75Z"/><path class="a9824b4f-e91f-4899-a6e7-df8e654c4761" d="M234.45,161.16a4,4,0,0,0,0,.46c0,.63.35,1,1.06,1a1.9,1.9,0,0,0,1.14-.38l.24.76a2.75,2.75,0,0,1-1.64.47,1.61,1.61,0,0,1-1.8-1.68,2.83,2.83,0,0,1,.06-.57l.85-4.34H233l.16-.84h1.31l.32-1.62h1l-.32,1.62h2.24l-.17.84h-2.24Z"/><path class="a9824b4f-e91f-4899-a6e7-df8e654c4761" d="M240.25,160c0,.1,0,.2,0,.29,0,1.47.84,2.3,2.53,2.3a3.35,3.35,0,0,0,2.41-.92l.45.71a4.21,4.21,0,0,1-2.94,1.09c-2.13,0-3.43-1.2-3.43-3.13a4.1,4.1,0,0,1,4.07-4.36,2.93,2.93,0,0,1,3.21,3.12,4.35,4.35,0,0,1-.1.9Zm.1-.74h5.25a1.27,1.27,0,0,0,0-.27,2.08,2.08,0,0,0-2.32-2.17A3,3,0,0,0,240.35,159.24Z"/><path class="a9824b4f-e91f-4899-a6e7-df8e654c4761" d="M261.74,156l-1.47,7.36h-.95l.24-1.16a3.77,3.77,0,0,1-2.87,1.23,3,3,0,0,1-3.21-3.12,4.14,4.14,0,0,1,4.16-4.37,2.76,2.76,0,0,1,2.8,1.6l.31-1.54Zm-1.65,3.11a2.15,2.15,0,0,0-2.42-2.3,3.24,3.24,0,0,0-3.2,3.46,2.15,2.15,0,0,0,2.43,2.28A3.22,3.22,0,0,0,260.09,159.13Z"/><path class="a9824b4f-e91f-4899-a6e7-df8e654c4761" d="M276.5,158.35a4.32,4.32,0,0,1-.09.85l-.83,4.18h-1l.84-4.2a4.13,4.13,0,0,0,.07-.67c0-1-.63-1.65-1.9-1.65a2.87,2.87,0,0,0-3,2.57l-.79,3.95h-1l1.46-7.36h1l-.24,1.17a3.63,3.63,0,0,1,2.89-1.23A2.31,2.31,0,0,1,276.5,158.35Z"/><path class="a9824b4f-e91f-4899-a6e7-df8e654c4761" d="M279.29,160.33a4.18,4.18,0,0,1,4.26-4.37,3,3,0,0,1,3.35,3.11,4.18,4.18,0,0,1-4.26,4.38A3,3,0,0,1,279.29,160.33Zm6.62-1.2a2.16,2.16,0,0,0-2.43-2.3,3.24,3.24,0,0,0-3.19,3.46,2.14,2.14,0,0,0,2.42,2.28A3.22,3.22,0,0,0,285.91,159.13Z"/><path class="a9824b4f-e91f-4899-a6e7-df8e654c4761" d="M290.79,161.16a2.64,2.64,0,0,0-.06.46c0,.63.35,1,1.07,1a1.88,1.88,0,0,0,1.13-.38l.24.76a2.73,2.73,0,0,1-1.64.47,1.61,1.61,0,0,1-1.79-1.68,2.81,2.81,0,0,1,.05-.57l.86-4.34h-1.3l.15-.84h1.32l.32-1.62h1l-.32,1.62h2.24l-.16.84h-2.25Z"/><path class="a9824b4f-e91f-4899-a6e7-df8e654c4761" d="M296.58,160c0,.1,0,.2,0,.29,0,1.47.84,2.3,2.54,2.3a3.35,3.35,0,0,0,2.41-.92l.44.71a4.19,4.19,0,0,1-2.94,1.09c-2.13,0-3.43-1.2-3.43-3.13a4.1,4.1,0,0,1,4.08-4.36,2.93,2.93,0,0,1,3.2,3.12,5.18,5.18,0,0,1-.09.9Zm.1-.74h5.26a2.53,2.53,0,0,0,0-.27,2.08,2.08,0,0,0-2.31-2.17A3,3,0,0,0,296.68,159.24Z"/><path class="a9824b4f-e91f-4899-a6e7-df8e654c4761" d="M309.81,160.33a4.18,4.18,0,0,1,4.26-4.37,3,3,0,0,1,3.35,3.11,4.18,4.18,0,0,1-4.26,4.38A3,3,0,0,1,309.81,160.33Zm6.62-1.2a2.16,2.16,0,0,0-2.43-2.3,3.24,3.24,0,0,0-3.19,3.46,2.14,2.14,0,0,0,2.42,2.28A3.22,3.22,0,0,0,316.43,159.13Z"/><path class="a9824b4f-e91f-4899-a6e7-df8e654c4761" d="M322.49,155.2l-.17.82h2.25l-.16.84h-2.23l-1.3,6.52h-1l1.3-6.52h-1.31L320,156h1.33l.18-.93a2.42,2.42,0,0,1,2.53-2.17,2.25,2.25,0,0,1,1.48.48l-.43.72a1.59,1.59,0,0,0-1.05-.36C323.19,153.76,322.7,154.21,322.49,155.2Z"/><path class="a9824b4f-e91f-4899-a6e7-df8e654c4761" d="M338.42,156,337,163.38H336l.24-1.16a3.79,3.79,0,0,1-2.88,1.23,3,3,0,0,1-3.2-3.12,4.14,4.14,0,0,1,4.16-4.37,2.76,2.76,0,0,1,2.8,1.6l.31-1.54Zm-1.65,3.11a2.16,2.16,0,0,0-2.43-2.3,3.24,3.24,0,0,0-3.19,3.46,2.14,2.14,0,0,0,2.42,2.28A3.22,3.22,0,0,0,336.77,159.13Z"/><path class="a9824b4f-e91f-4899-a6e7-df8e654c4761" d="M349,159.07a4.15,4.15,0,0,1-4.17,4.38,2.75,2.75,0,0,1-2.8-1.61l-.84,4.26h-1l2-10.08h.95l-.24,1.17a3.74,3.74,0,0,1,2.87-1.23A3,3,0,0,1,349,159.07Zm-1,.06a2.15,2.15,0,0,0-2.42-2.3,3.22,3.22,0,0,0-3.18,3.46,2.14,2.14,0,0,0,2.42,2.28A3.21,3.21,0,0,0,348,159.13Z"/><path class="a9824b4f-e91f-4899-a6e7-df8e654c4761" d="M359.58,159.07a4.15,4.15,0,0,1-4.18,4.38,2.75,2.75,0,0,1-2.8-1.61l-.84,4.26h-1l2-10.08h1l-.24,1.17a3.74,3.74,0,0,1,2.87-1.23A3,3,0,0,1,359.58,159.07Zm-1,.06a2.16,2.16,0,0,0-2.43-2.3,3.22,3.22,0,0,0-3.18,3.46,2.15,2.15,0,0,0,2.43,2.28A3.21,3.21,0,0,0,358.57,159.13Z"/><path class="a9824b4f-e91f-4899-a6e7-df8e654c4761" d="M367,156l-.19,1-.28,0c-1.57,0-2.62.9-3,2.73l-.74,3.74h-1l1.46-7.36h.95l-.25,1.34A3.32,3.32,0,0,1,367,156Z"/><path class="a9824b4f-e91f-4899-a6e7-df8e654c4761" d="M369.26,160c0,.1,0,.2,0,.29,0,1.47.83,2.3,2.53,2.3a3.35,3.35,0,0,0,2.41-.92l.45.71a4.22,4.22,0,0,1-2.94,1.09c-2.13,0-3.44-1.2-3.44-3.13a4.11,4.11,0,0,1,4.08-4.36,2.93,2.93,0,0,1,3.21,3.12,4.35,4.35,0,0,1-.1.9Zm.1-.74h5.25a2.53,2.53,0,0,0,0-.27,2.08,2.08,0,0,0-2.31-2.17A3,3,0,0,0,369.36,159.24Z"/><path class="a9824b4f-e91f-4899-a6e7-df8e654c4761" d="M377.77,160.33a4.18,4.18,0,0,1,4.29-4.37,3.08,3.08,0,0,1,2.9,1.47l-.84.49a2.28,2.28,0,0,0-2.15-1.09,3.24,3.24,0,0,0-3.21,3.46,2.16,2.16,0,0,0,2.46,2.28,2.85,2.85,0,0,0,2.32-1.06l.71.54a3.78,3.78,0,0,1-3.08,1.4C379.07,163.45,377.77,162.22,377.77,160.33Z"/><path class="a9824b4f-e91f-4899-a6e7-df8e654c4761" d="M388.23,156h1l-1.45,7.36h-1Zm.25-2.27a.75.75,0,0,1,.77-.76.66.66,0,0,1,.69.63.76.76,0,0,1-.79.78A.65.65,0,0,1,388.48,153.75Z"/><path class="a9824b4f-e91f-4899-a6e7-df8e654c4761" d="M399.78,156l-1.47,7.36h-.95l.24-1.16a3.77,3.77,0,0,1-2.87,1.23,3,3,0,0,1-3.21-3.12,4.14,4.14,0,0,1,4.16-4.37,2.76,2.76,0,0,1,2.8,1.6l.31-1.54Zm-1.65,3.11a2.15,2.15,0,0,0-2.42-2.3,3.24,3.24,0,0,0-3.2,3.46,2.15,2.15,0,0,0,2.43,2.28A3.22,3.22,0,0,0,398.13,159.13Z"/><path class="a9824b4f-e91f-4899-a6e7-df8e654c4761" d="M403.73,161.16a2.64,2.64,0,0,0-.06.46c0,.63.35,1,1.07,1a1.9,1.9,0,0,0,1.13-.38l.24.76a2.73,2.73,0,0,1-1.64.47,1.6,1.6,0,0,1-1.79-1.68,2.81,2.81,0,0,1,.05-.57l.86-4.34h-1.31l.16-.84h1.31l.33-1.62h1l-.32,1.62H407l-.17.84h-2.24Z"/><path class="a9824b4f-e91f-4899-a6e7-df8e654c4761" d="M410.32,156h1l-1.45,7.36h-1Zm.25-2.27a.75.75,0,0,1,.77-.76.66.66,0,0,1,.69.63.76.76,0,0,1-.78.78A.66.66,0,0,1,410.57,153.75Z"/><path class="a9824b4f-e91f-4899-a6e7-df8e654c4761" d="M413.61,160.33a4.18,4.18,0,0,1,4.26-4.37,3,3,0,0,1,3.35,3.11,4.18,4.18,0,0,1-4.26,4.38A3,3,0,0,1,413.61,160.33Zm6.61-1.2a2.15,2.15,0,0,0-2.42-2.3,3.24,3.24,0,0,0-3.2,3.46,2.15,2.15,0,0,0,2.43,2.28A3.22,3.22,0,0,0,420.22,159.13Z"/><path class="a9824b4f-e91f-4899-a6e7-df8e654c4761" d="M431.2,158.35a4.32,4.32,0,0,1-.09.85l-.84,4.18h-1l.84-4.2a4.13,4.13,0,0,0,.07-.67c0-1-.63-1.65-1.91-1.65a2.87,2.87,0,0,0-3,2.57l-.79,3.95h-1L425,156h1l-.24,1.17a3.62,3.62,0,0,1,2.88-1.23C430.23,156,431.2,156.86,431.2,158.35Z"/><path class="a9824b4f-e91f-4899-a6e7-df8e654c4761" d="M441.53,155.2l-.17.82h2.25l-.16.84h-2.23l-1.3,6.52h-1l1.3-6.52h-1.31l.15-.84h1.33l.18-.93a2.42,2.42,0,0,1,2.53-2.17,2.25,2.25,0,0,1,1.48.48l-.43.72a1.59,1.59,0,0,0-1-.36C442.23,153.76,441.74,154.21,441.53,155.2Z"/><path class="a9824b4f-e91f-4899-a6e7-df8e654c4761" d="M444.35,160.33a4.18,4.18,0,0,1,4.26-4.37,3,3,0,0,1,3.35,3.11,4.18,4.18,0,0,1-4.26,4.38A3,3,0,0,1,444.35,160.33Zm6.61-1.2a2.15,2.15,0,0,0-2.42-2.3,3.24,3.24,0,0,0-3.19,3.46,2.14,2.14,0,0,0,2.42,2.28A3.21,3.21,0,0,0,451,159.13Z"/><path class="a9824b4f-e91f-4899-a6e7-df8e654c4761" d="M459.43,156l-.18,1-.28,0c-1.57,0-2.62.9-3,2.73l-.74,3.74h-1l1.46-7.36h1l-.25,1.34A3.31,3.31,0,0,1,459.43,156Z"/><path class="a9824b4f-e91f-4899-a6e7-df8e654c4761" d="M139.68,178a2.64,2.64,0,0,0-.06.46c0,.63.35,1,1.06,1a1.9,1.9,0,0,0,1.14-.38l.24.76a2.75,2.75,0,0,1-1.64.47,1.61,1.61,0,0,1-1.8-1.68,2.83,2.83,0,0,1,.06-.57l.86-4.34h-1.31l.16-.84h1.31l.33-1.62h1l-.32,1.62h2.24l-.17.84h-2.24Z"/><path class="a9824b4f-e91f-4899-a6e7-df8e654c4761" d="M152.5,175.15a5,5,0,0,1-.08.84l-.84,4.19h-1l.84-4.2a3.25,3.25,0,0,0,.07-.67c0-1.05-.63-1.65-1.9-1.65a2.87,2.87,0,0,0-3,2.57l-.78,4h-1l2.08-10.39h1l-.83,4.13a3.58,3.58,0,0,1,2.82-1.16C151.54,172.76,152.5,173.66,152.5,175.15Z"/><path class="a9824b4f-e91f-4899-a6e7-df8e654c4761" d="M156.29,176.78c0,.1,0,.2,0,.29,0,1.47.84,2.3,2.53,2.3a3.34,3.34,0,0,0,2.41-.92l.45.71a4.19,4.19,0,0,1-2.94,1.09c-2.13,0-3.43-1.2-3.43-3.13a4.1,4.1,0,0,1,4.07-4.36,2.93,2.93,0,0,1,3.21,3.12,4.35,4.35,0,0,1-.1.9Zm.1-.74h5.25a1.27,1.27,0,0,0,0-.27,2.08,2.08,0,0,0-2.31-2.17A3,3,0,0,0,156.39,176Z"/><path class="a9824b4f-e91f-4899-a6e7-df8e654c4761" d="M173.49,171.27H170l.18-.89h7.94l-.2.89h-3.44l-1.78,8.91h-1Z"/><path class="a9824b4f-e91f-4899-a6e7-df8e654c4761" d="M178.83,176.78c0,.1,0,.2,0,.29,0,1.47.84,2.3,2.53,2.3a3.34,3.34,0,0,0,2.41-.92l.45.71a4.19,4.19,0,0,1-2.94,1.09c-2.13,0-3.43-1.2-3.43-3.13a4.1,4.1,0,0,1,4.07-4.36,2.93,2.93,0,0,1,3.21,3.12,4.35,4.35,0,0,1-.1.9Zm.1-.74h5.25a1.27,1.27,0,0,0,0-.27,2.08,2.08,0,0,0-2.31-2.17A3,3,0,0,0,178.93,176Z"/><path class="a9824b4f-e91f-4899-a6e7-df8e654c4761" d="M195.61,172.82l-1.47,7.36h-1l.24-1.16a3.77,3.77,0,0,1-2.87,1.23,3,3,0,0,1-3.21-3.12,4.15,4.15,0,0,1,4.16-4.37,2.76,2.76,0,0,1,2.81,1.6l.3-1.54ZM194,175.93a2.16,2.16,0,0,0-2.43-2.3,3.23,3.23,0,0,0-3.19,3.46,2.14,2.14,0,0,0,2.42,2.28A3.22,3.22,0,0,0,194,175.93Z"/><path class="a9824b4f-e91f-4899-a6e7-df8e654c4761" d="M197.89,177.13a4.17,4.17,0,0,1,4.28-4.37,3.06,3.06,0,0,1,2.9,1.47l-.84.49a2.26,2.26,0,0,0-2.14-1.09,3.24,3.24,0,0,0-3.21,3.46,2.15,2.15,0,0,0,2.45,2.28,2.87,2.87,0,0,0,2.33-1.06l.71.54a3.8,3.8,0,0,1-3.08,1.4C199.19,180.25,197.89,179,197.89,177.13Z"/><path class="a9824b4f-e91f-4899-a6e7-df8e654c4761" d="M214.47,175.15a4.14,4.14,0,0,1-.09.84l-.84,4.19h-1l.84-4.2a4.13,4.13,0,0,0,.07-.67c0-1.05-.63-1.65-1.91-1.65a2.87,2.87,0,0,0-3,2.57l-.78,4h-1l2.07-10.39h1l-.82,4.13a3.58,3.58,0,0,1,2.81-1.16C213.5,172.76,214.47,173.66,214.47,175.15Z"/><path class="a9824b4f-e91f-4899-a6e7-df8e654c4761" d="M218.26,176.78a1.46,1.46,0,0,0,0,.29c0,1.47.84,2.3,2.54,2.3a3.35,3.35,0,0,0,2.41-.92l.44.71a4.19,4.19,0,0,1-2.94,1.09c-2.13,0-3.43-1.2-3.43-3.13a4.1,4.1,0,0,1,4.08-4.36,2.94,2.94,0,0,1,3.21,3.12,5.16,5.16,0,0,1-.1.9Zm.09-.74h5.26a2.53,2.53,0,0,0,0-.27,2.08,2.08,0,0,0-2.31-2.17A3,3,0,0,0,218.35,176Z"/><path class="a9824b4f-e91f-4899-a6e7-df8e654c4761" d="M232,172.76l-.18,1-.28,0c-1.57,0-2.62.9-3,2.73l-.74,3.74h-1l1.45-7.36h1l-.26,1.34A3.33,3.33,0,0,1,232,172.76Z"/><path class="a9824b4f-e91f-4899-a6e7-df8e654c4761" d="M232.66,179.36l.48-.79a4,4,0,0,0,2.55.82c1.41,0,2.18-.5,2.18-1.32,0-1.67-4.17-.52-4.17-3,0-1.4,1.26-2.3,3.19-2.3a4.47,4.47,0,0,1,2.49.69l-.42.79a3.7,3.7,0,0,0-2.15-.63c-1.36,0-2.13.55-2.13,1.35,0,1.71,4.17.54,4.17,3,0,1.45-1.3,2.29-3.26,2.29A4.67,4.67,0,0,1,232.66,179.36Z"/><path class="a9824b4f-e91f-4899-a6e7-df8e654c4761" d="M246,177.13a4.18,4.18,0,0,1,4.26-4.37,3,3,0,0,1,3.34,3.11,4.18,4.18,0,0,1-4.25,4.38A3,3,0,0,1,246,177.13Zm6.61-1.2a2.15,2.15,0,0,0-2.42-2.3,3.23,3.23,0,0,0-3.2,3.46,2.15,2.15,0,0,0,2.43,2.28A3.22,3.22,0,0,0,252.6,175.93Z"/><path class="a9824b4f-e91f-4899-a6e7-df8e654c4761" d="M258.66,172l-.17.82h2.26l-.17.84h-2.23l-1.3,6.52h-1l1.3-6.52H256l.16-.84h1.33l.18-.93a2.41,2.41,0,0,1,2.52-2.17,2.21,2.21,0,0,1,1.48.48l-.43.72a1.59,1.59,0,0,0-1-.36C259.36,170.56,258.87,171,258.66,172Z"/><path class="a9824b4f-e91f-4899-a6e7-df8e654c4761" d="M267.66,176.14c0,1.91,1.25,3.2,3.67,3.2a4.18,4.18,0,0,0,2.51-.77l.66-3.29h1l-.75,3.77a5.52,5.52,0,0,1-3.52,1.22c-2.89,0-4.58-1.64-4.58-4.08a5.73,5.73,0,0,1,6-5.9,4.49,4.49,0,0,1,3.64,1.43l-.73.63a3.62,3.62,0,0,0-2.95-1.13A4.75,4.75,0,0,0,267.66,176.14Z"/><path class="a9824b4f-e91f-4899-a6e7-df8e654c4761" d="M281.28,171.27l-.7,3.49h5.09l-.17.88h-5.08l-.73,3.65h5.89l-.18.89h-6.92l2-9.8h6.73l-.18.89Z"/><path class="a9824b4f-e91f-4899-a6e7-df8e654c4761" d="M301,170.38l-2,9.8h-1l1.55-7.77-5.07,6.53h-.49l-2.62-6.66-1.57,7.9h-1l2-9.8h.84l2.83,7.28,5.6-7.28Z"/><path class="a9824b4f-e91f-4899-a6e7-df8e654c4761" d="M302.62,179l.5-.81a4.53,4.53,0,0,0,3.15,1.18c1.71,0,2.89-.71,2.89-1.94,0-2.25-5.1-1.12-5.1-4.2,0-1.85,1.64-3,3.92-3a5.34,5.34,0,0,1,3,.84l-.43.84a4.59,4.59,0,0,0-2.66-.79c-1.71,0-2.86.75-2.86,2,0,2.28,5.11,1.19,5.11,4.16,0,1.89-1.68,3-4,3A5.15,5.15,0,0,1,302.62,179Z"/><path class="a9824b4f-e91f-4899-a6e7-df8e654c4761" d="M318.41,176.78c0,.1,0,.2,0,.29,0,1.47.84,2.3,2.53,2.3a3.34,3.34,0,0,0,2.41-.92l.45.71a4.21,4.21,0,0,1-2.94,1.09c-2.13,0-3.43-1.2-3.43-3.13a4.1,4.1,0,0,1,4.07-4.36,2.93,2.93,0,0,1,3.21,3.12,4.35,4.35,0,0,1-.1.9Zm.1-.74h5.25a1.27,1.27,0,0,0,0-.27,2.08,2.08,0,0,0-2.32-2.17A3,3,0,0,0,318.51,176Z"/><path class="a9824b4f-e91f-4899-a6e7-df8e654c4761" d="M326.21,179.36l.47-.79a4.09,4.09,0,0,0,2.55.82c1.42,0,2.19-.5,2.19-1.32,0-1.67-4.17-.52-4.17-3,0-1.4,1.25-2.3,3.19-2.3a4.47,4.47,0,0,1,2.49.69l-.42.79a3.71,3.71,0,0,0-2.16-.63c-1.35,0-2.12.55-2.12,1.35,0,1.71,4.17.54,4.17,3,0,1.45-1.3,2.29-3.26,2.29A4.65,4.65,0,0,1,326.21,179.36Z"/><path class="a9824b4f-e91f-4899-a6e7-df8e654c4761" d="M343.15,175.87a4.15,4.15,0,0,1-4.17,4.38,2.75,2.75,0,0,1-2.8-1.61l-.84,4.26h-1l2-10.08h1l-.24,1.17a3.74,3.74,0,0,1,2.87-1.23A3,3,0,0,1,343.15,175.87Zm-1,.06a2.15,2.15,0,0,0-2.42-2.3,3.22,3.22,0,0,0-3.18,3.46,2.14,2.14,0,0,0,2.42,2.28A3.21,3.21,0,0,0,342.14,175.93Z"/><path class="a9824b4f-e91f-4899-a6e7-df8e654c4761" d="M346.35,176.78c0,.1,0,.2,0,.29,0,1.47.84,2.3,2.54,2.3a3.35,3.35,0,0,0,2.41-.92l.44.71a4.19,4.19,0,0,1-2.94,1.09c-2.13,0-3.43-1.2-3.43-3.13a4.1,4.1,0,0,1,4.08-4.36,2.93,2.93,0,0,1,3.2,3.12,5.18,5.18,0,0,1-.09.9Zm.1-.74h5.26a2.53,2.53,0,0,0,0-.27,2.08,2.08,0,0,0-2.31-2.17A3,3,0,0,0,346.45,176Z"/><path class="a9824b4f-e91f-4899-a6e7-df8e654c4761" d="M354.87,177.13a4.18,4.18,0,0,1,4.28-4.37,3.06,3.06,0,0,1,2.9,1.47l-.84.49a2.26,2.26,0,0,0-2.14-1.09,3.24,3.24,0,0,0-3.21,3.46,2.15,2.15,0,0,0,2.45,2.28,2.87,2.87,0,0,0,2.33-1.06l.71.54a3.8,3.8,0,0,1-3.08,1.4C356.17,180.25,354.87,179,354.87,177.13Z"/><path class="a9824b4f-e91f-4899-a6e7-df8e654c4761" d="M365.33,172.82h1l-1.46,7.36h-1Zm.25-2.27a.75.75,0,0,1,.77-.76.65.65,0,0,1,.68.63.76.76,0,0,1-.78.78A.65.65,0,0,1,365.58,170.55Z"/><path class="a9824b4f-e91f-4899-a6e7-df8e654c4761" d="M376.88,172.82l-1.47,7.36h-1l.23-1.16a3.77,3.77,0,0,1-2.87,1.23,3,3,0,0,1-3.21-3.12,4.15,4.15,0,0,1,4.16-4.37,2.77,2.77,0,0,1,2.81,1.6l.3-1.54Zm-1.65,3.11a2.16,2.16,0,0,0-2.43-2.3,3.23,3.23,0,0,0-3.19,3.46,2.14,2.14,0,0,0,2.42,2.28A3.22,3.22,0,0,0,375.23,175.93Z"/><path class="a9824b4f-e91f-4899-a6e7-df8e654c4761" d="M381.3,169.79h1l-2.07,10.39h-1Z"/><path class="a9824b4f-e91f-4899-a6e7-df8e654c4761" d="M386.11,169.79h1L385,180.18h-1Z"/><path class="a9824b4f-e91f-4899-a6e7-df8e654c4761" d="M396.52,172.82l-5.38,8.32c-.91,1.4-1.6,1.83-2.66,1.83a2.38,2.38,0,0,1-1.75-.66l.53-.73a1.7,1.7,0,0,0,1.3.54c.63,0,1.12-.3,1.7-1.19l.52-.79-1.84-7.32h1l1.53,6.27,4-6.27Z"/><path class="a9824b4f-e91f-4899-a6e7-df8e654c4761" d="M411.4,173.15c0,2.52-1.75,3.94-4.55,3.94h-2.77l-.63,3.09h-1l2-9.8h3.52C410.11,170.38,411.4,171.4,411.4,173.15Zm-1,.1c0-1.29-.91-2-2.55-2h-2.58l-1,4.91h2.61C409.09,176.18,410.37,175.18,410.37,173.25Z"/><path class="a9824b4f-e91f-4899-a6e7-df8e654c4761" d="M421.33,172.82l-1.47,7.36h-1l.24-1.16a3.77,3.77,0,0,1-2.87,1.23,3,3,0,0,1-3.21-3.12,4.15,4.15,0,0,1,4.16-4.37,2.76,2.76,0,0,1,2.8,1.6l.31-1.54Zm-1.66,3.11a2.15,2.15,0,0,0-2.42-2.3,3.23,3.23,0,0,0-3.19,3.46,2.14,2.14,0,0,0,2.42,2.28A3.21,3.21,0,0,0,419.67,175.93Z"/><path class="a9824b4f-e91f-4899-a6e7-df8e654c4761" d="M436,172.82l-4.16,7.36h-1l-1.23-6-3.45,6h-.95l-1.44-7.36h.91l1.19,6.24,3.55-6.24h.84l1.24,6.24,3.5-6.24Z"/><path class="a9824b4f-e91f-4899-a6e7-df8e654c4761" d="M445,172.82l-1.48,7.36h-1l.24-1.16a3.77,3.77,0,0,1-2.87,1.23,3,3,0,0,1-3.21-3.12,4.15,4.15,0,0,1,4.16-4.37,2.76,2.76,0,0,1,2.8,1.6l.31-1.54Zm-1.66,3.11a2.15,2.15,0,0,0-2.42-2.3,3.23,3.23,0,0,0-3.19,3.46,2.14,2.14,0,0,0,2.42,2.28A3.22,3.22,0,0,0,443.36,175.93Z"/><path class="a9824b4f-e91f-4899-a6e7-df8e654c4761" d="M455.05,175.15a4.11,4.11,0,0,1-.08.84l-.84,4.19h-1L454,176a3.25,3.25,0,0,0,.07-.67c0-1.05-.63-1.65-1.9-1.65a2.87,2.87,0,0,0-3,2.57l-.78,4h-1l1.46-7.36h.95l-.24,1.17a3.66,3.66,0,0,1,2.89-1.23C454.09,172.76,455.05,173.66,455.05,175.15Z"/><path class="a9824b4f-e91f-4899-a6e7-df8e654c4761" d="M458.18,176h3.68l-.17.87H458Z"/><path class="a9824b4f-e91f-4899-a6e7-df8e654c4761" d="M143.05,186.59,141,197H140l.24-1.16a3.77,3.77,0,0,1-2.87,1.23,3,3,0,0,1-3.21-3.12,4.15,4.15,0,0,1,4.16-4.37,2.77,2.77,0,0,1,2.8,1.6l.91-4.57Zm-2.26,6.14a2.15,2.15,0,0,0-2.42-2.3,3.24,3.24,0,0,0-3.2,3.46,2.15,2.15,0,0,0,2.43,2.28A3.22,3.22,0,0,0,140.79,192.73Z"/><path class="a9824b4f-e91f-4899-a6e7-df8e654c4761" d="M145.72,193.58a1.46,1.46,0,0,0,0,.29c0,1.48.84,2.3,2.54,2.3a3.35,3.35,0,0,0,2.41-.92l.45.71a4.23,4.23,0,0,1-2.95,1.09c-2.13,0-3.43-1.2-3.43-3.13a4.11,4.11,0,0,1,4.08-4.36,2.93,2.93,0,0,1,3.21,3.12,5.16,5.16,0,0,1-.1.9Zm.09-.74h5.26a2.53,2.53,0,0,0,0-.27,2.08,2.08,0,0,0-2.31-2.17A3,3,0,0,0,145.81,192.84Z"/><path class="a9824b4f-e91f-4899-a6e7-df8e654c4761" d="M155.22,193.58c0,.1,0,.2,0,.29,0,1.48.84,2.3,2.53,2.3a3.34,3.34,0,0,0,2.41-.92l.45.71a4.21,4.21,0,0,1-2.94,1.09c-2.13,0-3.43-1.2-3.43-3.13a4.1,4.1,0,0,1,4.07-4.36,2.93,2.93,0,0,1,3.21,3.12,4.35,4.35,0,0,1-.1.9Zm.1-.74h5.25a1.27,1.27,0,0,0,0-.27,2.08,2.08,0,0,0-2.31-2.17A3,3,0,0,0,155.32,192.84Z"/><path class="a9824b4f-e91f-4899-a6e7-df8e654c4761" d="M172.07,192.67a4.15,4.15,0,0,1-4.18,4.38,2.75,2.75,0,0,1-2.8-1.61l-.84,4.26h-1l2-10.08h1l-.24,1.17a3.76,3.76,0,0,1,2.88-1.23A3,3,0,0,1,172.07,192.67Zm-1,.06a2.15,2.15,0,0,0-2.42-2.3,3.21,3.21,0,0,0-3.18,3.46,2.14,2.14,0,0,0,2.42,2.28A3.21,3.21,0,0,0,171.06,192.73Z"/><path class="a9824b4f-e91f-4899-a6e7-df8e654c4761" d="M185.87,195.11l1.08,1.38-.67.65-1.07-1.36a5,5,0,0,1-3.4,1.29c-1.84,0-3-.87-3-2.24s.93-2.27,3.07-3.32a3.33,3.33,0,0,1-.8-2,2.44,2.44,0,0,1,2.72-2.44c1.27,0,2.14.66,2.14,1.72s-.84,1.95-2.74,2.87l2.14,2.73a7,7,0,0,0,1-1.9l.78.25A8.33,8.33,0,0,1,185.87,195.11Zm-1.16,0-2.35-3c-1.9.92-2.55,1.6-2.55,2.56s.74,1.57,2.07,1.57A4.07,4.07,0,0,0,184.71,195.13Zm-2.71-5.7a2.81,2.81,0,0,0,.73,1.67c1.81-.85,2.34-1.36,2.34-2.2,0-.59-.46-1.05-1.3-1.05A1.59,1.59,0,0,0,182,189.43Z"/><path class="a9824b4f-e91f-4899-a6e7-df8e654c4761" d="M201.13,194.36h-5.48L194,197h-1.12l6.44-9.8h1l2.53,9.8h-1Zm-.19-.84-1.34-5.29-3.41,5.29Z"/><path class="a9824b4f-e91f-4899-a6e7-df8e654c4761" d="M213,192a4.32,4.32,0,0,1-.09.85l-.84,4.18h-1l.84-4.2a4.13,4.13,0,0,0,.07-.67c0-1.05-.63-1.65-1.91-1.65a2.87,2.87,0,0,0-3,2.57l-.78,3.95h-1l1.45-7.36h.95l-.23,1.17a3.62,3.62,0,0,1,2.88-1.23C212,189.56,213,190.46,213,192Z"/><path class="a9824b4f-e91f-4899-a6e7-df8e654c4761" d="M217.41,194.76a2.64,2.64,0,0,0-.06.46c0,.63.35,1,1.07,1a1.85,1.85,0,0,0,1.13-.38l.24.76a2.73,2.73,0,0,1-1.64.47,1.61,1.61,0,0,1-1.79-1.68,2.81,2.81,0,0,1,0-.57l.86-4.34H216l.15-.84h1.32l.32-1.62h1l-.32,1.62h2.24l-.16.84h-2.25Z"/><path class="a9824b4f-e91f-4899-a6e7-df8e654c4761" d="M223.21,193.58a1.46,1.46,0,0,0,0,.29c0,1.48.84,2.3,2.54,2.3a3.35,3.35,0,0,0,2.41-.92l.44.71a4.19,4.19,0,0,1-2.94,1.09c-2.13,0-3.43-1.2-3.43-3.13a4.1,4.1,0,0,1,4.08-4.36,2.94,2.94,0,0,1,3.21,3.12,5.16,5.16,0,0,1-.1.9Zm.09-.74h5.26a2.53,2.53,0,0,0,0-.27,2.08,2.08,0,0,0-2.31-2.17A3,3,0,0,0,223.3,192.84Z"/><path class="a9824b4f-e91f-4899-a6e7-df8e654c4761" d="M237,189.56l-.18,1-.28,0c-1.57,0-2.62.9-3,2.73l-.74,3.74h-1l1.45-7.36h1l-.26,1.34A3.33,3.33,0,0,1,237,189.56Z"/><path class="a9824b4f-e91f-4899-a6e7-df8e654c4761" d="M246.6,192.67a4.15,4.15,0,0,1-4.17,4.38,2.75,2.75,0,0,1-2.8-1.61l-.84,4.26h-1l2-10.08h.95l-.24,1.17a3.74,3.74,0,0,1,2.87-1.23A3,3,0,0,1,246.6,192.67Zm-1,.06a2.15,2.15,0,0,0-2.42-2.3,3.22,3.22,0,0,0-3.18,3.46,2.14,2.14,0,0,0,2.42,2.28A3.21,3.21,0,0,0,245.59,192.73Z"/><path class="a9824b4f-e91f-4899-a6e7-df8e654c4761" d="M254.06,189.56l-.18,1-.28,0c-1.57,0-2.62.9-3,2.73l-.75,3.74h-1l1.46-7.36h.95L251,191A3.31,3.31,0,0,1,254.06,189.56Z"/><path class="a9824b4f-e91f-4899-a6e7-df8e654c4761" d="M256.29,193.58a1.46,1.46,0,0,0,0,.29c0,1.48.84,2.3,2.54,2.3a3.35,3.35,0,0,0,2.41-.92l.45.71a4.23,4.23,0,0,1-2.95,1.09c-2.12,0-3.43-1.2-3.43-3.13a4.11,4.11,0,0,1,4.08-4.36,2.93,2.93,0,0,1,3.21,3.12,5.16,5.16,0,0,1-.1.9Zm.1-.74h5.25a2.53,2.53,0,0,0,0-.27,2.08,2.08,0,0,0-2.31-2.17A3,3,0,0,0,256.39,192.84Z"/><path class="a9824b4f-e91f-4899-a6e7-df8e654c4761" d="M265.79,193.58c0,.1,0,.2,0,.29,0,1.48.84,2.3,2.53,2.3a3.34,3.34,0,0,0,2.41-.92l.45.71a4.19,4.19,0,0,1-2.94,1.09c-2.13,0-3.43-1.2-3.43-3.13a4.1,4.1,0,0,1,4.07-4.36,2.93,2.93,0,0,1,3.21,3.12,4.35,4.35,0,0,1-.1.9Zm.1-.74h5.25a1.27,1.27,0,0,0,0-.27,2.08,2.08,0,0,0-2.31-2.17A3,3,0,0,0,265.89,192.84Z"/><path class="a9824b4f-e91f-4899-a6e7-df8e654c4761" d="M276,194.76a2.64,2.64,0,0,0-.06.46c0,.63.36,1,1.07,1a1.85,1.85,0,0,0,1.13-.38l.24.76a2.73,2.73,0,0,1-1.64.47,1.61,1.61,0,0,1-1.79-1.68,2.26,2.26,0,0,1,.06-.57l.85-4.34h-1.3l.15-.84H276l.32-1.62h1l-.33,1.62h2.25l-.17.84h-2.24Z"/><path class="a9824b4f-e91f-4899-a6e7-df8e654c4761" d="M298.18,187.18l-2,9.8h-1l1.56-7.77-5.07,6.53h-.49l-2.62-6.66L287,197h-1l2-9.8h.84l2.83,7.28,5.6-7.28Z"/><path class="a9824b4f-e91f-4899-a6e7-df8e654c4761" d="M308.44,189.62,307,197h-1l.23-1.16a3.77,3.77,0,0,1-2.87,1.23,3,3,0,0,1-3.2-3.12,4.14,4.14,0,0,1,4.16-4.37,2.76,2.76,0,0,1,2.8,1.6l.31-1.54Zm-1.65,3.11a2.16,2.16,0,0,0-2.43-2.3,3.24,3.24,0,0,0-3.19,3.46,2.14,2.14,0,0,0,2.42,2.28A3.22,3.22,0,0,0,306.79,192.73Z"/><path class="a9824b4f-e91f-4899-a6e7-df8e654c4761" d="M312.33,187.18h.88l-.8,3.7h-.74Z"/><path class="a9824b4f-e91f-4899-a6e7-df8e654c4761" d="M322.86,189.62,321.39,197h-.95l.23-1.16a3.77,3.77,0,0,1-2.87,1.23,3,3,0,0,1-3.2-3.12,4.14,4.14,0,0,1,4.16-4.37,2.76,2.76,0,0,1,2.8,1.6l.31-1.54Zm-1.65,3.11a2.16,2.16,0,0,0-2.43-2.3,3.24,3.24,0,0,0-3.19,3.46,2.14,2.14,0,0,0,2.42,2.28A3.22,3.22,0,0,0,321.21,192.73Z"/><path class="a9824b4f-e91f-4899-a6e7-df8e654c4761" d="M338.29,191.93a4.74,4.74,0,0,1-.1.87l-.84,4.18h-1l.84-4.2a3.41,3.41,0,0,0,.07-.68c0-1-.6-1.64-1.82-1.64a2.76,2.76,0,0,0-2.86,2.46l-.81,4.06h-1l.84-4.2a4.13,4.13,0,0,0,.07-.67c0-1.05-.59-1.65-1.82-1.65A2.81,2.81,0,0,0,327,193L326.2,197h-1l1.45-7.36h1l-.24,1.17a3.45,3.45,0,0,1,2.79-1.23,2.31,2.31,0,0,1,2.41,1.47,3.73,3.73,0,0,1,3.11-1.47C337.35,189.56,338.29,190.44,338.29,191.93Z"/><path class="a9824b4f-e91f-4899-a6e7-df8e654c4761" d="M358.17,189.62,354,197h-1l-1.23-6-3.45,6h-.95L346,189.62h.91l1.19,6.24,3.56-6.24h.84l1.23,6.24,3.5-6.24Z"/><path class="a9824b4f-e91f-4899-a6e7-df8e654c4761" d="M366.88,192a4.32,4.32,0,0,1-.09.85L366,197h-1l.84-4.2a4.13,4.13,0,0,0,.07-.67c0-1.05-.63-1.65-1.91-1.65a2.87,2.87,0,0,0-3,2.57l-.78,3.95h-1l2.07-10.39h1l-.82,4.13a3.58,3.58,0,0,1,2.81-1.16C365.91,189.56,366.88,190.46,366.88,192Z"/><path class="a9824b4f-e91f-4899-a6e7-df8e654c4761" d="M369.67,193.93a4.18,4.18,0,0,1,4.26-4.37,3,3,0,0,1,3.35,3.11,4.18,4.18,0,0,1-4.26,4.38A3,3,0,0,1,369.67,193.93Zm6.61-1.2a2.15,2.15,0,0,0-2.42-2.3,3.24,3.24,0,0,0-3.2,3.46,2.15,2.15,0,0,0,2.43,2.28A3.22,3.22,0,0,0,376.28,192.73Z"/><path class="a9824b4f-e91f-4899-a6e7-df8e654c4761" d="M392,192a4.32,4.32,0,0,1-.09.85l-.84,4.18h-1l.84-4.2a4.13,4.13,0,0,0,.07-.67c0-1.05-.63-1.65-1.91-1.65a2.87,2.87,0,0,0-3,2.57l-.79,3.95h-1l2.07-10.39h1l-.82,4.13a3.58,3.58,0,0,1,2.81-1.16C391,189.56,392,190.46,392,192Z"/><path class="a9824b4f-e91f-4899-a6e7-df8e654c4761" d="M403,189.62,401.57,197h-1l.24-1.16a3.77,3.77,0,0,1-2.87,1.23,3,3,0,0,1-3.21-3.12,4.15,4.15,0,0,1,4.16-4.37,2.76,2.76,0,0,1,2.8,1.6l.31-1.54Zm-1.66,3.11a2.15,2.15,0,0,0-2.42-2.3,3.24,3.24,0,0,0-3.19,3.46,2.14,2.14,0,0,0,2.42,2.28A3.21,3.21,0,0,0,401.38,192.73Z"/><path class="a9824b4f-e91f-4899-a6e7-df8e654c4761" d="M413.05,189.62,408.31,197h-1l-1.82-7.36h1l1.53,6.29,4-6.29Z"/><path class="a9824b4f-e91f-4899-a6e7-df8e654c4761" d="M414.74,193.58a1.46,1.46,0,0,0,0,.29c0,1.48.84,2.3,2.54,2.3a3.35,3.35,0,0,0,2.41-.92l.45.71a4.23,4.23,0,0,1-2.95,1.09c-2.12,0-3.43-1.2-3.43-3.13a4.11,4.11,0,0,1,4.08-4.36,2.93,2.93,0,0,1,3.21,3.12,4.35,4.35,0,0,1-.1.9Zm.09-.74h5.26a2.53,2.53,0,0,0,0-.27,2.08,2.08,0,0,0-2.31-2.17A3,3,0,0,0,414.83,192.84Z"/><path class="a9824b4f-e91f-4899-a6e7-df8e654c4761" d="M436.3,192.67a4.15,4.15,0,0,1-4.17,4.38,2.74,2.74,0,0,1-2.82-1.68L429,197H428l2.07-10.39h1l-.82,4.13a3.72,3.72,0,0,1,2.8-1.16A3,3,0,0,1,436.3,192.67Zm-1,.06a2.15,2.15,0,0,0-2.42-2.3,3.21,3.21,0,0,0-3.18,3.46,2.14,2.14,0,0,0,2.42,2.28A3.21,3.21,0,0,0,435.29,192.73Z"/><path class="a9824b4f-e91f-4899-a6e7-df8e654c4761" d="M439.5,193.58c0,.1,0,.2,0,.29,0,1.48.84,2.3,2.53,2.3a3.34,3.34,0,0,0,2.41-.92l.45.71a4.19,4.19,0,0,1-2.94,1.09c-2.13,0-3.43-1.2-3.43-3.13a4.1,4.1,0,0,1,4.07-4.36,2.93,2.93,0,0,1,3.21,3.12,4.35,4.35,0,0,1-.1.9Zm.1-.74h5.25a1.27,1.27,0,0,0,0-.27,2.08,2.08,0,0,0-2.31-2.17A3,3,0,0,0,439.6,192.84Z"/><path class="a9824b4f-e91f-4899-a6e7-df8e654c4761" d="M449,193.58c0,.1,0,.2,0,.29,0,1.48.83,2.3,2.53,2.3a3.35,3.35,0,0,0,2.41-.92l.45.71a4.22,4.22,0,0,1-2.94,1.09c-2.13,0-3.44-1.2-3.44-3.13a4.11,4.11,0,0,1,4.08-4.36,2.93,2.93,0,0,1,3.21,3.12,4.35,4.35,0,0,1-.1.9Zm.1-.74h5.25a2.53,2.53,0,0,0,0-.27,2.07,2.07,0,0,0-2.31-2.17A3,3,0,0,0,449.11,192.84Z"/><path class="a9824b4f-e91f-4899-a6e7-df8e654c4761" d="M465.28,192a5.18,5.18,0,0,1-.08.85l-.84,4.18h-1l.84-4.2a4.13,4.13,0,0,0,.07-.67c0-1.05-.63-1.65-1.9-1.65a2.87,2.87,0,0,0-3,2.57l-.79,3.95h-1l1.46-7.36H460l-.24,1.17a3.64,3.64,0,0,1,2.89-1.23A2.31,2.31,0,0,1,465.28,192Z"/><path class="a9824b4f-e91f-4899-a6e7-df8e654c4761" d="M146.17,203.39l-2.07,10.39h-.95l.24-1.16a3.77,3.77,0,0,1-2.87,1.23,3,3,0,0,1-3.21-3.12,4.14,4.14,0,0,1,4.16-4.37,2.77,2.77,0,0,1,2.8,1.6l.91-4.57Zm-2.25,6.14a2.15,2.15,0,0,0-2.42-2.3,3.23,3.23,0,0,0-3.2,3.46,2.15,2.15,0,0,0,2.43,2.28A3.22,3.22,0,0,0,143.92,209.53Z"/><path class="a9824b4f-e91f-4899-a6e7-df8e654c4761" d="M147.85,210.73a4.18,4.18,0,0,1,4.26-4.37,3,3,0,0,1,3.35,3.11,4.18,4.18,0,0,1-4.26,4.38A3,3,0,0,1,147.85,210.73Zm6.61-1.2a2.15,2.15,0,0,0-2.42-2.3,3.23,3.23,0,0,0-3.2,3.46,2.15,2.15,0,0,0,2.43,2.28A3.22,3.22,0,0,0,154.46,209.53Z"/><path class="a9824b4f-e91f-4899-a6e7-df8e654c4761" d="M159.21,206.42h1l-1.46,7.36h-1Zm.25-2.27a.75.75,0,0,1,.77-.76.65.65,0,0,1,.68.63.76.76,0,0,1-.78.78A.65.65,0,0,1,159.46,204.15Z"/><path class="a9824b4f-e91f-4899-a6e7-df8e654c4761" d="M170.25,208.75a4.27,4.27,0,0,1-.08.85l-.84,4.18h-1l.85-4.2a4.13,4.13,0,0,0,.07-.67c0-1-.63-1.65-1.91-1.65a2.87,2.87,0,0,0-3,2.57l-.78,3.95h-1l1.46-7.36H165l-.23,1.17a3.62,3.62,0,0,1,2.88-1.23C169.29,206.36,170.25,207.26,170.25,208.75Z"/><path class="a9824b4f-e91f-4899-a6e7-df8e654c4761" d="M181.41,206.42l-1.29,6.47c-.51,2.6-1.89,3.68-4.28,3.68a4.66,4.66,0,0,1-3.28-1.11l.59-.75a3.86,3.86,0,0,0,2.76,1,2.89,2.89,0,0,0,3.19-2.63l.17-.82a3.8,3.8,0,0,1-2.94,1.26c-2,0-3.25-1.13-3.25-3a4.07,4.07,0,0,1,4.2-4.17,2.82,2.82,0,0,1,2.87,1.68l.31-1.62Zm-1.68,3c0-1.34-.91-2.14-2.44-2.14a3.12,3.12,0,0,0-3.2,3.25c0,1.34.89,2.14,2.43,2.14A3.13,3.13,0,0,0,179.73,209.37Z"/><path class="a9824b4f-e91f-4899-a6e7-df8e654c4761" d="M196.69,206.42l-1.47,7.36h-1l.24-1.16a3.77,3.77,0,0,1-2.87,1.23,3,3,0,0,1-3.21-3.12,4.15,4.15,0,0,1,4.16-4.37,2.76,2.76,0,0,1,2.8,1.6l.31-1.54ZM195,209.53a2.15,2.15,0,0,0-2.42-2.3,3.23,3.23,0,0,0-3.19,3.46,2.14,2.14,0,0,0,2.42,2.28A3.22,3.22,0,0,0,195,209.53Z"/><path class="a9824b4f-e91f-4899-a6e7-df8e654c4761" d="M206.53,205.6l-.17.82h2.25l-.17.84h-2.22l-1.31,6.52h-1l1.3-6.52h-1.31l.15-.84h1.33l.18-.93a2.41,2.41,0,0,1,2.52-2.17,2.26,2.26,0,0,1,1.49.48l-.44.72a1.57,1.57,0,0,0-1-.36C207.23,204.16,206.74,204.61,206.53,205.6Z"/><path class="a9824b4f-e91f-4899-a6e7-df8e654c4761" d="M217.62,206.42l-1.47,7.36h-1l.24-1.16a3.77,3.77,0,0,1-2.87,1.23,3,3,0,0,1-3.21-3.12,4.15,4.15,0,0,1,4.16-4.37,2.76,2.76,0,0,1,2.8,1.6l.31-1.54ZM216,209.53a2.15,2.15,0,0,0-2.42-2.3,3.23,3.23,0,0,0-3.19,3.46,2.14,2.14,0,0,0,2.42,2.28A3.22,3.22,0,0,0,216,209.53Z"/><path class="a9824b4f-e91f-4899-a6e7-df8e654c4761" d="M228.23,209.47a4.15,4.15,0,0,1-4.18,4.38,2.72,2.72,0,0,1-2.81-1.68l-.32,1.61h-1L222,203.39h1l-.82,4.13a3.71,3.71,0,0,1,2.8-1.16A3,3,0,0,1,228.23,209.47Zm-1,.06a2.15,2.15,0,0,0-2.42-2.3,3.21,3.21,0,0,0-3.18,3.46A2.14,2.14,0,0,0,224,213,3.21,3.21,0,0,0,227.22,209.53Z"/><path class="a9824b4f-e91f-4899-a6e7-df8e654c4761" d="M238.62,206.42l-1.47,7.36h-1l.24-1.17a3.56,3.56,0,0,1-2.84,1.24,2.3,2.3,0,0,1-2.62-2.41,4.83,4.83,0,0,1,.08-.82l.84-4.2h1l-.84,4.2a3.16,3.16,0,0,0-.07.66c0,1.06.61,1.68,1.87,1.68a2.88,2.88,0,0,0,3-2.58l.78-4Z"/><path class="a9824b4f-e91f-4899-a6e7-df8e654c4761" d="M243.05,203.39h1L242,213.78h-1Z"/><path class="a9824b4f-e91f-4899-a6e7-df8e654c4761" d="M245.72,210.73a4.18,4.18,0,0,1,4.26-4.37,3,3,0,0,1,3.35,3.11,4.18,4.18,0,0,1-4.26,4.38A3,3,0,0,1,245.72,210.73Zm6.61-1.2a2.15,2.15,0,0,0-2.42-2.3,3.23,3.23,0,0,0-3.19,3.46,2.14,2.14,0,0,0,2.42,2.28A3.21,3.21,0,0,0,252.33,209.53Z"/><path class="a9824b4f-e91f-4899-a6e7-df8e654c4761" d="M263.73,206.42l-1.47,7.36h-.95l.24-1.17a3.58,3.58,0,0,1-2.85,1.24,2.31,2.31,0,0,1-2.62-2.41,4,4,0,0,1,.09-.82l.84-4.2h1l-.84,4.2a4,4,0,0,0-.07.66c0,1.06.62,1.68,1.88,1.68a2.88,2.88,0,0,0,3-2.58l.79-4Z"/><path class="a9824b4f-e91f-4899-a6e7-df8e654c4761" d="M265.31,213l.48-.79a4,4,0,0,0,2.54.82c1.42,0,2.19-.5,2.19-1.32,0-1.67-4.18-.52-4.18-3,0-1.4,1.27-2.3,3.2-2.3a4.47,4.47,0,0,1,2.49.69l-.42.79a3.7,3.7,0,0,0-2.15-.63c-1.36,0-2.13.55-2.13,1.35,0,1.71,4.17.54,4.17,3,0,1.45-1.3,2.29-3.26,2.29A4.65,4.65,0,0,1,265.31,213Z"/><path class="a9824b4f-e91f-4899-a6e7-df8e654c4761" d="M275.61,216.11l.46-.77a1.66,1.66,0,0,0,1.11.38c.8,0,1.28-.42,1.47-1.4l1.58-7.9h1l-1.58,7.92a2.37,2.37,0,0,1-2.48,2.23A2.56,2.56,0,0,1,275.61,216.11Zm4.86-12a.75.75,0,0,1,.77-.76.66.66,0,0,1,.69.63.76.76,0,0,1-.79.78A.65.65,0,0,1,280.47,204.15Z"/><path class="a9824b4f-e91f-4899-a6e7-df8e654c4761" d="M283.52,210.73a4.18,4.18,0,0,1,4.26-4.37,3,3,0,0,1,3.35,3.11,4.18,4.18,0,0,1-4.26,4.38A3,3,0,0,1,283.52,210.73Zm6.61-1.2a2.15,2.15,0,0,0-2.42-2.3,3.23,3.23,0,0,0-3.19,3.46,2.14,2.14,0,0,0,2.42,2.28A3.21,3.21,0,0,0,290.13,209.53Z"/><path class="a9824b4f-e91f-4899-a6e7-df8e654c4761" d="M301.69,209.47a4.15,4.15,0,0,1-4.18,4.38,2.72,2.72,0,0,1-2.81-1.68l-.33,1.61h-.95l2.07-10.39h1l-.83,4.13a3.74,3.74,0,0,1,2.8-1.16A3,3,0,0,1,301.69,209.47Zm-1,.06a2.16,2.16,0,0,0-2.43-2.3,3.22,3.22,0,0,0-3.18,3.46A2.15,2.15,0,0,0,297.5,213,3.21,3.21,0,0,0,300.68,209.53Z"/><path class="a9824b4f-e91f-4899-a6e7-df8e654c4761" d="M321,206.42l-4.16,7.36h-1l-1.23-6-3.44,6h-1l-1.44-7.36h.91l1.19,6.24,3.56-6.24h.84l1.23,6.24,3.5-6.24Z"/><path class="a9824b4f-e91f-4899-a6e7-df8e654c4761" d="M323.49,206.42h1L323,213.78h-1Zm.26-2.27a.75.75,0,0,1,.77-.76.65.65,0,0,1,.68.63.76.76,0,0,1-.78.78A.65.65,0,0,1,323.75,204.15Z"/><path class="a9824b4f-e91f-4899-a6e7-df8e654c4761" d="M328.45,211.56a2.64,2.64,0,0,0-.06.46c0,.63.35,1,1.07,1a1.88,1.88,0,0,0,1.13-.38l.24.76a2.73,2.73,0,0,1-1.64.47,1.6,1.6,0,0,1-1.79-1.68,2.26,2.26,0,0,1,.06-.57l.85-4.34H327l.15-.84h1.32l.32-1.62h1l-.32,1.62h2.24l-.17.84H329.3Z"/><path class="a9824b4f-e91f-4899-a6e7-df8e654c4761" d="M341.28,208.75a4.32,4.32,0,0,1-.09.85l-.84,4.18h-1l.84-4.2a4.13,4.13,0,0,0,.07-.67c0-1-.63-1.65-1.91-1.65a2.86,2.86,0,0,0-3,2.57l-.79,3.95h-1l2.07-10.39h1l-.82,4.13a3.58,3.58,0,0,1,2.81-1.16C340.31,206.36,341.28,207.26,341.28,208.75Z"/><path class="a9824b4f-e91f-4899-a6e7-df8e654c4761" d="M348.76,210.73a4.18,4.18,0,0,1,4.26-4.37,3,3,0,0,1,3.35,3.11,4.18,4.18,0,0,1-4.26,4.38A3,3,0,0,1,348.76,210.73Zm6.61-1.2a2.15,2.15,0,0,0-2.42-2.3,3.23,3.23,0,0,0-3.19,3.46,2.14,2.14,0,0,0,2.42,2.28A3.22,3.22,0,0,0,355.37,209.53Z"/><path class="a9824b4f-e91f-4899-a6e7-df8e654c4761" d="M366.35,208.75a5.18,5.18,0,0,1-.08.85l-.84,4.18h-1l.84-4.2a4.13,4.13,0,0,0,.07-.67c0-1-.63-1.65-1.9-1.65a2.87,2.87,0,0,0-3,2.57l-.78,3.95h-1l1.46-7.36h.95l-.24,1.17a3.64,3.64,0,0,1,2.89-1.23A2.31,2.31,0,0,1,366.35,208.75Z"/><path class="a9824b4f-e91f-4899-a6e7-df8e654c4761" d="M371.26,203.39h1l-2.08,10.39h-1Z"/><path class="a9824b4f-e91f-4899-a6e7-df8e654c4761" d="M375.46,206.42h1L375,213.78h-1Zm.25-2.27a.76.76,0,0,1,.77-.76.66.66,0,0,1,.69.63.76.76,0,0,1-.79.78A.65.65,0,0,1,375.71,204.15Z"/><path class="a9824b4f-e91f-4899-a6e7-df8e654c4761" d="M386.51,208.75a5.18,5.18,0,0,1-.08.85l-.85,4.18h-1l.84-4.2a4.13,4.13,0,0,0,.07-.67c0-1-.63-1.65-1.9-1.65a2.87,2.87,0,0,0-3,2.57l-.79,3.95h-1l1.46-7.36h1l-.24,1.17a3.64,3.64,0,0,1,2.89-1.23A2.31,2.31,0,0,1,386.51,208.75Z"/><path class="a9824b4f-e91f-4899-a6e7-df8e654c4761" d="M390.3,210.38c0,.1,0,.2,0,.29,0,1.47.84,2.3,2.53,2.3a3.35,3.35,0,0,0,2.41-.92l.45.71a4.21,4.21,0,0,1-2.94,1.09c-2.13,0-3.43-1.2-3.43-3.13a4.1,4.1,0,0,1,4.07-4.36,2.93,2.93,0,0,1,3.21,3.12,4.35,4.35,0,0,1-.1.9Zm.1-.74h5.25a2.53,2.53,0,0,0,0-.27,2.07,2.07,0,0,0-2.31-2.17A3,3,0,0,0,390.4,209.64Z"/><path class="a9824b4f-e91f-4899-a6e7-df8e654c4761" d="M403.53,210.73a4.18,4.18,0,0,1,4.29-4.37,3.06,3.06,0,0,1,2.89,1.47l-.84.49a2.26,2.26,0,0,0-2.14-1.09,3.24,3.24,0,0,0-3.21,3.46A2.16,2.16,0,0,0,407,213a2.85,2.85,0,0,0,2.32-1.06l.71.54a3.78,3.78,0,0,1-3.08,1.4C404.83,213.85,403.53,212.62,403.53,210.73Z"/><path class="a9824b4f-e91f-4899-a6e7-df8e654c4761" d="M414.49,203.39h1l-2.08,10.39h-1Z"/><path class="a9824b4f-e91f-4899-a6e7-df8e654c4761" d="M425.43,206.42,424,213.78H423l.23-1.16a3.77,3.77,0,0,1-2.87,1.23,3,3,0,0,1-3.21-3.12,4.15,4.15,0,0,1,4.17-4.37,2.76,2.76,0,0,1,2.8,1.6l.3-1.54Zm-1.65,3.11a2.16,2.16,0,0,0-2.43-2.3,3.23,3.23,0,0,0-3.19,3.46,2.14,2.14,0,0,0,2.42,2.28A3.22,3.22,0,0,0,423.78,209.53Z"/><path class="a9824b4f-e91f-4899-a6e7-df8e654c4761" d="M427,213l.48-.79A4,4,0,0,0,430,213c1.41,0,2.18-.5,2.18-1.32,0-1.67-4.17-.52-4.17-3,0-1.4,1.26-2.3,3.19-2.3a4.5,4.5,0,0,1,2.5.69l-.42.79a3.73,3.73,0,0,0-2.16-.63c-1.36,0-2.13.55-2.13,1.35,0,1.71,4.17.54,4.17,3,0,1.45-1.3,2.29-3.26,2.29A4.69,4.69,0,0,1,427,213Z"/><path class="a9824b4f-e91f-4899-a6e7-df8e654c4761" d="M434.89,213l.47-.79a4.07,4.07,0,0,0,2.55.82c1.42,0,2.19-.5,2.19-1.32,0-1.67-4.18-.52-4.18-3,0-1.4,1.27-2.3,3.2-2.3a4.47,4.47,0,0,1,2.49.69l-.42.79a3.7,3.7,0,0,0-2.15-.63c-1.36,0-2.13.55-2.13,1.35,0,1.71,4.17.54,4.17,3,0,1.45-1.3,2.29-3.26,2.29A4.65,4.65,0,0,1,434.89,213Z"/><path class="a9824b4f-e91f-4899-a6e7-df8e654c4761" d="M444.49,210.38c0,.1,0,.2,0,.29,0,1.47.84,2.3,2.53,2.3a3.32,3.32,0,0,0,2.41-.92l.45.71a4.19,4.19,0,0,1-2.94,1.09c-2.13,0-3.43-1.2-3.43-3.13a4.1,4.1,0,0,1,4.08-4.36,2.93,2.93,0,0,1,3.2,3.12,4.35,4.35,0,0,1-.1.9Zm.1-.74h5.25a1.27,1.27,0,0,0,0-.27,2.08,2.08,0,0,0-2.31-2.17A3,3,0,0,0,444.59,209.64Z"/><path class="a9824b4f-e91f-4899-a6e7-df8e654c4761" d="M452.29,213l.48-.79a4,4,0,0,0,2.55.82c1.41,0,2.18-.5,2.18-1.32,0-1.67-4.17-.52-4.17-3,0-1.4,1.26-2.3,3.19-2.3a4.47,4.47,0,0,1,2.49.69l-.42.79a3.7,3.7,0,0,0-2.15-.63c-1.36,0-2.13.55-2.13,1.35,0,1.71,4.17.54,4.17,3,0,1.45-1.3,2.29-3.26,2.29A4.65,4.65,0,0,1,452.29,213Z"/><path class="a9824b4f-e91f-4899-a6e7-df8e654c4761" d="M460.45,213.13a.79.79,0,0,1,.79-.8.7.7,0,0,1,.71.73.77.77,0,0,1-.77.79A.72.72,0,0,1,460.45,213.13Z"/><path class="a9824b4f-e91f-4899-a6e7-df8e654c4761" d="M141.2,221.67h-3.46l.18-.89h8l-.2.89h-3.44l-1.78,8.91h-1Z"/><path class="a9824b4f-e91f-4899-a6e7-df8e654c4761" d="M154.08,225.55a4.11,4.11,0,0,1-.08.84l-.84,4.19h-1l.84-4.2a4.13,4.13,0,0,0,.07-.67c0-1.05-.63-1.65-1.91-1.65a2.87,2.87,0,0,0-3,2.57l-.78,4h-1l2.08-10.39h1l-.82,4.13a3.58,3.58,0,0,1,2.81-1.16C153.12,223.16,154.08,224.06,154.08,225.55Z"/><path class="a9824b4f-e91f-4899-a6e7-df8e654c4761" d="M157.87,227.18c0,.1,0,.2,0,.29,0,1.47.84,2.3,2.54,2.3a3.35,3.35,0,0,0,2.41-.92l.44.71a4.19,4.19,0,0,1-2.94,1.09c-2.13,0-3.43-1.2-3.43-3.13a4.1,4.1,0,0,1,4.08-4.36,2.93,2.93,0,0,1,3.2,3.12,5.18,5.18,0,0,1-.09.9Zm.1-.74h5.26a2.53,2.53,0,0,0,0-.27,2.08,2.08,0,0,0-2.31-2.17A3,3,0,0,0,158,226.44Z"/><path class="a9824b4f-e91f-4899-a6e7-df8e654c4761" d="M174,223.22l-5.38,8.32c-.91,1.4-1.6,1.83-2.66,1.83a2.38,2.38,0,0,1-1.75-.66l.53-.73a1.7,1.7,0,0,0,1.3.54c.63,0,1.12-.3,1.7-1.19l.52-.79-1.84-7.32h1l1.53,6.27,4-6.27Z"/><path class="a9824b4f-e91f-4899-a6e7-df8e654c4761" d="M187.87,223.22l-1.47,7.36h-1l.24-1.16a3.77,3.77,0,0,1-2.87,1.23,3,3,0,0,1-3.21-3.12,4.15,4.15,0,0,1,4.16-4.37,2.76,2.76,0,0,1,2.8,1.6l.31-1.54Zm-1.66,3.11a2.15,2.15,0,0,0-2.42-2.3,3.23,3.23,0,0,0-3.19,3.46,2.14,2.14,0,0,0,2.42,2.28A3.22,3.22,0,0,0,186.21,226.33Z"/><path class="a9824b4f-e91f-4899-a6e7-df8e654c4761" d="M195.4,223.16l-.19,1-.28,0c-1.56,0-2.61.9-3,2.73l-.74,3.74h-1l1.46-7.36h1l-.25,1.34A3.33,3.33,0,0,1,195.4,223.16Z"/><path class="a9824b4f-e91f-4899-a6e7-df8e654c4761" d="M197.62,227.18c0,.1,0,.2,0,.29,0,1.47.84,2.3,2.53,2.3a3.35,3.35,0,0,0,2.41-.92l.45.71a4.21,4.21,0,0,1-2.94,1.09c-2.13,0-3.43-1.2-3.43-3.13a4.1,4.1,0,0,1,4.07-4.36,2.93,2.93,0,0,1,3.21,3.12,4.35,4.35,0,0,1-.1.9Zm.1-.74H203a1.27,1.27,0,0,0,0-.27,2.08,2.08,0,0,0-2.32-2.17A3,3,0,0,0,197.72,226.44Z"/><path class="a9824b4f-e91f-4899-a6e7-df8e654c4761" d="M218.58,223.22l-4.73,7.36h-1L211,223.22h1l1.53,6.28,4-6.28Z"/><path class="a9824b4f-e91f-4899-a6e7-df8e654c4761" d="M220.27,227.18c0,.1,0,.2,0,.29,0,1.47.84,2.3,2.53,2.3a3.34,3.34,0,0,0,2.41-.92l.45.71a4.21,4.21,0,0,1-2.94,1.09c-2.13,0-3.43-1.2-3.43-3.13a4.1,4.1,0,0,1,4.07-4.36,2.93,2.93,0,0,1,3.21,3.12,4.35,4.35,0,0,1-.1.9Zm.1-.74h5.25a1.27,1.27,0,0,0,0-.27,2.08,2.08,0,0,0-2.31-2.17A3,3,0,0,0,220.37,226.44Z"/><path class="a9824b4f-e91f-4899-a6e7-df8e654c4761" d="M234,223.16l-.19,1-.28,0c-1.57,0-2.61.9-3,2.73l-.74,3.74h-1l1.46-7.36h.95l-.25,1.34A3.33,3.33,0,0,1,234,223.16Z"/><path class="a9824b4f-e91f-4899-a6e7-df8e654c4761" d="M243.39,223.22,238,231.54c-.91,1.4-1.6,1.83-2.66,1.83a2.38,2.38,0,0,1-1.75-.66l.53-.73a1.7,1.7,0,0,0,1.3.54c.63,0,1.12-.3,1.7-1.19l.52-.79-1.84-7.32h1l1.53,6.27,4-6.27Z"/><path class="a9824b4f-e91f-4899-a6e7-df8e654c4761" d="M257.35,226.27a4.15,4.15,0,0,1-4.18,4.38,2.75,2.75,0,0,1-2.8-1.61l-.84,4.26h-1l2-10.08h1l-.24,1.17a3.76,3.76,0,0,1,2.88-1.23A3,3,0,0,1,257.35,226.27Zm-1,.06a2.15,2.15,0,0,0-2.42-2.3,3.21,3.21,0,0,0-3.18,3.46,2.14,2.14,0,0,0,2.42,2.28A3.21,3.21,0,0,0,256.34,226.33Z"/><path class="a9824b4f-e91f-4899-a6e7-df8e654c4761" d="M267.82,223.22l-1.47,7.36h-1l.23-1.16a3.77,3.77,0,0,1-2.87,1.23,3,3,0,0,1-3.2-3.12,4.14,4.14,0,0,1,4.16-4.37,2.76,2.76,0,0,1,2.8,1.6l.31-1.54Zm-1.65,3.11a2.16,2.16,0,0,0-2.43-2.3,3.23,3.23,0,0,0-3.19,3.46,2.14,2.14,0,0,0,2.42,2.28A3.22,3.22,0,0,0,266.17,226.33Z"/><path class="a9824b4f-e91f-4899-a6e7-df8e654c4761" d="M271.76,228.36a4,4,0,0,0-.05.46c0,.63.35,1,1.06,1a1.9,1.9,0,0,0,1.14-.38l.24.76a2.75,2.75,0,0,1-1.64.47,1.61,1.61,0,0,1-1.8-1.68,2.83,2.83,0,0,1,.06-.57l.85-4.34h-1.3l.16-.84h1.31l.32-1.62h1l-.32,1.62H275l-.17.84h-2.24Z"/><path class="a9824b4f-e91f-4899-a6e7-df8e654c4761" d="M278.36,223.22h1l-1.45,7.36h-1Zm.25-2.27a.75.75,0,0,1,.77-.76.66.66,0,0,1,.69.63.76.76,0,0,1-.79.78A.65.65,0,0,1,278.61,221Z"/><path class="a9824b4f-e91f-4899-a6e7-df8e654c4761" d="M282.64,227.18c0,.1,0,.2,0,.29,0,1.47.84,2.3,2.53,2.3a3.34,3.34,0,0,0,2.41-.92l.45.71a4.21,4.21,0,0,1-2.94,1.09c-2.13,0-3.43-1.2-3.43-3.13a4.1,4.1,0,0,1,4.07-4.36,2.93,2.93,0,0,1,3.21,3.12,4.35,4.35,0,0,1-.1.9Zm.1-.74H288a1.27,1.27,0,0,0,0-.27,2.08,2.08,0,0,0-2.32-2.17A3,3,0,0,0,282.74,226.44Z"/><path class="a9824b4f-e91f-4899-a6e7-df8e654c4761" d="M298.91,225.55a5,5,0,0,1-.08.84l-.84,4.19h-1l.84-4.2a3.25,3.25,0,0,0,.07-.67c0-1.05-.63-1.65-1.9-1.65a2.87,2.87,0,0,0-3,2.57l-.78,4h-1l1.46-7.36h.95l-.24,1.17a3.66,3.66,0,0,1,2.89-1.23C298,223.16,298.91,224.06,298.91,225.55Z"/><path class="a9824b4f-e91f-4899-a6e7-df8e654c4761" d="M303.35,228.36a2.64,2.64,0,0,0-.06.46c0,.63.35,1,1.07,1a1.9,1.9,0,0,0,1.13-.38l.24.76a2.73,2.73,0,0,1-1.64.47A1.6,1.6,0,0,1,302.3,229a2.81,2.81,0,0,1,.05-.57l.86-4.34H301.9l.16-.84h1.31l.33-1.62h1l-.32,1.62h2.24l-.17.84H304.2Z"/><path class="a9824b4f-e91f-4899-a6e7-df8e654c4761" d="M321.4,223.22l-1.47,7.36h-1l.24-1.16a3.77,3.77,0,0,1-2.87,1.23,3,3,0,0,1-3.21-3.12,4.15,4.15,0,0,1,4.16-4.37,2.76,2.76,0,0,1,2.8,1.6l.31-1.54Zm-1.66,3.11a2.15,2.15,0,0,0-2.42-2.3,3.23,3.23,0,0,0-3.19,3.46,2.14,2.14,0,0,0,2.42,2.28A3.22,3.22,0,0,0,319.74,226.33Z"/><path class="a9824b4f-e91f-4899-a6e7-df8e654c4761" d="M331.43,225.55a4.11,4.11,0,0,1-.08.84l-.84,4.19h-1l.85-4.2a4.13,4.13,0,0,0,.07-.67c0-1.05-.63-1.65-1.91-1.65a2.87,2.87,0,0,0-3,2.57l-.78,4h-1l1.46-7.36h.95l-.24,1.17a3.66,3.66,0,0,1,2.89-1.23C330.47,223.16,331.43,224.06,331.43,225.55Z"/><path class="a9824b4f-e91f-4899-a6e7-df8e654c4761" d="M343.1,220.19,341,230.58h-.95l.24-1.16a3.77,3.77,0,0,1-2.87,1.23,3,3,0,0,1-3.21-3.12,4.15,4.15,0,0,1,4.16-4.37,2.77,2.77,0,0,1,2.8,1.6l.91-4.57Zm-2.26,6.14a2.15,2.15,0,0,0-2.42-2.3,3.23,3.23,0,0,0-3.2,3.46,2.15,2.15,0,0,0,2.43,2.28A3.22,3.22,0,0,0,340.84,226.33Z"/><path class="a9824b4f-e91f-4899-a6e7-df8e654c4761" d="M350.48,227.18c0,.1,0,.2,0,.29,0,1.47.84,2.3,2.54,2.3a3.31,3.31,0,0,0,2.4-.92l.45.71a4.19,4.19,0,0,1-2.94,1.09c-2.13,0-3.43-1.2-3.43-3.13a4.1,4.1,0,0,1,4.08-4.36,2.93,2.93,0,0,1,3.2,3.12,5.18,5.18,0,0,1-.09.9Zm.1-.74h5.25a1.27,1.27,0,0,0,0-.27,2.08,2.08,0,0,0-2.31-2.17A3,3,0,0,0,350.58,226.44Z"/><path class="a9824b4f-e91f-4899-a6e7-df8e654c4761" d="M366.76,225.55a4.14,4.14,0,0,1-.09.84l-.84,4.19h-1l.84-4.2a4.13,4.13,0,0,0,.07-.67c0-1.05-.63-1.65-1.91-1.65a2.87,2.87,0,0,0-3,2.57l-.78,4h-1l1.45-7.36h1l-.23,1.17a3.62,3.62,0,0,1,2.88-1.23C365.79,223.16,366.76,224.06,366.76,225.55Z"/><path class="a9824b4f-e91f-4899-a6e7-df8e654c4761" d="M368.81,229.76l.48-.79a4,4,0,0,0,2.54.82c1.42,0,2.19-.5,2.19-1.32,0-1.67-4.17-.52-4.17-3,0-1.4,1.26-2.3,3.19-2.3a4.47,4.47,0,0,1,2.49.69l-.42.79A3.7,3.7,0,0,0,373,224c-1.36,0-2.13.55-2.13,1.35,0,1.71,4.17.54,4.17,3,0,1.45-1.3,2.29-3.26,2.29A4.65,4.65,0,0,1,368.81,229.76Z"/><path class="a9824b4f-e91f-4899-a6e7-df8e654c4761" d="M385.6,223.22l-1.47,7.36h-.95l.23-1.17a3.54,3.54,0,0,1-2.84,1.24,2.31,2.31,0,0,1-2.62-2.41,4,4,0,0,1,.09-.82l.84-4.2h1l-.84,4.2a4,4,0,0,0-.07.66c0,1.06.62,1.68,1.88,1.68a2.88,2.88,0,0,0,3-2.58l.78-4Z"/><path class="a9824b4f-e91f-4899-a6e7-df8e654c4761" d="M393.14,223.16l-.18,1-.28,0c-1.57,0-2.62.9-3,2.73l-.74,3.74h-1l1.46-7.36h.95l-.25,1.34A3.31,3.31,0,0,1,393.14,223.16Z"/><path class="a9824b4f-e91f-4899-a6e7-df8e654c4761" d="M395.37,227.18a1.46,1.46,0,0,0,0,.29c0,1.47.84,2.3,2.54,2.3a3.35,3.35,0,0,0,2.41-.92l.45.71a4.22,4.22,0,0,1-2.94,1.09c-2.13,0-3.44-1.2-3.44-3.13a4.11,4.11,0,0,1,4.08-4.36,2.93,2.93,0,0,1,3.21,3.12,4.35,4.35,0,0,1-.1.9Zm.1-.74h5.25a2.53,2.53,0,0,0,0-.27,2.08,2.08,0,0,0-2.31-2.17A3,3,0,0,0,395.47,226.44Z"/><path class="a9824b4f-e91f-4899-a6e7-df8e654c4761" d="M416.86,223.22l-1.47,7.36h-.95l.24-1.16a3.78,3.78,0,0,1-2.88,1.23,3,3,0,0,1-3.2-3.12,4.14,4.14,0,0,1,4.16-4.37,2.76,2.76,0,0,1,2.8,1.6l.31-1.54Zm-1.65,3.11a2.15,2.15,0,0,0-2.42-2.3,3.23,3.23,0,0,0-3.2,3.46,2.14,2.14,0,0,0,2.42,2.28A3.22,3.22,0,0,0,415.21,226.33Z"/><path class="a9824b4f-e91f-4899-a6e7-df8e654c4761" d="M421.28,220.19h1l-2.08,10.39h-1Z"/><path class="a9824b4f-e91f-4899-a6e7-df8e654c4761" d="M426.1,220.19h1L425,230.58h-1Z"/><path class="a9824b4f-e91f-4899-a6e7-df8e654c4761" d="M432.77,229.76l.48-.79a4,4,0,0,0,2.55.82c1.41,0,2.19-.5,2.19-1.32,0-1.67-4.18-.52-4.18-3,0-1.4,1.26-2.3,3.19-2.3a4.5,4.5,0,0,1,2.5.69l-.42.79a3.73,3.73,0,0,0-2.16-.63c-1.36,0-2.13.55-2.13,1.35,0,1.71,4.18.54,4.18,3,0,1.45-1.31,2.29-3.27,2.29A4.69,4.69,0,0,1,432.77,229.76Z"/><path class="a9824b4f-e91f-4899-a6e7-df8e654c4761" d="M443.05,228.36a2.58,2.58,0,0,0-.05.46c0,.63.35,1,1.06,1a1.85,1.85,0,0,0,1.13-.38l.24.76a2.73,2.73,0,0,1-1.64.47A1.61,1.61,0,0,1,442,229a2.26,2.26,0,0,1,.06-.57l.85-4.34h-1.3l.15-.84h1.32l.32-1.62h1l-.33,1.62h2.25l-.17.84h-2.24Z"/><path class="a9824b4f-e91f-4899-a6e7-df8e654c4761" d="M456.3,223.22l-1.47,7.36h-.95l.23-1.17a3.54,3.54,0,0,1-2.84,1.24,2.31,2.31,0,0,1-2.62-2.41,4.83,4.83,0,0,1,.08-.82l.85-4.2h1l-.84,4.2a4,4,0,0,0-.07.66c0,1.06.62,1.68,1.88,1.68a2.88,2.88,0,0,0,3-2.58l.78-4Z"/><path class="a9824b4f-e91f-4899-a6e7-df8e654c4761" d="M459,226.35h3.67l-.16.87h-3.67Z"/><path class="a9824b4f-e91f-4899-a6e7-df8e654c4761" d="M141.88,237l-2.08,10.39h-1l.24-1.16a3.77,3.77,0,0,1-2.87,1.23,3,3,0,0,1-3.21-3.12,4.15,4.15,0,0,1,4.16-4.37,2.77,2.77,0,0,1,2.8,1.6l.91-4.57Zm-2.26,6.14a2.15,2.15,0,0,0-2.42-2.3,3.23,3.23,0,0,0-3.19,3.46,2.14,2.14,0,0,0,2.42,2.28A3.22,3.22,0,0,0,139.62,243.13Z"/><path class="a9824b4f-e91f-4899-a6e7-df8e654c4761" d="M144.55,244a1.46,1.46,0,0,0,0,.29c0,1.47.84,2.3,2.54,2.3a3.35,3.35,0,0,0,2.41-.92l.45.71a4.22,4.22,0,0,1-2.94,1.09c-2.13,0-3.44-1.2-3.44-3.13a4.11,4.11,0,0,1,4.08-4.36,2.93,2.93,0,0,1,3.21,3.12,5.16,5.16,0,0,1-.1.9Zm.1-.74h5.25a2.53,2.53,0,0,0,0-.27,2.08,2.08,0,0,0-2.31-2.17A3,3,0,0,0,144.65,243.24Z"/><path class="a9824b4f-e91f-4899-a6e7-df8e654c4761" d="M160.82,242.35a5.18,5.18,0,0,1-.08.85l-.85,4.18h-1l.84-4.2a4.13,4.13,0,0,0,.07-.67c0-1-.63-1.65-1.9-1.65a2.87,2.87,0,0,0-3,2.57l-.79,3.95h-1l1.46-7.36h.95l-.24,1.17a3.63,3.63,0,0,1,2.89-1.23A2.31,2.31,0,0,1,160.82,242.35Z"/><path class="a9824b4f-e91f-4899-a6e7-df8e654c4761" d="M165.25,245.16a4,4,0,0,0-.05.46c0,.63.35,1,1.06,1a1.9,1.9,0,0,0,1.14-.38l.23.76a2.7,2.7,0,0,1-1.63.47,1.61,1.61,0,0,1-1.8-1.68,2.83,2.83,0,0,1,.06-.57l.85-4.34h-1.3L164,240h1.32l.32-1.62h1l-.32,1.62h2.24l-.17.84h-2.24Z"/><path class="a9824b4f-e91f-4899-a6e7-df8e654c4761" d="M169.61,246.56l.47-.79a4,4,0,0,0,2.55.82c1.42,0,2.19-.49,2.19-1.32,0-1.67-4.18-.52-4.18-3,0-1.4,1.26-2.3,3.2-2.3a4.49,4.49,0,0,1,2.49.69l-.42.79a3.73,3.73,0,0,0-2.16-.63c-1.36,0-2.13.55-2.13,1.35,0,1.71,4.18.54,4.18,3,0,1.45-1.3,2.29-3.27,2.29A4.64,4.64,0,0,1,169.61,246.56Z"/><path class="a9824b4f-e91f-4899-a6e7-df8e654c4761" d="M191.2,240l-1.47,7.36h-.95l.23-1.16a3.77,3.77,0,0,1-2.87,1.23,3,3,0,0,1-3.21-3.12,4.15,4.15,0,0,1,4.16-4.37,2.76,2.76,0,0,1,2.81,1.6l.3-1.54Zm-1.65,3.11a2.16,2.16,0,0,0-2.43-2.3,3.24,3.24,0,0,0-3.19,3.46,2.14,2.14,0,0,0,2.42,2.28A3.22,3.22,0,0,0,189.55,243.13Z"/><path class="a9824b4f-e91f-4899-a6e7-df8e654c4761" d="M198.73,240l-.18,1-.28,0c-1.57,0-2.62.9-3,2.73l-.74,3.74h-1L195,240h1l-.26,1.34A3.33,3.33,0,0,1,198.73,240Z"/><path class="a9824b4f-e91f-4899-a6e7-df8e654c4761" d="M201,244c0,.1,0,.2,0,.29,0,1.47.84,2.3,2.53,2.3a3.34,3.34,0,0,0,2.41-.92l.45.71a4.19,4.19,0,0,1-2.94,1.09c-2.13,0-3.43-1.2-3.43-3.13A4.1,4.1,0,0,1,204,240a2.93,2.93,0,0,1,3.21,3.12,4.35,4.35,0,0,1-.1.9Zm.1-.74h5.25a1.27,1.27,0,0,0,0-.27A2.08,2.08,0,0,0,204,240.8,3,3,0,0,0,201.05,243.24Z"/><path class="a9824b4f-e91f-4899-a6e7-df8e654c4761" d="M215.71,240h1l-1.45,7.36h-1Zm.25-2.27a.75.75,0,0,1,.77-.76.66.66,0,0,1,.69.63.76.76,0,0,1-.79.78A.65.65,0,0,1,216,237.75Z"/><path class="a9824b4f-e91f-4899-a6e7-df8e654c4761" d="M226.76,242.35a4.32,4.32,0,0,1-.09.85l-.84,4.18h-1l.84-4.2a4.13,4.13,0,0,0,.07-.67c0-1-.63-1.65-1.91-1.65a2.87,2.87,0,0,0-3,2.57l-.79,3.95h-1l1.45-7.36h1l-.24,1.17a3.62,3.62,0,0,1,2.88-1.23C225.79,240,226.76,240.86,226.76,242.35Z"/><path class="a9824b4f-e91f-4899-a6e7-df8e654c4761" d="M229.55,244.33a4.18,4.18,0,0,1,4.29-4.37,3.08,3.08,0,0,1,2.9,1.47l-.84.49a2.27,2.27,0,0,0-2.14-1.09,3.24,3.24,0,0,0-3.21,3.46,2.15,2.15,0,0,0,2.45,2.28,2.87,2.87,0,0,0,2.33-1.06l.71.54a3.8,3.8,0,0,1-3.08,1.4C230.86,247.45,229.55,246.22,229.55,244.33Z"/><path class="a9824b4f-e91f-4899-a6e7-df8e654c4761" d="M240.52,237h1l-2.07,10.39h-1Z"/><path class="a9824b4f-e91f-4899-a6e7-df8e654c4761" d="M251.37,240l-1.47,7.36h-1l.23-1.17a3.54,3.54,0,0,1-2.84,1.24,2.31,2.31,0,0,1-2.62-2.41,4,4,0,0,1,.09-.82l.84-4.2h1l-.84,4.2a4,4,0,0,0-.07.66c0,1.06.62,1.68,1.88,1.68a2.88,2.88,0,0,0,3-2.58l.79-4Z"/><path class="a9824b4f-e91f-4899-a6e7-df8e654c4761" d="M262.53,237l-2.07,10.39h-1l.24-1.16a3.77,3.77,0,0,1-2.87,1.23,3,3,0,0,1-3.21-3.12,4.15,4.15,0,0,1,4.16-4.37,2.77,2.77,0,0,1,2.8,1.6l.91-4.57Zm-2.26,6.14a2.15,2.15,0,0,0-2.42-2.3,3.23,3.23,0,0,0-3.19,3.46,2.14,2.14,0,0,0,2.42,2.28A3.22,3.22,0,0,0,260.27,243.13Z"/><path class="a9824b4f-e91f-4899-a6e7-df8e654c4761" d="M265.2,244a1.46,1.46,0,0,0,0,.29c0,1.47.84,2.3,2.54,2.3a3.35,3.35,0,0,0,2.41-.92l.45.71a4.22,4.22,0,0,1-2.94,1.09c-2.13,0-3.44-1.2-3.44-3.13a4.11,4.11,0,0,1,4.08-4.36,2.93,2.93,0,0,1,3.21,3.12,4.35,4.35,0,0,1-.1.9Zm.1-.74h5.25a2.53,2.53,0,0,0,0-.27,2.08,2.08,0,0,0-2.31-2.17A3,3,0,0,0,265.3,243.24Z"/><path class="a9824b4f-e91f-4899-a6e7-df8e654c4761" d="M282.58,237l-2.08,10.39h-.95l.24-1.16a3.77,3.77,0,0,1-2.87,1.23,3,3,0,0,1-3.21-3.12,4.14,4.14,0,0,1,4.16-4.37,2.77,2.77,0,0,1,2.8,1.6l.91-4.57Zm-2.26,6.14a2.15,2.15,0,0,0-2.42-2.3,3.24,3.24,0,0,0-3.2,3.46,2.15,2.15,0,0,0,2.43,2.28A3.22,3.22,0,0,0,280.32,243.13Z"/><path class="a9824b4f-e91f-4899-a6e7-df8e654c4761" d="M283.8,246.73a.79.79,0,0,1,.79-.8.7.7,0,0,1,.71.73.77.77,0,0,1-.77.79A.72.72,0,0,1,283.8,246.73Z"/><path class="a9824b4f-e91f-4899-a6e7-df8e654c4761" d="M297,238.47h-3.46l.18-.89h7.95l-.2.89H298l-1.78,8.91h-1Z"/><path class="a9824b4f-e91f-4899-a6e7-df8e654c4761" d="M309.83,242.35a4.27,4.27,0,0,1-.08.85l-.84,4.18h-1l.84-4.2a3.3,3.3,0,0,0,.08-.67c0-1-.64-1.65-1.91-1.65a2.87,2.87,0,0,0-3,2.57l-.78,3.95h-1L304.22,237h1l-.83,4.13A3.6,3.6,0,0,1,307.2,240C308.87,240,309.83,240.86,309.83,242.35Z"/><path class="a9824b4f-e91f-4899-a6e7-df8e654c4761" d="M313.62,244c0,.1,0,.2,0,.29,0,1.47.84,2.3,2.53,2.3a3.34,3.34,0,0,0,2.41-.92l.45.71a4.19,4.19,0,0,1-2.94,1.09c-2.13,0-3.43-1.2-3.43-3.13a4.1,4.1,0,0,1,4.08-4.36,2.93,2.93,0,0,1,3.2,3.12,4.35,4.35,0,0,1-.1.9Zm.1-.74H319a1.27,1.27,0,0,0,0-.27,2.08,2.08,0,0,0-2.31-2.17A3,3,0,0,0,313.72,243.24Z"/><path class="a9824b4f-e91f-4899-a6e7-df8e654c4761" d="M339.26,240l-4.16,7.36h-1l-1.24-6-3.44,6h-1L327.06,240H328l1.19,6.24,3.56-6.24h.84l1.23,6.24L338.3,240Z"/><path class="a9824b4f-e91f-4899-a6e7-df8e654c4761" d="M348.26,240l-1.47,7.36h-1l.24-1.16a3.77,3.77,0,0,1-2.87,1.23,3,3,0,0,1-3.21-3.12,4.14,4.14,0,0,1,4.16-4.37,2.76,2.76,0,0,1,2.8,1.6l.31-1.54Zm-1.65,3.11a2.15,2.15,0,0,0-2.42-2.3,3.24,3.24,0,0,0-3.2,3.46,2.15,2.15,0,0,0,2.43,2.28A3.22,3.22,0,0,0,346.61,243.13Z"/><path class="a9824b4f-e91f-4899-a6e7-df8e654c4761" d="M358.27,240l-5.38,8.32c-.91,1.4-1.59,1.83-2.66,1.83a2.39,2.39,0,0,1-1.75-.66l.53-.73a1.72,1.72,0,0,0,1.31.54c.63,0,1.12-.3,1.69-1.19l.52-.79L350.69,240h1l1.53,6.27,4-6.27Z"/><path class="a9824b4f-e91f-4899-a6e7-df8e654c4761" d="M365.56,245.16a4,4,0,0,0-.05.46c0,.63.35,1,1.06,1a1.9,1.9,0,0,0,1.14-.38l.23.76a2.7,2.7,0,0,1-1.63.47,1.61,1.61,0,0,1-1.8-1.68,2.83,2.83,0,0,1,.06-.57l.85-4.34h-1.3l.15-.84h1.32l.32-1.62h1l-.33,1.62h2.25l-.17.84h-2.24Z"/><path class="a9824b4f-e91f-4899-a6e7-df8e654c4761" d="M378.39,242.35a5.18,5.18,0,0,1-.08.85l-.84,4.18h-1l.84-4.2a4.13,4.13,0,0,0,.07-.67c0-1-.63-1.65-1.9-1.65a2.87,2.87,0,0,0-3,2.57l-.79,3.95h-1L372.77,237h1l-.83,4.13a3.58,3.58,0,0,1,2.82-1.16A2.31,2.31,0,0,1,378.39,242.35Z"/><path class="a9824b4f-e91f-4899-a6e7-df8e654c4761" d="M382.18,244c0,.1,0,.2,0,.29,0,1.47.84,2.3,2.53,2.3a3.35,3.35,0,0,0,2.41-.92l.45.71a4.21,4.21,0,0,1-2.94,1.09c-2.13,0-3.43-1.2-3.43-3.13a4.1,4.1,0,0,1,4.07-4.36,2.93,2.93,0,0,1,3.21,3.12,4.35,4.35,0,0,1-.1.9Zm.1-.74h5.25a2.53,2.53,0,0,0,0-.27,2.07,2.07,0,0,0-2.31-2.17A3,3,0,0,0,382.28,243.24Z"/><path class="a9824b4f-e91f-4899-a6e7-df8e654c4761" d="M398.28,240l-5.37,8.32c-.92,1.4-1.6,1.83-2.67,1.83a2.41,2.41,0,0,1-1.75-.66l.53-.73a1.74,1.74,0,0,0,1.31.54c.63,0,1.12-.3,1.69-1.19l.52-.79L390.71,240h1l1.53,6.27,4-6.27Z"/><path class="a9824b4f-e91f-4899-a6e7-df8e654c4761" d="M412.17,240l-1.47,7.36h-.95l.24-1.16a3.77,3.77,0,0,1-2.87,1.23,3,3,0,0,1-3.21-3.12,4.14,4.14,0,0,1,4.16-4.37,2.76,2.76,0,0,1,2.8,1.6l.31-1.54Zm-1.65,3.11a2.15,2.15,0,0,0-2.42-2.3,3.24,3.24,0,0,0-3.2,3.46,2.15,2.15,0,0,0,2.43,2.28A3.22,3.22,0,0,0,410.52,243.13Z"/><path class="a9824b4f-e91f-4899-a6e7-df8e654c4761" d="M419.7,240l-.18,1-.28,0c-1.57,0-2.62.9-3,2.73l-.75,3.74h-1L416,240h.95l-.25,1.34A3.3,3.3,0,0,1,419.7,240Z"/><path class="a9824b4f-e91f-4899-a6e7-df8e654c4761" d="M421.93,244a1.46,1.46,0,0,0,0,.29c0,1.47.84,2.3,2.54,2.3a3.35,3.35,0,0,0,2.41-.92l.44.71a4.19,4.19,0,0,1-2.94,1.09c-2.13,0-3.43-1.2-3.43-3.13A4.1,4.1,0,0,1,425,240a2.94,2.94,0,0,1,3.21,3.12,5.16,5.16,0,0,1-.1.9Zm.09-.74h5.26a2.53,2.53,0,0,0,0-.27A2.08,2.08,0,0,0,425,240.8,3,3,0,0,0,422,243.24Z"/><path class="a9824b4f-e91f-4899-a6e7-df8e654c4761" d="M440.41,240l-.18,1-.28,0c-1.57,0-2.62.9-3,2.73l-.74,3.74h-1l1.45-7.36h.95l-.25,1.34A3.33,3.33,0,0,1,440.41,240Z"/><path class="a9824b4f-e91f-4899-a6e7-df8e654c4761" d="M450,240l-1.47,7.36h-.95l.23-1.17a3.56,3.56,0,0,1-2.84,1.24,2.31,2.31,0,0,1-2.62-2.41,4.83,4.83,0,0,1,.08-.82l.85-4.2h1l-.84,4.2a4,4,0,0,0-.07.66c0,1.06.62,1.68,1.88,1.68a2.88,2.88,0,0,0,3-2.58l.78-4Z"/><path class="a9824b4f-e91f-4899-a6e7-df8e654c4761" d="M460.05,242.35a5.18,5.18,0,0,1-.08.85l-.84,4.18h-1l.84-4.2a4.13,4.13,0,0,0,.07-.67c0-1-.63-1.65-1.9-1.65a2.87,2.87,0,0,0-3,2.57l-.78,3.95h-1l1.46-7.36h.95l-.24,1.17a3.64,3.64,0,0,1,2.89-1.23A2.31,2.31,0,0,1,460.05,242.35Z"/><path class="a9824b4f-e91f-4899-a6e7-df8e654c4761" d="M463.18,243.15h3.67l-.17.87H463Z"/><path class="a9824b4f-e91f-4899-a6e7-df8e654c4761" d="M189.58,259.15a5,5,0,0,1-.08.84l-.84,4.19h-1l.84-4.2a3.25,3.25,0,0,0,.07-.67c0-1.05-.63-1.65-1.9-1.65a2.87,2.87,0,0,0-3,2.57l-.78,3.95h-1l1.46-7.36h1l-.24,1.17a3.66,3.66,0,0,1,2.89-1.23C188.62,256.76,189.58,257.66,189.58,259.15Z"/><path class="a9824b4f-e91f-4899-a6e7-df8e654c4761" d="M193.88,256.82h1l-1.46,7.36h-1Zm.25-2.27a.75.75,0,0,1,.77-.76.65.65,0,0,1,.68.63.76.76,0,0,1-.78.78A.65.65,0,0,1,194.13,254.55Z"/><path class="a9824b4f-e91f-4899-a6e7-df8e654c4761" d="M204.93,259.15a4.14,4.14,0,0,1-.09.84l-.84,4.19h-1l.84-4.2a4.13,4.13,0,0,0,.07-.67c0-1.05-.63-1.65-1.91-1.65a2.87,2.87,0,0,0-3,2.57l-.78,3.95h-1l1.45-7.36h.95l-.23,1.17a3.62,3.62,0,0,1,2.88-1.23C204,256.76,204.93,257.66,204.93,259.15Z"/><path class="a9824b4f-e91f-4899-a6e7-df8e654c4761" d="M216.08,256.82l-1.29,6.47c-.51,2.6-1.89,3.68-4.28,3.68a4.66,4.66,0,0,1-3.28-1.11l.59-.75a3.86,3.86,0,0,0,2.76,1,2.89,2.89,0,0,0,3.19-2.64l.17-.81A3.79,3.79,0,0,1,211,263.9c-1.95,0-3.25-1.13-3.25-3a4.07,4.07,0,0,1,4.2-4.17,2.82,2.82,0,0,1,2.87,1.68l.31-1.62Zm-1.68,2.95c0-1.34-.91-2.14-2.43-2.14a3.12,3.12,0,0,0-3.21,3.25c0,1.34.89,2.14,2.44,2.14A3.13,3.13,0,0,0,214.4,259.77Z"/><path class="a9824b4f-e91f-4899-a6e7-df8e654c4761" d="M224.76,262a2.64,2.64,0,0,0-.06.46c0,.63.35,1,1.07,1a1.88,1.88,0,0,0,1.13-.38l.24.76a2.73,2.73,0,0,1-1.64.47,1.61,1.61,0,0,1-1.79-1.68,2.26,2.26,0,0,1,.06-.57l.85-4.34h-1.3l.15-.84h1.32l.32-1.62h1l-.32,1.62H228l-.16.84h-2.25Z"/><path class="a9824b4f-e91f-4899-a6e7-df8e654c4761" d="M237.59,259.15a4.14,4.14,0,0,1-.09.84l-.84,4.19h-1l.84-4.2a4.13,4.13,0,0,0,.07-.67c0-1.05-.63-1.65-1.91-1.65a2.86,2.86,0,0,0-3,2.57l-.79,3.95h-1L232,253.79h1l-.82,4.13a3.58,3.58,0,0,1,2.81-1.16C236.62,256.76,237.59,257.66,237.59,259.15Z"/><path class="a9824b4f-e91f-4899-a6e7-df8e654c4761" d="M241.38,260.78a1.46,1.46,0,0,0,0,.29c0,1.47.84,2.3,2.54,2.3a3.35,3.35,0,0,0,2.41-.92l.45.71a4.23,4.23,0,0,1-2.95,1.09c-2.12,0-3.43-1.2-3.43-3.13a4.11,4.11,0,0,1,4.08-4.36,2.93,2.93,0,0,1,3.21,3.12,5.16,5.16,0,0,1-.1.9Zm.1-.74h5.25a2.53,2.53,0,0,0,0-.27,2.08,2.08,0,0,0-2.31-2.17A3,3,0,0,0,241.48,260Z"/><path class="a9824b4f-e91f-4899-a6e7-df8e654c4761" d="M251.41,256.82h1L251,264.18h-1Zm.26-2.27a.75.75,0,0,1,.77-.76.65.65,0,0,1,.68.63.76.76,0,0,1-.78.78A.65.65,0,0,1,251.67,254.55Z"/><path class="a9824b4f-e91f-4899-a6e7-df8e654c4761" d="M260,256.76l-.19,1-.27,0c-1.57,0-2.63.9-3,2.73l-.74,3.74h-1l1.46-7.36h.95l-.25,1.34A3.33,3.33,0,0,1,260,256.76Z"/><path class="a9824b4f-e91f-4899-a6e7-df8e654c4761" d="M266.09,261.13a4.17,4.17,0,0,1,4.28-4.37,3.06,3.06,0,0,1,2.9,1.47l-.84.49a2.26,2.26,0,0,0-2.14-1.09,3.24,3.24,0,0,0-3.21,3.46,2.15,2.15,0,0,0,2.45,2.28,2.86,2.86,0,0,0,2.33-1.06l.71.54a3.8,3.8,0,0,1-3.08,1.4C267.39,264.25,266.09,263,266.09,261.13Z"/><path class="a9824b4f-e91f-4899-a6e7-df8e654c4761" d="M277.05,253.79h1L276,264.18h-1Z"/><path class="a9824b4f-e91f-4899-a6e7-df8e654c4761" d="M288,256.82l-1.47,7.36h-1l.24-1.16a3.77,3.77,0,0,1-2.87,1.23,3,3,0,0,1-3.21-3.12,4.15,4.15,0,0,1,4.16-4.37,2.76,2.76,0,0,1,2.8,1.6l.31-1.54Zm-1.66,3.11a2.15,2.15,0,0,0-2.42-2.3,3.23,3.23,0,0,0-3.19,3.46,2.14,2.14,0,0,0,2.42,2.28A3.22,3.22,0,0,0,286.33,259.93Z"/><path class="a9824b4f-e91f-4899-a6e7-df8e654c4761" d="M289.55,263.36l.48-.79a4,4,0,0,0,2.55.82c1.41,0,2.18-.5,2.18-1.32,0-1.67-4.17-.52-4.17-3,0-1.4,1.26-2.3,3.19-2.3a4.47,4.47,0,0,1,2.49.69l-.42.79a3.7,3.7,0,0,0-2.15-.63c-1.36,0-2.13.55-2.13,1.35,0,1.71,4.17.54,4.17,3,0,1.45-1.3,2.29-3.26,2.29A4.65,4.65,0,0,1,289.55,263.36Z"/><path class="a9824b4f-e91f-4899-a6e7-df8e654c4761" d="M297.45,263.36l.47-.79a4,4,0,0,0,2.55.82c1.42,0,2.19-.5,2.19-1.32,0-1.67-4.18-.52-4.18-3,0-1.4,1.26-2.3,3.2-2.3a4.49,4.49,0,0,1,2.49.69l-.42.79a3.73,3.73,0,0,0-2.16-.63c-1.36,0-2.13.55-2.13,1.35,0,1.71,4.18.54,4.18,3,0,1.45-1.31,2.29-3.27,2.29A4.64,4.64,0,0,1,297.45,263.36Z"/><path class="a9824b4f-e91f-4899-a6e7-df8e654c4761" d="M307.05,260.78c0,.1,0,.2,0,.29,0,1.47.84,2.3,2.53,2.3a3.35,3.35,0,0,0,2.41-.92l.45.71a4.21,4.21,0,0,1-2.94,1.09c-2.13,0-3.43-1.2-3.43-3.13a4.1,4.1,0,0,1,4.07-4.36,2.93,2.93,0,0,1,3.21,3.12,4.35,4.35,0,0,1-.1.9Zm.1-.74h5.25a2.53,2.53,0,0,0,0-.27,2.07,2.07,0,0,0-2.31-2.17A3,3,0,0,0,307.15,260Z"/><path class="a9824b4f-e91f-4899-a6e7-df8e654c4761" d="M314.85,263.36l.47-.79a4,4,0,0,0,2.55.82c1.42,0,2.19-.5,2.19-1.32,0-1.67-4.18-.52-4.18-3,0-1.4,1.26-2.3,3.2-2.3a4.47,4.47,0,0,1,2.49.69l-.42.79a3.71,3.71,0,0,0-2.16-.63c-1.36,0-2.13.55-2.13,1.35,0,1.71,4.18.54,4.18,3,0,1.45-1.3,2.29-3.27,2.29A4.64,4.64,0,0,1,314.85,263.36Z"/><path class="a9824b4f-e91f-4899-a6e7-df8e654c4761" d="M327.46,263.36l.48-.79a4,4,0,0,0,2.55.82c1.41,0,2.18-.5,2.18-1.32,0-1.67-4.17-.52-4.17-3,0-1.4,1.26-2.3,3.19-2.3a4.47,4.47,0,0,1,2.49.69l-.42.79a3.7,3.7,0,0,0-2.15-.63c-1.36,0-2.13.55-2.13,1.35,0,1.71,4.17.54,4.17,3,0,1.45-1.3,2.29-3.26,2.29A4.67,4.67,0,0,1,327.46,263.36Z"/><path class="a9824b4f-e91f-4899-a6e7-df8e654c4761" d="M343.83,259.15a5,5,0,0,1-.08.84l-.84,4.19h-1l.84-4.2a4.13,4.13,0,0,0,.07-.67c0-1.05-.63-1.65-1.9-1.65a2.87,2.87,0,0,0-3,2.57l-.78,3.95h-1l2.07-10.39h1l-.83,4.13a3.58,3.58,0,0,1,2.82-1.16C342.87,256.76,343.83,257.66,343.83,259.15Z"/><path class="a9824b4f-e91f-4899-a6e7-df8e654c4761" d="M346.63,261.13a4.18,4.18,0,0,1,4.26-4.37,3,3,0,0,1,3.34,3.11,4.18,4.18,0,0,1-4.26,4.38A3,3,0,0,1,346.63,261.13Zm6.61-1.2a2.15,2.15,0,0,0-2.42-2.3,3.23,3.23,0,0,0-3.2,3.46,2.14,2.14,0,0,0,2.42,2.28A3.22,3.22,0,0,0,353.24,259.93Z"/><path class="a9824b4f-e91f-4899-a6e7-df8e654c4761" d="M368.66,256.82l-4.16,7.36h-1l-1.23-6-3.45,6h-1l-1.44-7.36h.91l1.19,6.24,3.55-6.24H363l1.24,6.24,3.5-6.24Z"/><path class="a9824b4f-e91f-4899-a6e7-df8e654c4761" d="M368.8,263.36l.48-.79a4,4,0,0,0,2.55.82c1.41,0,2.18-.5,2.18-1.32,0-1.67-4.17-.52-4.17-3,0-1.4,1.26-2.3,3.19-2.3a4.5,4.5,0,0,1,2.5.69l-.42.79a3.73,3.73,0,0,0-2.16-.63c-1.36,0-2.13.55-2.13,1.35,0,1.71,4.17.54,4.17,3,0,1.45-1.3,2.29-3.26,2.29A4.69,4.69,0,0,1,368.8,263.36Z"/><path class="a9824b4f-e91f-4899-a6e7-df8e654c4761" d="M383.8,262a2.64,2.64,0,0,0-.06.46c0,.63.35,1,1.07,1a1.9,1.9,0,0,0,1.13-.38l.24.76a2.73,2.73,0,0,1-1.64.47,1.6,1.6,0,0,1-1.79-1.68,2.81,2.81,0,0,1,.05-.57l.86-4.34h-1.31l.16-.84h1.32l.32-1.62h1l-.32,1.62h2.24l-.17.84h-2.24Z"/><path class="a9824b4f-e91f-4899-a6e7-df8e654c4761" d="M396.62,259.15a4.11,4.11,0,0,1-.08.84l-.84,4.19h-1l.84-4.2a4.13,4.13,0,0,0,.07-.67c0-1.05-.63-1.65-1.91-1.65a2.87,2.87,0,0,0-3,2.57l-.78,3.95h-1L391,253.79h1l-.82,4.13a3.58,3.58,0,0,1,2.81-1.16C395.66,256.76,396.62,257.66,396.62,259.15Z"/><path class="a9824b4f-e91f-4899-a6e7-df8e654c4761" d="M400.41,260.78c0,.1,0,.2,0,.29,0,1.47.84,2.3,2.54,2.3a3.35,3.35,0,0,0,2.41-.92l.44.71a4.19,4.19,0,0,1-2.94,1.09c-2.13,0-3.43-1.2-3.43-3.13a4.1,4.1,0,0,1,4.08-4.36,2.93,2.93,0,0,1,3.2,3.12,5.18,5.18,0,0,1-.09.9Zm.1-.74h5.26a2.53,2.53,0,0,0,0-.27,2.08,2.08,0,0,0-2.31-2.17A3,3,0,0,0,400.51,260Z"/><path class="a9824b4f-e91f-4899-a6e7-df8e654c4761" d="M410.45,256.82h1L410,264.18h-1Zm.26-2.27a.75.75,0,0,1,.77-.76.65.65,0,0,1,.68.63.76.76,0,0,1-.78.78A.65.65,0,0,1,410.71,254.55Z"/><path class="a9824b4f-e91f-4899-a6e7-df8e654c4761" d="M419,256.76l-.19,1-.28,0c-1.57,0-2.62.9-3,2.73l-.74,3.74h-1l1.46-7.36h1l-.25,1.34A3.32,3.32,0,0,1,419,256.76Z"/><path class="a9824b4f-e91f-4899-a6e7-df8e654c4761" d="M246,276.67a4.15,4.15,0,0,1-4.17,4.38,2.75,2.75,0,0,1-2.8-1.61l-.84,4.26h-1l2-10.08h1l-.24,1.17a3.74,3.74,0,0,1,2.87-1.23A3,3,0,0,1,246,276.67Zm-1,.06a2.15,2.15,0,0,0-2.42-2.3,3.21,3.21,0,0,0-3.18,3.46,2.14,2.14,0,0,0,2.42,2.28A3.21,3.21,0,0,0,244.94,276.73Z"/><path class="a9824b4f-e91f-4899-a6e7-df8e654c4761" d="M253.41,273.56l-.18,1-.28,0c-1.57,0-2.62.9-3,2.73l-.75,3.74h-1l1.46-7.36h.95l-.25,1.34A3.3,3.3,0,0,1,253.41,273.56Z"/><path class="a9824b4f-e91f-4899-a6e7-df8e654c4761" d="M254.64,277.93a4.18,4.18,0,0,1,4.26-4.37,3,3,0,0,1,3.35,3.11,4.18,4.18,0,0,1-4.26,4.38A3,3,0,0,1,254.64,277.93Zm6.61-1.2a2.15,2.15,0,0,0-2.42-2.3,3.23,3.23,0,0,0-3.19,3.46,2.14,2.14,0,0,0,2.42,2.28A3.22,3.22,0,0,0,261.25,276.73Z"/><path class="a9824b4f-e91f-4899-a6e7-df8e654c4761" d="M267.31,272.8l-.17.82h2.26l-.17.84H267L265.7,281h-1l1.3-6.52h-1.32l.16-.84h1.33l.18-.93a2.41,2.41,0,0,1,2.52-2.17,2.26,2.26,0,0,1,1.49.48l-.44.72a1.59,1.59,0,0,0-1.05-.36C268,271.36,267.52,271.81,267.31,272.8Z"/><path class="a9824b4f-e91f-4899-a6e7-df8e654c4761" d="M271.13,277.58c0,.1,0,.2,0,.29,0,1.48.84,2.3,2.54,2.3a3.31,3.31,0,0,0,2.4-.92l.45.71a4.19,4.19,0,0,1-2.94,1.09c-2.13,0-3.43-1.2-3.43-3.13a4.1,4.1,0,0,1,4.07-4.36,2.93,2.93,0,0,1,3.21,3.12,5.18,5.18,0,0,1-.09.9Zm.1-.74h5.25a1.27,1.27,0,0,0,0-.27,2.08,2.08,0,0,0-2.31-2.17A3,3,0,0,0,271.23,276.84Z"/><path class="a9824b4f-e91f-4899-a6e7-df8e654c4761" d="M278.93,280.16l.48-.79a4,4,0,0,0,2.55.82c1.41,0,2.18-.49,2.18-1.32,0-1.67-4.17-.52-4.17-3,0-1.4,1.26-2.3,3.19-2.3a4.47,4.47,0,0,1,2.49.69l-.42.79a3.7,3.7,0,0,0-2.15-.63c-1.36,0-2.13.55-2.13,1.35,0,1.71,4.17.55,4.17,3,0,1.45-1.3,2.29-3.26,2.29A4.65,4.65,0,0,1,278.93,280.16Z"/><path class="a9824b4f-e91f-4899-a6e7-df8e654c4761" d="M286.83,280.16l.47-.79a4,4,0,0,0,2.55.82c1.42,0,2.19-.49,2.19-1.32,0-1.67-4.18-.52-4.18-3,0-1.4,1.26-2.3,3.2-2.3a4.47,4.47,0,0,1,2.49.69l-.42.79a3.71,3.71,0,0,0-2.16-.63c-1.36,0-2.13.55-2.13,1.35,0,1.71,4.18.55,4.18,3,0,1.45-1.31,2.29-3.27,2.29A4.64,4.64,0,0,1,286.83,280.16Z"/><path class="a9824b4f-e91f-4899-a6e7-df8e654c4761" d="M297,273.62h1L296.5,281h-1Zm.26-2.27a.75.75,0,0,1,.77-.76.65.65,0,0,1,.68.63.76.76,0,0,1-.78.78A.65.65,0,0,1,297.22,271.35Z"/><path class="a9824b4f-e91f-4899-a6e7-df8e654c4761" d="M300.25,277.93a4.18,4.18,0,0,1,4.26-4.37,3,3,0,0,1,3.35,3.11,4.18,4.18,0,0,1-4.26,4.38A3,3,0,0,1,300.25,277.93Zm6.61-1.2a2.15,2.15,0,0,0-2.42-2.3,3.24,3.24,0,0,0-3.19,3.46,2.14,2.14,0,0,0,2.42,2.28A3.22,3.22,0,0,0,306.86,276.73Z"/><path class="a9824b4f-e91f-4899-a6e7-df8e654c4761" d="M317.84,276a5.18,5.18,0,0,1-.08.85l-.84,4.18h-1l.84-4.2a4.13,4.13,0,0,0,.07-.67c0-1.05-.63-1.65-1.9-1.65a2.87,2.87,0,0,0-3,2.57l-.78,4h-1l1.46-7.36h.95l-.24,1.17a3.64,3.64,0,0,1,2.89-1.23A2.31,2.31,0,0,1,317.84,276Z"/><path class="a9824b4f-e91f-4899-a6e7-df8e654c4761" d="M328.9,273.62,327.43,281h-.95l.24-1.16a3.79,3.79,0,0,1-2.88,1.23,3,3,0,0,1-3.2-3.12,4.14,4.14,0,0,1,4.16-4.37,2.76,2.76,0,0,1,2.8,1.6l.31-1.54Zm-1.65,3.11a2.15,2.15,0,0,0-2.42-2.3,3.24,3.24,0,0,0-3.2,3.46,2.14,2.14,0,0,0,2.42,2.28A3.22,3.22,0,0,0,327.25,276.73Z"/><path class="a9824b4f-e91f-4899-a6e7-df8e654c4761" d="M333.32,270.59h1L332.24,281h-1Z"/><path class="a9824b4f-e91f-4899-a6e7-df8e654c4761" d="M337.52,273.62h1L337.06,281h-1Zm.25-2.27a.76.76,0,0,1,.77-.76.66.66,0,0,1,.69.63.76.76,0,0,1-.78.78A.66.66,0,0,1,337.77,271.35Z"/><path class="a9824b4f-e91f-4899-a6e7-df8e654c4761" d="M340.1,280.16l.47-.79a4,4,0,0,0,2.55.82c1.42,0,2.19-.49,2.19-1.32,0-1.67-4.18-.52-4.18-3,0-1.4,1.26-2.3,3.2-2.3a4.49,4.49,0,0,1,2.49.69l-.42.79a3.71,3.71,0,0,0-2.16-.63c-1.36,0-2.13.55-2.13,1.35,0,1.71,4.18.55,4.18,3,0,1.45-1.31,2.29-3.27,2.29A4.64,4.64,0,0,1,340.1,280.16Z"/><path class="a9824b4f-e91f-4899-a6e7-df8e654c4761" d="M361.86,275.93a4.74,4.74,0,0,1-.1.87l-.84,4.18h-1l.84-4.2a3.41,3.41,0,0,0,.07-.68c0-1-.61-1.64-1.82-1.64a2.74,2.74,0,0,0-2.86,2.46l-.81,4.06h-1l.84-4.2a4.13,4.13,0,0,0,.07-.67c0-1.05-.59-1.65-1.82-1.65a2.83,2.83,0,0,0-2.89,2.57l-.78,4h-1l1.45-7.36h1l-.24,1.17a3.43,3.43,0,0,1,2.78-1.23,2.29,2.29,0,0,1,2.41,1.47,3.74,3.74,0,0,1,3.11-1.47C360.92,273.56,361.86,274.44,361.86,275.93Z"/><path class="a9824b4f-e91f-4899-a6e7-df8e654c4761" d="M203.15,339.07c0,2.52-1.75,3.94-4.55,3.94h-2.77l-.63,3.09h-1l2-9.8h3.52C201.86,336.3,203.15,337.32,203.15,339.07Zm-1,.1c0-1.29-.92-2-2.55-2H197l-1,4.91h2.62C200.84,342.1,202.12,341.1,202.12,339.17Z"/><path class="a9824b4f-e91f-4899-a6e7-df8e654c4761" d="M213.08,338.74l-1.47,7.36h-1l.24-1.16a3.77,3.77,0,0,1-2.87,1.23,3,3,0,0,1-3.21-3.12,4.15,4.15,0,0,1,4.16-4.37,2.76,2.76,0,0,1,2.8,1.6l.31-1.54Zm-1.66,3.1a2.15,2.15,0,0,0-2.42-2.29,3.23,3.23,0,0,0-3.19,3.46,2.14,2.14,0,0,0,2.42,2.28A3.22,3.22,0,0,0,211.42,341.84Z"/><path class="a9824b4f-e91f-4899-a6e7-df8e654c4761" d="M220.61,338.68l-.19,1-.27,0c-1.57,0-2.62.9-3,2.73l-.74,3.74h-1l1.46-7.36h1l-.25,1.34A3.33,3.33,0,0,1,220.61,338.68Z"/><path class="a9824b4f-e91f-4899-a6e7-df8e654c4761" d="M222.83,342.7c0,.1,0,.2,0,.29,0,1.47.84,2.3,2.53,2.3a3.34,3.34,0,0,0,2.41-.92l.45.71a4.21,4.21,0,0,1-2.94,1.09c-2.13,0-3.43-1.2-3.43-3.13a4.1,4.1,0,0,1,4.07-4.36,2.93,2.93,0,0,1,3.21,3.12,4.35,4.35,0,0,1-.1.9Zm.1-.74h5.25a1.27,1.27,0,0,0,0-.27,2.08,2.08,0,0,0-2.32-2.17A3,3,0,0,0,222.93,342Z"/><path class="a9824b4f-e91f-4899-a6e7-df8e654c4761" d="M239.1,341.07a4.11,4.11,0,0,1-.08.84l-.84,4.19h-1l.84-4.2a3.25,3.25,0,0,0,.07-.67c0-1.05-.63-1.65-1.9-1.65a2.87,2.87,0,0,0-3,2.57l-.78,4h-1l1.46-7.36h.95l-.24,1.17a3.66,3.66,0,0,1,2.89-1.23C238.14,338.68,239.1,339.58,239.1,341.07Z"/><path class="a9824b4f-e91f-4899-a6e7-df8e654c4761" d="M243.54,343.88a2.64,2.64,0,0,0-.06.46c0,.63.35,1,1.07,1a1.9,1.9,0,0,0,1.13-.38l.24.76a2.73,2.73,0,0,1-1.64.47,1.6,1.6,0,0,1-1.79-1.68,2.81,2.81,0,0,1,0-.57l.86-4.34h-1.31l.16-.84h1.32l.32-1.62h1l-.32,1.62h2.24l-.17.84h-2.24Z"/><path class="a9824b4f-e91f-4899-a6e7-df8e654c4761" d="M247.89,345.28l.48-.79a4,4,0,0,0,2.54.81c1.42,0,2.19-.49,2.19-1.31,0-1.67-4.17-.52-4.17-3,0-1.4,1.26-2.3,3.19-2.3a4.47,4.47,0,0,1,2.49.69l-.42.79a3.7,3.7,0,0,0-2.15-.63c-1.36,0-2.13.55-2.13,1.35,0,1.71,4.17.54,4.17,3,0,1.45-1.3,2.29-3.26,2.29A4.71,4.71,0,0,1,247.89,345.28Z"/><path class="a9824b4f-e91f-4899-a6e7-df8e654c4761" d="M261.22,343.05a4.18,4.18,0,0,1,4.26-4.37,3,3,0,0,1,3.34,3.11,4.18,4.18,0,0,1-4.25,4.38A3,3,0,0,1,261.22,343.05Zm6.61-1.21a2.15,2.15,0,0,0-2.42-2.29,3.23,3.23,0,0,0-3.2,3.46,2.15,2.15,0,0,0,2.43,2.28A3.22,3.22,0,0,0,267.83,341.84Z"/><path class="a9824b4f-e91f-4899-a6e7-df8e654c4761" d="M273.89,337.92l-.17.82H276l-.17.84h-2.23l-1.3,6.52h-1l1.31-6.52h-1.32l.15-.84h1.33l.19-.93a2.41,2.41,0,0,1,2.52-2.17,2.21,2.21,0,0,1,1.48.48l-.43.72a1.59,1.59,0,0,0-1.05-.36C274.59,336.48,274.1,336.93,273.89,337.92Z"/><path class="a9824b4f-e91f-4899-a6e7-df8e654c4761" d="M283.8,336.3h3.73c3,0,4.62,1.58,4.62,4,0,3.43-2.41,5.81-6.09,5.81h-4.22Zm2.28,8.91a4.69,4.69,0,0,0,5-4.88c0-1.89-1.22-3.14-3.7-3.14h-2.77l-1.6,8Z"/><path class="a9824b4f-e91f-4899-a6e7-df8e654c4761" d="M295.17,342.7a1.46,1.46,0,0,0,0,.29c0,1.47.85,2.3,2.54,2.3a3.35,3.35,0,0,0,2.41-.92l.45.71a4.22,4.22,0,0,1-2.94,1.09c-2.13,0-3.44-1.2-3.44-3.13a4.11,4.11,0,0,1,4.08-4.36,2.93,2.93,0,0,1,3.21,3.12,4.35,4.35,0,0,1-.1.9Zm.1-.74h5.25a2.53,2.53,0,0,0,0-.27,2.08,2.08,0,0,0-2.31-2.17A3,3,0,0,0,295.27,342Z"/><path class="a9824b4f-e91f-4899-a6e7-df8e654c4761" d="M304.67,342.7c0,.1,0,.2,0,.29,0,1.47.84,2.3,2.54,2.3a3.31,3.31,0,0,0,2.4-.92l.45.71a4.19,4.19,0,0,1-2.94,1.09c-2.13,0-3.43-1.2-3.43-3.13a4.1,4.1,0,0,1,4.08-4.36,2.93,2.93,0,0,1,3.2,3.12,5.18,5.18,0,0,1-.09.9Zm.1-.74H310a2.53,2.53,0,0,0,0-.27,2.08,2.08,0,0,0-2.31-2.17A3,3,0,0,0,304.77,342Z"/><path class="a9824b4f-e91f-4899-a6e7-df8e654c4761" d="M321.52,341.79a4.15,4.15,0,0,1-4.17,4.38,2.76,2.76,0,0,1-2.81-1.61l-.84,4.26h-1l2-10.08h1l-.23,1.17a3.74,3.74,0,0,1,2.87-1.23A3,3,0,0,1,321.52,341.79Zm-1,0a2.15,2.15,0,0,0-2.42-2.29,3.21,3.21,0,0,0-3.18,3.46,2.14,2.14,0,0,0,2.42,2.28A3.21,3.21,0,0,0,320.51,341.84Z"/><path class="a9824b4f-e91f-4899-a6e7-df8e654c4761" d="M323,345.28l.48-.79a4,4,0,0,0,2.55.81c1.41,0,2.18-.49,2.18-1.31,0-1.67-4.17-.52-4.17-3,0-1.4,1.26-2.3,3.19-2.3a4.5,4.5,0,0,1,2.5.69l-.42.79a3.75,3.75,0,0,0-2.16-.63c-1.36,0-2.13.55-2.13,1.35,0,1.71,4.17.54,4.17,3,0,1.45-1.3,2.29-3.26,2.29A4.75,4.75,0,0,1,323,345.28Z"/><path class="a9824b4f-e91f-4899-a6e7-df8e654c4761" d="M339.89,338.74l-1.47,7.36h-1l.24-1.16a3.77,3.77,0,0,1-2.87,1.23,3,3,0,0,1-3.21-3.12,4.15,4.15,0,0,1,4.16-4.37,2.76,2.76,0,0,1,2.8,1.6l.31-1.54Zm-1.65,3.1a2.16,2.16,0,0,0-2.43-2.29,3.23,3.23,0,0,0-3.19,3.46,2.14,2.14,0,0,0,2.42,2.28A3.22,3.22,0,0,0,338.24,341.84Z"/><path class="a9824b4f-e91f-4899-a6e7-df8e654c4761" d="M359.31,336.3l-2,9.8h-1l1.56-7.77-5.07,6.53h-.49l-2.62-6.66-1.57,7.9h-1l2-9.8H350l2.83,7.28,5.61-7.28Z"/><path class="a9824b4f-e91f-4899-a6e7-df8e654c4761" d="M369.57,338.74l-1.47,7.36h-1l.24-1.16a3.77,3.77,0,0,1-2.87,1.23,3,3,0,0,1-3.21-3.12,4.15,4.15,0,0,1,4.16-4.37,2.76,2.76,0,0,1,2.8,1.6l.31-1.54Zm-1.66,3.1a2.15,2.15,0,0,0-2.42-2.29A3.23,3.23,0,0,0,362.3,343a2.14,2.14,0,0,0,2.42,2.28A3.22,3.22,0,0,0,367.91,341.84Z"/><path class="a9824b4f-e91f-4899-a6e7-df8e654c4761" d="M376.17,341.78l2.65,4.32h-1.16l-2.27-3.72L373.33,344l-.42,2.13h-1L374,335.71h1l-1.4,7,5.07-4h1.42Z"/><path class="a9824b4f-e91f-4899-a6e7-df8e654c4761" d="M385.48,341.78l2.65,4.32H387l-2.27-3.72L382.64,344l-.42,2.13h-1l2.08-10.39h1l-1.4,7,5.07-4h1.42Z"/><path class="a9824b4f-e91f-4899-a6e7-df8e654c4761" d="M398.44,338.74,397,346.1H396l.24-1.16a3.77,3.77,0,0,1-2.87,1.23,3,3,0,0,1-3.21-3.12,4.15,4.15,0,0,1,4.16-4.37,2.76,2.76,0,0,1,2.8,1.6l.31-1.54Zm-1.66,3.1a2.15,2.15,0,0,0-2.42-2.29,3.23,3.23,0,0,0-3.2,3.46,2.15,2.15,0,0,0,2.43,2.28A3.22,3.22,0,0,0,396.78,341.84Z"/><path class="a9824b4f-e91f-4899-a6e7-df8e654c4761" d="M406,338.68l-.19,1-.28,0c-1.57,0-2.62.9-3,2.73l-.74,3.74h-1l1.46-7.36h.95l-.25,1.34A3.32,3.32,0,0,1,406,338.68Z"/></svg>