<svg id="afa191eb-1420-4761-857e-feaf8e630df8" data-name="Layer 1" xmlns="http://www.w3.org/2000/svg" viewBox="0 0 600 466"><defs><style>.bba2de38-f12b-4add-b758-ff1ea4bd3527{fill:#5bc0c7;}.f735337d-4d4e-4077-a52a-7f16a5fe5fc4{fill:#fff;}.e3458156-a335-41ef-8e78-da652a0fa19d{fill:none;stroke:#fff;stroke-linecap:round;stroke-linejoin:round;stroke-width:2.83px;}</style></defs><title>Core-values-Artboard 9</title><rect class="bba2de38-f12b-4add-b758-ff1ea4bd3527" width="600" height="466"/><path class="f735337d-4d4e-4077-a52a-7f16a5fe5fc4" d="M469.34,93.39c0-7.4,5.23-12.24,12.24-12.24S494,86.12,494,93.39c0,3.31-.51,5.74-3.45,12.75l-7.39,18.35H470.49l5.61-20.27C471.89,102.44,469.34,98.61,469.34,93.39Zm-30.08,0c0-7.4,5.23-12.24,12.24-12.24s12.36,5,12.36,12.24c0,3.31-.51,5.74-3.44,12.75L453,124.49H440.41l5.6-20.27C441.81,102.44,439.26,98.61,439.26,93.39Z"/><path class="e3458156-a335-41ef-8e78-da652a0fa19d" d="M441.74,76.84a165.26,165.26,0,0,0-97.84-32H89.78V206.33c0,1.62-.08,3.25-.08,4.89h0c0,1.64,0,3.27.08,4.9V377.63h85.41l-22.3,43.55L229,377.63H510.3V211.22h0v-4.95h-.08a164.94,164.94,0,0,0-20.54-75"/><path class="f735337d-4d4e-4077-a52a-7f16a5fe5fc4" d="M137.37,145.67h-3.46l.18-.89H142l-.2.89h-3.44l-1.78,8.91h-1Z"/><path class="f735337d-4d4e-4077-a52a-7f16a5fe5fc4" d="M150.25,149.55a4.14,4.14,0,0,1-.09.84l-.84,4.19h-1l.84-4.2a4.13,4.13,0,0,0,.07-.67c0-1.05-.63-1.65-1.91-1.65a2.87,2.87,0,0,0-3,2.57l-.79,4h-1l2.07-10.39h1l-.83,4.13a3.58,3.58,0,0,1,2.82-1.16A2.31,2.31,0,0,1,150.25,149.55Z"/><path class="f735337d-4d4e-4077-a52a-7f16a5fe5fc4" d="M161.31,147.22l-1.47,7.36h-1l.23-1.16a3.77,3.77,0,0,1-2.87,1.23,3,3,0,0,1-3.21-3.12,4.15,4.15,0,0,1,4.16-4.37,2.76,2.76,0,0,1,2.81,1.6l.3-1.54Zm-1.65,3.11a2.16,2.16,0,0,0-2.43-2.3,3.23,3.23,0,0,0-3.19,3.46,2.14,2.14,0,0,0,2.42,2.28A3.22,3.22,0,0,0,159.66,150.33Z"/><path class="f735337d-4d4e-4077-a52a-7f16a5fe5fc4" d="M171.35,149.55a4.14,4.14,0,0,1-.09.84l-.84,4.19h-1l.84-4.2a4.13,4.13,0,0,0,.07-.67c0-1.05-.63-1.65-1.91-1.65a2.86,2.86,0,0,0-3,2.57l-.79,4h-1l1.45-7.36h1l-.24,1.17a3.62,3.62,0,0,1,2.88-1.23C170.38,147.16,171.35,148.06,171.35,149.55Z"/><path class="f735337d-4d4e-4077-a52a-7f16a5fe5fc4" d="M178.44,150.26l2.65,4.32h-1.16l-2.27-3.72-2.06,1.59-.42,2.13h-1l2.08-10.39h1l-1.4,7,5.07-4h1.42Z"/><path class="f735337d-4d4e-4077-a52a-7f16a5fe5fc4" d="M182.49,153.76,183,153a4,4,0,0,0,2.55.82c1.42,0,2.19-.5,2.19-1.32,0-1.67-4.18-.52-4.18-3,0-1.4,1.26-2.3,3.2-2.3a4.47,4.47,0,0,1,2.49.69l-.42.79a3.73,3.73,0,0,0-2.16-.63c-1.36,0-2.13.55-2.13,1.35,0,1.71,4.18.54,4.18,3,0,1.45-1.31,2.29-3.27,2.29A4.64,4.64,0,0,1,182.49,153.76Z"/><path class="f735337d-4d4e-4077-a52a-7f16a5fe5fc4" d="M204.08,147.22l-1.47,7.36h-1l.23-1.16a3.77,3.77,0,0,1-2.87,1.23,3,3,0,0,1-3.21-3.12,4.15,4.15,0,0,1,4.16-4.37,2.76,2.76,0,0,1,2.81,1.6l.3-1.54Zm-1.65,3.11A2.16,2.16,0,0,0,200,148a3.23,3.23,0,0,0-3.19,3.46,2.14,2.14,0,0,0,2.42,2.28A3.22,3.22,0,0,0,202.43,150.33Z"/><path class="f735337d-4d4e-4077-a52a-7f16a5fe5fc4" d="M213.22,144.19h1l-2.07,10.39h-1Z"/><path class="f735337d-4d4e-4077-a52a-7f16a5fe5fc4" d="M215.89,151.53a4.18,4.18,0,0,1,4.26-4.37,3,3,0,0,1,3.35,3.11,4.18,4.18,0,0,1-4.26,4.38A3,3,0,0,1,215.89,151.53Zm6.61-1.2a2.15,2.15,0,0,0-2.42-2.3,3.23,3.23,0,0,0-3.2,3.46,2.15,2.15,0,0,0,2.43,2.28A3.22,3.22,0,0,0,222.5,150.33Z"/><path class="f735337d-4d4e-4077-a52a-7f16a5fe5fc4" d="M227.38,152.36a4,4,0,0,0,0,.46c0,.63.35,1,1.06,1a1.9,1.9,0,0,0,1.14-.38l.24.76a2.75,2.75,0,0,1-1.64.47,1.61,1.61,0,0,1-1.8-1.68,2.83,2.83,0,0,1,.06-.57l.86-4.34h-1.31l.16-.84h1.31l.33-1.62h1l-.32,1.62h2.24l-.17.84h-2.24Z"/><path class="f735337d-4d4e-4077-a52a-7f16a5fe5fc4" d="M240,146.4l-.17.82h2.26l-.17.84h-2.22l-1.31,6.52h-1l1.3-6.52h-1.32l.16-.84h1.33l.18-.93a2.41,2.41,0,0,1,2.52-2.17,2.26,2.26,0,0,1,1.49.48l-.44.72a1.57,1.57,0,0,0-1-.36C240.71,145,240.22,145.41,240,146.4Z"/><path class="f735337d-4d4e-4077-a52a-7f16a5fe5fc4" d="M242.84,151.53a4.18,4.18,0,0,1,4.26-4.37,3,3,0,0,1,3.35,3.11,4.18,4.18,0,0,1-4.26,4.38A3,3,0,0,1,242.84,151.53Zm6.61-1.2A2.15,2.15,0,0,0,247,148a3.23,3.23,0,0,0-3.2,3.46,2.15,2.15,0,0,0,2.43,2.28A3.22,3.22,0,0,0,249.45,150.33Z"/><path class="f735337d-4d4e-4077-a52a-7f16a5fe5fc4" d="M257.92,147.16l-.18,1-.28,0c-1.57,0-2.62.9-3,2.73l-.74,3.74h-1l1.45-7.36h1l-.25,1.34A3.3,3.3,0,0,1,257.92,147.16Z"/><path class="f735337d-4d4e-4077-a52a-7f16a5fe5fc4" d="M271.78,147.22l-5.38,8.32c-.91,1.4-1.59,1.83-2.66,1.83a2.39,2.39,0,0,1-1.75-.66l.53-.73a1.72,1.72,0,0,0,1.31.54c.63,0,1.12-.3,1.69-1.19l.52-.79-1.84-7.32h1l1.53,6.27,4-6.27Z"/><path class="f735337d-4d4e-4077-a52a-7f16a5fe5fc4" d="M272.48,151.53a4.18,4.18,0,0,1,4.26-4.37,3,3,0,0,1,3.34,3.11,4.18,4.18,0,0,1-4.25,4.38A3,3,0,0,1,272.48,151.53Zm6.61-1.2a2.15,2.15,0,0,0-2.42-2.3,3.23,3.23,0,0,0-3.2,3.46,2.15,2.15,0,0,0,2.43,2.28A3.22,3.22,0,0,0,279.09,150.33Z"/><path class="f735337d-4d4e-4077-a52a-7f16a5fe5fc4" d="M290.49,147.22,289,154.58h-.95l.24-1.17a3.56,3.56,0,0,1-2.84,1.24,2.3,2.3,0,0,1-2.62-2.41,4.83,4.83,0,0,1,.08-.82l.84-4.2h1l-.84,4.2a3.16,3.16,0,0,0-.07.66c0,1.06.61,1.68,1.87,1.68a2.88,2.88,0,0,0,3-2.58l.78-4Z"/><path class="f735337d-4d4e-4077-a52a-7f16a5fe5fc4" d="M298,147.16l-.18,1-.28,0c-1.57,0-2.62.9-3,2.73l-.74,3.74h-1l1.45-7.36h1l-.26,1.34A3.33,3.33,0,0,1,298,147.16Z"/><path class="f735337d-4d4e-4077-a52a-7f16a5fe5fc4" d="M307,146.4l-.17.82h2.26l-.17.84h-2.23l-1.3,6.52h-1l1.3-6.52h-1.32l.16-.84h1.33l.18-.93a2.41,2.41,0,0,1,2.52-2.17,2.26,2.26,0,0,1,1.49.48l-.44.72a1.57,1.57,0,0,0-1.05-.36C307.7,145,307.21,145.41,307,146.4Z"/><path class="f735337d-4d4e-4077-a52a-7f16a5fe5fc4" d="M316.33,147.16l-.18,1-.28,0c-1.57,0-2.62.9-3,2.73l-.74,3.74h-1l1.45-7.36h.95l-.25,1.34A3.33,3.33,0,0,1,316.33,147.16Z"/><path class="f735337d-4d4e-4077-a52a-7f16a5fe5fc4" d="M319.15,147.22h1l-1.46,7.36h-1Zm.26-2.27a.75.75,0,0,1,.77-.76.65.65,0,0,1,.68.63.76.76,0,0,1-.78.78A.65.65,0,0,1,319.41,145Z"/><path class="f735337d-4d4e-4077-a52a-7f16a5fe5fc4" d="M323.44,151.18a1.46,1.46,0,0,0,0,.29c0,1.47.84,2.3,2.54,2.3a3.35,3.35,0,0,0,2.41-.92l.45.71a4.23,4.23,0,0,1-2.95,1.09c-2.12,0-3.43-1.2-3.43-3.13a4.1,4.1,0,0,1,4.08-4.36,2.93,2.93,0,0,1,3.21,3.12,5.16,5.16,0,0,1-.1.9Zm.1-.74h5.25a2.53,2.53,0,0,0,0-.27,2.08,2.08,0,0,0-2.31-2.17A3,3,0,0,0,323.54,150.44Z"/><path class="f735337d-4d4e-4077-a52a-7f16a5fe5fc4" d="M339.71,149.55a4.14,4.14,0,0,1-.09.84l-.84,4.19h-1l.84-4.2a4.13,4.13,0,0,0,.07-.67c0-1.05-.63-1.65-1.91-1.65a2.87,2.87,0,0,0-3,2.57l-.79,4h-1l1.46-7.36h.95l-.24,1.17a3.63,3.63,0,0,1,2.89-1.23A2.31,2.31,0,0,1,339.71,149.55Z"/><path class="f735337d-4d4e-4077-a52a-7f16a5fe5fc4" d="M351.37,144.19l-2.07,10.39h-.95l.23-1.16a3.77,3.77,0,0,1-2.87,1.23,3,3,0,0,1-3.21-3.12,4.15,4.15,0,0,1,4.16-4.37,2.78,2.78,0,0,1,2.81,1.6l.91-4.57Zm-2.25,6.14a2.16,2.16,0,0,0-2.43-2.3,3.23,3.23,0,0,0-3.19,3.46,2.14,2.14,0,0,0,2.42,2.28A3.22,3.22,0,0,0,349.12,150.33Z"/><path class="f735337d-4d4e-4077-a52a-7f16a5fe5fc4" d="M355.19,144.19h1l-2.07,10.39h-1Z"/><path class="f735337d-4d4e-4077-a52a-7f16a5fe5fc4" d="M365.59,147.22l-5.37,8.32c-.92,1.4-1.6,1.83-2.67,1.83a2.41,2.41,0,0,1-1.75-.66l.53-.73a1.74,1.74,0,0,0,1.31.54c.63,0,1.12-.3,1.69-1.19l.52-.79L358,147.22h1l1.53,6.27,4-6.27Z"/><path class="f735337d-4d4e-4077-a52a-7f16a5fe5fc4" d="M379.58,147.22l-1.29,6.47c-.52,2.6-1.89,3.68-4.29,3.68a4.63,4.63,0,0,1-3.27-1.11l.59-.75a3.85,3.85,0,0,0,2.76,1,2.89,2.89,0,0,0,3.19-2.64l.17-.81a3.8,3.8,0,0,1-2.94,1.26c-1.95,0-3.25-1.13-3.25-3a4.07,4.07,0,0,1,4.2-4.17,2.82,2.82,0,0,1,2.87,1.68l.31-1.62Zm-1.68,2.95c0-1.34-.91-2.14-2.44-2.14a3.13,3.13,0,0,0-3.21,3.25c0,1.34.9,2.14,2.44,2.14A3.13,3.13,0,0,0,377.9,150.17Z"/><path class="f735337d-4d4e-4077-a52a-7f16a5fe5fc4" d="M382.87,151.18a1.46,1.46,0,0,0,0,.29c0,1.47.84,2.3,2.54,2.3a3.35,3.35,0,0,0,2.41-.92l.45.71a4.23,4.23,0,0,1-2.95,1.09c-2.13,0-3.43-1.2-3.43-3.13a4.1,4.1,0,0,1,4.08-4.36,2.93,2.93,0,0,1,3.21,3.12,5.16,5.16,0,0,1-.1.9Zm.09-.74h5.26a2.53,2.53,0,0,0,0-.27,2.08,2.08,0,0,0-2.31-2.17A3,3,0,0,0,383,150.44Z"/><path class="f735337d-4d4e-4077-a52a-7f16a5fe5fc4" d="M390.66,153.76l.48-.79a4,4,0,0,0,2.55.82c1.41,0,2.18-.5,2.18-1.32,0-1.67-4.17-.52-4.17-3,0-1.4,1.26-2.3,3.19-2.3a4.5,4.5,0,0,1,2.5.69l-.42.79a3.73,3.73,0,0,0-2.16-.63c-1.36,0-2.13.55-2.13,1.35,0,1.71,4.17.54,4.17,3,0,1.45-1.3,2.29-3.26,2.29A4.69,4.69,0,0,1,390.66,153.76Z"/><path class="f735337d-4d4e-4077-a52a-7f16a5fe5fc4" d="M400.94,152.36a2.64,2.64,0,0,0-.06.46c0,.63.35,1,1.07,1a1.88,1.88,0,0,0,1.13-.38l.24.76a2.73,2.73,0,0,1-1.64.47,1.61,1.61,0,0,1-1.79-1.68,2.26,2.26,0,0,1,.06-.57l.85-4.34h-1.3l.15-.84H401l.32-1.62h1l-.33,1.62h2.24l-.16.84h-2.25Z"/><path class="f735337d-4d4e-4077-a52a-7f16a5fe5fc4" d="M414.19,147.22l-1.47,7.36h-1l.24-1.17a3.56,3.56,0,0,1-2.84,1.24,2.31,2.31,0,0,1-2.62-2.41,4.83,4.83,0,0,1,.08-.82l.84-4.2h1l-.84,4.2a4,4,0,0,0-.07.66c0,1.06.61,1.68,1.87,1.68a2.88,2.88,0,0,0,3-2.58l.78-4Z"/><path class="f735337d-4d4e-4077-a52a-7f16a5fe5fc4" d="M421.73,147.16l-.18,1-.28,0c-1.57,0-2.62.9-3,2.73l-.75,3.74h-1l1.46-7.36H419l-.25,1.34A3.3,3.3,0,0,1,421.73,147.16Z"/><path class="f735337d-4d4e-4077-a52a-7f16a5fe5fc4" d="M424,151.18a1.46,1.46,0,0,0,0,.29c0,1.47.84,2.3,2.54,2.3a3.35,3.35,0,0,0,2.41-.92l.44.71a4.19,4.19,0,0,1-2.94,1.09c-2.13,0-3.43-1.2-3.43-3.13a4.1,4.1,0,0,1,4.08-4.36,2.94,2.94,0,0,1,3.21,3.12,5.16,5.16,0,0,1-.1.9Zm.09-.74h5.26a2.53,2.53,0,0,0,0-.27A2.08,2.08,0,0,0,427,148,3,3,0,0,0,424.05,150.44Z"/><path class="f735337d-4d4e-4077-a52a-7f16a5fe5fc4" d="M445.45,147.22,444,154.58h-1l.23-1.16a3.77,3.77,0,0,1-2.87,1.23,3,3,0,0,1-3.21-3.12,4.15,4.15,0,0,1,4.16-4.37,2.76,2.76,0,0,1,2.81,1.6l.3-1.54Zm-1.65,3.11a2.16,2.16,0,0,0-2.43-2.3,3.23,3.23,0,0,0-3.19,3.46,2.14,2.14,0,0,0,2.42,2.28A3.22,3.22,0,0,0,443.8,150.33Z"/><path class="f735337d-4d4e-4077-a52a-7f16a5fe5fc4" d="M455.49,149.55a4.14,4.14,0,0,1-.09.84l-.84,4.19h-1l.84-4.2a4.13,4.13,0,0,0,.07-.67c0-1.05-.63-1.65-1.91-1.65a2.86,2.86,0,0,0-3,2.57l-.79,4h-1l1.45-7.36h1l-.24,1.17a3.62,3.62,0,0,1,2.88-1.23C454.52,147.16,455.49,148.06,455.49,149.55Z"/><path class="f735337d-4d4e-4077-a52a-7f16a5fe5fc4" d="M467.15,144.19l-2.07,10.39h-1l.24-1.16a3.77,3.77,0,0,1-2.87,1.23,3,3,0,0,1-3.21-3.12,4.15,4.15,0,0,1,4.16-4.37,2.77,2.77,0,0,1,2.8,1.6l.92-4.57Zm-2.26,6.14a2.15,2.15,0,0,0-2.42-2.3,3.23,3.23,0,0,0-3.19,3.46,2.14,2.14,0,0,0,2.42,2.28A3.21,3.21,0,0,0,464.89,150.33Z"/><path class="f735337d-4d4e-4077-a52a-7f16a5fe5fc4" d="M120.33,168.33a4.18,4.18,0,0,1,4.29-4.37,3.08,3.08,0,0,1,2.9,1.47l-.84.49a2.27,2.27,0,0,0-2.14-1.09,3.24,3.24,0,0,0-3.21,3.46,2.15,2.15,0,0,0,2.45,2.28,2.84,2.84,0,0,0,2.32-1.06l.72.54a3.8,3.8,0,0,1-3.08,1.4C121.64,171.45,120.33,170.22,120.33,168.33Z"/><path class="f735337d-4d4e-4077-a52a-7f16a5fe5fc4" d="M129.14,168.33A4.18,4.18,0,0,1,133.4,164a3,3,0,0,1,3.35,3.11,4.18,4.18,0,0,1-4.26,4.38A3,3,0,0,1,129.14,168.33Zm6.61-1.2a2.15,2.15,0,0,0-2.42-2.3,3.24,3.24,0,0,0-3.2,3.46,2.15,2.15,0,0,0,2.43,2.28A3.22,3.22,0,0,0,135.75,167.13Z"/><path class="f735337d-4d4e-4077-a52a-7f16a5fe5fc4" d="M146.73,166.35a4.32,4.32,0,0,1-.09.85l-.84,4.18h-1l.84-4.2a4.13,4.13,0,0,0,.07-.67c0-1-.63-1.65-1.91-1.65a2.87,2.87,0,0,0-3,2.57l-.79,3.95h-1l1.45-7.36h1l-.24,1.17a3.62,3.62,0,0,1,2.88-1.23C145.76,164,146.73,164.86,146.73,166.35Z"/><path class="f735337d-4d4e-4077-a52a-7f16a5fe5fc4" d="M151.16,169.16a2.58,2.58,0,0,0,0,.46c0,.63.35,1,1.06,1a1.9,1.9,0,0,0,1.14-.38l.23.76a2.72,2.72,0,0,1-1.63.47,1.61,1.61,0,0,1-1.8-1.68,2.83,2.83,0,0,1,.06-.57l.85-4.34h-1.3l.15-.84h1.32l.32-1.62h1l-.33,1.62h2.25l-.17.84H152Z"/><path class="f735337d-4d4e-4077-a52a-7f16a5fe5fc4" d="M157.76,164h1l-1.46,7.36h-1Zm.25-2.27a.75.75,0,0,1,.77-.76.65.65,0,0,1,.68.63.76.76,0,0,1-.78.78A.65.65,0,0,1,158,161.75Z"/><path class="f735337d-4d4e-4077-a52a-7f16a5fe5fc4" d="M168.81,166.35a4.32,4.32,0,0,1-.09.85l-.84,4.18h-1l.84-4.2a4.13,4.13,0,0,0,.07-.67c0-1-.63-1.65-1.91-1.65a2.87,2.87,0,0,0-3,2.57l-.78,3.95h-1l1.45-7.36h1l-.23,1.17a3.62,3.62,0,0,1,2.88-1.23C167.84,164,168.81,164.86,168.81,166.35Z"/><path class="f735337d-4d4e-4077-a52a-7f16a5fe5fc4" d="M179.75,164l-1.47,7.36h-.95l.24-1.17a3.58,3.58,0,0,1-2.85,1.24,2.3,2.3,0,0,1-2.61-2.41,4,4,0,0,1,.08-.82L173,164h1l-.84,4.2a4,4,0,0,0-.07.66c0,1.06.62,1.68,1.88,1.68a2.87,2.87,0,0,0,3-2.58l.79-4Z"/><path class="f735337d-4d4e-4077-a52a-7f16a5fe5fc4" d="M183,168c0,.1,0,.2,0,.29,0,1.47.84,2.3,2.53,2.3a3.35,3.35,0,0,0,2.41-.92l.45.71a4.21,4.21,0,0,1-2.94,1.09c-2.13,0-3.44-1.2-3.44-3.13a4.11,4.11,0,0,1,4.08-4.36,2.93,2.93,0,0,1,3.21,3.12,4.35,4.35,0,0,1-.1.9Zm.1-.74h5.25a2.53,2.53,0,0,0,0-.27,2.07,2.07,0,0,0-2.31-2.17A3,3,0,0,0,183.14,167.24Z"/><path class="f735337d-4d4e-4077-a52a-7f16a5fe5fc4" d="M200.42,161l-2.08,10.39h-1l.24-1.16a3.77,3.77,0,0,1-2.87,1.23,3,3,0,0,1-3.21-3.12,4.15,4.15,0,0,1,4.16-4.37,2.77,2.77,0,0,1,2.8,1.6l.91-4.57Zm-2.26,6.14a2.15,2.15,0,0,0-2.42-2.3,3.24,3.24,0,0,0-3.2,3.46,2.15,2.15,0,0,0,2.43,2.28A3.22,3.22,0,0,0,198.16,167.13Z"/><path class="f735337d-4d4e-4077-a52a-7f16a5fe5fc4" d="M206.1,170.56l.47-.79a4,4,0,0,0,2.55.82c1.42,0,2.19-.49,2.19-1.32,0-1.67-4.18-.52-4.18-3,0-1.4,1.26-2.3,3.2-2.3a4.49,4.49,0,0,1,2.49.69l-.42.79a3.71,3.71,0,0,0-2.16-.63c-1.36,0-2.13.55-2.13,1.35,0,1.71,4.18.54,4.18,3,0,1.45-1.3,2.29-3.27,2.29A4.64,4.64,0,0,1,206.1,170.56Z"/><path class="f735337d-4d4e-4077-a52a-7f16a5fe5fc4" d="M222.89,164l-1.47,7.36h-1l.24-1.17a3.56,3.56,0,0,1-2.84,1.24,2.31,2.31,0,0,1-2.62-2.41,4.83,4.83,0,0,1,.08-.82l.84-4.2h1l-.84,4.2a4,4,0,0,0-.07.66c0,1.06.61,1.68,1.87,1.68a2.88,2.88,0,0,0,3-2.58l.78-4Z"/><path class="f735337d-4d4e-4077-a52a-7f16a5fe5fc4" d="M233.51,167.07a4.15,4.15,0,0,1-4.17,4.38,2.75,2.75,0,0,1-2.8-1.61l-.84,4.26h-1l2-10.08h.95l-.24,1.17a3.74,3.74,0,0,1,2.87-1.23A3,3,0,0,1,233.51,167.07Zm-1,.06a2.15,2.15,0,0,0-2.42-2.3,3.22,3.22,0,0,0-3.18,3.46,2.15,2.15,0,0,0,2.43,2.28A3.2,3.2,0,0,0,232.5,167.13Z"/><path class="f735337d-4d4e-4077-a52a-7f16a5fe5fc4" d="M244.05,167.07a4.15,4.15,0,0,1-4.17,4.38,2.75,2.75,0,0,1-2.8-1.61l-.84,4.26h-1l2-10.08h.95l-.24,1.17a3.74,3.74,0,0,1,2.87-1.23A3,3,0,0,1,244.05,167.07Zm-1,.06a2.16,2.16,0,0,0-2.43-2.3,3.22,3.22,0,0,0-3.18,3.46,2.15,2.15,0,0,0,2.43,2.28A3.21,3.21,0,0,0,243.05,167.13Z"/><path class="f735337d-4d4e-4077-a52a-7f16a5fe5fc4" d="M246.26,168.33a4.18,4.18,0,0,1,4.26-4.37,3,3,0,0,1,3.35,3.11,4.18,4.18,0,0,1-4.26,4.38A3,3,0,0,1,246.26,168.33Zm6.61-1.2a2.15,2.15,0,0,0-2.42-2.3,3.24,3.24,0,0,0-3.19,3.46,2.14,2.14,0,0,0,2.42,2.28A3.22,3.22,0,0,0,252.87,167.13Z"/><path class="f735337d-4d4e-4077-a52a-7f16a5fe5fc4" d="M261.34,164l-.18,1-.28,0c-1.57,0-2.62.9-3,2.73l-.74,3.74h-1l1.46-7.36h.95l-.25,1.34A3.31,3.31,0,0,1,261.34,164Z"/><path class="f735337d-4d4e-4077-a52a-7f16a5fe5fc4" d="M264.63,169.16a2.58,2.58,0,0,0-.05.46c0,.63.34,1,1.06,1a1.85,1.85,0,0,0,1.13-.38l.24.76a2.73,2.73,0,0,1-1.64.47,1.61,1.61,0,0,1-1.79-1.68,2.26,2.26,0,0,1,.06-.57l.85-4.34h-1.3l.15-.84h1.32l.32-1.62h1l-.33,1.62h2.25l-.17.84h-2.24Z"/><path class="f735337d-4d4e-4077-a52a-7f16a5fe5fc4" d="M276.08,169.16a2.58,2.58,0,0,0-.05.46c0,.63.35,1,1.06,1a1.9,1.9,0,0,0,1.14-.38l.23.76a2.7,2.7,0,0,1-1.63.47,1.61,1.61,0,0,1-1.8-1.68,2.83,2.83,0,0,1,.06-.57l.85-4.34h-1.3l.15-.84h1.32l.32-1.62h1l-.32,1.62h2.24l-.17.84h-2.24Z"/><path class="f735337d-4d4e-4077-a52a-7f16a5fe5fc4" d="M280.88,168.33a4.18,4.18,0,0,1,4.26-4.37,3,3,0,0,1,3.35,3.11,4.18,4.18,0,0,1-4.26,4.38A3,3,0,0,1,280.88,168.33Zm6.62-1.2a2.16,2.16,0,0,0-2.43-2.3,3.24,3.24,0,0,0-3.19,3.46,2.14,2.14,0,0,0,2.42,2.28A3.22,3.22,0,0,0,287.5,167.13Z"/><path class="f735337d-4d4e-4077-a52a-7f16a5fe5fc4" d="M295,170.22l.5-.81a4.53,4.53,0,0,0,3.15,1.18c1.71,0,2.89-.71,2.89-1.94,0-2.25-5.1-1.12-5.1-4.2,0-1.85,1.64-3,3.92-3a5.34,5.34,0,0,1,3,.84l-.43.85a4.5,4.5,0,0,0-2.66-.8c-1.71,0-2.86.75-2.86,2,0,2.29,5.11,1.19,5.11,4.16,0,1.89-1.68,3-4,3A5.15,5.15,0,0,1,295,170.22Z"/><path class="f735337d-4d4e-4077-a52a-7f16a5fe5fc4" d="M313.27,164l-1.47,7.36h-.95l.23-1.17a3.54,3.54,0,0,1-2.84,1.24,2.31,2.31,0,0,1-2.62-2.41,4,4,0,0,1,.09-.82l.84-4.2h1l-.84,4.2a4,4,0,0,0-.07.66c0,1.06.62,1.68,1.88,1.68a2.88,2.88,0,0,0,3-2.58l.79-4Z"/><path class="f735337d-4d4e-4077-a52a-7f16a5fe5fc4" d="M319.89,167.06l2.65,4.32h-1.17l-2.26-3.72-2.06,1.59-.42,2.13h-1L317.7,161h1l-1.4,7,5.07-4h1.41Z"/><path class="f735337d-4d4e-4077-a52a-7f16a5fe5fc4" d="M330,164l-.18,1-.28,0c-1.57,0-2.62.9-3,2.73l-.75,3.74h-1l1.46-7.36h.95l-.25,1.34A3.31,3.31,0,0,1,330,164Z"/><path class="f735337d-4d4e-4077-a52a-7f16a5fe5fc4" d="M332.84,164h1l-1.45,7.36h-1Zm.25-2.27a.75.75,0,0,1,.77-.76.66.66,0,0,1,.69.63.76.76,0,0,1-.79.78A.65.65,0,0,1,333.09,161.75Z"/><path class="f735337d-4d4e-4077-a52a-7f16a5fe5fc4" d="M337.79,169.16a4,4,0,0,0-.05.46c0,.63.35,1,1.06,1a1.9,1.9,0,0,0,1.14-.38l.24.76a2.75,2.75,0,0,1-1.64.47,1.61,1.61,0,0,1-1.8-1.68,2.83,2.83,0,0,1,.06-.57l.85-4.34h-1.3l.16-.84h1.31l.32-1.62h1l-.32,1.62h2.24l-.17.84h-2.24Z"/><path class="f735337d-4d4e-4077-a52a-7f16a5fe5fc4" d="M344.39,164h1l-1.45,7.36h-1Zm.25-2.27a.75.75,0,0,1,.77-.76.66.66,0,0,1,.69.63.76.76,0,0,1-.79.78A.65.65,0,0,1,344.64,161.75Z"/><path class="f735337d-4d4e-4077-a52a-7f16a5fe5fc4" d="M360.66,164l-1.47,7.36h-.95l.23-1.16a3.77,3.77,0,0,1-2.87,1.23,3,3,0,0,1-3.2-3.12,4.14,4.14,0,0,1,4.16-4.37,2.76,2.76,0,0,1,2.8,1.6l.3-1.54ZM359,167.13a2.16,2.16,0,0,0-2.43-2.3,3.24,3.24,0,0,0-3.19,3.46,2.14,2.14,0,0,0,2.42,2.28A3.22,3.22,0,0,0,359,167.13Z"/><path class="f735337d-4d4e-4077-a52a-7f16a5fe5fc4" d="M370.7,166.35a4.32,4.32,0,0,1-.09.85l-.84,4.18h-1l.84-4.2a4.13,4.13,0,0,0,.07-.67c0-1-.63-1.65-1.91-1.65a2.86,2.86,0,0,0-3,2.57l-.79,3.95h-1l1.45-7.36h1l-.24,1.17a3.62,3.62,0,0,1,2.88-1.23C369.73,164,370.7,164.86,370.7,166.35Z"/><path class="f735337d-4d4e-4077-a52a-7f16a5fe5fc4" d="M382.36,161l-2.07,10.39h-1l.24-1.16a3.77,3.77,0,0,1-2.87,1.23,3,3,0,0,1-3.21-3.12,4.15,4.15,0,0,1,4.16-4.37,2.77,2.77,0,0,1,2.8,1.6l.92-4.57Zm-2.26,6.14a2.15,2.15,0,0,0-2.42-2.3,3.24,3.24,0,0,0-3.19,3.46,2.14,2.14,0,0,0,2.42,2.28A3.21,3.21,0,0,0,380.1,167.13Z"/><path class="f735337d-4d4e-4077-a52a-7f16a5fe5fc4" d="M401.91,166.33a5.81,5.81,0,0,1-.1.87l-.84,4.18h-1l.84-4.2a2.88,2.88,0,0,0,.07-.69c0-1-.6-1.63-1.82-1.63a2.76,2.76,0,0,0-2.86,2.46l-.81,4.06h-1l.84-4.2a4.13,4.13,0,0,0,.07-.67c0-1-.59-1.65-1.82-1.65a2.82,2.82,0,0,0-2.89,2.57l-.78,3.95h-1l1.46-7.36h1l-.24,1.17a3.45,3.45,0,0,1,2.79-1.23,2.29,2.29,0,0,1,2.41,1.47A3.73,3.73,0,0,1,399.3,164C401,164,401.91,164.84,401.91,166.33Z"/><path class="f735337d-4d4e-4077-a52a-7f16a5fe5fc4" d="M413,164l-1.47,7.36h-1l.23-1.16a3.77,3.77,0,0,1-2.87,1.23,3,3,0,0,1-3.21-3.12,4.15,4.15,0,0,1,4.16-4.37,2.76,2.76,0,0,1,2.81,1.6L412,164Zm-1.65,3.11a2.16,2.16,0,0,0-2.43-2.3,3.24,3.24,0,0,0-3.19,3.46,2.14,2.14,0,0,0,2.42,2.28A3.22,3.22,0,0,0,411.3,167.13Z"/><path class="f735337d-4d4e-4077-a52a-7f16a5fe5fc4" d="M419.55,167.06l2.65,4.32H421l-2.27-3.72-2.06,1.59-.42,2.13h-1L417.37,161h1l-1.4,7,5.07-4h1.42Z"/><path class="f735337d-4d4e-4077-a52a-7f16a5fe5fc4" d="M426,164h1l-1.46,7.36h-1Zm.25-2.27A.76.76,0,0,1,427,161a.66.66,0,0,1,.69.63.76.76,0,0,1-.78.78A.66.66,0,0,1,426.2,161.75Z"/><path class="f735337d-4d4e-4077-a52a-7f16a5fe5fc4" d="M437,166.35a5.18,5.18,0,0,1-.08.85l-.84,4.18h-1l.84-4.2a4.13,4.13,0,0,0,.07-.67c0-1-.63-1.65-1.9-1.65a2.87,2.87,0,0,0-3,2.57l-.79,3.95h-1l1.46-7.36h1l-.24,1.17a3.64,3.64,0,0,1,2.89-1.23A2.31,2.31,0,0,1,437,166.35Z"/><path class="f735337d-4d4e-4077-a52a-7f16a5fe5fc4" d="M448.16,164l-1.29,6.47c-.52,2.6-1.89,3.68-4.29,3.68a4.63,4.63,0,0,1-3.27-1.11l.58-.75a3.88,3.88,0,0,0,2.76,1,2.89,2.89,0,0,0,3.2-2.63l.17-.82a3.81,3.81,0,0,1-2.95,1.26c-1.94,0-3.25-1.13-3.25-3A4.08,4.08,0,0,1,444,164a2.83,2.83,0,0,1,2.87,1.68l.31-1.62ZM446.48,167c0-1.34-.91-2.14-2.44-2.14a3.13,3.13,0,0,0-3.21,3.25c0,1.34.9,2.14,2.44,2.14A3.13,3.13,0,0,0,446.48,167Z"/><path class="f735337d-4d4e-4077-a52a-7f16a5fe5fc4" d="M462.93,166.35a4.32,4.32,0,0,1-.09.85l-.84,4.18h-1l.84-4.2a4.13,4.13,0,0,0,.07-.67c0-1-.63-1.65-1.91-1.65a2.87,2.87,0,0,0-3,2.57l-.79,3.95h-1L457.31,161h1l-.83,4.13a3.58,3.58,0,0,1,2.81-1.16C462,164,462.93,164.86,462.93,166.35Z"/><path class="f735337d-4d4e-4077-a52a-7f16a5fe5fc4" d="M466.72,168a1.46,1.46,0,0,0,0,.29c0,1.47.84,2.3,2.54,2.3a3.35,3.35,0,0,0,2.41-.92l.45.71a4.22,4.22,0,0,1-2.94,1.09c-2.13,0-3.44-1.2-3.44-3.13A4.11,4.11,0,0,1,469.8,164a2.93,2.93,0,0,1,3.21,3.12,4.35,4.35,0,0,1-.1.9Zm.1-.74h5.25a2.53,2.53,0,0,0,0-.27,2.08,2.08,0,0,0-2.31-2.17A3,3,0,0,0,466.82,167.24Z"/><path class="f735337d-4d4e-4077-a52a-7f16a5fe5fc4" d="M480.48,164l-.18,1-.28,0c-1.57,0-2.62.9-3,2.73l-.75,3.74h-1l1.46-7.36h.95l-.25,1.34A3.31,3.31,0,0,1,480.48,164Z"/><path class="f735337d-4d4e-4077-a52a-7f16a5fe5fc4" d="M129.09,180.82l-1.47,7.36h-1l.24-1.16a3.77,3.77,0,0,1-2.87,1.23,3,3,0,0,1-3.21-3.12,4.15,4.15,0,0,1,4.16-4.37,2.76,2.76,0,0,1,2.8,1.6l.31-1.54Zm-1.65,3.11a2.15,2.15,0,0,0-2.42-2.3,3.23,3.23,0,0,0-3.19,3.46,2.14,2.14,0,0,0,2.42,2.28A3.22,3.22,0,0,0,127.44,183.93Z"/><path class="f735337d-4d4e-4077-a52a-7f16a5fe5fc4" d="M140.24,177.79l-2.07,10.39h-1l.24-1.16a3.77,3.77,0,0,1-2.87,1.23,3,3,0,0,1-3.21-3.12,4.15,4.15,0,0,1,4.16-4.37,2.77,2.77,0,0,1,2.8,1.6l.92-4.57ZM138,183.93a2.15,2.15,0,0,0-2.42-2.3,3.23,3.23,0,0,0-3.19,3.46,2.14,2.14,0,0,0,2.42,2.28A3.21,3.21,0,0,0,138,183.93Z"/><path class="f735337d-4d4e-4077-a52a-7f16a5fe5fc4" d="M138.89,190.51l.46-.77a1.64,1.64,0,0,0,1.11.38c.8,0,1.27-.42,1.47-1.4l1.58-7.9h1l-1.59,7.92a2.36,2.36,0,0,1-2.48,2.23A2.51,2.51,0,0,1,138.89,190.51Zm4.86-12a.75.75,0,0,1,.77-.76.66.66,0,0,1,.69.63.76.76,0,0,1-.79.78A.65.65,0,0,1,143.75,178.55Z"/><path class="f735337d-4d4e-4077-a52a-7f16a5fe5fc4" d="M155,180.82l-1.47,7.36h-.95l.24-1.17a3.58,3.58,0,0,1-2.85,1.24,2.31,2.31,0,0,1-2.62-2.41,4,4,0,0,1,.09-.82l.84-4.2h1l-.84,4.2a4,4,0,0,0-.07.66c0,1.06.62,1.68,1.88,1.68a2.88,2.88,0,0,0,3-2.58l.79-4Z"/><path class="f735337d-4d4e-4077-a52a-7f16a5fe5fc4" d="M156.56,187.36l.47-.79a4.07,4.07,0,0,0,2.55.82c1.42,0,2.19-.5,2.19-1.32,0-1.67-4.18-.52-4.18-3,0-1.4,1.27-2.3,3.2-2.3a4.47,4.47,0,0,1,2.49.69l-.42.79a3.71,3.71,0,0,0-2.16-.63c-1.35,0-2.12.55-2.12,1.35,0,1.71,4.17.54,4.17,3,0,1.45-1.3,2.29-3.26,2.29A4.65,4.65,0,0,1,156.56,187.36Z"/><path class="f735337d-4d4e-4077-a52a-7f16a5fe5fc4" d="M166.83,186a4,4,0,0,0-.05.46c0,.63.35,1,1.06,1A1.9,1.9,0,0,0,169,187l.24.76a2.75,2.75,0,0,1-1.64.47,1.61,1.61,0,0,1-1.8-1.68,2.83,2.83,0,0,1,.06-.57l.86-4.34h-1.31l.16-.84h1.31l.33-1.62h1l-.32,1.62h2.24l-.17.84h-2.24Z"/><path class="f735337d-4d4e-4077-a52a-7f16a5fe5fc4" d="M176.62,185.13a4.18,4.18,0,0,1,4.29-4.37,3.08,3.08,0,0,1,2.9,1.47l-.84.49a2.29,2.29,0,0,0-2.15-1.09,3.24,3.24,0,0,0-3.21,3.46,2.16,2.16,0,0,0,2.46,2.28,2.85,2.85,0,0,0,2.32-1.06l.72.54a3.82,3.82,0,0,1-3.09,1.4C177.92,188.25,176.62,187,176.62,185.13Z"/><path class="f735337d-4d4e-4077-a52a-7f16a5fe5fc4" d="M185.43,185.13a4.18,4.18,0,0,1,4.25-4.37,3,3,0,0,1,3.35,3.11,4.18,4.18,0,0,1-4.26,4.38A3,3,0,0,1,185.43,185.13Zm6.61-1.2a2.16,2.16,0,0,0-2.43-2.3,3.23,3.23,0,0,0-3.19,3.46,2.14,2.14,0,0,0,2.42,2.28A3.22,3.22,0,0,0,192,183.93Z"/><path class="f735337d-4d4e-4077-a52a-7f16a5fe5fc4" d="M208.41,183.13a4.55,4.55,0,0,1-.1.86l-.84,4.19h-1l.84-4.2a2.88,2.88,0,0,0,.07-.69c0-1-.6-1.63-1.82-1.63a2.74,2.74,0,0,0-2.85,2.46l-.82,4.06h-1l.84-4.2a4.13,4.13,0,0,0,.07-.67c0-1.05-.59-1.65-1.82-1.65a2.82,2.82,0,0,0-2.89,2.57l-.78,4h-1l1.46-7.36h.95L197.5,182a3.43,3.43,0,0,1,2.78-1.23,2.29,2.29,0,0,1,2.41,1.47,3.73,3.73,0,0,1,3.11-1.47C207.47,180.76,208.41,181.64,208.41,183.13Z"/><path class="f735337d-4d4e-4077-a52a-7f16a5fe5fc4" d="M214,180l-.17.82h2.26l-.17.84h-2.23l-1.3,6.52h-1l1.3-6.52h-1.32l.16-.84h1.33l.18-.93a2.41,2.41,0,0,1,2.52-2.17,2.26,2.26,0,0,1,1.49.48l-.44.72a1.59,1.59,0,0,0-1.05-.36C214.7,178.56,214.21,179,214,180Z"/><path class="f735337d-4d4e-4077-a52a-7f16a5fe5fc4" d="M216.83,185.13a4.18,4.18,0,0,1,4.26-4.37,3,3,0,0,1,3.34,3.11,4.18,4.18,0,0,1-4.25,4.38A3,3,0,0,1,216.83,185.13Zm6.61-1.2a2.15,2.15,0,0,0-2.42-2.3,3.23,3.23,0,0,0-3.2,3.46,2.15,2.15,0,0,0,2.43,2.28A3.22,3.22,0,0,0,223.44,183.93Z"/><path class="f735337d-4d4e-4077-a52a-7f16a5fe5fc4" d="M231.91,180.76l-.18,1-.28,0c-1.57,0-2.62.9-3,2.73l-.74,3.74h-1l1.45-7.36h1l-.26,1.34A3.33,3.33,0,0,1,231.91,180.76Z"/><path class="f735337d-4d4e-4077-a52a-7f16a5fe5fc4" d="M235.2,186a2.64,2.64,0,0,0-.06.46c0,.63.35,1,1.07,1a1.9,1.9,0,0,0,1.13-.38l.24.76a2.73,2.73,0,0,1-1.64.47,1.6,1.6,0,0,1-1.79-1.68,2.81,2.81,0,0,1,0-.57l.86-4.34h-1.31l.16-.84h1.31l.33-1.62h1l-.32,1.62h2.24l-.17.84h-2.24Z"/><path class="f735337d-4d4e-4077-a52a-7f16a5fe5fc4" d="M248.26,180.82l-1.47,7.36h-.95l.24-1.16a3.77,3.77,0,0,1-2.87,1.23,3,3,0,0,1-3.21-3.12,4.14,4.14,0,0,1,4.16-4.37,2.76,2.76,0,0,1,2.8,1.6l.31-1.54Zm-1.65,3.11a2.15,2.15,0,0,0-2.42-2.3,3.23,3.23,0,0,0-3.2,3.46,2.14,2.14,0,0,0,2.42,2.28A3.22,3.22,0,0,0,246.61,183.93Z"/><path class="f735337d-4d4e-4077-a52a-7f16a5fe5fc4" d="M258.87,183.87a4.15,4.15,0,0,1-4.17,4.38,2.74,2.74,0,0,1-2.82-1.68l-.32,1.61h-.95l2.07-10.39h1l-.83,4.13a3.74,3.74,0,0,1,2.8-1.16A3,3,0,0,1,258.87,183.87Zm-1,.06a2.16,2.16,0,0,0-2.43-2.3,3.22,3.22,0,0,0-3.18,3.46,2.15,2.15,0,0,0,2.43,2.28A3.21,3.21,0,0,0,257.87,183.93Z"/><path class="f735337d-4d4e-4077-a52a-7f16a5fe5fc4" d="M263.22,177.79h1l-2.07,10.39h-1Z"/><path class="f735337d-4d4e-4077-a52a-7f16a5fe5fc4" d="M273.63,180.82l-5.38,8.32c-.91,1.4-1.6,1.83-2.66,1.83a2.38,2.38,0,0,1-1.75-.66l.53-.73a1.7,1.7,0,0,0,1.3.54c.63,0,1.12-.3,1.7-1.19l.52-.79-1.84-7.32h1l1.53,6.27,4-6.27Z"/><path class="f735337d-4d4e-4077-a52a-7f16a5fe5fc4" d="M280.92,186a2.64,2.64,0,0,0-.06.46c0,.63.35,1,1.07,1a1.88,1.88,0,0,0,1.13-.38l.24.76a2.73,2.73,0,0,1-1.64.47,1.61,1.61,0,0,1-1.79-1.68,2.26,2.26,0,0,1,.06-.57l.85-4.34h-1.3l.15-.84H281l.32-1.62h1l-.32,1.62h2.24l-.16.84h-2.25Z"/><path class="f735337d-4d4e-4077-a52a-7f16a5fe5fc4" d="M285.72,185.13a4.18,4.18,0,0,1,4.26-4.37,3,3,0,0,1,3.35,3.11,4.18,4.18,0,0,1-4.26,4.38A3,3,0,0,1,285.72,185.13Zm6.61-1.2a2.15,2.15,0,0,0-2.42-2.3,3.23,3.23,0,0,0-3.19,3.46,2.14,2.14,0,0,0,2.42,2.28A3.22,3.22,0,0,0,292.33,183.93Z"/><path class="f735337d-4d4e-4077-a52a-7f16a5fe5fc4" d="M301.93,186a4,4,0,0,0-.05.46c0,.63.35,1,1.06,1a1.9,1.9,0,0,0,1.14-.38l.24.76a2.75,2.75,0,0,1-1.64.47,1.61,1.61,0,0,1-1.8-1.68,2.83,2.83,0,0,1,.06-.57l.85-4.34h-1.3l.16-.84H302l.32-1.62h1l-.32,1.62h2.24l-.17.84h-2.24Z"/><path class="f735337d-4d4e-4077-a52a-7f16a5fe5fc4" d="M314.76,183.15a5,5,0,0,1-.08.84l-.84,4.19h-1l.84-4.2a4.13,4.13,0,0,0,.07-.67c0-1.05-.63-1.65-1.9-1.65a2.87,2.87,0,0,0-3,2.57l-.78,4h-1l2.07-10.39h1l-.83,4.13a3.58,3.58,0,0,1,2.82-1.16A2.31,2.31,0,0,1,314.76,183.15Z"/><path class="f735337d-4d4e-4077-a52a-7f16a5fe5fc4" d="M318.55,184.78c0,.1,0,.2,0,.29,0,1.47.84,2.3,2.53,2.3a3.34,3.34,0,0,0,2.41-.92l.45.71a4.21,4.21,0,0,1-2.94,1.09c-2.13,0-3.43-1.2-3.43-3.13a4.1,4.1,0,0,1,4.07-4.36,2.93,2.93,0,0,1,3.21,3.12,4.35,4.35,0,0,1-.1.9Zm.1-.74h5.25a1.27,1.27,0,0,0,0-.27,2.08,2.08,0,0,0-2.32-2.17A3,3,0,0,0,318.65,184Z"/><path class="f735337d-4d4e-4077-a52a-7f16a5fe5fc4" d="M339.54,183.15a5,5,0,0,1-.08.84l-.84,4.19h-1l.84-4.2a4.13,4.13,0,0,0,.07-.67c0-1.05-.63-1.65-1.9-1.65a2.87,2.87,0,0,0-3,2.57l-.79,4h-1l1.46-7.36h.95L334,182a3.66,3.66,0,0,1,2.89-1.23A2.31,2.31,0,0,1,339.54,183.15Z"/><path class="f735337d-4d4e-4077-a52a-7f16a5fe5fc4" d="M343.33,184.78c0,.1,0,.2,0,.29,0,1.47.84,2.3,2.53,2.3a3.34,3.34,0,0,0,2.41-.92l.45.71a4.21,4.21,0,0,1-2.94,1.09c-2.13,0-3.43-1.2-3.43-3.13a4.1,4.1,0,0,1,4.07-4.36,2.93,2.93,0,0,1,3.21,3.12,4.35,4.35,0,0,1-.1.9Zm.1-.74h5.25a1.27,1.27,0,0,0,0-.27,2.08,2.08,0,0,0-2.32-2.17A3,3,0,0,0,343.43,184Z"/><path class="f735337d-4d4e-4077-a52a-7f16a5fe5fc4" d="M364.11,180.82,360,188.18h-1l-1.24-6-3.44,6h-1l-1.44-7.36h.91l1.19,6.24,3.56-6.24h.84l1.23,6.24,3.51-6.24Z"/><path class="f735337d-4d4e-4077-a52a-7f16a5fe5fc4" d="M370.77,184.78c0,.1,0,.2,0,.29,0,1.47.84,2.3,2.53,2.3a3.34,3.34,0,0,0,2.41-.92l.45.71a4.21,4.21,0,0,1-2.94,1.09c-2.13,0-3.43-1.2-3.43-3.13a4.1,4.1,0,0,1,4.07-4.36,2.93,2.93,0,0,1,3.21,3.12,4.35,4.35,0,0,1-.1.9Zm.1-.74h5.25a1.27,1.27,0,0,0,0-.27,2.08,2.08,0,0,0-2.32-2.17A3,3,0,0,0,370.87,184Z"/><path class="f735337d-4d4e-4077-a52a-7f16a5fe5fc4" d="M387,183.15a5,5,0,0,1-.08.84l-.84,4.19h-1L386,184a3.25,3.25,0,0,0,.07-.67c0-1.05-.63-1.65-1.9-1.65a2.87,2.87,0,0,0-3,2.57l-.78,4h-1l1.46-7.36h.95l-.24,1.17a3.66,3.66,0,0,1,2.89-1.23C386.08,180.76,387,181.66,387,183.15Z"/><path class="f735337d-4d4e-4077-a52a-7f16a5fe5fc4" d="M397.4,180.82l-4.73,7.36h-1l-1.83-7.36h1l1.52,6.28,4-6.28Z"/><path class="f735337d-4d4e-4077-a52a-7f16a5fe5fc4" d="M399.83,180.82h1l-1.46,7.36h-1Zm.26-2.27a.75.75,0,0,1,.77-.76.65.65,0,0,1,.68.63.76.76,0,0,1-.78.78A.65.65,0,0,1,400.09,178.55Z"/><path class="f735337d-4d4e-4077-a52a-7f16a5fe5fc4" d="M408.38,180.76l-.19,1-.28,0c-1.57,0-2.62.9-3,2.73l-.74,3.74h-1l1.46-7.36h1l-.25,1.34A3.33,3.33,0,0,1,408.38,180.76Z"/><path class="f735337d-4d4e-4077-a52a-7f16a5fe5fc4" d="M409.61,185.13a4.17,4.17,0,0,1,4.25-4.37,3,3,0,0,1,3.35,3.11,4.18,4.18,0,0,1-4.26,4.38A3,3,0,0,1,409.61,185.13Zm6.61-1.2a2.16,2.16,0,0,0-2.43-2.3,3.23,3.23,0,0,0-3.19,3.46,2.14,2.14,0,0,0,2.42,2.28A3.22,3.22,0,0,0,416.22,183.93Z"/><path class="f735337d-4d4e-4077-a52a-7f16a5fe5fc4" d="M427.19,183.15a4.11,4.11,0,0,1-.08.84l-.84,4.19h-1l.85-4.2a4.06,4.06,0,0,0,.06-.67c0-1.05-.63-1.65-1.9-1.65a2.87,2.87,0,0,0-3,2.57l-.78,4h-1l1.46-7.36h1l-.24,1.17a3.66,3.66,0,0,1,2.89-1.23C426.23,180.76,427.19,181.66,427.19,183.15Z"/><path class="f735337d-4d4e-4077-a52a-7f16a5fe5fc4" d="M443.11,183.13a5.47,5.47,0,0,1-.09.86l-.84,4.19h-1L442,184a2.88,2.88,0,0,0,.07-.69c0-1-.6-1.63-1.82-1.63a2.76,2.76,0,0,0-2.86,2.46l-.81,4.06h-1l.84-4.2a4.13,4.13,0,0,0,.07-.67c0-1.05-.59-1.65-1.82-1.65a2.82,2.82,0,0,0-2.89,2.57l-.78,4h-1l1.46-7.36h.95L432.2,182a3.45,3.45,0,0,1,2.79-1.23,2.29,2.29,0,0,1,2.41,1.47,3.73,3.73,0,0,1,3.11-1.47C442.18,180.76,443.11,181.64,443.11,183.13Z"/><path class="f735337d-4d4e-4077-a52a-7f16a5fe5fc4" d="M446.89,184.78a1.46,1.46,0,0,0,0,.29c0,1.47.84,2.3,2.54,2.3a3.35,3.35,0,0,0,2.41-.92l.45.71a4.22,4.22,0,0,1-2.94,1.09c-2.13,0-3.44-1.2-3.44-3.13a4.11,4.11,0,0,1,4.08-4.36,2.93,2.93,0,0,1,3.21,3.12,5.16,5.16,0,0,1-.1.9Zm.1-.74h5.25a2.53,2.53,0,0,0,0-.27,2.08,2.08,0,0,0-2.31-2.17A3,3,0,0,0,447,184Z"/><path class="f735337d-4d4e-4077-a52a-7f16a5fe5fc4" d="M463.16,183.15a5,5,0,0,1-.08.84l-.85,4.19h-1l.84-4.2a4.13,4.13,0,0,0,.07-.67c0-1.05-.63-1.65-1.9-1.65a2.87,2.87,0,0,0-3,2.57l-.79,4h-1l1.46-7.36h.95l-.24,1.17a3.63,3.63,0,0,1,2.89-1.23A2.31,2.31,0,0,1,463.16,183.15Z"/><path class="f735337d-4d4e-4077-a52a-7f16a5fe5fc4" d="M467.59,186a4,4,0,0,0,0,.46c0,.63.35,1,1.06,1a1.9,1.9,0,0,0,1.14-.38l.23.76a2.7,2.7,0,0,1-1.63.47,1.61,1.61,0,0,1-1.8-1.68,2.83,2.83,0,0,1,.06-.57l.85-4.34h-1.3l.15-.84h1.32l.32-1.62h1l-.32,1.62h2.24l-.17.84h-2.24Z"/><path class="f735337d-4d4e-4077-a52a-7f16a5fe5fc4" d="M478.43,187.45a1.4,1.4,0,0,1-.27.75l-1.06,2h-.67l.89-2.06a.69.69,0,0,1-.39-.64.78.78,0,0,1,.78-.8A.7.7,0,0,1,478.43,187.45Z"/><path class="f735337d-4d4e-4077-a52a-7f16a5fe5fc4" d="M127.6,200a4.32,4.32,0,0,1-.09.85l-.84,4.18h-1l.84-4.2a4.13,4.13,0,0,0,.07-.67c0-1.05-.63-1.65-1.91-1.65a2.87,2.87,0,0,0-3,2.57L120.9,205h-1l1.45-7.36h1l-.24,1.17a3.62,3.62,0,0,1,2.88-1.23C126.63,197.56,127.6,198.46,127.6,200Z"/><path class="f735337d-4d4e-4077-a52a-7f16a5fe5fc4" d="M131.39,201.58a1.46,1.46,0,0,0,0,.29c0,1.48.84,2.3,2.54,2.3a3.35,3.35,0,0,0,2.41-.92l.45.71a4.22,4.22,0,0,1-2.94,1.09c-2.13,0-3.44-1.2-3.44-3.13a4.11,4.11,0,0,1,4.08-4.36,2.93,2.93,0,0,1,3.21,3.12,5.16,5.16,0,0,1-.1.9Zm.1-.74h5.25a2.53,2.53,0,0,0,0-.27,2.08,2.08,0,0,0-2.31-2.17A3,3,0,0,0,131.49,200.84Z"/><path class="f735337d-4d4e-4077-a52a-7f16a5fe5fc4" d="M152.17,197.62,148,205h-1l-1.23-6-3.45,6h-1L140,197.62h.91l1.19,6.24,3.56-6.24h.84l1.23,6.24,3.5-6.24Z"/><path class="f735337d-4d4e-4077-a52a-7f16a5fe5fc4" d="M157.83,201.93a4.18,4.18,0,0,1,4.29-4.37A3.08,3.08,0,0,1,165,199l-.84.49a2.27,2.27,0,0,0-2.14-1.09,3.24,3.24,0,0,0-3.21,3.46,2.15,2.15,0,0,0,2.45,2.28,2.84,2.84,0,0,0,2.32-1.06l.72.54a3.8,3.8,0,0,1-3.08,1.4C159.14,205.05,157.83,203.82,157.83,201.93Z"/><path class="f735337d-4d4e-4077-a52a-7f16a5fe5fc4" d="M168.8,194.59h1L167.72,205h-1Z"/><path class="f735337d-4d4e-4077-a52a-7f16a5fe5fc4" d="M179.73,197.62,178.26,205h-.95l.24-1.16a3.77,3.77,0,0,1-2.87,1.23,3,3,0,0,1-3.21-3.12,4.14,4.14,0,0,1,4.16-4.37,2.76,2.76,0,0,1,2.8,1.6l.31-1.54Zm-1.65,3.11a2.15,2.15,0,0,0-2.42-2.3,3.24,3.24,0,0,0-3.2,3.46,2.15,2.15,0,0,0,2.43,2.28A3.22,3.22,0,0,0,178.08,200.73Z"/><path class="f735337d-4d4e-4077-a52a-7f16a5fe5fc4" d="M181.3,204.16l.47-.79a4,4,0,0,0,2.55.82c1.42,0,2.19-.49,2.19-1.32,0-1.67-4.18-.52-4.18-3,0-1.4,1.26-2.3,3.2-2.3a4.49,4.49,0,0,1,2.49.69l-.42.79a3.71,3.71,0,0,0-2.16-.63c-1.36,0-2.13.55-2.13,1.35,0,1.71,4.18.55,4.18,3,0,1.45-1.31,2.29-3.27,2.29A4.64,4.64,0,0,1,181.3,204.16Z"/><path class="f735337d-4d4e-4077-a52a-7f16a5fe5fc4" d="M189.19,204.16l.48-.79a4,4,0,0,0,2.55.82c1.41,0,2.18-.49,2.18-1.32,0-1.67-4.17-.52-4.17-3,0-1.4,1.26-2.3,3.19-2.3a4.5,4.5,0,0,1,2.5.69l-.42.79a3.75,3.75,0,0,0-2.16-.63c-1.36,0-2.13.55-2.13,1.35,0,1.71,4.17.55,4.17,3,0,1.45-1.3,2.29-3.26,2.29A4.67,4.67,0,0,1,189.19,204.16Z"/><path class="f735337d-4d4e-4077-a52a-7f16a5fe5fc4" d="M203.57,204.26a1.32,1.32,0,0,1-.27.74l-1.06,2h-.67l.89-2.06a.71.71,0,0,1-.39-.64.79.79,0,0,1,.79-.8A.7.7,0,0,1,203.57,204.26Z"/><path class="f735337d-4d4e-4077-a52a-7f16a5fe5fc4" d="M219,200a4.32,4.32,0,0,1-.09.85l-.84,4.18h-1l.84-4.2a4.13,4.13,0,0,0,.07-.67c0-1.05-.63-1.65-1.91-1.65a2.86,2.86,0,0,0-3,2.57l-.79,3.95h-1l1.45-7.36h1l-.24,1.17a3.62,3.62,0,0,1,2.88-1.23C218.05,197.56,219,198.46,219,200Z"/><path class="f735337d-4d4e-4077-a52a-7f16a5fe5fc4" d="M222.81,201.58a1.46,1.46,0,0,0,0,.29c0,1.48.84,2.3,2.54,2.3a3.35,3.35,0,0,0,2.41-.92l.45.71a4.23,4.23,0,0,1-2.95,1.09c-2.13,0-3.43-1.2-3.43-3.13a4.11,4.11,0,0,1,4.08-4.36,2.94,2.94,0,0,1,3.21,3.12,5.16,5.16,0,0,1-.1.9Zm.09-.74h5.26a2.53,2.53,0,0,0,0-.27,2.08,2.08,0,0,0-2.31-2.17A3,3,0,0,0,222.9,200.84Z"/><path class="f735337d-4d4e-4077-a52a-7f16a5fe5fc4" d="M243.59,197.62,239.43,205h-1l-1.23-6-3.45,6h-.95l-1.44-7.36h.91l1.19,6.24,3.56-6.24h.84l1.23,6.24,3.5-6.24Z"/><path class="f735337d-4d4e-4077-a52a-7f16a5fe5fc4" d="M252.09,196.8l-.16.82h2.25l-.17.84h-2.22L250.48,205h-1l1.3-6.52h-1.31l.15-.84H251l.18-.93a2.41,2.41,0,0,1,2.52-2.17,2.26,2.26,0,0,1,1.49.48l-.44.72a1.57,1.57,0,0,0-1.05-.36C252.8,195.36,252.31,195.81,252.09,196.8Z"/><path class="f735337d-4d4e-4077-a52a-7f16a5fe5fc4" d="M261.42,197.56l-.18,1-.28,0c-1.57,0-2.62.9-3,2.73l-.74,3.74h-1l1.45-7.36h1l-.26,1.34A3.33,3.33,0,0,1,261.42,197.56Z"/><path class="f735337d-4d4e-4077-a52a-7f16a5fe5fc4" d="M264.25,197.62h1L263.78,205h-1Zm.25-2.27a.75.75,0,0,1,.77-.76.66.66,0,0,1,.69.63.76.76,0,0,1-.79.78A.65.65,0,0,1,264.5,195.35Z"/><path class="f735337d-4d4e-4077-a52a-7f16a5fe5fc4" d="M268.53,201.58c0,.1,0,.2,0,.29,0,1.48.84,2.3,2.53,2.3a3.35,3.35,0,0,0,2.41-.92l.45.71a4.21,4.21,0,0,1-2.94,1.09c-2.13,0-3.43-1.2-3.43-3.13a4.1,4.1,0,0,1,4.07-4.36,2.93,2.93,0,0,1,3.21,3.12,4.35,4.35,0,0,1-.1.9Zm.1-.74h5.25a2.53,2.53,0,0,0,0-.27,2.07,2.07,0,0,0-2.31-2.17A3,3,0,0,0,268.63,200.84Z"/><path class="f735337d-4d4e-4077-a52a-7f16a5fe5fc4" d="M284.8,200a5.18,5.18,0,0,1-.08.85l-.84,4.18h-1l.84-4.2a4.13,4.13,0,0,0,.07-.67c0-1.05-.63-1.65-1.9-1.65a2.87,2.87,0,0,0-3,2.57l-.78,3.95h-1l1.46-7.36h.95l-.24,1.17a3.64,3.64,0,0,1,2.89-1.23A2.31,2.31,0,0,1,284.8,200Z"/><path class="f735337d-4d4e-4077-a52a-7f16a5fe5fc4" d="M296.46,194.59,294.39,205h-.95l.24-1.16a3.78,3.78,0,0,1-2.88,1.23,3,3,0,0,1-3.2-3.12,4.14,4.14,0,0,1,4.16-4.37,2.77,2.77,0,0,1,2.8,1.6l.91-4.57Zm-2.25,6.14a2.15,2.15,0,0,0-2.42-2.3,3.24,3.24,0,0,0-3.2,3.46,2.14,2.14,0,0,0,2.42,2.28A3.22,3.22,0,0,0,294.21,200.73Z"/><path class="f735337d-4d4e-4077-a52a-7f16a5fe5fc4" d="M297.42,204.16l.48-.79a4,4,0,0,0,2.55.82c1.41,0,2.18-.49,2.18-1.32,0-1.67-4.17-.52-4.17-3,0-1.4,1.26-2.3,3.19-2.3a4.5,4.5,0,0,1,2.5.69l-.42.79a3.73,3.73,0,0,0-2.16-.63c-1.36,0-2.13.55-2.13,1.35,0,1.71,4.18.55,4.18,3,0,1.45-1.31,2.29-3.27,2.29A4.69,4.69,0,0,1,297.42,204.16Z"/><path class="f735337d-4d4e-4077-a52a-7f16a5fe5fc4" d="M317.63,203.11l1.08,1.38-.67.65L317,203.78a5,5,0,0,1-3.4,1.29c-1.84,0-3-.87-3-2.24s.93-2.27,3.07-3.32a3.33,3.33,0,0,1-.8-2,2.44,2.44,0,0,1,2.72-2.44c1.27,0,2.14.66,2.14,1.72s-.84,1.95-2.75,2.87l2.15,2.73a7.55,7.55,0,0,0,1-1.9l.78.25A8.59,8.59,0,0,1,317.63,203.11Zm-1.16,0-2.36-3c-1.89.92-2.54,1.6-2.54,2.56s.74,1.57,2.07,1.57A4.07,4.07,0,0,0,316.47,203.13Zm-2.71-5.7a2.81,2.81,0,0,0,.73,1.67c1.81-.85,2.34-1.36,2.34-2.2,0-.59-.46-1.05-1.3-1.05A1.58,1.58,0,0,0,313.76,197.43Z"/><path class="f735337d-4d4e-4077-a52a-7f16a5fe5fc4" d="M333.65,200a4.32,4.32,0,0,1-.09.85l-.84,4.18h-1l.84-4.2a4.13,4.13,0,0,0,.07-.67c0-1.05-.63-1.65-1.91-1.65a2.86,2.86,0,0,0-3,2.57L327,205h-1l1.45-7.36h1l-.24,1.17a3.62,3.62,0,0,1,2.88-1.23C332.68,197.56,333.65,198.46,333.65,200Z"/><path class="f735337d-4d4e-4077-a52a-7f16a5fe5fc4" d="M337.44,201.58a1.46,1.46,0,0,0,0,.29c0,1.48.84,2.3,2.54,2.3a3.35,3.35,0,0,0,2.41-.92l.45.71a4.23,4.23,0,0,1-2.95,1.09c-2.12,0-3.43-1.2-3.43-3.13a4.1,4.1,0,0,1,4.08-4.36,2.93,2.93,0,0,1,3.21,3.12,5.16,5.16,0,0,1-.1.9Zm.1-.74h5.25a2.53,2.53,0,0,0,0-.27,2.08,2.08,0,0,0-2.31-2.17A3,3,0,0,0,337.54,200.84Z"/><path class="f735337d-4d4e-4077-a52a-7f16a5fe5fc4" d="M358.22,197.62,354.06,205h-1l-1.23-6-3.45,6h-1L346,197.62h.91l1.19,6.24,3.56-6.24h.84l1.23,6.24,3.5-6.24Z"/><path class="f735337d-4d4e-4077-a52a-7f16a5fe5fc4" d="M365.55,202.76a2.64,2.64,0,0,0-.06.46c0,.63.35,1,1.07,1a1.88,1.88,0,0,0,1.13-.38l.24.76a2.73,2.73,0,0,1-1.64.47,1.6,1.6,0,0,1-1.79-1.68,2.81,2.81,0,0,1,.05-.57l.86-4.34h-1.3l.15-.84h1.32l.32-1.62h1l-.32,1.62h2.24l-.17.84H366.4Z"/><path class="f735337d-4d4e-4077-a52a-7f16a5fe5fc4" d="M371.34,201.58c0,.1,0,.2,0,.29,0,1.48.84,2.3,2.54,2.3a3.31,3.31,0,0,0,2.4-.92l.45.71a4.19,4.19,0,0,1-2.94,1.09c-2.13,0-3.43-1.2-3.43-3.13a4.1,4.1,0,0,1,4.08-4.36,2.93,2.93,0,0,1,3.2,3.12,5.18,5.18,0,0,1-.09.9Zm.1-.74h5.26a2.53,2.53,0,0,0,0-.27,2.08,2.08,0,0,0-2.31-2.17A3,3,0,0,0,371.44,200.84Z"/><path class="f735337d-4d4e-4077-a52a-7f16a5fe5fc4" d="M388.12,197.62,386.65,205h-.95l.23-1.16a3.76,3.76,0,0,1-2.87,1.23,3,3,0,0,1-3.2-3.12,4.14,4.14,0,0,1,4.16-4.37,2.76,2.76,0,0,1,2.8,1.6l.31-1.54Zm-1.65,3.11a2.16,2.16,0,0,0-2.43-2.3,3.24,3.24,0,0,0-3.19,3.46,2.14,2.14,0,0,0,2.42,2.28A3.22,3.22,0,0,0,386.47,200.73Z"/><path class="f735337d-4d4e-4077-a52a-7f16a5fe5fc4" d="M390.4,201.93a4.18,4.18,0,0,1,4.28-4.37,3.06,3.06,0,0,1,2.9,1.47l-.84.49a2.26,2.26,0,0,0-2.14-1.09,3.24,3.24,0,0,0-3.21,3.46,2.15,2.15,0,0,0,2.45,2.28,2.86,2.86,0,0,0,2.33-1.06l.71.54a3.8,3.8,0,0,1-3.08,1.4C391.7,205.05,390.4,203.82,390.4,201.93Z"/><path class="f735337d-4d4e-4077-a52a-7f16a5fe5fc4" d="M407,200a4.32,4.32,0,0,1-.09.85l-.84,4.18h-1l.84-4.2a4.13,4.13,0,0,0,.07-.67c0-1.05-.63-1.65-1.91-1.65a2.87,2.87,0,0,0-3,2.57l-.79,3.95h-1l2.07-10.39h1l-.83,4.13a3.58,3.58,0,0,1,2.81-1.16C406,197.56,407,198.46,407,200Z"/><path class="f735337d-4d4e-4077-a52a-7f16a5fe5fc4" d="M410.77,201.58a1.46,1.46,0,0,0,0,.29c0,1.48.84,2.3,2.54,2.3a3.35,3.35,0,0,0,2.41-.92l.45.71a4.22,4.22,0,0,1-2.94,1.09c-2.13,0-3.44-1.2-3.44-3.13a4.11,4.11,0,0,1,4.08-4.36,2.93,2.93,0,0,1,3.21,3.12,4.35,4.35,0,0,1-.1.9Zm.1-.74h5.25a2.53,2.53,0,0,0,0-.27,2.08,2.08,0,0,0-2.31-2.17A3,3,0,0,0,410.87,200.84Z"/><path class="f735337d-4d4e-4077-a52a-7f16a5fe5fc4" d="M424.53,197.56l-.18,1-.28,0c-1.57,0-2.62.9-3,2.73l-.75,3.74h-1l1.46-7.36h.95l-.25,1.34A3.3,3.3,0,0,1,424.53,197.56Z"/><path class="f735337d-4d4e-4077-a52a-7f16a5fe5fc4" d="M425.17,204.16l.48-.79a4,4,0,0,0,2.55.82c1.41,0,2.18-.49,2.18-1.32,0-1.67-4.17-.52-4.17-3,0-1.4,1.26-2.3,3.19-2.3a4.5,4.5,0,0,1,2.5.69l-.42.79a3.73,3.73,0,0,0-2.16-.63c-1.36,0-2.13.55-2.13,1.35,0,1.71,4.17.55,4.17,3,0,1.45-1.3,2.29-3.26,2.29A4.69,4.69,0,0,1,425.17,204.16Z"/><path class="f735337d-4d4e-4077-a52a-7f16a5fe5fc4" d="M433.33,204.33a.79.79,0,0,1,.79-.8.7.7,0,0,1,.71.73.77.77,0,0,1-.77.79A.73.73,0,0,1,433.33,204.33Z"/><path class="f735337d-4d4e-4077-a52a-7f16a5fe5fc4" d="M444.76,195.18h1l-2,9.8h-1Z"/><path class="f735337d-4d4e-4077-a52a-7f16a5fe5fc4" d="M452.51,201.93a4.18,4.18,0,0,1,4.29-4.37,3.07,3.07,0,0,1,2.9,1.47l-.84.49a2.26,2.26,0,0,0-2.14-1.09,3.24,3.24,0,0,0-3.21,3.46,2.15,2.15,0,0,0,2.45,2.28,2.87,2.87,0,0,0,2.33-1.06l.71.54a3.8,3.8,0,0,1-3.08,1.4C453.82,205.05,452.51,203.82,452.51,201.93Z"/><path class="f735337d-4d4e-4077-a52a-7f16a5fe5fc4" d="M469.58,197.62,468.11,205h-.95l.24-1.16a3.77,3.77,0,0,1-2.87,1.23,3,3,0,0,1-3.21-3.12,4.14,4.14,0,0,1,4.16-4.37,2.76,2.76,0,0,1,2.8,1.6l.31-1.54Zm-1.65,3.11a2.15,2.15,0,0,0-2.42-2.3,3.24,3.24,0,0,0-3.2,3.46,2.15,2.15,0,0,0,2.43,2.28A3.22,3.22,0,0,0,467.93,200.73Z"/><path class="f735337d-4d4e-4077-a52a-7f16a5fe5fc4" d="M479.62,200a5.18,5.18,0,0,1-.08.85L478.7,205h-1l.84-4.2a3.25,3.25,0,0,0,.07-.67c0-1.05-.63-1.65-1.9-1.65a2.87,2.87,0,0,0-3,2.57l-.78,3.95h-1l1.46-7.36h.95l-.24,1.17a3.66,3.66,0,0,1,2.89-1.23C478.66,197.56,479.62,198.46,479.62,200Z"/><path class="f735337d-4d4e-4077-a52a-7f16a5fe5fc4" d="M127.38,221l.48-.79a4,4,0,0,0,2.55.82c1.41,0,2.18-.5,2.18-1.32,0-1.67-4.17-.52-4.17-3,0-1.4,1.26-2.3,3.19-2.3a4.5,4.5,0,0,1,2.5.69l-.42.79a3.73,3.73,0,0,0-2.16-.63c-1.36,0-2.13.55-2.13,1.35,0,1.71,4.17.54,4.17,3,0,1.45-1.3,2.29-3.26,2.29A4.69,4.69,0,0,1,127.38,221Z"/><path class="f735337d-4d4e-4077-a52a-7f16a5fe5fc4" d="M144.17,214.42l-1.47,7.36h-.95l.24-1.17a3.58,3.58,0,0,1-2.85,1.24,2.3,2.3,0,0,1-2.61-2.41,4,4,0,0,1,.08-.82l.84-4.2h1l-.84,4.2a4,4,0,0,0-.07.66c0,1.06.62,1.68,1.88,1.68a2.87,2.87,0,0,0,3-2.58l.79-4Z"/><path class="f735337d-4d4e-4077-a52a-7f16a5fe5fc4" d="M159.62,216.73a4.74,4.74,0,0,1-.1.87l-.84,4.18h-1l.85-4.2a3.45,3.45,0,0,0,.06-.69c0-1-.6-1.63-1.82-1.63a2.74,2.74,0,0,0-2.85,2.46l-.82,4.06h-1l.84-4.2a4.13,4.13,0,0,0,.07-.67c0-1-.59-1.65-1.82-1.65a2.82,2.82,0,0,0-2.89,2.57l-.78,3.95h-1l1.46-7.36h.95l-.23,1.17a3.43,3.43,0,0,1,2.78-1.23,2.29,2.29,0,0,1,2.41,1.47,3.74,3.74,0,0,1,3.11-1.47C158.68,214.36,159.62,215.24,159.62,216.73Z"/><path class="f735337d-4d4e-4077-a52a-7f16a5fe5fc4" d="M175.52,216.73a4.74,4.74,0,0,1-.1.87l-.84,4.18h-1l.84-4.2a2.88,2.88,0,0,0,.07-.69c0-1-.6-1.63-1.82-1.63a2.76,2.76,0,0,0-2.86,2.46l-.81,4.06h-1l.84-4.2a3.25,3.25,0,0,0,.07-.67c0-1-.58-1.65-1.82-1.65a2.81,2.81,0,0,0-2.88,2.57l-.79,3.95h-1l1.46-7.36h.95l-.24,1.17a3.45,3.45,0,0,1,2.79-1.23,2.31,2.31,0,0,1,2.41,1.47,3.73,3.73,0,0,1,3.11-1.47C174.58,214.36,175.52,215.24,175.52,216.73Z"/><path class="f735337d-4d4e-4077-a52a-7f16a5fe5fc4" d="M186.56,214.42l-1.47,7.36h-1l.24-1.16a3.77,3.77,0,0,1-2.87,1.23,3,3,0,0,1-3.21-3.12,4.15,4.15,0,0,1,4.16-4.37,2.76,2.76,0,0,1,2.8,1.6l.31-1.54Zm-1.65,3.11a2.15,2.15,0,0,0-2.42-2.3,3.23,3.23,0,0,0-3.2,3.46,2.15,2.15,0,0,0,2.43,2.28A3.22,3.22,0,0,0,184.91,217.53Z"/><path class="f735337d-4d4e-4077-a52a-7f16a5fe5fc4" d="M194.09,214.36l-.18,1-.28,0c-1.57,0-2.62.9-3,2.73l-.74,3.74h-1l1.46-7.36h.95l-.25,1.34A3.31,3.31,0,0,1,194.09,214.36Z"/><path class="f735337d-4d4e-4077-a52a-7f16a5fe5fc4" d="M196.92,214.42h1l-1.45,7.36h-1Zm.25-2.27a.76.76,0,0,1,.77-.76.66.66,0,0,1,.69.63.76.76,0,0,1-.79.78A.65.65,0,0,1,197.17,212.15Z"/><path class="f735337d-4d4e-4077-a52a-7f16a5fe5fc4" d="M206.71,215.07,201,221h4.66l-.17.82h-6l.12-.65,5.75-5.87h-4.47l.17-.84h5.81Z"/><path class="f735337d-4d4e-4077-a52a-7f16a5fe5fc4" d="M209.28,218.38c0,.1,0,.2,0,.29,0,1.47.84,2.3,2.53,2.3a3.34,3.34,0,0,0,2.41-.92l.45.71a4.21,4.21,0,0,1-2.94,1.09c-2.13,0-3.43-1.2-3.43-3.13a4.1,4.1,0,0,1,4.07-4.36,2.93,2.93,0,0,1,3.21,3.12,4.35,4.35,0,0,1-.1.9Zm.1-.74h5.25a1.27,1.27,0,0,0,0-.27,2.08,2.08,0,0,0-2.31-2.17A3,3,0,0,0,209.38,217.64Z"/><path class="f735337d-4d4e-4077-a52a-7f16a5fe5fc4" d="M230.78,214.42l-1.47,7.36h-1l.24-1.16a3.77,3.77,0,0,1-2.87,1.23,3,3,0,0,1-3.21-3.12,4.15,4.15,0,0,1,4.16-4.37,2.76,2.76,0,0,1,2.8,1.6l.31-1.54Zm-1.66,3.11a2.15,2.15,0,0,0-2.42-2.3,3.23,3.23,0,0,0-3.19,3.46,2.14,2.14,0,0,0,2.42,2.28A3.22,3.22,0,0,0,229.12,217.53Z"/><path class="f735337d-4d4e-4077-a52a-7f16a5fe5fc4" d="M235.2,211.39h1l-2.07,10.39h-1Z"/><path class="f735337d-4d4e-4077-a52a-7f16a5fe5fc4" d="M240,211.39h1l-2.08,10.39h-1Z"/><path class="f735337d-4d4e-4077-a52a-7f16a5fe5fc4" d="M249.07,219.56a2.64,2.64,0,0,0-.06.46c0,.63.35,1,1.07,1a1.85,1.85,0,0,0,1.13-.38l.24.76a2.73,2.73,0,0,1-1.64.47,1.61,1.61,0,0,1-1.79-1.68,2.26,2.26,0,0,1,.06-.57l.85-4.34h-1.3l.15-.84h1.32l.32-1.62h1l-.32,1.62h2.24l-.16.84h-2.25Z"/><path class="f735337d-4d4e-4077-a52a-7f16a5fe5fc4" d="M261.9,216.75a4.32,4.32,0,0,1-.09.85l-.84,4.18h-1l.84-4.2a4.13,4.13,0,0,0,.07-.67c0-1-.63-1.65-1.91-1.65a2.86,2.86,0,0,0-3,2.57l-.79,3.95h-1l2.07-10.39h1l-.82,4.13a3.58,3.58,0,0,1,2.81-1.16C260.93,214.36,261.9,215.26,261.9,216.75Z"/><path class="f735337d-4d4e-4077-a52a-7f16a5fe5fc4" d="M265.69,218.38a1.46,1.46,0,0,0,0,.29c0,1.47.84,2.3,2.54,2.3a3.35,3.35,0,0,0,2.41-.92l.45.71a4.23,4.23,0,0,1-2.95,1.09c-2.12,0-3.43-1.2-3.43-3.13a4.11,4.11,0,0,1,4.08-4.36,2.93,2.93,0,0,1,3.21,3.12,5.16,5.16,0,0,1-.1.9Zm.1-.74H271a2.53,2.53,0,0,0,0-.27,2.08,2.08,0,0,0-2.31-2.17A3,3,0,0,0,265.79,217.64Z"/><path class="f735337d-4d4e-4077-a52a-7f16a5fe5fc4" d="M287.18,214.42l-1.47,7.36h-.95l.24-1.16a3.78,3.78,0,0,1-2.88,1.23,3,3,0,0,1-3.2-3.12,4.14,4.14,0,0,1,4.16-4.37,2.76,2.76,0,0,1,2.8,1.6l.31-1.54Zm-1.65,3.11a2.16,2.16,0,0,0-2.43-2.3,3.23,3.23,0,0,0-3.19,3.46,2.14,2.14,0,0,0,2.42,2.28A3.22,3.22,0,0,0,285.53,217.53Z"/><path class="f735337d-4d4e-4077-a52a-7f16a5fe5fc4" d="M297.79,217.47a4.15,4.15,0,0,1-4.17,4.38,2.74,2.74,0,0,1-2.82-1.68l-.32,1.61h-1l2.07-10.39h1l-.83,4.13a3.74,3.74,0,0,1,2.8-1.16A3,3,0,0,1,297.79,217.47Zm-1,.06a2.15,2.15,0,0,0-2.42-2.3,3.22,3.22,0,0,0-3.18,3.46A2.14,2.14,0,0,0,293.6,221,3.21,3.21,0,0,0,296.78,217.53Z"/><path class="f735337d-4d4e-4077-a52a-7f16a5fe5fc4" d="M300,218.73a4.18,4.18,0,0,1,4.26-4.37,3,3,0,0,1,3.35,3.11,4.18,4.18,0,0,1-4.26,4.38A3,3,0,0,1,300,218.73Zm6.61-1.2a2.15,2.15,0,0,0-2.42-2.3,3.23,3.23,0,0,0-3.19,3.46,2.14,2.14,0,0,0,2.42,2.28A3.22,3.22,0,0,0,306.61,217.53Z"/><path class="f735337d-4d4e-4077-a52a-7f16a5fe5fc4" d="M317.35,214.42l-4.73,7.36h-1l-1.82-7.36h1l1.52,6.28,4-6.28Z"/><path class="f735337d-4d4e-4077-a52a-7f16a5fe5fc4" d="M319,218.38c0,.1,0,.2,0,.29,0,1.47.84,2.3,2.53,2.3a3.34,3.34,0,0,0,2.41-.92l.45.71a4.21,4.21,0,0,1-2.94,1.09c-2.13,0-3.43-1.2-3.43-3.13a4.1,4.1,0,0,1,4.07-4.36,2.93,2.93,0,0,1,3.21,3.12,4.35,4.35,0,0,1-.1.9Zm.1-.74h5.25a1.27,1.27,0,0,0,0-.27,2.08,2.08,0,0,0-2.32-2.17A3,3,0,0,0,319.14,217.64Z"/><path class="f735337d-4d4e-4077-a52a-7f16a5fe5fc4" d="M340,216.75a5.18,5.18,0,0,1-.08.85l-.84,4.18h-1l.84-4.2a4.13,4.13,0,0,0,.07-.67c0-1-.63-1.65-1.9-1.65a2.87,2.87,0,0,0-3,2.57l-.79,3.95h-1l1.46-7.36h.95l-.24,1.17a3.64,3.64,0,0,1,2.89-1.23A2.31,2.31,0,0,1,340,216.75Z"/><path class="f735337d-4d4e-4077-a52a-7f16a5fe5fc4" d="M343.82,218.38c0,.1,0,.2,0,.29,0,1.47.84,2.3,2.53,2.3a3.34,3.34,0,0,0,2.41-.92l.45.71a4.21,4.21,0,0,1-2.94,1.09c-2.13,0-3.43-1.2-3.43-3.13a4.1,4.1,0,0,1,4.07-4.36,2.93,2.93,0,0,1,3.21,3.12,4.35,4.35,0,0,1-.1.9Zm.1-.74h5.25a1.27,1.27,0,0,0,0-.27,2.08,2.08,0,0,0-2.32-2.17A3,3,0,0,0,343.92,217.64Z"/><path class="f735337d-4d4e-4077-a52a-7f16a5fe5fc4" d="M364.6,214.42l-4.16,7.36h-1l-1.24-6-3.44,6h-1l-1.44-7.36h.91l1.19,6.24,3.56-6.24h.84l1.23,6.24,3.51-6.24Z"/><path class="f735337d-4d4e-4077-a52a-7f16a5fe5fc4" d="M371.93,219.56a4,4,0,0,0-.05.46c0,.63.35,1,1.06,1a1.9,1.9,0,0,0,1.14-.38l.23.76a2.71,2.71,0,0,1-1.64.47,1.61,1.61,0,0,1-1.79-1.68,2.83,2.83,0,0,1,.06-.57l.85-4.34h-1.3l.15-.84H372l.32-1.62h1l-.32,1.62h2.24l-.17.84h-2.24Z"/><path class="f735337d-4d4e-4077-a52a-7f16a5fe5fc4" d="M376.73,218.73a4.18,4.18,0,0,1,4.26-4.37,3,3,0,0,1,3.35,3.11,4.18,4.18,0,0,1-4.26,4.38A3,3,0,0,1,376.73,218.73Zm6.61-1.2a2.15,2.15,0,0,0-2.42-2.3,3.23,3.23,0,0,0-3.19,3.46,2.14,2.14,0,0,0,2.42,2.28A3.21,3.21,0,0,0,383.34,217.53Z"/><path class="f735337d-4d4e-4077-a52a-7f16a5fe5fc4" d="M391.28,218.73a4.18,4.18,0,0,1,4.26-4.37,3,3,0,0,1,3.35,3.11,4.18,4.18,0,0,1-4.26,4.38A3,3,0,0,1,391.28,218.73Zm6.61-1.2a2.15,2.15,0,0,0-2.42-2.3,3.23,3.23,0,0,0-3.2,3.46A2.15,2.15,0,0,0,394.7,221,3.22,3.22,0,0,0,397.89,217.53Z"/><path class="f735337d-4d4e-4077-a52a-7f16a5fe5fc4" d="M408.87,216.75a4.32,4.32,0,0,1-.09.85l-.84,4.18h-1l.84-4.2a4.13,4.13,0,0,0,.07-.67c0-1-.63-1.65-1.91-1.65a2.87,2.87,0,0,0-3,2.57l-.79,3.95h-1l1.45-7.36h1l-.24,1.17a3.62,3.62,0,0,1,2.88-1.23C407.9,214.36,408.87,215.26,408.87,216.75Z"/><path class="f735337d-4d4e-4077-a52a-7f16a5fe5fc4" d="M412.66,218.38a1.46,1.46,0,0,0,0,.29c0,1.47.84,2.3,2.54,2.3a3.35,3.35,0,0,0,2.41-.92l.45.71a4.22,4.22,0,0,1-2.94,1.09c-2.13,0-3.44-1.2-3.44-3.13a4.11,4.11,0,0,1,4.08-4.36,2.93,2.93,0,0,1,3.21,3.12,4.35,4.35,0,0,1-.1.9Zm.1-.74H418a2.53,2.53,0,0,0,0-.27,2.08,2.08,0,0,0-2.31-2.17A3,3,0,0,0,412.76,217.64Z"/><path class="f735337d-4d4e-4077-a52a-7f16a5fe5fc4" d="M425.17,221l.48-.79a4,4,0,0,0,2.55.82c1.41,0,2.18-.5,2.18-1.32,0-1.67-4.17-.52-4.17-3,0-1.4,1.26-2.3,3.19-2.3a4.5,4.5,0,0,1,2.5.69l-.42.79a3.73,3.73,0,0,0-2.16-.63c-1.36,0-2.13.55-2.13,1.35,0,1.71,4.17.54,4.17,3,0,1.45-1.3,2.29-3.26,2.29A4.69,4.69,0,0,1,425.17,221Z"/><path class="f735337d-4d4e-4077-a52a-7f16a5fe5fc4" d="M435.31,214.42h1l-1.45,7.36h-1Zm.25-2.27a.75.75,0,0,1,.77-.76.66.66,0,0,1,.69.63.76.76,0,0,1-.79.78A.65.65,0,0,1,435.56,212.15Z"/><path class="f735337d-4d4e-4077-a52a-7f16a5fe5fc4" d="M446.36,216.75a5.18,5.18,0,0,1-.08.85l-.85,4.18h-1l.84-4.2a4.13,4.13,0,0,0,.07-.67c0-1-.63-1.65-1.9-1.65a2.87,2.87,0,0,0-3,2.57l-.79,3.95h-1l1.46-7.36h.95l-.24,1.17a3.63,3.63,0,0,1,2.89-1.23A2.31,2.31,0,0,1,446.36,216.75Z"/><path class="f735337d-4d4e-4077-a52a-7f16a5fe5fc4" d="M457.52,214.42l-1.29,6.47c-.52,2.6-1.89,3.68-4.29,3.68a4.68,4.68,0,0,1-3.28-1.11l.59-.75a3.88,3.88,0,0,0,2.76,1,2.89,2.89,0,0,0,3.2-2.63l.16-.82a3.79,3.79,0,0,1-2.94,1.26c-1.94,0-3.25-1.13-3.25-3a4.07,4.07,0,0,1,4.2-4.17,2.84,2.84,0,0,1,2.88,1.68l.3-1.62Zm-1.68,3c0-1.34-.91-2.14-2.44-2.14a3.13,3.13,0,0,0-3.21,3.25c0,1.34.9,2.14,2.44,2.14A3.13,3.13,0,0,0,455.84,217.37Z"/><path class="f735337d-4d4e-4077-a52a-7f16a5fe5fc4" d="M462,211.39h1l-2.08,10.39h-1Z"/><path class="f735337d-4d4e-4077-a52a-7f16a5fe5fc4" d="M465.62,218.38a1.46,1.46,0,0,0,0,.29c0,1.47.85,2.3,2.54,2.3a3.35,3.35,0,0,0,2.41-.92l.45.71a4.21,4.21,0,0,1-2.94,1.09c-2.13,0-3.44-1.2-3.44-3.13a4.11,4.11,0,0,1,4.08-4.36,2.93,2.93,0,0,1,3.21,3.12,4.35,4.35,0,0,1-.1.9Zm.1-.74H471a2.53,2.53,0,0,0,0-.27,2.07,2.07,0,0,0-2.31-2.17A3,3,0,0,0,465.72,217.64Z"/><path class="f735337d-4d4e-4077-a52a-7f16a5fe5fc4" d="M133.12,231.22,129,238.58h-1l-1.24-6-3.44,6h-.95l-1.45-7.36h.91l1.19,6.24,3.56-6.24h.84l1.23,6.24,3.51-6.24Z"/><path class="f735337d-4d4e-4077-a52a-7f16a5fe5fc4" d="M133.86,235.53a4.18,4.18,0,0,1,4.26-4.37,3,3,0,0,1,3.34,3.11,4.18,4.18,0,0,1-4.25,4.38A3,3,0,0,1,133.86,235.53Zm6.61-1.2a2.15,2.15,0,0,0-2.42-2.3,3.23,3.23,0,0,0-3.2,3.46,2.15,2.15,0,0,0,2.43,2.28A3.22,3.22,0,0,0,140.47,234.33Z"/><path class="f735337d-4d4e-4077-a52a-7f16a5fe5fc4" d="M148.94,231.16l-.18,1-.28,0c-1.57,0-2.62.9-3,2.73l-.74,3.74h-1l1.45-7.36h.95l-.25,1.34A3.33,3.33,0,0,1,148.94,231.16Z"/><path class="f735337d-4d4e-4077-a52a-7f16a5fe5fc4" d="M159,228.19,157,238.58h-1l.24-1.16a3.77,3.77,0,0,1-2.87,1.23,3,3,0,0,1-3.21-3.12,4.14,4.14,0,0,1,4.16-4.37,2.77,2.77,0,0,1,2.8,1.6l.91-4.57Zm-2.26,6.14a2.15,2.15,0,0,0-2.42-2.3,3.23,3.23,0,0,0-3.2,3.46,2.15,2.15,0,0,0,2.43,2.28A3.22,3.22,0,0,0,156.78,234.33Z"/><path class="f735337d-4d4e-4077-a52a-7f16a5fe5fc4" d="M167,231.22h1l-1.46,7.36h-1Zm.26-2.27a.75.75,0,0,1,.77-.76.65.65,0,0,1,.68.63.76.76,0,0,1-.78.78A.65.65,0,0,1,167.21,229Z"/><path class="f735337d-4d4e-4077-a52a-7f16a5fe5fc4" d="M169.8,237.93a.78.78,0,0,1,.78-.8.69.69,0,0,1,.71.72.78.78,0,0,1-.77.8A.72.72,0,0,1,169.8,237.93Z"/><path class="f735337d-4d4e-4077-a52a-7f16a5fe5fc4" d="M175.05,235.18a1.46,1.46,0,0,0,0,.29c0,1.47.84,2.3,2.54,2.3a3.35,3.35,0,0,0,2.41-.92l.44.71a4.19,4.19,0,0,1-2.94,1.09c-2.13,0-3.43-1.2-3.43-3.13a4.1,4.1,0,0,1,4.08-4.36,2.93,2.93,0,0,1,3.21,3.12,5.16,5.16,0,0,1-.1.9Zm.09-.74h5.26a2.53,2.53,0,0,0,0-.27A2.08,2.08,0,0,0,178.1,232,3,3,0,0,0,175.14,234.44Z"/><path class="f735337d-4d4e-4077-a52a-7f16a5fe5fc4" d="M196,233.55a4.14,4.14,0,0,1-.09.84l-.84,4.19h-1l.84-4.2a4.13,4.13,0,0,0,.07-.67c0-1.05-.63-1.65-1.91-1.65a2.87,2.87,0,0,0-3,2.57l-.78,4h-1l1.45-7.36h.95l-.23,1.17a3.62,3.62,0,0,1,2.88-1.23C195.07,231.16,196,232.06,196,233.55Z"/><path class="f735337d-4d4e-4077-a52a-7f16a5fe5fc4" d="M199.83,235.18a1.46,1.46,0,0,0,0,.29c0,1.47.84,2.3,2.54,2.3a3.35,3.35,0,0,0,2.41-.92l.44.71a4.19,4.19,0,0,1-2.94,1.09c-2.13,0-3.43-1.2-3.43-3.13a4.1,4.1,0,0,1,4.08-4.36,2.94,2.94,0,0,1,3.21,3.12,5.16,5.16,0,0,1-.1.9Zm.09-.74h5.26a2.53,2.53,0,0,0,0-.27,2.08,2.08,0,0,0-2.31-2.17A3,3,0,0,0,199.92,234.44Z"/><path class="f735337d-4d4e-4077-a52a-7f16a5fe5fc4" d="M220.61,231.22l-4.16,7.36h-1l-1.23-6-3.45,6h-1l-1.44-7.36h.91l1.19,6.24,3.56-6.24h.84l1.23,6.24,3.5-6.24Z"/><path class="f735337d-4d4e-4077-a52a-7f16a5fe5fc4" d="M225.85,237.42l.5-.81a4.54,4.54,0,0,0,3.16,1.18c1.71,0,2.88-.71,2.88-1.94,0-2.25-5.1-1.12-5.1-4.2,0-1.85,1.64-3,3.93-3a5.33,5.33,0,0,1,3,.84l-.43.84a4.57,4.57,0,0,0-2.66-.79c-1.71,0-2.86.75-2.86,2,0,2.28,5.11,1.19,5.11,4.16,0,1.89-1.68,3-4,3A5.15,5.15,0,0,1,225.85,237.42Z"/><path class="f735337d-4d4e-4077-a52a-7f16a5fe5fc4" d="M236.24,234.59a5.73,5.73,0,0,1,6-5.9,4.12,4.12,0,0,1,3.48,1.43l-.72.65a3.45,3.45,0,0,0-2.85-1.15,4.74,4.74,0,0,0-4.86,4.92c0,1.91,1.25,3.2,3.64,3.2a4.26,4.26,0,0,0,3.11-1.16l.61.69a5.22,5.22,0,0,1-3.8,1.4C237.91,238.67,236.24,237,236.24,234.59Z"/><path class="f735337d-4d4e-4077-a52a-7f16a5fe5fc4" d="M257.47,228.78l-2,9.8h-1l.89-4.51h-6.13l-.9,4.51h-1l2-9.8h1l-.87,4.35h6.14l.87-4.35Z"/><path class="f735337d-4d4e-4077-a52a-7f16a5fe5fc4" d="M259.79,234.59a5.71,5.71,0,0,1,5.91-5.9c2.9,0,4.55,1.66,4.55,4.08a5.73,5.73,0,0,1-5.92,5.9C261.43,238.67,259.79,237,259.79,234.59Zm9.42-1.78c0-1.9-1.24-3.19-3.61-3.19a4.72,4.72,0,0,0-4.79,4.92c0,1.91,1.25,3.2,3.61,3.2A4.72,4.72,0,0,0,269.21,232.81Z"/><path class="f735337d-4d4e-4077-a52a-7f16a5fe5fc4" d="M272.58,234.59a5.72,5.72,0,0,1,5.91-5.9c2.9,0,4.56,1.66,4.56,4.08a5.73,5.73,0,0,1-5.93,5.9C274.22,238.67,272.58,237,272.58,234.59Zm9.43-1.78c0-1.9-1.25-3.19-3.61-3.19a4.72,4.72,0,0,0-4.79,4.92c0,1.91,1.24,3.2,3.61,3.2A4.72,4.72,0,0,0,282,232.81Z"/><path class="f735337d-4d4e-4077-a52a-7f16a5fe5fc4" d="M287.31,228.78h1l-1.77,8.91h5.49l-.19.89h-6.51Z"/><path class="f735337d-4d4e-4077-a52a-7f16a5fe5fc4" d="M300.13,237.85a1.38,1.38,0,0,1-.26.75l-1.07,2h-.67l.9-2.06a.7.7,0,0,1-.39-.64.78.78,0,0,1,.78-.8A.69.69,0,0,1,300.13,237.85Z"/><path class="f735337d-4d4e-4077-a52a-7f16a5fe5fc4" d="M316.15,234.27a4.15,4.15,0,0,1-4.17,4.38,2.74,2.74,0,0,1-2.82-1.68l-.32,1.61h-.95L310,228.19h1l-.83,4.13a3.74,3.74,0,0,1,2.8-1.16A3,3,0,0,1,316.15,234.27Zm-1,.06a2.16,2.16,0,0,0-2.43-2.3,3.22,3.22,0,0,0-3.18,3.46,2.15,2.15,0,0,0,2.43,2.28A3.21,3.21,0,0,0,315.15,234.33Z"/><path class="f735337d-4d4e-4077-a52a-7f16a5fe5fc4" d="M326.54,231.22l-1.47,7.36h-.95l.24-1.17a3.58,3.58,0,0,1-2.85,1.24,2.31,2.31,0,0,1-2.62-2.41,4,4,0,0,1,.09-.82l.84-4.2h1l-.84,4.2a4,4,0,0,0-.07.66c0,1.06.62,1.68,1.88,1.68a2.88,2.88,0,0,0,3-2.58l.79-4Z"/><path class="f735337d-4d4e-4077-a52a-7f16a5fe5fc4" d="M330.5,236.36a2.64,2.64,0,0,0-.06.46c0,.63.35,1,1.07,1a1.88,1.88,0,0,0,1.13-.38l.24.76a2.73,2.73,0,0,1-1.64.47,1.61,1.61,0,0,1-1.79-1.68,2.26,2.26,0,0,1,.06-.57l.85-4.34h-1.3l.15-.84h1.32l.32-1.62h1l-.32,1.62h2.24l-.16.84h-2.25Z"/><path class="f735337d-4d4e-4077-a52a-7f16a5fe5fc4" d="M341.81,231.22h1l-1.46,7.36h-1Zm.25-2.27a.76.76,0,0,1,.77-.76.66.66,0,0,1,.69.63.76.76,0,0,1-.78.78A.66.66,0,0,1,342.06,229Z"/><path class="f735337d-4d4e-4077-a52a-7f16a5fe5fc4" d="M357.58,233.55a5,5,0,0,1-.08.84l-.84,4.19h-1l.84-4.2a4.13,4.13,0,0,0,.07-.67c0-1.05-.63-1.65-1.9-1.65a2.87,2.87,0,0,0-3,2.57l-.79,4h-1L352,228.19h1l-.83,4.13a3.58,3.58,0,0,1,2.82-1.16A2.31,2.31,0,0,1,357.58,233.55Z"/><path class="f735337d-4d4e-4077-a52a-7f16a5fe5fc4" d="M368.64,231.22l-1.47,7.36h-.95l.23-1.16a3.77,3.77,0,0,1-2.87,1.23,3,3,0,0,1-3.21-3.12,4.15,4.15,0,0,1,4.17-4.37,2.76,2.76,0,0,1,2.8,1.6l.3-1.54ZM367,234.33a2.16,2.16,0,0,0-2.43-2.3,3.23,3.23,0,0,0-3.19,3.46,2.14,2.14,0,0,0,2.42,2.28A3.22,3.22,0,0,0,367,234.33Z"/><path class="f735337d-4d4e-4077-a52a-7f16a5fe5fc4" d="M378.65,231.22l-4.74,7.36h-1l-1.82-7.36h1l1.52,6.28,4-6.28Z"/><path class="f735337d-4d4e-4077-a52a-7f16a5fe5fc4" d="M380.34,235.18c0,.1,0,.2,0,.29,0,1.47.84,2.3,2.53,2.3a3.35,3.35,0,0,0,2.41-.92l.45.71a4.22,4.22,0,0,1-2.94,1.09c-2.13,0-3.44-1.2-3.44-3.13a4.11,4.11,0,0,1,4.08-4.36,2.93,2.93,0,0,1,3.21,3.12,4.35,4.35,0,0,1-.1.9Zm.1-.74h5.25a2.53,2.53,0,0,0,0-.27,2.07,2.07,0,0,0-2.31-2.17A3,3,0,0,0,380.44,234.44Z"/><path class="f735337d-4d4e-4077-a52a-7f16a5fe5fc4" d="M406.72,233.53a4.55,4.55,0,0,1-.1.86l-.84,4.19h-1l.84-4.2a3.51,3.51,0,0,0,.07-.69c0-1-.6-1.63-1.82-1.63a2.76,2.76,0,0,0-2.86,2.46l-.81,4.06h-1l.84-4.2a3.25,3.25,0,0,0,.07-.67c0-1.05-.58-1.65-1.82-1.65a2.81,2.81,0,0,0-2.88,2.57l-.79,4h-1l1.46-7.36h.95l-.24,1.17a3.45,3.45,0,0,1,2.79-1.23,2.31,2.31,0,0,1,2.41,1.47,3.73,3.73,0,0,1,3.11-1.47C405.78,231.16,406.72,232,406.72,233.53Z"/><path class="f735337d-4d4e-4077-a52a-7f16a5fe5fc4" d="M410.5,235.18a1.46,1.46,0,0,0,0,.29c0,1.47.84,2.3,2.54,2.3a3.35,3.35,0,0,0,2.41-.92l.44.71a4.19,4.19,0,0,1-2.94,1.09c-2.13,0-3.43-1.2-3.43-3.13a4.1,4.1,0,0,1,4.08-4.36,2.93,2.93,0,0,1,3.2,3.12,5.18,5.18,0,0,1-.09.9Zm.09-.74h5.26a2.53,2.53,0,0,0,0-.27,2.08,2.08,0,0,0-2.31-2.17A3,3,0,0,0,410.59,234.44Z"/><path class="f735337d-4d4e-4077-a52a-7f16a5fe5fc4" d="M426.77,233.55a4.14,4.14,0,0,1-.09.84l-.84,4.19h-1l.84-4.2a4.13,4.13,0,0,0,.07-.67c0-1.05-.63-1.65-1.91-1.65a2.86,2.86,0,0,0-3,2.57l-.79,4h-1l1.45-7.36h1l-.24,1.17a3.62,3.62,0,0,1,2.88-1.23C425.8,231.16,426.77,232.06,426.77,233.55Z"/><path class="f735337d-4d4e-4077-a52a-7f16a5fe5fc4" d="M431.2,236.36a2.58,2.58,0,0,0-.05.46c0,.63.35,1,1.06,1a1.85,1.85,0,0,0,1.13-.38l.24.76a2.73,2.73,0,0,1-1.64.47,1.61,1.61,0,0,1-1.79-1.68,2.26,2.26,0,0,1,.06-.57l.85-4.34h-1.3l.15-.84h1.32l.32-1.62h1l-.33,1.62h2.24l-.16.84h-2.24Z"/><path class="f735337d-4d4e-4077-a52a-7f16a5fe5fc4" d="M437.79,231.22h1l-1.46,7.36h-1Zm.26-2.27a.75.75,0,0,1,.77-.76.65.65,0,0,1,.68.63.76.76,0,0,1-.78.78A.65.65,0,0,1,438.05,229Z"/><path class="f735337d-4d4e-4077-a52a-7f16a5fe5fc4" d="M441.08,235.53a4.18,4.18,0,0,1,4.26-4.37,3,3,0,0,1,3.35,3.11,4.18,4.18,0,0,1-4.26,4.38A3,3,0,0,1,441.08,235.53Zm6.62-1.2a2.16,2.16,0,0,0-2.43-2.3,3.23,3.23,0,0,0-3.19,3.46,2.14,2.14,0,0,0,2.42,2.28A3.22,3.22,0,0,0,447.7,234.33Z"/><path class="f735337d-4d4e-4077-a52a-7f16a5fe5fc4" d="M458.67,233.55a5,5,0,0,1-.08.84l-.84,4.19h-1l.84-4.2a3.25,3.25,0,0,0,.07-.67c0-1.05-.63-1.65-1.9-1.65a2.87,2.87,0,0,0-3,2.57l-.78,4h-1l1.46-7.36h.95l-.24,1.17a3.66,3.66,0,0,1,2.89-1.23C457.71,231.16,458.67,232.06,458.67,233.55Z"/><path class="f735337d-4d4e-4077-a52a-7f16a5fe5fc4" d="M462.46,235.18c0,.1,0,.2,0,.29,0,1.47.84,2.3,2.53,2.3a3.34,3.34,0,0,0,2.41-.92l.45.71a4.21,4.21,0,0,1-2.94,1.09c-2.13,0-3.43-1.2-3.43-3.13a4.1,4.1,0,0,1,4.07-4.36,2.93,2.93,0,0,1,3.21,3.12,4.35,4.35,0,0,1-.1.9Zm.1-.74h5.25a1.27,1.27,0,0,0,0-.27,2.08,2.08,0,0,0-2.31-2.17A3,3,0,0,0,462.56,234.44Z"/><path class="f735337d-4d4e-4077-a52a-7f16a5fe5fc4" d="M479.84,228.19l-2.07,10.39h-1l.24-1.16a3.77,3.77,0,0,1-2.87,1.23,3,3,0,0,1-3.21-3.12,4.15,4.15,0,0,1,4.16-4.37,2.77,2.77,0,0,1,2.8,1.6l.92-4.57Zm-2.26,6.14a2.15,2.15,0,0,0-2.42-2.3,3.23,3.23,0,0,0-3.19,3.46,2.14,2.14,0,0,0,2.42,2.28A3.21,3.21,0,0,0,477.58,234.33Z"/><path class="f735337d-4d4e-4077-a52a-7f16a5fe5fc4" d="M123.83,248h1l-1.46,7.36h-1Zm.26-2.27a.75.75,0,0,1,.77-.76.65.65,0,0,1,.68.63.76.76,0,0,1-.78.78A.65.65,0,0,1,124.09,245.75Z"/><path class="f735337d-4d4e-4077-a52a-7f16a5fe5fc4" d="M128.79,253.16a2.58,2.58,0,0,0,0,.46c0,.63.34,1,1.06,1a1.85,1.85,0,0,0,1.13-.38l.24.76a2.73,2.73,0,0,1-1.64.47,1.61,1.61,0,0,1-1.79-1.68,2.26,2.26,0,0,1,.06-.57l.85-4.34h-1.3l.15-.84h1.32l.32-1.62h1l-.33,1.62h2.24l-.16.84h-2.24Z"/><path class="f735337d-4d4e-4077-a52a-7f16a5fe5fc4" d="M147.44,245l-2.07,10.39h-1l.24-1.16a3.79,3.79,0,0,1-2.88,1.23,3,3,0,0,1-3.2-3.12,4.14,4.14,0,0,1,4.16-4.37,2.77,2.77,0,0,1,2.8,1.6l.91-4.57Zm-2.25,6.14a2.16,2.16,0,0,0-2.43-2.3,3.24,3.24,0,0,0-3.19,3.46,2.14,2.14,0,0,0,2.42,2.28A3.22,3.22,0,0,0,145.19,251.13Z"/><path class="f735337d-4d4e-4077-a52a-7f16a5fe5fc4" d="M150.64,248h1l-1.46,7.36h-1Zm.26-2.27a.75.75,0,0,1,.77-.76.65.65,0,0,1,.68.63.76.76,0,0,1-.78.78A.65.65,0,0,1,150.9,245.75Z"/><path class="f735337d-4d4e-4077-a52a-7f16a5fe5fc4" d="M156.78,247.2l-.17.82h2.25l-.16.84h-2.23l-1.3,6.52h-1l1.3-6.52h-1.31l.15-.84h1.33l.19-.93a2.41,2.41,0,0,1,2.52-2.17,2.23,2.23,0,0,1,1.48.48l-.43.72a1.59,1.59,0,0,0-1.05-.36C157.48,245.76,157,246.21,156.78,247.2Z"/><path class="f735337d-4d4e-4077-a52a-7f16a5fe5fc4" d="M162.57,247.2l-.16.82h2.25l-.17.84h-2.23l-1.3,6.52h-1l1.3-6.52H160l.16-.84h1.33l.18-.93a2.41,2.41,0,0,1,2.52-2.17,2.26,2.26,0,0,1,1.49.48l-.44.72a1.57,1.57,0,0,0-1.05-.36C163.27,245.76,162.78,246.21,162.57,247.2Z"/><path class="f735337d-4d4e-4077-a52a-7f16a5fe5fc4" d="M166.39,252c0,.1,0,.2,0,.29,0,1.47.84,2.3,2.53,2.3a3.36,3.36,0,0,0,2.42-.92l.44.71a4.19,4.19,0,0,1-2.94,1.09c-2.13,0-3.43-1.2-3.43-3.13a4.1,4.1,0,0,1,4.08-4.36,2.93,2.93,0,0,1,3.2,3.12,5.18,5.18,0,0,1-.09.9Zm.1-.74h5.26a2.53,2.53,0,0,0,0-.27,2.08,2.08,0,0,0-2.31-2.17A3,3,0,0,0,166.49,251.24Z"/><path class="f735337d-4d4e-4077-a52a-7f16a5fe5fc4" d="M180.16,248l-.18,1-.28,0c-1.57,0-2.62.9-3,2.73l-.74,3.74h-1l1.45-7.36h.95l-.25,1.34A3.33,3.33,0,0,1,180.16,248Z"/><path class="f735337d-4d4e-4077-a52a-7f16a5fe5fc4" d="M182.38,252c0,.1,0,.2,0,.29,0,1.47.84,2.3,2.53,2.3a3.34,3.34,0,0,0,2.41-.92l.45.71a4.19,4.19,0,0,1-2.94,1.09c-2.13,0-3.43-1.2-3.43-3.13a4.1,4.1,0,0,1,4.07-4.36,2.93,2.93,0,0,1,3.21,3.12,4.35,4.35,0,0,1-.1.9Zm.1-.74h5.25a1.27,1.27,0,0,0,0-.27,2.08,2.08,0,0,0-2.31-2.17A3,3,0,0,0,182.48,251.24Z"/><path class="f735337d-4d4e-4077-a52a-7f16a5fe5fc4" d="M198.65,250.35a4.27,4.27,0,0,1-.08.85l-.84,4.18h-1l.85-4.2a4.13,4.13,0,0,0,.07-.67c0-1-.64-1.65-1.91-1.65a2.87,2.87,0,0,0-3,2.57l-.78,3.95h-1l1.46-7.36h1l-.24,1.17A3.66,3.66,0,0,1,196,248C197.69,248,198.65,248.86,198.65,250.35Z"/><path class="f735337d-4d4e-4077-a52a-7f16a5fe5fc4" d="M203.09,253.16a2.64,2.64,0,0,0-.06.46c0,.63.35,1,1.07,1a1.88,1.88,0,0,0,1.13-.38l.24.76a2.73,2.73,0,0,1-1.64.47,1.6,1.6,0,0,1-1.79-1.68,2.81,2.81,0,0,1,.05-.57l.86-4.34h-1.3l.15-.84h1.32l.32-1.62h1l-.32,1.62h2.24l-.17.84h-2.24Z"/><path class="f735337d-4d4e-4077-a52a-7f16a5fe5fc4" d="M210.3,245h1l-2.07,10.39h-1Z"/><path class="f735337d-4d4e-4077-a52a-7f16a5fe5fc4" d="M220.7,248l-5.38,8.32c-.91,1.4-1.59,1.83-2.66,1.83a2.41,2.41,0,0,1-1.75-.66l.53-.73a1.74,1.74,0,0,0,1.31.54c.63,0,1.12-.3,1.69-1.19l.52-.79L213.12,248h1l1.53,6.27,4-6.27Z"/><path class="f735337d-4d4e-4077-a52a-7f16a5fe5fc4" d="M234.59,248l-1.47,7.36h-1l.24-1.16a3.78,3.78,0,0,1-2.88,1.23,3,3,0,0,1-3.2-3.12,4.14,4.14,0,0,1,4.16-4.37,2.76,2.76,0,0,1,2.8,1.6l.31-1.54Zm-1.65,3.11a2.16,2.16,0,0,0-2.43-2.3,3.24,3.24,0,0,0-3.19,3.46,2.15,2.15,0,0,0,2.43,2.28A3.22,3.22,0,0,0,232.94,251.13Z"/><path class="f735337d-4d4e-4077-a52a-7f16a5fe5fc4" d="M236.15,254.56l.48-.79a4,4,0,0,0,2.55.82c1.41,0,2.19-.49,2.19-1.32,0-1.67-4.18-.52-4.18-3,0-1.4,1.26-2.3,3.19-2.3a4.5,4.5,0,0,1,2.5.69l-.42.79a3.73,3.73,0,0,0-2.16-.63c-1.36,0-2.13.55-2.13,1.35,0,1.71,4.18.54,4.18,3,0,1.45-1.31,2.29-3.27,2.29A4.69,4.69,0,0,1,236.15,254.56Z"/><path class="f735337d-4d4e-4077-a52a-7f16a5fe5fc4" d="M257.21,248l-5.37,8.32c-.92,1.4-1.6,1.83-2.67,1.83a2.41,2.41,0,0,1-1.75-.66l.54-.73a1.7,1.7,0,0,0,1.3.54c.63,0,1.12-.3,1.69-1.19l.52-.79L249.64,248h1l1.52,6.27,4-6.27Z"/><path class="f735337d-4d4e-4077-a52a-7f16a5fe5fc4" d="M257.91,252.33a4.18,4.18,0,0,1,4.26-4.37,3,3,0,0,1,3.35,3.11,4.18,4.18,0,0,1-4.26,4.38A3,3,0,0,1,257.91,252.33Zm6.61-1.2a2.15,2.15,0,0,0-2.42-2.3,3.23,3.23,0,0,0-3.19,3.46,2.14,2.14,0,0,0,2.42,2.28A3.22,3.22,0,0,0,264.52,251.13Z"/><path class="f735337d-4d4e-4077-a52a-7f16a5fe5fc4" d="M275.92,248l-1.47,7.36h-.95l.23-1.17a3.56,3.56,0,0,1-2.84,1.24,2.31,2.31,0,0,1-2.62-2.41,4.83,4.83,0,0,1,.08-.82l.85-4.2h1l-.84,4.2a4,4,0,0,0-.07.66c0,1.06.62,1.68,1.88,1.68a2.88,2.88,0,0,0,3-2.58l.78-4Z"/><path class="f735337d-4d4e-4077-a52a-7f16a5fe5fc4" d="M290.69,250.35a4.32,4.32,0,0,1-.09.85l-.84,4.18h-1l.84-4.2a4.13,4.13,0,0,0,.07-.67c0-1-.63-1.65-1.9-1.65a2.87,2.87,0,0,0-3,2.57l-.79,3.95h-1L285.07,245h1l-.83,4.13a3.58,3.58,0,0,1,2.82-1.16A2.31,2.31,0,0,1,290.69,250.35Z"/><path class="f735337d-4d4e-4077-a52a-7f16a5fe5fc4" d="M301.75,248l-1.47,7.36h-.95l.23-1.16a3.77,3.77,0,0,1-2.87,1.23,3,3,0,0,1-3.21-3.12,4.15,4.15,0,0,1,4.16-4.37,2.76,2.76,0,0,1,2.81,1.6l.3-1.54Zm-1.65,3.11a2.16,2.16,0,0,0-2.43-2.3,3.24,3.24,0,0,0-3.19,3.46,2.14,2.14,0,0,0,2.42,2.28A3.22,3.22,0,0,0,300.1,251.13Z"/><path class="f735337d-4d4e-4077-a52a-7f16a5fe5fc4" d="M311.76,248,307,255.38h-1L304.18,248h1l1.53,6.29,4-6.29Z"/><path class="f735337d-4d4e-4077-a52a-7f16a5fe5fc4" d="M313.45,252a1.46,1.46,0,0,0,0,.29c0,1.47.84,2.3,2.54,2.3a3.35,3.35,0,0,0,2.41-.92l.45.71a4.22,4.22,0,0,1-2.94,1.09c-2.13,0-3.44-1.2-3.44-3.13a4.11,4.11,0,0,1,4.08-4.36,2.93,2.93,0,0,1,3.21,3.12,4.35,4.35,0,0,1-.1.9Zm.1-.74h5.25a2.53,2.53,0,0,0,0-.27,2.08,2.08,0,0,0-2.31-2.17A3,3,0,0,0,313.55,251.24Z"/><path class="f735337d-4d4e-4077-a52a-7f16a5fe5fc4" d="M326,254.56l.48-.79a4,4,0,0,0,2.55.82c1.41,0,2.18-.49,2.18-1.32,0-1.67-4.17-.52-4.17-3,0-1.4,1.26-2.3,3.19-2.3a4.5,4.5,0,0,1,2.5.69l-.42.79a3.73,3.73,0,0,0-2.16-.63c-1.36,0-2.13.55-2.13,1.35,0,1.71,4.18.54,4.18,3,0,1.45-1.31,2.29-3.27,2.29A4.69,4.69,0,0,1,326,254.56Z"/><path class="f735337d-4d4e-4077-a52a-7f16a5fe5fc4" d="M342.75,248l-1.47,7.36h-.95l.24-1.17a3.57,3.57,0,0,1-2.84,1.24,2.3,2.3,0,0,1-2.62-2.41,4,4,0,0,1,.08-.82L336,248h1l-.84,4.2a4,4,0,0,0-.07.66c0,1.06.62,1.68,1.88,1.68a2.89,2.89,0,0,0,3-2.58l.78-4Z"/><path class="f735337d-4d4e-4077-a52a-7f16a5fe5fc4" d="M353.38,251.07a4.15,4.15,0,0,1-4.17,4.38,2.76,2.76,0,0,1-2.81-1.61l-.84,4.26h-1l2-10.08h.95l-.23,1.17a3.74,3.74,0,0,1,2.87-1.23A3,3,0,0,1,353.38,251.07Zm-1,.06a2.15,2.15,0,0,0-2.42-2.3,3.21,3.21,0,0,0-3.18,3.46,2.14,2.14,0,0,0,2.42,2.28A3.21,3.21,0,0,0,352.37,251.13Z"/><path class="f735337d-4d4e-4077-a52a-7f16a5fe5fc4" d="M363.92,251.07a4.15,4.15,0,0,1-4.17,4.38,2.75,2.75,0,0,1-2.8-1.61l-.84,4.26h-1l2-10.08h1l-.24,1.17A3.74,3.74,0,0,1,360.7,248,3,3,0,0,1,363.92,251.07Zm-1,.06a2.15,2.15,0,0,0-2.42-2.3,3.22,3.22,0,0,0-3.18,3.46,2.14,2.14,0,0,0,2.42,2.28A3.21,3.21,0,0,0,362.91,251.13Z"/><path class="f735337d-4d4e-4077-a52a-7f16a5fe5fc4" d="M366.13,252.33a4.18,4.18,0,0,1,4.26-4.37,3,3,0,0,1,3.35,3.11,4.18,4.18,0,0,1-4.26,4.38A3,3,0,0,1,366.13,252.33Zm6.61-1.2a2.15,2.15,0,0,0-2.42-2.3,3.24,3.24,0,0,0-3.2,3.46,2.15,2.15,0,0,0,2.43,2.28A3.22,3.22,0,0,0,372.74,251.13Z"/><path class="f735337d-4d4e-4077-a52a-7f16a5fe5fc4" d="M381.21,248l-.18,1-.28,0c-1.57,0-2.62.9-3,2.73l-.74,3.74h-1l1.45-7.36h1l-.26,1.34A3.33,3.33,0,0,1,381.21,248Z"/><path class="f735337d-4d4e-4077-a52a-7f16a5fe5fc4" d="M384.5,253.16a2.64,2.64,0,0,0-.06.46c0,.63.35,1,1.07,1a1.88,1.88,0,0,0,1.13-.38l.24.76a2.73,2.73,0,0,1-1.64.47,1.6,1.6,0,0,1-1.79-1.68,2.81,2.81,0,0,1,.05-.57l.86-4.34h-1.3l.15-.84h1.32l.32-1.62h1l-.32,1.62h2.24l-.17.84h-2.24Z"/><path class="f735337d-4d4e-4077-a52a-7f16a5fe5fc4" d="M390.29,252c0,.1,0,.2,0,.29,0,1.47.84,2.3,2.54,2.3a3.31,3.31,0,0,0,2.4-.92l.45.71a4.19,4.19,0,0,1-2.94,1.09c-2.13,0-3.43-1.2-3.43-3.13a4.1,4.1,0,0,1,4.08-4.36,2.93,2.93,0,0,1,3.2,3.12,5.18,5.18,0,0,1-.09.9Zm.1-.74h5.25a1.27,1.27,0,0,0,0-.27,2.08,2.08,0,0,0-2.31-2.17A3,3,0,0,0,390.39,251.24Z"/><path class="f735337d-4d4e-4077-a52a-7f16a5fe5fc4" d="M407.67,245l-2.07,10.39h-1l.23-1.16a3.77,3.77,0,0,1-2.87,1.23,3,3,0,0,1-3.2-3.12A4.14,4.14,0,0,1,403,248a2.77,2.77,0,0,1,2.8,1.6l.91-4.57Zm-2.25,6.14a2.16,2.16,0,0,0-2.43-2.3,3.24,3.24,0,0,0-3.19,3.46,2.14,2.14,0,0,0,2.42,2.28A3.22,3.22,0,0,0,405.42,251.13Z"/><path class="f735337d-4d4e-4077-a52a-7f16a5fe5fc4" d="M421.83,250.35a4.32,4.32,0,0,1-.09.85l-.84,4.18h-1l.84-4.2a4.13,4.13,0,0,0,.07-.67c0-1-.63-1.65-1.91-1.65a2.87,2.87,0,0,0-3,2.57l-.78,3.95h-1L416.21,245h1l-.82,4.13a3.58,3.58,0,0,1,2.81-1.16C420.86,248,421.83,248.86,421.83,250.35Z"/><path class="f735337d-4d4e-4077-a52a-7f16a5fe5fc4" d="M425.62,252a1.46,1.46,0,0,0,0,.29c0,1.47.84,2.3,2.54,2.3a3.35,3.35,0,0,0,2.41-.92l.44.71a4.19,4.19,0,0,1-2.94,1.09c-2.13,0-3.43-1.2-3.43-3.13A4.1,4.1,0,0,1,428.7,248a2.94,2.94,0,0,1,3.21,3.12,5.16,5.16,0,0,1-.1.9Zm.09-.74H431a2.53,2.53,0,0,0,0-.27,2.08,2.08,0,0,0-2.31-2.17A3,3,0,0,0,425.71,251.24Z"/><path class="f735337d-4d4e-4077-a52a-7f16a5fe5fc4" d="M439.38,248l-.18,1-.28,0c-1.57,0-2.62.9-3,2.73l-.74,3.74h-1l1.45-7.36h1l-.26,1.34A3.33,3.33,0,0,1,439.38,248Z"/><path class="f735337d-4d4e-4077-a52a-7f16a5fe5fc4" d="M444.79,254.56l.48-.79a4,4,0,0,0,2.55.82c1.41,0,2.18-.49,2.18-1.32,0-1.67-4.17-.52-4.17-3,0-1.4,1.26-2.3,3.19-2.3a4.5,4.5,0,0,1,2.5.69l-.42.79a3.73,3.73,0,0,0-2.16-.63c-1.36,0-2.13.55-2.13,1.35,0,1.71,4.18.54,4.18,3,0,1.45-1.31,2.29-3.27,2.29A4.69,4.69,0,0,1,444.79,254.56Z"/><path class="f735337d-4d4e-4077-a52a-7f16a5fe5fc4" d="M455.07,253.16a2.58,2.58,0,0,0-.05.46c0,.63.35,1,1.06,1a1.85,1.85,0,0,0,1.13-.38l.24.76a2.73,2.73,0,0,1-1.64.47,1.61,1.61,0,0,1-1.79-1.68,2.83,2.83,0,0,1,.06-.57l.85-4.34h-1.3l.15-.84h1.32l.32-1.62h1l-.33,1.62h2.24l-.16.84h-2.24Z"/><path class="f735337d-4d4e-4077-a52a-7f16a5fe5fc4" d="M460.87,252a1.46,1.46,0,0,0,0,.29c0,1.47.84,2.3,2.54,2.3a3.35,3.35,0,0,0,2.41-.92l.45.71a4.23,4.23,0,0,1-2.95,1.09c-2.13,0-3.43-1.2-3.43-3.13A4.1,4.1,0,0,1,464,248a2.93,2.93,0,0,1,3.21,3.12,5.16,5.16,0,0,1-.1.9Zm.09-.74h5.26a2.53,2.53,0,0,0,0-.27,2.08,2.08,0,0,0-2.31-2.17A3,3,0,0,0,461,251.24Z"/><path class="f735337d-4d4e-4077-a52a-7f16a5fe5fc4" d="M477.71,251.07a4.15,4.15,0,0,1-4.17,4.38,2.75,2.75,0,0,1-2.8-1.61l-.84,4.26h-1l2-10.08h.95l-.24,1.17a3.74,3.74,0,0,1,2.87-1.23A3,3,0,0,1,477.71,251.07Zm-1,.06a2.15,2.15,0,0,0-2.42-2.3,3.22,3.22,0,0,0-3.18,3.46,2.14,2.14,0,0,0,2.42,2.28A3.21,3.21,0,0,0,476.7,251.13Z"/><path class="f735337d-4d4e-4077-a52a-7f16a5fe5fc4" d="M224.51,267.87a4.15,4.15,0,0,1-4.17,4.38,2.74,2.74,0,0,1-2.82-1.68l-.32,1.61h-.95l2.07-10.39h1l-.82,4.13a3.72,3.72,0,0,1,2.8-1.16A3,3,0,0,1,224.51,267.87Zm-1,.06a2.15,2.15,0,0,0-2.42-2.3,3.22,3.22,0,0,0-3.18,3.46,2.14,2.14,0,0,0,2.42,2.28A3.21,3.21,0,0,0,223.5,267.93Z"/><path class="f735337d-4d4e-4077-a52a-7f16a5fe5fc4" d="M234.24,264.82l-5.38,8.32c-.91,1.4-1.59,1.83-2.66,1.83a2.38,2.38,0,0,1-1.75-.66l.53-.73a1.71,1.71,0,0,0,1.31.54c.62,0,1.12-.3,1.69-1.19l.52-.79-1.84-7.32h1l1.53,6.27,4-6.27Z"/><path class="f735337d-4d4e-4077-a52a-7f16a5fe5fc4" d="M239.15,271.36l.48-.79a4,4,0,0,0,2.55.82c1.41,0,2.18-.5,2.18-1.32,0-1.67-4.17-.52-4.17-3,0-1.4,1.26-2.3,3.19-2.3a4.47,4.47,0,0,1,2.49.69l-.42.79a3.7,3.7,0,0,0-2.15-.63c-1.36,0-2.13.55-2.13,1.35,0,1.71,4.17.54,4.17,3,0,1.45-1.3,2.29-3.26,2.29A4.65,4.65,0,0,1,239.15,271.36Z"/><path class="f735337d-4d4e-4077-a52a-7f16a5fe5fc4" d="M249.43,270a2.64,2.64,0,0,0-.06.46c0,.63.35,1,1.07,1a1.9,1.9,0,0,0,1.13-.38l.24.76a2.73,2.73,0,0,1-1.64.47,1.6,1.6,0,0,1-1.79-1.68,2.81,2.81,0,0,1,.05-.57l.86-4.34H248l.15-.84h1.32l.32-1.62h1l-.32,1.62h2.24l-.17.84h-2.24Z"/><path class="f735337d-4d4e-4077-a52a-7f16a5fe5fc4" d="M255.22,268.78c0,.1,0,.2,0,.29,0,1.47.84,2.3,2.53,2.3a3.34,3.34,0,0,0,2.41-.92l.45.71a4.21,4.21,0,0,1-2.94,1.09c-2.13,0-3.43-1.2-3.43-3.13a4.1,4.1,0,0,1,4.07-4.36,2.93,2.93,0,0,1,3.21,3.12,4.35,4.35,0,0,1-.1.9Zm.1-.74h5.25a1.27,1.27,0,0,0,0-.27,2.08,2.08,0,0,0-2.31-2.17A3,3,0,0,0,255.32,268Z"/><path class="f735337d-4d4e-4077-a52a-7f16a5fe5fc4" d="M272.07,267.87a4.15,4.15,0,0,1-4.18,4.38,2.75,2.75,0,0,1-2.8-1.61l-.84,4.26h-1l2-10.08h.95L266,266a3.74,3.74,0,0,1,2.87-1.23A3,3,0,0,1,272.07,267.87Zm-1,.06a2.15,2.15,0,0,0-2.42-2.3,3.21,3.21,0,0,0-3.18,3.46,2.14,2.14,0,0,0,2.42,2.28A3.21,3.21,0,0,0,271.06,267.93Z"/><path class="f735337d-4d4e-4077-a52a-7f16a5fe5fc4" d="M287.26,264.82l-1.47,7.36h-1l.24-1.16a3.77,3.77,0,0,1-2.87,1.23,3,3,0,0,1-3.21-3.12,4.15,4.15,0,0,1,4.16-4.37,2.76,2.76,0,0,1,2.81,1.6l.3-1.54Zm-1.65,3.11a2.16,2.16,0,0,0-2.43-2.3,3.23,3.23,0,0,0-3.19,3.46,2.14,2.14,0,0,0,2.42,2.28A3.22,3.22,0,0,0,285.61,267.93Z"/><path class="f735337d-4d4e-4077-a52a-7f16a5fe5fc4" d="M291.2,270a2.58,2.58,0,0,0-.05.46c0,.63.35,1,1.06,1a1.9,1.9,0,0,0,1.14-.38l.23.76a2.7,2.7,0,0,1-1.63.47,1.61,1.61,0,0,1-1.8-1.68,2.83,2.83,0,0,1,.06-.57l.85-4.34h-1.3l.15-.84h1.32l.32-1.62h1l-.32,1.62h2.24l-.17.84h-2.24Z"/><path class="f735337d-4d4e-4077-a52a-7f16a5fe5fc4" d="M302,268.78c0,.1,0,.2,0,.29,0,1.47.84,2.3,2.53,2.3a3.34,3.34,0,0,0,2.41-.92l.45.71a4.21,4.21,0,0,1-2.94,1.09c-2.13,0-3.43-1.2-3.43-3.13a4.1,4.1,0,0,1,4.07-4.36,2.93,2.93,0,0,1,3.21,3.12,4.35,4.35,0,0,1-.1.9Zm.1-.74h5.25a1.27,1.27,0,0,0,0-.27A2.08,2.08,0,0,0,305,265.6,3,3,0,0,0,302.08,268Z"/><path class="f735337d-4d4e-4077-a52a-7f16a5fe5fc4" d="M318.76,264.82l-1.47,7.36h-1l.24-1.16a3.77,3.77,0,0,1-2.87,1.23,3,3,0,0,1-3.21-3.12,4.15,4.15,0,0,1,4.16-4.37,2.76,2.76,0,0,1,2.81,1.6l.3-1.54Zm-1.65,3.11a2.16,2.16,0,0,0-2.43-2.3,3.23,3.23,0,0,0-3.19,3.46,2.14,2.14,0,0,0,2.42,2.28A3.22,3.22,0,0,0,317.11,267.93Z"/><path class="f735337d-4d4e-4077-a52a-7f16a5fe5fc4" d="M321,269.13a4.17,4.17,0,0,1,4.28-4.37,3.07,3.07,0,0,1,2.9,1.47l-.84.49a2.26,2.26,0,0,0-2.14-1.09,3.24,3.24,0,0,0-3.21,3.46,2.15,2.15,0,0,0,2.45,2.28,2.87,2.87,0,0,0,2.33-1.06l.71.54a3.8,3.8,0,0,1-3.08,1.4C322.34,272.25,321,271,321,269.13Z"/><path class="f735337d-4d4e-4077-a52a-7f16a5fe5fc4" d="M337.62,267.15a4.14,4.14,0,0,1-.09.84l-.84,4.19h-1l.84-4.2a4.13,4.13,0,0,0,.07-.67c0-1.05-.63-1.65-1.91-1.65a2.87,2.87,0,0,0-3,2.57l-.78,3.95h-1L332,261.79h1l-.82,4.13a3.58,3.58,0,0,1,2.81-1.16C336.65,264.76,337.62,265.66,337.62,267.15Z"/><path class="f735337d-4d4e-4077-a52a-7f16a5fe5fc4" d="M347.25,261.79h1l-2.07,10.39h-1Z"/><path class="f735337d-4d4e-4077-a52a-7f16a5fe5fc4" d="M350.91,268.78c0,.1,0,.2,0,.29,0,1.47.84,2.3,2.53,2.3a3.34,3.34,0,0,0,2.41-.92l.45.71a4.21,4.21,0,0,1-2.94,1.09c-2.13,0-3.43-1.2-3.43-3.13a4.1,4.1,0,0,1,4.07-4.36,2.93,2.93,0,0,1,3.21,3.12,4.35,4.35,0,0,1-.1.9Zm.1-.74h5.25a1.27,1.27,0,0,0,0-.27A2.08,2.08,0,0,0,354,265.6,3,3,0,0,0,351,268Z"/><path class="f735337d-4d4e-4077-a52a-7f16a5fe5fc4" d="M367,264.82l-4.74,7.36h-1l-1.82-7.36h1L362,271.1l4-6.28Z"/><path class="f735337d-4d4e-4077-a52a-7f16a5fe5fc4" d="M368.71,268.78a1.46,1.46,0,0,0,0,.29c0,1.47.84,2.3,2.54,2.3a3.35,3.35,0,0,0,2.41-.92l.44.71a4.19,4.19,0,0,1-2.94,1.09c-2.13,0-3.43-1.2-3.43-3.13a4.1,4.1,0,0,1,4.08-4.36,2.94,2.94,0,0,1,3.21,3.12,5.16,5.16,0,0,1-.1.9Zm.09-.74h5.26a2.53,2.53,0,0,0,0-.27,2.08,2.08,0,0,0-2.31-2.17A3,3,0,0,0,368.8,268Z"/><path class="f735337d-4d4e-4077-a52a-7f16a5fe5fc4" d="M379.36,261.79h1l-2.07,10.39h-1Z"/><path class="f735337d-4d4e-4077-a52a-7f16a5fe5fc4" d="M381.58,271.53a.79.79,0,0,1,.79-.8.7.7,0,0,1,.71.72.78.78,0,0,1-.77.8A.73.73,0,0,1,381.58,271.53Z"/><path class="f735337d-4d4e-4077-a52a-7f16a5fe5fc4" d="M250.37,346.1l0-8.35-4.14,6.91h-1l-4.14-6.8v8.24h-2.24V333.5h1.93l5,8.35,4.91-8.35h1.93l0,12.6Z"/><path class="f735337d-4d4e-4077-a52a-7f16a5fe5fc4" d="M255.88,341.3a5.12,5.12,0,1,1,5.11,4.93A4.84,4.84,0,0,1,255.88,341.3Zm8,0a2.86,2.86,0,1,0-2.86,3A2.8,2.8,0,0,0,263.85,341.3Z"/><path class="f735337d-4d4e-4077-a52a-7f16a5fe5fc4" d="M278.65,340.59v5.51H276.4v-5.22c0-1.71-.85-2.54-2.29-2.54-1.6,0-2.68,1-2.68,2.9v4.86h-2.25V332.74h2.25v4.86a4.29,4.29,0,0,1,3.2-1.22C276.94,336.38,278.65,337.69,278.65,340.59Z"/><path class="f735337d-4d4e-4077-a52a-7f16a5fe5fc4" d="M282.1,333.55a1.37,1.37,0,0,1,1.44-1.35,1.34,1.34,0,0,1,1.44,1.3,1.44,1.44,0,0,1-2.88.05Zm.31,2.94h2.25v9.61h-2.25Z"/><path class="f735337d-4d4e-4077-a52a-7f16a5fe5fc4" d="M294.29,345.58a3.55,3.55,0,0,1-2.16.65c-2.11,0-3.31-1.12-3.31-3.24v-4.63h-1.59v-1.8h1.59v-2.2h2.25v2.2h2.57v1.8h-2.57v4.57c0,.94.46,1.44,1.33,1.44a2,2,0,0,0,1.26-.39Z"/><path class="f735337d-4d4e-4077-a52a-7f16a5fe5fc4" d="M311.73,339.66H314v5a8,8,0,0,1-4.94,1.6,6.44,6.44,0,0,1-6.79-6.48c0-3.76,2.89-6.48,6.83-6.48a6.51,6.51,0,0,1,5.06,2.05l-1.48,1.44a4.67,4.67,0,0,0-3.47-1.44,4.43,4.43,0,1,0,0,8.86,5.06,5.06,0,0,0,2.59-.65Z"/><path class="f735337d-4d4e-4077-a52a-7f16a5fe5fc4" d="M327,336.49v9.61h-2.14v-1.22a3.93,3.93,0,0,1-3.1,1.35c-2.46,0-4.14-1.35-4.14-4.25v-5.49h2.25v5.18c0,1.75.83,2.58,2.25,2.58s2.63-1,2.63-2.9v-4.86Z"/><path class="f735337d-4d4e-4077-a52a-7f16a5fe5fc4" d="M341.07,341.3a4.68,4.68,0,0,1-4.88,4.93,3.94,3.94,0,0,1-3.08-1.3v4.67h-2.25V336.49H333v1.26a4,4,0,0,1,3.19-1.37A4.68,4.68,0,0,1,341.07,341.3Zm-2.29,0a2.85,2.85,0,1,0-2.84,3A2.79,2.79,0,0,0,338.78,341.3Z"/><path class="f735337d-4d4e-4077-a52a-7f16a5fe5fc4" d="M349.89,345.58a3.55,3.55,0,0,1-2.16.65c-2.11,0-3.31-1.12-3.31-3.24v-4.63h-1.59v-1.8h1.59v-2.2h2.25v2.2h2.57v1.8h-2.57v4.57c0,.94.47,1.44,1.33,1.44a2,2,0,0,0,1.26-.39Z"/><path class="f735337d-4d4e-4077-a52a-7f16a5fe5fc4" d="M360.69,340.47v5.63h-2.12v-1.17a3.42,3.42,0,0,1-3,1.3c-2.2,0-3.58-1.21-3.58-2.88s1.08-2.86,4-2.86h2.48v-.15c0-1.31-.79-2.09-2.4-2.09a4.71,4.71,0,0,0-2.91,1l-.88-1.64a6.76,6.76,0,0,1,4.07-1.19C359.09,336.38,360.69,337.69,360.69,340.47Zm-2.25,2.63V342h-2.32c-1.53,0-1.95.58-1.95,1.28s.69,1.33,1.84,1.33A2.45,2.45,0,0,0,358.44,343.1Z"/></svg>