<svg id="e0b2d0cb-c029-4f6d-bc24-615c9b8bf5ba" data-name="Layer 1" xmlns="http://www.w3.org/2000/svg" viewBox="0 0 600 466"><defs><style>.b56fd43c-3b10-48f3-8e76-5bd85c58fb96{fill:#5bc0c7;}.e12bdda5-f1b3-4117-8f27-5fccb7c737f3{fill:#fff;}.fa024dff-dc80-4b28-a5e3-0f1149e93b0c{fill:none;stroke:#fff;stroke-linecap:round;stroke-linejoin:round;stroke-width:2.83px;}</style></defs><title>Core-values-Artboard 6</title><rect class="b56fd43c-3b10-48f3-8e76-5bd85c58fb96" width="600" height="466"/><path class="e12bdda5-f1b3-4117-8f27-5fccb7c737f3" d="M469.34,93.39c0-7.4,5.23-12.24,12.24-12.24S494,86.12,494,93.39c0,3.31-.51,5.74-3.45,12.75l-7.39,18.35H470.49l5.61-20.27C471.89,102.44,469.34,98.61,469.34,93.39Zm-30.08,0c0-7.4,5.23-12.24,12.24-12.24s12.36,5,12.36,12.24c0,3.31-.51,5.74-3.44,12.75L453,124.49H440.41l5.6-20.27C441.81,102.44,439.26,98.61,439.26,93.39Z"/><path class="fa024dff-dc80-4b28-a5e3-0f1149e93b0c" d="M441.74,76.84a165.26,165.26,0,0,0-97.84-32H89.78V206.33c0,1.62-.08,3.25-.08,4.89h0c0,1.64,0,3.27.08,4.9V377.63h85.41l-22.3,43.55L229,377.63H510.3V211.22h0v-4.95h-.08a164.94,164.94,0,0,0-20.54-75"/><path class="e12bdda5-f1b3-4117-8f27-5fccb7c737f3" d="M135.31,136.78h1l-2,9.8h-1Z"/><path class="e12bdda5-f1b3-4117-8f27-5fccb7c737f3" d="M150.63,139.22l-1.47,7.36h-.95l.24-1.16a3.77,3.77,0,0,1-2.87,1.23,3,3,0,0,1-3.21-3.12,4.14,4.14,0,0,1,4.16-4.37,2.76,2.76,0,0,1,2.8,1.6l.31-1.54ZM149,142.33a2.15,2.15,0,0,0-2.42-2.3,3.24,3.24,0,0,0-3.2,3.46,2.15,2.15,0,0,0,2.43,2.28A3.22,3.22,0,0,0,149,142.33Z"/><path class="e12bdda5-f1b3-4117-8f27-5fccb7c737f3" d="M151.85,145.76l.47-.79a4,4,0,0,0,2.55.82c1.42,0,2.19-.49,2.19-1.32,0-1.67-4.18-.52-4.18-3,0-1.4,1.26-2.3,3.2-2.3a4.47,4.47,0,0,1,2.49.69l-.42.79A3.71,3.71,0,0,0,156,140c-1.36,0-2.13.55-2.13,1.35,0,1.71,4.18.55,4.18,3,0,1.45-1.3,2.29-3.27,2.29A4.64,4.64,0,0,1,151.85,145.76Z"/><path class="e12bdda5-f1b3-4117-8f27-5fccb7c737f3" d="M172.74,139.22l-1.47,7.36h-1l.23-1.16a3.77,3.77,0,0,1-2.87,1.23,3,3,0,0,1-3.2-3.12,4.14,4.14,0,0,1,4.16-4.37,2.76,2.76,0,0,1,2.8,1.6l.31-1.54Zm-1.65,3.11a2.16,2.16,0,0,0-2.43-2.3,3.24,3.24,0,0,0-3.19,3.46,2.14,2.14,0,0,0,2.42,2.28A3.22,3.22,0,0,0,171.09,142.33Z"/><path class="e12bdda5-f1b3-4117-8f27-5fccb7c737f3" d="M187.37,142.27a4.15,4.15,0,0,1-4.17,4.38,2.76,2.76,0,0,1-2.81-1.61l-.84,4.26h-1l2-10.08h.95l-.23,1.17a3.74,3.74,0,0,1,2.87-1.23A3,3,0,0,1,187.37,142.27Zm-1,.06a2.15,2.15,0,0,0-2.42-2.3,3.21,3.21,0,0,0-3.18,3.46,2.14,2.14,0,0,0,2.42,2.28A3.21,3.21,0,0,0,186.36,142.33Z"/><path class="e12bdda5-f1b3-4117-8f27-5fccb7c737f3" d="M197.49,139.22,196,146.58h-1l.24-1.16a3.77,3.77,0,0,1-2.87,1.23,3,3,0,0,1-3.21-3.12,4.14,4.14,0,0,1,4.16-4.37,2.76,2.76,0,0,1,2.8,1.6l.31-1.54Zm-1.65,3.11a2.15,2.15,0,0,0-2.42-2.3,3.24,3.24,0,0,0-3.2,3.46,2.14,2.14,0,0,0,2.42,2.28A3.22,3.22,0,0,0,195.84,142.33Z"/><path class="e12bdda5-f1b3-4117-8f27-5fccb7c737f3" d="M204.67,139.16l-.18,1-.28,0c-1.57,0-2.62.9-3,2.73l-.75,3.74h-1l1.46-7.36h1l-.25,1.34A3.3,3.3,0,0,1,204.67,139.16Z"/><path class="e12bdda5-f1b3-4117-8f27-5fccb7c737f3" d="M206.55,143.18a1.46,1.46,0,0,0,0,.29c0,1.48.84,2.3,2.54,2.3a3.35,3.35,0,0,0,2.41-.92l.44.71a4.19,4.19,0,0,1-2.94,1.09c-2.13,0-3.43-1.2-3.43-3.13a4.1,4.1,0,0,1,4.08-4.36,2.93,2.93,0,0,1,3.2,3.12,5.18,5.18,0,0,1-.09.9Zm.09-.74h5.26a2.53,2.53,0,0,0,0-.27A2.08,2.08,0,0,0,209.6,140,3,3,0,0,0,206.64,142.44Z"/><path class="e12bdda5-f1b3-4117-8f27-5fccb7c737f3" d="M222.47,141.56a4.3,4.3,0,0,1-.09.84l-.84,4.18h-1l.84-4.2a4.13,4.13,0,0,0,.07-.67c0-1.05-.63-1.65-1.91-1.65a2.86,2.86,0,0,0-3,2.57l-.79,4h-1l1.45-7.36h1l-.24,1.17a3.62,3.62,0,0,1,2.88-1.23C221.5,139.16,222.47,140.06,222.47,141.56Z"/><path class="e12bdda5-f1b3-4117-8f27-5fccb7c737f3" d="M226.55,144.36a2.58,2.58,0,0,0-.05.46c0,.63.35,1,1.06,1a1.85,1.85,0,0,0,1.13-.38l.24.76a2.73,2.73,0,0,1-1.64.47A1.61,1.61,0,0,1,225.5,145a2.26,2.26,0,0,1,.06-.57l.85-4.34h-1.3l.15-.84h1.32l.32-1.62h1l-.33,1.62h2.25l-.17.84h-2.24Z"/><path class="e12bdda5-f1b3-4117-8f27-5fccb7c737f3" d="M235.64,143.53a4.17,4.17,0,0,1,4.25-4.37,3,3,0,0,1,3.35,3.11,4.18,4.18,0,0,1-4.26,4.38A3,3,0,0,1,235.64,143.53Zm6.61-1.2a2.16,2.16,0,0,0-2.43-2.3,3.24,3.24,0,0,0-3.19,3.46,2.14,2.14,0,0,0,2.42,2.28A3.22,3.22,0,0,0,242.25,142.33Z"/><path class="e12bdda5-f1b3-4117-8f27-5fccb7c737f3" d="M248,138.4l-.17.82H250l-.16.84h-2.23l-1.3,6.52h-1l1.31-6.52h-1.32l.15-.84h1.33l.19-.93a2.41,2.41,0,0,1,2.52-2.17,2.21,2.21,0,0,1,1.48.48l-.43.73a1.55,1.55,0,0,0-1.05-.37C248.66,137,248.17,137.41,248,138.4Z"/><path class="e12bdda5-f1b3-4117-8f27-5fccb7c737f3" d="M262.66,139.22l-5.38,8.32c-.91,1.4-1.6,1.83-2.66,1.83a2.38,2.38,0,0,1-1.75-.66l.53-.73a1.7,1.7,0,0,0,1.3.54c.63,0,1.12-.3,1.7-1.19l.52-.79-1.84-7.32h1l1.53,6.27,4-6.27Z"/><path class="e12bdda5-f1b3-4117-8f27-5fccb7c737f3" d="M263,143.53a4.18,4.18,0,0,1,4.25-4.37,3,3,0,0,1,3.35,3.11,4.18,4.18,0,0,1-4.26,4.38A3,3,0,0,1,263,143.53Zm6.61-1.2a2.16,2.16,0,0,0-2.43-2.3,3.24,3.24,0,0,0-3.19,3.46,2.14,2.14,0,0,0,2.42,2.28A3.22,3.22,0,0,0,269.62,142.33Z"/><path class="e12bdda5-f1b3-4117-8f27-5fccb7c737f3" d="M280.66,139.22l-1.47,7.36h-.95l.24-1.17a3.56,3.56,0,0,1-2.84,1.24,2.3,2.3,0,0,1-2.62-2.41,4,4,0,0,1,.08-.82l.84-4.2h1l-.84,4.2a3.16,3.16,0,0,0-.07.66c0,1.06.61,1.68,1.87,1.68a2.88,2.88,0,0,0,3-2.58l.78-4Z"/><path class="e12bdda5-f1b3-4117-8f27-5fccb7c737f3" d="M287.86,139.16l-.18,1-.28,0c-1.57,0-2.62.9-3,2.73l-.74,3.74h-1l1.45-7.36h1l-.26,1.34A3.33,3.33,0,0,1,287.86,139.16Z"/><path class="e12bdda5-f1b3-4117-8f27-5fccb7c737f3" d="M292.57,145.76l.48-.79a4,4,0,0,0,2.55.82c1.41,0,2.18-.49,2.18-1.32,0-1.67-4.17-.52-4.17-3,0-1.4,1.26-2.3,3.19-2.3a4.5,4.5,0,0,1,2.5.69l-.42.79a3.73,3.73,0,0,0-2.16-.63c-1.36,0-2.13.55-2.13,1.35,0,1.71,4.17.55,4.17,3,0,1.45-1.3,2.29-3.26,2.29A4.69,4.69,0,0,1,292.57,145.76Z"/><path class="e12bdda5-f1b3-4117-8f27-5fccb7c737f3" d="M302.5,144.36a2.64,2.64,0,0,0-.06.46c0,.63.35,1,1.07,1a1.85,1.85,0,0,0,1.13-.38l.24.76a2.73,2.73,0,0,1-1.64.47,1.61,1.61,0,0,1-1.79-1.68,2.26,2.26,0,0,1,.06-.57l.85-4.34h-1.3l.15-.84h1.32l.32-1.62h1l-.33,1.62h2.24l-.16.84h-2.24Z"/><path class="e12bdda5-f1b3-4117-8f27-5fccb7c737f3" d="M315.4,139.22l-1.47,7.36h-1l.24-1.17a3.56,3.56,0,0,1-2.84,1.24,2.31,2.31,0,0,1-2.62-2.41,4.83,4.83,0,0,1,.08-.82l.84-4.2h1l-.84,4.2a4,4,0,0,0-.07.66c0,1.06.61,1.68,1.88,1.68a2.88,2.88,0,0,0,3-2.58l.78-4Z"/><path class="e12bdda5-f1b3-4117-8f27-5fccb7c737f3" d="M326.21,136.19l-2.08,10.39h-.95l.24-1.16a3.77,3.77,0,0,1-2.87,1.23,3,3,0,0,1-3.21-3.12,4.14,4.14,0,0,1,4.16-4.37,2.77,2.77,0,0,1,2.8,1.6l.91-4.57ZM324,142.33a2.15,2.15,0,0,0-2.42-2.3,3.24,3.24,0,0,0-3.2,3.46,2.15,2.15,0,0,0,2.43,2.28A3.22,3.22,0,0,0,324,142.33Z"/><path class="e12bdda5-f1b3-4117-8f27-5fccb7c737f3" d="M328.53,143.18a1.46,1.46,0,0,0,0,.29c0,1.48.84,2.3,2.54,2.3a3.35,3.35,0,0,0,2.41-.92l.44.71a4.19,4.19,0,0,1-2.94,1.09c-2.13,0-3.43-1.2-3.43-3.13a4.1,4.1,0,0,1,4.08-4.36,2.94,2.94,0,0,1,3.21,3.12,5.16,5.16,0,0,1-.1.9Zm.09-.74h5.26a2.53,2.53,0,0,0,0-.27,2.08,2.08,0,0,0-2.31-2.17A3,3,0,0,0,328.62,142.44Z"/><path class="e12bdda5-f1b3-4117-8f27-5fccb7c737f3" d="M344.45,141.56a4.3,4.3,0,0,1-.09.84l-.84,4.18h-1l.84-4.2a4.13,4.13,0,0,0,.07-.67c0-1.05-.63-1.65-1.91-1.65a2.86,2.86,0,0,0-3,2.57l-.79,4h-1l1.45-7.36h1l-.24,1.17a3.62,3.62,0,0,1,2.88-1.23C343.48,139.16,344.45,140.06,344.45,141.56Z"/><path class="e12bdda5-f1b3-4117-8f27-5fccb7c737f3" d="M348.53,144.36a2.58,2.58,0,0,0,0,.46c0,.63.35,1,1.06,1a1.9,1.9,0,0,0,1.14-.38l.23.76a2.73,2.73,0,0,1-1.64.47,1.61,1.61,0,0,1-1.79-1.68,2.83,2.83,0,0,1,.06-.57l.85-4.34h-1.3l.15-.84h1.32l.32-1.62h1l-.33,1.62h2.25l-.17.84h-2.24Z"/><path class="e12bdda5-f1b3-4117-8f27-5fccb7c737f3" d="M364.62,144h-5.48l-1.69,2.62h-1.12l6.44-9.8h1l2.53,9.8h-1Zm-.2-.84-1.33-5.29-3.41,5.29Z"/><path class="e12bdda5-f1b3-4117-8f27-5fccb7c737f3" d="M376.69,142.27a4.15,4.15,0,0,1-4.18,4.38A2.73,2.73,0,0,1,369.7,145l-.32,1.61h-1l2.08-10.39h1l-.82,4.13a3.71,3.71,0,0,1,2.8-1.16A3,3,0,0,1,376.69,142.27Zm-1,.06a2.15,2.15,0,0,0-2.42-2.3,3.21,3.21,0,0,0-3.18,3.46,2.14,2.14,0,0,0,2.42,2.28A3.21,3.21,0,0,0,375.68,142.33Z"/><path class="e12bdda5-f1b3-4117-8f27-5fccb7c737f3" d="M386.31,141.56a4.3,4.3,0,0,1-.09.84l-.84,4.18h-1l.84-4.2a4.13,4.13,0,0,0,.07-.67c0-1.05-.63-1.65-1.91-1.65a2.86,2.86,0,0,0-3,2.57l-.79,4h-1l2.07-10.39h1l-.82,4.13a3.58,3.58,0,0,1,2.81-1.16C385.34,139.16,386.31,140.06,386.31,141.56Z"/><path class="e12bdda5-f1b3-4117-8f27-5fccb7c737f3" d="M390.25,139.22h1l-1.46,7.36h-1Zm.25-2.27a.76.76,0,0,1,.77-.76.66.66,0,0,1,.69.63.76.76,0,0,1-.78.78A.66.66,0,0,1,390.5,137Z"/><path class="e12bdda5-f1b3-4117-8f27-5fccb7c737f3" d="M402.06,136.19,400,146.58h-1l.24-1.16a3.77,3.77,0,0,1-2.87,1.23,3,3,0,0,1-3.21-3.12,4.15,4.15,0,0,1,4.16-4.37,2.77,2.77,0,0,1,2.8,1.6l.91-4.57Zm-2.26,6.14a2.15,2.15,0,0,0-2.42-2.3,3.24,3.24,0,0,0-3.2,3.46,2.15,2.15,0,0,0,2.43,2.28A3.22,3.22,0,0,0,399.8,142.33Z"/><path class="e12bdda5-f1b3-4117-8f27-5fccb7c737f3" d="M404.38,143.18a1.46,1.46,0,0,0,0,.29c0,1.48.84,2.3,2.54,2.3a3.35,3.35,0,0,0,2.41-.92l.45.71a4.23,4.23,0,0,1-2.95,1.09c-2.12,0-3.43-1.2-3.43-3.13a4.11,4.11,0,0,1,4.08-4.36,2.93,2.93,0,0,1,3.21,3.12,5.16,5.16,0,0,1-.1.9Zm.09-.74h5.26a2.53,2.53,0,0,0,0-.27,2.08,2.08,0,0,0-2.31-2.17A3,3,0,0,0,404.47,142.44Z"/><path class="e12bdda5-f1b3-4117-8f27-5fccb7c737f3" d="M413.53,143.18c0,.1,0,.2,0,.29,0,1.48.84,2.3,2.53,2.3a3.34,3.34,0,0,0,2.41-.92l.45.71a4.19,4.19,0,0,1-2.94,1.09c-2.13,0-3.43-1.2-3.43-3.13a4.1,4.1,0,0,1,4.07-4.36,2.93,2.93,0,0,1,3.21,3.12,4.35,4.35,0,0,1-.1.9Zm.1-.74h5.25a1.27,1.27,0,0,0,0-.27,2.08,2.08,0,0,0-2.31-2.17A3,3,0,0,0,413.63,142.44Z"/><path class="e12bdda5-f1b3-4117-8f27-5fccb7c737f3" d="M430,142.27a4.15,4.15,0,0,1-4.18,4.38,2.75,2.75,0,0,1-2.8-1.61l-.84,4.26h-1l2-10.08h.95l-.23,1.17a3.74,3.74,0,0,1,2.87-1.23A3,3,0,0,1,430,142.27Zm-1,.06a2.15,2.15,0,0,0-2.42-2.3,3.21,3.21,0,0,0-3.18,3.46,2.14,2.14,0,0,0,2.42,2.28A3.21,3.21,0,0,0,429,142.33Z"/><path class="e12bdda5-f1b3-4117-8f27-5fccb7c737f3" d="M435.15,145.25l.73-.66a2.09,2.09,0,0,0,2,1.18c1.15,0,1.85-.57,2.16-2.11l1.19-6h-3.57l.18-.9h4.59L441,143.66c-.44,2.21-1.49,3-3.2,3A2.8,2.8,0,0,1,435.15,145.25Z"/><path class="e12bdda5-f1b3-4117-8f27-5fccb7c737f3" d="M452.23,139.22l-1.47,7.36h-.95l.24-1.16a3.77,3.77,0,0,1-2.87,1.23,3,3,0,0,1-3.21-3.12,4.14,4.14,0,0,1,4.16-4.37,2.76,2.76,0,0,1,2.8,1.6l.31-1.54Zm-1.65,3.11a2.15,2.15,0,0,0-2.42-2.3,3.24,3.24,0,0,0-3.2,3.46,2.15,2.15,0,0,0,2.43,2.28A3.22,3.22,0,0,0,450.58,142.33Z"/><path class="e12bdda5-f1b3-4117-8f27-5fccb7c737f3" d="M455.69,139.22h1l-1.46,7.36h-1Zm.25-2.27a.75.75,0,0,1,.77-.76.66.66,0,0,1,.69.63.76.76,0,0,1-.79.78A.65.65,0,0,1,455.94,137Z"/><path class="e12bdda5-f1b3-4117-8f27-5fccb7c737f3" d="M466.39,141.56a4.3,4.3,0,0,1-.09.84l-.84,4.18h-1l.84-4.2a4.13,4.13,0,0,0,.07-.67c0-1.05-.63-1.65-1.91-1.65a2.87,2.87,0,0,0-3,2.57l-.78,4h-1l1.45-7.36h1l-.23,1.17a3.62,3.62,0,0,1,2.88-1.23C465.42,139.16,466.39,140.06,466.39,141.56Z"/><path class="e12bdda5-f1b3-4117-8f27-5fccb7c737f3" d="M144.46,156l-4.17,7.36h-1l-1.23-6-3.45,6h-1L132.25,156h.91l1.2,6.24,3.55-6.24h.84l1.24,6.24,3.5-6.24Z"/><path class="e12bdda5-f1b3-4117-8f27-5fccb7c737f3" d="M153.1,156l-1.47,7.36h-.95l.24-1.16a3.77,3.77,0,0,1-2.87,1.23,3,3,0,0,1-3.21-3.12A4.15,4.15,0,0,1,149,156a2.76,2.76,0,0,1,2.8,1.6l.31-1.54Zm-1.65,3.11a2.15,2.15,0,0,0-2.42-2.3,3.24,3.24,0,0,0-3.2,3.46,2.15,2.15,0,0,0,2.43,2.28A3.22,3.22,0,0,0,151.45,159.13Z"/><path class="e12bdda5-f1b3-4117-8f27-5fccb7c737f3" d="M162.79,158.36a5.16,5.16,0,0,1-.08.84l-.84,4.18h-1l.84-4.2a3.25,3.25,0,0,0,.07-.67c0-1-.63-1.65-1.9-1.65a2.87,2.87,0,0,0-3,2.57l-.78,3.95h-1l1.46-7.36h.95l-.24,1.17a3.66,3.66,0,0,1,2.89-1.23C161.83,156,162.79,156.86,162.79,158.36Z"/><path class="e12bdda5-f1b3-4117-8f27-5fccb7c737f3" d="M166.88,161.16a2.77,2.77,0,0,0-.06.46c0,.63.35,1,1.07,1a1.9,1.9,0,0,0,1.13-.38l.24.76a2.73,2.73,0,0,1-1.64.47,1.6,1.6,0,0,1-1.79-1.68,2.81,2.81,0,0,1,0-.57l.86-4.34h-1.31l.16-.84h1.32l.32-1.61h1L167.9,156h2.24l-.17.84h-2.24Z"/><path class="e12bdda5-f1b3-4117-8f27-5fccb7c737f3" d="M177.63,161.16a2.77,2.77,0,0,0-.06.46c0,.63.35,1,1.07,1a1.88,1.88,0,0,0,1.13-.38l.24.76a2.73,2.73,0,0,1-1.64.47,1.6,1.6,0,0,1-1.79-1.68,2.81,2.81,0,0,1,0-.57l.86-4.34h-1.3l.15-.84h1.32l.32-1.61h1l-.32,1.61h2.24l-.17.84h-2.24Z"/><path class="e12bdda5-f1b3-4117-8f27-5fccb7c737f3" d="M182.08,160.33a4.18,4.18,0,0,1,4.26-4.37,3,3,0,0,1,3.35,3.11,4.18,4.18,0,0,1-4.26,4.38A3,3,0,0,1,182.08,160.33Zm6.61-1.2a2.15,2.15,0,0,0-2.42-2.3,3.24,3.24,0,0,0-3.2,3.46,2.15,2.15,0,0,0,2.43,2.28A3.22,3.22,0,0,0,188.69,159.13Z"/><path class="e12bdda5-f1b3-4117-8f27-5fccb7c737f3" d="M195.21,162.56l.48-.79a4,4,0,0,0,2.55.82c1.41,0,2.18-.49,2.18-1.32,0-1.67-4.17-.52-4.17-3,0-1.4,1.26-2.3,3.19-2.3a4.53,4.53,0,0,1,2.5.69l-.43.79a3.7,3.7,0,0,0-2.15-.63c-1.36,0-2.13.55-2.13,1.35,0,1.71,4.17.55,4.17,3,0,1.45-1.3,2.29-3.26,2.29A4.67,4.67,0,0,1,195.21,162.56Z"/><path class="e12bdda5-f1b3-4117-8f27-5fccb7c737f3" d="M205,156h1l-1.45,7.36h-1Zm.25-2.27A.75.75,0,0,1,206,153a.66.66,0,0,1,.69.63.77.77,0,0,1-.79.79A.66.66,0,0,1,205.25,153.75Z"/><path class="e12bdda5-f1b3-4117-8f27-5fccb7c737f3" d="M215.7,158.36a4.3,4.3,0,0,1-.09.84l-.84,4.18h-1l.84-4.2a4.13,4.13,0,0,0,.07-.67c0-1-.63-1.65-1.91-1.65a2.87,2.87,0,0,0-3,2.57l-.79,3.95h-1l1.45-7.36h1l-.24,1.17a3.62,3.62,0,0,1,2.88-1.23C214.73,156,215.7,156.86,215.7,158.36Z"/><path class="e12bdda5-f1b3-4117-8f27-5fccb7c737f3" d="M218.14,160.33a4.18,4.18,0,0,1,4.29-4.37,3.08,3.08,0,0,1,2.9,1.47l-.84.49a2.27,2.27,0,0,0-2.14-1.09,3.24,3.24,0,0,0-3.21,3.46,2.15,2.15,0,0,0,2.45,2.28,2.84,2.84,0,0,0,2.32-1.06l.72.54a3.8,3.8,0,0,1-3.08,1.4C219.45,163.45,218.14,162.22,218.14,160.33Z"/><path class="e12bdda5-f1b3-4117-8f27-5fccb7c737f3" d="M227.59,160c0,.1,0,.2,0,.29,0,1.48.84,2.3,2.54,2.3a3.31,3.31,0,0,0,2.4-.92l.45.71a4.19,4.19,0,0,1-2.94,1.09c-2.13,0-3.43-1.2-3.43-3.13a4.1,4.1,0,0,1,4.08-4.36,2.93,2.93,0,0,1,3.2,3.12,5.18,5.18,0,0,1-.09.9Zm.1-.74h5.25a1.27,1.27,0,0,0,0-.27,2.08,2.08,0,0,0-2.31-2.17A3,3,0,0,0,227.69,159.24Z"/><path class="e12bdda5-f1b3-4117-8f27-5fccb7c737f3" d="M241,156l-.18,1-.28,0c-1.57,0-2.62.9-3,2.73l-.74,3.74h-1l1.45-7.36h.95l-.25,1.34A3.33,3.33,0,0,1,241,156Z"/><path class="e12bdda5-f1b3-4117-8f27-5fccb7c737f3" d="M242.88,160c0,.1,0,.2,0,.29,0,1.48.84,2.3,2.53,2.3a3.34,3.34,0,0,0,2.41-.92l.45.71a4.21,4.21,0,0,1-2.94,1.09c-2.13,0-3.43-1.2-3.43-3.13A4.1,4.1,0,0,1,246,156a2.93,2.93,0,0,1,3.21,3.12,4.35,4.35,0,0,1-.1.9Zm.1-.74h5.25a1.27,1.27,0,0,0,0-.27,2.08,2.08,0,0,0-2.31-2.17A3,3,0,0,0,243,159.24Z"/><path class="e12bdda5-f1b3-4117-8f27-5fccb7c737f3" d="M253.19,153h1l-2.07,10.39h-1Z"/><path class="e12bdda5-f1b3-4117-8f27-5fccb7c737f3" d="M263.24,156l-5.38,8.32c-.91,1.4-1.59,1.83-2.66,1.83a2.38,2.38,0,0,1-1.75-.66l.53-.72a1.73,1.73,0,0,0,1.3.53c.63,0,1.13-.3,1.7-1.19l.52-.79L255.66,156h1l1.53,6.27,4-6.27Z"/><path class="e12bdda5-f1b3-4117-8f27-5fccb7c737f3" d="M269.83,161.16a2.68,2.68,0,0,0-.05.46c0,.63.35,1,1.06,1a1.85,1.85,0,0,0,1.13-.38l.24.76a2.73,2.73,0,0,1-1.64.47,1.61,1.61,0,0,1-1.79-1.68,2.26,2.26,0,0,1,.06-.57l.85-4.34h-1.3l.15-.84h1.32l.32-1.61h1l-.33,1.61h2.25l-.17.84h-2.24Z"/><path class="e12bdda5-f1b3-4117-8f27-5fccb7c737f3" d="M282.31,158.36a4.3,4.3,0,0,1-.09.84l-.84,4.18h-1l.84-4.2a4.13,4.13,0,0,0,.07-.67c0-1-.63-1.65-1.91-1.65a2.87,2.87,0,0,0-3,2.57l-.79,3.95h-1L276.69,153h1l-.83,4.13a3.58,3.58,0,0,1,2.82-1.16A2.31,2.31,0,0,1,282.31,158.36Z"/><path class="e12bdda5-f1b3-4117-8f27-5fccb7c737f3" d="M293,156l-1.47,7.36h-.95l.23-1.16a3.77,3.77,0,0,1-2.87,1.23,3,3,0,0,1-3.21-3.12,4.15,4.15,0,0,1,4.16-4.37,2.76,2.76,0,0,1,2.81,1.6L292,156Zm-1.65,3.11a2.16,2.16,0,0,0-2.43-2.3,3.24,3.24,0,0,0-3.19,3.46,2.14,2.14,0,0,0,2.42,2.28A3.22,3.22,0,0,0,291.37,159.13Z"/><path class="e12bdda5-f1b3-4117-8f27-5fccb7c737f3" d="M302.71,158.36a4.3,4.3,0,0,1-.09.84l-.84,4.18h-1l.84-4.2a4.13,4.13,0,0,0,.07-.67c0-1-.63-1.65-1.91-1.65a2.87,2.87,0,0,0-3,2.57l-.78,3.95h-1l1.45-7.36h1l-.24,1.17a3.62,3.62,0,0,1,2.88-1.23C301.74,156,302.71,156.86,302.71,158.36Z"/><path class="e12bdda5-f1b3-4117-8f27-5fccb7c737f3" d="M309.45,159.06l2.65,4.32h-1.16l-2.27-3.72-2.06,1.6-.42,2.12h-1L307.27,153h1l-1.4,7,5.07-4h1.42Z"/><path class="e12bdda5-f1b3-4117-8f27-5fccb7c737f3" d="M326.18,156l-5.37,8.32c-.92,1.4-1.6,1.83-2.67,1.83a2.41,2.41,0,0,1-1.75-.66l.54-.72a1.73,1.73,0,0,0,1.3.53c.63,0,1.12-.3,1.69-1.19l.52-.79L318.61,156h1l1.53,6.27,4-6.27Z"/><path class="e12bdda5-f1b3-4117-8f27-5fccb7c737f3" d="M326.53,160.33a4.18,4.18,0,0,1,4.26-4.37,3,3,0,0,1,3.35,3.11,4.18,4.18,0,0,1-4.26,4.38A3,3,0,0,1,326.53,160.33Zm6.61-1.2a2.15,2.15,0,0,0-2.42-2.3,3.24,3.24,0,0,0-3.2,3.46,2.15,2.15,0,0,0,2.43,2.28A3.22,3.22,0,0,0,333.14,159.13Z"/><path class="e12bdda5-f1b3-4117-8f27-5fccb7c737f3" d="M344.19,156l-1.47,7.36h-1l.23-1.17a3.56,3.56,0,0,1-2.84,1.24,2.31,2.31,0,0,1-2.62-2.41,4.83,4.83,0,0,1,.08-.82l.84-4.2h1l-.84,4.2a4,4,0,0,0-.07.66c0,1.06.61,1.68,1.88,1.68a2.88,2.88,0,0,0,3-2.58l.78-4Z"/><path class="e12bdda5-f1b3-4117-8f27-5fccb7c737f3" d="M358.76,156l-1.47,7.36h-1l.24-1.16a3.77,3.77,0,0,1-2.87,1.23,3,3,0,0,1-3.21-3.12,4.14,4.14,0,0,1,4.16-4.37,2.76,2.76,0,0,1,2.8,1.6l.31-1.54Zm-1.65,3.11a2.15,2.15,0,0,0-2.42-2.3,3.24,3.24,0,0,0-3.2,3.46,2.15,2.15,0,0,0,2.43,2.28A3.22,3.22,0,0,0,357.11,159.13Z"/><path class="e12bdda5-f1b3-4117-8f27-5fccb7c737f3" d="M368.45,158.36a5.16,5.16,0,0,1-.08.84l-.84,4.18h-1l.84-4.2a4.13,4.13,0,0,0,.07-.67c0-1-.63-1.65-1.9-1.65a2.87,2.87,0,0,0-3,2.57l-.79,3.95h-1l1.46-7.36h.95l-.24,1.17a3.64,3.64,0,0,1,2.89-1.23A2.31,2.31,0,0,1,368.45,158.36Z"/><path class="e12bdda5-f1b3-4117-8f27-5fccb7c737f3" d="M379.76,153l-2.07,10.39h-.95l.23-1.16a3.77,3.77,0,0,1-2.87,1.23,3,3,0,0,1-3.2-3.12,4.14,4.14,0,0,1,4.16-4.37,2.77,2.77,0,0,1,2.8,1.6l.91-4.57Zm-2.25,6.14a2.16,2.16,0,0,0-2.43-2.3,3.24,3.24,0,0,0-3.19,3.46,2.14,2.14,0,0,0,2.42,2.28A3.22,3.22,0,0,0,377.51,159.13Z"/><path class="e12bdda5-f1b3-4117-8f27-5fccb7c737f3" d="M393.72,156l-1.47,7.36h-.95l.23-1.16a3.77,3.77,0,0,1-2.87,1.23,3,3,0,0,1-3.2-3.12,4.14,4.14,0,0,1,4.16-4.37,2.76,2.76,0,0,1,2.8,1.6l.31-1.54Zm-1.65,3.11a2.16,2.16,0,0,0-2.43-2.3,3.24,3.24,0,0,0-3.19,3.46,2.14,2.14,0,0,0,2.42,2.28A3.22,3.22,0,0,0,392.07,159.13Z"/><path class="e12bdda5-f1b3-4117-8f27-5fccb7c737f3" d="M404,159.07a4.14,4.14,0,0,1-4.17,4.38,2.75,2.75,0,0,1-2.8-1.61l-.84,4.26h-1l2-10.08h1l-.24,1.17a3.74,3.74,0,0,1,2.87-1.23A3,3,0,0,1,404,159.07Zm-1,.06a2.15,2.15,0,0,0-2.42-2.3,3.21,3.21,0,0,0-3.18,3.46,2.14,2.14,0,0,0,2.42,2.28A3.21,3.21,0,0,0,403,159.13Z"/><path class="e12bdda5-f1b3-4117-8f27-5fccb7c737f3" d="M414.17,159.07a4.14,4.14,0,0,1-4.17,4.38,2.75,2.75,0,0,1-2.8-1.61l-.84,4.26h-1l2-10.08h.95l-.24,1.17A3.74,3.74,0,0,1,411,156,3,3,0,0,1,414.17,159.07Zm-1,.06a2.15,2.15,0,0,0-2.42-2.3,3.22,3.22,0,0,0-3.18,3.46,2.15,2.15,0,0,0,2.43,2.28A3.2,3.2,0,0,0,413.16,159.13Z"/><path class="e12bdda5-f1b3-4117-8f27-5fccb7c737f3" d="M421.28,156l-.18,1-.28,0c-1.57,0-2.62.9-3,2.73l-.74,3.74h-1l1.46-7.36h.95l-.25,1.34A3.31,3.31,0,0,1,421.28,156Z"/><path class="e12bdda5-f1b3-4117-8f27-5fccb7c737f3" d="M423.16,160a1.46,1.46,0,0,0,0,.29c0,1.48.84,2.3,2.54,2.3a3.35,3.35,0,0,0,2.41-.92l.45.71a4.22,4.22,0,0,1-2.94,1.09c-2.13,0-3.44-1.2-3.44-3.13a4.11,4.11,0,0,1,4.08-4.36,2.93,2.93,0,0,1,3.21,3.12,4.35,4.35,0,0,1-.1.9Zm.1-.74h5.25a2.53,2.53,0,0,0,0-.27,2.08,2.08,0,0,0-2.31-2.17A3,3,0,0,0,423.26,159.24Z"/><path class="e12bdda5-f1b3-4117-8f27-5fccb7c737f3" d="M431.32,160.33a4.18,4.18,0,0,1,4.29-4.37,3.06,3.06,0,0,1,2.89,1.47l-.84.49a2.26,2.26,0,0,0-2.14-1.09,3.24,3.24,0,0,0-3.21,3.46,2.16,2.16,0,0,0,2.45,2.28,2.86,2.86,0,0,0,2.33-1.06l.71.54a3.78,3.78,0,0,1-3.08,1.4C432.62,163.45,431.32,162.22,431.32,160.33Z"/><path class="e12bdda5-f1b3-4117-8f27-5fccb7c737f3" d="M441.43,156h1L441,163.38h-1Zm.25-2.27a.75.75,0,0,1,.77-.76.66.66,0,0,1,.69.63.77.77,0,0,1-.79.79A.66.66,0,0,1,441.68,153.75Z"/><path class="e12bdda5-f1b3-4117-8f27-5fccb7c737f3" d="M452.63,156l-1.47,7.36h-1l.24-1.16a3.78,3.78,0,0,1-2.88,1.23,3,3,0,0,1-3.2-3.12,4.14,4.14,0,0,1,4.16-4.37,2.76,2.76,0,0,1,2.8,1.6l.31-1.54ZM451,159.13a2.15,2.15,0,0,0-2.42-2.3,3.24,3.24,0,0,0-3.2,3.46,2.14,2.14,0,0,0,2.42,2.28A3.22,3.22,0,0,0,451,159.13Z"/><path class="e12bdda5-f1b3-4117-8f27-5fccb7c737f3" d="M456.23,161.16a2.77,2.77,0,0,0-.06.46c0,.63.35,1,1.06,1a1.9,1.9,0,0,0,1.14-.38l.24.76a2.75,2.75,0,0,1-1.64.47,1.61,1.61,0,0,1-1.8-1.68,2.83,2.83,0,0,1,.06-.57l.86-4.34h-1.31l.16-.84h1.31l.33-1.61h1l-.32,1.61h2.24l-.17.84h-2.24Z"/><path class="e12bdda5-f1b3-4117-8f27-5fccb7c737f3" d="M461.67,160c0,.1,0,.2,0,.29,0,1.48.84,2.3,2.53,2.3a3.34,3.34,0,0,0,2.41-.92l.45.71a4.21,4.21,0,0,1-2.94,1.09c-2.13,0-3.43-1.2-3.43-3.13a4.1,4.1,0,0,1,4.07-4.36,2.93,2.93,0,0,1,3.21,3.12,4.35,4.35,0,0,1-.1.9Zm.1-.74H467a1.27,1.27,0,0,0,0-.27,2.08,2.08,0,0,0-2.32-2.17A3,3,0,0,0,461.77,159.24Z"/><path class="e12bdda5-f1b3-4117-8f27-5fccb7c737f3" d="M150.19,172.82l-5.38,8.32c-.91,1.4-1.6,1.83-2.66,1.83a2.42,2.42,0,0,1-1.76-.66l.54-.73a1.7,1.7,0,0,0,1.3.54c.63,0,1.12-.3,1.69-1.19l.52-.79-1.83-7.32h1l1.52,6.27,4-6.27Z"/><path class="e12bdda5-f1b3-4117-8f27-5fccb7c737f3" d="M150.53,177.13a4.18,4.18,0,0,1,4.26-4.37,3,3,0,0,1,3.35,3.11,4.18,4.18,0,0,1-4.26,4.38A3,3,0,0,1,150.53,177.13Zm6.61-1.2a2.15,2.15,0,0,0-2.42-2.3,3.23,3.23,0,0,0-3.19,3.46,2.14,2.14,0,0,0,2.42,2.28A3.22,3.22,0,0,0,157.14,175.93Z"/><path class="e12bdda5-f1b3-4117-8f27-5fccb7c737f3" d="M168.19,172.82l-1.47,7.36h-.95L166,179a3.54,3.54,0,0,1-2.84,1.24,2.31,2.31,0,0,1-2.62-2.41,4,4,0,0,1,.09-.82l.84-4.2h1l-.84,4.2a4,4,0,0,0-.07.66c0,1.06.62,1.68,1.88,1.68a2.88,2.88,0,0,0,3-2.58l.79-4Z"/><path class="e12bdda5-f1b3-4117-8f27-5fccb7c737f3" d="M175.38,172.76l-.18,1-.28,0c-1.57,0-2.62.9-3,2.73l-.74,3.74h-1l1.46-7.36h1l-.25,1.34A3.31,3.31,0,0,1,175.38,172.76Z"/><path class="e12bdda5-f1b3-4117-8f27-5fccb7c737f3" d="M188.57,175.16a4.25,4.25,0,0,1-.08.84l-.84,4.18h-1l.85-4.2a4.06,4.06,0,0,0,.06-.67c0-1.05-.63-1.65-1.9-1.65a2.87,2.87,0,0,0-3,2.57l-.78,4h-1L183,169.79h1l-.83,4.13a3.6,3.6,0,0,1,2.82-1.16C187.61,172.76,188.57,173.66,188.57,175.16Z"/><path class="e12bdda5-f1b3-4117-8f27-5fccb7c737f3" d="M199.28,172.82l-1.47,7.36h-.95l.24-1.16a3.77,3.77,0,0,1-2.87,1.23,3,3,0,0,1-3.21-3.12,4.14,4.14,0,0,1,4.16-4.37,2.76,2.76,0,0,1,2.8,1.6l.31-1.54Zm-1.65,3.11a2.15,2.15,0,0,0-2.42-2.3,3.24,3.24,0,0,0-3.2,3.46,2.15,2.15,0,0,0,2.43,2.28A3.22,3.22,0,0,0,197.63,175.93Z"/><path class="e12bdda5-f1b3-4117-8f27-5fccb7c737f3" d="M206.46,172.76l-.18,1-.28,0c-1.57,0-2.62.9-3,2.73l-.74,3.74h-1l1.46-7.36h.95l-.25,1.34A3.31,3.31,0,0,1,206.46,172.76Z"/><path class="e12bdda5-f1b3-4117-8f27-5fccb7c737f3" d="M216.21,169.79l-2.07,10.39h-1l.24-1.16a3.77,3.77,0,0,1-2.87,1.23,3,3,0,0,1-3.21-3.12,4.15,4.15,0,0,1,4.16-4.37,2.77,2.77,0,0,1,2.8,1.6l.92-4.57ZM214,175.93a2.15,2.15,0,0,0-2.42-2.3,3.24,3.24,0,0,0-3.19,3.46,2.14,2.14,0,0,0,2.42,2.28A3.21,3.21,0,0,0,214,175.93Z"/><path class="e12bdda5-f1b3-4117-8f27-5fccb7c737f3" d="M234.31,172.82l-4.16,7.36h-1l-1.24-6-3.44,6h-.95l-1.45-7.36H223l1.19,6.24,3.56-6.24h.84l1.23,6.24,3.51-6.24Z"/><path class="e12bdda5-f1b3-4117-8f27-5fccb7c737f3" d="M234.7,177.13a4.18,4.18,0,0,1,4.26-4.37,3,3,0,0,1,3.34,3.11,4.18,4.18,0,0,1-4.25,4.38A3,3,0,0,1,234.7,177.13Zm6.61-1.2a2.15,2.15,0,0,0-2.42-2.3,3.24,3.24,0,0,0-3.2,3.46,2.15,2.15,0,0,0,2.43,2.28A3.22,3.22,0,0,0,241.31,175.93Z"/><path class="e12bdda5-f1b3-4117-8f27-5fccb7c737f3" d="M249.43,172.76l-.18,1-.28,0c-1.57,0-2.62.9-3,2.73l-.74,3.74h-1l1.45-7.36h1l-.26,1.34A3.33,3.33,0,0,1,249.43,172.76Z"/><path class="e12bdda5-f1b3-4117-8f27-5fccb7c737f3" d="M254.71,175.86l2.64,4.32h-1.16l-2.27-3.72-2.06,1.6-.42,2.12h-1l2.07-10.39h1l-1.4,7,5.07-4h1.41Z"/><path class="e12bdda5-f1b3-4117-8f27-5fccb7c737f3" d="M266.55,172l-.17.82h2.26l-.17.84h-2.23l-1.3,6.52h-1l1.31-6.52h-1.32l.15-.84h1.34l.18-.93a2.41,2.41,0,0,1,2.52-2.17,2.21,2.21,0,0,1,1.48.48l-.43.73a1.55,1.55,0,0,0-1.05-.37C267.25,170.56,266.76,171,266.55,172Z"/><path class="e12bdda5-f1b3-4117-8f27-5fccb7c737f3" d="M269,177.13a4.18,4.18,0,0,1,4.26-4.37,3,3,0,0,1,3.34,3.11,4.18,4.18,0,0,1-4.26,4.38A3,3,0,0,1,269,177.13Zm6.61-1.2a2.16,2.16,0,0,0-2.43-2.3,3.24,3.24,0,0,0-3.19,3.46,2.14,2.14,0,0,0,2.42,2.28A3.22,3.22,0,0,0,275.64,175.93Z"/><path class="e12bdda5-f1b3-4117-8f27-5fccb7c737f3" d="M283.76,172.76l-.18,1-.29,0c-1.56,0-2.61.9-3,2.73l-.74,3.74h-1l1.46-7.36h1l-.25,1.34A3.33,3.33,0,0,1,283.76,172.76Z"/><path class="e12bdda5-f1b3-4117-8f27-5fccb7c737f3" d="M290.85,178a4,4,0,0,0-.05.46c0,.63.35,1,1.06,1A1.9,1.9,0,0,0,293,179l.23.76a2.7,2.7,0,0,1-1.63.47,1.61,1.61,0,0,1-1.8-1.68,2.83,2.83,0,0,1,.06-.57l.85-4.34h-1.3l.15-.84h1.32l.32-1.62h1l-.32,1.62h2.24l-.17.84h-2.24Z"/><path class="e12bdda5-f1b3-4117-8f27-5fccb7c737f3" d="M303.33,175.16a5.16,5.16,0,0,1-.08.84l-.84,4.18h-1l.84-4.2a4.13,4.13,0,0,0,.07-.67c0-1.05-.63-1.65-1.9-1.65a2.87,2.87,0,0,0-3,2.57l-.79,4h-1l2.07-10.39h1l-.83,4.13a3.58,3.58,0,0,1,2.82-1.16A2.31,2.31,0,0,1,303.33,175.16Z"/><path class="e12bdda5-f1b3-4117-8f27-5fccb7c737f3" d="M306.77,176.78c0,.1,0,.2,0,.29,0,1.48.84,2.3,2.53,2.3a3.34,3.34,0,0,0,2.41-.92l.45.71a4.21,4.21,0,0,1-2.94,1.09c-2.13,0-3.43-1.2-3.43-3.13a4.1,4.1,0,0,1,4.07-4.36,2.93,2.93,0,0,1,3.21,3.12,4.35,4.35,0,0,1-.1.9Zm.1-.74h5.25a1.27,1.27,0,0,0,0-.27,2.08,2.08,0,0,0-2.32-2.17A3,3,0,0,0,306.87,176Z"/><path class="e12bdda5-f1b3-4117-8f27-5fccb7c737f3" d="M327,172.82l-4.73,7.36h-1l-1.82-7.36h1l1.53,6.29,4-6.29Z"/><path class="e12bdda5-f1b3-4117-8f27-5fccb7c737f3" d="M329.11,172.82h1l-1.46,7.36h-1Zm.26-2.27a.75.75,0,0,1,.77-.76.65.65,0,0,1,.68.63.76.76,0,0,1-.78.78A.65.65,0,0,1,329.37,170.55Z"/><path class="e12bdda5-f1b3-4117-8f27-5fccb7c737f3" d="M337.31,172.76l-.19,1-.28,0c-1.56,0-2.62.9-3,2.73l-.74,3.74h-1l1.46-7.36h.95l-.25,1.34A3.33,3.33,0,0,1,337.31,172.76Z"/><path class="e12bdda5-f1b3-4117-8f27-5fccb7c737f3" d="M340.24,178a4,4,0,0,0-.05.46c0,.63.35,1,1.06,1a1.9,1.9,0,0,0,1.14-.38l.24.76a2.75,2.75,0,0,1-1.64.47,1.61,1.61,0,0,1-1.8-1.68,2.83,2.83,0,0,1,.06-.57l.85-4.34h-1.3l.16-.84h1.31l.32-1.62h1l-.32,1.62h2.24l-.17.84H341.1Z"/><path class="e12bdda5-f1b3-4117-8f27-5fccb7c737f3" d="M353.14,172.82l-1.47,7.36h-.95L351,179a3.58,3.58,0,0,1-2.85,1.24,2.31,2.31,0,0,1-2.62-2.41,4,4,0,0,1,.09-.82l.84-4.2h1l-.84,4.2a4,4,0,0,0-.07.66c0,1.06.62,1.68,1.88,1.68a2.88,2.88,0,0,0,3-2.58l.79-4Z"/><path class="e12bdda5-f1b3-4117-8f27-5fccb7c737f3" d="M363.35,172.82l-1.47,7.36h-1l.24-1.16a3.77,3.77,0,0,1-2.87,1.23,3,3,0,0,1-3.21-3.12,4.15,4.15,0,0,1,4.16-4.37,2.76,2.76,0,0,1,2.8,1.6l.31-1.54Zm-1.66,3.11a2.15,2.15,0,0,0-2.42-2.3,3.24,3.24,0,0,0-3.19,3.46,2.14,2.14,0,0,0,2.42,2.28A3.21,3.21,0,0,0,361.69,175.93Z"/><path class="e12bdda5-f1b3-4117-8f27-5fccb7c737f3" d="M367.42,169.79h1l-2.07,10.39h-1Z"/><path class="e12bdda5-f1b3-4117-8f27-5fccb7c737f3" d="M374.11,177.13a4.18,4.18,0,0,1,4.28-4.37,3.06,3.06,0,0,1,2.9,1.47l-.84.49a2.26,2.26,0,0,0-2.14-1.09,3.24,3.24,0,0,0-3.21,3.46,2.16,2.16,0,0,0,2.45,2.28,2.86,2.86,0,0,0,2.33-1.06l.71.54a3.78,3.78,0,0,1-3.08,1.4C375.41,180.25,374.11,179,374.11,177.13Z"/><path class="e12bdda5-f1b3-4117-8f27-5fccb7c737f3" d="M384.72,169.79h1l-2.08,10.39h-1Z"/><path class="e12bdda5-f1b3-4117-8f27-5fccb7c737f3" d="M395.31,172.82l-1.47,7.36h-.95l.23-1.16a3.77,3.77,0,0,1-2.87,1.23,3,3,0,0,1-3.21-3.12,4.15,4.15,0,0,1,4.17-4.37,2.76,2.76,0,0,1,2.8,1.6l.3-1.54Zm-1.65,3.11a2.16,2.16,0,0,0-2.43-2.3,3.24,3.24,0,0,0-3.19,3.46,2.14,2.14,0,0,0,2.42,2.28A3.22,3.22,0,0,0,393.66,175.93Z"/><path class="e12bdda5-f1b3-4117-8f27-5fccb7c737f3" d="M396.52,179.36l.48-.79a4,4,0,0,0,2.55.82c1.41,0,2.18-.49,2.18-1.32,0-1.67-4.17-.52-4.17-3,0-1.4,1.26-2.3,3.19-2.3a4.5,4.5,0,0,1,2.5.69l-.42.79a3.75,3.75,0,0,0-2.16-.63c-1.36,0-2.13.55-2.13,1.35,0,1.71,4.17.55,4.17,3,0,1.45-1.3,2.29-3.26,2.29A4.69,4.69,0,0,1,396.52,179.36Z"/><path class="e12bdda5-f1b3-4117-8f27-5fccb7c737f3" d="M404.07,179.36l.47-.79a4,4,0,0,0,2.55.82c1.42,0,2.19-.49,2.19-1.32,0-1.67-4.18-.52-4.18-3,0-1.4,1.27-2.3,3.2-2.3a4.47,4.47,0,0,1,2.49.69l-.42.79a3.71,3.71,0,0,0-2.16-.63c-1.35,0-2.13.55-2.13,1.35,0,1.71,4.18.55,4.18,3,0,1.45-1.3,2.29-3.26,2.29A4.65,4.65,0,0,1,404.07,179.36Z"/><path class="e12bdda5-f1b3-4117-8f27-5fccb7c737f3" d="M413.32,176.78c0,.1,0,.2,0,.29,0,1.48.84,2.3,2.53,2.3a3.34,3.34,0,0,0,2.41-.92l.45.71a4.19,4.19,0,0,1-2.94,1.09c-2.13,0-3.43-1.2-3.43-3.13a4.1,4.1,0,0,1,4.07-4.36,2.93,2.93,0,0,1,3.21,3.12,4.35,4.35,0,0,1-.1.9Zm.1-.74h5.25a1.27,1.27,0,0,0,0-.27,2.08,2.08,0,0,0-2.31-2.17A3,3,0,0,0,413.42,176Z"/><path class="e12bdda5-f1b3-4117-8f27-5fccb7c737f3" d="M420.77,179.36l.48-.79a4,4,0,0,0,2.55.82c1.41,0,2.18-.49,2.18-1.32,0-1.67-4.17-.52-4.17-3,0-1.4,1.26-2.3,3.19-2.3a4.47,4.47,0,0,1,2.49.69l-.42.79a3.7,3.7,0,0,0-2.15-.63c-1.36,0-2.13.55-2.13,1.35,0,1.71,4.17.55,4.17,3,0,1.45-1.3,2.29-3.26,2.29A4.65,4.65,0,0,1,420.77,179.36Z"/><path class="e12bdda5-f1b3-4117-8f27-5fccb7c737f3" d="M428.58,179.53a.79.79,0,0,1,.79-.8.7.7,0,0,1,.71.73.77.77,0,0,1-.77.79A.72.72,0,0,1,428.58,179.53Z"/><path class="e12bdda5-f1b3-4117-8f27-5fccb7c737f3" d="M449.49,170.38l-2,9.8h-1l1.55-7.77L443,178.94h-.49l-2.62-6.66-1.57,7.9h-1l2-9.8h.84l2.83,7.28,5.6-7.28Z"/><path class="e12bdda5-f1b3-4117-8f27-5fccb7c737f3" d="M458.87,172.82l-5.38,8.32c-.91,1.4-1.6,1.83-2.66,1.83a2.38,2.38,0,0,1-1.75-.66l.53-.73a1.7,1.7,0,0,0,1.3.54c.63,0,1.12-.3,1.7-1.19l.51-.79-1.83-7.32h1l1.53,6.27,4-6.27Z"/><path class="e12bdda5-f1b3-4117-8f27-5fccb7c737f3" d="M149.26,196.16l.47-.79a4,4,0,0,0,2.55.82c1.42,0,2.19-.49,2.19-1.32,0-1.67-4.18-.52-4.18-3,0-1.4,1.26-2.3,3.2-2.3a4.47,4.47,0,0,1,2.49.69l-.42.8a3.64,3.64,0,0,0-2.16-.64c-1.36,0-2.13.55-2.13,1.35,0,1.71,4.18.55,4.18,3,0,1.45-1.3,2.29-3.27,2.29A4.64,4.64,0,0,1,149.26,196.16Z"/><path class="e12bdda5-f1b3-4117-8f27-5fccb7c737f3" d="M157.52,193.93a4.18,4.18,0,0,1,4.26-4.37,3,3,0,0,1,3.34,3.11,4.18,4.18,0,0,1-4.26,4.38A3,3,0,0,1,157.52,193.93Zm6.61-1.2a2.15,2.15,0,0,0-2.42-2.3,3.24,3.24,0,0,0-3.2,3.46,2.14,2.14,0,0,0,2.42,2.28A3.22,3.22,0,0,0,164.13,192.73Z"/><path class="e12bdda5-f1b3-4117-8f27-5fccb7c737f3" d="M174.76,192a4.3,4.3,0,0,1-.09.84l-.84,4.18h-1l.84-4.2a4.13,4.13,0,0,0,.07-.67c0-1.05-.63-1.65-1.91-1.65a2.87,2.87,0,0,0-3,2.57l-.78,3.95h-1l1.45-7.36h.95l-.23,1.17a3.62,3.62,0,0,1,2.88-1.23C173.79,189.56,174.76,190.46,174.76,192Z"/><path class="e12bdda5-f1b3-4117-8f27-5fccb7c737f3" d="M189.3,192a5.16,5.16,0,0,1-.08.84l-.84,4.18h-1l.84-4.2a4.13,4.13,0,0,0,.07-.67c0-1.05-.63-1.65-1.9-1.65a2.87,2.87,0,0,0-3,2.57l-.78,3.95h-1l2.07-10.39h1l-.83,4.13a3.58,3.58,0,0,1,2.82-1.16A2.31,2.31,0,0,1,189.3,192Z"/><path class="e12bdda5-f1b3-4117-8f27-5fccb7c737f3" d="M200,189.62,198.54,197h-.95l.24-1.16a3.79,3.79,0,0,1-2.88,1.23,3,3,0,0,1-3.2-3.12,4.14,4.14,0,0,1,4.16-4.37,2.76,2.76,0,0,1,2.8,1.6l.31-1.54Zm-1.65,3.11a2.15,2.15,0,0,0-2.42-2.3,3.24,3.24,0,0,0-3.2,3.46,2.14,2.14,0,0,0,2.42,2.28A3.22,3.22,0,0,0,198.36,192.73Z"/><path class="e12bdda5-f1b3-4117-8f27-5fccb7c737f3" d="M201.22,196.16l.48-.79a4,4,0,0,0,2.55.82c1.41,0,2.19-.49,2.19-1.32,0-1.67-4.18-.52-4.18-3,0-1.4,1.26-2.3,3.19-2.3a4.5,4.5,0,0,1,2.5.69l-.42.8a3.66,3.66,0,0,0-2.16-.64c-1.36,0-2.13.55-2.13,1.35,0,1.71,4.18.55,4.18,3,0,1.45-1.31,2.29-3.27,2.29A4.69,4.69,0,0,1,201.22,196.16Z"/><path class="e12bdda5-f1b3-4117-8f27-5fccb7c737f3" d="M213.14,196.16l.47-.79a4.07,4.07,0,0,0,2.55.82c1.42,0,2.19-.49,2.19-1.32,0-1.67-4.18-.52-4.18-3,0-1.4,1.27-2.3,3.2-2.3a4.47,4.47,0,0,1,2.49.69l-.42.8a3.64,3.64,0,0,0-2.16-.64c-1.35,0-2.12.55-2.12,1.35,0,1.71,4.17.55,4.17,3,0,1.45-1.3,2.29-3.26,2.29A4.65,4.65,0,0,1,213.14,196.16Z"/><path class="e12bdda5-f1b3-4117-8f27-5fccb7c737f3" d="M223.07,194.76a2.77,2.77,0,0,0-.06.46c0,.63.35,1,1.06,1a1.9,1.9,0,0,0,1.14-.38l.24.76a2.75,2.75,0,0,1-1.64.47,1.61,1.61,0,0,1-1.8-1.68,2.83,2.83,0,0,1,.06-.57l.86-4.34h-1.31l.16-.84h1.31l.33-1.61h1l-.32,1.61h2.24l-.17.84h-2.24Z"/><path class="e12bdda5-f1b3-4117-8f27-5fccb7c737f3" d="M235.78,189.62,234.31,197h-.95l.24-1.16a3.79,3.79,0,0,1-2.88,1.23,3,3,0,0,1-3.2-3.12,4.14,4.14,0,0,1,4.16-4.37,2.76,2.76,0,0,1,2.8,1.6l.31-1.54Zm-1.65,3.11a2.16,2.16,0,0,0-2.43-2.3,3.24,3.24,0,0,0-3.19,3.46,2.14,2.14,0,0,0,2.42,2.28A3.22,3.22,0,0,0,234.13,192.73Z"/><path class="e12bdda5-f1b3-4117-8f27-5fccb7c737f3" d="M243,189.56l-.18,1-.28,0c-1.57,0-2.62.9-3,2.73l-.75,3.74h-1l1.46-7.36h.95l-.25,1.34A3.3,3.3,0,0,1,243,189.56Z"/><path class="e12bdda5-f1b3-4117-8f27-5fccb7c737f3" d="M245.9,194.76a2.77,2.77,0,0,0-.06.46c0,.63.35,1,1.07,1a1.88,1.88,0,0,0,1.13-.38l.24.76a2.73,2.73,0,0,1-1.64.47,1.6,1.6,0,0,1-1.79-1.68,2.81,2.81,0,0,1,.05-.57l.86-4.34h-1.3l.15-.84h1.32l.32-1.61h1l-.32,1.61h2.24l-.17.84h-2.24Z"/><path class="e12bdda5-f1b3-4117-8f27-5fccb7c737f3" d="M251.34,193.58c0,.1,0,.2,0,.29,0,1.48.84,2.3,2.54,2.3a3.35,3.35,0,0,0,2.41-.92l.44.71a4.19,4.19,0,0,1-2.94,1.09c-2.13,0-3.43-1.2-3.43-3.13a4.1,4.1,0,0,1,4.08-4.36,2.93,2.93,0,0,1,3.2,3.12,5.18,5.18,0,0,1-.09.9Zm.1-.74h5.26a2.53,2.53,0,0,0,0-.27,2.08,2.08,0,0,0-2.31-2.17A3,3,0,0,0,251.44,192.84Z"/><path class="e12bdda5-f1b3-4117-8f27-5fccb7c737f3" d="M268.37,186.59,266.3,197h-.95l.23-1.16a3.77,3.77,0,0,1-2.87,1.23,3,3,0,0,1-3.2-3.12,4.14,4.14,0,0,1,4.16-4.37,2.77,2.77,0,0,1,2.8,1.6l.91-4.57Zm-2.25,6.14a2.16,2.16,0,0,0-2.43-2.3,3.24,3.24,0,0,0-3.19,3.46,2.14,2.14,0,0,0,2.42,2.28A3.22,3.22,0,0,0,266.12,192.73Z"/><path class="e12bdda5-f1b3-4117-8f27-5fccb7c737f3" d="M276.21,186.59h1L275.13,197h-1Z"/><path class="e12bdda5-f1b3-4117-8f27-5fccb7c737f3" d="M278.53,193.93a4.18,4.18,0,0,1,4.26-4.37,3,3,0,0,1,3.35,3.11,4.18,4.18,0,0,1-4.26,4.38A3,3,0,0,1,278.53,193.93Zm6.61-1.2a2.15,2.15,0,0,0-2.42-2.3,3.23,3.23,0,0,0-3.19,3.46,2.14,2.14,0,0,0,2.42,2.28A3.22,3.22,0,0,0,285.14,192.73Z"/><path class="e12bdda5-f1b3-4117-8f27-5fccb7c737f3" d="M288,193.93a4.18,4.18,0,0,1,4.26-4.37,3,3,0,0,1,3.35,3.11,4.18,4.18,0,0,1-4.26,4.38A3,3,0,0,1,288,193.93Zm6.61-1.2a2.15,2.15,0,0,0-2.42-2.3,3.24,3.24,0,0,0-3.2,3.46,2.15,2.15,0,0,0,2.43,2.28A3.22,3.22,0,0,0,294.62,192.73Z"/><path class="e12bdda5-f1b3-4117-8f27-5fccb7c737f3" d="M301.82,192.66l2.64,4.32H303.3L301,193.26,299,194.85l-.42,2.13h-1l2.07-10.39h1l-1.41,7,5.08-4h1.41Z"/><path class="e12bdda5-f1b3-4117-8f27-5fccb7c737f3" d="M307.86,189.62h1L307.4,197h-1Zm.25-2.27a.76.76,0,0,1,.78-.76.65.65,0,0,1,.68.63.76.76,0,0,1-.78.79A.66.66,0,0,1,308.11,187.35Z"/><path class="e12bdda5-f1b3-4117-8f27-5fccb7c737f3" d="M318.56,192a5.16,5.16,0,0,1-.08.84l-.84,4.18h-1l.84-4.2a3.25,3.25,0,0,0,.07-.67c0-1.05-.63-1.65-1.9-1.65a2.87,2.87,0,0,0-3,2.57l-.78,3.95h-1l1.46-7.36h.95l-.24,1.17a3.66,3.66,0,0,1,2.89-1.23C317.6,189.56,318.56,190.46,318.56,192Z"/><path class="e12bdda5-f1b3-4117-8f27-5fccb7c737f3" d="M329.37,189.62l-1.29,6.47c-.52,2.6-1.89,3.68-4.29,3.68a4.68,4.68,0,0,1-3.27-1.1l.59-.76a3.84,3.84,0,0,0,2.75,1,2.88,2.88,0,0,0,3.2-2.63l.17-.82a3.8,3.8,0,0,1-2.94,1.26c-2,0-3.25-1.13-3.25-3a4.07,4.07,0,0,1,4.2-4.17,2.82,2.82,0,0,1,2.87,1.68l.31-1.62Zm-1.68,2.95c0-1.34-.91-2.14-2.44-2.14a3.13,3.13,0,0,0-3.21,3.25c0,1.34.9,2.14,2.44,2.14A3.13,3.13,0,0,0,327.69,192.57Z"/><path class="e12bdda5-f1b3-4117-8f27-5fccb7c737f3" d="M338.52,188.8l-.17.82h2.26l-.17.84h-2.23l-1.3,6.52h-1l1.3-6.52H335.9l.16-.84h1.33l.18-.93a2.42,2.42,0,0,1,2.52-2.17,2.26,2.26,0,0,1,1.49.48l-.44.73a1.53,1.53,0,0,0-1.05-.37C339.22,187.36,338.73,187.81,338.52,188.8Z"/><path class="e12bdda5-f1b3-4117-8f27-5fccb7c737f3" d="M341,193.93a4.18,4.18,0,0,1,4.26-4.37,3,3,0,0,1,3.35,3.11,4.18,4.18,0,0,1-4.26,4.38A3,3,0,0,1,341,193.93Zm6.61-1.2a2.15,2.15,0,0,0-2.42-2.3,3.24,3.24,0,0,0-3.2,3.46,2.15,2.15,0,0,0,2.43,2.28A3.22,3.22,0,0,0,347.61,192.73Z"/><path class="e12bdda5-f1b3-4117-8f27-5fccb7c737f3" d="M355.73,189.56l-.18,1-.28,0c-1.57,0-2.62.9-3,2.73l-.74,3.74h-1l1.45-7.36h1L352.7,191A3.33,3.33,0,0,1,355.73,189.56Z"/><path class="e12bdda5-f1b3-4117-8f27-5fccb7c737f3" d="M369.41,189.62,365.25,197h-1l-1.24-6-3.44,6h-1l-1.44-7.36h.91l1.19,6.24,3.56-6.24h.84l1.23,6.24,3.51-6.24Z"/><path class="e12bdda5-f1b3-4117-8f27-5fccb7c737f3" d="M378.06,189.62,376.59,197h-.95l.24-1.16a3.78,3.78,0,0,1-2.88,1.23,3,3,0,0,1-3.2-3.12,4.14,4.14,0,0,1,4.16-4.37,2.76,2.76,0,0,1,2.8,1.6l.31-1.54Zm-1.65,3.11a2.15,2.15,0,0,0-2.42-2.3,3.24,3.24,0,0,0-3.2,3.46,2.14,2.14,0,0,0,2.42,2.28A3.22,3.22,0,0,0,376.41,192.73Z"/><path class="e12bdda5-f1b3-4117-8f27-5fccb7c737f3" d="M385.24,189.56l-.18,1-.28,0c-1.57,0-2.62.9-3,2.73l-.75,3.74h-1l1.46-7.36h1l-.25,1.34A3.3,3.3,0,0,1,385.24,189.56Z"/><path class="e12bdda5-f1b3-4117-8f27-5fccb7c737f3" d="M395,186.59,392.91,197h-1l.24-1.16a3.77,3.77,0,0,1-2.87,1.23,3,3,0,0,1-3.21-3.12,4.15,4.15,0,0,1,4.16-4.37,2.77,2.77,0,0,1,2.8,1.6l.91-4.57Zm-2.26,6.14a2.15,2.15,0,0,0-2.42-2.3,3.23,3.23,0,0,0-3.19,3.46,2.14,2.14,0,0,0,2.42,2.28A3.22,3.22,0,0,0,392.73,192.73Z"/><path class="e12bdda5-f1b3-4117-8f27-5fccb7c737f3" d="M403.52,188.8l-.16.82h2.25l-.17.84h-2.22L401.91,197h-1l1.3-6.52H400.9l.16-.84h1.33l.18-.93a2.42,2.42,0,0,1,2.52-2.17,2.26,2.26,0,0,1,1.49.48l-.44.73a1.53,1.53,0,0,0-1.05-.37C404.22,187.36,403.73,187.81,403.52,188.8Z"/><path class="e12bdda5-f1b3-4117-8f27-5fccb7c737f3" d="M406,193.93a4.18,4.18,0,0,1,4.26-4.37,3,3,0,0,1,3.35,3.11,4.18,4.18,0,0,1-4.26,4.38A3,3,0,0,1,406,193.93Zm6.61-1.2a2.15,2.15,0,0,0-2.42-2.3,3.23,3.23,0,0,0-3.19,3.46,2.14,2.14,0,0,0,2.42,2.28A3.22,3.22,0,0,0,412.61,192.73Z"/><path class="e12bdda5-f1b3-4117-8f27-5fccb7c737f3" d="M420.73,189.56l-.18,1-.28,0c-1.57,0-2.62.9-3,2.73l-.75,3.74h-1l1.46-7.36H418l-.25,1.34A3.3,3.3,0,0,1,420.73,189.56Z"/><path class="e12bdda5-f1b3-4117-8f27-5fccb7c737f3" d="M427.83,194.76a2.77,2.77,0,0,0-.06.46c0,.63.35,1,1.07,1a1.9,1.9,0,0,0,1.13-.38l.24.76a2.73,2.73,0,0,1-1.64.47,1.6,1.6,0,0,1-1.79-1.68,2.81,2.81,0,0,1,.05-.57l.86-4.34h-1.31l.16-.84h1.32l.32-1.61h1l-.32,1.61h2.24l-.17.84h-2.24Z"/><path class="e12bdda5-f1b3-4117-8f27-5fccb7c737f3" d="M440.3,192a4.25,4.25,0,0,1-.08.84l-.84,4.18h-1l.84-4.2a4.13,4.13,0,0,0,.07-.67c0-1.05-.63-1.65-1.91-1.65a2.87,2.87,0,0,0-3,2.57l-.78,3.95h-1l2.08-10.39h1l-.82,4.13a3.58,3.58,0,0,1,2.81-1.16C439.34,189.56,440.3,190.46,440.3,192Z"/><path class="e12bdda5-f1b3-4117-8f27-5fccb7c737f3" d="M443.74,193.58c0,.1,0,.2,0,.29,0,1.48.84,2.3,2.54,2.3a3.35,3.35,0,0,0,2.41-.92l.44.71a4.19,4.19,0,0,1-2.94,1.09c-2.13,0-3.43-1.2-3.43-3.13a4.1,4.1,0,0,1,4.08-4.36,2.93,2.93,0,0,1,3.2,3.12,5.18,5.18,0,0,1-.09.9Zm.1-.74h5.26a2.53,2.53,0,0,0,0-.27,2.08,2.08,0,0,0-2.31-2.17A3,3,0,0,0,443.84,192.84Z"/><path class="e12bdda5-f1b3-4117-8f27-5fccb7c737f3" d="M144.21,210.73a4.18,4.18,0,0,1,4.29-4.37,3.08,3.08,0,0,1,2.9,1.47l-.84.49a2.28,2.28,0,0,0-2.15-1.09,3.23,3.23,0,0,0-3.2,3.46,2.15,2.15,0,0,0,2.45,2.28,2.84,2.84,0,0,0,2.32-1.06l.72.54a3.8,3.8,0,0,1-3.09,1.4C145.51,213.85,144.21,212.62,144.21,210.73Z"/><path class="e12bdda5-f1b3-4117-8f27-5fccb7c737f3" d="M154.82,203.39h1l-2.07,10.39h-1Z"/><path class="e12bdda5-f1b3-4117-8f27-5fccb7c737f3" d="M165.41,206.42l-1.47,7.36H163l.24-1.16a3.79,3.79,0,0,1-2.88,1.23,3,3,0,0,1-3.2-3.12,4.14,4.14,0,0,1,4.16-4.37,2.76,2.76,0,0,1,2.8,1.6l.31-1.54Zm-1.65,3.11a2.16,2.16,0,0,0-2.43-2.3,3.24,3.24,0,0,0-3.19,3.46,2.14,2.14,0,0,0,2.42,2.28A3.22,3.22,0,0,0,163.76,209.53Z"/><path class="e12bdda5-f1b3-4117-8f27-5fccb7c737f3" d="M166.62,213l.48-.79a4,4,0,0,0,2.55.82c1.41,0,2.18-.49,2.18-1.32,0-1.67-4.17-.52-4.17-3,0-1.4,1.26-2.3,3.19-2.3a4.5,4.5,0,0,1,2.5.69l-.42.8a3.66,3.66,0,0,0-2.16-.64c-1.36,0-2.13.55-2.13,1.35,0,1.71,4.18.55,4.18,3,0,1.45-1.31,2.29-3.27,2.29A4.69,4.69,0,0,1,166.62,213Z"/><path class="e12bdda5-f1b3-4117-8f27-5fccb7c737f3" d="M174.17,213l.48-.79a4,4,0,0,0,2.55.82c1.41,0,2.18-.49,2.18-1.32,0-1.67-4.17-.52-4.17-3,0-1.4,1.26-2.3,3.19-2.3a4.47,4.47,0,0,1,2.49.69l-.42.8a3.63,3.63,0,0,0-2.15-.64c-1.36,0-2.13.55-2.13,1.35,0,1.71,4.17.55,4.17,3,0,1.45-1.3,2.29-3.26,2.29A4.65,4.65,0,0,1,174.17,213Z"/><path class="e12bdda5-f1b3-4117-8f27-5fccb7c737f3" d="M183.42,210.38c0,.1,0,.2,0,.29,0,1.48.84,2.3,2.54,2.3a3.35,3.35,0,0,0,2.41-.92l.44.71a4.19,4.19,0,0,1-2.94,1.09c-2.13,0-3.43-1.2-3.43-3.13a4.1,4.1,0,0,1,4.08-4.36,2.93,2.93,0,0,1,3.2,3.12,5.18,5.18,0,0,1-.09.9Zm.1-.74h5.26a2.53,2.53,0,0,0,0-.27,2.08,2.08,0,0,0-2.31-2.17A3,3,0,0,0,183.52,209.64Z"/><path class="e12bdda5-f1b3-4117-8f27-5fccb7c737f3" d="M190.87,213l.48-.79a4,4,0,0,0,2.55.82c1.41,0,2.18-.49,2.18-1.32,0-1.67-4.17-.52-4.17-3,0-1.4,1.26-2.3,3.19-2.3a4.5,4.5,0,0,1,2.5.69l-.43.8a3.63,3.63,0,0,0-2.15-.64c-1.36,0-2.13.55-2.13,1.35,0,1.71,4.17.55,4.17,3,0,1.45-1.3,2.29-3.26,2.29A4.67,4.67,0,0,1,190.87,213Z"/><path class="e12bdda5-f1b3-4117-8f27-5fccb7c737f3" d="M204.5,210.38a1.46,1.46,0,0,0,0,.29c0,1.48.84,2.3,2.54,2.3a3.35,3.35,0,0,0,2.41-.92l.44.71a4.19,4.19,0,0,1-2.94,1.09c-2.13,0-3.43-1.2-3.43-3.13a4.1,4.1,0,0,1,4.08-4.36,2.93,2.93,0,0,1,3.2,3.12,5.18,5.18,0,0,1-.09.9Zm.09-.74h5.26a2.53,2.53,0,0,0,0-.27,2.08,2.08,0,0,0-2.31-2.17A3,3,0,0,0,204.59,209.64Z"/><path class="e12bdda5-f1b3-4117-8f27-5fccb7c737f3" d="M220.25,206.42l-4.74,7.36h-1l-1.82-7.36h1l1.53,6.29,4-6.29Z"/><path class="e12bdda5-f1b3-4117-8f27-5fccb7c737f3" d="M221.59,210.38a1.46,1.46,0,0,0,0,.29c0,1.48.84,2.3,2.54,2.3a3.35,3.35,0,0,0,2.41-.92l.45.71a4.22,4.22,0,0,1-2.94,1.09c-2.13,0-3.44-1.2-3.44-3.13a4.11,4.11,0,0,1,4.08-4.36,2.93,2.93,0,0,1,3.21,3.12,4.35,4.35,0,0,1-.1.9Zm.1-.74h5.25a2.53,2.53,0,0,0,0-.27,2.08,2.08,0,0,0-2.31-2.17A3,3,0,0,0,221.69,209.64Z"/><path class="e12bdda5-f1b3-4117-8f27-5fccb7c737f3" d="M235,206.36l-.18,1-.28,0c-1.57,0-2.62.9-3,2.73l-.75,3.74h-1l1.46-7.36h.95l-.25,1.34A3.31,3.31,0,0,1,235,206.36Z"/><path class="e12bdda5-f1b3-4117-8f27-5fccb7c737f3" d="M244,206.42l-5.38,8.32c-.91,1.4-1.6,1.83-2.66,1.83a2.42,2.42,0,0,1-1.76-.66l.54-.73a1.7,1.7,0,0,0,1.3.54c.63,0,1.12-.3,1.69-1.19l.52-.79-1.83-7.32h1l1.52,6.27,4-6.27Z"/><path class="e12bdda5-f1b3-4117-8f27-5fccb7c737f3" d="M262.08,208.73a4.74,4.74,0,0,1-.1.87l-.84,4.18h-1l.84-4.2a2.81,2.81,0,0,0,.07-.68c0-1-.6-1.64-1.82-1.64a2.76,2.76,0,0,0-2.86,2.46l-.81,4.06h-1l.84-4.2a3.25,3.25,0,0,0,.07-.67c0-1-.58-1.65-1.82-1.65a2.81,2.81,0,0,0-2.88,2.57l-.79,3.95h-1l1.46-7.36h.95l-.24,1.17a3.45,3.45,0,0,1,2.79-1.23,2.3,2.3,0,0,1,2.41,1.47,3.73,3.73,0,0,1,3.11-1.47C261.14,206.36,262.08,207.24,262.08,208.73Z"/><path class="e12bdda5-f1b3-4117-8f27-5fccb7c737f3" d="M264.51,210.73a4.18,4.18,0,0,1,4.26-4.37,3,3,0,0,1,3.35,3.11,4.18,4.18,0,0,1-4.26,4.38A3,3,0,0,1,264.51,210.73Zm6.61-1.2a2.15,2.15,0,0,0-2.42-2.3,3.23,3.23,0,0,0-3.19,3.46,2.14,2.14,0,0,0,2.42,2.28A3.22,3.22,0,0,0,271.12,209.53Z"/><path class="e12bdda5-f1b3-4117-8f27-5fccb7c737f3" d="M279.24,206.36l-.18,1-.28,0c-1.57,0-2.62.9-3,2.73l-.75,3.74h-1l1.46-7.36h1l-.25,1.34A3.3,3.3,0,0,1,279.24,206.36Z"/><path class="e12bdda5-f1b3-4117-8f27-5fccb7c737f3" d="M288,208.76a5.16,5.16,0,0,1-.08.84l-.84,4.18h-1l.84-4.2a4.13,4.13,0,0,0,.07-.67c0-1-.63-1.65-1.9-1.65a2.87,2.87,0,0,0-3,2.57l-.78,3.95h-1l1.46-7.36h.95l-.24,1.17a3.66,3.66,0,0,1,2.89-1.23A2.31,2.31,0,0,1,288,208.76Z"/><path class="e12bdda5-f1b3-4117-8f27-5fccb7c737f3" d="M291.9,206.42h1l-1.46,7.36h-1Zm.25-2.27a.75.75,0,0,1,.77-.76.65.65,0,0,1,.68.63.76.76,0,0,1-.78.79A.66.66,0,0,1,292.15,204.15Z"/><path class="e12bdda5-f1b3-4117-8f27-5fccb7c737f3" d="M302.59,208.76a4.25,4.25,0,0,1-.08.84l-.84,4.18h-1l.84-4.2a4.13,4.13,0,0,0,.07-.67c0-1-.63-1.65-1.91-1.65a2.87,2.87,0,0,0-3,2.57l-.78,3.95h-1l1.46-7.36h.95l-.23,1.17a3.62,3.62,0,0,1,2.88-1.23C301.63,206.36,302.59,207.26,302.59,208.76Z"/><path class="e12bdda5-f1b3-4117-8f27-5fccb7c737f3" d="M313.4,206.42l-1.29,6.47c-.51,2.6-1.89,3.68-4.28,3.68a4.7,4.7,0,0,1-3.28-1.1l.59-.76a3.86,3.86,0,0,0,2.76,1,2.89,2.89,0,0,0,3.19-2.63l.17-.82a3.8,3.8,0,0,1-2.94,1.26c-1.95,0-3.25-1.13-3.25-3a4.07,4.07,0,0,1,4.2-4.17,2.82,2.82,0,0,1,2.87,1.68l.31-1.62Zm-1.68,3c0-1.34-.91-2.14-2.44-2.14a3.12,3.12,0,0,0-3.2,3.25c0,1.34.89,2.14,2.43,2.14A3.13,3.13,0,0,0,311.72,209.37Z"/><path class="e12bdda5-f1b3-4117-8f27-5fccb7c737f3" d="M316.39,213.06a1.38,1.38,0,0,1-.26.74l-1.07,2h-.67l.9-2.06a.69.69,0,0,1-.39-.64.78.78,0,0,1,.78-.8A.7.7,0,0,1,316.39,213.06Z"/><path class="e12bdda5-f1b3-4117-8f27-5fccb7c737f3" d="M325.05,211.56a2.64,2.64,0,0,0-.06.46c0,.63.35,1,1.07,1a1.9,1.9,0,0,0,1.13-.38l.24.76a2.73,2.73,0,0,1-1.64.47,1.6,1.6,0,0,1-1.79-1.68,2.81,2.81,0,0,1,.05-.57l.86-4.34H323.6l.16-.84h1.32l.32-1.61h1l-.32,1.61h2.24l-.17.84H325.9Z"/><path class="e12bdda5-f1b3-4117-8f27-5fccb7c737f3" d="M335,206.36l-.19,1-.28,0c-1.56,0-2.61.9-3,2.73l-.74,3.74h-1l1.46-7.36h.95l-.25,1.34A3.33,3.33,0,0,1,335,206.36Z"/><path class="e12bdda5-f1b3-4117-8f27-5fccb7c737f3" d="M344,206.42l-5.38,8.32c-.91,1.4-1.6,1.83-2.66,1.83a2.38,2.38,0,0,1-1.75-.66l.53-.73a1.7,1.7,0,0,0,1.3.54c.63,0,1.12-.3,1.7-1.19l.52-.79-1.84-7.32h1l1.53,6.27,4-6.27Z"/><path class="e12bdda5-f1b3-4117-8f27-5fccb7c737f3" d="M346.1,206.42h1l-1.46,7.36h-1Zm.25-2.27a.76.76,0,0,1,.77-.76.66.66,0,0,1,.69.63.77.77,0,0,1-.78.79A.66.66,0,0,1,346.35,204.15Z"/><path class="e12bdda5-f1b3-4117-8f27-5fccb7c737f3" d="M356.8,208.76a5.16,5.16,0,0,1-.08.84l-.84,4.18h-1l.84-4.2a4.13,4.13,0,0,0,.07-.67c0-1-.63-1.65-1.9-1.65a2.87,2.87,0,0,0-3,2.57l-.78,3.95h-1l1.46-7.36h.95l-.24,1.17a3.66,3.66,0,0,1,2.89-1.23A2.31,2.31,0,0,1,356.8,208.76Z"/><path class="e12bdda5-f1b3-4117-8f27-5fccb7c737f3" d="M367.61,206.42l-1.29,6.47c-.52,2.6-1.89,3.68-4.29,3.68a4.68,4.68,0,0,1-3.27-1.1l.59-.76a3.84,3.84,0,0,0,2.75,1,2.89,2.89,0,0,0,3.2-2.63l.17-.82a3.81,3.81,0,0,1-3,1.26,2.91,2.91,0,0,1-3.24-3,4.07,4.07,0,0,1,4.2-4.17,2.82,2.82,0,0,1,2.87,1.68l.31-1.62Zm-1.68,3c0-1.34-.91-2.14-2.44-2.14a3.13,3.13,0,0,0-3.21,3.25c0,1.34.9,2.14,2.44,2.14A3.13,3.13,0,0,0,365.93,209.37Z"/><path class="e12bdda5-f1b3-4117-8f27-5fccb7c737f3" d="M375.59,211.56a2.64,2.64,0,0,0-.06.46c0,.63.35,1,1.06,1a1.9,1.9,0,0,0,1.14-.38l.24.76a2.75,2.75,0,0,1-1.64.47,1.6,1.6,0,0,1-1.79-1.68,2.81,2.81,0,0,1,0-.57l.86-4.34h-1.31l.16-.84h1.31l.33-1.61h1l-.32,1.61h2.24l-.17.84h-2.24Z"/><path class="e12bdda5-f1b3-4117-8f27-5fccb7c737f3" d="M380,210.73a4.18,4.18,0,0,1,4.25-4.37,3,3,0,0,1,3.35,3.11,4.18,4.18,0,0,1-4.26,4.38A3,3,0,0,1,380,210.73Zm6.61-1.2a2.15,2.15,0,0,0-2.42-2.3,3.24,3.24,0,0,0-3.2,3.46,2.14,2.14,0,0,0,2.42,2.28A3.22,3.22,0,0,0,386.65,209.53Z"/><path class="e12bdda5-f1b3-4117-8f27-5fccb7c737f3" d="M402.22,209.47a4.15,4.15,0,0,1-4.18,4.38,2.72,2.72,0,0,1-2.81-1.68l-.32,1.61h-1L396,203.39h1l-.83,4.13a3.75,3.75,0,0,1,2.81-1.16A3,3,0,0,1,402.22,209.47Zm-1,.06a2.15,2.15,0,0,0-2.42-2.3,3.21,3.21,0,0,0-3.18,3.46A2.14,2.14,0,0,0,398,213,3.21,3.21,0,0,0,401.21,209.53Z"/><path class="e12bdda5-f1b3-4117-8f27-5fccb7c737f3" d="M405.07,210.38c0,.1,0,.2,0,.29,0,1.48.84,2.3,2.53,2.3a3.35,3.35,0,0,0,2.41-.92l.45.71a4.21,4.21,0,0,1-2.94,1.09c-2.13,0-3.43-1.2-3.43-3.13a4.1,4.1,0,0,1,4.07-4.36,2.93,2.93,0,0,1,3.21,3.12,4.35,4.35,0,0,1-.1.9Zm.1-.74h5.25a2.53,2.53,0,0,0,0-.27,2.07,2.07,0,0,0-2.31-2.17A3,3,0,0,0,405.17,209.64Z"/><path class="e12bdda5-f1b3-4117-8f27-5fccb7c737f3" d="M419.12,206.42h1l-1.46,7.36h-1Zm.26-2.27a.75.75,0,0,1,.77-.76.65.65,0,0,1,.68.63.76.76,0,0,1-.78.79A.66.66,0,0,1,419.38,204.15Z"/><path class="e12bdda5-f1b3-4117-8f27-5fccb7c737f3" d="M429.82,208.76a4.25,4.25,0,0,1-.08.84l-.84,4.18h-1l.84-4.2a4.13,4.13,0,0,0,.07-.67c0-1-.63-1.65-1.91-1.65a2.87,2.87,0,0,0-3,2.57l-.78,3.95h-1l1.46-7.36h1l-.23,1.17a3.62,3.62,0,0,1,2.88-1.23C428.86,206.36,429.82,207.26,429.82,208.76Z"/><path class="e12bdda5-f1b3-4117-8f27-5fccb7c737f3" d="M441.14,203.39l-2.08,10.39h-.95l.24-1.16a3.77,3.77,0,0,1-2.87,1.23,3,3,0,0,1-3.21-3.12,4.15,4.15,0,0,1,4.16-4.37,2.77,2.77,0,0,1,2.8,1.6l.91-4.57Zm-2.26,6.14a2.15,2.15,0,0,0-2.42-2.3,3.24,3.24,0,0,0-3.2,3.46,2.15,2.15,0,0,0,2.43,2.28A3.22,3.22,0,0,0,438.88,209.53Z"/><path class="e12bdda5-f1b3-4117-8f27-5fccb7c737f3" d="M443.46,210.38a1.46,1.46,0,0,0,0,.29c0,1.48.84,2.3,2.54,2.3a3.35,3.35,0,0,0,2.41-.92l.45.71a4.23,4.23,0,0,1-2.95,1.09c-2.13,0-3.43-1.2-3.43-3.13a4.11,4.11,0,0,1,4.08-4.36,2.93,2.93,0,0,1,3.21,3.12,5.16,5.16,0,0,1-.1.9Zm.09-.74h5.26a2.53,2.53,0,0,0,0-.27,2.08,2.08,0,0,0-2.31-2.17A3,3,0,0,0,443.55,209.64Z"/><path class="e12bdda5-f1b3-4117-8f27-5fccb7c737f3" d="M452,209.55h3.67l-.17.87h-3.67Z"/><path class="e12bdda5-f1b3-4117-8f27-5fccb7c737f3" d="M140.1,226.27a4.15,4.15,0,0,1-4.17,4.38,2.76,2.76,0,0,1-2.81-1.61l-.84,4.26h-1l2-10.08h1l-.23,1.17a3.74,3.74,0,0,1,2.87-1.23A3,3,0,0,1,140.1,226.27Zm-1,.06a2.15,2.15,0,0,0-2.42-2.3,3.21,3.21,0,0,0-3.18,3.46,2.14,2.14,0,0,0,2.42,2.28A3.21,3.21,0,0,0,139.09,226.33Z"/><path class="e12bdda5-f1b3-4117-8f27-5fccb7c737f3" d="M143,227.18c0,.1,0,.2,0,.29,0,1.48.84,2.3,2.53,2.3a3.34,3.34,0,0,0,2.41-.92l.45.71a4.21,4.21,0,0,1-2.94,1.09c-2.13,0-3.43-1.2-3.43-3.13a4.1,4.1,0,0,1,4.07-4.36,2.93,2.93,0,0,1,3.21,3.12,4.35,4.35,0,0,1-.1.9Zm.1-.74h5.25a1.27,1.27,0,0,0,0-.27A2.08,2.08,0,0,0,146,224,3,3,0,0,0,143.05,226.44Z"/><path class="e12bdda5-f1b3-4117-8f27-5fccb7c737f3" d="M158.87,225.56a5.16,5.16,0,0,1-.08.84l-.84,4.18h-1l.84-4.2a3.25,3.25,0,0,0,.07-.67c0-1.05-.63-1.65-1.9-1.65a2.87,2.87,0,0,0-3,2.57l-.78,4h-1l1.46-7.36h1l-.24,1.17a3.66,3.66,0,0,1,2.89-1.23C157.91,223.16,158.87,224.06,158.87,225.56Z"/><path class="e12bdda5-f1b3-4117-8f27-5fccb7c737f3" d="M170.19,220.19l-2.08,10.39h-1l.24-1.16a3.77,3.77,0,0,1-2.87,1.23,3,3,0,0,1-3.21-3.12,4.14,4.14,0,0,1,4.16-4.37,2.77,2.77,0,0,1,2.8,1.6l.91-4.57Zm-2.26,6.14a2.15,2.15,0,0,0-2.42-2.3,3.24,3.24,0,0,0-3.2,3.46,2.15,2.15,0,0,0,2.43,2.28A3.22,3.22,0,0,0,167.93,226.33Z"/><path class="e12bdda5-f1b3-4117-8f27-5fccb7c737f3" d="M172.5,227.18c0,.1,0,.2,0,.29,0,1.48.84,2.3,2.54,2.3a3.35,3.35,0,0,0,2.41-.92l.44.71a4.19,4.19,0,0,1-2.94,1.09c-2.13,0-3.43-1.2-3.43-3.13a4.1,4.1,0,0,1,4.08-4.36,2.93,2.93,0,0,1,3.2,3.12,5.18,5.18,0,0,1-.09.9Zm.1-.74h5.26a2.53,2.53,0,0,0,0-.27,2.08,2.08,0,0,0-2.31-2.17A3,3,0,0,0,172.6,226.44Z"/><path class="e12bdda5-f1b3-4117-8f27-5fccb7c737f3" d="M188.43,225.56a4.3,4.3,0,0,1-.09.84l-.84,4.18h-1l.84-4.2a4.13,4.13,0,0,0,.07-.67c0-1.05-.63-1.65-1.91-1.65a2.86,2.86,0,0,0-3,2.57l-.79,4h-1l1.45-7.36h1l-.24,1.17a3.62,3.62,0,0,1,2.88-1.23C187.46,223.16,188.43,224.06,188.43,225.56Z"/><path class="e12bdda5-f1b3-4117-8f27-5fccb7c737f3" d="M192.51,228.36a2.58,2.58,0,0,0,0,.46c0,.63.35,1,1.06,1a1.85,1.85,0,0,0,1.13-.38l.24.76a2.73,2.73,0,0,1-1.64.47,1.61,1.61,0,0,1-1.79-1.68,2.26,2.26,0,0,1,.06-.57l.85-4.34h-1.3l.15-.84h1.32l.32-1.62h1l-.33,1.62h2.24l-.16.84h-2.24Z"/><path class="e12bdda5-f1b3-4117-8f27-5fccb7c737f3" d="M209.86,223.22l-1.47,7.36h-.95l.24-1.16a3.79,3.79,0,0,1-2.88,1.23,3,3,0,0,1-3.2-3.12,4.14,4.14,0,0,1,4.16-4.37,2.76,2.76,0,0,1,2.8,1.6l.31-1.54Zm-1.65,3.11a2.16,2.16,0,0,0-2.43-2.3,3.24,3.24,0,0,0-3.19,3.46,2.14,2.14,0,0,0,2.42,2.28A3.22,3.22,0,0,0,208.21,226.33Z"/><path class="e12bdda5-f1b3-4117-8f27-5fccb7c737f3" d="M211.07,229.76l.48-.79a4,4,0,0,0,2.55.82c1.41,0,2.18-.49,2.18-1.32,0-1.67-4.17-.52-4.17-3,0-1.4,1.26-2.3,3.19-2.3a4.5,4.5,0,0,1,2.5.69l-.42.79a3.73,3.73,0,0,0-2.16-.63c-1.36,0-2.13.55-2.13,1.35,0,1.71,4.17.55,4.17,3,0,1.45-1.3,2.29-3.26,2.29A4.69,4.69,0,0,1,211.07,229.76Z"/><path class="e12bdda5-f1b3-4117-8f27-5fccb7c737f3" d="M232,226.27a4.15,4.15,0,0,1-4.18,4.38,2.75,2.75,0,0,1-2.8-1.61l-.84,4.26h-1l2-10.08h1l-.24,1.17a3.74,3.74,0,0,1,2.87-1.23A3,3,0,0,1,232,226.27Zm-1,.06a2.16,2.16,0,0,0-2.43-2.3,3.22,3.22,0,0,0-3.18,3.46,2.15,2.15,0,0,0,2.43,2.28A3.21,3.21,0,0,0,231,226.33Z"/><path class="e12bdda5-f1b3-4117-8f27-5fccb7c737f3" d="M234.89,227.18a1.46,1.46,0,0,0,0,.29c0,1.48.84,2.3,2.54,2.3a3.35,3.35,0,0,0,2.41-.92l.45.71a4.22,4.22,0,0,1-2.94,1.09c-2.13,0-3.44-1.2-3.44-3.13a4.11,4.11,0,0,1,4.08-4.36,2.93,2.93,0,0,1,3.21,3.12,4.35,4.35,0,0,1-.1.9Zm.1-.74h5.25a2.53,2.53,0,0,0,0-.27,2.08,2.08,0,0,0-2.31-2.17A3,3,0,0,0,235,226.44Z"/><path class="e12bdda5-f1b3-4117-8f27-5fccb7c737f3" d="M248.3,223.16l-.18,1-.28,0c-1.57,0-2.62.9-3,2.73l-.75,3.74h-1l1.46-7.36h.95l-.25,1.34A3.31,3.31,0,0,1,248.3,223.16Z"/><path class="e12bdda5-f1b3-4117-8f27-5fccb7c737f3" d="M261.46,223.22l-5.38,8.32c-.91,1.4-1.59,1.83-2.66,1.83a2.41,2.41,0,0,1-1.75-.66l.53-.73a1.74,1.74,0,0,0,1.31.54c.63,0,1.12-.3,1.69-1.19l.52-.79-1.83-7.32h1l1.53,6.27,4-6.27Z"/><path class="e12bdda5-f1b3-4117-8f27-5fccb7c737f3" d="M261.81,227.53a4.18,4.18,0,0,1,4.26-4.37,3,3,0,0,1,3.34,3.11,4.18,4.18,0,0,1-4.25,4.38A3,3,0,0,1,261.81,227.53Zm6.61-1.2A2.15,2.15,0,0,0,266,224a3.24,3.24,0,0,0-3.2,3.46,2.15,2.15,0,0,0,2.43,2.28A3.22,3.22,0,0,0,268.42,226.33Z"/><path class="e12bdda5-f1b3-4117-8f27-5fccb7c737f3" d="M279.47,223.22,278,230.58h-1l.24-1.17a3.56,3.56,0,0,1-2.84,1.24,2.31,2.31,0,0,1-2.62-2.41,4.83,4.83,0,0,1,.08-.82l.84-4.2h1l-.84,4.2a4,4,0,0,0-.07.66c0,1.06.61,1.68,1.88,1.68a2.88,2.88,0,0,0,3-2.58l.78-4Z"/><path class="e12bdda5-f1b3-4117-8f27-5fccb7c737f3" d="M286.66,223.16l-.18,1-.28,0c-1.57,0-2.62.9-3,2.73l-.75,3.74h-1l1.46-7.36h.95l-.25,1.34A3.3,3.3,0,0,1,286.66,223.16Z"/><path class="e12bdda5-f1b3-4117-8f27-5fccb7c737f3" d="M291.38,229.76l.47-.79a4,4,0,0,0,2.55.82c1.42,0,2.19-.49,2.19-1.32,0-1.67-4.18-.52-4.18-3,0-1.4,1.26-2.3,3.2-2.3a4.49,4.49,0,0,1,2.49.69l-.42.79a3.71,3.71,0,0,0-2.16-.63c-1.36,0-2.13.55-2.13,1.35,0,1.71,4.18.55,4.18,3,0,1.45-1.3,2.29-3.27,2.29A4.64,4.64,0,0,1,291.38,229.76Z"/><path class="e12bdda5-f1b3-4117-8f27-5fccb7c737f3" d="M301.3,228.36a4,4,0,0,0-.05.46c0,.63.35,1,1.06,1a1.9,1.9,0,0,0,1.14-.38l.24.76a2.75,2.75,0,0,1-1.64.47,1.61,1.61,0,0,1-1.8-1.68,2.83,2.83,0,0,1,.06-.57l.85-4.34h-1.3l.16-.84h1.31l.32-1.62h1l-.32,1.62h2.24l-.17.84h-2.24Z"/><path class="e12bdda5-f1b3-4117-8f27-5fccb7c737f3" d="M305.75,227.53a4.18,4.18,0,0,1,4.26-4.37,3,3,0,0,1,3.35,3.11,4.18,4.18,0,0,1-4.26,4.38A3,3,0,0,1,305.75,227.53Zm6.62-1.2a2.16,2.16,0,0,0-2.43-2.3,3.24,3.24,0,0,0-3.19,3.46,2.14,2.14,0,0,0,2.42,2.28A3.22,3.22,0,0,0,312.37,226.33Z"/><path class="e12bdda5-f1b3-4117-8f27-5fccb7c737f3" d="M320.49,223.16l-.19,1-.28,0c-1.57,0-2.62.9-3,2.73l-.74,3.74h-1l1.46-7.36h.95l-.25,1.34A3.32,3.32,0,0,1,320.49,223.16Z"/><path class="e12bdda5-f1b3-4117-8f27-5fccb7c737f3" d="M329.49,223.22l-5.38,8.32c-.91,1.4-1.6,1.83-2.66,1.83a2.38,2.38,0,0,1-1.75-.66l.53-.73a1.7,1.7,0,0,0,1.3.54c.63,0,1.12-.3,1.7-1.19l.52-.79-1.84-7.32h1l1.53,6.27,4-6.27Z"/><path class="e12bdda5-f1b3-4117-8f27-5fccb7c737f3" d="M342.68,223.22l-1.47,7.36h-1l.24-1.16a3.77,3.77,0,0,1-2.87,1.23,3,3,0,0,1-3.21-3.12,4.15,4.15,0,0,1,4.16-4.37,2.76,2.76,0,0,1,2.8,1.6l.31-1.54ZM341,226.33a2.15,2.15,0,0,0-2.42-2.3,3.24,3.24,0,0,0-3.19,3.46,2.14,2.14,0,0,0,2.42,2.28A3.22,3.22,0,0,0,341,226.33Z"/><path class="e12bdda5-f1b3-4117-8f27-5fccb7c737f3" d="M352.36,225.56a4.25,4.25,0,0,1-.08.84l-.84,4.18h-1l.84-4.2a4.13,4.13,0,0,0,.07-.67c0-1.05-.63-1.65-1.91-1.65a2.87,2.87,0,0,0-3,2.57l-.78,4h-1l1.46-7.36h.95l-.23,1.17a3.62,3.62,0,0,1,2.88-1.23C351.4,223.16,352.36,224.06,352.36,225.56Z"/><path class="e12bdda5-f1b3-4117-8f27-5fccb7c737f3" d="M363.68,220.19l-2.08,10.39h-1l.24-1.16a3.77,3.77,0,0,1-2.87,1.23,3,3,0,0,1-3.21-3.12,4.15,4.15,0,0,1,4.16-4.37,2.77,2.77,0,0,1,2.8,1.6l.91-4.57Zm-2.26,6.14A2.15,2.15,0,0,0,359,224a3.24,3.24,0,0,0-3.2,3.46,2.15,2.15,0,0,0,2.43,2.28A3.22,3.22,0,0,0,361.42,226.33Z"/><path class="e12bdda5-f1b3-4117-8f27-5fccb7c737f3" d="M377.73,223.22l-1.29,6.47c-.51,2.6-1.89,3.68-4.28,3.68a4.66,4.66,0,0,1-3.28-1.11l.59-.75a3.86,3.86,0,0,0,2.76,1,2.89,2.89,0,0,0,3.19-2.63l.17-.82a3.8,3.8,0,0,1-2.94,1.26c-1.95,0-3.25-1.13-3.25-3a4.07,4.07,0,0,1,4.2-4.17,2.82,2.82,0,0,1,2.87,1.68l.31-1.62Zm-1.68,2.95c0-1.34-.91-2.14-2.44-2.14a3.12,3.12,0,0,0-3.2,3.25c0,1.34.89,2.14,2.43,2.14A3.13,3.13,0,0,0,376.05,226.17Z"/><path class="e12bdda5-f1b3-4117-8f27-5fccb7c737f3" d="M380.67,227.18a1.46,1.46,0,0,0,0,.29c0,1.48.84,2.3,2.54,2.3a3.35,3.35,0,0,0,2.41-.92l.45.71a4.22,4.22,0,0,1-2.94,1.09c-2.13,0-3.44-1.2-3.44-3.13a4.11,4.11,0,0,1,4.08-4.36,2.93,2.93,0,0,1,3.21,3.12,4.35,4.35,0,0,1-.1.9Zm.1-.74H386a2.53,2.53,0,0,0,0-.27,2.08,2.08,0,0,0-2.31-2.17A3,3,0,0,0,380.77,226.44Z"/><path class="e12bdda5-f1b3-4117-8f27-5fccb7c737f3" d="M390.5,228.36a2.64,2.64,0,0,0-.06.46c0,.63.35,1,1.06,1a1.9,1.9,0,0,0,1.14-.38l.24.76a2.73,2.73,0,0,1-1.64.47,1.6,1.6,0,0,1-1.79-1.68,2.81,2.81,0,0,1,.05-.57l.86-4.34h-1.31l.16-.84h1.31l.33-1.62h1l-.32,1.62h2.24l-.17.84h-2.24Z"/><path class="e12bdda5-f1b3-4117-8f27-5fccb7c737f3" d="M394.5,229.76,395,229a4,4,0,0,0,2.54.82c1.42,0,2.19-.49,2.19-1.32,0-1.67-4.17-.52-4.17-3,0-1.4,1.26-2.3,3.19-2.3a4.47,4.47,0,0,1,2.49.69l-.42.79a3.7,3.7,0,0,0-2.15-.63c-1.36,0-2.13.55-2.13,1.35,0,1.71,4.17.55,4.17,3,0,1.45-1.3,2.29-3.26,2.29A4.65,4.65,0,0,1,394.5,229.76Z"/><path class="e12bdda5-f1b3-4117-8f27-5fccb7c737f3" d="M415.31,223.22l-1.47,7.36h-1l.24-1.17a3.56,3.56,0,0,1-2.84,1.24,2.31,2.31,0,0,1-2.62-2.41,4.83,4.83,0,0,1,.08-.82l.84-4.2h1l-.84,4.2a4,4,0,0,0-.07.66c0,1.06.61,1.68,1.87,1.68a2.88,2.88,0,0,0,3-2.58l.78-4Z"/><path class="e12bdda5-f1b3-4117-8f27-5fccb7c737f3" d="M425.58,226.27a4.14,4.14,0,0,1-4.17,4.38,2.75,2.75,0,0,1-2.8-1.61l-.84,4.26h-1l2-10.08h1l-.24,1.17a3.74,3.74,0,0,1,2.87-1.23A3,3,0,0,1,425.58,226.27Zm-1,.06a2.16,2.16,0,0,0-2.43-2.3,3.22,3.22,0,0,0-3.18,3.46,2.15,2.15,0,0,0,2.43,2.28A3.21,3.21,0,0,0,424.58,226.33Z"/><path class="e12bdda5-f1b3-4117-8f27-5fccb7c737f3" d="M432.8,227.18c0,.1,0,.2,0,.29,0,1.48.84,2.3,2.54,2.3a3.31,3.31,0,0,0,2.4-.92l.45.71a4.19,4.19,0,0,1-2.94,1.09c-2.13,0-3.43-1.2-3.43-3.13a4.1,4.1,0,0,1,4.08-4.36,2.93,2.93,0,0,1,3.2,3.12,5.18,5.18,0,0,1-.09.9Zm.1-.74h5.25a1.27,1.27,0,0,0,0-.27,2.08,2.08,0,0,0-2.31-2.17A3,3,0,0,0,432.9,226.44Z"/><path class="e12bdda5-f1b3-4117-8f27-5fccb7c737f3" d="M449.23,223.22l-1.47,7.36h-.95l.23-1.16a3.77,3.77,0,0,1-2.87,1.23,3,3,0,0,1-3.21-3.12,4.15,4.15,0,0,1,4.16-4.37,2.76,2.76,0,0,1,2.81,1.6l.3-1.54Zm-1.65,3.11a2.16,2.16,0,0,0-2.43-2.3,3.24,3.24,0,0,0-3.19,3.46,2.14,2.14,0,0,0,2.42,2.28A3.22,3.22,0,0,0,447.58,226.33Z"/><path class="e12bdda5-f1b3-4117-8f27-5fccb7c737f3" d="M456.41,223.16l-.18,1-.28,0c-1.57,0-2.62.9-3,2.73l-.74,3.74h-1l1.45-7.36h1l-.26,1.34A3.33,3.33,0,0,1,456.41,223.16Z"/><path class="e12bdda5-f1b3-4117-8f27-5fccb7c737f3" d="M459.5,220.19h1l-2.08,10.39h-1Z"/><path class="e12bdda5-f1b3-4117-8f27-5fccb7c737f3" d="M469.56,223.22l-5.38,8.32c-.91,1.4-1.6,1.83-2.66,1.83a2.38,2.38,0,0,1-1.75-.66l.53-.73a1.7,1.7,0,0,0,1.3.54c.63,0,1.12-.3,1.69-1.19l.52-.79L462,223.22h1l1.52,6.27,4-6.27Z"/><path class="e12bdda5-f1b3-4117-8f27-5fccb7c737f3" d="M181.8,240l-1.47,7.36h-1l.24-1.16a3.77,3.77,0,0,1-2.87,1.23,3,3,0,0,1-3.21-3.12,4.15,4.15,0,0,1,4.16-4.37,2.76,2.76,0,0,1,2.8,1.6l.31-1.54Zm-1.66,3.11a2.15,2.15,0,0,0-2.42-2.3,3.24,3.24,0,0,0-3.19,3.46,2.14,2.14,0,0,0,2.42,2.28A3.21,3.21,0,0,0,180.14,243.13Z"/><path class="e12bdda5-f1b3-4117-8f27-5fccb7c737f3" d="M191.48,242.36a4.25,4.25,0,0,1-.08.84l-.84,4.18h-1l.84-4.2a4.13,4.13,0,0,0,.07-.67c0-1-.63-1.65-1.91-1.65a2.87,2.87,0,0,0-3,2.57l-.78,3.95h-1l1.46-7.36h.95l-.23,1.17a3.62,3.62,0,0,1,2.88-1.23C190.52,240,191.48,240.86,191.48,242.36Z"/><path class="e12bdda5-f1b3-4117-8f27-5fccb7c737f3" d="M202.8,237l-2.08,10.39h-.95l.24-1.16a3.77,3.77,0,0,1-2.87,1.23,3,3,0,0,1-3.21-3.12,4.15,4.15,0,0,1,4.16-4.37,2.77,2.77,0,0,1,2.8,1.6l.91-4.57Zm-2.26,6.14a2.15,2.15,0,0,0-2.42-2.3,3.24,3.24,0,0,0-3.2,3.46,2.15,2.15,0,0,0,2.43,2.28A3.22,3.22,0,0,0,200.54,243.13Z"/><path class="e12bdda5-f1b3-4117-8f27-5fccb7c737f3" d="M216.75,240l-1.47,7.36h-.95l.24-1.16a3.77,3.77,0,0,1-2.87,1.23,3,3,0,0,1-3.21-3.12,4.15,4.15,0,0,1,4.16-4.37,2.76,2.76,0,0,1,2.8,1.6l.31-1.54Zm-1.65,3.11a2.15,2.15,0,0,0-2.42-2.3,3.23,3.23,0,0,0-3.19,3.46,2.14,2.14,0,0,0,2.42,2.28A3.22,3.22,0,0,0,215.1,243.13Z"/><path class="e12bdda5-f1b3-4117-8f27-5fccb7c737f3" d="M220.83,237h1l-2.07,10.39h-1Z"/><path class="e12bdda5-f1b3-4117-8f27-5fccb7c737f3" d="M222.43,246.56l.48-.79a4,4,0,0,0,2.55.82c1.41,0,2.18-.49,2.18-1.32,0-1.67-4.17-.52-4.17-3,0-1.4,1.26-2.3,3.19-2.3a4.5,4.5,0,0,1,2.5.69l-.42.79a3.73,3.73,0,0,0-2.16-.63c-1.36,0-2.13.55-2.13,1.35,0,1.71,4.17.55,4.17,3,0,1.45-1.3,2.29-3.26,2.29A4.69,4.69,0,0,1,222.43,246.56Z"/><path class="e12bdda5-f1b3-4117-8f27-5fccb7c737f3" d="M230.69,244.33A4.18,4.18,0,0,1,235,240a3,3,0,0,1,3.35,3.11,4.18,4.18,0,0,1-4.26,4.38A3,3,0,0,1,230.69,244.33Zm6.62-1.2a2.16,2.16,0,0,0-2.43-2.3,3.24,3.24,0,0,0-3.19,3.46,2.14,2.14,0,0,0,2.42,2.28A3.22,3.22,0,0,0,237.31,243.13Z"/><path class="e12bdda5-f1b3-4117-8f27-5fccb7c737f3" d="M253.41,237l-2.08,10.39h-1l.24-1.16a3.77,3.77,0,0,1-2.87,1.23,3,3,0,0,1-3.21-3.12A4.15,4.15,0,0,1,248.7,240a2.77,2.77,0,0,1,2.8,1.6l.91-4.57Zm-2.26,6.14a2.15,2.15,0,0,0-2.42-2.3,3.23,3.23,0,0,0-3.19,3.46,2.14,2.14,0,0,0,2.42,2.28A3.22,3.22,0,0,0,251.15,243.13Z"/><path class="e12bdda5-f1b3-4117-8f27-5fccb7c737f3" d="M260,240l-.19,1-.28,0c-1.57,0-2.62.9-3,2.73l-.74,3.74h-1l1.46-7.36h.95l-.25,1.34A3.32,3.32,0,0,1,260,240Z"/><path class="e12bdda5-f1b3-4117-8f27-5fccb7c737f3" d="M261.86,244a1.46,1.46,0,0,0,0,.29c0,1.48.85,2.3,2.54,2.3a3.35,3.35,0,0,0,2.41-.92l.45.71a4.22,4.22,0,0,1-2.94,1.09c-2.13,0-3.44-1.2-3.44-3.13a4.11,4.11,0,0,1,4.08-4.36,2.93,2.93,0,0,1,3.21,3.12,4.35,4.35,0,0,1-.1.9Zm.1-.74h5.25a2.53,2.53,0,0,0,0-.27,2.07,2.07,0,0,0-2.31-2.17A3,3,0,0,0,262,243.24Z"/><path class="e12bdda5-f1b3-4117-8f27-5fccb7c737f3" d="M269.31,246.56l.47-.79a4,4,0,0,0,2.55.82c1.42,0,2.19-.49,2.19-1.32,0-1.67-4.18-.52-4.18-3,0-1.4,1.26-2.3,3.2-2.3a4.49,4.49,0,0,1,2.49.69l-.42.79a3.73,3.73,0,0,0-2.16-.63c-1.36,0-2.13.55-2.13,1.35,0,1.71,4.18.55,4.18,3,0,1.45-1.31,2.29-3.27,2.29A4.64,4.64,0,0,1,269.31,246.56Z"/><path class="e12bdda5-f1b3-4117-8f27-5fccb7c737f3" d="M276.85,246.56l.48-.79a4,4,0,0,0,2.55.82c1.41,0,2.18-.49,2.18-1.32,0-1.67-4.17-.52-4.17-3,0-1.4,1.26-2.3,3.19-2.3a4.5,4.5,0,0,1,2.5.69l-.42.79a3.75,3.75,0,0,0-2.16-.63c-1.36,0-2.13.55-2.13,1.35,0,1.71,4.17.55,4.17,3,0,1.45-1.3,2.29-3.26,2.29A4.67,4.67,0,0,1,276.85,246.56Z"/><path class="e12bdda5-f1b3-4117-8f27-5fccb7c737f3" d="M286.11,244a1.46,1.46,0,0,0,0,.29c0,1.48.84,2.3,2.54,2.3a3.35,3.35,0,0,0,2.41-.92l.45.71a4.23,4.23,0,0,1-2.95,1.09c-2.13,0-3.43-1.2-3.43-3.13a4.1,4.1,0,0,1,4.08-4.36,2.93,2.93,0,0,1,3.21,3.12,5.16,5.16,0,0,1-.1.9Zm.09-.74h5.26a2.53,2.53,0,0,0,0-.27,2.08,2.08,0,0,0-2.31-2.17A3,3,0,0,0,286.2,243.24Z"/><path class="e12bdda5-f1b3-4117-8f27-5fccb7c737f3" d="M293.55,246.56l.48-.79a4,4,0,0,0,2.55.82c1.41,0,2.18-.49,2.18-1.32,0-1.67-4.17-.52-4.17-3,0-1.4,1.26-2.3,3.19-2.3a4.5,4.5,0,0,1,2.5.69l-.42.79a3.73,3.73,0,0,0-2.16-.63c-1.36,0-2.13.55-2.13,1.35,0,1.71,4.17.55,4.17,3,0,1.45-1.3,2.29-3.26,2.29A4.69,4.69,0,0,1,293.55,246.56Z"/><path class="e12bdda5-f1b3-4117-8f27-5fccb7c737f3" d="M314.36,240l-1.47,7.36h-.95l.24-1.17a3.58,3.58,0,0,1-2.85,1.24,2.31,2.31,0,0,1-2.62-2.41,4,4,0,0,1,.09-.82l.84-4.2h1l-.84,4.2a4,4,0,0,0-.07.66c0,1.06.62,1.68,1.88,1.68a2.88,2.88,0,0,0,3-2.58l.79-4Z"/><path class="e12bdda5-f1b3-4117-8f27-5fccb7c737f3" d="M324.64,243.07a4.15,4.15,0,0,1-4.18,4.38,2.75,2.75,0,0,1-2.8-1.61l-.84,4.26h-1l2-10.08h.95l-.24,1.17a3.78,3.78,0,0,1,2.88-1.23A3,3,0,0,1,324.64,243.07Zm-1,.06a2.15,2.15,0,0,0-2.42-2.3,3.21,3.21,0,0,0-3.18,3.46,2.14,2.14,0,0,0,2.42,2.28A3.21,3.21,0,0,0,323.63,243.13Z"/><path class="e12bdda5-f1b3-4117-8f27-5fccb7c737f3" d="M333.71,239.2l-.17.82h2.25l-.16.84H333.4l-1.3,6.52h-1l1.3-6.52h-1.31l.15-.84h1.33l.18-.93a2.42,2.42,0,0,1,2.53-2.17,2.25,2.25,0,0,1,1.48.48l-.43.73a1.55,1.55,0,0,0-1.05-.37C334.41,237.76,333.92,238.21,333.71,239.2Z"/><path class="e12bdda5-f1b3-4117-8f27-5fccb7c737f3" d="M336.18,244.33a4.18,4.18,0,0,1,4.26-4.37,3,3,0,0,1,3.35,3.11,4.18,4.18,0,0,1-4.26,4.38A3,3,0,0,1,336.18,244.33Zm6.61-1.2a2.15,2.15,0,0,0-2.42-2.3,3.24,3.24,0,0,0-3.19,3.46,2.14,2.14,0,0,0,2.42,2.28A3.21,3.21,0,0,0,342.79,243.13Z"/><path class="e12bdda5-f1b3-4117-8f27-5fccb7c737f3" d="M350.91,240l-.18,1-.28,0c-1.57,0-2.62.9-3,2.73l-.74,3.74h-1l1.46-7.36h.95l-.25,1.34A3.31,3.31,0,0,1,350.91,240Z"/><path class="e12bdda5-f1b3-4117-8f27-5fccb7c737f3" d="M358,245.16a2.77,2.77,0,0,0-.06.46c0,.63.35,1,1.07,1a1.88,1.88,0,0,0,1.13-.38l.24.76a2.73,2.73,0,0,1-1.64.47,1.61,1.61,0,0,1-1.79-1.68,2.26,2.26,0,0,1,.06-.57l.85-4.34h-1.3l.15-.84H358l.32-1.61h1L359,240h2.24l-.16.84h-2.25Z"/><path class="e12bdda5-f1b3-4117-8f27-5fccb7c737f3" d="M370.49,242.36a4.3,4.3,0,0,1-.09.84l-.84,4.18h-1l.84-4.2a4.13,4.13,0,0,0,.07-.67c0-1-.63-1.65-1.91-1.65a2.86,2.86,0,0,0-3,2.57l-.79,3.95h-1L364.87,237h1l-.83,4.13a3.58,3.58,0,0,1,2.81-1.16C369.52,240,370.49,240.86,370.49,242.36Z"/><path class="e12bdda5-f1b3-4117-8f27-5fccb7c737f3" d="M373.93,244a1.46,1.46,0,0,0,0,.29c0,1.48.84,2.3,2.54,2.3a3.35,3.35,0,0,0,2.41-.92l.45.71a4.23,4.23,0,0,1-2.95,1.09c-2.12,0-3.43-1.2-3.43-3.13A4.11,4.11,0,0,1,377,240a2.93,2.93,0,0,1,3.21,3.12,5.16,5.16,0,0,1-.1.9Zm.1-.74h5.25a2.53,2.53,0,0,0,0-.27A2.08,2.08,0,0,0,377,240.8,3,3,0,0,0,374,243.24Z"/><path class="e12bdda5-f1b3-4117-8f27-5fccb7c737f3" d="M386.46,244.33a4.18,4.18,0,0,1,4.28-4.37,3.06,3.06,0,0,1,2.9,1.47l-.84.49a2.26,2.26,0,0,0-2.14-1.09,3.24,3.24,0,0,0-3.21,3.46,2.15,2.15,0,0,0,2.45,2.28,2.86,2.86,0,0,0,2.33-1.06l.71.54a3.8,3.8,0,0,1-3.08,1.4C387.76,247.45,386.46,246.22,386.46,244.33Z"/><path class="e12bdda5-f1b3-4117-8f27-5fccb7c737f3" d="M397.07,237h1L396,247.38h-1Z"/><path class="e12bdda5-f1b3-4117-8f27-5fccb7c737f3" d="M407.66,240l-1.47,7.36h-1l.24-1.16a3.77,3.77,0,0,1-2.87,1.23,3,3,0,0,1-3.21-3.12,4.15,4.15,0,0,1,4.16-4.37,2.76,2.76,0,0,1,2.8,1.6l.31-1.54ZM406,243.13a2.15,2.15,0,0,0-2.42-2.3,3.24,3.24,0,0,0-3.19,3.46,2.14,2.14,0,0,0,2.42,2.28A3.21,3.21,0,0,0,406,243.13Z"/><path class="e12bdda5-f1b3-4117-8f27-5fccb7c737f3" d="M408.87,246.56l.48-.79a4,4,0,0,0,2.55.82c1.41,0,2.18-.49,2.18-1.32,0-1.67-4.17-.52-4.17-3,0-1.4,1.26-2.3,3.19-2.3a4.47,4.47,0,0,1,2.49.69l-.42.79a3.7,3.7,0,0,0-2.15-.63c-1.36,0-2.13.55-2.13,1.35,0,1.71,4.17.55,4.17,3,0,1.45-1.3,2.29-3.26,2.29A4.65,4.65,0,0,1,408.87,246.56Z"/><path class="e12bdda5-f1b3-4117-8f27-5fccb7c737f3" d="M416.42,246.56l.47-.79a4,4,0,0,0,2.55.82c1.42,0,2.19-.49,2.19-1.32,0-1.67-4.18-.52-4.18-3,0-1.4,1.26-2.3,3.2-2.3a4.49,4.49,0,0,1,2.49.69l-.42.79a3.73,3.73,0,0,0-2.16-.63c-1.36,0-2.13.55-2.13,1.35,0,1.71,4.18.55,4.18,3,0,1.45-1.31,2.29-3.27,2.29A4.64,4.64,0,0,1,416.42,246.56Z"/><path class="e12bdda5-f1b3-4117-8f27-5fccb7c737f3" d="M424.23,246.73a.78.78,0,0,1,.78-.8.71.71,0,0,1,.72.73.78.78,0,0,1-.77.79A.72.72,0,0,1,424.23,246.73Z"/><path class="e12bdda5-f1b3-4117-8f27-5fccb7c737f3" d="M142.63,271.18l-2,9.8h-1l.9-4.51h-6.14l-.89,4.51h-1l2-9.8h1l-.87,4.36h6.13l.87-4.36Z"/><path class="e12bdda5-f1b3-4117-8f27-5fccb7c737f3" d="M145.29,277.58a1.46,1.46,0,0,0,0,.29c0,1.48.85,2.3,2.54,2.3a3.35,3.35,0,0,0,2.41-.92l.45.71a4.22,4.22,0,0,1-2.94,1.09c-2.13,0-3.44-1.2-3.44-3.13a4.11,4.11,0,0,1,4.08-4.36,2.93,2.93,0,0,1,3.21,3.12,4.35,4.35,0,0,1-.1.9Zm.1-.74h5.25a2.53,2.53,0,0,0,0-.27,2.07,2.07,0,0,0-2.31-2.17A3,3,0,0,0,145.39,276.84Z"/><path class="e12bdda5-f1b3-4117-8f27-5fccb7c737f3" d="M159.35,273.62h1L158.88,281h-1Zm.25-2.27a.75.75,0,0,1,.77-.76.65.65,0,0,1,.68.63.76.76,0,0,1-.78.79A.66.66,0,0,1,159.6,271.35Z"/><path class="e12bdda5-f1b3-4117-8f27-5fccb7c737f3" d="M161.57,280.16l.48-.79a4,4,0,0,0,2.55.82c1.41,0,2.18-.49,2.18-1.32,0-1.67-4.17-.52-4.17-3,0-1.4,1.26-2.3,3.19-2.3a4.47,4.47,0,0,1,2.49.69l-.42.8a3.63,3.63,0,0,0-2.15-.64c-1.36,0-2.13.55-2.13,1.35,0,1.71,4.17.55,4.17,3,0,1.45-1.3,2.29-3.26,2.29A4.65,4.65,0,0,1,161.57,280.16Z"/><path class="e12bdda5-f1b3-4117-8f27-5fccb7c737f3" d="M175.86,278.76a4.28,4.28,0,0,0-.05.46c0,.63.35,1,1.06,1a1.9,1.9,0,0,0,1.14-.38l.24.76a2.75,2.75,0,0,1-1.64.47,1.61,1.61,0,0,1-1.8-1.68,2.83,2.83,0,0,1,.06-.57l.85-4.34h-1.3l.16-.84h1.31l.32-1.61h1l-.32,1.61h2.24l-.17.84h-2.24Z"/><path class="e12bdda5-f1b3-4117-8f27-5fccb7c737f3" d="M185.83,273.56l-.18,1-.28,0c-1.57,0-2.62.9-3,2.73l-.74,3.74h-1l1.46-7.36h.95l-.25,1.34A3.31,3.31,0,0,1,185.83,273.56Z"/><path class="e12bdda5-f1b3-4117-8f27-5fccb7c737f3" d="M194.84,273.62l-5.38,8.32c-.91,1.4-1.6,1.83-2.66,1.83a2.38,2.38,0,0,1-1.75-.66l.53-.72a1.73,1.73,0,0,0,1.3.53c.63,0,1.12-.3,1.7-1.19l.51-.79-1.83-7.32h1l1.52,6.27,4-6.27Z"/><path class="e12bdda5-f1b3-4117-8f27-5fccb7c737f3" d="M196.92,273.62h1L196.46,281h-1Zm.25-2.27a.75.75,0,0,1,.77-.76.66.66,0,0,1,.69.63.77.77,0,0,1-.79.79A.66.66,0,0,1,197.17,271.35Z"/><path class="e12bdda5-f1b3-4117-8f27-5fccb7c737f3" d="M207.62,276a5.16,5.16,0,0,1-.08.84L206.7,281h-1l.84-4.2a4.13,4.13,0,0,0,.07-.67c0-1.05-.63-1.65-1.9-1.65a2.87,2.87,0,0,0-3,2.57l-.79,4h-1l1.46-7.36h1l-.24,1.17a3.63,3.63,0,0,1,2.89-1.23A2.31,2.31,0,0,1,207.62,276Z"/><path class="e12bdda5-f1b3-4117-8f27-5fccb7c737f3" d="M218.43,273.62l-1.29,6.47c-.52,2.6-1.89,3.68-4.29,3.68a4.68,4.68,0,0,1-3.27-1.1l.58-.76a3.88,3.88,0,0,0,2.76,1,2.88,2.88,0,0,0,3.2-2.63l.16-.82a3.79,3.79,0,0,1-2.94,1.26c-1.94,0-3.25-1.13-3.25-3a4.08,4.08,0,0,1,4.21-4.18,2.83,2.83,0,0,1,2.87,1.68l.31-1.62Zm-1.68,2.95c0-1.34-.91-2.14-2.44-2.14a3.13,3.13,0,0,0-3.21,3.25c0,1.34.9,2.14,2.44,2.14A3.13,3.13,0,0,0,216.75,276.57Z"/><path class="e12bdda5-f1b3-4117-8f27-5fccb7c737f3" d="M232.5,276a4.3,4.3,0,0,1-.09.84l-.84,4.18h-1l.84-4.2a4.13,4.13,0,0,0,.07-.67c0-1.05-.63-1.65-1.91-1.65a2.86,2.86,0,0,0-3,2.57l-.79,4h-1l2.07-10.39h1l-.82,4.13a3.58,3.58,0,0,1,2.81-1.16C231.53,273.56,232.5,274.46,232.5,276Z"/><path class="e12bdda5-f1b3-4117-8f27-5fccb7c737f3" d="M236.44,273.62h1L236,281h-1Zm.25-2.27a.76.76,0,0,1,.77-.76.66.66,0,0,1,.69.63.77.77,0,0,1-.78.79A.66.66,0,0,1,236.69,271.35Z"/><path class="e12bdda5-f1b3-4117-8f27-5fccb7c737f3" d="M238.67,280.16l.47-.79a4,4,0,0,0,2.55.82c1.42,0,2.19-.49,2.19-1.32,0-1.67-4.18-.52-4.18-3,0-1.4,1.26-2.3,3.2-2.3a4.49,4.49,0,0,1,2.49.69l-.42.8a3.64,3.64,0,0,0-2.16-.64c-1.36,0-2.13.55-2.13,1.35,0,1.71,4.18.55,4.18,3,0,1.45-1.31,2.29-3.27,2.29A4.64,4.64,0,0,1,238.67,280.16Z"/><path class="e12bdda5-f1b3-4117-8f27-5fccb7c737f3" d="M259.63,276.67a4.15,4.15,0,0,1-4.18,4.38,2.73,2.73,0,0,1-2.81-1.68l-.32,1.61h-1l2.08-10.39h1l-.82,4.13a3.71,3.71,0,0,1,2.8-1.16A3,3,0,0,1,259.63,276.67Zm-1,.06a2.15,2.15,0,0,0-2.42-2.3,3.21,3.21,0,0,0-3.18,3.46,2.14,2.14,0,0,0,2.42,2.28A3.21,3.21,0,0,0,258.62,276.73Z"/><path class="e12bdda5-f1b3-4117-8f27-5fccb7c737f3" d="M262.48,277.58c0,.1,0,.2,0,.29,0,1.48.84,2.3,2.53,2.3a3.34,3.34,0,0,0,2.41-.92l.45.71a4.21,4.21,0,0,1-2.94,1.09c-2.13,0-3.43-1.2-3.43-3.13a4.1,4.1,0,0,1,4.07-4.36,2.93,2.93,0,0,1,3.21,3.12,4.35,4.35,0,0,1-.1.9Zm.1-.74h5.25a1.27,1.27,0,0,0,0-.27,2.08,2.08,0,0,0-2.32-2.17A3,3,0,0,0,262.58,276.84Z"/><path class="e12bdda5-f1b3-4117-8f27-5fccb7c737f3" d="M269.93,280.16l.47-.79a4.07,4.07,0,0,0,2.55.82c1.42,0,2.19-.49,2.19-1.32,0-1.67-4.18-.52-4.18-3,0-1.4,1.27-2.3,3.2-2.3a4.47,4.47,0,0,1,2.49.69l-.42.8a3.64,3.64,0,0,0-2.16-.64c-1.35,0-2.12.55-2.12,1.35,0,1.71,4.17.55,4.17,3,0,1.45-1.3,2.29-3.26,2.29A4.65,4.65,0,0,1,269.93,280.16Z"/><path class="e12bdda5-f1b3-4117-8f27-5fccb7c737f3" d="M279.85,278.76a4.28,4.28,0,0,0-.05.46c0,.63.35,1,1.06,1a1.9,1.9,0,0,0,1.14-.38l.24.76a2.75,2.75,0,0,1-1.64.47,1.61,1.61,0,0,1-1.8-1.68,2.83,2.83,0,0,1,.06-.57l.85-4.34h-1.3l.16-.84h1.31l.33-1.61h1l-.32,1.61h2.24l-.17.84h-2.24Z"/><path class="e12bdda5-f1b3-4117-8f27-5fccb7c737f3" d="M290.61,278.76a2.77,2.77,0,0,0-.06.46c0,.63.35,1,1.07,1a1.9,1.9,0,0,0,1.13-.38l.24.76a2.73,2.73,0,0,1-1.64.47,1.6,1.6,0,0,1-1.79-1.68,2.81,2.81,0,0,1,.05-.57l.86-4.34h-1.31l.16-.84h1.31L291,272h1l-.32,1.61h2.24l-.17.84h-2.24Z"/><path class="e12bdda5-f1b3-4117-8f27-5fccb7c737f3" d="M295.06,277.93a4.18,4.18,0,0,1,4.26-4.37,3,3,0,0,1,3.34,3.11,4.18,4.18,0,0,1-4.25,4.38A3,3,0,0,1,295.06,277.93Zm6.61-1.2a2.15,2.15,0,0,0-2.42-2.3,3.24,3.24,0,0,0-3.2,3.46,2.15,2.15,0,0,0,2.43,2.28A3.22,3.22,0,0,0,301.67,276.73Z"/><path class="e12bdda5-f1b3-4117-8f27-5fccb7c737f3" d="M311.05,270.59h1L310,281h-1Z"/><path class="e12bdda5-f1b3-4117-8f27-5fccb7c737f3" d="M314.36,277.58c0,.1,0,.2,0,.29,0,1.48.84,2.3,2.54,2.3a3.31,3.31,0,0,0,2.4-.92l.45.71a4.19,4.19,0,0,1-2.94,1.09c-2.13,0-3.43-1.2-3.43-3.13a4.1,4.1,0,0,1,4.08-4.36,2.93,2.93,0,0,1,3.2,3.12,5.18,5.18,0,0,1-.09.9Zm.1-.74h5.25a1.27,1.27,0,0,0,0-.27,2.08,2.08,0,0,0-2.31-2.17A3,3,0,0,0,314.46,276.84Z"/><path class="e12bdda5-f1b3-4117-8f27-5fccb7c737f3" d="M330.79,273.62,329.32,281h-.95l.23-1.16a3.77,3.77,0,0,1-2.87,1.23,3,3,0,0,1-3.2-3.12,4.14,4.14,0,0,1,4.16-4.37,2.76,2.76,0,0,1,2.8,1.6l.3-1.54Zm-1.65,3.11a2.16,2.16,0,0,0-2.43-2.3,3.24,3.24,0,0,0-3.19,3.46,2.14,2.14,0,0,0,2.42,2.28A3.22,3.22,0,0,0,329.14,276.73Z"/><path class="e12bdda5-f1b3-4117-8f27-5fccb7c737f3" d="M338,273.56l-.18,1-.28,0c-1.57,0-2.62.9-3,2.73l-.74,3.74h-1l1.45-7.36h1l-.26,1.34A3.33,3.33,0,0,1,338,273.56Z"/><path class="e12bdda5-f1b3-4117-8f27-5fccb7c737f3" d="M346.68,276a5.16,5.16,0,0,1-.08.84l-.85,4.18h-1l.84-4.2a4.13,4.13,0,0,0,.07-.67c0-1.05-.63-1.65-1.9-1.65a2.87,2.87,0,0,0-3,2.57l-.79,4h-1l1.46-7.36h.95l-.24,1.17a3.63,3.63,0,0,1,2.89-1.23A2.31,2.31,0,0,1,346.68,276Z"/><path class="e12bdda5-f1b3-4117-8f27-5fccb7c737f3" d="M361.73,273.62,360.26,281h-.95l.23-1.16a3.77,3.77,0,0,1-2.87,1.23,3,3,0,0,1-3.21-3.12,4.15,4.15,0,0,1,4.16-4.37,2.76,2.76,0,0,1,2.81,1.6l.3-1.54Zm-1.65,3.11a2.16,2.16,0,0,0-2.43-2.3,3.24,3.24,0,0,0-3.19,3.46,2.14,2.14,0,0,0,2.42,2.28A3.22,3.22,0,0,0,360.08,276.73Z"/><path class="e12bdda5-f1b3-4117-8f27-5fccb7c737f3" d="M371.42,276a4.3,4.3,0,0,1-.09.84l-.84,4.18h-1l.84-4.2a4.13,4.13,0,0,0,.07-.67c0-1.05-.63-1.65-1.91-1.65a2.86,2.86,0,0,0-3,2.57l-.79,4h-1l1.45-7.36h1l-.24,1.17a3.62,3.62,0,0,1,2.88-1.23C370.45,273.56,371.42,274.46,371.42,276Z"/><path class="e12bdda5-f1b3-4117-8f27-5fccb7c737f3" d="M382.73,270.59,380.66,281h-1l.24-1.16a3.77,3.77,0,0,1-2.87,1.23,3,3,0,0,1-3.21-3.12,4.15,4.15,0,0,1,4.16-4.37,2.77,2.77,0,0,1,2.8,1.6l.91-4.57Zm-2.26,6.14a2.15,2.15,0,0,0-2.42-2.3,3.24,3.24,0,0,0-3.19,3.46,2.14,2.14,0,0,0,2.42,2.28A3.21,3.21,0,0,0,380.47,276.73Z"/><path class="e12bdda5-f1b3-4117-8f27-5fccb7c737f3" d="M393.68,273.56l-.19,1-.28,0c-1.57,0-2.62.9-3,2.73l-.74,3.74h-1l1.46-7.36h.95l-.25,1.34A3.32,3.32,0,0,1,393.68,273.56Z"/><path class="e12bdda5-f1b3-4117-8f27-5fccb7c737f3" d="M395.55,277.58c0,.1,0,.2,0,.29,0,1.48.84,2.3,2.53,2.3a3.35,3.35,0,0,0,2.41-.92l.45.71a4.22,4.22,0,0,1-2.94,1.09c-2.13,0-3.44-1.2-3.44-3.13a4.11,4.11,0,0,1,4.08-4.36,2.93,2.93,0,0,1,3.21,3.12,4.35,4.35,0,0,1-.1.9Zm.1-.74h5.25a2.53,2.53,0,0,0,0-.27,2.07,2.07,0,0,0-2.31-2.17A3,3,0,0,0,395.65,276.84Z"/><path class="e12bdda5-f1b3-4117-8f27-5fccb7c737f3" d="M416.86,275.93a5.71,5.71,0,0,1-.09.87l-.85,4.18h-1l.84-4.2a2.81,2.81,0,0,0,.07-.68c0-1-.6-1.64-1.82-1.64a2.76,2.76,0,0,0-2.86,2.46l-.81,4.06h-1l.84-4.2a4.13,4.13,0,0,0,.07-.67c0-1.05-.59-1.65-1.83-1.65a2.82,2.82,0,0,0-2.88,2.57l-.79,4h-1l1.46-7.36h.95l-.24,1.17a3.45,3.45,0,0,1,2.79-1.23,2.29,2.29,0,0,1,2.41,1.47,3.73,3.73,0,0,1,3.11-1.47C415.92,273.56,416.86,274.44,416.86,275.93Z"/><path class="e12bdda5-f1b3-4117-8f27-5fccb7c737f3" d="M420.29,277.58a1.46,1.46,0,0,0,0,.29c0,1.48.84,2.3,2.54,2.3a3.35,3.35,0,0,0,2.41-.92l.45.71a4.23,4.23,0,0,1-2.95,1.09c-2.12,0-3.43-1.2-3.43-3.13a4.11,4.11,0,0,1,4.08-4.36,2.93,2.93,0,0,1,3.21,3.12,5.16,5.16,0,0,1-.1.9Zm.09-.74h5.26a2.53,2.53,0,0,0,0-.27,2.08,2.08,0,0,0-2.31-2.17A3,3,0,0,0,420.38,276.84Z"/><path class="e12bdda5-f1b3-4117-8f27-5fccb7c737f3" d="M441.6,275.93a4.74,4.74,0,0,1-.1.87l-.84,4.18h-1l.84-4.2a3.41,3.41,0,0,0,.07-.68c0-1-.6-1.64-1.82-1.64a2.76,2.76,0,0,0-2.86,2.46l-.81,4.06h-1l.84-4.2a3.25,3.25,0,0,0,.07-.67c0-1.05-.59-1.65-1.82-1.65A2.82,2.82,0,0,0,430.3,277l-.79,4h-1l1.45-7.36h1l-.24,1.17a3.45,3.45,0,0,1,2.79-1.23,2.31,2.31,0,0,1,2.41,1.47,3.73,3.73,0,0,1,3.11-1.47C440.66,273.56,441.6,274.44,441.6,275.93Z"/><path class="e12bdda5-f1b3-4117-8f27-5fccb7c737f3" d="M452.34,276.67a4.15,4.15,0,0,1-4.18,4.38,2.72,2.72,0,0,1-2.81-1.68L445,281h-.95l2.07-10.39h1l-.83,4.13a3.74,3.74,0,0,1,2.8-1.16A3,3,0,0,1,452.34,276.67Zm-1,.06a2.16,2.16,0,0,0-2.43-2.3,3.22,3.22,0,0,0-3.18,3.46,2.15,2.15,0,0,0,2.43,2.28A3.21,3.21,0,0,0,451.33,276.73Z"/><path class="e12bdda5-f1b3-4117-8f27-5fccb7c737f3" d="M455.19,277.58a1.46,1.46,0,0,0,0,.29c0,1.48.84,2.3,2.54,2.3a3.35,3.35,0,0,0,2.41-.92l.45.71a4.22,4.22,0,0,1-2.94,1.09c-2.13,0-3.44-1.2-3.44-3.13a4.11,4.11,0,0,1,4.08-4.36,2.93,2.93,0,0,1,3.21,3.12,4.35,4.35,0,0,1-.1.9Zm.1-.74h5.25a2.53,2.53,0,0,0,0-.27,2.08,2.08,0,0,0-2.31-2.17A3,3,0,0,0,455.29,276.84Z"/><path class="e12bdda5-f1b3-4117-8f27-5fccb7c737f3" d="M468.6,273.56l-.18,1-.28,0c-1.57,0-2.62.9-3,2.73l-.75,3.74h-1l1.46-7.36h.95l-.25,1.34A3.31,3.31,0,0,1,468.6,273.56Z"/><path class="e12bdda5-f1b3-4117-8f27-5fccb7c737f3" d="M249.34,290.42,244,298.74c-.91,1.4-1.6,1.83-2.66,1.83a2.38,2.38,0,0,1-1.75-.66l.53-.72a1.73,1.73,0,0,0,1.3.53c.63,0,1.12-.3,1.7-1.19l.52-.79-1.84-7.32h1l1.53,6.27,4-6.27Z"/><path class="e12bdda5-f1b3-4117-8f27-5fccb7c737f3" d="M249.69,294.73a4.17,4.17,0,0,1,4.25-4.37,3,3,0,0,1,3.35,3.11,4.18,4.18,0,0,1-4.26,4.38A3,3,0,0,1,249.69,294.73Zm6.61-1.2a2.16,2.16,0,0,0-2.43-2.3,3.24,3.24,0,0,0-3.19,3.46A2.14,2.14,0,0,0,253.1,297,3.22,3.22,0,0,0,256.3,293.53Z"/><path class="e12bdda5-f1b3-4117-8f27-5fccb7c737f3" d="M267.34,290.42l-1.47,7.36h-.95l.24-1.17a3.58,3.58,0,0,1-2.85,1.24,2.3,2.3,0,0,1-2.61-2.4,4,4,0,0,1,.08-.83l.84-4.2h1l-.84,4.2a4,4,0,0,0-.07.66c0,1.06.62,1.68,1.88,1.68a2.87,2.87,0,0,0,3-2.58l.79-4Z"/><path class="e12bdda5-f1b3-4117-8f27-5fccb7c737f3" d="M274.54,290.36l-.18,1-.28,0c-1.57,0-2.62.9-3,2.73l-.74,3.74h-1l1.45-7.36h.95l-.25,1.34A3.33,3.33,0,0,1,274.54,290.36Z"/><path class="e12bdda5-f1b3-4117-8f27-5fccb7c737f3" d="M281.63,295.56a4.28,4.28,0,0,0-.05.46c0,.63.35,1,1.06,1a1.9,1.9,0,0,0,1.14-.38l.23.76a2.7,2.7,0,0,1-1.63.47,1.61,1.61,0,0,1-1.8-1.68,2.83,2.83,0,0,1,.06-.57l.85-4.34h-1.3l.15-.84h1.32l.32-1.61h1l-.32,1.61h2.24l-.17.84h-2.24Z"/><path class="e12bdda5-f1b3-4117-8f27-5fccb7c737f3" d="M287.08,294.38c0,.1,0,.2,0,.29,0,1.48.84,2.3,2.53,2.3a3.35,3.35,0,0,0,2.41-.92l.45.71a4.22,4.22,0,0,1-2.94,1.09c-2.13,0-3.44-1.2-3.44-3.13a4.11,4.11,0,0,1,4.08-4.36,2.93,2.93,0,0,1,3.21,3.12,4.35,4.35,0,0,1-.1.9Zm.1-.74h5.25a2.53,2.53,0,0,0,0-.27,2.07,2.07,0,0,0-2.31-2.17A3,3,0,0,0,287.18,293.64Z"/><path class="e12bdda5-f1b3-4117-8f27-5fccb7c737f3" d="M303.5,290.42,302,297.78h-.95l.24-1.16a3.77,3.77,0,0,1-2.87,1.23,3,3,0,0,1-3.21-3.12,4.14,4.14,0,0,1,4.16-4.37,2.76,2.76,0,0,1,2.8,1.6l.31-1.54Zm-1.65,3.11a2.15,2.15,0,0,0-2.42-2.3,3.24,3.24,0,0,0-3.2,3.46,2.15,2.15,0,0,0,2.43,2.28A3.22,3.22,0,0,0,301.85,293.53Z"/><path class="e12bdda5-f1b3-4117-8f27-5fccb7c737f3" d="M305.43,294.73a4.18,4.18,0,0,1,4.29-4.37,3.08,3.08,0,0,1,2.9,1.47l-.84.49a2.28,2.28,0,0,0-2.15-1.09,3.24,3.24,0,0,0-3.2,3.46,2.15,2.15,0,0,0,2.45,2.28,2.84,2.84,0,0,0,2.32-1.06l.72.54a3.8,3.8,0,0,1-3.08,1.4C306.74,297.85,305.43,296.62,305.43,294.73Z"/><path class="e12bdda5-f1b3-4117-8f27-5fccb7c737f3" d="M321.66,292.76a5.16,5.16,0,0,1-.08.84l-.84,4.18h-1l.84-4.2a3.25,3.25,0,0,0,.07-.67c0-1.05-.63-1.65-1.9-1.65a2.87,2.87,0,0,0-3,2.57l-.78,3.95h-1l2.08-10.39h1l-.83,4.13a3.58,3.58,0,0,1,2.82-1.16C320.7,290.36,321.66,291.26,321.66,292.76Z"/><path class="e12bdda5-f1b3-4117-8f27-5fccb7c737f3" d="M325.61,290.42h1l-1.46,7.36h-1Zm.25-2.27a.75.75,0,0,1,.77-.76.66.66,0,0,1,.69.63.77.77,0,0,1-.79.79A.66.66,0,0,1,325.86,288.15Z"/><path class="e12bdda5-f1b3-4117-8f27-5fccb7c737f3" d="M336.31,292.76a4.3,4.3,0,0,1-.09.84l-.84,4.18h-1l.84-4.2a4.13,4.13,0,0,0,.07-.67c0-1.05-.63-1.65-1.91-1.65a2.87,2.87,0,0,0-3,2.57l-.78,3.95h-1l1.45-7.36h1l-.24,1.17a3.62,3.62,0,0,1,2.88-1.23C335.34,290.36,336.31,291.26,336.31,292.76Z"/><path class="e12bdda5-f1b3-4117-8f27-5fccb7c737f3" d="M347.11,290.42l-1.28,6.47c-.52,2.6-1.9,3.68-4.29,3.68a4.7,4.7,0,0,1-3.28-1.1l.59-.76a3.86,3.86,0,0,0,2.76,1,2.89,2.89,0,0,0,3.19-2.63l.17-.82A3.79,3.79,0,0,1,342,297.5c-1.95,0-3.25-1.13-3.25-3a4.07,4.07,0,0,1,4.2-4.18,2.82,2.82,0,0,1,2.87,1.68l.31-1.62Zm-1.68,2.95c0-1.34-.91-2.14-2.43-2.14a3.12,3.12,0,0,0-3.21,3.25c0,1.34.89,2.14,2.44,2.14A3.13,3.13,0,0,0,345.43,293.37Z"/><path class="e12bdda5-f1b3-4117-8f27-5fccb7c737f3" d="M348.34,297l.48-.79a4,4,0,0,0,2.55.82c1.41,0,2.18-.49,2.18-1.32,0-1.67-4.17-.52-4.17-3,0-1.4,1.26-2.3,3.19-2.3a4.47,4.47,0,0,1,2.49.69l-.42.8a3.63,3.63,0,0,0-2.15-.64c-1.36,0-2.13.55-2.13,1.35,0,1.71,4.17.55,4.17,3,0,1.45-1.3,2.29-3.26,2.29A4.67,4.67,0,0,1,348.34,297Z"/><path class="e12bdda5-f1b3-4117-8f27-5fccb7c737f3" d="M356.15,297.13a.79.79,0,0,1,.79-.8.7.7,0,0,1,.71.73.77.77,0,0,1-.77.79A.73.73,0,0,1,356.15,297.13Z"/><path class="e12bdda5-f1b3-4117-8f27-5fccb7c737f3" d="M186.62,344.77l.81-1.82a7,7,0,0,0,4.16,1.39c2,0,2.79-.7,2.79-1.64,0-2.72-7.49-.94-7.49-5.62,0-2,1.62-3.76,5.08-3.76a8,8,0,0,1,4.19,1.12l-.74,1.81a7,7,0,0,0-3.47-1c-1.94,0-2.74.76-2.74,1.71,0,2.69,7.48.94,7.48,5.57,0,2-1.64,3.74-5.1,3.74A8.12,8.12,0,0,1,186.62,344.77Z"/><path class="e12bdda5-f1b3-4117-8f27-5fccb7c737f3" d="M209,336.49v9.61h-2.15v-1.22a3.92,3.92,0,0,1-3.09,1.35c-2.47,0-4.14-1.35-4.14-4.25v-5.49h2.25v5.18c0,1.75.83,2.58,2.25,2.58s2.63-1,2.63-2.9v-4.86Z"/><path class="e12bdda5-f1b3-4117-8f27-5fccb7c737f3" d="M218.41,336.38v2.14a3.49,3.49,0,0,0-.52,0c-1.71,0-2.79,1-2.79,3v4.66h-2.25v-9.61H215v1.4A3.78,3.78,0,0,1,218.41,336.38Z"/><path class="e12bdda5-f1b3-4117-8f27-5fccb7c737f3" d="M229.21,340.47v5.63h-2.12v-1.17a3.42,3.42,0,0,1-3,1.3c-2.19,0-3.58-1.21-3.58-2.88s1.08-2.86,4-2.86H227v-.15c0-1.31-.79-2.09-2.39-2.09a4.74,4.74,0,0,0-2.92,1l-.88-1.64a6.76,6.76,0,0,1,4.07-1.19C227.61,336.38,229.21,337.69,229.21,340.47ZM227,343.1V342h-2.32c-1.53,0-1.95.58-1.95,1.28s.69,1.33,1.84,1.33A2.45,2.45,0,0,0,227,343.1Z"/><path class="e12bdda5-f1b3-4117-8f27-5fccb7c737f3" d="M243.2,341.3a4.68,4.68,0,0,1-4.88,4.93,4,4,0,0,1-3.19-1.37v1.24H233V332.74h2.25v4.92a4,4,0,0,1,3.08-1.28A4.67,4.67,0,0,1,243.2,341.3Zm-2.29,0a2.86,2.86,0,1,0-2.84,3A2.79,2.79,0,0,0,240.91,341.3Z"/><path class="e12bdda5-f1b3-4117-8f27-5fccb7c737f3" d="M255.71,340.59v5.51h-2.25v-5.22c0-1.71-.85-2.54-2.29-2.54-1.6,0-2.68,1-2.68,2.9v4.86h-2.25V332.74h2.25v4.86a4.29,4.29,0,0,1,3.2-1.22C254,336.38,255.71,337.69,255.71,340.59Z"/><path class="e12bdda5-f1b3-4117-8f27-5fccb7c737f3" d="M259.16,333.55a1.37,1.37,0,0,1,1.44-1.35,1.34,1.34,0,0,1,1.44,1.3,1.44,1.44,0,0,1-2.88.05Zm.31,2.94h2.25v9.61h-2.25Z"/><path class="e12bdda5-f1b3-4117-8f27-5fccb7c737f3" d="M281.1,346.3l-1.58-1.53a6.36,6.36,0,0,1-4.23,1.51c-2.67,0-4.59-1.38-4.59-3.36,0-1.57.86-2.67,2.91-3.82a3.85,3.85,0,0,1-1.4-2.77c0-1.77,1.44-3,3.66-3,2,0,3.36,1.06,3.36,2.77,0,1.29-.75,2.23-2.57,3.26l2.72,2.59a8.24,8.24,0,0,0,.7-2.12l1.82.59a8.55,8.55,0,0,1-1.14,2.88l1.59,1.51Zm-2.91-2.81-3.33-3.18c-1.46.81-2,1.47-2,2.37s1,1.77,2.56,1.77A4.24,4.24,0,0,0,278.19,343.49Zm-3.93-7.2c0,.56.24,1,1.14,1.87,1.46-.79,1.92-1.31,1.92-2s-.52-1.2-1.45-1.2S274.26,335.52,274.26,336.29Z"/><path class="e12bdda5-f1b3-4117-8f27-5fccb7c737f3" d="M291.13,333.5h5.51c4.08,0,6.88,2.52,6.88,6.3s-2.8,6.3-6.88,6.3h-5.51Zm5.4,10.62c2.81,0,4.63-1.71,4.63-4.32s-1.82-4.32-4.63-4.32h-3.06v8.64Z"/><path class="e12bdda5-f1b3-4117-8f27-5fccb7c737f3" d="M315.68,342h-7.54a2.91,2.91,0,0,0,3.11,2.3,3.44,3.44,0,0,0,2.61-1l1.21,1.38a4.85,4.85,0,0,1-3.87,1.57c-3.22,0-5.31-2.07-5.31-4.93a4.78,4.78,0,0,1,5-4.92,4.69,4.69,0,0,1,4.86,5C315.72,341.53,315.7,341.8,315.68,342Zm-7.56-1.5h5.46a2.62,2.62,0,0,0-2.72-2.34A2.66,2.66,0,0,0,308.12,340.52Z"/><path class="e12bdda5-f1b3-4117-8f27-5fccb7c737f3" d="M327.78,342h-7.55a2.91,2.91,0,0,0,3.12,2.3,3.44,3.44,0,0,0,2.61-1l1.21,1.38a4.89,4.89,0,0,1-3.88,1.57c-3.22,0-5.31-2.07-5.31-4.93a4.78,4.78,0,0,1,5-4.92,4.69,4.69,0,0,1,4.86,5C327.81,341.53,327.8,341.8,327.78,342Zm-7.56-1.5h5.45a2.61,2.61,0,0,0-2.72-2.34A2.65,2.65,0,0,0,320.22,340.52Z"/><path class="e12bdda5-f1b3-4117-8f27-5fccb7c737f3" d="M341.08,341.3a4.68,4.68,0,0,1-4.88,4.93,3.94,3.94,0,0,1-3.08-1.3v4.67h-2.25V336.49H333v1.26a4,4,0,0,1,3.19-1.37A4.68,4.68,0,0,1,341.08,341.3Zm-2.29,0a2.85,2.85,0,1,0-2.84,3A2.79,2.79,0,0,0,338.79,341.3Z"/><path class="e12bdda5-f1b3-4117-8f27-5fccb7c737f3" d="M352,340.47v5.63h-2.12v-1.17a3.42,3.42,0,0,1-3,1.3c-2.19,0-3.58-1.21-3.58-2.88s1.08-2.86,4-2.86h2.48v-.15c0-1.31-.79-2.09-2.39-2.09a4.74,4.74,0,0,0-2.92,1l-.88-1.64a6.76,6.76,0,0,1,4.07-1.19C350.44,336.38,352,337.69,352,340.47Zm-2.25,2.63V342h-2.32c-1.53,0-2,.58-2,1.28s.69,1.33,1.84,1.33A2.45,2.45,0,0,0,349.79,343.1Z"/><path class="e12bdda5-f1b3-4117-8f27-5fccb7c737f3" d="M359.74,342l-1.67,1.58v2.54h-2.25V332.74h2.25v8.07l4.66-4.32h2.7l-4,4,4.39,5.58h-2.73Z"/><path class="e12bdda5-f1b3-4117-8f27-5fccb7c737f3" d="M372.32,344.46l1.34-1.6a3,3,0,0,0,2.5,1.44c1.3,0,2-.77,2-2.32v-6.52h-4.48v-2h6.82v8.35c0,3-1.47,4.43-4.25,4.43A4.77,4.77,0,0,1,372.32,344.46Z"/><path class="e12bdda5-f1b3-4117-8f27-5fccb7c737f3" d="M392.47,340.47v5.63h-2.13v-1.17a3.4,3.4,0,0,1-3,1.3c-2.2,0-3.58-1.21-3.58-2.88s1.08-2.86,4-2.86h2.49v-.15c0-1.31-.79-2.09-2.4-2.09a4.71,4.71,0,0,0-2.91,1l-.89-1.64a6.78,6.78,0,0,1,4.07-1.19C390.87,336.38,392.47,337.69,392.47,340.47Zm-2.25,2.63V342H387.9c-1.54,0-1.95.58-1.95,1.28s.68,1.33,1.84,1.33A2.45,2.45,0,0,0,390.22,343.1Z"/><path class="e12bdda5-f1b3-4117-8f27-5fccb7c737f3" d="M395.94,333.55a1.37,1.37,0,0,1,1.44-1.35,1.34,1.34,0,0,1,1.44,1.3,1.44,1.44,0,0,1-2.88.05Zm.31,2.94h2.25v9.61h-2.25Z"/><path class="e12bdda5-f1b3-4117-8f27-5fccb7c737f3" d="M411.82,340.59v5.51h-2.25v-5.22c0-1.71-.85-2.54-2.29-2.54-1.6,0-2.68,1-2.68,2.9v4.86h-2.25v-9.61h2.14v1.24a4.19,4.19,0,0,1,3.31-1.35C410.11,336.38,411.82,337.69,411.82,340.59Z"/></svg>