<svg viewBox="0 0 600 466" xmlns="http://www.w3.org/2000/svg"><path d="m0 0h600v466h-600z" fill="#5bc0c7"/><path d="m469.34 93.39c0-7.4 5.23-12.24 12.24-12.24s12.42 4.97 12.42 12.24c0 3.31-.51 5.74-3.45 12.75l-7.39 18.35h-12.67l5.61-20.27c-4.21-1.78-6.76-5.61-6.76-10.83zm-30.08 0c0-7.4 5.23-12.24 12.24-12.24s12.36 5 12.36 12.24c0 3.31-.51 5.74-3.44 12.75l-7.42 18.35h-12.59l5.6-20.27c-4.2-1.78-6.75-5.61-6.75-10.83z" fill="#fff"/><path d="m441.74 76.84a165.26 165.26 0 0 0 -97.84-32h-254.12v161.49c0 1.62-.08 3.25-.08 4.89s0 3.27.08 4.9v161.51h85.41l-22.3 43.55 76.11-43.55h281.3v-166.41-4.95h-.08a164.94 164.94 0 0 0 -20.54-75" fill="none" stroke="#fff" stroke-linecap="round" stroke-linejoin="round" stroke-width="2.83"/><g fill="#fff"><path d="m135.31 136.78h1l-2 9.8h-1z"/><path d="m150.63 139.22-1.47 7.36h-.95l.24-1.16a3.77 3.77 0 0 1 -2.87 1.23 3 3 0 0 1 -3.21-3.12 4.14 4.14 0 0 1 4.16-4.37 2.76 2.76 0 0 1 2.8 1.6l.31-1.54zm-1.63 3.11a2.15 2.15 0 0 0 -2.42-2.3 3.24 3.24 0 0 0 -3.2 3.46 2.15 2.15 0 0 0 2.43 2.28 3.22 3.22 0 0 0 3.19-3.44z"/><path d="m151.85 145.76.47-.79a4 4 0 0 0 2.55.82c1.42 0 2.19-.49 2.19-1.32 0-1.67-4.18-.52-4.18-3 0-1.4 1.26-2.3 3.2-2.3a4.47 4.47 0 0 1 2.49.69l-.42.79a3.71 3.71 0 0 0 -2.15-.65c-1.36 0-2.13.55-2.13 1.35 0 1.71 4.18.55 4.18 3 0 1.45-1.3 2.29-3.27 2.29a4.64 4.64 0 0 1 -2.93-.88z"/><path d="m172.74 139.22-1.47 7.36h-1l.23-1.16a3.77 3.77 0 0 1 -2.87 1.23 3 3 0 0 1 -3.2-3.12 4.14 4.14 0 0 1 4.16-4.37 2.76 2.76 0 0 1 2.8 1.6l.31-1.54zm-1.65 3.11a2.16 2.16 0 0 0 -2.43-2.3 3.24 3.24 0 0 0 -3.19 3.46 2.14 2.14 0 0 0 2.42 2.28 3.22 3.22 0 0 0 3.2-3.44z"/><path d="m187.37 142.27a4.15 4.15 0 0 1 -4.17 4.38 2.76 2.76 0 0 1 -2.81-1.61l-.84 4.26h-1l2-10.08h.95l-.23 1.17a3.74 3.74 0 0 1 2.87-1.23 3 3 0 0 1 3.23 3.11zm-1 .06a2.15 2.15 0 0 0 -2.42-2.3 3.21 3.21 0 0 0 -3.18 3.46 2.14 2.14 0 0 0 2.42 2.28 3.21 3.21 0 0 0 3.17-3.44z"/><path d="m197.49 139.22-1.49 7.36h-1l.24-1.16a3.77 3.77 0 0 1 -2.87 1.23 3 3 0 0 1 -3.21-3.12 4.14 4.14 0 0 1 4.16-4.37 2.76 2.76 0 0 1 2.8 1.6l.31-1.54zm-1.65 3.11a2.15 2.15 0 0 0 -2.42-2.3 3.24 3.24 0 0 0 -3.2 3.46 2.14 2.14 0 0 0 2.42 2.28 3.22 3.22 0 0 0 3.2-3.44z"/><path d="m204.67 139.16-.18 1h-.28c-1.57 0-2.62.9-3 2.73l-.75 3.74h-1l1.46-7.36h1l-.25 1.34a3.3 3.3 0 0 1 3-1.45z"/><path d="m206.55 143.18a1.46 1.46 0 0 0 0 .29c0 1.48.84 2.3 2.54 2.3a3.35 3.35 0 0 0 2.41-.92l.44.71a4.19 4.19 0 0 1 -2.94 1.09c-2.13 0-3.43-1.2-3.43-3.13a4.1 4.1 0 0 1 4.08-4.36 2.93 2.93 0 0 1 3.2 3.12 5.18 5.18 0 0 1 -.09.9zm.09-.74h5.26a2.53 2.53 0 0 0 0-.27 2.08 2.08 0 0 0 -2.3-2.17 3 3 0 0 0 -2.96 2.44z"/><path d="m222.47 141.56a4.3 4.3 0 0 1 -.09.84l-.84 4.18h-1l.84-4.2a4.13 4.13 0 0 0 .07-.67c0-1.05-.63-1.65-1.91-1.65a2.86 2.86 0 0 0 -3 2.57l-.79 4h-1l1.45-7.36h1l-.24 1.17a3.62 3.62 0 0 1 2.88-1.23c1.66-.05 2.63.85 2.63 2.35z"/><path d="m226.55 144.36a2.58 2.58 0 0 0 -.05.46c0 .63.35 1 1.06 1a1.85 1.85 0 0 0 1.13-.38l.24.76a2.73 2.73 0 0 1 -1.64.47 1.61 1.61 0 0 1 -1.79-1.67 2.26 2.26 0 0 1 .06-.57l.85-4.34h-1.3l.15-.84h1.32l.32-1.62h1l-.33 1.62h2.25l-.17.84h-2.24z"/><path d="m235.64 143.53a4.17 4.17 0 0 1 4.25-4.37 3 3 0 0 1 3.35 3.11 4.18 4.18 0 0 1 -4.26 4.38 3 3 0 0 1 -3.34-3.12zm6.61-1.2a2.16 2.16 0 0 0 -2.43-2.3 3.24 3.24 0 0 0 -3.19 3.46 2.14 2.14 0 0 0 2.42 2.28 3.22 3.22 0 0 0 3.2-3.44z"/><path d="m248 138.4-.17.82h2.17l-.16.84h-2.23l-1.3 6.52h-1l1.31-6.52h-1.32l.15-.84h1.33l.19-.93a2.41 2.41 0 0 1 2.52-2.17 2.21 2.21 0 0 1 1.48.48l-.43.73a1.55 1.55 0 0 0 -1.05-.37c-.83.04-1.32.45-1.49 1.44z"/><path d="m262.66 139.22-5.38 8.32c-.91 1.4-1.6 1.83-2.66 1.83a2.38 2.38 0 0 1 -1.75-.66l.53-.73a1.7 1.7 0 0 0 1.3.54c.63 0 1.12-.3 1.7-1.19l.52-.79-1.84-7.32h1l1.53 6.27 4-6.27z"/><path d="m263 143.53a4.18 4.18 0 0 1 4.25-4.37 3 3 0 0 1 3.35 3.11 4.18 4.18 0 0 1 -4.26 4.38 3 3 0 0 1 -3.34-3.12zm6.61-1.2a2.16 2.16 0 0 0 -2.43-2.3 3.24 3.24 0 0 0 -3.19 3.46 2.14 2.14 0 0 0 2.42 2.28 3.22 3.22 0 0 0 3.21-3.44z"/><path d="m280.66 139.22-1.47 7.36h-.95l.24-1.17a3.56 3.56 0 0 1 -2.84 1.24 2.3 2.3 0 0 1 -2.62-2.41 4 4 0 0 1 .08-.82l.84-4.2h1l-.84 4.2a3.16 3.16 0 0 0 -.07.66c0 1.06.61 1.68 1.87 1.68a2.88 2.88 0 0 0 3-2.58l.78-4z"/><path d="m287.86 139.16-.18 1h-.28c-1.57 0-2.62.9-3 2.73l-.74 3.74h-1l1.45-7.36h1l-.26 1.34a3.33 3.33 0 0 1 3.01-1.45z"/><path d="m292.57 145.76.48-.79a4 4 0 0 0 2.55.82c1.41 0 2.18-.49 2.18-1.32 0-1.67-4.17-.52-4.17-3 0-1.4 1.26-2.3 3.19-2.3a4.5 4.5 0 0 1 2.5.69l-.42.79a3.73 3.73 0 0 0 -2.16-.63c-1.36 0-2.13.55-2.13 1.35 0 1.71 4.17.55 4.17 3 0 1.45-1.3 2.29-3.26 2.29a4.69 4.69 0 0 1 -2.93-.9z"/><path d="m302.5 144.36a2.64 2.64 0 0 0 -.06.46c0 .63.35 1 1.07 1a1.85 1.85 0 0 0 1.13-.38l.24.76a2.73 2.73 0 0 1 -1.64.47 1.61 1.61 0 0 1 -1.79-1.68 2.26 2.26 0 0 1 .06-.57l.85-4.34h-1.3l.15-.84h1.32l.32-1.62h1l-.33 1.62h2.24l-.16.84h-2.24z"/><path d="m315.4 139.22-1.47 7.36h-1l.24-1.17a3.56 3.56 0 0 1 -2.84 1.24 2.31 2.31 0 0 1 -2.62-2.41 4.83 4.83 0 0 1 .08-.82l.84-4.2h1l-.84 4.2a4 4 0 0 0 -.07.66c0 1.06.61 1.68 1.88 1.68a2.88 2.88 0 0 0 3-2.58l.78-4z"/><path d="m326.21 136.19-2.08 10.39h-.95l.24-1.16a3.77 3.77 0 0 1 -2.87 1.23 3 3 0 0 1 -3.21-3.12 4.14 4.14 0 0 1 4.16-4.37 2.77 2.77 0 0 1 2.8 1.6l.91-4.57zm-2.21 6.14a2.15 2.15 0 0 0 -2.42-2.3 3.24 3.24 0 0 0 -3.2 3.46 2.15 2.15 0 0 0 2.43 2.28 3.22 3.22 0 0 0 3.19-3.44z"/><path d="m328.53 143.18a1.46 1.46 0 0 0 0 .29c0 1.48.84 2.3 2.54 2.3a3.35 3.35 0 0 0 2.41-.92l.44.71a4.19 4.19 0 0 1 -2.94 1.09c-2.13 0-3.43-1.2-3.43-3.13a4.1 4.1 0 0 1 4.08-4.36 2.94 2.94 0 0 1 3.21 3.12 5.16 5.16 0 0 1 -.1.9zm.09-.74h5.26a2.53 2.53 0 0 0 0-.27 2.08 2.08 0 0 0 -2.31-2.17 3 3 0 0 0 -2.95 2.44z"/><path d="m344.45 141.56a4.3 4.3 0 0 1 -.09.84l-.84 4.18h-1l.84-4.2a4.13 4.13 0 0 0 .07-.67c0-1.05-.63-1.65-1.91-1.65a2.86 2.86 0 0 0 -3 2.57l-.79 4h-1l1.45-7.36h1l-.24 1.17a3.62 3.62 0 0 1 2.88-1.23c1.66-.05 2.63.85 2.63 2.35z"/><path d="m348.53 144.36a2.58 2.58 0 0 0 0 .46c0 .63.35 1 1.06 1a1.9 1.9 0 0 0 1.14-.38l.23.76a2.73 2.73 0 0 1 -1.64.47 1.61 1.61 0 0 1 -1.79-1.68 2.83 2.83 0 0 1 .06-.57l.85-4.34h-1.3l.15-.84h1.32l.32-1.62h1l-.33 1.62h2.25l-.17.84h-2.24z"/><path d="m364.62 144h-5.48l-1.69 2.62h-1.12l6.44-9.8h1l2.53 9.8h-1zm-.2-.84-1.33-5.29-3.41 5.29z"/><path d="m376.69 142.27a4.15 4.15 0 0 1 -4.18 4.38 2.73 2.73 0 0 1 -2.81-1.65l-.32 1.61h-1l2.08-10.39h1l-.82 4.13a3.71 3.71 0 0 1 2.8-1.16 3 3 0 0 1 3.25 3.08zm-1 .06a2.15 2.15 0 0 0 -2.42-2.3 3.21 3.21 0 0 0 -3.18 3.46 2.14 2.14 0 0 0 2.42 2.28 3.21 3.21 0 0 0 3.17-3.44z"/><path d="m386.31 141.56a4.3 4.3 0 0 1 -.09.84l-.84 4.18h-1l.84-4.2a4.13 4.13 0 0 0 .07-.67c0-1.05-.63-1.65-1.91-1.65a2.86 2.86 0 0 0 -3 2.57l-.79 4h-1l2.07-10.39h1l-.82 4.13a3.58 3.58 0 0 1 2.81-1.16c1.69-.05 2.66.85 2.66 2.35z"/><path d="m390.25 139.22h1l-1.46 7.36h-1zm.25-2.27a.76.76 0 0 1 .77-.76.66.66 0 0 1 .69.63.76.76 0 0 1 -.78.78.66.66 0 0 1 -.68-.6z"/><path d="m402.06 136.19-2.06 10.39h-1l.24-1.16a3.77 3.77 0 0 1 -2.87 1.23 3 3 0 0 1 -3.21-3.12 4.15 4.15 0 0 1 4.16-4.37 2.77 2.77 0 0 1 2.8 1.6l.91-4.57zm-2.26 6.14a2.15 2.15 0 0 0 -2.42-2.3 3.24 3.24 0 0 0 -3.2 3.46 2.15 2.15 0 0 0 2.43 2.28 3.22 3.22 0 0 0 3.19-3.44z"/><path d="m404.38 143.18a1.46 1.46 0 0 0 0 .29c0 1.48.84 2.3 2.54 2.3a3.35 3.35 0 0 0 2.41-.92l.45.71a4.23 4.23 0 0 1 -2.95 1.09c-2.12 0-3.43-1.2-3.43-3.13a4.11 4.11 0 0 1 4.08-4.36 2.93 2.93 0 0 1 3.21 3.12 5.16 5.16 0 0 1 -.1.9zm.09-.74h5.26a2.53 2.53 0 0 0 0-.27 2.08 2.08 0 0 0 -2.31-2.17 3 3 0 0 0 -2.95 2.44z"/><path d="m413.53 143.18v.29c0 1.48.84 2.3 2.53 2.3a3.34 3.34 0 0 0 2.41-.92l.45.71a4.19 4.19 0 0 1 -2.94 1.09c-2.13 0-3.43-1.2-3.43-3.13a4.1 4.1 0 0 1 4.07-4.36 2.93 2.93 0 0 1 3.21 3.12 4.35 4.35 0 0 1 -.1.9zm.1-.74h5.25a1.27 1.27 0 0 0 0-.27 2.08 2.08 0 0 0 -2.31-2.17 3 3 0 0 0 -2.94 2.44z"/><path d="m430 142.27a4.15 4.15 0 0 1 -4.18 4.38 2.75 2.75 0 0 1 -2.8-1.61l-.84 4.26h-1l2-10.08h.95l-.23 1.17a3.74 3.74 0 0 1 2.87-1.23 3 3 0 0 1 3.23 3.11zm-1 .06a2.15 2.15 0 0 0 -2.42-2.3 3.21 3.21 0 0 0 -3.18 3.46 2.14 2.14 0 0 0 2.42 2.28 3.21 3.21 0 0 0 3.18-3.44z"/><path d="m435.15 145.25.73-.66a2.09 2.09 0 0 0 2 1.18c1.15 0 1.85-.57 2.16-2.11l1.19-6h-3.57l.18-.9h4.59l-1.43 6.9c-.44 2.21-1.49 3-3.2 3a2.8 2.8 0 0 1 -2.65-1.41z"/><path d="m452.23 139.22-1.47 7.36h-.95l.24-1.16a3.77 3.77 0 0 1 -2.87 1.23 3 3 0 0 1 -3.21-3.12 4.14 4.14 0 0 1 4.16-4.37 2.76 2.76 0 0 1 2.8 1.6l.31-1.54zm-1.65 3.11a2.15 2.15 0 0 0 -2.42-2.3 3.24 3.24 0 0 0 -3.2 3.46 2.15 2.15 0 0 0 2.43 2.28 3.22 3.22 0 0 0 3.19-3.44z"/><path d="m455.69 139.22h1l-1.46 7.36h-1zm.25-2.27a.75.75 0 0 1 .77-.76.66.66 0 0 1 .69.63.76.76 0 0 1 -.79.78.65.65 0 0 1 -.67-.6z"/><path d="m466.39 141.56a4.3 4.3 0 0 1 -.09.84l-.84 4.18h-1l.84-4.2a4.13 4.13 0 0 0 .07-.67c0-1.05-.63-1.65-1.91-1.65a2.87 2.87 0 0 0 -3 2.57l-.78 4h-1l1.45-7.36h1l-.23 1.17a3.62 3.62 0 0 1 2.88-1.23c1.64-.05 2.61.85 2.61 2.35z"/><path d="m144.46 156-4.17 7.36h-1l-1.23-6-3.45 6h-1l-1.36-7.36h.91l1.2 6.24 3.55-6.24h.84l1.24 6.24 3.5-6.24z"/><path d="m153.1 156-1.47 7.36h-.95l.24-1.16a3.77 3.77 0 0 1 -2.87 1.23 3 3 0 0 1 -3.21-3.12 4.15 4.15 0 0 1 4.16-4.31 2.76 2.76 0 0 1 2.8 1.6l.31-1.54zm-1.65 3.11a2.15 2.15 0 0 0 -2.42-2.3 3.24 3.24 0 0 0 -3.2 3.46 2.15 2.15 0 0 0 2.43 2.28 3.22 3.22 0 0 0 3.19-3.42z"/><path d="m162.79 158.36a5.16 5.16 0 0 1 -.08.84l-.84 4.18h-1l.84-4.2a3.25 3.25 0 0 0 .07-.67c0-1-.63-1.65-1.9-1.65a2.87 2.87 0 0 0 -3 2.57l-.78 3.95h-1l1.46-7.36h.95l-.24 1.17a3.66 3.66 0 0 1 2.89-1.23c1.67.04 2.63.9 2.63 2.4z"/><path d="m166.88 161.16a2.77 2.77 0 0 0 -.06.46c0 .63.35 1 1.07 1a1.9 1.9 0 0 0 1.13-.38l.24.76a2.73 2.73 0 0 1 -1.64.47 1.6 1.6 0 0 1 -1.79-1.68 2.81 2.81 0 0 1 0-.57l.86-4.34h-1.31l.16-.84h1.32l.32-1.61h1l-.28 1.57h2.24l-.17.84h-2.24z"/><path d="m177.63 161.16a2.77 2.77 0 0 0 -.06.46c0 .63.35 1 1.07 1a1.88 1.88 0 0 0 1.13-.38l.24.76a2.73 2.73 0 0 1 -1.64.47 1.6 1.6 0 0 1 -1.79-1.68 2.81 2.81 0 0 1 0-.57l.86-4.34h-1.3l.15-.84h1.32l.32-1.61h1l-.32 1.61h2.24l-.17.84h-2.24z"/><path d="m182.08 160.33a4.18 4.18 0 0 1 4.26-4.37 3 3 0 0 1 3.35 3.11 4.18 4.18 0 0 1 -4.26 4.38 3 3 0 0 1 -3.35-3.12zm6.61-1.2a2.15 2.15 0 0 0 -2.42-2.3 3.24 3.24 0 0 0 -3.2 3.46 2.15 2.15 0 0 0 2.43 2.28 3.22 3.22 0 0 0 3.19-3.44z"/><path d="m195.21 162.56.48-.79a4 4 0 0 0 2.55.82c1.41 0 2.18-.49 2.18-1.32 0-1.67-4.17-.52-4.17-3 0-1.4 1.26-2.3 3.19-2.3a4.53 4.53 0 0 1 2.5.69l-.43.79a3.7 3.7 0 0 0 -2.15-.63c-1.36 0-2.13.55-2.13 1.35 0 1.71 4.17.55 4.17 3 0 1.45-1.3 2.29-3.26 2.29a4.67 4.67 0 0 1 -2.93-.9z"/><path d="m205 156h1l-1.45 7.36h-1zm.25-2.27a.75.75 0 0 1 .75-.73.66.66 0 0 1 .69.63.77.77 0 0 1 -.79.79.66.66 0 0 1 -.65-.67z"/><path d="m215.7 158.36a4.3 4.3 0 0 1 -.09.84l-.84 4.18h-1l.84-4.2a4.13 4.13 0 0 0 .07-.67c0-1-.63-1.65-1.91-1.65a2.87 2.87 0 0 0 -3 2.57l-.79 3.95h-1l1.45-7.36h1l-.24 1.17a3.62 3.62 0 0 1 2.88-1.23c1.66.04 2.63.9 2.63 2.4z"/><path d="m218.14 160.33a4.18 4.18 0 0 1 4.29-4.37 3.08 3.08 0 0 1 2.9 1.47l-.84.49a2.27 2.27 0 0 0 -2.14-1.09 3.24 3.24 0 0 0 -3.21 3.46 2.15 2.15 0 0 0 2.45 2.28 2.84 2.84 0 0 0 2.32-1.06l.72.54a3.8 3.8 0 0 1 -3.08 1.4c-2.1 0-3.41-1.23-3.41-3.12z"/><path d="m227.59 160v.29c0 1.48.84 2.3 2.54 2.3a3.31 3.31 0 0 0 2.4-.92l.45.71a4.19 4.19 0 0 1 -2.94 1.09c-2.13 0-3.43-1.2-3.43-3.13a4.1 4.1 0 0 1 4.08-4.36 2.93 2.93 0 0 1 3.2 3.12 5.18 5.18 0 0 1 -.09.9zm.1-.74h5.25a1.27 1.27 0 0 0 0-.27 2.08 2.08 0 0 0 -2.31-2.17 3 3 0 0 0 -2.94 2.42z"/><path d="m241 156-.18 1h-.28c-1.57 0-2.62.9-3 2.73l-.74 3.74h-1l1.45-7.36h.95l-.25 1.34a3.33 3.33 0 0 1 3.05-1.45z"/><path d="m242.88 160v.29c0 1.48.84 2.3 2.53 2.3a3.34 3.34 0 0 0 2.41-.92l.45.71a4.21 4.21 0 0 1 -2.94 1.09c-2.13 0-3.43-1.2-3.43-3.13a4.1 4.1 0 0 1 4.1-4.34 2.93 2.93 0 0 1 3.21 3.12 4.35 4.35 0 0 1 -.1.9zm.1-.74h5.25a1.27 1.27 0 0 0 0-.27 2.08 2.08 0 0 0 -2.31-2.17 3 3 0 0 0 -2.92 2.42z"/><path d="m253.19 153h1l-2.07 10.39h-1z"/><path d="m263.24 156-5.38 8.32c-.91 1.4-1.59 1.83-2.66 1.83a2.38 2.38 0 0 1 -1.75-.66l.53-.72a1.73 1.73 0 0 0 1.3.53c.63 0 1.13-.3 1.7-1.19l.52-.79-1.84-7.32h1l1.53 6.27 4-6.27z"/><path d="m269.83 161.16a2.68 2.68 0 0 0 -.05.46c0 .63.35 1 1.06 1a1.85 1.85 0 0 0 1.13-.38l.24.76a2.73 2.73 0 0 1 -1.64.47 1.61 1.61 0 0 1 -1.79-1.68 2.26 2.26 0 0 1 .06-.57l.85-4.34h-1.3l.15-.84h1.32l.32-1.61h1l-.33 1.61h2.25l-.17.84h-2.24z"/><path d="m282.31 158.36a4.3 4.3 0 0 1 -.09.84l-.84 4.18h-1l.84-4.2a4.13 4.13 0 0 0 .07-.67c0-1-.63-1.65-1.91-1.65a2.87 2.87 0 0 0 -3 2.57l-.79 3.95h-1l2.1-10.38h1l-.83 4.13a3.58 3.58 0 0 1 2.82-1.16 2.31 2.31 0 0 1 2.63 2.39z"/><path d="m293 156-1.47 7.36h-.95l.23-1.16a3.77 3.77 0 0 1 -2.87 1.23 3 3 0 0 1 -3.21-3.12 4.15 4.15 0 0 1 4.16-4.37 2.76 2.76 0 0 1 2.81 1.6l.3-1.54zm-1.65 3.11a2.16 2.16 0 0 0 -2.43-2.3 3.24 3.24 0 0 0 -3.19 3.46 2.14 2.14 0 0 0 2.42 2.28 3.22 3.22 0 0 0 3.22-3.42z"/><path d="m302.71 158.36a4.3 4.3 0 0 1 -.09.84l-.84 4.18h-1l.84-4.2a4.13 4.13 0 0 0 .07-.67c0-1-.63-1.65-1.91-1.65a2.87 2.87 0 0 0 -3 2.57l-.78 3.95h-1l1.45-7.36h1l-.24 1.17a3.62 3.62 0 0 1 2.88-1.23c1.65.04 2.62.9 2.62 2.4z"/><path d="m309.45 159.06 2.65 4.32h-1.16l-2.27-3.72-2.06 1.6-.42 2.12h-1l2.08-10.38h1l-1.4 7 5.07-4h1.42z"/><path d="m326.18 156-5.37 8.32c-.92 1.4-1.6 1.83-2.67 1.83a2.41 2.41 0 0 1 -1.75-.66l.54-.72a1.73 1.73 0 0 0 1.3.53c.63 0 1.12-.3 1.69-1.19l.52-.79-1.83-7.32h1l1.53 6.27 4-6.27z"/><path d="m326.53 160.33a4.18 4.18 0 0 1 4.26-4.37 3 3 0 0 1 3.35 3.11 4.18 4.18 0 0 1 -4.26 4.38 3 3 0 0 1 -3.35-3.12zm6.61-1.2a2.15 2.15 0 0 0 -2.42-2.3 3.24 3.24 0 0 0 -3.2 3.46 2.15 2.15 0 0 0 2.43 2.28 3.22 3.22 0 0 0 3.19-3.44z"/><path d="m344.19 156-1.47 7.36h-1l.23-1.17a3.56 3.56 0 0 1 -2.84 1.24 2.31 2.31 0 0 1 -2.62-2.41 4.83 4.83 0 0 1 .08-.82l.84-4.2h1l-.84 4.2a4 4 0 0 0 -.07.66c0 1.06.61 1.68 1.88 1.68a2.88 2.88 0 0 0 3-2.58l.78-4z"/><path d="m358.76 156-1.47 7.36h-1l.24-1.16a3.77 3.77 0 0 1 -2.87 1.23 3 3 0 0 1 -3.21-3.12 4.14 4.14 0 0 1 4.16-4.37 2.76 2.76 0 0 1 2.8 1.6l.31-1.54zm-1.65 3.11a2.15 2.15 0 0 0 -2.42-2.3 3.24 3.24 0 0 0 -3.2 3.46 2.15 2.15 0 0 0 2.43 2.28 3.22 3.22 0 0 0 3.19-3.42z"/><path d="m368.45 158.36a5.16 5.16 0 0 1 -.08.84l-.84 4.18h-1l.84-4.2a4.13 4.13 0 0 0 .07-.67c0-1-.63-1.65-1.9-1.65a2.87 2.87 0 0 0 -3 2.57l-.79 3.95h-1l1.46-7.36h.95l-.24 1.17a3.64 3.64 0 0 1 2.89-1.23 2.31 2.31 0 0 1 2.64 2.4z"/><path d="m379.76 153-2.07 10.39h-.95l.23-1.16a3.77 3.77 0 0 1 -2.87 1.23 3 3 0 0 1 -3.2-3.12 4.14 4.14 0 0 1 4.16-4.37 2.77 2.77 0 0 1 2.8 1.6l.91-4.57zm-2.25 6.14a2.16 2.16 0 0 0 -2.43-2.3 3.24 3.24 0 0 0 -3.19 3.46 2.14 2.14 0 0 0 2.42 2.28 3.22 3.22 0 0 0 3.2-3.45z"/><path d="m393.72 156-1.47 7.36h-.95l.23-1.16a3.77 3.77 0 0 1 -2.87 1.23 3 3 0 0 1 -3.2-3.12 4.14 4.14 0 0 1 4.16-4.37 2.76 2.76 0 0 1 2.8 1.6l.31-1.54zm-1.65 3.11a2.16 2.16 0 0 0 -2.43-2.3 3.24 3.24 0 0 0 -3.19 3.46 2.14 2.14 0 0 0 2.42 2.28 3.22 3.22 0 0 0 3.2-3.42z"/><path d="m404 159.07a4.14 4.14 0 0 1 -4.17 4.38 2.75 2.75 0 0 1 -2.8-1.61l-.84 4.26h-1l2-10.08h1l-.24 1.17a3.74 3.74 0 0 1 2.87-1.23 3 3 0 0 1 3.18 3.11zm-1 .06a2.15 2.15 0 0 0 -2.42-2.3 3.21 3.21 0 0 0 -3.18 3.46 2.14 2.14 0 0 0 2.42 2.28 3.21 3.21 0 0 0 3.18-3.44z"/><path d="m414.17 159.07a4.14 4.14 0 0 1 -4.17 4.38 2.75 2.75 0 0 1 -2.8-1.61l-.84 4.26h-1l2-10.08h.95l-.24 1.17a3.74 3.74 0 0 1 2.93-1.19 3 3 0 0 1 3.17 3.07zm-1 .06a2.15 2.15 0 0 0 -2.42-2.3 3.22 3.22 0 0 0 -3.18 3.46 2.15 2.15 0 0 0 2.43 2.28 3.2 3.2 0 0 0 3.16-3.44z"/><path d="m421.28 156-.18 1h-.28c-1.57 0-2.62.9-3 2.73l-.74 3.74h-1l1.46-7.36h.95l-.25 1.34a3.31 3.31 0 0 1 3.04-1.45z"/><path d="m423.16 160a1.46 1.46 0 0 0 0 .29c0 1.48.84 2.3 2.54 2.3a3.35 3.35 0 0 0 2.41-.92l.45.71a4.22 4.22 0 0 1 -2.94 1.09c-2.13 0-3.44-1.2-3.44-3.13a4.11 4.11 0 0 1 4.08-4.36 2.93 2.93 0 0 1 3.21 3.12 4.35 4.35 0 0 1 -.1.9zm.1-.74h5.25a2.53 2.53 0 0 0 0-.27 2.08 2.08 0 0 0 -2.31-2.17 3 3 0 0 0 -2.94 2.42z"/><path d="m431.32 160.33a4.18 4.18 0 0 1 4.29-4.37 3.06 3.06 0 0 1 2.89 1.47l-.84.49a2.26 2.26 0 0 0 -2.14-1.09 3.24 3.24 0 0 0 -3.21 3.46 2.16 2.16 0 0 0 2.45 2.28 2.86 2.86 0 0 0 2.33-1.06l.71.54a3.78 3.78 0 0 1 -3.08 1.4c-2.1 0-3.4-1.23-3.4-3.12z"/><path d="m441.43 156h1l-1.43 7.38h-1zm.25-2.27a.75.75 0 0 1 .77-.76.66.66 0 0 1 .69.63.77.77 0 0 1 -.79.79.66.66 0 0 1 -.67-.64z"/><path d="m452.63 156-1.47 7.36h-1l.24-1.16a3.78 3.78 0 0 1 -2.88 1.23 3 3 0 0 1 -3.2-3.12 4.14 4.14 0 0 1 4.16-4.37 2.76 2.76 0 0 1 2.8 1.6l.31-1.54zm-1.63 3.13a2.15 2.15 0 0 0 -2.42-2.3 3.24 3.24 0 0 0 -3.2 3.46 2.14 2.14 0 0 0 2.42 2.28 3.22 3.22 0 0 0 3.2-3.44z"/><path d="m456.23 161.16a2.77 2.77 0 0 0 -.06.46c0 .63.35 1 1.06 1a1.9 1.9 0 0 0 1.14-.38l.24.76a2.75 2.75 0 0 1 -1.64.47 1.61 1.61 0 0 1 -1.8-1.68 2.83 2.83 0 0 1 .06-.57l.86-4.34h-1.31l.16-.84h1.31l.33-1.61h1l-.32 1.61h2.24l-.17.84h-2.24z"/><path d="m461.67 160v.29c0 1.48.84 2.3 2.53 2.3a3.34 3.34 0 0 0 2.41-.92l.45.71a4.21 4.21 0 0 1 -2.94 1.09c-2.13 0-3.43-1.2-3.43-3.13a4.1 4.1 0 0 1 4.07-4.36 2.93 2.93 0 0 1 3.21 3.12 4.35 4.35 0 0 1 -.1.9zm.1-.74h5.23a1.27 1.27 0 0 0 0-.27 2.08 2.08 0 0 0 -2.32-2.17 3 3 0 0 0 -2.91 2.42z"/><path d="m150.19 172.82-5.38 8.32c-.91 1.4-1.6 1.83-2.66 1.83a2.42 2.42 0 0 1 -1.76-.66l.54-.73a1.7 1.7 0 0 0 1.3.54c.63 0 1.12-.3 1.69-1.19l.52-.79-1.83-7.32h1l1.52 6.27 4-6.27z"/><path d="m150.53 177.13a4.18 4.18 0 0 1 4.26-4.37 3 3 0 0 1 3.35 3.11 4.18 4.18 0 0 1 -4.26 4.38 3 3 0 0 1 -3.35-3.12zm6.61-1.2a2.15 2.15 0 0 0 -2.42-2.3 3.23 3.23 0 0 0 -3.19 3.46 2.14 2.14 0 0 0 2.42 2.28 3.22 3.22 0 0 0 3.19-3.44z"/><path d="m168.19 172.82-1.47 7.36h-.95l.23-1.18a3.54 3.54 0 0 1 -2.84 1.24 2.31 2.31 0 0 1 -2.62-2.41 4 4 0 0 1 .09-.82l.84-4.2h1l-.84 4.2a4 4 0 0 0 -.07.66c0 1.06.62 1.68 1.88 1.68a2.88 2.88 0 0 0 3-2.58l.79-4z"/><path d="m175.38 172.76-.18 1h-.28c-1.57 0-2.62.9-3 2.73l-.74 3.74h-1l1.46-7.36h1l-.25 1.34a3.31 3.31 0 0 1 2.99-1.45z"/><path d="m188.57 175.16a4.25 4.25 0 0 1 -.08.84l-.84 4.18h-1l.85-4.2a4.06 4.06 0 0 0 .06-.67c0-1.05-.63-1.65-1.9-1.65a2.87 2.87 0 0 0 -3 2.57l-.78 4h-1l2.12-10.44h1l-.83 4.13a3.6 3.6 0 0 1 2.82-1.16c1.62 0 2.58.9 2.58 2.4z"/><path d="m199.28 172.82-1.47 7.36h-.95l.24-1.16a3.77 3.77 0 0 1 -2.87 1.23 3 3 0 0 1 -3.21-3.12 4.14 4.14 0 0 1 4.16-4.37 2.76 2.76 0 0 1 2.8 1.6l.31-1.54zm-1.65 3.11a2.15 2.15 0 0 0 -2.42-2.3 3.24 3.24 0 0 0 -3.2 3.46 2.15 2.15 0 0 0 2.43 2.28 3.22 3.22 0 0 0 3.19-3.44z"/><path d="m206.46 172.76-.18 1h-.28c-1.57 0-2.62.9-3 2.73l-.74 3.74h-1l1.46-7.36h.95l-.25 1.34a3.31 3.31 0 0 1 3.04-1.45z"/><path d="m216.21 169.79-2.07 10.39h-1l.24-1.16a3.77 3.77 0 0 1 -2.87 1.23 3 3 0 0 1 -3.21-3.12 4.15 4.15 0 0 1 4.16-4.37 2.77 2.77 0 0 1 2.8 1.6l.92-4.57zm-2.21 6.14a2.15 2.15 0 0 0 -2.42-2.3 3.24 3.24 0 0 0 -3.19 3.46 2.14 2.14 0 0 0 2.42 2.28 3.21 3.21 0 0 0 3.19-3.44z"/><path d="m234.31 172.82-4.16 7.36h-1l-1.24-6-3.44 6h-.95l-1.45-7.36h.93l1.19 6.24 3.56-6.24h.84l1.23 6.24 3.51-6.24z"/><path d="m234.7 177.13a4.18 4.18 0 0 1 4.26-4.37 3 3 0 0 1 3.34 3.11 4.18 4.18 0 0 1 -4.25 4.38 3 3 0 0 1 -3.35-3.12zm6.61-1.2a2.15 2.15 0 0 0 -2.42-2.3 3.24 3.24 0 0 0 -3.2 3.46 2.15 2.15 0 0 0 2.43 2.28 3.22 3.22 0 0 0 3.19-3.44z"/><path d="m249.43 172.76-.18 1h-.28c-1.57 0-2.62.9-3 2.73l-.74 3.74h-1l1.45-7.36h1l-.26 1.34a3.33 3.33 0 0 1 3.01-1.45z"/><path d="m254.71 175.86 2.64 4.32h-1.16l-2.27-3.72-2.06 1.6-.42 2.12h-1l2.07-10.39h1l-1.4 7 5.07-4h1.41z"/><path d="m266.55 172-.17.82h2.26l-.17.84h-2.23l-1.3 6.52h-1l1.31-6.52h-1.32l.15-.84h1.34l.18-.93a2.41 2.41 0 0 1 2.52-2.17 2.21 2.21 0 0 1 1.48.48l-.43.73a1.55 1.55 0 0 0 -1.05-.37c-.87 0-1.36.44-1.57 1.44z"/><path d="m269 177.13a4.18 4.18 0 0 1 4.26-4.37 3 3 0 0 1 3.34 3.11 4.18 4.18 0 0 1 -4.26 4.38 3 3 0 0 1 -3.34-3.12zm6.61-1.2a2.16 2.16 0 0 0 -2.43-2.3 3.24 3.24 0 0 0 -3.19 3.46 2.14 2.14 0 0 0 2.42 2.28 3.22 3.22 0 0 0 3.23-3.44z"/><path d="m283.76 172.76-.18 1h-.29c-1.56 0-2.61.9-3 2.73l-.74 3.74h-1l1.46-7.36h1l-.25 1.34a3.33 3.33 0 0 1 3-1.45z"/><path d="m290.85 178a4 4 0 0 0 -.05.46c0 .63.35 1 1.06 1a1.9 1.9 0 0 0 1.14-.46l.23.76a2.7 2.7 0 0 1 -1.63.47 1.61 1.61 0 0 1 -1.8-1.68 2.83 2.83 0 0 1 .06-.57l.85-4.34h-1.3l.15-.84h1.32l.32-1.62h1l-.32 1.62h2.24l-.17.84h-2.24z"/><path d="m303.33 175.16a5.16 5.16 0 0 1 -.08.84l-.84 4.18h-1l.84-4.2a4.13 4.13 0 0 0 .07-.67c0-1.05-.63-1.65-1.9-1.65a2.87 2.87 0 0 0 -3 2.57l-.79 4h-1l2.07-10.39h1l-.83 4.13a3.58 3.58 0 0 1 2.82-1.16 2.31 2.31 0 0 1 2.64 2.35z"/><path d="m306.77 176.78v.29c0 1.48.84 2.3 2.53 2.3a3.34 3.34 0 0 0 2.41-.92l.45.71a4.21 4.21 0 0 1 -2.94 1.09c-2.13 0-3.43-1.2-3.43-3.13a4.1 4.1 0 0 1 4.07-4.36 2.93 2.93 0 0 1 3.21 3.12 4.35 4.35 0 0 1 -.1.9zm.1-.74h5.25a1.27 1.27 0 0 0 0-.27 2.08 2.08 0 0 0 -2.32-2.17 3 3 0 0 0 -2.93 2.4z"/><path d="m327 172.82-4.73 7.36h-1l-1.82-7.36h1l1.53 6.29 4-6.29z"/><path d="m329.11 172.82h1l-1.46 7.36h-1zm.26-2.27a.75.75 0 0 1 .77-.76.65.65 0 0 1 .68.63.76.76 0 0 1 -.78.78.65.65 0 0 1 -.67-.65z"/><path d="m337.31 172.76-.19 1h-.28c-1.56 0-2.62.9-3 2.73l-.74 3.74h-1l1.46-7.36h.95l-.25 1.34a3.33 3.33 0 0 1 3.05-1.45z"/><path d="m340.24 178a4 4 0 0 0 -.05.46c0 .63.35 1 1.06 1a1.9 1.9 0 0 0 1.14-.38l.24.76a2.75 2.75 0 0 1 -1.64.47 1.61 1.61 0 0 1 -1.8-1.68 2.83 2.83 0 0 1 .06-.57l.85-4.34h-1.3l.16-.84h1.31l.32-1.62h1l-.32 1.62h2.24l-.17.84h-2.24z"/><path d="m353.14 172.82-1.47 7.36h-.95l.28-1.18a3.58 3.58 0 0 1 -2.85 1.24 2.31 2.31 0 0 1 -2.62-2.41 4 4 0 0 1 .09-.82l.84-4.2h1l-.84 4.2a4 4 0 0 0 -.07.66c0 1.06.62 1.68 1.88 1.68a2.88 2.88 0 0 0 3-2.58l.79-4z"/><path d="m363.35 172.82-1.47 7.36h-1l.24-1.16a3.77 3.77 0 0 1 -2.87 1.23 3 3 0 0 1 -3.21-3.12 4.15 4.15 0 0 1 4.16-4.37 2.76 2.76 0 0 1 2.8 1.6l.31-1.54zm-1.66 3.11a2.15 2.15 0 0 0 -2.42-2.3 3.24 3.24 0 0 0 -3.19 3.46 2.14 2.14 0 0 0 2.42 2.28 3.21 3.21 0 0 0 3.19-3.44z"/><path d="m367.42 169.79h1l-2.07 10.39h-1z"/><path d="m374.11 177.13a4.18 4.18 0 0 1 4.28-4.37 3.06 3.06 0 0 1 2.9 1.47l-.84.49a2.26 2.26 0 0 0 -2.14-1.09 3.24 3.24 0 0 0 -3.21 3.46 2.16 2.16 0 0 0 2.45 2.28 2.86 2.86 0 0 0 2.33-1.06l.71.54a3.78 3.78 0 0 1 -3.08 1.4c-2.1 0-3.4-1.25-3.4-3.12z"/><path d="m384.72 169.79h1l-2.08 10.39h-1z"/><path d="m395.31 172.82-1.47 7.36h-.95l.23-1.16a3.77 3.77 0 0 1 -2.87 1.23 3 3 0 0 1 -3.21-3.12 4.15 4.15 0 0 1 4.17-4.37 2.76 2.76 0 0 1 2.8 1.6l.3-1.54zm-1.65 3.11a2.16 2.16 0 0 0 -2.43-2.3 3.24 3.24 0 0 0 -3.19 3.46 2.14 2.14 0 0 0 2.42 2.28 3.22 3.22 0 0 0 3.2-3.44z"/><path d="m396.52 179.36.48-.79a4 4 0 0 0 2.55.82c1.41 0 2.18-.49 2.18-1.32 0-1.67-4.17-.52-4.17-3 0-1.4 1.26-2.3 3.19-2.3a4.5 4.5 0 0 1 2.5.69l-.42.79a3.75 3.75 0 0 0 -2.16-.63c-1.36 0-2.13.55-2.13 1.35 0 1.71 4.17.55 4.17 3 0 1.45-1.3 2.29-3.26 2.29a4.69 4.69 0 0 1 -2.93-.9z"/><path d="m404.07 179.36.47-.79a4 4 0 0 0 2.55.82c1.42 0 2.19-.49 2.19-1.32 0-1.67-4.18-.52-4.18-3 0-1.4 1.27-2.3 3.2-2.3a4.47 4.47 0 0 1 2.49.69l-.42.79a3.71 3.71 0 0 0 -2.16-.63c-1.35 0-2.13.55-2.13 1.35 0 1.71 4.18.55 4.18 3 0 1.45-1.3 2.29-3.26 2.29a4.65 4.65 0 0 1 -2.93-.9z"/><path d="m413.32 176.78v.29c0 1.48.84 2.3 2.53 2.3a3.34 3.34 0 0 0 2.41-.92l.45.71a4.19 4.19 0 0 1 -2.94 1.09c-2.13 0-3.43-1.2-3.43-3.13a4.1 4.1 0 0 1 4.07-4.36 2.93 2.93 0 0 1 3.21 3.12 4.35 4.35 0 0 1 -.1.9zm.1-.74h5.25a1.27 1.27 0 0 0 0-.27 2.08 2.08 0 0 0 -2.31-2.17 3 3 0 0 0 -2.94 2.4z"/><path d="m420.77 179.36.48-.79a4 4 0 0 0 2.55.82c1.41 0 2.18-.49 2.18-1.32 0-1.67-4.17-.52-4.17-3 0-1.4 1.26-2.3 3.19-2.3a4.47 4.47 0 0 1 2.49.69l-.42.79a3.7 3.7 0 0 0 -2.15-.63c-1.36 0-2.13.55-2.13 1.35 0 1.71 4.17.55 4.17 3 0 1.45-1.3 2.29-3.26 2.29a4.65 4.65 0 0 1 -2.93-.9z"/><path d="m428.58 179.53a.79.79 0 0 1 .79-.8.7.7 0 0 1 .71.73.77.77 0 0 1 -.77.79.72.72 0 0 1 -.73-.72z"/><path d="m449.49 170.38-2 9.8h-1l1.55-7.77-5.04 6.53h-.49l-2.62-6.66-1.57 7.9h-1l2-9.8h.84l2.83 7.28 5.6-7.28z"/><path d="m458.87 172.82-5.38 8.32c-.91 1.4-1.6 1.83-2.66 1.83a2.38 2.38 0 0 1 -1.75-.66l.53-.73a1.7 1.7 0 0 0 1.3.54c.63 0 1.12-.3 1.7-1.19l.51-.79-1.83-7.32h1l1.53 6.27 4-6.27z"/><path d="m149.26 196.16.47-.79a4 4 0 0 0 2.55.82c1.42 0 2.19-.49 2.19-1.32 0-1.67-4.18-.52-4.18-3 0-1.4 1.26-2.3 3.2-2.3a4.47 4.47 0 0 1 2.49.69l-.42.8a3.64 3.64 0 0 0 -2.16-.64c-1.36 0-2.13.55-2.13 1.35 0 1.71 4.18.55 4.18 3 0 1.45-1.3 2.29-3.27 2.29a4.64 4.64 0 0 1 -2.92-.9z"/><path d="m157.52 193.93a4.18 4.18 0 0 1 4.26-4.37 3 3 0 0 1 3.34 3.11 4.18 4.18 0 0 1 -4.26 4.38 3 3 0 0 1 -3.34-3.12zm6.61-1.2a2.15 2.15 0 0 0 -2.42-2.3 3.24 3.24 0 0 0 -3.2 3.46 2.14 2.14 0 0 0 2.42 2.28 3.22 3.22 0 0 0 3.2-3.44z"/><path d="m174.76 192a4.3 4.3 0 0 1 -.09.84l-.84 4.18h-1l.84-4.2a4.13 4.13 0 0 0 .07-.67c0-1.05-.63-1.65-1.91-1.65a2.87 2.87 0 0 0 -3 2.57l-.78 3.95h-1l1.45-7.36h.95l-.23 1.17a3.62 3.62 0 0 1 2.88-1.23c1.69-.04 2.66.86 2.66 2.4z"/><path d="m189.3 192a5.16 5.16 0 0 1 -.08.84l-.84 4.18h-1l.84-4.2a4.13 4.13 0 0 0 .07-.67c0-1.05-.63-1.65-1.9-1.65a2.87 2.87 0 0 0 -3 2.57l-.78 3.95h-1l2.07-10.39h1l-.83 4.13a3.58 3.58 0 0 1 2.82-1.16 2.31 2.31 0 0 1 2.63 2.4z"/><path d="m200 189.62-1.46 7.38h-.95l.24-1.16a3.79 3.79 0 0 1 -2.88 1.23 3 3 0 0 1 -3.2-3.12 4.14 4.14 0 0 1 4.16-4.37 2.76 2.76 0 0 1 2.8 1.6l.31-1.54zm-1.65 3.11a2.15 2.15 0 0 0 -2.42-2.3 3.24 3.24 0 0 0 -3.2 3.46 2.14 2.14 0 0 0 2.42 2.28 3.22 3.22 0 0 0 3.21-3.44z"/><path d="m201.22 196.16.48-.79a4 4 0 0 0 2.55.82c1.41 0 2.19-.49 2.19-1.32 0-1.67-4.18-.52-4.18-3 0-1.4 1.26-2.3 3.19-2.3a4.5 4.5 0 0 1 2.5.69l-.42.8a3.66 3.66 0 0 0 -2.16-.64c-1.36 0-2.13.55-2.13 1.35 0 1.71 4.18.55 4.18 3 0 1.45-1.31 2.29-3.27 2.29a4.69 4.69 0 0 1 -2.93-.9z"/><path d="m213.14 196.16.47-.79a4.07 4.07 0 0 0 2.55.82c1.42 0 2.19-.49 2.19-1.32 0-1.67-4.18-.52-4.18-3 0-1.4 1.27-2.3 3.2-2.3a4.47 4.47 0 0 1 2.49.69l-.42.8a3.64 3.64 0 0 0 -2.16-.64c-1.35 0-2.12.55-2.12 1.35 0 1.71 4.17.55 4.17 3 0 1.45-1.3 2.29-3.26 2.29a4.65 4.65 0 0 1 -2.93-.9z"/><path d="m223.07 194.76a2.77 2.77 0 0 0 -.06.46c0 .63.35 1 1.06 1a1.9 1.9 0 0 0 1.14-.38l.24.76a2.75 2.75 0 0 1 -1.64.47 1.61 1.61 0 0 1 -1.8-1.68 2.83 2.83 0 0 1 .06-.57l.86-4.34h-1.31l.16-.84h1.31l.33-1.61h1l-.32 1.61h2.24l-.17.84h-2.24z"/><path d="m235.78 189.62-1.47 7.38h-.95l.24-1.16a3.79 3.79 0 0 1 -2.88 1.23 3 3 0 0 1 -3.2-3.12 4.14 4.14 0 0 1 4.16-4.37 2.76 2.76 0 0 1 2.8 1.6l.31-1.54zm-1.65 3.11a2.16 2.16 0 0 0 -2.43-2.3 3.24 3.24 0 0 0 -3.19 3.46 2.14 2.14 0 0 0 2.42 2.28 3.22 3.22 0 0 0 3.2-3.44z"/><path d="m243 189.56-.18 1h-.28c-1.57 0-2.62.9-3 2.73l-.75 3.74h-1l1.46-7.36h.95l-.25 1.34a3.3 3.3 0 0 1 3.05-1.45z"/><path d="m245.9 194.76a2.77 2.77 0 0 0 -.06.46c0 .63.35 1 1.07 1a1.88 1.88 0 0 0 1.13-.38l.24.76a2.73 2.73 0 0 1 -1.64.47 1.6 1.6 0 0 1 -1.79-1.68 2.81 2.81 0 0 1 .05-.57l.86-4.34h-1.3l.15-.84h1.32l.32-1.61h1l-.32 1.61h2.24l-.17.84h-2.24z"/><path d="m251.34 193.58v.29c0 1.48.84 2.3 2.54 2.3a3.35 3.35 0 0 0 2.41-.92l.44.71a4.19 4.19 0 0 1 -2.94 1.09c-2.13 0-3.43-1.2-3.43-3.13a4.1 4.1 0 0 1 4.08-4.36 2.93 2.93 0 0 1 3.2 3.12 5.18 5.18 0 0 1 -.09.9zm.1-.74h5.26a2.53 2.53 0 0 0 0-.27 2.08 2.08 0 0 0 -2.31-2.17 3 3 0 0 0 -2.95 2.44z"/><path d="m268.37 186.59-2.07 10.41h-.95l.23-1.16a3.77 3.77 0 0 1 -2.87 1.23 3 3 0 0 1 -3.2-3.12 4.14 4.14 0 0 1 4.16-4.37 2.77 2.77 0 0 1 2.8 1.6l.91-4.57zm-2.25 6.14a2.16 2.16 0 0 0 -2.43-2.3 3.24 3.24 0 0 0 -3.19 3.46 2.14 2.14 0 0 0 2.42 2.28 3.22 3.22 0 0 0 3.2-3.44z"/><path d="m276.21 186.59h1l-2.08 10.41h-1z"/><path d="m278.53 193.93a4.18 4.18 0 0 1 4.26-4.37 3 3 0 0 1 3.35 3.11 4.18 4.18 0 0 1 -4.26 4.38 3 3 0 0 1 -3.35-3.12zm6.61-1.2a2.15 2.15 0 0 0 -2.42-2.3 3.23 3.23 0 0 0 -3.19 3.46 2.14 2.14 0 0 0 2.42 2.28 3.22 3.22 0 0 0 3.19-3.44z"/><path d="m288 193.93a4.18 4.18 0 0 1 4.26-4.37 3 3 0 0 1 3.35 3.11 4.18 4.18 0 0 1 -4.26 4.38 3 3 0 0 1 -3.35-3.12zm6.61-1.2a2.15 2.15 0 0 0 -2.42-2.3 3.24 3.24 0 0 0 -3.2 3.46 2.15 2.15 0 0 0 2.43 2.28 3.22 3.22 0 0 0 3.2-3.44z"/><path d="m301.82 192.66 2.64 4.32h-1.16l-2.3-3.72-2 1.59-.42 2.13h-1l2.07-10.39h1l-1.41 7 5.08-4h1.41z"/><path d="m307.86 189.62h1l-1.46 7.38h-1zm.25-2.27a.76.76 0 0 1 .78-.76.65.65 0 0 1 .68.63.76.76 0 0 1 -.78.79.66.66 0 0 1 -.68-.66z"/><path d="m318.56 192a5.16 5.16 0 0 1 -.08.84l-.84 4.18h-1l.84-4.2a3.25 3.25 0 0 0 .07-.67c0-1.05-.63-1.65-1.9-1.65a2.87 2.87 0 0 0 -3 2.57l-.78 3.95h-1l1.46-7.36h.95l-.24 1.17a3.66 3.66 0 0 1 2.89-1.23c1.67-.04 2.63.86 2.63 2.4z"/><path d="m329.37 189.62-1.29 6.47c-.52 2.6-1.89 3.68-4.29 3.68a4.68 4.68 0 0 1 -3.27-1.1l.59-.76a3.84 3.84 0 0 0 2.75 1 2.88 2.88 0 0 0 3.2-2.63l.17-.82a3.8 3.8 0 0 1 -2.94 1.26c-2 0-3.25-1.13-3.25-3a4.07 4.07 0 0 1 4.2-4.17 2.82 2.82 0 0 1 2.87 1.68l.31-1.62zm-1.68 2.95c0-1.34-.91-2.14-2.44-2.14a3.13 3.13 0 0 0 -3.21 3.25c0 1.34.9 2.14 2.44 2.14a3.13 3.13 0 0 0 3.21-3.25z"/><path d="m338.52 188.8-.17.82h2.26l-.17.84h-2.23l-1.3 6.52h-1l1.3-6.52h-1.31l.16-.84h1.33l.18-.93a2.42 2.42 0 0 1 2.52-2.17 2.26 2.26 0 0 1 1.49.48l-.44.73a1.53 1.53 0 0 0 -1.05-.37c-.87 0-1.36.45-1.57 1.44z"/><path d="m341 193.93a4.18 4.18 0 0 1 4.26-4.37 3 3 0 0 1 3.35 3.11 4.18 4.18 0 0 1 -4.26 4.38 3 3 0 0 1 -3.35-3.12zm6.61-1.2a2.15 2.15 0 0 0 -2.42-2.3 3.24 3.24 0 0 0 -3.2 3.46 2.15 2.15 0 0 0 2.43 2.28 3.22 3.22 0 0 0 3.19-3.44z"/><path d="m355.73 189.56-.18 1h-.28c-1.57 0-2.62.9-3 2.73l-.74 3.74h-1l1.45-7.36h1l-.28 1.33a3.33 3.33 0 0 1 3.03-1.44z"/><path d="m369.41 189.62-4.16 7.38h-1l-1.24-6-3.44 6h-1l-1.44-7.36h.91l1.19 6.24 3.56-6.24h.84l1.23 6.24 3.51-6.24z"/><path d="m378.06 189.62-1.47 7.38h-.95l.24-1.16a3.78 3.78 0 0 1 -2.88 1.23 3 3 0 0 1 -3.2-3.12 4.14 4.14 0 0 1 4.16-4.37 2.76 2.76 0 0 1 2.8 1.6l.31-1.54zm-1.65 3.11a2.15 2.15 0 0 0 -2.42-2.3 3.24 3.24 0 0 0 -3.2 3.46 2.14 2.14 0 0 0 2.42 2.28 3.22 3.22 0 0 0 3.2-3.44z"/><path d="m385.24 189.56-.18 1h-.28c-1.57 0-2.62.9-3 2.73l-.75 3.74h-1l1.46-7.36h1l-.25 1.34a3.3 3.3 0 0 1 3-1.45z"/><path d="m395 186.59-2.09 10.41h-1l.24-1.16a3.77 3.77 0 0 1 -2.87 1.23 3 3 0 0 1 -3.21-3.12 4.15 4.15 0 0 1 4.16-4.37 2.77 2.77 0 0 1 2.8 1.6l.91-4.57zm-2.26 6.14a2.15 2.15 0 0 0 -2.42-2.3 3.23 3.23 0 0 0 -3.19 3.46 2.14 2.14 0 0 0 2.42 2.28 3.22 3.22 0 0 0 3.18-3.44z"/><path d="m403.52 188.8-.16.82h2.25l-.17.84h-2.22l-1.31 6.54h-1l1.3-6.52h-1.31l.16-.84h1.33l.18-.93a2.42 2.42 0 0 1 2.52-2.17 2.26 2.26 0 0 1 1.49.48l-.44.73a1.53 1.53 0 0 0 -1.05-.37c-.87-.02-1.36.43-1.57 1.42z"/><path d="m406 193.93a4.18 4.18 0 0 1 4.26-4.37 3 3 0 0 1 3.35 3.11 4.18 4.18 0 0 1 -4.26 4.38 3 3 0 0 1 -3.35-3.12zm6.61-1.2a2.15 2.15 0 0 0 -2.42-2.3 3.23 3.23 0 0 0 -3.19 3.46 2.14 2.14 0 0 0 2.42 2.28 3.22 3.22 0 0 0 3.19-3.44z"/><path d="m420.73 189.56-.18 1h-.28c-1.57 0-2.62.9-3 2.73l-.75 3.74h-1l1.46-7.36h1.02l-.25 1.34a3.3 3.3 0 0 1 2.98-1.45z"/><path d="m427.83 194.76a2.77 2.77 0 0 0 -.06.46c0 .63.35 1 1.07 1a1.9 1.9 0 0 0 1.13-.38l.24.76a2.73 2.73 0 0 1 -1.64.47 1.6 1.6 0 0 1 -1.79-1.68 2.81 2.81 0 0 1 .05-.57l.86-4.34h-1.31l.16-.84h1.32l.32-1.61h1l-.32 1.61h2.24l-.17.84h-2.24z"/><path d="m440.3 192a4.25 4.25 0 0 1 -.08.84l-.84 4.18h-1l.84-4.2a4.13 4.13 0 0 0 .07-.67c0-1.05-.63-1.65-1.91-1.65a2.87 2.87 0 0 0 -3 2.57l-.78 3.95h-1l2.08-10.39h1l-.82 4.13a3.58 3.58 0 0 1 2.81-1.16c1.67-.04 2.63.86 2.63 2.4z"/><path d="m443.74 193.58v.29c0 1.48.84 2.3 2.54 2.3a3.35 3.35 0 0 0 2.41-.92l.44.71a4.19 4.19 0 0 1 -2.94 1.09c-2.13 0-3.43-1.2-3.43-3.13a4.1 4.1 0 0 1 4.08-4.36 2.93 2.93 0 0 1 3.2 3.12 5.18 5.18 0 0 1 -.09.9zm.1-.74h5.26a2.53 2.53 0 0 0 0-.27 2.08 2.08 0 0 0 -2.31-2.17 3 3 0 0 0 -2.95 2.44z"/><path d="m144.21 210.73a4.18 4.18 0 0 1 4.29-4.37 3.08 3.08 0 0 1 2.9 1.47l-.84.49a2.28 2.28 0 0 0 -2.15-1.09 3.23 3.23 0 0 0 -3.2 3.46 2.15 2.15 0 0 0 2.45 2.28 2.84 2.84 0 0 0 2.32-1.06l.72.54a3.8 3.8 0 0 1 -3.09 1.4c-2.1 0-3.4-1.23-3.4-3.12z"/><path d="m154.82 203.39h1l-2.07 10.39h-1z"/><path d="m165.41 206.42-1.47 7.36h-.94l.24-1.16a3.79 3.79 0 0 1 -2.88 1.23 3 3 0 0 1 -3.2-3.12 4.14 4.14 0 0 1 4.16-4.37 2.76 2.76 0 0 1 2.8 1.6l.31-1.54zm-1.65 3.11a2.16 2.16 0 0 0 -2.43-2.3 3.24 3.24 0 0 0 -3.19 3.46 2.14 2.14 0 0 0 2.42 2.28 3.22 3.22 0 0 0 3.2-3.44z"/><path d="m166.62 213 .48-.79a4 4 0 0 0 2.55.82c1.41 0 2.18-.49 2.18-1.32 0-1.67-4.17-.52-4.17-3 0-1.4 1.26-2.3 3.19-2.3a4.5 4.5 0 0 1 2.5.69l-.42.8a3.66 3.66 0 0 0 -2.16-.64c-1.36 0-2.13.55-2.13 1.35 0 1.71 4.18.55 4.18 3 0 1.45-1.31 2.29-3.27 2.29a4.69 4.69 0 0 1 -2.93-.9z"/><path d="m174.17 213 .48-.79a4 4 0 0 0 2.55.82c1.41 0 2.18-.49 2.18-1.32 0-1.67-4.17-.52-4.17-3 0-1.4 1.26-2.3 3.19-2.3a4.47 4.47 0 0 1 2.49.69l-.42.8a3.63 3.63 0 0 0 -2.15-.64c-1.36 0-2.13.55-2.13 1.35 0 1.71 4.17.55 4.17 3 0 1.45-1.3 2.29-3.26 2.29a4.65 4.65 0 0 1 -2.93-.9z"/><path d="m183.42 210.38v.29c0 1.48.84 2.3 2.54 2.3a3.35 3.35 0 0 0 2.41-.92l.44.71a4.19 4.19 0 0 1 -2.94 1.09c-2.13 0-3.43-1.2-3.43-3.13a4.1 4.1 0 0 1 4.08-4.36 2.93 2.93 0 0 1 3.2 3.12 5.18 5.18 0 0 1 -.09.9zm.1-.74h5.26a2.53 2.53 0 0 0 0-.27 2.08 2.08 0 0 0 -2.31-2.17 3 3 0 0 0 -2.95 2.44z"/><path d="m190.87 213 .48-.79a4 4 0 0 0 2.55.82c1.41 0 2.18-.49 2.18-1.32 0-1.67-4.17-.52-4.17-3 0-1.4 1.26-2.3 3.19-2.3a4.5 4.5 0 0 1 2.5.69l-.43.8a3.63 3.63 0 0 0 -2.15-.64c-1.36 0-2.13.55-2.13 1.35 0 1.71 4.17.55 4.17 3 0 1.45-1.3 2.29-3.26 2.29a4.67 4.67 0 0 1 -2.93-.9z"/><path d="m204.5 210.38a1.46 1.46 0 0 0 0 .29c0 1.48.84 2.3 2.54 2.3a3.35 3.35 0 0 0 2.41-.92l.44.71a4.19 4.19 0 0 1 -2.94 1.09c-2.13 0-3.43-1.2-3.43-3.13a4.1 4.1 0 0 1 4.08-4.36 2.93 2.93 0 0 1 3.2 3.12 5.18 5.18 0 0 1 -.09.9zm.09-.74h5.26a2.53 2.53 0 0 0 0-.27 2.08 2.08 0 0 0 -2.31-2.17 3 3 0 0 0 -2.95 2.44z"/><path d="m220.25 206.42-4.74 7.36h-1l-1.82-7.36h1l1.53 6.29 4-6.29z"/><path d="m221.59 210.38a1.46 1.46 0 0 0 0 .29c0 1.48.84 2.3 2.54 2.3a3.35 3.35 0 0 0 2.41-.92l.45.71a4.22 4.22 0 0 1 -2.94 1.09c-2.13 0-3.44-1.2-3.44-3.13a4.11 4.11 0 0 1 4.08-4.36 2.93 2.93 0 0 1 3.21 3.12 4.35 4.35 0 0 1 -.1.9zm.1-.74h5.25a2.53 2.53 0 0 0 0-.27 2.08 2.08 0 0 0 -2.31-2.17 3 3 0 0 0 -2.94 2.44z"/><path d="m235 206.36-.18 1h-.28c-1.57 0-2.62.9-3 2.73l-.75 3.74h-1l1.46-7.36h.95l-.25 1.34a3.31 3.31 0 0 1 3.05-1.45z"/><path d="m244 206.42-5.38 8.32c-.91 1.4-1.6 1.83-2.66 1.83a2.42 2.42 0 0 1 -1.76-.66l.54-.73a1.7 1.7 0 0 0 1.3.54c.63 0 1.12-.3 1.69-1.19l.52-.79-1.83-7.32h1l1.52 6.27 4-6.27z"/><path d="m262.08 208.73a4.74 4.74 0 0 1 -.1.87l-.84 4.18h-1l.84-4.2a2.81 2.81 0 0 0 .07-.68c0-1-.6-1.64-1.82-1.64a2.76 2.76 0 0 0 -2.86 2.46l-.81 4.06h-1l.84-4.2a3.25 3.25 0 0 0 .07-.67c0-1-.58-1.65-1.82-1.65a2.81 2.81 0 0 0 -2.88 2.57l-.79 3.95h-1l1.46-7.36h.95l-.24 1.17a3.45 3.45 0 0 1 2.79-1.23 2.3 2.3 0 0 1 2.41 1.47 3.73 3.73 0 0 1 3.11-1.47c1.68 0 2.62.88 2.62 2.37z"/><path d="m264.51 210.73a4.18 4.18 0 0 1 4.26-4.37 3 3 0 0 1 3.35 3.11 4.18 4.18 0 0 1 -4.26 4.38 3 3 0 0 1 -3.35-3.12zm6.61-1.2a2.15 2.15 0 0 0 -2.42-2.3 3.23 3.23 0 0 0 -3.19 3.46 2.14 2.14 0 0 0 2.42 2.28 3.22 3.22 0 0 0 3.19-3.44z"/><path d="m279.24 206.36-.18 1h-.28c-1.57 0-2.62.9-3 2.73l-.75 3.74h-1l1.46-7.36h1l-.25 1.34a3.3 3.3 0 0 1 3-1.45z"/><path d="m288 208.76a5.16 5.16 0 0 1 -.08.84l-.84 4.18h-1l.84-4.2a4.13 4.13 0 0 0 .07-.67c0-1-.63-1.65-1.9-1.65a2.87 2.87 0 0 0 -3 2.57l-.78 3.95h-1l1.46-7.36h.95l-.24 1.17a3.66 3.66 0 0 1 2.89-1.23 2.31 2.31 0 0 1 2.63 2.4z"/><path d="m291.9 206.42h1l-1.46 7.36h-1zm.25-2.27a.75.75 0 0 1 .77-.76.65.65 0 0 1 .68.63.76.76 0 0 1 -.78.79.66.66 0 0 1 -.67-.66z"/><path d="m302.59 208.76a4.25 4.25 0 0 1 -.08.84l-.84 4.18h-1l.84-4.2a4.13 4.13 0 0 0 .07-.67c0-1-.63-1.65-1.91-1.65a2.87 2.87 0 0 0 -3 2.57l-.78 3.95h-1l1.46-7.36h.95l-.23 1.17a3.62 3.62 0 0 1 2.88-1.23c1.68 0 2.64.9 2.64 2.4z"/><path d="m313.4 206.42-1.29 6.47c-.51 2.6-1.89 3.68-4.28 3.68a4.7 4.7 0 0 1 -3.28-1.1l.59-.76a3.86 3.86 0 0 0 2.76 1 2.89 2.89 0 0 0 3.19-2.63l.17-.82a3.8 3.8 0 0 1 -2.94 1.26c-1.95 0-3.25-1.13-3.25-3a4.07 4.07 0 0 1 4.2-4.17 2.82 2.82 0 0 1 2.87 1.68l.31-1.62zm-1.68 3c0-1.34-.91-2.14-2.44-2.14a3.12 3.12 0 0 0 -3.2 3.25c0 1.34.89 2.14 2.43 2.14a3.13 3.13 0 0 0 3.21-3.3z"/><path d="m316.39 213.06a1.38 1.38 0 0 1 -.26.74l-1.07 2h-.67l.9-2.06a.69.69 0 0 1 -.39-.64.78.78 0 0 1 .78-.8.7.7 0 0 1 .71.76z"/><path d="m325.05 211.56a2.64 2.64 0 0 0 -.06.46c0 .63.35 1 1.07 1a1.9 1.9 0 0 0 1.13-.38l.24.76a2.73 2.73 0 0 1 -1.64.47 1.6 1.6 0 0 1 -1.79-1.68 2.81 2.81 0 0 1 .05-.57l.86-4.34h-1.31l.16-.84h1.32l.32-1.61h1l-.32 1.61h2.24l-.17.84h-2.25z"/><path d="m335 206.36-.19 1h-.28c-1.56 0-2.61.9-3 2.73l-.74 3.74h-1l1.46-7.36h.95l-.25 1.34a3.33 3.33 0 0 1 3.05-1.45z"/><path d="m344 206.42-5.38 8.32c-.91 1.4-1.6 1.83-2.66 1.83a2.38 2.38 0 0 1 -1.75-.66l.53-.73a1.7 1.7 0 0 0 1.3.54c.63 0 1.12-.3 1.7-1.19l.52-.79-1.84-7.32h1l1.53 6.27 4-6.27z"/><path d="m346.1 206.42h1l-1.46 7.36h-1zm.25-2.27a.76.76 0 0 1 .77-.76.66.66 0 0 1 .69.63.77.77 0 0 1 -.78.79.66.66 0 0 1 -.68-.66z"/><path d="m356.8 208.76a5.16 5.16 0 0 1 -.08.84l-.84 4.18h-1l.84-4.2a4.13 4.13 0 0 0 .07-.67c0-1-.63-1.65-1.9-1.65a2.87 2.87 0 0 0 -3 2.57l-.78 3.95h-1l1.46-7.36h.95l-.24 1.17a3.66 3.66 0 0 1 2.89-1.23 2.31 2.31 0 0 1 2.63 2.4z"/><path d="m367.61 206.42-1.29 6.47c-.52 2.6-1.89 3.68-4.29 3.68a4.68 4.68 0 0 1 -3.27-1.1l.59-.76a3.84 3.84 0 0 0 2.75 1 2.89 2.89 0 0 0 3.2-2.63l.17-.82a3.81 3.81 0 0 1 -3 1.26 2.91 2.91 0 0 1 -3.24-3 4.07 4.07 0 0 1 4.2-4.17 2.82 2.82 0 0 1 2.87 1.68l.31-1.62zm-1.68 3c0-1.34-.91-2.14-2.44-2.14a3.13 3.13 0 0 0 -3.21 3.25c0 1.34.9 2.14 2.44 2.14a3.13 3.13 0 0 0 3.21-3.3z"/><path d="m375.59 211.56a2.64 2.64 0 0 0 -.06.46c0 .63.35 1 1.06 1a1.9 1.9 0 0 0 1.14-.38l.24.76a2.75 2.75 0 0 1 -1.64.47 1.6 1.6 0 0 1 -1.79-1.68 2.81 2.81 0 0 1 0-.57l.86-4.34h-1.31l.16-.84h1.31l.33-1.61h1l-.32 1.61h2.24l-.17.84h-2.24z"/><path d="m380 210.73a4.18 4.18 0 0 1 4.25-4.37 3 3 0 0 1 3.35 3.11 4.18 4.18 0 0 1 -4.26 4.38 3 3 0 0 1 -3.34-3.12zm6.61-1.2a2.15 2.15 0 0 0 -2.42-2.3 3.24 3.24 0 0 0 -3.2 3.46 2.14 2.14 0 0 0 2.42 2.28 3.22 3.22 0 0 0 3.24-3.44z"/><path d="m402.22 209.47a4.15 4.15 0 0 1 -4.18 4.38 2.72 2.72 0 0 1 -2.81-1.68l-.32 1.61h-1l2.09-10.39h1l-.83 4.13a3.75 3.75 0 0 1 2.81-1.16 3 3 0 0 1 3.24 3.11zm-1 .06a2.15 2.15 0 0 0 -2.42-2.3 3.21 3.21 0 0 0 -3.18 3.46 2.14 2.14 0 0 0 2.38 2.31 3.21 3.21 0 0 0 3.21-3.47z"/><path d="m405.07 210.38v.29c0 1.48.84 2.3 2.53 2.3a3.35 3.35 0 0 0 2.41-.92l.45.71a4.21 4.21 0 0 1 -2.94 1.09c-2.13 0-3.43-1.2-3.43-3.13a4.1 4.1 0 0 1 4.07-4.36 2.93 2.93 0 0 1 3.21 3.12 4.35 4.35 0 0 1 -.1.9zm.1-.74h5.25a2.53 2.53 0 0 0 0-.27 2.07 2.07 0 0 0 -2.31-2.17 3 3 0 0 0 -2.94 2.44z"/><path d="m419.12 206.42h1l-1.46 7.36h-1zm.26-2.27a.75.75 0 0 1 .77-.76.65.65 0 0 1 .68.63.76.76 0 0 1 -.78.79.66.66 0 0 1 -.67-.66z"/><path d="m429.82 208.76a4.25 4.25 0 0 1 -.08.84l-.84 4.18h-1l.84-4.2a4.13 4.13 0 0 0 .07-.67c0-1-.63-1.65-1.91-1.65a2.87 2.87 0 0 0 -3 2.57l-.78 3.95h-1l1.46-7.36h1l-.23 1.17a3.62 3.62 0 0 1 2.88-1.23c1.63 0 2.59.9 2.59 2.4z"/><path d="m441.14 203.39-2.08 10.39h-.95l.24-1.16a3.77 3.77 0 0 1 -2.87 1.23 3 3 0 0 1 -3.21-3.12 4.15 4.15 0 0 1 4.16-4.37 2.77 2.77 0 0 1 2.8 1.6l.91-4.57zm-2.26 6.14a2.15 2.15 0 0 0 -2.42-2.3 3.24 3.24 0 0 0 -3.2 3.46 2.15 2.15 0 0 0 2.43 2.28 3.22 3.22 0 0 0 3.19-3.44z"/><path d="m443.46 210.38a1.46 1.46 0 0 0 0 .29c0 1.48.84 2.3 2.54 2.3a3.35 3.35 0 0 0 2.41-.92l.45.71a4.23 4.23 0 0 1 -2.95 1.09c-2.13 0-3.43-1.2-3.43-3.13a4.11 4.11 0 0 1 4.08-4.36 2.93 2.93 0 0 1 3.21 3.12 5.16 5.16 0 0 1 -.1.9zm.09-.74h5.26a2.53 2.53 0 0 0 0-.27 2.08 2.08 0 0 0 -2.31-2.17 3 3 0 0 0 -2.95 2.44z"/><path d="m452 209.55h3.67l-.17.87h-3.67z"/><path d="m140.1 226.27a4.15 4.15 0 0 1 -4.17 4.38 2.76 2.76 0 0 1 -2.81-1.61l-.84 4.26h-1l2-10.08h1l-.23 1.17a3.74 3.74 0 0 1 2.87-1.23 3 3 0 0 1 3.18 3.11zm-1 .06a2.15 2.15 0 0 0 -2.42-2.3 3.21 3.21 0 0 0 -3.18 3.46 2.14 2.14 0 0 0 2.42 2.28 3.21 3.21 0 0 0 3.17-3.44z"/><path d="m143 227.18v.29c0 1.48.84 2.3 2.53 2.3a3.34 3.34 0 0 0 2.41-.92l.45.71a4.21 4.21 0 0 1 -2.94 1.09c-2.13 0-3.43-1.2-3.43-3.13a4.1 4.1 0 0 1 4.07-4.36 2.93 2.93 0 0 1 3.21 3.12 4.35 4.35 0 0 1 -.1.9zm.1-.74h5.25a1.27 1.27 0 0 0 0-.27 2.08 2.08 0 0 0 -2.35-2.17 3 3 0 0 0 -2.95 2.44z"/><path d="m158.87 225.56a5.16 5.16 0 0 1 -.08.84l-.84 4.18h-1l.84-4.2a3.25 3.25 0 0 0 .07-.67c0-1.05-.63-1.65-1.9-1.65a2.87 2.87 0 0 0 -3 2.57l-.78 4h-1l1.46-7.36h1l-.24 1.17a3.66 3.66 0 0 1 2.89-1.23c1.62-.05 2.58.85 2.58 2.35z"/><path d="m170.19 220.19-2.08 10.39h-1l.24-1.16a3.77 3.77 0 0 1 -2.87 1.23 3 3 0 0 1 -3.21-3.12 4.14 4.14 0 0 1 4.16-4.37 2.77 2.77 0 0 1 2.8 1.6l.91-4.57zm-2.26 6.14a2.15 2.15 0 0 0 -2.42-2.3 3.24 3.24 0 0 0 -3.2 3.46 2.15 2.15 0 0 0 2.43 2.28 3.22 3.22 0 0 0 3.19-3.44z"/><path d="m172.5 227.18v.29c0 1.48.84 2.3 2.54 2.3a3.35 3.35 0 0 0 2.41-.92l.44.71a4.19 4.19 0 0 1 -2.94 1.09c-2.13 0-3.43-1.2-3.43-3.13a4.1 4.1 0 0 1 4.08-4.36 2.93 2.93 0 0 1 3.2 3.12 5.18 5.18 0 0 1 -.09.9zm.1-.74h5.26a2.53 2.53 0 0 0 0-.27 2.08 2.08 0 0 0 -2.31-2.17 3 3 0 0 0 -2.95 2.44z"/><path d="m188.43 225.56a4.3 4.3 0 0 1 -.09.84l-.84 4.18h-1l.84-4.2a4.13 4.13 0 0 0 .07-.67c0-1.05-.63-1.65-1.91-1.65a2.86 2.86 0 0 0 -3 2.57l-.79 4h-1l1.45-7.36h1l-.24 1.17a3.62 3.62 0 0 1 2.88-1.23c1.66-.05 2.63.85 2.63 2.35z"/><path d="m192.51 228.36a2.58 2.58 0 0 0 0 .46c0 .63.35 1 1.06 1a1.85 1.85 0 0 0 1.13-.38l.24.76a2.73 2.73 0 0 1 -1.64.47 1.61 1.61 0 0 1 -1.79-1.68 2.26 2.26 0 0 1 .06-.57l.85-4.34h-1.3l.15-.84h1.32l.32-1.62h1l-.33 1.62h2.24l-.16.84h-2.24z"/><path d="m209.86 223.22-1.47 7.36h-.95l.24-1.16a3.79 3.79 0 0 1 -2.88 1.23 3 3 0 0 1 -3.2-3.12 4.14 4.14 0 0 1 4.16-4.37 2.76 2.76 0 0 1 2.8 1.6l.31-1.54zm-1.65 3.11a2.16 2.16 0 0 0 -2.43-2.3 3.24 3.24 0 0 0 -3.19 3.46 2.14 2.14 0 0 0 2.42 2.28 3.22 3.22 0 0 0 3.2-3.44z"/><path d="m211.07 229.76.48-.79a4 4 0 0 0 2.55.82c1.41 0 2.18-.49 2.18-1.32 0-1.67-4.17-.52-4.17-3 0-1.4 1.26-2.3 3.19-2.3a4.5 4.5 0 0 1 2.5.69l-.42.79a3.73 3.73 0 0 0 -2.16-.63c-1.36 0-2.13.55-2.13 1.35 0 1.71 4.17.55 4.17 3 0 1.45-1.3 2.29-3.26 2.29a4.69 4.69 0 0 1 -2.93-.9z"/><path d="m232 226.27a4.15 4.15 0 0 1 -4.18 4.38 2.75 2.75 0 0 1 -2.8-1.61l-.84 4.26h-1l2-10.08h1l-.24 1.17a3.74 3.74 0 0 1 2.87-1.23 3 3 0 0 1 3.19 3.11zm-1 .06a2.16 2.16 0 0 0 -2.43-2.3 3.22 3.22 0 0 0 -3.18 3.46 2.15 2.15 0 0 0 2.43 2.28 3.21 3.21 0 0 0 3.18-3.44z"/><path d="m234.89 227.18a1.46 1.46 0 0 0 0 .29c0 1.48.84 2.3 2.54 2.3a3.35 3.35 0 0 0 2.41-.92l.45.71a4.22 4.22 0 0 1 -2.94 1.09c-2.13 0-3.44-1.2-3.44-3.13a4.11 4.11 0 0 1 4.08-4.36 2.93 2.93 0 0 1 3.21 3.12 4.35 4.35 0 0 1 -.1.9zm.1-.74h5.25a2.53 2.53 0 0 0 0-.27 2.08 2.08 0 0 0 -2.31-2.17 3 3 0 0 0 -2.93 2.44z"/><path d="m248.3 223.16-.18 1h-.28c-1.57 0-2.62.9-3 2.73l-.75 3.74h-1l1.46-7.36h.95l-.25 1.34a3.31 3.31 0 0 1 3.05-1.45z"/><path d="m261.46 223.22-5.38 8.32c-.91 1.4-1.59 1.83-2.66 1.83a2.41 2.41 0 0 1 -1.75-.66l.53-.73a1.74 1.74 0 0 0 1.31.54c.63 0 1.12-.3 1.69-1.19l.52-.79-1.83-7.32h1l1.53 6.27 4-6.27z"/><path d="m261.81 227.53a4.18 4.18 0 0 1 4.26-4.37 3 3 0 0 1 3.34 3.11 4.18 4.18 0 0 1 -4.25 4.38 3 3 0 0 1 -3.35-3.12zm6.61-1.2a2.15 2.15 0 0 0 -2.42-2.33 3.24 3.24 0 0 0 -3.2 3.46 2.15 2.15 0 0 0 2.43 2.28 3.22 3.22 0 0 0 3.19-3.41z"/><path d="m279.47 223.22-1.47 7.36h-1l.24-1.17a3.56 3.56 0 0 1 -2.84 1.24 2.31 2.31 0 0 1 -2.62-2.41 4.83 4.83 0 0 1 .08-.82l.84-4.2h1l-.84 4.2a4 4 0 0 0 -.07.66c0 1.06.61 1.68 1.88 1.68a2.88 2.88 0 0 0 3-2.58l.78-4z"/><path d="m286.66 223.16-.18 1h-.28c-1.57 0-2.62.9-3 2.73l-.75 3.74h-1l1.46-7.36h.95l-.25 1.34a3.3 3.3 0 0 1 3.05-1.45z"/><path d="m291.38 229.76.47-.79a4 4 0 0 0 2.55.82c1.42 0 2.19-.49 2.19-1.32 0-1.67-4.18-.52-4.18-3 0-1.4 1.26-2.3 3.2-2.3a4.49 4.49 0 0 1 2.49.69l-.42.79a3.71 3.71 0 0 0 -2.16-.63c-1.36 0-2.13.55-2.13 1.35 0 1.71 4.18.55 4.18 3 0 1.45-1.3 2.29-3.27 2.29a4.64 4.64 0 0 1 -2.92-.9z"/><path d="m301.3 228.36a4 4 0 0 0 -.05.46c0 .63.35 1 1.06 1a1.9 1.9 0 0 0 1.14-.38l.24.76a2.75 2.75 0 0 1 -1.64.47 1.61 1.61 0 0 1 -1.8-1.68 2.83 2.83 0 0 1 .06-.57l.85-4.34h-1.3l.16-.84h1.31l.32-1.62h1l-.32 1.62h2.24l-.17.84h-2.24z"/><path d="m305.75 227.53a4.18 4.18 0 0 1 4.26-4.37 3 3 0 0 1 3.35 3.11 4.18 4.18 0 0 1 -4.26 4.38 3 3 0 0 1 -3.35-3.12zm6.62-1.2a2.16 2.16 0 0 0 -2.43-2.3 3.24 3.24 0 0 0 -3.19 3.46 2.14 2.14 0 0 0 2.42 2.28 3.22 3.22 0 0 0 3.2-3.44z"/><path d="m320.49 223.16-.19 1h-.28c-1.57 0-2.62.9-3 2.73l-.74 3.74h-1l1.46-7.36h.95l-.25 1.34a3.32 3.32 0 0 1 3.05-1.45z"/><path d="m329.49 223.22-5.38 8.32c-.91 1.4-1.6 1.83-2.66 1.83a2.38 2.38 0 0 1 -1.75-.66l.53-.73a1.7 1.7 0 0 0 1.3.54c.63 0 1.12-.3 1.7-1.19l.52-.79-1.84-7.32h1l1.53 6.27 4-6.27z"/><path d="m342.68 223.22-1.47 7.36h-1l.24-1.16a3.77 3.77 0 0 1 -2.87 1.23 3 3 0 0 1 -3.21-3.12 4.15 4.15 0 0 1 4.16-4.37 2.76 2.76 0 0 1 2.8 1.6l.31-1.54zm-1.68 3.11a2.15 2.15 0 0 0 -2.42-2.3 3.24 3.24 0 0 0 -3.19 3.46 2.14 2.14 0 0 0 2.42 2.28 3.22 3.22 0 0 0 3.19-3.44z"/><path d="m352.36 225.56a4.25 4.25 0 0 1 -.08.84l-.84 4.18h-1l.84-4.2a4.13 4.13 0 0 0 .07-.67c0-1.05-.63-1.65-1.91-1.65a2.87 2.87 0 0 0 -3 2.57l-.78 4h-1l1.46-7.36h.95l-.23 1.17a3.62 3.62 0 0 1 2.88-1.23c1.68-.05 2.64.85 2.64 2.35z"/><path d="m363.68 220.19-2.08 10.39h-1l.24-1.16a3.77 3.77 0 0 1 -2.87 1.23 3 3 0 0 1 -3.21-3.12 4.15 4.15 0 0 1 4.16-4.37 2.77 2.77 0 0 1 2.8 1.6l.91-4.57zm-2.26 6.14a2.15 2.15 0 0 0 -2.42-2.33 3.24 3.24 0 0 0 -3.2 3.46 2.15 2.15 0 0 0 2.43 2.28 3.22 3.22 0 0 0 3.19-3.41z"/><path d="m377.73 223.22-1.29 6.47c-.51 2.6-1.89 3.68-4.28 3.68a4.66 4.66 0 0 1 -3.28-1.11l.59-.75a3.86 3.86 0 0 0 2.76 1 2.89 2.89 0 0 0 3.19-2.63l.17-.82a3.8 3.8 0 0 1 -2.94 1.26c-1.95 0-3.25-1.13-3.25-3a4.07 4.07 0 0 1 4.2-4.17 2.82 2.82 0 0 1 2.87 1.68l.31-1.62zm-1.68 2.95c0-1.34-.91-2.14-2.44-2.14a3.12 3.12 0 0 0 -3.2 3.25c0 1.34.89 2.14 2.43 2.14a3.13 3.13 0 0 0 3.21-3.25z"/><path d="m380.67 227.18a1.46 1.46 0 0 0 0 .29c0 1.48.84 2.3 2.54 2.3a3.35 3.35 0 0 0 2.41-.92l.45.71a4.22 4.22 0 0 1 -2.94 1.09c-2.13 0-3.44-1.2-3.44-3.13a4.11 4.11 0 0 1 4.08-4.36 2.93 2.93 0 0 1 3.21 3.12 4.35 4.35 0 0 1 -.1.9zm.1-.74h5.23a2.53 2.53 0 0 0 0-.27 2.08 2.08 0 0 0 -2.31-2.17 3 3 0 0 0 -2.92 2.44z"/><path d="m390.5 228.36a2.64 2.64 0 0 0 -.06.46c0 .63.35 1 1.06 1a1.9 1.9 0 0 0 1.14-.38l.24.76a2.73 2.73 0 0 1 -1.64.47 1.6 1.6 0 0 1 -1.79-1.68 2.81 2.81 0 0 1 .05-.57l.86-4.34h-1.31l.16-.84h1.31l.33-1.62h1l-.32 1.62h2.24l-.17.84h-2.24z"/><path d="m394.5 229.76.5-.76a4 4 0 0 0 2.54.82c1.42 0 2.19-.49 2.19-1.32 0-1.67-4.17-.52-4.17-3 0-1.4 1.26-2.3 3.19-2.3a4.47 4.47 0 0 1 2.49.69l-.42.79a3.7 3.7 0 0 0 -2.15-.63c-1.36 0-2.13.55-2.13 1.35 0 1.71 4.17.55 4.17 3 0 1.45-1.3 2.29-3.26 2.29a4.65 4.65 0 0 1 -2.95-.93z"/><path d="m415.31 223.22-1.47 7.36h-1l.24-1.17a3.56 3.56 0 0 1 -2.84 1.24 2.31 2.31 0 0 1 -2.62-2.41 4.83 4.83 0 0 1 .08-.82l.84-4.2h1l-.84 4.2a4 4 0 0 0 -.07.66c0 1.06.61 1.68 1.87 1.68a2.88 2.88 0 0 0 3-2.58l.78-4z"/><path d="m425.58 226.27a4.14 4.14 0 0 1 -4.17 4.38 2.75 2.75 0 0 1 -2.8-1.61l-.84 4.26h-1l2-10.08h1l-.24 1.17a3.74 3.74 0 0 1 2.87-1.23 3 3 0 0 1 3.18 3.11zm-1 .06a2.16 2.16 0 0 0 -2.43-2.3 3.22 3.22 0 0 0 -3.18 3.46 2.15 2.15 0 0 0 2.43 2.28 3.21 3.21 0 0 0 3.18-3.44z"/><path d="m432.8 227.18v.29c0 1.48.84 2.3 2.54 2.3a3.31 3.31 0 0 0 2.4-.92l.45.71a4.19 4.19 0 0 1 -2.94 1.09c-2.13 0-3.43-1.2-3.43-3.13a4.1 4.1 0 0 1 4.08-4.36 2.93 2.93 0 0 1 3.2 3.12 5.18 5.18 0 0 1 -.09.9zm.1-.74h5.25a1.27 1.27 0 0 0 0-.27 2.08 2.08 0 0 0 -2.31-2.17 3 3 0 0 0 -2.94 2.44z"/><path d="m449.23 223.22-1.47 7.36h-.95l.23-1.16a3.77 3.77 0 0 1 -2.87 1.23 3 3 0 0 1 -3.21-3.12 4.15 4.15 0 0 1 4.16-4.37 2.76 2.76 0 0 1 2.81 1.6l.3-1.54zm-1.65 3.11a2.16 2.16 0 0 0 -2.43-2.3 3.24 3.24 0 0 0 -3.19 3.46 2.14 2.14 0 0 0 2.42 2.28 3.22 3.22 0 0 0 3.2-3.44z"/><path d="m456.41 223.16-.18 1h-.28c-1.57 0-2.62.9-3 2.73l-.74 3.74h-1l1.45-7.36h1l-.26 1.34a3.33 3.33 0 0 1 3.01-1.45z"/><path d="m459.5 220.19h1l-2.08 10.39h-1z"/><path d="m469.56 223.22-5.38 8.32c-.91 1.4-1.6 1.83-2.66 1.83a2.38 2.38 0 0 1 -1.75-.66l.53-.73a1.7 1.7 0 0 0 1.3.54c.63 0 1.12-.3 1.69-1.19l.52-.79-1.81-7.32h1l1.52 6.27 4-6.27z"/><path d="m181.8 240-1.47 7.36h-1l.24-1.16a3.77 3.77 0 0 1 -2.87 1.23 3 3 0 0 1 -3.21-3.12 4.15 4.15 0 0 1 4.16-4.37 2.76 2.76 0 0 1 2.8 1.6l.31-1.54zm-1.66 3.11a2.15 2.15 0 0 0 -2.42-2.3 3.24 3.24 0 0 0 -3.19 3.46 2.14 2.14 0 0 0 2.42 2.28 3.21 3.21 0 0 0 3.19-3.42z"/><path d="m191.48 242.36a4.25 4.25 0 0 1 -.08.84l-.84 4.18h-1l.84-4.2a4.13 4.13 0 0 0 .07-.67c0-1-.63-1.65-1.91-1.65a2.87 2.87 0 0 0 -3 2.57l-.78 3.95h-1l1.46-7.36h.95l-.23 1.17a3.62 3.62 0 0 1 2.88-1.23c1.68.04 2.64.9 2.64 2.4z"/><path d="m202.8 237-2.08 10.39h-.95l.24-1.16a3.77 3.77 0 0 1 -2.87 1.23 3 3 0 0 1 -3.21-3.12 4.15 4.15 0 0 1 4.16-4.37 2.77 2.77 0 0 1 2.8 1.6l.91-4.57zm-2.26 6.14a2.15 2.15 0 0 0 -2.42-2.3 3.24 3.24 0 0 0 -3.2 3.46 2.15 2.15 0 0 0 2.43 2.28 3.22 3.22 0 0 0 3.19-3.45z"/><path d="m216.75 240-1.47 7.36h-.95l.24-1.16a3.77 3.77 0 0 1 -2.87 1.23 3 3 0 0 1 -3.21-3.12 4.15 4.15 0 0 1 4.16-4.37 2.76 2.76 0 0 1 2.8 1.6l.31-1.54zm-1.65 3.11a2.15 2.15 0 0 0 -2.42-2.3 3.23 3.23 0 0 0 -3.19 3.46 2.14 2.14 0 0 0 2.42 2.28 3.22 3.22 0 0 0 3.19-3.42z"/><path d="m220.83 237h1l-2.07 10.39h-1z"/><path d="m222.43 246.56.48-.79a4 4 0 0 0 2.55.82c1.41 0 2.18-.49 2.18-1.32 0-1.67-4.17-.52-4.17-3 0-1.4 1.26-2.3 3.19-2.3a4.5 4.5 0 0 1 2.5.69l-.42.79a3.73 3.73 0 0 0 -2.16-.63c-1.36 0-2.13.55-2.13 1.35 0 1.71 4.17.55 4.17 3 0 1.45-1.3 2.29-3.26 2.29a4.69 4.69 0 0 1 -2.93-.9z"/><path d="m230.69 244.33a4.18 4.18 0 0 1 4.31-4.33 3 3 0 0 1 3.35 3.11 4.18 4.18 0 0 1 -4.26 4.38 3 3 0 0 1 -3.4-3.16zm6.62-1.2a2.16 2.16 0 0 0 -2.43-2.3 3.24 3.24 0 0 0 -3.19 3.46 2.14 2.14 0 0 0 2.42 2.28 3.22 3.22 0 0 0 3.2-3.44z"/><path d="m253.41 237-2.08 10.39h-1l.24-1.16a3.77 3.77 0 0 1 -2.87 1.23 3 3 0 0 1 -3.21-3.12 4.15 4.15 0 0 1 4.21-4.34 2.77 2.77 0 0 1 2.8 1.6l.91-4.57zm-2.26 6.14a2.15 2.15 0 0 0 -2.42-2.3 3.23 3.23 0 0 0 -3.19 3.46 2.14 2.14 0 0 0 2.42 2.28 3.22 3.22 0 0 0 3.19-3.45z"/><path d="m260 240-.19 1h-.28c-1.57 0-2.62.9-3 2.73l-.74 3.74h-1l1.46-7.36h.95l-.25 1.34a3.32 3.32 0 0 1 3.05-1.45z"/><path d="m261.86 244a1.46 1.46 0 0 0 0 .29c0 1.48.85 2.3 2.54 2.3a3.35 3.35 0 0 0 2.41-.92l.45.71a4.22 4.22 0 0 1 -2.94 1.09c-2.13 0-3.44-1.2-3.44-3.13a4.11 4.11 0 0 1 4.08-4.36 2.93 2.93 0 0 1 3.21 3.12 4.35 4.35 0 0 1 -.1.9zm.1-.74h5.25a2.53 2.53 0 0 0 0-.27 2.07 2.07 0 0 0 -2.31-2.17 3 3 0 0 0 -2.9 2.42z"/><path d="m269.31 246.56.47-.79a4 4 0 0 0 2.55.82c1.42 0 2.19-.49 2.19-1.32 0-1.67-4.18-.52-4.18-3 0-1.4 1.26-2.3 3.2-2.3a4.49 4.49 0 0 1 2.49.69l-.42.79a3.73 3.73 0 0 0 -2.16-.63c-1.36 0-2.13.55-2.13 1.35 0 1.71 4.18.55 4.18 3 0 1.45-1.31 2.29-3.27 2.29a4.64 4.64 0 0 1 -2.92-.9z"/><path d="m276.85 246.56.48-.79a4 4 0 0 0 2.55.82c1.41 0 2.18-.49 2.18-1.32 0-1.67-4.17-.52-4.17-3 0-1.4 1.26-2.3 3.19-2.3a4.5 4.5 0 0 1 2.5.69l-.42.79a3.75 3.75 0 0 0 -2.16-.63c-1.36 0-2.13.55-2.13 1.35 0 1.71 4.17.55 4.17 3 0 1.45-1.3 2.29-3.26 2.29a4.67 4.67 0 0 1 -2.93-.9z"/><path d="m286.11 244a1.46 1.46 0 0 0 0 .29c0 1.48.84 2.3 2.54 2.3a3.35 3.35 0 0 0 2.41-.92l.45.71a4.23 4.23 0 0 1 -2.95 1.09c-2.13 0-3.43-1.2-3.43-3.13a4.1 4.1 0 0 1 4.08-4.36 2.93 2.93 0 0 1 3.21 3.12 5.16 5.16 0 0 1 -.1.9zm.09-.74h5.26a2.53 2.53 0 0 0 0-.27 2.08 2.08 0 0 0 -2.31-2.17 3 3 0 0 0 -2.95 2.42z"/><path d="m293.55 246.56.48-.79a4 4 0 0 0 2.55.82c1.41 0 2.18-.49 2.18-1.32 0-1.67-4.17-.52-4.17-3 0-1.4 1.26-2.3 3.19-2.3a4.5 4.5 0 0 1 2.5.69l-.42.79a3.73 3.73 0 0 0 -2.16-.63c-1.36 0-2.13.55-2.13 1.35 0 1.71 4.17.55 4.17 3 0 1.45-1.3 2.29-3.26 2.29a4.69 4.69 0 0 1 -2.93-.9z"/><path d="m314.36 240-1.47 7.36h-.95l.24-1.17a3.58 3.58 0 0 1 -2.85 1.24 2.31 2.31 0 0 1 -2.62-2.41 4 4 0 0 1 .09-.82l.84-4.2h1l-.84 4.2a4 4 0 0 0 -.07.66c0 1.06.62 1.68 1.88 1.68a2.88 2.88 0 0 0 3-2.58l.79-4z"/><path d="m324.64 243.07a4.15 4.15 0 0 1 -4.18 4.38 2.75 2.75 0 0 1 -2.8-1.61l-.84 4.26h-1l2-10.08h.95l-.24 1.17a3.78 3.78 0 0 1 2.88-1.23 3 3 0 0 1 3.23 3.11zm-1 .06a2.15 2.15 0 0 0 -2.42-2.3 3.21 3.21 0 0 0 -3.18 3.46 2.14 2.14 0 0 0 2.42 2.28 3.21 3.21 0 0 0 3.17-3.44z"/><path d="m333.71 239.2-.17.82h2.25l-.16.84h-2.23l-1.3 6.52h-1l1.3-6.52h-1.31l.15-.84h1.33l.18-.93a2.42 2.42 0 0 1 2.53-2.17 2.25 2.25 0 0 1 1.48.48l-.43.73a1.55 1.55 0 0 0 -1.05-.37c-.87 0-1.36.45-1.57 1.44z"/><path d="m336.18 244.33a4.18 4.18 0 0 1 4.26-4.37 3 3 0 0 1 3.35 3.11 4.18 4.18 0 0 1 -4.26 4.38 3 3 0 0 1 -3.35-3.12zm6.61-1.2a2.15 2.15 0 0 0 -2.42-2.3 3.24 3.24 0 0 0 -3.19 3.46 2.14 2.14 0 0 0 2.42 2.28 3.21 3.21 0 0 0 3.19-3.44z"/><path d="m350.91 240-.18 1h-.28c-1.57 0-2.62.9-3 2.73l-.74 3.74h-1l1.46-7.36h.95l-.25 1.34a3.31 3.31 0 0 1 3.04-1.45z"/><path d="m358 245.16a2.77 2.77 0 0 0 -.06.46c0 .63.35 1 1.07 1a1.88 1.88 0 0 0 1.13-.38l.24.76a2.73 2.73 0 0 1 -1.64.47 1.61 1.61 0 0 1 -1.79-1.68 2.26 2.26 0 0 1 .06-.57l.85-4.34h-1.3l.15-.84h1.29l.32-1.61h1l-.32 1.57h2.24l-.16.84h-2.25z"/><path d="m370.49 242.36a4.3 4.3 0 0 1 -.09.84l-.84 4.18h-1l.84-4.2a4.13 4.13 0 0 0 .07-.67c0-1-.63-1.65-1.91-1.65a2.86 2.86 0 0 0 -3 2.57l-.79 3.95h-1l2.1-10.38h1l-.83 4.13a3.58 3.58 0 0 1 2.81-1.16c1.67.03 2.64.89 2.64 2.39z"/><path d="m373.93 244a1.46 1.46 0 0 0 0 .29c0 1.48.84 2.3 2.54 2.3a3.35 3.35 0 0 0 2.41-.92l.45.71a4.23 4.23 0 0 1 -2.95 1.09c-2.12 0-3.43-1.2-3.43-3.13a4.11 4.11 0 0 1 4.05-4.34 2.93 2.93 0 0 1 3.21 3.12 5.16 5.16 0 0 1 -.1.9zm.1-.74h5.25a2.53 2.53 0 0 0 0-.27 2.08 2.08 0 0 0 -2.28-2.19 3 3 0 0 0 -3 2.44z"/><path d="m386.46 244.33a4.18 4.18 0 0 1 4.28-4.37 3.06 3.06 0 0 1 2.9 1.47l-.84.49a2.26 2.26 0 0 0 -2.14-1.09 3.24 3.24 0 0 0 -3.21 3.46 2.15 2.15 0 0 0 2.45 2.28 2.86 2.86 0 0 0 2.33-1.06l.71.54a3.8 3.8 0 0 1 -3.08 1.4c-2.1 0-3.4-1.23-3.4-3.12z"/><path d="m397.07 237h1l-2.07 10.38h-1z"/><path d="m407.66 240-1.47 7.36h-1l.24-1.16a3.77 3.77 0 0 1 -2.87 1.23 3 3 0 0 1 -3.21-3.12 4.15 4.15 0 0 1 4.16-4.37 2.76 2.76 0 0 1 2.8 1.6l.31-1.54zm-1.66 3.13a2.15 2.15 0 0 0 -2.42-2.3 3.24 3.24 0 0 0 -3.19 3.46 2.14 2.14 0 0 0 2.42 2.28 3.21 3.21 0 0 0 3.19-3.44z"/><path d="m408.87 246.56.48-.79a4 4 0 0 0 2.55.82c1.41 0 2.18-.49 2.18-1.32 0-1.67-4.17-.52-4.17-3 0-1.4 1.26-2.3 3.19-2.3a4.47 4.47 0 0 1 2.49.69l-.42.79a3.7 3.7 0 0 0 -2.15-.63c-1.36 0-2.13.55-2.13 1.35 0 1.71 4.17.55 4.17 3 0 1.45-1.3 2.29-3.26 2.29a4.65 4.65 0 0 1 -2.93-.9z"/><path d="m416.42 246.56.47-.79a4 4 0 0 0 2.55.82c1.42 0 2.19-.49 2.19-1.32 0-1.67-4.18-.52-4.18-3 0-1.4 1.26-2.3 3.2-2.3a4.49 4.49 0 0 1 2.49.69l-.42.79a3.73 3.73 0 0 0 -2.16-.63c-1.36 0-2.13.55-2.13 1.35 0 1.71 4.18.55 4.18 3 0 1.45-1.31 2.29-3.27 2.29a4.64 4.64 0 0 1 -2.92-.9z"/><path d="m424.23 246.73a.78.78 0 0 1 .78-.8.71.71 0 0 1 .72.73.78.78 0 0 1 -.77.79.72.72 0 0 1 -.73-.72z"/><path d="m142.63 271.18-2 9.8h-1l.9-4.51h-6.14l-.89 4.51h-1l2-9.8h1l-.87 4.36h6.13l.87-4.36z"/><path d="m145.29 277.58a1.46 1.46 0 0 0 0 .29c0 1.48.85 2.3 2.54 2.3a3.35 3.35 0 0 0 2.41-.92l.45.71a4.22 4.22 0 0 1 -2.94 1.09c-2.13 0-3.44-1.2-3.44-3.13a4.11 4.11 0 0 1 4.08-4.36 2.93 2.93 0 0 1 3.21 3.12 4.35 4.35 0 0 1 -.1.9zm.1-.74h5.25a2.53 2.53 0 0 0 0-.27 2.07 2.07 0 0 0 -2.31-2.17 3 3 0 0 0 -2.94 2.44z"/><path d="m159.35 273.62h1l-1.47 7.38h-1zm.25-2.27a.75.75 0 0 1 .77-.76.65.65 0 0 1 .68.63.76.76 0 0 1 -.78.79.66.66 0 0 1 -.67-.66z"/><path d="m161.57 280.16.48-.79a4 4 0 0 0 2.55.82c1.41 0 2.18-.49 2.18-1.32 0-1.67-4.17-.52-4.17-3 0-1.4 1.26-2.3 3.19-2.3a4.47 4.47 0 0 1 2.49.69l-.42.8a3.63 3.63 0 0 0 -2.15-.64c-1.36 0-2.13.55-2.13 1.35 0 1.71 4.17.55 4.17 3 0 1.45-1.3 2.29-3.26 2.29a4.65 4.65 0 0 1 -2.93-.9z"/><path d="m175.86 278.76a4.28 4.28 0 0 0 -.05.46c0 .63.35 1 1.06 1a1.9 1.9 0 0 0 1.14-.38l.24.76a2.75 2.75 0 0 1 -1.64.47 1.61 1.61 0 0 1 -1.8-1.68 2.83 2.83 0 0 1 .06-.57l.85-4.34h-1.3l.16-.84h1.31l.32-1.61h1l-.32 1.61h2.24l-.17.84h-2.24z"/><path d="m185.83 273.56-.18 1h-.28c-1.57 0-2.62.9-3 2.73l-.74 3.74h-1l1.46-7.36h.95l-.25 1.34a3.31 3.31 0 0 1 3.04-1.45z"/><path d="m194.84 273.62-5.38 8.32c-.91 1.4-1.6 1.83-2.66 1.83a2.38 2.38 0 0 1 -1.75-.66l.53-.72a1.73 1.73 0 0 0 1.3.53c.63 0 1.12-.3 1.7-1.19l.51-.79-1.83-7.32h1l1.52 6.27 4-6.27z"/><path d="m196.92 273.62h1l-1.46 7.38h-1zm.25-2.27a.75.75 0 0 1 .77-.76.66.66 0 0 1 .69.63.77.77 0 0 1 -.79.79.66.66 0 0 1 -.67-.66z"/><path d="m207.62 276a5.16 5.16 0 0 1 -.08.84l-.84 4.16h-1l.84-4.2a4.13 4.13 0 0 0 .07-.67c0-1.05-.63-1.65-1.9-1.65a2.87 2.87 0 0 0 -3 2.57l-.79 4h-1l1.46-7.36h1l-.24 1.17a3.63 3.63 0 0 1 2.89-1.23 2.31 2.31 0 0 1 2.59 2.37z"/><path d="m218.43 273.62-1.29 6.47c-.52 2.6-1.89 3.68-4.29 3.68a4.68 4.68 0 0 1 -3.27-1.1l.58-.76a3.88 3.88 0 0 0 2.76 1 2.88 2.88 0 0 0 3.2-2.63l.16-.82a3.79 3.79 0 0 1 -2.94 1.26c-1.94 0-3.25-1.13-3.25-3a4.08 4.08 0 0 1 4.21-4.18 2.83 2.83 0 0 1 2.87 1.68l.31-1.62zm-1.68 2.95c0-1.34-.91-2.14-2.44-2.14a3.13 3.13 0 0 0 -3.21 3.25c0 1.34.9 2.14 2.44 2.14a3.13 3.13 0 0 0 3.21-3.25z"/><path d="m232.5 276a4.3 4.3 0 0 1 -.09.84l-.84 4.18h-1l.84-4.2a4.13 4.13 0 0 0 .07-.67c0-1.05-.63-1.65-1.91-1.65a2.86 2.86 0 0 0 -3 2.57l-.79 4h-1l2.07-10.39h1l-.82 4.13a3.58 3.58 0 0 1 2.81-1.16c1.69-.09 2.66.81 2.66 2.35z"/><path d="m236.44 273.62h1l-1.44 7.38h-1zm.25-2.27a.76.76 0 0 1 .77-.76.66.66 0 0 1 .69.63.77.77 0 0 1 -.78.79.66.66 0 0 1 -.68-.66z"/><path d="m238.67 280.16.47-.79a4 4 0 0 0 2.55.82c1.42 0 2.19-.49 2.19-1.32 0-1.67-4.18-.52-4.18-3 0-1.4 1.26-2.3 3.2-2.3a4.49 4.49 0 0 1 2.49.69l-.42.8a3.64 3.64 0 0 0 -2.16-.64c-1.36 0-2.13.55-2.13 1.35 0 1.71 4.18.55 4.18 3 0 1.45-1.31 2.29-3.27 2.29a4.64 4.64 0 0 1 -2.92-.9z"/><path d="m259.63 276.67a4.15 4.15 0 0 1 -4.18 4.38 2.73 2.73 0 0 1 -2.81-1.68l-.32 1.61h-1l2.08-10.39h1l-.82 4.13a3.71 3.71 0 0 1 2.8-1.16 3 3 0 0 1 3.25 3.11zm-1 .06a2.15 2.15 0 0 0 -2.42-2.3 3.21 3.21 0 0 0 -3.18 3.46 2.14 2.14 0 0 0 2.42 2.28 3.21 3.21 0 0 0 3.17-3.44z"/><path d="m262.48 277.58v.29c0 1.48.84 2.3 2.53 2.3a3.34 3.34 0 0 0 2.41-.92l.45.71a4.21 4.21 0 0 1 -2.94 1.09c-2.13 0-3.43-1.2-3.43-3.13a4.1 4.1 0 0 1 4.07-4.36 2.93 2.93 0 0 1 3.21 3.12 4.35 4.35 0 0 1 -.1.9zm.1-.74h5.25a1.27 1.27 0 0 0 0-.27 2.08 2.08 0 0 0 -2.32-2.17 3 3 0 0 0 -2.93 2.44z"/><path d="m269.93 280.16.47-.79a4.07 4.07 0 0 0 2.55.82c1.42 0 2.19-.49 2.19-1.32 0-1.67-4.18-.52-4.18-3 0-1.4 1.27-2.3 3.2-2.3a4.47 4.47 0 0 1 2.49.69l-.42.8a3.64 3.64 0 0 0 -2.16-.64c-1.35 0-2.12.55-2.12 1.35 0 1.71 4.17.55 4.17 3 0 1.45-1.3 2.29-3.26 2.29a4.65 4.65 0 0 1 -2.93-.9z"/><path d="m279.85 278.76a4.28 4.28 0 0 0 -.05.46c0 .63.35 1 1.06 1a1.9 1.9 0 0 0 1.14-.38l.24.76a2.75 2.75 0 0 1 -1.64.47 1.61 1.61 0 0 1 -1.8-1.68 2.83 2.83 0 0 1 .06-.57l.85-4.34h-1.3l.16-.84h1.31l.33-1.61h1l-.32 1.61h2.24l-.17.84h-2.24z"/><path d="m290.61 278.76a2.77 2.77 0 0 0 -.06.46c0 .63.35 1 1.07 1a1.9 1.9 0 0 0 1.13-.38l.24.76a2.73 2.73 0 0 1 -1.64.47 1.6 1.6 0 0 1 -1.79-1.68 2.81 2.81 0 0 1 .05-.57l.86-4.34h-1.31l.16-.84h1.31l.37-1.64h1l-.32 1.61h2.24l-.17.84h-2.24z"/><path d="m295.06 277.93a4.18 4.18 0 0 1 4.26-4.37 3 3 0 0 1 3.34 3.11 4.18 4.18 0 0 1 -4.25 4.38 3 3 0 0 1 -3.35-3.12zm6.61-1.2a2.15 2.15 0 0 0 -2.42-2.3 3.24 3.24 0 0 0 -3.2 3.46 2.15 2.15 0 0 0 2.43 2.28 3.22 3.22 0 0 0 3.19-3.44z"/><path d="m311.05 270.59h1l-2.05 10.41h-1z"/><path d="m314.36 277.58v.29c0 1.48.84 2.3 2.54 2.3a3.31 3.31 0 0 0 2.4-.92l.45.71a4.19 4.19 0 0 1 -2.94 1.09c-2.13 0-3.43-1.2-3.43-3.13a4.1 4.1 0 0 1 4.08-4.36 2.93 2.93 0 0 1 3.2 3.12 5.18 5.18 0 0 1 -.09.9zm.1-.74h5.25a1.27 1.27 0 0 0 0-.27 2.08 2.08 0 0 0 -2.31-2.17 3 3 0 0 0 -2.94 2.44z"/><path d="m330.79 273.62-1.47 7.38h-.95l.23-1.16a3.77 3.77 0 0 1 -2.87 1.23 3 3 0 0 1 -3.2-3.12 4.14 4.14 0 0 1 4.16-4.37 2.76 2.76 0 0 1 2.8 1.6l.3-1.54zm-1.65 3.11a2.16 2.16 0 0 0 -2.43-2.3 3.24 3.24 0 0 0 -3.19 3.46 2.14 2.14 0 0 0 2.42 2.28 3.22 3.22 0 0 0 3.2-3.44z"/><path d="m338 273.56-.18 1h-.28c-1.57 0-2.62.9-3 2.73l-.74 3.74h-1l1.45-7.36h1l-.26 1.34a3.33 3.33 0 0 1 3.01-1.45z"/><path d="m346.68 276a5.16 5.16 0 0 1 -.08.84l-.85 4.18h-1l.84-4.2a4.13 4.13 0 0 0 .07-.67c0-1.05-.63-1.65-1.9-1.65a2.87 2.87 0 0 0 -3 2.57l-.79 4h-1l1.46-7.36h.95l-.24 1.17a3.63 3.63 0 0 1 2.89-1.23 2.31 2.31 0 0 1 2.65 2.35z"/><path d="m361.73 273.62-1.47 7.38h-.95l.23-1.16a3.77 3.77 0 0 1 -2.87 1.23 3 3 0 0 1 -3.21-3.12 4.15 4.15 0 0 1 4.16-4.37 2.76 2.76 0 0 1 2.81 1.6l.3-1.54zm-1.65 3.11a2.16 2.16 0 0 0 -2.43-2.3 3.24 3.24 0 0 0 -3.19 3.46 2.14 2.14 0 0 0 2.42 2.28 3.22 3.22 0 0 0 3.2-3.44z"/><path d="m371.42 276a4.3 4.3 0 0 1 -.09.84l-.84 4.18h-1l.84-4.2a4.13 4.13 0 0 0 .07-.67c0-1.05-.63-1.65-1.91-1.65a2.86 2.86 0 0 0 -3 2.57l-.79 4h-1l1.45-7.36h1l-.24 1.17a3.62 3.62 0 0 1 2.88-1.23c1.66-.09 2.63.81 2.63 2.35z"/><path d="m382.73 270.59-2.07 10.41h-1l.24-1.16a3.77 3.77 0 0 1 -2.87 1.23 3 3 0 0 1 -3.21-3.12 4.15 4.15 0 0 1 4.16-4.37 2.77 2.77 0 0 1 2.8 1.6l.91-4.57zm-2.26 6.14a2.15 2.15 0 0 0 -2.42-2.3 3.24 3.24 0 0 0 -3.19 3.46 2.14 2.14 0 0 0 2.42 2.28 3.21 3.21 0 0 0 3.19-3.44z"/><path d="m393.68 273.56-.19 1h-.28c-1.57 0-2.62.9-3 2.73l-.74 3.74h-1l1.46-7.36h.95l-.25 1.34a3.32 3.32 0 0 1 3.05-1.45z"/><path d="m395.55 277.58v.29c0 1.48.84 2.3 2.53 2.3a3.35 3.35 0 0 0 2.41-.92l.45.71a4.22 4.22 0 0 1 -2.94 1.09c-2.13 0-3.44-1.2-3.44-3.13a4.11 4.11 0 0 1 4.08-4.36 2.93 2.93 0 0 1 3.21 3.12 4.35 4.35 0 0 1 -.1.9zm.1-.74h5.25a2.53 2.53 0 0 0 0-.27 2.07 2.07 0 0 0 -2.31-2.17 3 3 0 0 0 -2.94 2.44z"/><path d="m416.86 275.93a5.71 5.71 0 0 1 -.09.87l-.85 4.18h-1l.84-4.2a2.81 2.81 0 0 0 .07-.68c0-1-.6-1.64-1.82-1.64a2.76 2.76 0 0 0 -2.86 2.46l-.81 4.06h-1l.84-4.2a4.13 4.13 0 0 0 .07-.67c0-1.05-.59-1.65-1.83-1.65a2.82 2.82 0 0 0 -2.88 2.57l-.79 4h-1l1.46-7.36h.95l-.24 1.17a3.45 3.45 0 0 1 2.79-1.23 2.29 2.29 0 0 1 2.41 1.47 3.73 3.73 0 0 1 3.11-1.47c1.69-.05 2.63.83 2.63 2.32z"/><path d="m420.29 277.58a1.46 1.46 0 0 0 0 .29c0 1.48.84 2.3 2.54 2.3a3.35 3.35 0 0 0 2.41-.92l.45.71a4.23 4.23 0 0 1 -2.95 1.09c-2.12 0-3.43-1.2-3.43-3.13a4.11 4.11 0 0 1 4.08-4.36 2.93 2.93 0 0 1 3.21 3.12 5.16 5.16 0 0 1 -.1.9zm.09-.74h5.26a2.53 2.53 0 0 0 0-.27 2.08 2.08 0 0 0 -2.31-2.17 3 3 0 0 0 -2.95 2.44z"/><path d="m441.6 275.93a4.74 4.74 0 0 1 -.1.87l-.84 4.18h-1l.84-4.2a3.41 3.41 0 0 0 .07-.68c0-1-.6-1.64-1.82-1.64a2.76 2.76 0 0 0 -2.86 2.46l-.81 4.06h-1l.84-4.2a3.25 3.25 0 0 0 .07-.67c0-1.05-.59-1.65-1.82-1.65a2.82 2.82 0 0 0 -2.87 2.54l-.79 4h-1l1.45-7.36h1l-.24 1.17a3.45 3.45 0 0 1 2.79-1.23 2.31 2.31 0 0 1 2.41 1.47 3.73 3.73 0 0 1 3.11-1.47c1.63-.02 2.57.86 2.57 2.35z"/><path d="m452.34 276.67a4.15 4.15 0 0 1 -4.18 4.38 2.72 2.72 0 0 1 -2.81-1.68l-.35 1.63h-.95l2.07-10.39h1l-.83 4.13a3.74 3.74 0 0 1 2.8-1.16 3 3 0 0 1 3.25 3.09zm-1 .06a2.16 2.16 0 0 0 -2.43-2.3 3.22 3.22 0 0 0 -3.18 3.46 2.15 2.15 0 0 0 2.43 2.28 3.21 3.21 0 0 0 3.17-3.44z"/><path d="m455.19 277.58a1.46 1.46 0 0 0 0 .29c0 1.48.84 2.3 2.54 2.3a3.35 3.35 0 0 0 2.41-.92l.45.71a4.22 4.22 0 0 1 -2.94 1.09c-2.13 0-3.44-1.2-3.44-3.13a4.11 4.11 0 0 1 4.08-4.36 2.93 2.93 0 0 1 3.21 3.12 4.35 4.35 0 0 1 -.1.9zm.1-.74h5.25a2.53 2.53 0 0 0 0-.27 2.08 2.08 0 0 0 -2.31-2.17 3 3 0 0 0 -2.94 2.44z"/><path d="m468.6 273.56-.18 1h-.28c-1.57 0-2.62.9-3 2.73l-.75 3.74h-1l1.46-7.36h.95l-.25 1.34a3.31 3.31 0 0 1 3.05-1.45z"/><path d="m249.34 290.42-5.34 8.32c-.91 1.4-1.6 1.83-2.66 1.83a2.38 2.38 0 0 1 -1.75-.66l.53-.72a1.73 1.73 0 0 0 1.3.53c.63 0 1.12-.3 1.7-1.19l.52-.79-1.84-7.32h1l1.53 6.27 4-6.27z"/><path d="m249.69 294.73a4.17 4.17 0 0 1 4.25-4.37 3 3 0 0 1 3.35 3.11 4.18 4.18 0 0 1 -4.26 4.38 3 3 0 0 1 -3.34-3.12zm6.61-1.2a2.16 2.16 0 0 0 -2.43-2.3 3.24 3.24 0 0 0 -3.19 3.46 2.14 2.14 0 0 0 2.42 2.31 3.22 3.22 0 0 0 3.2-3.47z"/><path d="m267.34 290.42-1.47 7.36h-.95l.24-1.17a3.58 3.58 0 0 1 -2.85 1.24 2.3 2.3 0 0 1 -2.61-2.4 4 4 0 0 1 .08-.83l.84-4.2h1l-.84 4.2a4 4 0 0 0 -.07.66c0 1.06.62 1.68 1.88 1.68a2.87 2.87 0 0 0 3-2.58l.79-4z"/><path d="m274.54 290.36-.18 1h-.28c-1.57 0-2.62.9-3 2.73l-.74 3.74h-1l1.45-7.36h.95l-.25 1.34a3.33 3.33 0 0 1 3.05-1.45z"/><path d="m281.63 295.56a4.28 4.28 0 0 0 -.05.46c0 .63.35 1 1.06 1a1.9 1.9 0 0 0 1.14-.38l.23.76a2.7 2.7 0 0 1 -1.63.47 1.61 1.61 0 0 1 -1.8-1.68 2.83 2.83 0 0 1 .06-.57l.85-4.34h-1.3l.15-.84h1.32l.32-1.61h1l-.32 1.61h2.24l-.17.84h-2.24z"/><path d="m287.08 294.38v.29c0 1.48.84 2.3 2.53 2.3a3.35 3.35 0 0 0 2.41-.92l.45.71a4.22 4.22 0 0 1 -2.94 1.09c-2.13 0-3.44-1.2-3.44-3.13a4.11 4.11 0 0 1 4.08-4.36 2.93 2.93 0 0 1 3.21 3.12 4.35 4.35 0 0 1 -.1.9zm.1-.74h5.25a2.53 2.53 0 0 0 0-.27 2.07 2.07 0 0 0 -2.31-2.17 3 3 0 0 0 -2.94 2.44z"/><path d="m303.5 290.42-1.5 7.36h-.95l.24-1.16a3.77 3.77 0 0 1 -2.87 1.23 3 3 0 0 1 -3.21-3.12 4.14 4.14 0 0 1 4.16-4.37 2.76 2.76 0 0 1 2.8 1.6l.31-1.54zm-1.65 3.11a2.15 2.15 0 0 0 -2.42-2.3 3.24 3.24 0 0 0 -3.2 3.46 2.15 2.15 0 0 0 2.43 2.28 3.22 3.22 0 0 0 3.19-3.44z"/><path d="m305.43 294.73a4.18 4.18 0 0 1 4.29-4.37 3.08 3.08 0 0 1 2.9 1.47l-.84.49a2.28 2.28 0 0 0 -2.15-1.09 3.24 3.24 0 0 0 -3.2 3.46 2.15 2.15 0 0 0 2.45 2.28 2.84 2.84 0 0 0 2.32-1.06l.72.54a3.8 3.8 0 0 1 -3.08 1.4c-2.1 0-3.41-1.23-3.41-3.12z"/><path d="m321.66 292.76a5.16 5.16 0 0 1 -.08.84l-.84 4.18h-1l.84-4.2a3.25 3.25 0 0 0 .07-.67c0-1.05-.63-1.65-1.9-1.65a2.87 2.87 0 0 0 -3 2.57l-.78 3.95h-1l2.08-10.39h1l-.83 4.13a3.58 3.58 0 0 1 2.82-1.16c1.66 0 2.62.9 2.62 2.4z"/><path d="m325.61 290.42h1l-1.46 7.36h-1zm.25-2.27a.75.75 0 0 1 .77-.76.66.66 0 0 1 .69.63.77.77 0 0 1 -.79.79.66.66 0 0 1 -.67-.66z"/><path d="m336.31 292.76a4.3 4.3 0 0 1 -.09.84l-.84 4.18h-1l.84-4.2a4.13 4.13 0 0 0 .07-.67c0-1.05-.63-1.65-1.91-1.65a2.87 2.87 0 0 0 -3 2.57l-.78 3.95h-1l1.45-7.36h1l-.24 1.17a3.62 3.62 0 0 1 2.88-1.23c1.65 0 2.62.9 2.62 2.4z"/><path d="m347.11 290.42-1.28 6.47c-.52 2.6-1.9 3.68-4.29 3.68a4.7 4.7 0 0 1 -3.28-1.1l.59-.76a3.86 3.86 0 0 0 2.76 1 2.89 2.89 0 0 0 3.19-2.63l.17-.82a3.79 3.79 0 0 1 -2.97 1.24c-1.95 0-3.25-1.13-3.25-3a4.07 4.07 0 0 1 4.2-4.18 2.82 2.82 0 0 1 2.87 1.68l.31-1.62zm-1.68 2.95c0-1.34-.91-2.14-2.43-2.14a3.12 3.12 0 0 0 -3.21 3.25c0 1.34.89 2.14 2.44 2.14a3.13 3.13 0 0 0 3.2-3.25z"/><path d="m348.34 297 .48-.79a4 4 0 0 0 2.55.82c1.41 0 2.18-.49 2.18-1.32 0-1.67-4.17-.52-4.17-3 0-1.4 1.26-2.3 3.19-2.3a4.47 4.47 0 0 1 2.49.69l-.42.8a3.63 3.63 0 0 0 -2.15-.64c-1.36 0-2.13.55-2.13 1.35 0 1.71 4.17.55 4.17 3 0 1.45-1.3 2.29-3.26 2.29a4.67 4.67 0 0 1 -2.93-.9z"/><path d="m356.15 297.13a.79.79 0 0 1 .79-.8.7.7 0 0 1 .71.73.77.77 0 0 1 -.77.79.73.73 0 0 1 -.73-.72z"/><path d="m186.62 344.77.81-1.82a7 7 0 0 0 4.16 1.39c2 0 2.79-.7 2.79-1.64 0-2.72-7.49-.94-7.49-5.62 0-2 1.62-3.76 5.08-3.76a8 8 0 0 1 4.19 1.12l-.74 1.81a7 7 0 0 0 -3.47-1c-1.94 0-2.74.76-2.74 1.71 0 2.69 7.48.94 7.48 5.57 0 2-1.64 3.74-5.1 3.74a8.12 8.12 0 0 1 -4.97-1.5z"/><path d="m209 336.49v9.61h-2.15v-1.22a3.92 3.92 0 0 1 -3.09 1.35c-2.47 0-4.14-1.35-4.14-4.25v-5.49h2.25v5.18c0 1.75.83 2.58 2.25 2.58s2.63-1 2.63-2.9v-4.86z"/><path d="m218.41 336.38v2.14a3.49 3.49 0 0 0 -.52 0c-1.71 0-2.79 1-2.79 3v4.66h-2.25v-9.61h2.15v1.4a3.78 3.78 0 0 1 3.41-1.59z"/><path d="m229.21 340.47v5.63h-2.12v-1.17a3.42 3.42 0 0 1 -3 1.3c-2.19 0-3.58-1.21-3.58-2.88s1.08-2.86 4-2.86h2.49v-.15c0-1.31-.79-2.09-2.39-2.09a4.74 4.74 0 0 0 -2.92 1l-.88-1.64a6.76 6.76 0 0 1 4.07-1.19c2.73-.04 4.33 1.27 4.33 4.05zm-2.21 2.63v-1.1h-2.32c-1.53 0-1.95.58-1.95 1.28s.69 1.33 1.84 1.33a2.45 2.45 0 0 0 2.43-1.51z"/><path d="m243.2 341.3a4.68 4.68 0 0 1 -4.88 4.93 4 4 0 0 1 -3.19-1.37v1.24h-2.13v-13.36h2.25v4.92a4 4 0 0 1 3.08-1.28 4.67 4.67 0 0 1 4.87 4.92zm-2.29 0a2.86 2.86 0 1 0 -2.84 3 2.79 2.79 0 0 0 2.84-3z"/><path d="m255.71 340.59v5.51h-2.25v-5.22c0-1.71-.85-2.54-2.29-2.54-1.6 0-2.68 1-2.68 2.9v4.86h-2.25v-13.36h2.25v4.86a4.29 4.29 0 0 1 3.2-1.22c2.31 0 4.02 1.31 4.02 4.21z"/><path d="m259.16 333.55a1.37 1.37 0 0 1 1.44-1.35 1.34 1.34 0 0 1 1.44 1.3 1.44 1.44 0 0 1 -2.88.05zm.31 2.94h2.25v9.61h-2.25z"/><path d="m281.1 346.3-1.58-1.53a6.36 6.36 0 0 1 -4.23 1.51c-2.67 0-4.59-1.38-4.59-3.36 0-1.57.86-2.67 2.91-3.82a3.85 3.85 0 0 1 -1.4-2.77c0-1.77 1.44-3 3.66-3 2 0 3.36 1.06 3.36 2.77 0 1.29-.75 2.23-2.57 3.26l2.72 2.59a8.24 8.24 0 0 0 .7-2.12l1.82.59a8.55 8.55 0 0 1 -1.14 2.88l1.59 1.51zm-2.91-2.81-3.33-3.18c-1.46.81-2 1.47-2 2.37s1 1.77 2.56 1.77a4.24 4.24 0 0 0 2.77-.96zm-3.93-7.2c0 .56.24 1 1.14 1.87 1.46-.79 1.92-1.31 1.92-2s-.52-1.2-1.45-1.2-1.61.56-1.61 1.33z"/><path d="m291.13 333.5h5.51c4.08 0 6.88 2.52 6.88 6.3s-2.8 6.3-6.88 6.3h-5.51zm5.4 10.62c2.81 0 4.63-1.71 4.63-4.32s-1.82-4.32-4.63-4.32h-3.06v8.64z"/><path d="m315.68 342h-7.54a2.91 2.91 0 0 0 3.11 2.3 3.44 3.44 0 0 0 2.61-1l1.21 1.38a4.85 4.85 0 0 1 -3.87 1.57c-3.22 0-5.31-2.07-5.31-4.93a4.78 4.78 0 0 1 5-4.92 4.69 4.69 0 0 1 4.86 5c-.03.13-.05.4-.07.6zm-7.56-1.5h5.46a2.62 2.62 0 0 0 -2.72-2.34 2.66 2.66 0 0 0 -2.74 2.36z"/><path d="m327.78 342h-7.55a2.91 2.91 0 0 0 3.12 2.3 3.44 3.44 0 0 0 2.61-1l1.21 1.38a4.89 4.89 0 0 1 -3.88 1.57c-3.22 0-5.31-2.07-5.31-4.93a4.78 4.78 0 0 1 5-4.92 4.69 4.69 0 0 1 4.86 5c-.03.13-.04.4-.06.6zm-7.56-1.5h5.45a2.61 2.61 0 0 0 -2.72-2.34 2.65 2.65 0 0 0 -2.73 2.36z"/><path d="m341.08 341.3a4.68 4.68 0 0 1 -4.88 4.93 3.94 3.94 0 0 1 -3.08-1.3v4.67h-2.25v-13.11h2.13v1.26a4 4 0 0 1 3.19-1.37 4.68 4.68 0 0 1 4.89 4.92zm-2.29 0a2.85 2.85 0 1 0 -2.84 3 2.79 2.79 0 0 0 2.84-3z"/><path d="m352 340.47v5.63h-2.12v-1.17a3.42 3.42 0 0 1 -3 1.3c-2.19 0-3.58-1.21-3.58-2.88s1.08-2.86 4-2.86h2.48v-.15c0-1.31-.79-2.09-2.39-2.09a4.74 4.74 0 0 0 -2.92 1l-.88-1.64a6.76 6.76 0 0 1 4.07-1.19c2.78-.04 4.34 1.27 4.34 4.05zm-2.25 2.63v-1.1h-2.32c-1.53 0-2 .58-2 1.28s.69 1.33 1.84 1.33a2.45 2.45 0 0 0 2.52-1.51z"/><path d="m359.74 342-1.67 1.58v2.54h-2.25v-13.38h2.25v8.07l4.66-4.32h2.7l-4 4 4.39 5.58h-2.73z"/><path d="m372.32 344.46 1.34-1.6a3 3 0 0 0 2.5 1.44c1.3 0 2-.77 2-2.32v-6.52h-4.48v-2h6.82v8.35c0 3-1.47 4.43-4.25 4.43a4.77 4.77 0 0 1 -3.93-1.78z"/><path d="m392.47 340.47v5.63h-2.13v-1.17a3.4 3.4 0 0 1 -3 1.3c-2.2 0-3.58-1.21-3.58-2.88s1.08-2.86 4-2.86h2.49v-.15c0-1.31-.79-2.09-2.4-2.09a4.71 4.71 0 0 0 -2.91 1l-.89-1.64a6.78 6.78 0 0 1 4.07-1.19c2.75-.04 4.35 1.27 4.35 4.05zm-2.25 2.63v-1.1h-2.32c-1.54 0-1.95.58-1.95 1.28s.68 1.33 1.84 1.33a2.45 2.45 0 0 0 2.43-1.51z"/><path d="m395.94 333.55a1.37 1.37 0 0 1 1.44-1.35 1.34 1.34 0 0 1 1.44 1.3 1.44 1.44 0 0 1 -2.88.05zm.31 2.94h2.25v9.61h-2.25z"/><path d="m411.82 340.59v5.51h-2.25v-5.22c0-1.71-.85-2.54-2.29-2.54-1.6 0-2.68 1-2.68 2.9v4.86h-2.25v-9.61h2.14v1.24a4.19 4.19 0 0 1 3.31-1.35c2.31 0 4.02 1.31 4.02 4.21z"/></g></svg>