<svg xmlns="http://www.w3.org/2000/svg" viewBox="0 0 25 25"><defs><style>.ae6e19ed-3e03-40a1-91af-9cfcec1ebf33{isolation:isolate;}.f5ce6480-5945-4609-aedc-a8ead9893359{mix-blend-mode:multiply;}.e6fbfbfd-a2c3-4da6-af1e-24ef56acec30{fill:#2babe2;fill-rule:evenodd;}</style></defs><title>GISArtboard 1</title><g class="ae6e19ed-3e03-40a1-91af-9cfcec1ebf33"><g id="bb2ed4d7-84d9-4994-a69a-8714afdf14e1" data-name="Layer 1"><g class="f5ce6480-5945-4609-aedc-a8ead9893359"><path class="e6fbfbfd-a2c3-4da6-af1e-24ef56acec30" d="M17.58,7.29,22,11.7a1.84,1.84,0,0,1,0,2.59l-7.16,7.16a3.86,3.86,0,0,1-5.45,0L3.65,15.72a3.86,3.86,0,0,1,0-5.45l8.46-8.45L14,3.69a1.82,1.82,0,0,1,0,2.59L8.84,11.43a2.2,2.2,0,0,0,0,3.13l2.77,2.77a.7.7,0,0,0,1,0l3.83-3.83a.71.71,0,0,0,0-1l-.5-.5-3.83,3.83-1.54-1.53a1.84,1.84,0,0,1,0-2.59L15,7.29A1.82,1.82,0,0,1,17.58,7.29Z"/></g></g></g></svg>