<svg enable-background="new 0 0 512 512" height="512" viewBox="0 0 512 512" width="512" xmlns="http://www.w3.org/2000/svg"><g fill="#dc3545"><path d="m400 0c-61.76 0-112 50.24-112 112 0 57.472 89.856 159.264 100.096 170.688 3.04 3.36 7.36 5.312 11.904 5.312s8.864-1.952 11.904-5.312c10.24-11.424 100.096-113.216 100.096-170.688 0-61.76-50.24-112-112-112zm0 160c-26.496 0-48-21.504-48-48s21.504-48 48-48 48 21.504 48 48-21.504 48-48 48z" xmlns="http://www.w3.org/2000/svg"/><path d="m10.048 187.968c-6.048 2.432-10.048 8.32-10.048 14.88v293.152c0 5.312 2.656 10.272 7.04 13.248 2.688 1.792 5.792 2.752 8.96 2.752 2.016 0 4.032-.384 5.952-1.152l138.048-55.232v-327.616z" xmlns="http://www.w3.org/2000/svg"/><path d="m435.712 304.064c-9.088 10.112-22.112 15.936-35.712 15.936s-26.624-5.824-35.712-15.936c-3.264-3.616-7.456-8.384-12.288-14.048v221.984l149.952-59.968c6.08-2.4 10.048-8.32 10.048-14.848v-235.232c-26.208 44.384-61.248 85.344-76.288 102.112z" xmlns="http://www.w3.org/2000/svg"/><path d="m266.08 157.632-74.08-29.632v327.616l128 51.2v-256.96c-20.448-27.552-41.792-60.736-53.92-92.224z" xmlns="http://www.w3.org/2000/svg"/></g></svg>